%TF.GenerationSoftware,KiCad,Pcbnew,(6.0.8)*%
%TF.CreationDate,2023-03-18T01:03:17+01:00*%
%TF.ProjectId,ROTARY_SW,524f5441-5259-45f5-9357-2e6b69636164,rev?*%
%TF.SameCoordinates,Original*%
%TF.FileFunction,Drillmap*%
%TF.FilePolarity,Positive*%
%FSLAX45Y45*%
G04 Gerber Fmt 4.5, Leading zero omitted, Abs format (unit mm)*
G04 Created by KiCad (PCBNEW (6.0.8)) date 2023-03-18 01:03:17*
%MOMM*%
%LPD*%
G01*
G04 APERTURE LIST*
%ADD10C,0.100000*%
%ADD11C,0.200000*%
G04 APERTURE END LIST*
D10*
X9448800Y-3441700D02*
X9448800Y-3975100D01*
X9448800Y-3975100D02*
X9105900Y-3975100D01*
X9105900Y-3441700D02*
G75*
G03*
X9105900Y-3975100I-622300J-266700D01*
G01*
X9105900Y-3441700D02*
X9448800Y-3441700D01*
D11*
X8059177Y-4700918D02*
X8059177Y-4500918D01*
X8106796Y-4500918D01*
X8135367Y-4510442D01*
X8154415Y-4529490D01*
X8163939Y-4548537D01*
X8173462Y-4586633D01*
X8173462Y-4615204D01*
X8163939Y-4653299D01*
X8154415Y-4672347D01*
X8135367Y-4691395D01*
X8106796Y-4700918D01*
X8059177Y-4700918D01*
X8259177Y-4700918D02*
X8259177Y-4567585D01*
X8259177Y-4605680D02*
X8268701Y-4586633D01*
X8278224Y-4577109D01*
X8297272Y-4567585D01*
X8316320Y-4567585D01*
X8382986Y-4700918D02*
X8382986Y-4567585D01*
X8382986Y-4500918D02*
X8373462Y-4510442D01*
X8382986Y-4519966D01*
X8392510Y-4510442D01*
X8382986Y-4500918D01*
X8382986Y-4519966D01*
X8506796Y-4700918D02*
X8487748Y-4691395D01*
X8478224Y-4672347D01*
X8478224Y-4500918D01*
X8611558Y-4700918D02*
X8592510Y-4691395D01*
X8582986Y-4672347D01*
X8582986Y-4500918D01*
X8840129Y-4700918D02*
X8840129Y-4500918D01*
X8906796Y-4643776D01*
X8973463Y-4500918D01*
X8973463Y-4700918D01*
X9154415Y-4700918D02*
X9154415Y-4596156D01*
X9144891Y-4577109D01*
X9125844Y-4567585D01*
X9087748Y-4567585D01*
X9068701Y-4577109D01*
X9154415Y-4691395D02*
X9135367Y-4700918D01*
X9087748Y-4700918D01*
X9068701Y-4691395D01*
X9059177Y-4672347D01*
X9059177Y-4653299D01*
X9068701Y-4634252D01*
X9087748Y-4624728D01*
X9135367Y-4624728D01*
X9154415Y-4615204D01*
X9249653Y-4567585D02*
X9249653Y-4767585D01*
X9249653Y-4577109D02*
X9268701Y-4567585D01*
X9306796Y-4567585D01*
X9325844Y-4577109D01*
X9335367Y-4586633D01*
X9344891Y-4605680D01*
X9344891Y-4662823D01*
X9335367Y-4681871D01*
X9325844Y-4691395D01*
X9306796Y-4700918D01*
X9268701Y-4700918D01*
X9249653Y-4691395D01*
X9430605Y-4681871D02*
X9440129Y-4691395D01*
X9430605Y-4700918D01*
X9421082Y-4691395D01*
X9430605Y-4681871D01*
X9430605Y-4700918D01*
X9430605Y-4577109D02*
X9440129Y-4586633D01*
X9430605Y-4596156D01*
X9421082Y-4586633D01*
X9430605Y-4577109D01*
X9430605Y-4596156D01*
M02*
