%TF.GenerationSoftware,KiCad,Pcbnew,(6.0.8)*%
%TF.CreationDate,2023-03-18T01:03:14+01:00*%
%TF.ProjectId,ROTARY_SW,524f5441-5259-45f5-9357-2e6b69636164,rev?*%
%TF.SameCoordinates,Original*%
%TF.FileFunction,Copper,L2,Bot*%
%TF.FilePolarity,Positive*%
%FSLAX46Y46*%
G04 Gerber Fmt 4.6, Leading zero omitted, Abs format (unit mm)*
G04 Created by KiCad (PCBNEW (6.0.8)) date 2023-03-18 01:03:14*
%MOMM*%
%LPD*%
G01*
G04 APERTURE LIST*
G04 Aperture macros list*
%AMRoundRect*
0 Rectangle with rounded corners*
0 $1 Rounding radius*
0 $2 $3 $4 $5 $6 $7 $8 $9 X,Y pos of 4 corners*
0 Add a 4 corners polygon primitive as box body*
4,1,4,$2,$3,$4,$5,$6,$7,$8,$9,$2,$3,0*
0 Add four circle primitives for the rounded corners*
1,1,$1+$1,$2,$3*
1,1,$1+$1,$4,$5*
1,1,$1+$1,$6,$7*
1,1,$1+$1,$8,$9*
0 Add four rect primitives between the rounded corners*
20,1,$1+$1,$2,$3,$4,$5,0*
20,1,$1+$1,$4,$5,$6,$7,0*
20,1,$1+$1,$6,$7,$8,$9,0*
20,1,$1+$1,$8,$9,$2,$3,0*%
%AMFreePoly0*
4,1,5,0.950000,-0.450000,-0.950000,-0.450000,-0.950000,0.450000,0.950000,0.450000,0.950000,-0.450000,0.950000,-0.450000,$1*%
G04 Aperture macros list end*
%TA.AperFunction,ComponentPad*%
%ADD10R,1.368000X1.368000*%
%TD*%
%TA.AperFunction,ComponentPad*%
%ADD11C,1.368000*%
%TD*%
%TA.AperFunction,ComponentPad*%
%ADD12C,1.398000*%
%TD*%
%TA.AperFunction,ComponentPad*%
%ADD13FreePoly0,0.000000*%
%TD*%
%TA.AperFunction,SMDPad,CuDef*%
%ADD14RoundRect,0.135000X-0.185000X0.135000X-0.185000X-0.135000X0.185000X-0.135000X0.185000X0.135000X0*%
%TD*%
%TA.AperFunction,SMDPad,CuDef*%
%ADD15RoundRect,0.135000X-0.135000X-0.185000X0.135000X-0.185000X0.135000X0.185000X-0.135000X0.185000X0*%
%TD*%
%TA.AperFunction,SMDPad,CuDef*%
%ADD16RoundRect,0.135000X0.135000X0.185000X-0.135000X0.185000X-0.135000X-0.185000X0.135000X-0.185000X0*%
%TD*%
%TA.AperFunction,SMDPad,CuDef*%
%ADD17RoundRect,0.135000X0.185000X-0.135000X0.185000X0.135000X-0.185000X0.135000X-0.185000X-0.135000X0*%
%TD*%
%TA.AperFunction,Conductor*%
%ADD18C,0.250000*%
%TD*%
G04 APERTURE END LIST*
D10*
%TO.P,S1,1*%
%TO.N,Net-(R11-Pad1)*%
X89327560Y-38287510D03*
D11*
%TO.P,S1,2*%
%TO.N,Net-(R10-Pad1)*%
X88124050Y-40372050D03*
%TO.P,S1,3*%
%TO.N,Net-(R10-Pad2)*%
X86039510Y-41575560D03*
%TO.P,S1,4*%
%TO.N,Net-(R8-Pad1)*%
X83632490Y-41575560D03*
%TO.P,S1,5*%
%TO.N,Net-(R7-Pad1)*%
X81547950Y-40372050D03*
%TO.P,S1,6*%
%TO.N,Net-(R6-Pad1)*%
X80344440Y-38287510D03*
%TO.P,S1,7*%
%TO.N,Net-(R5-Pad1)*%
X80344440Y-35880490D03*
%TO.P,S1,8*%
%TO.N,Net-(R4-Pad1)*%
X81547950Y-33795950D03*
%TO.P,S1,9*%
%TO.N,Net-(R3-Pad1)*%
X83632490Y-32592440D03*
%TO.P,S1,10*%
%TO.N,Net-(R2-Pad1)*%
X86039510Y-32592440D03*
%TO.P,S1,11*%
%TO.N,Net-(R1-Pad1)*%
X88124050Y-33795950D03*
%TO.P,S1,12*%
%TO.N,Net-(R1-Pad2)*%
X89327560Y-35880490D03*
D12*
%TO.P,S1,C*%
%TO.N,OUT*%
X84836000Y-37084000D03*
%TD*%
D13*
%TO.P,J1,1,Pin_1*%
%TO.N,+3.3V*%
X93091000Y-35814000D03*
%TO.P,J1,2,Pin_2*%
%TO.N,GND*%
X93091000Y-37084000D03*
%TO.P,J1,3,Pin_3*%
%TO.N,OUT*%
X93091000Y-38354000D03*
%TD*%
D14*
%TO.P,R4,1*%
%TO.N,Net-(R4-Pad1)*%
X83058000Y-34159000D03*
%TO.P,R4,2*%
%TO.N,Net-(R3-Pad1)*%
X83058000Y-35179000D03*
%TD*%
D15*
%TO.P,R6,1*%
%TO.N,Net-(R6-Pad1)*%
X81913000Y-37719000D03*
%TO.P,R6,2*%
%TO.N,Net-(R5-Pad1)*%
X82933000Y-37719000D03*
%TD*%
D14*
%TO.P,R3,1*%
%TO.N,Net-(R3-Pad1)*%
X84201000Y-34159000D03*
%TO.P,R3,2*%
%TO.N,Net-(R2-Pad1)*%
X84201000Y-35179000D03*
%TD*%
D16*
%TO.P,R11,1*%
%TO.N,Net-(R11-Pad1)*%
X87757000Y-37719000D03*
%TO.P,R11,2*%
%TO.N,Net-(R10-Pad1)*%
X86737000Y-37719000D03*
%TD*%
D14*
%TO.P,R1,1*%
%TO.N,Net-(R1-Pad1)*%
X86614000Y-34159000D03*
%TO.P,R1,2*%
%TO.N,Net-(R1-Pad2)*%
X86614000Y-35179000D03*
%TD*%
%TO.P,R10,1*%
%TO.N,Net-(R10-Pad1)*%
X86650000Y-38985000D03*
%TO.P,R10,2*%
%TO.N,Net-(R10-Pad2)*%
X86650000Y-40005000D03*
%TD*%
D17*
%TO.P,R8,1*%
%TO.N,Net-(R8-Pad1)*%
X84200000Y-40005000D03*
%TO.P,R8,2*%
%TO.N,Net-(R7-Pad1)*%
X84200000Y-38985000D03*
%TD*%
D16*
%TO.P,R12,1*%
%TO.N,GND*%
X87757000Y-36469000D03*
%TO.P,R12,2*%
%TO.N,Net-(R11-Pad1)*%
X86737000Y-36469000D03*
%TD*%
D17*
%TO.P,R13,1*%
%TO.N,+3.3V*%
X90805000Y-36197000D03*
%TO.P,R13,2*%
%TO.N,Net-(R1-Pad2)*%
X90805000Y-35177000D03*
%TD*%
%TO.P,R9,1*%
%TO.N,Net-(R10-Pad2)*%
X85500000Y-40005000D03*
%TO.P,R9,2*%
%TO.N,Net-(R8-Pad1)*%
X85500000Y-38985000D03*
%TD*%
D14*
%TO.P,R2,1*%
%TO.N,Net-(R2-Pad1)*%
X85471000Y-34159000D03*
%TO.P,R2,2*%
%TO.N,Net-(R1-Pad1)*%
X85471000Y-35179000D03*
%TD*%
D15*
%TO.P,R5,1*%
%TO.N,Net-(R5-Pad1)*%
X81913000Y-36449000D03*
%TO.P,R5,2*%
%TO.N,Net-(R4-Pad1)*%
X82933000Y-36449000D03*
%TD*%
D17*
%TO.P,R7,1*%
%TO.N,Net-(R7-Pad1)*%
X83058000Y-40005000D03*
%TO.P,R7,2*%
%TO.N,Net-(R6-Pad1)*%
X83058000Y-38985000D03*
%TD*%
D18*
%TO.N,Net-(R1-Pad1)*%
X87761000Y-34159000D02*
X88124050Y-33795950D01*
X86614000Y-34159000D02*
X86491000Y-34159000D01*
X86491000Y-34159000D02*
X85471000Y-35179000D01*
X86614000Y-34159000D02*
X87761000Y-34159000D01*
%TO.N,Net-(R1-Pad2)*%
X89642070Y-36195000D02*
X89327560Y-35880490D01*
X90031050Y-35177000D02*
X89327560Y-35880490D01*
X90805000Y-35177000D02*
X90031050Y-35177000D01*
X88626070Y-35179000D02*
X89327560Y-35880490D01*
X86614000Y-35179000D02*
X88626070Y-35179000D01*
%TO.N,Net-(R2-Pad1)*%
X85471000Y-34159000D02*
X85221000Y-34159000D01*
X85221000Y-34159000D02*
X84201000Y-35179000D01*
X85471000Y-33160950D02*
X86039510Y-32592440D01*
X85471000Y-34159000D02*
X85471000Y-33160950D01*
%TO.N,Net-(R3-Pad1)*%
X83632490Y-33590490D02*
X84201000Y-34159000D01*
X83632490Y-32592440D02*
X83632490Y-33590490D01*
X84201000Y-34159000D02*
X84078000Y-34159000D01*
X84078000Y-34159000D02*
X83058000Y-35179000D01*
%TO.N,Net-(R4-Pad1)*%
X81911000Y-34159000D02*
X81547950Y-33795950D01*
X81547950Y-35063950D02*
X82933000Y-36449000D01*
X83058000Y-34159000D02*
X81911000Y-34159000D01*
X81547950Y-33795950D02*
X81547950Y-35063950D01*
%TO.N,Net-(R5-Pad1)*%
X81913000Y-36699000D02*
X82933000Y-37719000D01*
X81913000Y-36449000D02*
X81913000Y-36699000D01*
X81344490Y-35880490D02*
X81913000Y-36449000D01*
X80344440Y-35880490D02*
X81344490Y-35880490D01*
%TO.N,Net-(R6-Pad1)*%
X80912950Y-37719000D02*
X80344440Y-38287510D01*
X81913000Y-37719000D02*
X80912950Y-37719000D01*
X81913000Y-37719000D02*
X81913000Y-37840000D01*
X81913000Y-37840000D02*
X83058000Y-38985000D01*
%TO.N,Net-(R7-Pad1)*%
X83058000Y-40005000D02*
X81915000Y-40005000D01*
X83058000Y-40005000D02*
X83180000Y-40005000D01*
X81915000Y-40005000D02*
X81547950Y-40372050D01*
X83180000Y-40005000D02*
X84200000Y-38985000D01*
%TO.N,Net-(R8-Pad1)*%
X84200000Y-41008050D02*
X83632490Y-41575560D01*
X84480000Y-40005000D02*
X85500000Y-38985000D01*
X84200000Y-40005000D02*
X84200000Y-41008050D01*
X84200000Y-40005000D02*
X84480000Y-40005000D01*
%TO.N,Net-(R10-Pad2)*%
X85500000Y-40005000D02*
X85500000Y-41036050D01*
X85500000Y-41036050D02*
X86039510Y-41575560D01*
X85500000Y-40005000D02*
X86650000Y-40005000D01*
%TO.N,Net-(R10-Pad1)*%
X86650000Y-37806000D02*
X86737000Y-37719000D01*
X88124050Y-40372050D02*
X88037050Y-40372050D01*
X86650000Y-38985000D02*
X86650000Y-37806000D01*
X88037050Y-40372050D02*
X86650000Y-38985000D01*
%TO.N,Net-(R11-Pad1)*%
X88759050Y-37719000D02*
X89327560Y-38287510D01*
X87757000Y-37489000D02*
X86737000Y-36469000D01*
X87757000Y-37719000D02*
X88759050Y-37719000D01*
X87757000Y-37719000D02*
X87757000Y-37489000D01*
%TO.N,GND*%
X88372000Y-37084000D02*
X93091000Y-37084000D01*
X87757000Y-36469000D02*
X88372000Y-37084000D01*
%TO.N,+3.3V*%
X93091000Y-35814000D02*
X91188000Y-35814000D01*
X91188000Y-35814000D02*
X90805000Y-36197000D01*
%TD*%
M02*
