%TF.GenerationSoftware,KiCad,Pcbnew,(6.0.8)*%
%TF.CreationDate,2023-03-18T01:03:17+01:00*%
%TF.ProjectId,ROTARY_SW,524f5441-5259-45f5-9357-2e6b69636164,rev?*%
%TF.SameCoordinates,Original*%
%TF.FileFunction,Drillmap*%
%TF.FilePolarity,Positive*%
%FSLAX45Y45*%
G04 Gerber Fmt 4.5, Leading zero omitted, Abs format (unit mm)*
G04 Created by KiCad (PCBNEW (6.0.8)) date 2023-03-18 01:03:17*
%MOMM*%
%LPD*%
G01*
G04 APERTURE LIST*
%ADD10C,0.100000*%
%ADD11C,0.200000*%
%ADD12C,0.065000*%
%ADD13C,0.086000*%
%ADD14C,0.089000*%
G04 APERTURE END LIST*
D10*
X9448800Y-3441700D02*
X9448800Y-3975100D01*
X9448800Y-3975100D02*
X9105900Y-3975100D01*
X9105900Y-3441700D02*
G75*
G03*
X9105900Y-3975100I-622300J-266700D01*
G01*
X9105900Y-3441700D02*
X9448800Y-3441700D01*
D11*
D12*
X9276600Y-3548900D02*
X9341600Y-3613900D01*
X9341600Y-3548900D02*
X9276600Y-3613900D01*
X9276600Y-3675900D02*
X9341600Y-3740900D01*
X9341600Y-3675900D02*
X9276600Y-3740900D01*
X9276600Y-3802900D02*
X9341600Y-3867900D01*
X9341600Y-3802900D02*
X9276600Y-3867900D01*
D13*
X8077444Y-3588049D02*
G75*
G03*
X8077444Y-3588049I-43000J0D01*
G01*
X8077444Y-3828751D02*
G75*
G03*
X8077444Y-3828751I-43000J0D01*
G01*
X8197795Y-3379595D02*
G75*
G03*
X8197795Y-3379595I-43000J0D01*
G01*
X8197795Y-4037205D02*
G75*
G03*
X8197795Y-4037205I-43000J0D01*
G01*
X8406249Y-3259244D02*
G75*
G03*
X8406249Y-3259244I-43000J0D01*
G01*
X8406249Y-4157556D02*
G75*
G03*
X8406249Y-4157556I-43000J0D01*
G01*
X8646951Y-3259244D02*
G75*
G03*
X8646951Y-3259244I-43000J0D01*
G01*
X8646951Y-4157556D02*
G75*
G03*
X8646951Y-4157556I-43000J0D01*
G01*
X8855405Y-3379595D02*
G75*
G03*
X8855405Y-3379595I-43000J0D01*
G01*
X8855405Y-4037205D02*
G75*
G03*
X8855405Y-4037205I-43000J0D01*
G01*
X8975756Y-3588049D02*
G75*
G03*
X8975756Y-3588049I-43000J0D01*
G01*
X8975756Y-3828751D02*
G75*
G03*
X8975756Y-3828751I-43000J0D01*
G01*
D14*
X8483600Y-3663900D02*
X8483600Y-3752900D01*
X8439100Y-3708400D02*
X8528100Y-3708400D01*
D11*
X8059177Y-4700918D02*
X8059177Y-4500918D01*
X8106796Y-4500918D01*
X8135367Y-4510442D01*
X8154415Y-4529490D01*
X8163939Y-4548537D01*
X8173462Y-4586633D01*
X8173462Y-4615204D01*
X8163939Y-4653299D01*
X8154415Y-4672347D01*
X8135367Y-4691395D01*
X8106796Y-4700918D01*
X8059177Y-4700918D01*
X8259177Y-4700918D02*
X8259177Y-4567585D01*
X8259177Y-4605680D02*
X8268701Y-4586633D01*
X8278224Y-4577109D01*
X8297272Y-4567585D01*
X8316320Y-4567585D01*
X8382986Y-4700918D02*
X8382986Y-4567585D01*
X8382986Y-4500918D02*
X8373462Y-4510442D01*
X8382986Y-4519966D01*
X8392510Y-4510442D01*
X8382986Y-4500918D01*
X8382986Y-4519966D01*
X8506796Y-4700918D02*
X8487748Y-4691395D01*
X8478224Y-4672347D01*
X8478224Y-4500918D01*
X8611558Y-4700918D02*
X8592510Y-4691395D01*
X8582986Y-4672347D01*
X8582986Y-4500918D01*
X8840129Y-4700918D02*
X8840129Y-4500918D01*
X8906796Y-4643776D01*
X8973463Y-4500918D01*
X8973463Y-4700918D01*
X9154415Y-4700918D02*
X9154415Y-4596156D01*
X9144891Y-4577109D01*
X9125844Y-4567585D01*
X9087748Y-4567585D01*
X9068701Y-4577109D01*
X9154415Y-4691395D02*
X9135367Y-4700918D01*
X9087748Y-4700918D01*
X9068701Y-4691395D01*
X9059177Y-4672347D01*
X9059177Y-4653299D01*
X9068701Y-4634252D01*
X9087748Y-4624728D01*
X9135367Y-4624728D01*
X9154415Y-4615204D01*
X9249653Y-4567585D02*
X9249653Y-4767585D01*
X9249653Y-4577109D02*
X9268701Y-4567585D01*
X9306796Y-4567585D01*
X9325844Y-4577109D01*
X9335367Y-4586633D01*
X9344891Y-4605680D01*
X9344891Y-4662823D01*
X9335367Y-4681871D01*
X9325844Y-4691395D01*
X9306796Y-4700918D01*
X9268701Y-4700918D01*
X9249653Y-4691395D01*
X9430605Y-4681871D02*
X9440129Y-4691395D01*
X9430605Y-4700918D01*
X9421082Y-4691395D01*
X9430605Y-4681871D01*
X9430605Y-4700918D01*
X9430605Y-4577109D02*
X9440129Y-4586633D01*
X9430605Y-4596156D01*
X9421082Y-4586633D01*
X9430605Y-4577109D01*
X9430605Y-4596156D01*
D12*
X7736558Y-4997942D02*
X7801558Y-5062942D01*
X7801558Y-4997942D02*
X7736558Y-5062942D01*
D11*
X8097272Y-4920918D02*
X8116320Y-4920918D01*
X8135367Y-4930442D01*
X8144891Y-4939966D01*
X8154415Y-4959014D01*
X8163939Y-4997109D01*
X8163939Y-5044728D01*
X8154415Y-5082823D01*
X8144891Y-5101871D01*
X8135367Y-5111395D01*
X8116320Y-5120918D01*
X8097272Y-5120918D01*
X8078224Y-5111395D01*
X8068701Y-5101871D01*
X8059177Y-5082823D01*
X8049653Y-5044728D01*
X8049653Y-4997109D01*
X8059177Y-4959014D01*
X8068701Y-4939966D01*
X8078224Y-4930442D01*
X8097272Y-4920918D01*
X8249653Y-5101871D02*
X8259177Y-5111395D01*
X8249653Y-5120918D01*
X8240129Y-5111395D01*
X8249653Y-5101871D01*
X8249653Y-5120918D01*
X8430605Y-4920918D02*
X8392510Y-4920918D01*
X8373462Y-4930442D01*
X8363939Y-4939966D01*
X8344891Y-4968537D01*
X8335367Y-5006633D01*
X8335367Y-5082823D01*
X8344891Y-5101871D01*
X8354415Y-5111395D01*
X8373462Y-5120918D01*
X8411558Y-5120918D01*
X8430605Y-5111395D01*
X8440129Y-5101871D01*
X8449653Y-5082823D01*
X8449653Y-5035204D01*
X8440129Y-5016156D01*
X8430605Y-5006633D01*
X8411558Y-4997109D01*
X8373462Y-4997109D01*
X8354415Y-5006633D01*
X8344891Y-5016156D01*
X8335367Y-5035204D01*
X8630605Y-4920918D02*
X8535367Y-4920918D01*
X8525844Y-5016156D01*
X8535367Y-5006633D01*
X8554415Y-4997109D01*
X8602034Y-4997109D01*
X8621082Y-5006633D01*
X8630605Y-5016156D01*
X8640129Y-5035204D01*
X8640129Y-5082823D01*
X8630605Y-5101871D01*
X8621082Y-5111395D01*
X8602034Y-5120918D01*
X8554415Y-5120918D01*
X8535367Y-5111395D01*
X8525844Y-5101871D01*
X8763939Y-4920918D02*
X8782986Y-4920918D01*
X8802034Y-4930442D01*
X8811558Y-4939966D01*
X8821082Y-4959014D01*
X8830605Y-4997109D01*
X8830605Y-5044728D01*
X8821082Y-5082823D01*
X8811558Y-5101871D01*
X8802034Y-5111395D01*
X8782986Y-5120918D01*
X8763939Y-5120918D01*
X8744891Y-5111395D01*
X8735367Y-5101871D01*
X8725844Y-5082823D01*
X8716320Y-5044728D01*
X8716320Y-4997109D01*
X8725844Y-4959014D01*
X8735367Y-4939966D01*
X8744891Y-4930442D01*
X8763939Y-4920918D01*
X8916320Y-5120918D02*
X8916320Y-4987585D01*
X8916320Y-5006633D02*
X8925844Y-4997109D01*
X8944891Y-4987585D01*
X8973463Y-4987585D01*
X8992510Y-4997109D01*
X9002034Y-5016156D01*
X9002034Y-5120918D01*
X9002034Y-5016156D02*
X9011558Y-4997109D01*
X9030605Y-4987585D01*
X9059177Y-4987585D01*
X9078224Y-4997109D01*
X9087748Y-5016156D01*
X9087748Y-5120918D01*
X9182986Y-5120918D02*
X9182986Y-4987585D01*
X9182986Y-5006633D02*
X9192510Y-4997109D01*
X9211558Y-4987585D01*
X9240129Y-4987585D01*
X9259177Y-4997109D01*
X9268701Y-5016156D01*
X9268701Y-5120918D01*
X9268701Y-5016156D02*
X9278224Y-4997109D01*
X9297272Y-4987585D01*
X9325844Y-4987585D01*
X9344891Y-4997109D01*
X9354415Y-5016156D01*
X9354415Y-5120918D01*
X9744891Y-4911395D02*
X9573463Y-5168537D01*
X10002034Y-4920918D02*
X10021082Y-4920918D01*
X10040129Y-4930442D01*
X10049653Y-4939966D01*
X10059177Y-4959014D01*
X10068701Y-4997109D01*
X10068701Y-5044728D01*
X10059177Y-5082823D01*
X10049653Y-5101871D01*
X10040129Y-5111395D01*
X10021082Y-5120918D01*
X10002034Y-5120918D01*
X9982986Y-5111395D01*
X9973463Y-5101871D01*
X9963939Y-5082823D01*
X9954415Y-5044728D01*
X9954415Y-4997109D01*
X9963939Y-4959014D01*
X9973463Y-4939966D01*
X9982986Y-4930442D01*
X10002034Y-4920918D01*
X10154415Y-5101871D02*
X10163939Y-5111395D01*
X10154415Y-5120918D01*
X10144891Y-5111395D01*
X10154415Y-5101871D01*
X10154415Y-5120918D01*
X10287748Y-4920918D02*
X10306796Y-4920918D01*
X10325844Y-4930442D01*
X10335367Y-4939966D01*
X10344891Y-4959014D01*
X10354415Y-4997109D01*
X10354415Y-5044728D01*
X10344891Y-5082823D01*
X10335367Y-5101871D01*
X10325844Y-5111395D01*
X10306796Y-5120918D01*
X10287748Y-5120918D01*
X10268701Y-5111395D01*
X10259177Y-5101871D01*
X10249653Y-5082823D01*
X10240129Y-5044728D01*
X10240129Y-4997109D01*
X10249653Y-4959014D01*
X10259177Y-4939966D01*
X10268701Y-4930442D01*
X10287748Y-4920918D01*
X10430605Y-4939966D02*
X10440129Y-4930442D01*
X10459177Y-4920918D01*
X10506796Y-4920918D01*
X10525844Y-4930442D01*
X10535367Y-4939966D01*
X10544891Y-4959014D01*
X10544891Y-4978061D01*
X10535367Y-5006633D01*
X10421082Y-5120918D01*
X10544891Y-5120918D01*
X10725844Y-4920918D02*
X10630605Y-4920918D01*
X10621082Y-5016156D01*
X10630605Y-5006633D01*
X10649653Y-4997109D01*
X10697272Y-4997109D01*
X10716320Y-5006633D01*
X10725844Y-5016156D01*
X10735367Y-5035204D01*
X10735367Y-5082823D01*
X10725844Y-5101871D01*
X10716320Y-5111395D01*
X10697272Y-5120918D01*
X10649653Y-5120918D01*
X10630605Y-5111395D01*
X10621082Y-5101871D01*
X10906796Y-4920918D02*
X10868701Y-4920918D01*
X10849653Y-4930442D01*
X10840129Y-4939966D01*
X10821082Y-4968537D01*
X10811558Y-5006633D01*
X10811558Y-5082823D01*
X10821082Y-5101871D01*
X10830605Y-5111395D01*
X10849653Y-5120918D01*
X10887748Y-5120918D01*
X10906796Y-5111395D01*
X10916320Y-5101871D01*
X10925844Y-5082823D01*
X10925844Y-5035204D01*
X10916320Y-5016156D01*
X10906796Y-5006633D01*
X10887748Y-4997109D01*
X10849653Y-4997109D01*
X10830605Y-5006633D01*
X10821082Y-5016156D01*
X10811558Y-5035204D01*
X11002034Y-4920918D02*
X11002034Y-4959014D01*
X11078224Y-4920918D02*
X11078224Y-4959014D01*
X11373462Y-5197109D02*
X11363939Y-5187585D01*
X11344891Y-5159014D01*
X11335367Y-5139966D01*
X11325843Y-5111395D01*
X11316320Y-5063776D01*
X11316320Y-5025680D01*
X11325843Y-4978061D01*
X11335367Y-4949490D01*
X11344891Y-4930442D01*
X11363939Y-4901871D01*
X11373462Y-4892347D01*
X11430605Y-4920918D02*
X11554415Y-4920918D01*
X11487748Y-4997109D01*
X11516320Y-4997109D01*
X11535367Y-5006633D01*
X11544891Y-5016156D01*
X11554415Y-5035204D01*
X11554415Y-5082823D01*
X11544891Y-5101871D01*
X11535367Y-5111395D01*
X11516320Y-5120918D01*
X11459177Y-5120918D01*
X11440129Y-5111395D01*
X11430605Y-5101871D01*
X11792510Y-5120918D02*
X11792510Y-4920918D01*
X11878224Y-5120918D02*
X11878224Y-5016156D01*
X11868701Y-4997109D01*
X11849653Y-4987585D01*
X11821082Y-4987585D01*
X11802034Y-4997109D01*
X11792510Y-5006633D01*
X12002034Y-5120918D02*
X11982986Y-5111395D01*
X11973462Y-5101871D01*
X11963939Y-5082823D01*
X11963939Y-5025680D01*
X11973462Y-5006633D01*
X11982986Y-4997109D01*
X12002034Y-4987585D01*
X12030605Y-4987585D01*
X12049653Y-4997109D01*
X12059177Y-5006633D01*
X12068701Y-5025680D01*
X12068701Y-5082823D01*
X12059177Y-5101871D01*
X12049653Y-5111395D01*
X12030605Y-5120918D01*
X12002034Y-5120918D01*
X12182986Y-5120918D02*
X12163939Y-5111395D01*
X12154415Y-5092347D01*
X12154415Y-4920918D01*
X12335367Y-5111395D02*
X12316320Y-5120918D01*
X12278224Y-5120918D01*
X12259177Y-5111395D01*
X12249653Y-5092347D01*
X12249653Y-5016156D01*
X12259177Y-4997109D01*
X12278224Y-4987585D01*
X12316320Y-4987585D01*
X12335367Y-4997109D01*
X12344891Y-5016156D01*
X12344891Y-5035204D01*
X12249653Y-5054252D01*
X12421082Y-5111395D02*
X12440129Y-5120918D01*
X12478224Y-5120918D01*
X12497272Y-5111395D01*
X12506796Y-5092347D01*
X12506796Y-5082823D01*
X12497272Y-5063776D01*
X12478224Y-5054252D01*
X12449653Y-5054252D01*
X12430605Y-5044728D01*
X12421082Y-5025680D01*
X12421082Y-5016156D01*
X12430605Y-4997109D01*
X12449653Y-4987585D01*
X12478224Y-4987585D01*
X12497272Y-4997109D01*
X12573462Y-5197109D02*
X12582986Y-5187585D01*
X12602034Y-5159014D01*
X12611558Y-5139966D01*
X12621082Y-5111395D01*
X12630605Y-5063776D01*
X12630605Y-5025680D01*
X12621082Y-4978061D01*
X12611558Y-4949490D01*
X12602034Y-4930442D01*
X12582986Y-4901871D01*
X12573462Y-4892347D01*
D13*
X7801558Y-5294442D02*
G75*
G03*
X7801558Y-5294442I-43000J0D01*
G01*
D11*
X8097272Y-5184918D02*
X8116320Y-5184918D01*
X8135367Y-5194442D01*
X8144891Y-5203966D01*
X8154415Y-5223014D01*
X8163939Y-5261109D01*
X8163939Y-5308728D01*
X8154415Y-5346823D01*
X8144891Y-5365871D01*
X8135367Y-5375395D01*
X8116320Y-5384918D01*
X8097272Y-5384918D01*
X8078224Y-5375395D01*
X8068701Y-5365871D01*
X8059177Y-5346823D01*
X8049653Y-5308728D01*
X8049653Y-5261109D01*
X8059177Y-5223014D01*
X8068701Y-5203966D01*
X8078224Y-5194442D01*
X8097272Y-5184918D01*
X8249653Y-5365871D02*
X8259177Y-5375395D01*
X8249653Y-5384918D01*
X8240129Y-5375395D01*
X8249653Y-5365871D01*
X8249653Y-5384918D01*
X8373462Y-5270633D02*
X8354415Y-5261109D01*
X8344891Y-5251585D01*
X8335367Y-5232537D01*
X8335367Y-5223014D01*
X8344891Y-5203966D01*
X8354415Y-5194442D01*
X8373462Y-5184918D01*
X8411558Y-5184918D01*
X8430605Y-5194442D01*
X8440129Y-5203966D01*
X8449653Y-5223014D01*
X8449653Y-5232537D01*
X8440129Y-5251585D01*
X8430605Y-5261109D01*
X8411558Y-5270633D01*
X8373462Y-5270633D01*
X8354415Y-5280156D01*
X8344891Y-5289680D01*
X8335367Y-5308728D01*
X8335367Y-5346823D01*
X8344891Y-5365871D01*
X8354415Y-5375395D01*
X8373462Y-5384918D01*
X8411558Y-5384918D01*
X8430605Y-5375395D01*
X8440129Y-5365871D01*
X8449653Y-5346823D01*
X8449653Y-5308728D01*
X8440129Y-5289680D01*
X8430605Y-5280156D01*
X8411558Y-5270633D01*
X8621082Y-5184918D02*
X8582986Y-5184918D01*
X8563939Y-5194442D01*
X8554415Y-5203966D01*
X8535367Y-5232537D01*
X8525844Y-5270633D01*
X8525844Y-5346823D01*
X8535367Y-5365871D01*
X8544891Y-5375395D01*
X8563939Y-5384918D01*
X8602034Y-5384918D01*
X8621082Y-5375395D01*
X8630605Y-5365871D01*
X8640129Y-5346823D01*
X8640129Y-5299204D01*
X8630605Y-5280156D01*
X8621082Y-5270633D01*
X8602034Y-5261109D01*
X8563939Y-5261109D01*
X8544891Y-5270633D01*
X8535367Y-5280156D01*
X8525844Y-5299204D01*
X8763939Y-5184918D02*
X8782986Y-5184918D01*
X8802034Y-5194442D01*
X8811558Y-5203966D01*
X8821082Y-5223014D01*
X8830605Y-5261109D01*
X8830605Y-5308728D01*
X8821082Y-5346823D01*
X8811558Y-5365871D01*
X8802034Y-5375395D01*
X8782986Y-5384918D01*
X8763939Y-5384918D01*
X8744891Y-5375395D01*
X8735367Y-5365871D01*
X8725844Y-5346823D01*
X8716320Y-5308728D01*
X8716320Y-5261109D01*
X8725844Y-5223014D01*
X8735367Y-5203966D01*
X8744891Y-5194442D01*
X8763939Y-5184918D01*
X8916320Y-5384918D02*
X8916320Y-5251585D01*
X8916320Y-5270633D02*
X8925844Y-5261109D01*
X8944891Y-5251585D01*
X8973463Y-5251585D01*
X8992510Y-5261109D01*
X9002034Y-5280156D01*
X9002034Y-5384918D01*
X9002034Y-5280156D02*
X9011558Y-5261109D01*
X9030605Y-5251585D01*
X9059177Y-5251585D01*
X9078224Y-5261109D01*
X9087748Y-5280156D01*
X9087748Y-5384918D01*
X9182986Y-5384918D02*
X9182986Y-5251585D01*
X9182986Y-5270633D02*
X9192510Y-5261109D01*
X9211558Y-5251585D01*
X9240129Y-5251585D01*
X9259177Y-5261109D01*
X9268701Y-5280156D01*
X9268701Y-5384918D01*
X9268701Y-5280156D02*
X9278224Y-5261109D01*
X9297272Y-5251585D01*
X9325844Y-5251585D01*
X9344891Y-5261109D01*
X9354415Y-5280156D01*
X9354415Y-5384918D01*
X9744891Y-5175395D02*
X9573463Y-5432537D01*
X10002034Y-5184918D02*
X10021082Y-5184918D01*
X10040129Y-5194442D01*
X10049653Y-5203966D01*
X10059177Y-5223014D01*
X10068701Y-5261109D01*
X10068701Y-5308728D01*
X10059177Y-5346823D01*
X10049653Y-5365871D01*
X10040129Y-5375395D01*
X10021082Y-5384918D01*
X10002034Y-5384918D01*
X9982986Y-5375395D01*
X9973463Y-5365871D01*
X9963939Y-5346823D01*
X9954415Y-5308728D01*
X9954415Y-5261109D01*
X9963939Y-5223014D01*
X9973463Y-5203966D01*
X9982986Y-5194442D01*
X10002034Y-5184918D01*
X10154415Y-5365871D02*
X10163939Y-5375395D01*
X10154415Y-5384918D01*
X10144891Y-5375395D01*
X10154415Y-5365871D01*
X10154415Y-5384918D01*
X10287748Y-5184918D02*
X10306796Y-5184918D01*
X10325844Y-5194442D01*
X10335367Y-5203966D01*
X10344891Y-5223014D01*
X10354415Y-5261109D01*
X10354415Y-5308728D01*
X10344891Y-5346823D01*
X10335367Y-5365871D01*
X10325844Y-5375395D01*
X10306796Y-5384918D01*
X10287748Y-5384918D01*
X10268701Y-5375395D01*
X10259177Y-5365871D01*
X10249653Y-5346823D01*
X10240129Y-5308728D01*
X10240129Y-5261109D01*
X10249653Y-5223014D01*
X10259177Y-5203966D01*
X10268701Y-5194442D01*
X10287748Y-5184918D01*
X10421082Y-5184918D02*
X10544891Y-5184918D01*
X10478224Y-5261109D01*
X10506796Y-5261109D01*
X10525844Y-5270633D01*
X10535367Y-5280156D01*
X10544891Y-5299204D01*
X10544891Y-5346823D01*
X10535367Y-5365871D01*
X10525844Y-5375395D01*
X10506796Y-5384918D01*
X10449653Y-5384918D01*
X10430605Y-5375395D01*
X10421082Y-5365871D01*
X10611558Y-5184918D02*
X10735367Y-5184918D01*
X10668701Y-5261109D01*
X10697272Y-5261109D01*
X10716320Y-5270633D01*
X10725844Y-5280156D01*
X10735367Y-5299204D01*
X10735367Y-5346823D01*
X10725844Y-5365871D01*
X10716320Y-5375395D01*
X10697272Y-5384918D01*
X10640129Y-5384918D01*
X10621082Y-5375395D01*
X10611558Y-5365871D01*
X10830605Y-5384918D02*
X10868701Y-5384918D01*
X10887748Y-5375395D01*
X10897272Y-5365871D01*
X10916320Y-5337299D01*
X10925844Y-5299204D01*
X10925844Y-5223014D01*
X10916320Y-5203966D01*
X10906796Y-5194442D01*
X10887748Y-5184918D01*
X10849653Y-5184918D01*
X10830605Y-5194442D01*
X10821082Y-5203966D01*
X10811558Y-5223014D01*
X10811558Y-5270633D01*
X10821082Y-5289680D01*
X10830605Y-5299204D01*
X10849653Y-5308728D01*
X10887748Y-5308728D01*
X10906796Y-5299204D01*
X10916320Y-5289680D01*
X10925844Y-5270633D01*
X11002034Y-5184918D02*
X11002034Y-5223014D01*
X11078224Y-5184918D02*
X11078224Y-5223014D01*
X11373462Y-5461109D02*
X11363939Y-5451585D01*
X11344891Y-5423014D01*
X11335367Y-5403966D01*
X11325843Y-5375395D01*
X11316320Y-5327776D01*
X11316320Y-5289680D01*
X11325843Y-5242061D01*
X11335367Y-5213490D01*
X11344891Y-5194442D01*
X11363939Y-5165871D01*
X11373462Y-5156347D01*
X11554415Y-5384918D02*
X11440129Y-5384918D01*
X11497272Y-5384918D02*
X11497272Y-5184918D01*
X11478224Y-5213490D01*
X11459177Y-5232537D01*
X11440129Y-5242061D01*
X11630605Y-5203966D02*
X11640129Y-5194442D01*
X11659177Y-5184918D01*
X11706796Y-5184918D01*
X11725843Y-5194442D01*
X11735367Y-5203966D01*
X11744891Y-5223014D01*
X11744891Y-5242061D01*
X11735367Y-5270633D01*
X11621082Y-5384918D01*
X11744891Y-5384918D01*
X11982986Y-5384918D02*
X11982986Y-5184918D01*
X12068701Y-5384918D02*
X12068701Y-5280156D01*
X12059177Y-5261109D01*
X12040129Y-5251585D01*
X12011558Y-5251585D01*
X11992510Y-5261109D01*
X11982986Y-5270633D01*
X12192510Y-5384918D02*
X12173462Y-5375395D01*
X12163939Y-5365871D01*
X12154415Y-5346823D01*
X12154415Y-5289680D01*
X12163939Y-5270633D01*
X12173462Y-5261109D01*
X12192510Y-5251585D01*
X12221082Y-5251585D01*
X12240129Y-5261109D01*
X12249653Y-5270633D01*
X12259177Y-5289680D01*
X12259177Y-5346823D01*
X12249653Y-5365871D01*
X12240129Y-5375395D01*
X12221082Y-5384918D01*
X12192510Y-5384918D01*
X12373462Y-5384918D02*
X12354415Y-5375395D01*
X12344891Y-5356347D01*
X12344891Y-5184918D01*
X12525843Y-5375395D02*
X12506796Y-5384918D01*
X12468701Y-5384918D01*
X12449653Y-5375395D01*
X12440129Y-5356347D01*
X12440129Y-5280156D01*
X12449653Y-5261109D01*
X12468701Y-5251585D01*
X12506796Y-5251585D01*
X12525843Y-5261109D01*
X12535367Y-5280156D01*
X12535367Y-5299204D01*
X12440129Y-5318252D01*
X12611558Y-5375395D02*
X12630605Y-5384918D01*
X12668701Y-5384918D01*
X12687748Y-5375395D01*
X12697272Y-5356347D01*
X12697272Y-5346823D01*
X12687748Y-5327776D01*
X12668701Y-5318252D01*
X12640129Y-5318252D01*
X12621082Y-5308728D01*
X12611558Y-5289680D01*
X12611558Y-5280156D01*
X12621082Y-5261109D01*
X12640129Y-5251585D01*
X12668701Y-5251585D01*
X12687748Y-5261109D01*
X12763939Y-5461109D02*
X12773462Y-5451585D01*
X12792510Y-5423014D01*
X12802034Y-5403966D01*
X12811558Y-5375395D01*
X12821082Y-5327776D01*
X12821082Y-5289680D01*
X12811558Y-5242061D01*
X12802034Y-5213490D01*
X12792510Y-5194442D01*
X12773462Y-5165871D01*
X12763939Y-5156347D01*
D14*
X7757058Y-5513942D02*
X7757058Y-5602942D01*
X7712558Y-5558442D02*
X7801558Y-5558442D01*
D11*
X8097272Y-5448918D02*
X8116320Y-5448918D01*
X8135367Y-5458442D01*
X8144891Y-5467966D01*
X8154415Y-5487014D01*
X8163939Y-5525109D01*
X8163939Y-5572728D01*
X8154415Y-5610823D01*
X8144891Y-5629871D01*
X8135367Y-5639394D01*
X8116320Y-5648918D01*
X8097272Y-5648918D01*
X8078224Y-5639394D01*
X8068701Y-5629871D01*
X8059177Y-5610823D01*
X8049653Y-5572728D01*
X8049653Y-5525109D01*
X8059177Y-5487014D01*
X8068701Y-5467966D01*
X8078224Y-5458442D01*
X8097272Y-5448918D01*
X8249653Y-5629871D02*
X8259177Y-5639394D01*
X8249653Y-5648918D01*
X8240129Y-5639394D01*
X8249653Y-5629871D01*
X8249653Y-5648918D01*
X8373462Y-5534633D02*
X8354415Y-5525109D01*
X8344891Y-5515585D01*
X8335367Y-5496537D01*
X8335367Y-5487014D01*
X8344891Y-5467966D01*
X8354415Y-5458442D01*
X8373462Y-5448918D01*
X8411558Y-5448918D01*
X8430605Y-5458442D01*
X8440129Y-5467966D01*
X8449653Y-5487014D01*
X8449653Y-5496537D01*
X8440129Y-5515585D01*
X8430605Y-5525109D01*
X8411558Y-5534633D01*
X8373462Y-5534633D01*
X8354415Y-5544156D01*
X8344891Y-5553680D01*
X8335367Y-5572728D01*
X8335367Y-5610823D01*
X8344891Y-5629871D01*
X8354415Y-5639394D01*
X8373462Y-5648918D01*
X8411558Y-5648918D01*
X8430605Y-5639394D01*
X8440129Y-5629871D01*
X8449653Y-5610823D01*
X8449653Y-5572728D01*
X8440129Y-5553680D01*
X8430605Y-5544156D01*
X8411558Y-5534633D01*
X8544891Y-5648918D02*
X8582986Y-5648918D01*
X8602034Y-5639394D01*
X8611558Y-5629871D01*
X8630605Y-5601299D01*
X8640129Y-5563204D01*
X8640129Y-5487014D01*
X8630605Y-5467966D01*
X8621082Y-5458442D01*
X8602034Y-5448918D01*
X8563939Y-5448918D01*
X8544891Y-5458442D01*
X8535367Y-5467966D01*
X8525844Y-5487014D01*
X8525844Y-5534633D01*
X8535367Y-5553680D01*
X8544891Y-5563204D01*
X8563939Y-5572728D01*
X8602034Y-5572728D01*
X8621082Y-5563204D01*
X8630605Y-5553680D01*
X8640129Y-5534633D01*
X8763939Y-5448918D02*
X8782986Y-5448918D01*
X8802034Y-5458442D01*
X8811558Y-5467966D01*
X8821082Y-5487014D01*
X8830605Y-5525109D01*
X8830605Y-5572728D01*
X8821082Y-5610823D01*
X8811558Y-5629871D01*
X8802034Y-5639394D01*
X8782986Y-5648918D01*
X8763939Y-5648918D01*
X8744891Y-5639394D01*
X8735367Y-5629871D01*
X8725844Y-5610823D01*
X8716320Y-5572728D01*
X8716320Y-5525109D01*
X8725844Y-5487014D01*
X8735367Y-5467966D01*
X8744891Y-5458442D01*
X8763939Y-5448918D01*
X8916320Y-5648918D02*
X8916320Y-5515585D01*
X8916320Y-5534633D02*
X8925844Y-5525109D01*
X8944891Y-5515585D01*
X8973463Y-5515585D01*
X8992510Y-5525109D01*
X9002034Y-5544156D01*
X9002034Y-5648918D01*
X9002034Y-5544156D02*
X9011558Y-5525109D01*
X9030605Y-5515585D01*
X9059177Y-5515585D01*
X9078224Y-5525109D01*
X9087748Y-5544156D01*
X9087748Y-5648918D01*
X9182986Y-5648918D02*
X9182986Y-5515585D01*
X9182986Y-5534633D02*
X9192510Y-5525109D01*
X9211558Y-5515585D01*
X9240129Y-5515585D01*
X9259177Y-5525109D01*
X9268701Y-5544156D01*
X9268701Y-5648918D01*
X9268701Y-5544156D02*
X9278224Y-5525109D01*
X9297272Y-5515585D01*
X9325844Y-5515585D01*
X9344891Y-5525109D01*
X9354415Y-5544156D01*
X9354415Y-5648918D01*
X9744891Y-5439395D02*
X9573463Y-5696537D01*
X10002034Y-5448918D02*
X10021082Y-5448918D01*
X10040129Y-5458442D01*
X10049653Y-5467966D01*
X10059177Y-5487014D01*
X10068701Y-5525109D01*
X10068701Y-5572728D01*
X10059177Y-5610823D01*
X10049653Y-5629871D01*
X10040129Y-5639394D01*
X10021082Y-5648918D01*
X10002034Y-5648918D01*
X9982986Y-5639394D01*
X9973463Y-5629871D01*
X9963939Y-5610823D01*
X9954415Y-5572728D01*
X9954415Y-5525109D01*
X9963939Y-5487014D01*
X9973463Y-5467966D01*
X9982986Y-5458442D01*
X10002034Y-5448918D01*
X10154415Y-5629871D02*
X10163939Y-5639394D01*
X10154415Y-5648918D01*
X10144891Y-5639394D01*
X10154415Y-5629871D01*
X10154415Y-5648918D01*
X10287748Y-5448918D02*
X10306796Y-5448918D01*
X10325844Y-5458442D01*
X10335367Y-5467966D01*
X10344891Y-5487014D01*
X10354415Y-5525109D01*
X10354415Y-5572728D01*
X10344891Y-5610823D01*
X10335367Y-5629871D01*
X10325844Y-5639394D01*
X10306796Y-5648918D01*
X10287748Y-5648918D01*
X10268701Y-5639394D01*
X10259177Y-5629871D01*
X10249653Y-5610823D01*
X10240129Y-5572728D01*
X10240129Y-5525109D01*
X10249653Y-5487014D01*
X10259177Y-5467966D01*
X10268701Y-5458442D01*
X10287748Y-5448918D01*
X10421082Y-5448918D02*
X10544891Y-5448918D01*
X10478224Y-5525109D01*
X10506796Y-5525109D01*
X10525844Y-5534633D01*
X10535367Y-5544156D01*
X10544891Y-5563204D01*
X10544891Y-5610823D01*
X10535367Y-5629871D01*
X10525844Y-5639394D01*
X10506796Y-5648918D01*
X10449653Y-5648918D01*
X10430605Y-5639394D01*
X10421082Y-5629871D01*
X10725844Y-5448918D02*
X10630605Y-5448918D01*
X10621082Y-5544156D01*
X10630605Y-5534633D01*
X10649653Y-5525109D01*
X10697272Y-5525109D01*
X10716320Y-5534633D01*
X10725844Y-5544156D01*
X10735367Y-5563204D01*
X10735367Y-5610823D01*
X10725844Y-5629871D01*
X10716320Y-5639394D01*
X10697272Y-5648918D01*
X10649653Y-5648918D01*
X10630605Y-5639394D01*
X10621082Y-5629871D01*
X10859177Y-5448918D02*
X10878224Y-5448918D01*
X10897272Y-5458442D01*
X10906796Y-5467966D01*
X10916320Y-5487014D01*
X10925844Y-5525109D01*
X10925844Y-5572728D01*
X10916320Y-5610823D01*
X10906796Y-5629871D01*
X10897272Y-5639394D01*
X10878224Y-5648918D01*
X10859177Y-5648918D01*
X10840129Y-5639394D01*
X10830605Y-5629871D01*
X10821082Y-5610823D01*
X10811558Y-5572728D01*
X10811558Y-5525109D01*
X10821082Y-5487014D01*
X10830605Y-5467966D01*
X10840129Y-5458442D01*
X10859177Y-5448918D01*
X11002034Y-5448918D02*
X11002034Y-5487014D01*
X11078224Y-5448918D02*
X11078224Y-5487014D01*
X11373462Y-5725109D02*
X11363939Y-5715585D01*
X11344891Y-5687014D01*
X11335367Y-5667966D01*
X11325843Y-5639394D01*
X11316320Y-5591776D01*
X11316320Y-5553680D01*
X11325843Y-5506061D01*
X11335367Y-5477490D01*
X11344891Y-5458442D01*
X11363939Y-5429871D01*
X11373462Y-5420347D01*
X11554415Y-5648918D02*
X11440129Y-5648918D01*
X11497272Y-5648918D02*
X11497272Y-5448918D01*
X11478224Y-5477490D01*
X11459177Y-5496537D01*
X11440129Y-5506061D01*
X11792510Y-5648918D02*
X11792510Y-5448918D01*
X11878224Y-5648918D02*
X11878224Y-5544156D01*
X11868701Y-5525109D01*
X11849653Y-5515585D01*
X11821082Y-5515585D01*
X11802034Y-5525109D01*
X11792510Y-5534633D01*
X12002034Y-5648918D02*
X11982986Y-5639394D01*
X11973462Y-5629871D01*
X11963939Y-5610823D01*
X11963939Y-5553680D01*
X11973462Y-5534633D01*
X11982986Y-5525109D01*
X12002034Y-5515585D01*
X12030605Y-5515585D01*
X12049653Y-5525109D01*
X12059177Y-5534633D01*
X12068701Y-5553680D01*
X12068701Y-5610823D01*
X12059177Y-5629871D01*
X12049653Y-5639394D01*
X12030605Y-5648918D01*
X12002034Y-5648918D01*
X12182986Y-5648918D02*
X12163939Y-5639394D01*
X12154415Y-5620347D01*
X12154415Y-5448918D01*
X12335367Y-5639394D02*
X12316320Y-5648918D01*
X12278224Y-5648918D01*
X12259177Y-5639394D01*
X12249653Y-5620347D01*
X12249653Y-5544156D01*
X12259177Y-5525109D01*
X12278224Y-5515585D01*
X12316320Y-5515585D01*
X12335367Y-5525109D01*
X12344891Y-5544156D01*
X12344891Y-5563204D01*
X12249653Y-5582252D01*
X12411558Y-5725109D02*
X12421082Y-5715585D01*
X12440129Y-5687014D01*
X12449653Y-5667966D01*
X12459177Y-5639394D01*
X12468701Y-5591776D01*
X12468701Y-5553680D01*
X12459177Y-5506061D01*
X12449653Y-5477490D01*
X12440129Y-5458442D01*
X12421082Y-5429871D01*
X12411558Y-5420347D01*
M02*
