%TF.GenerationSoftware,KiCad,Pcbnew,(6.0.8)*%
%TF.CreationDate,2023-03-18T01:03:14+01:00*%
%TF.ProjectId,ROTARY_SW,524f5441-5259-45f5-9357-2e6b69636164,rev?*%
%TF.SameCoordinates,Original*%
%TF.FileFunction,Legend,Bot*%
%TF.FilePolarity,Positive*%
%FSLAX46Y46*%
G04 Gerber Fmt 4.6, Leading zero omitted, Abs format (unit mm)*
G04 Created by KiCad (PCBNEW (6.0.8)) date 2023-03-18 01:03:14*
%MOMM*%
%LPD*%
G01*
G04 APERTURE LIST*
%ADD10C,0.150000*%
%ADD11C,0.120000*%
G04 APERTURE END LIST*
D10*
X91643142Y-37965428D02*
X91528857Y-37965428D01*
X91471714Y-37994000D01*
X91414571Y-38051142D01*
X91386000Y-38165428D01*
X91386000Y-38365428D01*
X91414571Y-38479714D01*
X91471714Y-38536857D01*
X91528857Y-38565428D01*
X91643142Y-38565428D01*
X91700285Y-38536857D01*
X91757428Y-38479714D01*
X91786000Y-38365428D01*
X91786000Y-38165428D01*
X91757428Y-38051142D01*
X91700285Y-37994000D01*
X91643142Y-37965428D01*
X91795571Y-35856857D02*
X91338428Y-35856857D01*
X91567000Y-36085428D02*
X91567000Y-35628285D01*
X91409857Y-36784000D02*
X91467000Y-36755428D01*
X91552714Y-36755428D01*
X91638428Y-36784000D01*
X91695571Y-36841142D01*
X91724142Y-36898285D01*
X91752714Y-37012571D01*
X91752714Y-37098285D01*
X91724142Y-37212571D01*
X91695571Y-37269714D01*
X91638428Y-37326857D01*
X91552714Y-37355428D01*
X91495571Y-37355428D01*
X91409857Y-37326857D01*
X91381285Y-37298285D01*
X91381285Y-37098285D01*
X91495571Y-37098285D01*
D11*
%TO.C,R4*%
X83438000Y-34515359D02*
X83438000Y-34822641D01*
X82678000Y-34515359D02*
X82678000Y-34822641D01*
%TO.C,R6*%
X82269359Y-37339000D02*
X82576641Y-37339000D01*
X82269359Y-38099000D02*
X82576641Y-38099000D01*
%TO.C,R3*%
X84581000Y-34515359D02*
X84581000Y-34822641D01*
X83821000Y-34515359D02*
X83821000Y-34822641D01*
%TO.C,R11*%
X87400641Y-37339000D02*
X87093359Y-37339000D01*
X87400641Y-38099000D02*
X87093359Y-38099000D01*
%TO.C,R1*%
X86994000Y-34515359D02*
X86994000Y-34822641D01*
X86234000Y-34515359D02*
X86234000Y-34822641D01*
%TO.C,R10*%
X86270000Y-39341359D02*
X86270000Y-39648641D01*
X87030000Y-39341359D02*
X87030000Y-39648641D01*
%TO.C,R8*%
X83820000Y-39648641D02*
X83820000Y-39341359D01*
X84580000Y-39648641D02*
X84580000Y-39341359D01*
%TO.C,R12*%
X87400641Y-36849000D02*
X87093359Y-36849000D01*
X87400641Y-36089000D02*
X87093359Y-36089000D01*
%TO.C,R13*%
X91185000Y-35840641D02*
X91185000Y-35533359D01*
X90425000Y-35840641D02*
X90425000Y-35533359D01*
%TO.C,R9*%
X85880000Y-39648641D02*
X85880000Y-39341359D01*
X85120000Y-39648641D02*
X85120000Y-39341359D01*
%TO.C,R2*%
X85851000Y-34515359D02*
X85851000Y-34822641D01*
X85091000Y-34515359D02*
X85091000Y-34822641D01*
%TO.C,R5*%
X82269359Y-36829000D02*
X82576641Y-36829000D01*
X82269359Y-36069000D02*
X82576641Y-36069000D01*
%TO.C,R7*%
X83438000Y-39648641D02*
X83438000Y-39341359D01*
X82678000Y-39648641D02*
X82678000Y-39341359D01*
%TD*%
M02*
