%TF.GenerationSoftware,KiCad,Pcbnew,(6.0.8)*%
%TF.CreationDate,2024-11-24T14:12:11+01:00*%
%TF.ProjectId,WHEEL-07,57484545-4c2d-4303-972e-6b696361645f,rev?*%
%TF.SameCoordinates,Original*%
%TF.FileFunction,Legend,Bot*%
%TF.FilePolarity,Positive*%
%FSLAX46Y46*%
G04 Gerber Fmt 4.6, Leading zero omitted, Abs format (unit mm)*
G04 Created by KiCad (PCBNEW (6.0.8)) date 2024-11-24 14:12:11*
%MOMM*%
%LPD*%
G01*
G04 APERTURE LIST*
G04 Aperture macros list*
%AMRoundRect*
0 Rectangle with rounded corners*
0 $1 Rounding radius*
0 $2 $3 $4 $5 $6 $7 $8 $9 X,Y pos of 4 corners*
0 Add a 4 corners polygon primitive as box body*
4,1,4,$2,$3,$4,$5,$6,$7,$8,$9,$2,$3,0*
0 Add four circle primitives for the rounded corners*
1,1,$1+$1,$2,$3*
1,1,$1+$1,$4,$5*
1,1,$1+$1,$6,$7*
1,1,$1+$1,$8,$9*
0 Add four rect primitives between the rounded corners*
20,1,$1+$1,$2,$3,$4,$5,0*
20,1,$1+$1,$4,$5,$6,$7,0*
20,1,$1+$1,$6,$7,$8,$9,0*
20,1,$1+$1,$8,$9,$2,$3,0*%
%AMFreePoly0*
4,1,22,0.550000,-0.750000,0.000000,-0.750000,0.000000,-0.745033,-0.079941,-0.743568,-0.215256,-0.701293,-0.333266,-0.622738,-0.424486,-0.514219,-0.481581,-0.384460,-0.499164,-0.250000,-0.500000,-0.250000,-0.500000,0.250000,-0.499164,0.250000,-0.499963,0.256109,-0.478152,0.396186,-0.417904,0.524511,-0.324060,0.630769,-0.204165,0.706417,-0.067858,0.745374,0.000000,0.744959,0.000000,0.750000,
0.550000,0.750000,0.550000,-0.750000,0.550000,-0.750000,$1*%
%AMFreePoly1*
4,1,20,0.000000,0.744959,0.073905,0.744508,0.209726,0.703889,0.328688,0.626782,0.421226,0.519385,0.479903,0.390333,0.500000,0.250000,0.500000,-0.250000,0.499851,-0.262216,0.476331,-0.402017,0.414519,-0.529596,0.319384,-0.634700,0.198574,-0.708877,0.061801,-0.746166,0.000000,-0.745033,0.000000,-0.750000,-0.550000,-0.750000,-0.550000,0.750000,0.000000,0.750000,0.000000,0.744959,
0.000000,0.744959,$1*%
G04 Aperture macros list end*
%ADD10C,0.150000*%
%ADD11C,0.100000*%
%ADD12C,0.120000*%
%ADD13RoundRect,0.250000X0.350000X0.650000X-0.350000X0.650000X-0.350000X-0.650000X0.350000X-0.650000X0*%
%ADD14O,1.200000X1.800000*%
%ADD15RoundRect,0.200000X-0.450000X0.200000X-0.450000X-0.200000X0.450000X-0.200000X0.450000X0.200000X0*%
%ADD16O,1.300000X0.800000*%
%ADD17RoundRect,0.200000X0.200000X0.450000X-0.200000X0.450000X-0.200000X-0.450000X0.200000X-0.450000X0*%
%ADD18O,0.800000X1.300000*%
%ADD19R,1.700000X1.700000*%
%ADD20O,1.700000X1.700000*%
%ADD21R,1.000000X1.000000*%
%ADD22O,1.000000X1.000000*%
%ADD23RoundRect,0.250000X0.650000X-0.350000X0.650000X0.350000X-0.650000X0.350000X-0.650000X-0.350000X0*%
%ADD24O,1.800000X1.200000*%
%ADD25RoundRect,0.225000X-0.250000X0.225000X-0.250000X-0.225000X0.250000X-0.225000X0.250000X0.225000X0*%
%ADD26RoundRect,0.155000X-0.155000X0.212500X-0.155000X-0.212500X0.155000X-0.212500X0.155000X0.212500X0*%
%ADD27RoundRect,0.155000X0.155000X-0.212500X0.155000X0.212500X-0.155000X0.212500X-0.155000X-0.212500X0*%
%ADD28RoundRect,0.250000X0.325000X0.650000X-0.325000X0.650000X-0.325000X-0.650000X0.325000X-0.650000X0*%
%ADD29RoundRect,0.160000X0.197500X0.160000X-0.197500X0.160000X-0.197500X-0.160000X0.197500X-0.160000X0*%
%ADD30RoundRect,0.160000X-0.160000X0.197500X-0.160000X-0.197500X0.160000X-0.197500X0.160000X0.197500X0*%
%ADD31RoundRect,0.160000X-0.197500X-0.160000X0.197500X-0.160000X0.197500X0.160000X-0.197500X0.160000X0*%
%ADD32RoundRect,0.160000X0.160000X-0.197500X0.160000X0.197500X-0.160000X0.197500X-0.160000X-0.197500X0*%
%ADD33FreePoly0,90.000000*%
%ADD34R,1.500000X1.000000*%
%ADD35FreePoly1,90.000000*%
%ADD36RoundRect,0.147500X-0.172500X0.147500X-0.172500X-0.147500X0.172500X-0.147500X0.172500X0.147500X0*%
G04 APERTURE END LIST*
D10*
X171569047Y-53052380D02*
X171569047Y-52052380D01*
X171569047Y-52433333D02*
X171473809Y-52385714D01*
X171283333Y-52385714D01*
X171188095Y-52433333D01*
X171140476Y-52480952D01*
X171092857Y-52576190D01*
X171092857Y-52861904D01*
X171140476Y-52957142D01*
X171188095Y-53004761D01*
X171283333Y-53052380D01*
X171473809Y-53052380D01*
X171569047Y-53004761D01*
X170759523Y-52385714D02*
X170521428Y-53052380D01*
X170283333Y-52385714D02*
X170521428Y-53052380D01*
X170616666Y-53290476D01*
X170664285Y-53338095D01*
X170759523Y-53385714D01*
X169140476Y-53052380D02*
X169140476Y-52052380D01*
X168569047Y-53052380D02*
X168997619Y-52480952D01*
X168569047Y-52052380D02*
X169140476Y-52623809D01*
X168140476Y-52957142D02*
X168092857Y-53004761D01*
X168140476Y-53052380D01*
X168188095Y-53004761D01*
X168140476Y-52957142D01*
X168140476Y-53052380D01*
X167664285Y-53052380D02*
X167664285Y-52052380D01*
X167283333Y-52052380D01*
X167188095Y-52100000D01*
X167140476Y-52147619D01*
X167092857Y-52242857D01*
X167092857Y-52385714D01*
X167140476Y-52480952D01*
X167188095Y-52528571D01*
X167283333Y-52576190D01*
X167664285Y-52576190D01*
X166283333Y-53004761D02*
X166378571Y-53052380D01*
X166569047Y-53052380D01*
X166664285Y-53004761D01*
X166711904Y-52909523D01*
X166711904Y-52528571D01*
X166664285Y-52433333D01*
X166569047Y-52385714D01*
X166378571Y-52385714D01*
X166283333Y-52433333D01*
X166235714Y-52528571D01*
X166235714Y-52623809D01*
X166711904Y-52719047D01*
X165807142Y-53052380D02*
X165807142Y-52385714D01*
X165807142Y-52576190D02*
X165759523Y-52480952D01*
X165711904Y-52433333D01*
X165616666Y-52385714D01*
X165521428Y-52385714D01*
X164759523Y-52385714D02*
X164759523Y-53195238D01*
X164807142Y-53290476D01*
X164854761Y-53338095D01*
X164950000Y-53385714D01*
X165092857Y-53385714D01*
X165188095Y-53338095D01*
X164759523Y-53004761D02*
X164854761Y-53052380D01*
X165045238Y-53052380D01*
X165140476Y-53004761D01*
X165188095Y-52957142D01*
X165235714Y-52861904D01*
X165235714Y-52576190D01*
X165188095Y-52480952D01*
X165140476Y-52433333D01*
X165045238Y-52385714D01*
X164854761Y-52385714D01*
X164759523Y-52433333D01*
X164140476Y-53052380D02*
X164235714Y-53004761D01*
X164283333Y-52957142D01*
X164330952Y-52861904D01*
X164330952Y-52576190D01*
X164283333Y-52480952D01*
X164235714Y-52433333D01*
X164140476Y-52385714D01*
X163997619Y-52385714D01*
X163902380Y-52433333D01*
X163854761Y-52480952D01*
X163807142Y-52576190D01*
X163807142Y-52861904D01*
X163854761Y-52957142D01*
X163902380Y-53004761D01*
X163997619Y-53052380D01*
X164140476Y-53052380D01*
X163235714Y-53052380D02*
X163330952Y-53004761D01*
X163378571Y-52909523D01*
X163378571Y-52052380D01*
X173947142Y-56558000D02*
X173975714Y-56643714D01*
X174004285Y-56672285D01*
X174061428Y-56700857D01*
X174147142Y-56700857D01*
X174204285Y-56672285D01*
X174232857Y-56643714D01*
X174261428Y-56586571D01*
X174261428Y-56358000D01*
X173661428Y-56358000D01*
X173661428Y-56558000D01*
X173690000Y-56615142D01*
X173718571Y-56643714D01*
X173775714Y-56672285D01*
X173832857Y-56672285D01*
X173890000Y-56643714D01*
X173918571Y-56615142D01*
X173947142Y-56558000D01*
X173947142Y-56358000D01*
X173661428Y-57072285D02*
X173661428Y-57186571D01*
X173690000Y-57243714D01*
X173747142Y-57300857D01*
X173861428Y-57329428D01*
X174061428Y-57329428D01*
X174175714Y-57300857D01*
X174232857Y-57243714D01*
X174261428Y-57186571D01*
X174261428Y-57072285D01*
X174232857Y-57015142D01*
X174175714Y-56958000D01*
X174061428Y-56929428D01*
X173861428Y-56929428D01*
X173747142Y-56958000D01*
X173690000Y-57015142D01*
X173661428Y-57072285D01*
X173661428Y-57700857D02*
X173661428Y-57815142D01*
X173690000Y-57872285D01*
X173747142Y-57929428D01*
X173861428Y-57958000D01*
X174061428Y-57958000D01*
X174175714Y-57929428D01*
X174232857Y-57872285D01*
X174261428Y-57815142D01*
X174261428Y-57700857D01*
X174232857Y-57643714D01*
X174175714Y-57586571D01*
X174061428Y-57558000D01*
X173861428Y-57558000D01*
X173747142Y-57586571D01*
X173690000Y-57643714D01*
X173661428Y-57700857D01*
X173661428Y-58129428D02*
X173661428Y-58472285D01*
X174261428Y-58300857D02*
X173661428Y-58300857D01*
X173661428Y-58786571D02*
X173661428Y-58843714D01*
X173690000Y-58900857D01*
X173718571Y-58929428D01*
X173775714Y-58958000D01*
X173890000Y-58986571D01*
X174032857Y-58986571D01*
X174147142Y-58958000D01*
X174204285Y-58929428D01*
X174232857Y-58900857D01*
X174261428Y-58843714D01*
X174261428Y-58786571D01*
X174232857Y-58729428D01*
X174204285Y-58700857D01*
X174147142Y-58672285D01*
X174032857Y-58643714D01*
X173890000Y-58643714D01*
X173775714Y-58672285D01*
X173718571Y-58700857D01*
X173690000Y-58729428D01*
X173661428Y-58786571D01*
D11*
%TO.C,C33*%
X173188285Y-67940285D02*
X173216857Y-67911714D01*
X173245428Y-67826000D01*
X173245428Y-67768857D01*
X173216857Y-67683142D01*
X173159714Y-67626000D01*
X173102571Y-67597428D01*
X172988285Y-67568857D01*
X172902571Y-67568857D01*
X172788285Y-67597428D01*
X172731142Y-67626000D01*
X172674000Y-67683142D01*
X172645428Y-67768857D01*
X172645428Y-67826000D01*
X172674000Y-67911714D01*
X172702571Y-67940285D01*
X172645428Y-68140285D02*
X172645428Y-68511714D01*
X172874000Y-68311714D01*
X172874000Y-68397428D01*
X172902571Y-68454571D01*
X172931142Y-68483142D01*
X172988285Y-68511714D01*
X173131142Y-68511714D01*
X173188285Y-68483142D01*
X173216857Y-68454571D01*
X173245428Y-68397428D01*
X173245428Y-68226000D01*
X173216857Y-68168857D01*
X173188285Y-68140285D01*
X172645428Y-68711714D02*
X172645428Y-69083142D01*
X172874000Y-68883142D01*
X172874000Y-68968857D01*
X172902571Y-69026000D01*
X172931142Y-69054571D01*
X172988285Y-69083142D01*
X173131142Y-69083142D01*
X173188285Y-69054571D01*
X173216857Y-69026000D01*
X173245428Y-68968857D01*
X173245428Y-68797428D01*
X173216857Y-68740285D01*
X173188285Y-68711714D01*
%TO.C,C23*%
X188936285Y-83269785D02*
X188964857Y-83241214D01*
X188993428Y-83155500D01*
X188993428Y-83098357D01*
X188964857Y-83012642D01*
X188907714Y-82955500D01*
X188850571Y-82926928D01*
X188736285Y-82898357D01*
X188650571Y-82898357D01*
X188536285Y-82926928D01*
X188479142Y-82955500D01*
X188422000Y-83012642D01*
X188393428Y-83098357D01*
X188393428Y-83155500D01*
X188422000Y-83241214D01*
X188450571Y-83269785D01*
X188450571Y-83498357D02*
X188422000Y-83526928D01*
X188393428Y-83584071D01*
X188393428Y-83726928D01*
X188422000Y-83784071D01*
X188450571Y-83812642D01*
X188507714Y-83841214D01*
X188564857Y-83841214D01*
X188650571Y-83812642D01*
X188993428Y-83469785D01*
X188993428Y-83841214D01*
X188393428Y-84041214D02*
X188393428Y-84412642D01*
X188622000Y-84212642D01*
X188622000Y-84298357D01*
X188650571Y-84355500D01*
X188679142Y-84384071D01*
X188736285Y-84412642D01*
X188879142Y-84412642D01*
X188936285Y-84384071D01*
X188964857Y-84355500D01*
X188993428Y-84298357D01*
X188993428Y-84126928D01*
X188964857Y-84069785D01*
X188936285Y-84041214D01*
%TO.C,C27*%
X172306541Y-76068285D02*
X172335113Y-76039714D01*
X172363684Y-75954000D01*
X172363684Y-75896857D01*
X172335113Y-75811142D01*
X172277970Y-75754000D01*
X172220827Y-75725428D01*
X172106541Y-75696857D01*
X172020827Y-75696857D01*
X171906541Y-75725428D01*
X171849398Y-75754000D01*
X171792256Y-75811142D01*
X171763684Y-75896857D01*
X171763684Y-75954000D01*
X171792256Y-76039714D01*
X171820827Y-76068285D01*
X171820827Y-76296857D02*
X171792256Y-76325428D01*
X171763684Y-76382571D01*
X171763684Y-76525428D01*
X171792256Y-76582571D01*
X171820827Y-76611142D01*
X171877970Y-76639714D01*
X171935113Y-76639714D01*
X172020827Y-76611142D01*
X172363684Y-76268285D01*
X172363684Y-76639714D01*
X171763684Y-76839714D02*
X171763684Y-77239714D01*
X172363684Y-76982571D01*
%TO.C,C12*%
X156835714Y-74044285D02*
X156864285Y-74072857D01*
X156950000Y-74101428D01*
X157007142Y-74101428D01*
X157092857Y-74072857D01*
X157150000Y-74015714D01*
X157178571Y-73958571D01*
X157207142Y-73844285D01*
X157207142Y-73758571D01*
X157178571Y-73644285D01*
X157150000Y-73587142D01*
X157092857Y-73530000D01*
X157007142Y-73501428D01*
X156950000Y-73501428D01*
X156864285Y-73530000D01*
X156835714Y-73558571D01*
X156264285Y-74101428D02*
X156607142Y-74101428D01*
X156435714Y-74101428D02*
X156435714Y-73501428D01*
X156492857Y-73587142D01*
X156550000Y-73644285D01*
X156607142Y-73672857D01*
X156035714Y-73558571D02*
X156007142Y-73530000D01*
X155950000Y-73501428D01*
X155807142Y-73501428D01*
X155750000Y-73530000D01*
X155721428Y-73558571D01*
X155692857Y-73615714D01*
X155692857Y-73672857D01*
X155721428Y-73758571D01*
X156064285Y-74101428D01*
X155692857Y-74101428D01*
%TO.C,C10*%
X155005714Y-79624285D02*
X155034285Y-79652857D01*
X155120000Y-79681428D01*
X155177142Y-79681428D01*
X155262857Y-79652857D01*
X155320000Y-79595714D01*
X155348571Y-79538571D01*
X155377142Y-79424285D01*
X155377142Y-79338571D01*
X155348571Y-79224285D01*
X155320000Y-79167142D01*
X155262857Y-79110000D01*
X155177142Y-79081428D01*
X155120000Y-79081428D01*
X155034285Y-79110000D01*
X155005714Y-79138571D01*
X154434285Y-79681428D02*
X154777142Y-79681428D01*
X154605714Y-79681428D02*
X154605714Y-79081428D01*
X154662857Y-79167142D01*
X154720000Y-79224285D01*
X154777142Y-79252857D01*
X154062857Y-79081428D02*
X154005714Y-79081428D01*
X153948571Y-79110000D01*
X153920000Y-79138571D01*
X153891428Y-79195714D01*
X153862857Y-79310000D01*
X153862857Y-79452857D01*
X153891428Y-79567142D01*
X153920000Y-79624285D01*
X153948571Y-79652857D01*
X154005714Y-79681428D01*
X154062857Y-79681428D01*
X154120000Y-79652857D01*
X154148571Y-79624285D01*
X154177142Y-79567142D01*
X154205714Y-79452857D01*
X154205714Y-79310000D01*
X154177142Y-79195714D01*
X154148571Y-79138571D01*
X154120000Y-79110000D01*
X154062857Y-79081428D01*
%TO.C,R2*%
X188822000Y-67327428D02*
X189022000Y-67041714D01*
X189164857Y-67327428D02*
X189164857Y-66727428D01*
X188936285Y-66727428D01*
X188879142Y-66756000D01*
X188850571Y-66784571D01*
X188822000Y-66841714D01*
X188822000Y-66927428D01*
X188850571Y-66984571D01*
X188879142Y-67013142D01*
X188936285Y-67041714D01*
X189164857Y-67041714D01*
X188593428Y-66784571D02*
X188564857Y-66756000D01*
X188507714Y-66727428D01*
X188364857Y-66727428D01*
X188307714Y-66756000D01*
X188279142Y-66784571D01*
X188250571Y-66841714D01*
X188250571Y-66898857D01*
X188279142Y-66984571D01*
X188622000Y-67327428D01*
X188250571Y-67327428D01*
%TO.C,C32*%
X173605569Y-76068285D02*
X173634141Y-76039714D01*
X173662712Y-75954000D01*
X173662712Y-75896857D01*
X173634141Y-75811142D01*
X173576998Y-75754000D01*
X173519855Y-75725428D01*
X173405569Y-75696857D01*
X173319855Y-75696857D01*
X173205569Y-75725428D01*
X173148426Y-75754000D01*
X173091284Y-75811142D01*
X173062712Y-75896857D01*
X173062712Y-75954000D01*
X173091284Y-76039714D01*
X173119855Y-76068285D01*
X173062712Y-76268285D02*
X173062712Y-76639714D01*
X173291284Y-76439714D01*
X173291284Y-76525428D01*
X173319855Y-76582571D01*
X173348426Y-76611142D01*
X173405569Y-76639714D01*
X173548426Y-76639714D01*
X173605569Y-76611142D01*
X173634141Y-76582571D01*
X173662712Y-76525428D01*
X173662712Y-76354000D01*
X173634141Y-76296857D01*
X173605569Y-76268285D01*
X173119855Y-76868285D02*
X173091284Y-76896857D01*
X173062712Y-76954000D01*
X173062712Y-77096857D01*
X173091284Y-77154000D01*
X173119855Y-77182571D01*
X173176998Y-77211142D01*
X173234141Y-77211142D01*
X173319855Y-77182571D01*
X173662712Y-76839714D01*
X173662712Y-77211142D01*
%TO.C,C8*%
X178725485Y-66702000D02*
X178754057Y-66673428D01*
X178782628Y-66587714D01*
X178782628Y-66530571D01*
X178754057Y-66444857D01*
X178696914Y-66387714D01*
X178639771Y-66359142D01*
X178525485Y-66330571D01*
X178439771Y-66330571D01*
X178325485Y-66359142D01*
X178268342Y-66387714D01*
X178211200Y-66444857D01*
X178182628Y-66530571D01*
X178182628Y-66587714D01*
X178211200Y-66673428D01*
X178239771Y-66702000D01*
X178439771Y-67044857D02*
X178411200Y-66987714D01*
X178382628Y-66959142D01*
X178325485Y-66930571D01*
X178296914Y-66930571D01*
X178239771Y-66959142D01*
X178211200Y-66987714D01*
X178182628Y-67044857D01*
X178182628Y-67159142D01*
X178211200Y-67216285D01*
X178239771Y-67244857D01*
X178296914Y-67273428D01*
X178325485Y-67273428D01*
X178382628Y-67244857D01*
X178411200Y-67216285D01*
X178439771Y-67159142D01*
X178439771Y-67044857D01*
X178468342Y-66987714D01*
X178496914Y-66959142D01*
X178554057Y-66930571D01*
X178668342Y-66930571D01*
X178725485Y-66959142D01*
X178754057Y-66987714D01*
X178782628Y-67044857D01*
X178782628Y-67159142D01*
X178754057Y-67216285D01*
X178725485Y-67244857D01*
X178668342Y-67273428D01*
X178554057Y-67273428D01*
X178496914Y-67244857D01*
X178468342Y-67216285D01*
X178439771Y-67159142D01*
%TO.C,R13*%
X195851428Y-83269785D02*
X195565714Y-83069785D01*
X195851428Y-82926928D02*
X195251428Y-82926928D01*
X195251428Y-83155500D01*
X195280000Y-83212642D01*
X195308571Y-83241214D01*
X195365714Y-83269785D01*
X195451428Y-83269785D01*
X195508571Y-83241214D01*
X195537142Y-83212642D01*
X195565714Y-83155500D01*
X195565714Y-82926928D01*
X195851428Y-83841214D02*
X195851428Y-83498357D01*
X195851428Y-83669785D02*
X195251428Y-83669785D01*
X195337142Y-83612642D01*
X195394285Y-83555500D01*
X195422857Y-83498357D01*
X195251428Y-84041214D02*
X195251428Y-84412642D01*
X195480000Y-84212642D01*
X195480000Y-84298357D01*
X195508571Y-84355500D01*
X195537142Y-84384071D01*
X195594285Y-84412642D01*
X195737142Y-84412642D01*
X195794285Y-84384071D01*
X195822857Y-84355500D01*
X195851428Y-84298357D01*
X195851428Y-84126928D01*
X195822857Y-84069785D01*
X195794285Y-84041214D01*
%TO.C,C30*%
X177604253Y-76068285D02*
X177632825Y-76039714D01*
X177661396Y-75954000D01*
X177661396Y-75896857D01*
X177632825Y-75811142D01*
X177575682Y-75754000D01*
X177518539Y-75725428D01*
X177404253Y-75696857D01*
X177318539Y-75696857D01*
X177204253Y-75725428D01*
X177147110Y-75754000D01*
X177089968Y-75811142D01*
X177061396Y-75896857D01*
X177061396Y-75954000D01*
X177089968Y-76039714D01*
X177118539Y-76068285D01*
X177061396Y-76268285D02*
X177061396Y-76639714D01*
X177289968Y-76439714D01*
X177289968Y-76525428D01*
X177318539Y-76582571D01*
X177347110Y-76611142D01*
X177404253Y-76639714D01*
X177547110Y-76639714D01*
X177604253Y-76611142D01*
X177632825Y-76582571D01*
X177661396Y-76525428D01*
X177661396Y-76354000D01*
X177632825Y-76296857D01*
X177604253Y-76268285D01*
X177061396Y-77011142D02*
X177061396Y-77068285D01*
X177089968Y-77125428D01*
X177118539Y-77154000D01*
X177175682Y-77182571D01*
X177289968Y-77211142D01*
X177432825Y-77211142D01*
X177547110Y-77182571D01*
X177604253Y-77154000D01*
X177632825Y-77125428D01*
X177661396Y-77068285D01*
X177661396Y-77011142D01*
X177632825Y-76954000D01*
X177604253Y-76925428D01*
X177547110Y-76896857D01*
X177432825Y-76868285D01*
X177289968Y-76868285D01*
X177175682Y-76896857D01*
X177118539Y-76925428D01*
X177089968Y-76954000D01*
X177061396Y-77011142D01*
%TO.C,C15*%
X154995714Y-78684285D02*
X155024285Y-78712857D01*
X155110000Y-78741428D01*
X155167142Y-78741428D01*
X155252857Y-78712857D01*
X155310000Y-78655714D01*
X155338571Y-78598571D01*
X155367142Y-78484285D01*
X155367142Y-78398571D01*
X155338571Y-78284285D01*
X155310000Y-78227142D01*
X155252857Y-78170000D01*
X155167142Y-78141428D01*
X155110000Y-78141428D01*
X155024285Y-78170000D01*
X154995714Y-78198571D01*
X154424285Y-78741428D02*
X154767142Y-78741428D01*
X154595714Y-78741428D02*
X154595714Y-78141428D01*
X154652857Y-78227142D01*
X154710000Y-78284285D01*
X154767142Y-78312857D01*
X153881428Y-78141428D02*
X154167142Y-78141428D01*
X154195714Y-78427142D01*
X154167142Y-78398571D01*
X154110000Y-78370000D01*
X153967142Y-78370000D01*
X153910000Y-78398571D01*
X153881428Y-78427142D01*
X153852857Y-78484285D01*
X153852857Y-78627142D01*
X153881428Y-78684285D01*
X153910000Y-78712857D01*
X153967142Y-78741428D01*
X154110000Y-78741428D01*
X154167142Y-78712857D01*
X154195714Y-78684285D01*
%TO.C,R15*%
X194581428Y-83269785D02*
X194295714Y-83069785D01*
X194581428Y-82926928D02*
X193981428Y-82926928D01*
X193981428Y-83155500D01*
X194010000Y-83212642D01*
X194038571Y-83241214D01*
X194095714Y-83269785D01*
X194181428Y-83269785D01*
X194238571Y-83241214D01*
X194267142Y-83212642D01*
X194295714Y-83155500D01*
X194295714Y-82926928D01*
X194581428Y-83841214D02*
X194581428Y-83498357D01*
X194581428Y-83669785D02*
X193981428Y-83669785D01*
X194067142Y-83612642D01*
X194124285Y-83555500D01*
X194152857Y-83498357D01*
X193981428Y-84384071D02*
X193981428Y-84098357D01*
X194267142Y-84069785D01*
X194238571Y-84098357D01*
X194210000Y-84155500D01*
X194210000Y-84298357D01*
X194238571Y-84355500D01*
X194267142Y-84384071D01*
X194324285Y-84412642D01*
X194467142Y-84412642D01*
X194524285Y-84384071D01*
X194552857Y-84355500D01*
X194581428Y-84298357D01*
X194581428Y-84155500D01*
X194552857Y-84098357D01*
X194524285Y-84069785D01*
%TO.C,R3*%
X186536000Y-67378228D02*
X186736000Y-67092514D01*
X186878857Y-67378228D02*
X186878857Y-66778228D01*
X186650285Y-66778228D01*
X186593142Y-66806800D01*
X186564571Y-66835371D01*
X186536000Y-66892514D01*
X186536000Y-66978228D01*
X186564571Y-67035371D01*
X186593142Y-67063942D01*
X186650285Y-67092514D01*
X186878857Y-67092514D01*
X186336000Y-66778228D02*
X185964571Y-66778228D01*
X186164571Y-67006800D01*
X186078857Y-67006800D01*
X186021714Y-67035371D01*
X185993142Y-67063942D01*
X185964571Y-67121085D01*
X185964571Y-67263942D01*
X185993142Y-67321085D01*
X186021714Y-67349657D01*
X186078857Y-67378228D01*
X186250285Y-67378228D01*
X186307428Y-67349657D01*
X186336000Y-67321085D01*
%TO.C,C26*%
X171007513Y-76068285D02*
X171036085Y-76039714D01*
X171064656Y-75954000D01*
X171064656Y-75896857D01*
X171036085Y-75811142D01*
X170978942Y-75754000D01*
X170921799Y-75725428D01*
X170807513Y-75696857D01*
X170721799Y-75696857D01*
X170607513Y-75725428D01*
X170550370Y-75754000D01*
X170493228Y-75811142D01*
X170464656Y-75896857D01*
X170464656Y-75954000D01*
X170493228Y-76039714D01*
X170521799Y-76068285D01*
X170521799Y-76296857D02*
X170493228Y-76325428D01*
X170464656Y-76382571D01*
X170464656Y-76525428D01*
X170493228Y-76582571D01*
X170521799Y-76611142D01*
X170578942Y-76639714D01*
X170636085Y-76639714D01*
X170721799Y-76611142D01*
X171064656Y-76268285D01*
X171064656Y-76639714D01*
X170464656Y-77154000D02*
X170464656Y-77039714D01*
X170493228Y-76982571D01*
X170521799Y-76954000D01*
X170607513Y-76896857D01*
X170721799Y-76868285D01*
X170950370Y-76868285D01*
X171007513Y-76896857D01*
X171036085Y-76925428D01*
X171064656Y-76982571D01*
X171064656Y-77096857D01*
X171036085Y-77154000D01*
X171007513Y-77182571D01*
X170950370Y-77211142D01*
X170807513Y-77211142D01*
X170750370Y-77182571D01*
X170721799Y-77154000D01*
X170693228Y-77096857D01*
X170693228Y-76982571D01*
X170721799Y-76925428D01*
X170750370Y-76896857D01*
X170807513Y-76868285D01*
%TO.C,C9*%
X176337885Y-66651200D02*
X176366457Y-66622628D01*
X176395028Y-66536914D01*
X176395028Y-66479771D01*
X176366457Y-66394057D01*
X176309314Y-66336914D01*
X176252171Y-66308342D01*
X176137885Y-66279771D01*
X176052171Y-66279771D01*
X175937885Y-66308342D01*
X175880742Y-66336914D01*
X175823600Y-66394057D01*
X175795028Y-66479771D01*
X175795028Y-66536914D01*
X175823600Y-66622628D01*
X175852171Y-66651200D01*
X176395028Y-66936914D02*
X176395028Y-67051200D01*
X176366457Y-67108342D01*
X176337885Y-67136914D01*
X176252171Y-67194057D01*
X176137885Y-67222628D01*
X175909314Y-67222628D01*
X175852171Y-67194057D01*
X175823600Y-67165485D01*
X175795028Y-67108342D01*
X175795028Y-66994057D01*
X175823600Y-66936914D01*
X175852171Y-66908342D01*
X175909314Y-66879771D01*
X176052171Y-66879771D01*
X176109314Y-66908342D01*
X176137885Y-66936914D01*
X176166457Y-66994057D01*
X176166457Y-67108342D01*
X176137885Y-67165485D01*
X176109314Y-67194057D01*
X176052171Y-67222628D01*
%TO.C,C28*%
X174929997Y-76068285D02*
X174958569Y-76039714D01*
X174987140Y-75954000D01*
X174987140Y-75896857D01*
X174958569Y-75811142D01*
X174901426Y-75754000D01*
X174844283Y-75725428D01*
X174729997Y-75696857D01*
X174644283Y-75696857D01*
X174529997Y-75725428D01*
X174472854Y-75754000D01*
X174415712Y-75811142D01*
X174387140Y-75896857D01*
X174387140Y-75954000D01*
X174415712Y-76039714D01*
X174444283Y-76068285D01*
X174444283Y-76296857D02*
X174415712Y-76325428D01*
X174387140Y-76382571D01*
X174387140Y-76525428D01*
X174415712Y-76582571D01*
X174444283Y-76611142D01*
X174501426Y-76639714D01*
X174558569Y-76639714D01*
X174644283Y-76611142D01*
X174987140Y-76268285D01*
X174987140Y-76639714D01*
X174644283Y-76982571D02*
X174615712Y-76925428D01*
X174587140Y-76896857D01*
X174529997Y-76868285D01*
X174501426Y-76868285D01*
X174444283Y-76896857D01*
X174415712Y-76925428D01*
X174387140Y-76982571D01*
X174387140Y-77096857D01*
X174415712Y-77154000D01*
X174444283Y-77182571D01*
X174501426Y-77211142D01*
X174529997Y-77211142D01*
X174587140Y-77182571D01*
X174615712Y-77154000D01*
X174644283Y-77096857D01*
X174644283Y-76982571D01*
X174672854Y-76925428D01*
X174701426Y-76896857D01*
X174758569Y-76868285D01*
X174872854Y-76868285D01*
X174929997Y-76896857D01*
X174958569Y-76925428D01*
X174987140Y-76982571D01*
X174987140Y-77096857D01*
X174958569Y-77154000D01*
X174929997Y-77182571D01*
X174872854Y-77211142D01*
X174758569Y-77211142D01*
X174701426Y-77182571D01*
X174672854Y-77154000D01*
X174644283Y-77096857D01*
%TO.C,C31*%
X178852485Y-76068285D02*
X178881057Y-76039714D01*
X178909628Y-75954000D01*
X178909628Y-75896857D01*
X178881057Y-75811142D01*
X178823914Y-75754000D01*
X178766771Y-75725428D01*
X178652485Y-75696857D01*
X178566771Y-75696857D01*
X178452485Y-75725428D01*
X178395342Y-75754000D01*
X178338200Y-75811142D01*
X178309628Y-75896857D01*
X178309628Y-75954000D01*
X178338200Y-76039714D01*
X178366771Y-76068285D01*
X178309628Y-76268285D02*
X178309628Y-76639714D01*
X178538200Y-76439714D01*
X178538200Y-76525428D01*
X178566771Y-76582571D01*
X178595342Y-76611142D01*
X178652485Y-76639714D01*
X178795342Y-76639714D01*
X178852485Y-76611142D01*
X178881057Y-76582571D01*
X178909628Y-76525428D01*
X178909628Y-76354000D01*
X178881057Y-76296857D01*
X178852485Y-76268285D01*
X178909628Y-77211142D02*
X178909628Y-76868285D01*
X178909628Y-77039714D02*
X178309628Y-77039714D01*
X178395342Y-76982571D01*
X178452485Y-76925428D01*
X178481057Y-76868285D01*
%TO.C,C7*%
X180046285Y-66702000D02*
X180074857Y-66673428D01*
X180103428Y-66587714D01*
X180103428Y-66530571D01*
X180074857Y-66444857D01*
X180017714Y-66387714D01*
X179960571Y-66359142D01*
X179846285Y-66330571D01*
X179760571Y-66330571D01*
X179646285Y-66359142D01*
X179589142Y-66387714D01*
X179532000Y-66444857D01*
X179503428Y-66530571D01*
X179503428Y-66587714D01*
X179532000Y-66673428D01*
X179560571Y-66702000D01*
X179503428Y-66902000D02*
X179503428Y-67302000D01*
X180103428Y-67044857D01*
%TO.C,R12*%
X191533428Y-83269785D02*
X191247714Y-83069785D01*
X191533428Y-82926928D02*
X190933428Y-82926928D01*
X190933428Y-83155500D01*
X190962000Y-83212642D01*
X190990571Y-83241214D01*
X191047714Y-83269785D01*
X191133428Y-83269785D01*
X191190571Y-83241214D01*
X191219142Y-83212642D01*
X191247714Y-83155500D01*
X191247714Y-82926928D01*
X191533428Y-83841214D02*
X191533428Y-83498357D01*
X191533428Y-83669785D02*
X190933428Y-83669785D01*
X191019142Y-83612642D01*
X191076285Y-83555500D01*
X191104857Y-83498357D01*
X190990571Y-84069785D02*
X190962000Y-84098357D01*
X190933428Y-84155500D01*
X190933428Y-84298357D01*
X190962000Y-84355500D01*
X190990571Y-84384071D01*
X191047714Y-84412642D01*
X191104857Y-84412642D01*
X191190571Y-84384071D01*
X191533428Y-84041214D01*
X191533428Y-84412642D01*
%TO.C,R1*%
X172129428Y-61114000D02*
X171843714Y-60914000D01*
X172129428Y-60771142D02*
X171529428Y-60771142D01*
X171529428Y-60999714D01*
X171558000Y-61056857D01*
X171586571Y-61085428D01*
X171643714Y-61114000D01*
X171729428Y-61114000D01*
X171786571Y-61085428D01*
X171815142Y-61056857D01*
X171843714Y-60999714D01*
X171843714Y-60771142D01*
X172129428Y-61685428D02*
X172129428Y-61342571D01*
X172129428Y-61514000D02*
X171529428Y-61514000D01*
X171615142Y-61456857D01*
X171672285Y-61399714D01*
X171700857Y-61342571D01*
%TO.C,C11*%
X156805714Y-76614285D02*
X156834285Y-76642857D01*
X156920000Y-76671428D01*
X156977142Y-76671428D01*
X157062857Y-76642857D01*
X157120000Y-76585714D01*
X157148571Y-76528571D01*
X157177142Y-76414285D01*
X157177142Y-76328571D01*
X157148571Y-76214285D01*
X157120000Y-76157142D01*
X157062857Y-76100000D01*
X156977142Y-76071428D01*
X156920000Y-76071428D01*
X156834285Y-76100000D01*
X156805714Y-76128571D01*
X156234285Y-76671428D02*
X156577142Y-76671428D01*
X156405714Y-76671428D02*
X156405714Y-76071428D01*
X156462857Y-76157142D01*
X156520000Y-76214285D01*
X156577142Y-76242857D01*
X155662857Y-76671428D02*
X156005714Y-76671428D01*
X155834285Y-76671428D02*
X155834285Y-76071428D01*
X155891428Y-76157142D01*
X155948571Y-76214285D01*
X156005714Y-76242857D01*
%TO.C,C24*%
X193254285Y-83269785D02*
X193282857Y-83241214D01*
X193311428Y-83155500D01*
X193311428Y-83098357D01*
X193282857Y-83012642D01*
X193225714Y-82955500D01*
X193168571Y-82926928D01*
X193054285Y-82898357D01*
X192968571Y-82898357D01*
X192854285Y-82926928D01*
X192797142Y-82955500D01*
X192740000Y-83012642D01*
X192711428Y-83098357D01*
X192711428Y-83155500D01*
X192740000Y-83241214D01*
X192768571Y-83269785D01*
X192768571Y-83498357D02*
X192740000Y-83526928D01*
X192711428Y-83584071D01*
X192711428Y-83726928D01*
X192740000Y-83784071D01*
X192768571Y-83812642D01*
X192825714Y-83841214D01*
X192882857Y-83841214D01*
X192968571Y-83812642D01*
X193311428Y-83469785D01*
X193311428Y-83841214D01*
X192911428Y-84355500D02*
X193311428Y-84355500D01*
X192682857Y-84212642D02*
X193111428Y-84069785D01*
X193111428Y-84441214D01*
%TO.C,C29*%
X176330625Y-76068285D02*
X176359197Y-76039714D01*
X176387768Y-75954000D01*
X176387768Y-75896857D01*
X176359197Y-75811142D01*
X176302054Y-75754000D01*
X176244911Y-75725428D01*
X176130625Y-75696857D01*
X176044911Y-75696857D01*
X175930625Y-75725428D01*
X175873482Y-75754000D01*
X175816340Y-75811142D01*
X175787768Y-75896857D01*
X175787768Y-75954000D01*
X175816340Y-76039714D01*
X175844911Y-76068285D01*
X175844911Y-76296857D02*
X175816340Y-76325428D01*
X175787768Y-76382571D01*
X175787768Y-76525428D01*
X175816340Y-76582571D01*
X175844911Y-76611142D01*
X175902054Y-76639714D01*
X175959197Y-76639714D01*
X176044911Y-76611142D01*
X176387768Y-76268285D01*
X176387768Y-76639714D01*
X176387768Y-76925428D02*
X176387768Y-77039714D01*
X176359197Y-77096857D01*
X176330625Y-77125428D01*
X176244911Y-77182571D01*
X176130625Y-77211142D01*
X175902054Y-77211142D01*
X175844911Y-77182571D01*
X175816340Y-77154000D01*
X175787768Y-77096857D01*
X175787768Y-76982571D01*
X175816340Y-76925428D01*
X175844911Y-76896857D01*
X175902054Y-76868285D01*
X176044911Y-76868285D01*
X176102054Y-76896857D01*
X176130625Y-76925428D01*
X176159197Y-76982571D01*
X176159197Y-77096857D01*
X176130625Y-77154000D01*
X176102054Y-77182571D01*
X176044911Y-77211142D01*
%TO.C,C25*%
X169835485Y-76068285D02*
X169864057Y-76039714D01*
X169892628Y-75954000D01*
X169892628Y-75896857D01*
X169864057Y-75811142D01*
X169806914Y-75754000D01*
X169749771Y-75725428D01*
X169635485Y-75696857D01*
X169549771Y-75696857D01*
X169435485Y-75725428D01*
X169378342Y-75754000D01*
X169321200Y-75811142D01*
X169292628Y-75896857D01*
X169292628Y-75954000D01*
X169321200Y-76039714D01*
X169349771Y-76068285D01*
X169349771Y-76296857D02*
X169321200Y-76325428D01*
X169292628Y-76382571D01*
X169292628Y-76525428D01*
X169321200Y-76582571D01*
X169349771Y-76611142D01*
X169406914Y-76639714D01*
X169464057Y-76639714D01*
X169549771Y-76611142D01*
X169892628Y-76268285D01*
X169892628Y-76639714D01*
X169292628Y-77182571D02*
X169292628Y-76896857D01*
X169578342Y-76868285D01*
X169549771Y-76896857D01*
X169521200Y-76954000D01*
X169521200Y-77096857D01*
X169549771Y-77154000D01*
X169578342Y-77182571D01*
X169635485Y-77211142D01*
X169778342Y-77211142D01*
X169835485Y-77182571D01*
X169864057Y-77154000D01*
X169892628Y-77096857D01*
X169892628Y-76954000D01*
X169864057Y-76896857D01*
X169835485Y-76868285D01*
%TO.C,L1*%
X177563428Y-66702000D02*
X177563428Y-66416285D01*
X176963428Y-66416285D01*
X177563428Y-67216285D02*
X177563428Y-66873428D01*
X177563428Y-67044857D02*
X176963428Y-67044857D01*
X177049142Y-66987714D01*
X177106285Y-66930571D01*
X177134857Y-66873428D01*
%TO.C,R14*%
X190263428Y-83269785D02*
X189977714Y-83069785D01*
X190263428Y-82926928D02*
X189663428Y-82926928D01*
X189663428Y-83155500D01*
X189692000Y-83212642D01*
X189720571Y-83241214D01*
X189777714Y-83269785D01*
X189863428Y-83269785D01*
X189920571Y-83241214D01*
X189949142Y-83212642D01*
X189977714Y-83155500D01*
X189977714Y-82926928D01*
X190263428Y-83841214D02*
X190263428Y-83498357D01*
X190263428Y-83669785D02*
X189663428Y-83669785D01*
X189749142Y-83612642D01*
X189806285Y-83555500D01*
X189834857Y-83498357D01*
X189863428Y-84355500D02*
X190263428Y-84355500D01*
X189634857Y-84212642D02*
X190063428Y-84069785D01*
X190063428Y-84441214D01*
D12*
%TO.C,C33*%
X174140400Y-68477220D02*
X174140400Y-68758380D01*
X175160400Y-68477220D02*
X175160400Y-68758380D01*
%TO.C,C23*%
X188362000Y-81418165D02*
X188362000Y-81649835D01*
X189082000Y-81418165D02*
X189082000Y-81649835D01*
%TO.C,C27*%
X172579256Y-78855835D02*
X172579256Y-78624165D01*
X171859256Y-78855835D02*
X171859256Y-78624165D01*
%TO.C,C12*%
X153871252Y-72920000D02*
X152448748Y-72920000D01*
X153871252Y-74740000D02*
X152448748Y-74740000D01*
%TO.C,C10*%
X153871252Y-82690000D02*
X152448748Y-82690000D01*
X153871252Y-84510000D02*
X152448748Y-84510000D01*
%TO.C,R2*%
X189448421Y-65761600D02*
X189113179Y-65761600D01*
X189448421Y-66521600D02*
X189113179Y-66521600D01*
%TO.C,C32*%
X173878284Y-78855835D02*
X173878284Y-78624165D01*
X173158284Y-78855835D02*
X173158284Y-78624165D01*
%TO.C,C8*%
X178252800Y-69135635D02*
X178252800Y-68903965D01*
X178972800Y-69135635D02*
X178972800Y-68903965D01*
%TO.C,R13*%
X195200000Y-81366379D02*
X195200000Y-81701621D01*
X195960000Y-81366379D02*
X195960000Y-81701621D01*
%TO.C,C30*%
X177775368Y-78855835D02*
X177775368Y-78624165D01*
X177055368Y-78855835D02*
X177055368Y-78624165D01*
%TO.C,C15*%
X153851252Y-80120000D02*
X152428748Y-80120000D01*
X153851252Y-81940000D02*
X152428748Y-81940000D01*
%TO.C,R15*%
X193930000Y-81366379D02*
X193930000Y-81701621D01*
X194690000Y-81366379D02*
X194690000Y-81701621D01*
%TO.C,R3*%
X185658779Y-66521600D02*
X185994021Y-66521600D01*
X185658779Y-65761600D02*
X185994021Y-65761600D01*
%TO.C,C26*%
X170560228Y-78855835D02*
X170560228Y-78624165D01*
X171280228Y-78855835D02*
X171280228Y-78624165D01*
%TO.C,C9*%
X176534400Y-69135635D02*
X176534400Y-68903965D01*
X175814400Y-69135635D02*
X175814400Y-68903965D01*
%TO.C,C28*%
X174457312Y-78855835D02*
X174457312Y-78624165D01*
X175177312Y-78855835D02*
X175177312Y-78624165D01*
%TO.C,C31*%
X179074400Y-78855835D02*
X179074400Y-78624165D01*
X178354400Y-78855835D02*
X178354400Y-78624165D01*
%TO.C,C7*%
X179472000Y-68912665D02*
X179472000Y-69144335D01*
X180192000Y-68912665D02*
X180192000Y-69144335D01*
%TO.C,R12*%
X190882000Y-81366379D02*
X190882000Y-81701621D01*
X191642000Y-81366379D02*
X191642000Y-81701621D01*
%TO.C,R1*%
X170308000Y-61381621D02*
X170308000Y-61046379D01*
X171068000Y-61381621D02*
X171068000Y-61046379D01*
%TO.C,C11*%
X153871252Y-75470000D02*
X152448748Y-75470000D01*
X153871252Y-77290000D02*
X152448748Y-77290000D01*
%TO.C,C24*%
X193400000Y-81418165D02*
X193400000Y-81649835D01*
X192680000Y-81418165D02*
X192680000Y-81649835D01*
%TO.C,C29*%
X175756340Y-78855835D02*
X175756340Y-78624165D01*
X176476340Y-78855835D02*
X176476340Y-78624165D01*
%TO.C,JP1*%
X171266000Y-58858000D02*
X170966000Y-59158000D01*
X171466000Y-56258000D02*
X171466000Y-59058000D01*
X170966000Y-59158000D02*
X170966000Y-58558000D01*
X172166000Y-59708000D02*
X172766000Y-59708000D01*
X172766000Y-55608000D02*
X172166000Y-55608000D01*
X173466000Y-59058000D02*
X173466000Y-56258000D01*
X171266000Y-58858000D02*
X170966000Y-58558000D01*
X172766000Y-59708000D02*
G75*
G03*
X173466000Y-59008000I1J699999D01*
G01*
X172166000Y-55608000D02*
G75*
G03*
X171466000Y-56308000I0J-700000D01*
G01*
X171466000Y-59008000D02*
G75*
G03*
X172166000Y-59708000I699999J-1D01*
G01*
X173466000Y-56308000D02*
G75*
G03*
X172766000Y-55608000I-700000J0D01*
G01*
%TO.C,C25*%
X169981200Y-78855835D02*
X169981200Y-78624165D01*
X169261200Y-78855835D02*
X169261200Y-78624165D01*
%TO.C,R14*%
X189612000Y-81366379D02*
X189612000Y-81701621D01*
X190372000Y-81366379D02*
X190372000Y-81701621D01*
%TD*%
%LPC*%
D13*
%TO.C,J5*%
X195405000Y-78930000D03*
D14*
X193405000Y-78930000D03*
X191405000Y-78930000D03*
X189405000Y-78930000D03*
%TD*%
D15*
%TO.C,J7*%
X197358000Y-73152000D03*
D16*
X197358000Y-74402000D03*
%TD*%
D17*
%TO.C,J17*%
X189815000Y-52890000D03*
D18*
X188565000Y-52890000D03*
X187315000Y-52890000D03*
X186065000Y-52890000D03*
X184815000Y-52890000D03*
X183565000Y-52890000D03*
%TD*%
D19*
%TO.C,J16*%
X196088000Y-53898800D03*
D20*
X196088000Y-56438800D03*
%TD*%
D15*
%TO.C,J14*%
X197358000Y-62240000D03*
D16*
X197358000Y-63490000D03*
%TD*%
D15*
%TO.C,J10*%
X192786000Y-67701000D03*
D16*
X192786000Y-68951000D03*
%TD*%
D17*
%TO.C,J12*%
X181357600Y-82346800D03*
D18*
X180107600Y-82346800D03*
X178857600Y-82346800D03*
X177607600Y-82346800D03*
X176357600Y-82346800D03*
X175107600Y-82346800D03*
X173857600Y-82346800D03*
X172607600Y-82346800D03*
X171357600Y-82346800D03*
X170107600Y-82346800D03*
%TD*%
D21*
%TO.C,J11*%
X175524000Y-54605000D03*
D22*
X176794000Y-54605000D03*
X175524000Y-55875000D03*
X176794000Y-55875000D03*
X175524000Y-57145000D03*
X176794000Y-57145000D03*
%TD*%
D15*
%TO.C,J8*%
X192786000Y-73152000D03*
D16*
X192786000Y-74402000D03*
%TD*%
D15*
%TO.C,J9*%
X197358000Y-67696000D03*
D16*
X197358000Y-68946000D03*
%TD*%
D15*
%TO.C,J15*%
X192786000Y-62230000D03*
D16*
X192786000Y-63480000D03*
%TD*%
D21*
%TO.C,J2*%
X188722000Y-64389000D03*
D22*
X188722000Y-63119000D03*
X188722000Y-61849000D03*
X188722000Y-60579000D03*
X188722000Y-59309000D03*
X188722000Y-58039000D03*
%TD*%
D23*
%TO.C,J1*%
X154953200Y-71675000D03*
D24*
X154953200Y-69675000D03*
X154953200Y-67675000D03*
X154953200Y-65675000D03*
X154953200Y-63675000D03*
X154953200Y-61675000D03*
%TD*%
D25*
%TO.C,C33*%
X174650400Y-67842800D03*
X174650400Y-69392800D03*
%TD*%
D26*
%TO.C,C23*%
X188722000Y-80966500D03*
X188722000Y-82101500D03*
%TD*%
D27*
%TO.C,C27*%
X172219256Y-79307500D03*
X172219256Y-78172500D03*
%TD*%
D28*
%TO.C,C12*%
X154635000Y-73830000D03*
X151685000Y-73830000D03*
%TD*%
%TO.C,C10*%
X154635000Y-83600000D03*
X151685000Y-83600000D03*
%TD*%
D29*
%TO.C,R2*%
X189878300Y-66141600D03*
X188683300Y-66141600D03*
%TD*%
D27*
%TO.C,C32*%
X173518284Y-79307500D03*
X173518284Y-78172500D03*
%TD*%
%TO.C,C8*%
X178612800Y-69587300D03*
X178612800Y-68452300D03*
%TD*%
D30*
%TO.C,R13*%
X195580000Y-80936500D03*
X195580000Y-82131500D03*
%TD*%
D27*
%TO.C,C30*%
X177415368Y-79307500D03*
X177415368Y-78172500D03*
%TD*%
D28*
%TO.C,C15*%
X154615000Y-81030000D03*
X151665000Y-81030000D03*
%TD*%
D30*
%TO.C,R15*%
X194310000Y-80936500D03*
X194310000Y-82131500D03*
%TD*%
D31*
%TO.C,R3*%
X185228900Y-66141600D03*
X186423900Y-66141600D03*
%TD*%
D27*
%TO.C,C26*%
X170920228Y-79307500D03*
X170920228Y-78172500D03*
%TD*%
%TO.C,C9*%
X176174400Y-69587300D03*
X176174400Y-68452300D03*
%TD*%
%TO.C,C28*%
X174817312Y-79307500D03*
X174817312Y-78172500D03*
%TD*%
%TO.C,C31*%
X178714400Y-79307500D03*
X178714400Y-78172500D03*
%TD*%
D26*
%TO.C,C7*%
X179832000Y-68461000D03*
X179832000Y-69596000D03*
%TD*%
D30*
%TO.C,R12*%
X191262000Y-80936500D03*
X191262000Y-82131500D03*
%TD*%
D32*
%TO.C,R1*%
X170688000Y-61811500D03*
X170688000Y-60616500D03*
%TD*%
D28*
%TO.C,C11*%
X154635000Y-76380000D03*
X151685000Y-76380000D03*
%TD*%
D26*
%TO.C,C24*%
X193040000Y-80966500D03*
X193040000Y-82101500D03*
%TD*%
D27*
%TO.C,C29*%
X176116340Y-79307500D03*
X176116340Y-78172500D03*
%TD*%
D33*
%TO.C,JP1*%
X172466000Y-58958000D03*
D34*
X172466000Y-57658000D03*
D35*
X172466000Y-56358000D03*
%TD*%
D27*
%TO.C,C25*%
X169621200Y-79307500D03*
X169621200Y-78172500D03*
%TD*%
D36*
%TO.C,L1*%
X177393600Y-68704600D03*
X177393600Y-69674600D03*
%TD*%
D30*
%TO.C,R14*%
X189992000Y-80936500D03*
X189992000Y-82131500D03*
%TD*%
M02*
