%TF.GenerationSoftware,KiCad,Pcbnew,(6.0.8)*%
%TF.CreationDate,2023-03-18T00:57:18+01:00*%
%TF.ProjectId,WHEEL-07,57484545-4c2d-4303-972e-6b696361645f,rev?*%
%TF.SameCoordinates,Original*%
%TF.FileFunction,Legend,Bot*%
%TF.FilePolarity,Positive*%
%FSLAX46Y46*%
G04 Gerber Fmt 4.6, Leading zero omitted, Abs format (unit mm)*
G04 Created by KiCad (PCBNEW (6.0.8)) date 2023-03-18 00:57:18*
%MOMM*%
%LPD*%
G01*
G04 APERTURE LIST*
%ADD10C,0.150000*%
%ADD11C,0.120000*%
G04 APERTURE END LIST*
D10*
X161294247Y-54605180D02*
X161294247Y-53605180D01*
X161294247Y-53986133D02*
X161199009Y-53938514D01*
X161008533Y-53938514D01*
X160913295Y-53986133D01*
X160865676Y-54033752D01*
X160818057Y-54128990D01*
X160818057Y-54414704D01*
X160865676Y-54509942D01*
X160913295Y-54557561D01*
X161008533Y-54605180D01*
X161199009Y-54605180D01*
X161294247Y-54557561D01*
X160484723Y-53938514D02*
X160246628Y-54605180D01*
X160008533Y-53938514D02*
X160246628Y-54605180D01*
X160341866Y-54843276D01*
X160389485Y-54890895D01*
X160484723Y-54938514D01*
X158865676Y-54605180D02*
X158865676Y-53605180D01*
X158294247Y-54605180D02*
X158722819Y-54033752D01*
X158294247Y-53605180D02*
X158865676Y-54176609D01*
X157865676Y-54509942D02*
X157818057Y-54557561D01*
X157865676Y-54605180D01*
X157913295Y-54557561D01*
X157865676Y-54509942D01*
X157865676Y-54605180D01*
X157389485Y-54605180D02*
X157389485Y-53605180D01*
X157008533Y-53605180D01*
X156913295Y-53652800D01*
X156865676Y-53700419D01*
X156818057Y-53795657D01*
X156818057Y-53938514D01*
X156865676Y-54033752D01*
X156913295Y-54081371D01*
X157008533Y-54128990D01*
X157389485Y-54128990D01*
X156008533Y-54557561D02*
X156103771Y-54605180D01*
X156294247Y-54605180D01*
X156389485Y-54557561D01*
X156437104Y-54462323D01*
X156437104Y-54081371D01*
X156389485Y-53986133D01*
X156294247Y-53938514D01*
X156103771Y-53938514D01*
X156008533Y-53986133D01*
X155960914Y-54081371D01*
X155960914Y-54176609D01*
X156437104Y-54271847D01*
X155532342Y-54605180D02*
X155532342Y-53938514D01*
X155532342Y-54128990D02*
X155484723Y-54033752D01*
X155437104Y-53986133D01*
X155341866Y-53938514D01*
X155246628Y-53938514D01*
X154484723Y-53938514D02*
X154484723Y-54748038D01*
X154532342Y-54843276D01*
X154579961Y-54890895D01*
X154675200Y-54938514D01*
X154818057Y-54938514D01*
X154913295Y-54890895D01*
X154484723Y-54557561D02*
X154579961Y-54605180D01*
X154770438Y-54605180D01*
X154865676Y-54557561D01*
X154913295Y-54509942D01*
X154960914Y-54414704D01*
X154960914Y-54128990D01*
X154913295Y-54033752D01*
X154865676Y-53986133D01*
X154770438Y-53938514D01*
X154579961Y-53938514D01*
X154484723Y-53986133D01*
X153865676Y-54605180D02*
X153960914Y-54557561D01*
X154008533Y-54509942D01*
X154056152Y-54414704D01*
X154056152Y-54128990D01*
X154008533Y-54033752D01*
X153960914Y-53986133D01*
X153865676Y-53938514D01*
X153722819Y-53938514D01*
X153627580Y-53986133D01*
X153579961Y-54033752D01*
X153532342Y-54128990D01*
X153532342Y-54414704D01*
X153579961Y-54509942D01*
X153627580Y-54557561D01*
X153722819Y-54605180D01*
X153865676Y-54605180D01*
X152960914Y-54605180D02*
X153056152Y-54557561D01*
X153103771Y-54462323D01*
X153103771Y-53605180D01*
X173947142Y-56558000D02*
X173975714Y-56643714D01*
X174004285Y-56672285D01*
X174061428Y-56700857D01*
X174147142Y-56700857D01*
X174204285Y-56672285D01*
X174232857Y-56643714D01*
X174261428Y-56586571D01*
X174261428Y-56358000D01*
X173661428Y-56358000D01*
X173661428Y-56558000D01*
X173690000Y-56615142D01*
X173718571Y-56643714D01*
X173775714Y-56672285D01*
X173832857Y-56672285D01*
X173890000Y-56643714D01*
X173918571Y-56615142D01*
X173947142Y-56558000D01*
X173947142Y-56358000D01*
X173661428Y-57072285D02*
X173661428Y-57186571D01*
X173690000Y-57243714D01*
X173747142Y-57300857D01*
X173861428Y-57329428D01*
X174061428Y-57329428D01*
X174175714Y-57300857D01*
X174232857Y-57243714D01*
X174261428Y-57186571D01*
X174261428Y-57072285D01*
X174232857Y-57015142D01*
X174175714Y-56958000D01*
X174061428Y-56929428D01*
X173861428Y-56929428D01*
X173747142Y-56958000D01*
X173690000Y-57015142D01*
X173661428Y-57072285D01*
X173661428Y-57700857D02*
X173661428Y-57815142D01*
X173690000Y-57872285D01*
X173747142Y-57929428D01*
X173861428Y-57958000D01*
X174061428Y-57958000D01*
X174175714Y-57929428D01*
X174232857Y-57872285D01*
X174261428Y-57815142D01*
X174261428Y-57700857D01*
X174232857Y-57643714D01*
X174175714Y-57586571D01*
X174061428Y-57558000D01*
X173861428Y-57558000D01*
X173747142Y-57586571D01*
X173690000Y-57643714D01*
X173661428Y-57700857D01*
X173661428Y-58129428D02*
X173661428Y-58472285D01*
X174261428Y-58300857D02*
X173661428Y-58300857D01*
X173661428Y-58786571D02*
X173661428Y-58843714D01*
X173690000Y-58900857D01*
X173718571Y-58929428D01*
X173775714Y-58958000D01*
X173890000Y-58986571D01*
X174032857Y-58986571D01*
X174147142Y-58958000D01*
X174204285Y-58929428D01*
X174232857Y-58900857D01*
X174261428Y-58843714D01*
X174261428Y-58786571D01*
X174232857Y-58729428D01*
X174204285Y-58700857D01*
X174147142Y-58672285D01*
X174032857Y-58643714D01*
X173890000Y-58643714D01*
X173775714Y-58672285D01*
X173718571Y-58700857D01*
X173690000Y-58729428D01*
X173661428Y-58786571D01*
%TO.C,C33*%
X173188285Y-67940285D02*
X173216857Y-67911714D01*
X173245428Y-67826000D01*
X173245428Y-67768857D01*
X173216857Y-67683142D01*
X173159714Y-67626000D01*
X173102571Y-67597428D01*
X172988285Y-67568857D01*
X172902571Y-67568857D01*
X172788285Y-67597428D01*
X172731142Y-67626000D01*
X172674000Y-67683142D01*
X172645428Y-67768857D01*
X172645428Y-67826000D01*
X172674000Y-67911714D01*
X172702571Y-67940285D01*
X172645428Y-68140285D02*
X172645428Y-68511714D01*
X172874000Y-68311714D01*
X172874000Y-68397428D01*
X172902571Y-68454571D01*
X172931142Y-68483142D01*
X172988285Y-68511714D01*
X173131142Y-68511714D01*
X173188285Y-68483142D01*
X173216857Y-68454571D01*
X173245428Y-68397428D01*
X173245428Y-68226000D01*
X173216857Y-68168857D01*
X173188285Y-68140285D01*
X172645428Y-68711714D02*
X172645428Y-69083142D01*
X172874000Y-68883142D01*
X172874000Y-68968857D01*
X172902571Y-69026000D01*
X172931142Y-69054571D01*
X172988285Y-69083142D01*
X173131142Y-69083142D01*
X173188285Y-69054571D01*
X173216857Y-69026000D01*
X173245428Y-68968857D01*
X173245428Y-68797428D01*
X173216857Y-68740285D01*
X173188285Y-68711714D01*
%TO.C,C23*%
X188936285Y-83269785D02*
X188964857Y-83241214D01*
X188993428Y-83155500D01*
X188993428Y-83098357D01*
X188964857Y-83012642D01*
X188907714Y-82955500D01*
X188850571Y-82926928D01*
X188736285Y-82898357D01*
X188650571Y-82898357D01*
X188536285Y-82926928D01*
X188479142Y-82955500D01*
X188422000Y-83012642D01*
X188393428Y-83098357D01*
X188393428Y-83155500D01*
X188422000Y-83241214D01*
X188450571Y-83269785D01*
X188450571Y-83498357D02*
X188422000Y-83526928D01*
X188393428Y-83584071D01*
X188393428Y-83726928D01*
X188422000Y-83784071D01*
X188450571Y-83812642D01*
X188507714Y-83841214D01*
X188564857Y-83841214D01*
X188650571Y-83812642D01*
X188993428Y-83469785D01*
X188993428Y-83841214D01*
X188393428Y-84041214D02*
X188393428Y-84412642D01*
X188622000Y-84212642D01*
X188622000Y-84298357D01*
X188650571Y-84355500D01*
X188679142Y-84384071D01*
X188736285Y-84412642D01*
X188879142Y-84412642D01*
X188936285Y-84384071D01*
X188964857Y-84355500D01*
X188993428Y-84298357D01*
X188993428Y-84126928D01*
X188964857Y-84069785D01*
X188936285Y-84041214D01*
%TO.C,C27*%
X172306541Y-76068285D02*
X172335113Y-76039714D01*
X172363684Y-75954000D01*
X172363684Y-75896857D01*
X172335113Y-75811142D01*
X172277970Y-75754000D01*
X172220827Y-75725428D01*
X172106541Y-75696857D01*
X172020827Y-75696857D01*
X171906541Y-75725428D01*
X171849398Y-75754000D01*
X171792256Y-75811142D01*
X171763684Y-75896857D01*
X171763684Y-75954000D01*
X171792256Y-76039714D01*
X171820827Y-76068285D01*
X171820827Y-76296857D02*
X171792256Y-76325428D01*
X171763684Y-76382571D01*
X171763684Y-76525428D01*
X171792256Y-76582571D01*
X171820827Y-76611142D01*
X171877970Y-76639714D01*
X171935113Y-76639714D01*
X172020827Y-76611142D01*
X172363684Y-76268285D01*
X172363684Y-76639714D01*
X171763684Y-76839714D02*
X171763684Y-77239714D01*
X172363684Y-76982571D01*
%TO.C,R2*%
X188822000Y-67327428D02*
X189022000Y-67041714D01*
X189164857Y-67327428D02*
X189164857Y-66727428D01*
X188936285Y-66727428D01*
X188879142Y-66756000D01*
X188850571Y-66784571D01*
X188822000Y-66841714D01*
X188822000Y-66927428D01*
X188850571Y-66984571D01*
X188879142Y-67013142D01*
X188936285Y-67041714D01*
X189164857Y-67041714D01*
X188593428Y-66784571D02*
X188564857Y-66756000D01*
X188507714Y-66727428D01*
X188364857Y-66727428D01*
X188307714Y-66756000D01*
X188279142Y-66784571D01*
X188250571Y-66841714D01*
X188250571Y-66898857D01*
X188279142Y-66984571D01*
X188622000Y-67327428D01*
X188250571Y-67327428D01*
%TO.C,C32*%
X173605569Y-76068285D02*
X173634141Y-76039714D01*
X173662712Y-75954000D01*
X173662712Y-75896857D01*
X173634141Y-75811142D01*
X173576998Y-75754000D01*
X173519855Y-75725428D01*
X173405569Y-75696857D01*
X173319855Y-75696857D01*
X173205569Y-75725428D01*
X173148426Y-75754000D01*
X173091284Y-75811142D01*
X173062712Y-75896857D01*
X173062712Y-75954000D01*
X173091284Y-76039714D01*
X173119855Y-76068285D01*
X173062712Y-76268285D02*
X173062712Y-76639714D01*
X173291284Y-76439714D01*
X173291284Y-76525428D01*
X173319855Y-76582571D01*
X173348426Y-76611142D01*
X173405569Y-76639714D01*
X173548426Y-76639714D01*
X173605569Y-76611142D01*
X173634141Y-76582571D01*
X173662712Y-76525428D01*
X173662712Y-76354000D01*
X173634141Y-76296857D01*
X173605569Y-76268285D01*
X173119855Y-76868285D02*
X173091284Y-76896857D01*
X173062712Y-76954000D01*
X173062712Y-77096857D01*
X173091284Y-77154000D01*
X173119855Y-77182571D01*
X173176998Y-77211142D01*
X173234141Y-77211142D01*
X173319855Y-77182571D01*
X173662712Y-76839714D01*
X173662712Y-77211142D01*
%TO.C,C8*%
X178725485Y-66702000D02*
X178754057Y-66673428D01*
X178782628Y-66587714D01*
X178782628Y-66530571D01*
X178754057Y-66444857D01*
X178696914Y-66387714D01*
X178639771Y-66359142D01*
X178525485Y-66330571D01*
X178439771Y-66330571D01*
X178325485Y-66359142D01*
X178268342Y-66387714D01*
X178211200Y-66444857D01*
X178182628Y-66530571D01*
X178182628Y-66587714D01*
X178211200Y-66673428D01*
X178239771Y-66702000D01*
X178439771Y-67044857D02*
X178411200Y-66987714D01*
X178382628Y-66959142D01*
X178325485Y-66930571D01*
X178296914Y-66930571D01*
X178239771Y-66959142D01*
X178211200Y-66987714D01*
X178182628Y-67044857D01*
X178182628Y-67159142D01*
X178211200Y-67216285D01*
X178239771Y-67244857D01*
X178296914Y-67273428D01*
X178325485Y-67273428D01*
X178382628Y-67244857D01*
X178411200Y-67216285D01*
X178439771Y-67159142D01*
X178439771Y-67044857D01*
X178468342Y-66987714D01*
X178496914Y-66959142D01*
X178554057Y-66930571D01*
X178668342Y-66930571D01*
X178725485Y-66959142D01*
X178754057Y-66987714D01*
X178782628Y-67044857D01*
X178782628Y-67159142D01*
X178754057Y-67216285D01*
X178725485Y-67244857D01*
X178668342Y-67273428D01*
X178554057Y-67273428D01*
X178496914Y-67244857D01*
X178468342Y-67216285D01*
X178439771Y-67159142D01*
%TO.C,R13*%
X195851428Y-83269785D02*
X195565714Y-83069785D01*
X195851428Y-82926928D02*
X195251428Y-82926928D01*
X195251428Y-83155500D01*
X195280000Y-83212642D01*
X195308571Y-83241214D01*
X195365714Y-83269785D01*
X195451428Y-83269785D01*
X195508571Y-83241214D01*
X195537142Y-83212642D01*
X195565714Y-83155500D01*
X195565714Y-82926928D01*
X195851428Y-83841214D02*
X195851428Y-83498357D01*
X195851428Y-83669785D02*
X195251428Y-83669785D01*
X195337142Y-83612642D01*
X195394285Y-83555500D01*
X195422857Y-83498357D01*
X195251428Y-84041214D02*
X195251428Y-84412642D01*
X195480000Y-84212642D01*
X195480000Y-84298357D01*
X195508571Y-84355500D01*
X195537142Y-84384071D01*
X195594285Y-84412642D01*
X195737142Y-84412642D01*
X195794285Y-84384071D01*
X195822857Y-84355500D01*
X195851428Y-84298357D01*
X195851428Y-84126928D01*
X195822857Y-84069785D01*
X195794285Y-84041214D01*
%TO.C,C30*%
X177604253Y-76068285D02*
X177632825Y-76039714D01*
X177661396Y-75954000D01*
X177661396Y-75896857D01*
X177632825Y-75811142D01*
X177575682Y-75754000D01*
X177518539Y-75725428D01*
X177404253Y-75696857D01*
X177318539Y-75696857D01*
X177204253Y-75725428D01*
X177147110Y-75754000D01*
X177089968Y-75811142D01*
X177061396Y-75896857D01*
X177061396Y-75954000D01*
X177089968Y-76039714D01*
X177118539Y-76068285D01*
X177061396Y-76268285D02*
X177061396Y-76639714D01*
X177289968Y-76439714D01*
X177289968Y-76525428D01*
X177318539Y-76582571D01*
X177347110Y-76611142D01*
X177404253Y-76639714D01*
X177547110Y-76639714D01*
X177604253Y-76611142D01*
X177632825Y-76582571D01*
X177661396Y-76525428D01*
X177661396Y-76354000D01*
X177632825Y-76296857D01*
X177604253Y-76268285D01*
X177061396Y-77011142D02*
X177061396Y-77068285D01*
X177089968Y-77125428D01*
X177118539Y-77154000D01*
X177175682Y-77182571D01*
X177289968Y-77211142D01*
X177432825Y-77211142D01*
X177547110Y-77182571D01*
X177604253Y-77154000D01*
X177632825Y-77125428D01*
X177661396Y-77068285D01*
X177661396Y-77011142D01*
X177632825Y-76954000D01*
X177604253Y-76925428D01*
X177547110Y-76896857D01*
X177432825Y-76868285D01*
X177289968Y-76868285D01*
X177175682Y-76896857D01*
X177118539Y-76925428D01*
X177089968Y-76954000D01*
X177061396Y-77011142D01*
%TO.C,R15*%
X194581428Y-83269785D02*
X194295714Y-83069785D01*
X194581428Y-82926928D02*
X193981428Y-82926928D01*
X193981428Y-83155500D01*
X194010000Y-83212642D01*
X194038571Y-83241214D01*
X194095714Y-83269785D01*
X194181428Y-83269785D01*
X194238571Y-83241214D01*
X194267142Y-83212642D01*
X194295714Y-83155500D01*
X194295714Y-82926928D01*
X194581428Y-83841214D02*
X194581428Y-83498357D01*
X194581428Y-83669785D02*
X193981428Y-83669785D01*
X194067142Y-83612642D01*
X194124285Y-83555500D01*
X194152857Y-83498357D01*
X193981428Y-84384071D02*
X193981428Y-84098357D01*
X194267142Y-84069785D01*
X194238571Y-84098357D01*
X194210000Y-84155500D01*
X194210000Y-84298357D01*
X194238571Y-84355500D01*
X194267142Y-84384071D01*
X194324285Y-84412642D01*
X194467142Y-84412642D01*
X194524285Y-84384071D01*
X194552857Y-84355500D01*
X194581428Y-84298357D01*
X194581428Y-84155500D01*
X194552857Y-84098357D01*
X194524285Y-84069785D01*
%TO.C,R3*%
X186536000Y-67378228D02*
X186736000Y-67092514D01*
X186878857Y-67378228D02*
X186878857Y-66778228D01*
X186650285Y-66778228D01*
X186593142Y-66806800D01*
X186564571Y-66835371D01*
X186536000Y-66892514D01*
X186536000Y-66978228D01*
X186564571Y-67035371D01*
X186593142Y-67063942D01*
X186650285Y-67092514D01*
X186878857Y-67092514D01*
X186336000Y-66778228D02*
X185964571Y-66778228D01*
X186164571Y-67006800D01*
X186078857Y-67006800D01*
X186021714Y-67035371D01*
X185993142Y-67063942D01*
X185964571Y-67121085D01*
X185964571Y-67263942D01*
X185993142Y-67321085D01*
X186021714Y-67349657D01*
X186078857Y-67378228D01*
X186250285Y-67378228D01*
X186307428Y-67349657D01*
X186336000Y-67321085D01*
%TO.C,C26*%
X171007513Y-76068285D02*
X171036085Y-76039714D01*
X171064656Y-75954000D01*
X171064656Y-75896857D01*
X171036085Y-75811142D01*
X170978942Y-75754000D01*
X170921799Y-75725428D01*
X170807513Y-75696857D01*
X170721799Y-75696857D01*
X170607513Y-75725428D01*
X170550370Y-75754000D01*
X170493228Y-75811142D01*
X170464656Y-75896857D01*
X170464656Y-75954000D01*
X170493228Y-76039714D01*
X170521799Y-76068285D01*
X170521799Y-76296857D02*
X170493228Y-76325428D01*
X170464656Y-76382571D01*
X170464656Y-76525428D01*
X170493228Y-76582571D01*
X170521799Y-76611142D01*
X170578942Y-76639714D01*
X170636085Y-76639714D01*
X170721799Y-76611142D01*
X171064656Y-76268285D01*
X171064656Y-76639714D01*
X170464656Y-77154000D02*
X170464656Y-77039714D01*
X170493228Y-76982571D01*
X170521799Y-76954000D01*
X170607513Y-76896857D01*
X170721799Y-76868285D01*
X170950370Y-76868285D01*
X171007513Y-76896857D01*
X171036085Y-76925428D01*
X171064656Y-76982571D01*
X171064656Y-77096857D01*
X171036085Y-77154000D01*
X171007513Y-77182571D01*
X170950370Y-77211142D01*
X170807513Y-77211142D01*
X170750370Y-77182571D01*
X170721799Y-77154000D01*
X170693228Y-77096857D01*
X170693228Y-76982571D01*
X170721799Y-76925428D01*
X170750370Y-76896857D01*
X170807513Y-76868285D01*
%TO.C,C9*%
X176337885Y-66651200D02*
X176366457Y-66622628D01*
X176395028Y-66536914D01*
X176395028Y-66479771D01*
X176366457Y-66394057D01*
X176309314Y-66336914D01*
X176252171Y-66308342D01*
X176137885Y-66279771D01*
X176052171Y-66279771D01*
X175937885Y-66308342D01*
X175880742Y-66336914D01*
X175823600Y-66394057D01*
X175795028Y-66479771D01*
X175795028Y-66536914D01*
X175823600Y-66622628D01*
X175852171Y-66651200D01*
X176395028Y-66936914D02*
X176395028Y-67051200D01*
X176366457Y-67108342D01*
X176337885Y-67136914D01*
X176252171Y-67194057D01*
X176137885Y-67222628D01*
X175909314Y-67222628D01*
X175852171Y-67194057D01*
X175823600Y-67165485D01*
X175795028Y-67108342D01*
X175795028Y-66994057D01*
X175823600Y-66936914D01*
X175852171Y-66908342D01*
X175909314Y-66879771D01*
X176052171Y-66879771D01*
X176109314Y-66908342D01*
X176137885Y-66936914D01*
X176166457Y-66994057D01*
X176166457Y-67108342D01*
X176137885Y-67165485D01*
X176109314Y-67194057D01*
X176052171Y-67222628D01*
%TO.C,C28*%
X174929997Y-76068285D02*
X174958569Y-76039714D01*
X174987140Y-75954000D01*
X174987140Y-75896857D01*
X174958569Y-75811142D01*
X174901426Y-75754000D01*
X174844283Y-75725428D01*
X174729997Y-75696857D01*
X174644283Y-75696857D01*
X174529997Y-75725428D01*
X174472854Y-75754000D01*
X174415712Y-75811142D01*
X174387140Y-75896857D01*
X174387140Y-75954000D01*
X174415712Y-76039714D01*
X174444283Y-76068285D01*
X174444283Y-76296857D02*
X174415712Y-76325428D01*
X174387140Y-76382571D01*
X174387140Y-76525428D01*
X174415712Y-76582571D01*
X174444283Y-76611142D01*
X174501426Y-76639714D01*
X174558569Y-76639714D01*
X174644283Y-76611142D01*
X174987140Y-76268285D01*
X174987140Y-76639714D01*
X174644283Y-76982571D02*
X174615712Y-76925428D01*
X174587140Y-76896857D01*
X174529997Y-76868285D01*
X174501426Y-76868285D01*
X174444283Y-76896857D01*
X174415712Y-76925428D01*
X174387140Y-76982571D01*
X174387140Y-77096857D01*
X174415712Y-77154000D01*
X174444283Y-77182571D01*
X174501426Y-77211142D01*
X174529997Y-77211142D01*
X174587140Y-77182571D01*
X174615712Y-77154000D01*
X174644283Y-77096857D01*
X174644283Y-76982571D01*
X174672854Y-76925428D01*
X174701426Y-76896857D01*
X174758569Y-76868285D01*
X174872854Y-76868285D01*
X174929997Y-76896857D01*
X174958569Y-76925428D01*
X174987140Y-76982571D01*
X174987140Y-77096857D01*
X174958569Y-77154000D01*
X174929997Y-77182571D01*
X174872854Y-77211142D01*
X174758569Y-77211142D01*
X174701426Y-77182571D01*
X174672854Y-77154000D01*
X174644283Y-77096857D01*
%TO.C,C31*%
X178852485Y-76068285D02*
X178881057Y-76039714D01*
X178909628Y-75954000D01*
X178909628Y-75896857D01*
X178881057Y-75811142D01*
X178823914Y-75754000D01*
X178766771Y-75725428D01*
X178652485Y-75696857D01*
X178566771Y-75696857D01*
X178452485Y-75725428D01*
X178395342Y-75754000D01*
X178338200Y-75811142D01*
X178309628Y-75896857D01*
X178309628Y-75954000D01*
X178338200Y-76039714D01*
X178366771Y-76068285D01*
X178309628Y-76268285D02*
X178309628Y-76639714D01*
X178538200Y-76439714D01*
X178538200Y-76525428D01*
X178566771Y-76582571D01*
X178595342Y-76611142D01*
X178652485Y-76639714D01*
X178795342Y-76639714D01*
X178852485Y-76611142D01*
X178881057Y-76582571D01*
X178909628Y-76525428D01*
X178909628Y-76354000D01*
X178881057Y-76296857D01*
X178852485Y-76268285D01*
X178909628Y-77211142D02*
X178909628Y-76868285D01*
X178909628Y-77039714D02*
X178309628Y-77039714D01*
X178395342Y-76982571D01*
X178452485Y-76925428D01*
X178481057Y-76868285D01*
%TO.C,C7*%
X180046285Y-66702000D02*
X180074857Y-66673428D01*
X180103428Y-66587714D01*
X180103428Y-66530571D01*
X180074857Y-66444857D01*
X180017714Y-66387714D01*
X179960571Y-66359142D01*
X179846285Y-66330571D01*
X179760571Y-66330571D01*
X179646285Y-66359142D01*
X179589142Y-66387714D01*
X179532000Y-66444857D01*
X179503428Y-66530571D01*
X179503428Y-66587714D01*
X179532000Y-66673428D01*
X179560571Y-66702000D01*
X179503428Y-66902000D02*
X179503428Y-67302000D01*
X180103428Y-67044857D01*
%TO.C,R12*%
X191533428Y-83269785D02*
X191247714Y-83069785D01*
X191533428Y-82926928D02*
X190933428Y-82926928D01*
X190933428Y-83155500D01*
X190962000Y-83212642D01*
X190990571Y-83241214D01*
X191047714Y-83269785D01*
X191133428Y-83269785D01*
X191190571Y-83241214D01*
X191219142Y-83212642D01*
X191247714Y-83155500D01*
X191247714Y-82926928D01*
X191533428Y-83841214D02*
X191533428Y-83498357D01*
X191533428Y-83669785D02*
X190933428Y-83669785D01*
X191019142Y-83612642D01*
X191076285Y-83555500D01*
X191104857Y-83498357D01*
X190990571Y-84069785D02*
X190962000Y-84098357D01*
X190933428Y-84155500D01*
X190933428Y-84298357D01*
X190962000Y-84355500D01*
X190990571Y-84384071D01*
X191047714Y-84412642D01*
X191104857Y-84412642D01*
X191190571Y-84384071D01*
X191533428Y-84041214D01*
X191533428Y-84412642D01*
%TO.C,R1*%
X172129428Y-61114000D02*
X171843714Y-60914000D01*
X172129428Y-60771142D02*
X171529428Y-60771142D01*
X171529428Y-60999714D01*
X171558000Y-61056857D01*
X171586571Y-61085428D01*
X171643714Y-61114000D01*
X171729428Y-61114000D01*
X171786571Y-61085428D01*
X171815142Y-61056857D01*
X171843714Y-60999714D01*
X171843714Y-60771142D01*
X172129428Y-61685428D02*
X172129428Y-61342571D01*
X172129428Y-61514000D02*
X171529428Y-61514000D01*
X171615142Y-61456857D01*
X171672285Y-61399714D01*
X171700857Y-61342571D01*
%TO.C,C24*%
X193254285Y-83269785D02*
X193282857Y-83241214D01*
X193311428Y-83155500D01*
X193311428Y-83098357D01*
X193282857Y-83012642D01*
X193225714Y-82955500D01*
X193168571Y-82926928D01*
X193054285Y-82898357D01*
X192968571Y-82898357D01*
X192854285Y-82926928D01*
X192797142Y-82955500D01*
X192740000Y-83012642D01*
X192711428Y-83098357D01*
X192711428Y-83155500D01*
X192740000Y-83241214D01*
X192768571Y-83269785D01*
X192768571Y-83498357D02*
X192740000Y-83526928D01*
X192711428Y-83584071D01*
X192711428Y-83726928D01*
X192740000Y-83784071D01*
X192768571Y-83812642D01*
X192825714Y-83841214D01*
X192882857Y-83841214D01*
X192968571Y-83812642D01*
X193311428Y-83469785D01*
X193311428Y-83841214D01*
X192911428Y-84355500D02*
X193311428Y-84355500D01*
X192682857Y-84212642D02*
X193111428Y-84069785D01*
X193111428Y-84441214D01*
%TO.C,C29*%
X176330625Y-76068285D02*
X176359197Y-76039714D01*
X176387768Y-75954000D01*
X176387768Y-75896857D01*
X176359197Y-75811142D01*
X176302054Y-75754000D01*
X176244911Y-75725428D01*
X176130625Y-75696857D01*
X176044911Y-75696857D01*
X175930625Y-75725428D01*
X175873482Y-75754000D01*
X175816340Y-75811142D01*
X175787768Y-75896857D01*
X175787768Y-75954000D01*
X175816340Y-76039714D01*
X175844911Y-76068285D01*
X175844911Y-76296857D02*
X175816340Y-76325428D01*
X175787768Y-76382571D01*
X175787768Y-76525428D01*
X175816340Y-76582571D01*
X175844911Y-76611142D01*
X175902054Y-76639714D01*
X175959197Y-76639714D01*
X176044911Y-76611142D01*
X176387768Y-76268285D01*
X176387768Y-76639714D01*
X176387768Y-76925428D02*
X176387768Y-77039714D01*
X176359197Y-77096857D01*
X176330625Y-77125428D01*
X176244911Y-77182571D01*
X176130625Y-77211142D01*
X175902054Y-77211142D01*
X175844911Y-77182571D01*
X175816340Y-77154000D01*
X175787768Y-77096857D01*
X175787768Y-76982571D01*
X175816340Y-76925428D01*
X175844911Y-76896857D01*
X175902054Y-76868285D01*
X176044911Y-76868285D01*
X176102054Y-76896857D01*
X176130625Y-76925428D01*
X176159197Y-76982571D01*
X176159197Y-77096857D01*
X176130625Y-77154000D01*
X176102054Y-77182571D01*
X176044911Y-77211142D01*
%TO.C,C25*%
X169835485Y-76068285D02*
X169864057Y-76039714D01*
X169892628Y-75954000D01*
X169892628Y-75896857D01*
X169864057Y-75811142D01*
X169806914Y-75754000D01*
X169749771Y-75725428D01*
X169635485Y-75696857D01*
X169549771Y-75696857D01*
X169435485Y-75725428D01*
X169378342Y-75754000D01*
X169321200Y-75811142D01*
X169292628Y-75896857D01*
X169292628Y-75954000D01*
X169321200Y-76039714D01*
X169349771Y-76068285D01*
X169349771Y-76296857D02*
X169321200Y-76325428D01*
X169292628Y-76382571D01*
X169292628Y-76525428D01*
X169321200Y-76582571D01*
X169349771Y-76611142D01*
X169406914Y-76639714D01*
X169464057Y-76639714D01*
X169549771Y-76611142D01*
X169892628Y-76268285D01*
X169892628Y-76639714D01*
X169292628Y-77182571D02*
X169292628Y-76896857D01*
X169578342Y-76868285D01*
X169549771Y-76896857D01*
X169521200Y-76954000D01*
X169521200Y-77096857D01*
X169549771Y-77154000D01*
X169578342Y-77182571D01*
X169635485Y-77211142D01*
X169778342Y-77211142D01*
X169835485Y-77182571D01*
X169864057Y-77154000D01*
X169892628Y-77096857D01*
X169892628Y-76954000D01*
X169864057Y-76896857D01*
X169835485Y-76868285D01*
%TO.C,L1*%
X177563428Y-66702000D02*
X177563428Y-66416285D01*
X176963428Y-66416285D01*
X177563428Y-67216285D02*
X177563428Y-66873428D01*
X177563428Y-67044857D02*
X176963428Y-67044857D01*
X177049142Y-66987714D01*
X177106285Y-66930571D01*
X177134857Y-66873428D01*
%TO.C,R14*%
X190263428Y-83269785D02*
X189977714Y-83069785D01*
X190263428Y-82926928D02*
X189663428Y-82926928D01*
X189663428Y-83155500D01*
X189692000Y-83212642D01*
X189720571Y-83241214D01*
X189777714Y-83269785D01*
X189863428Y-83269785D01*
X189920571Y-83241214D01*
X189949142Y-83212642D01*
X189977714Y-83155500D01*
X189977714Y-82926928D01*
X190263428Y-83841214D02*
X190263428Y-83498357D01*
X190263428Y-83669785D02*
X189663428Y-83669785D01*
X189749142Y-83612642D01*
X189806285Y-83555500D01*
X189834857Y-83498357D01*
X189863428Y-84355500D02*
X190263428Y-84355500D01*
X189634857Y-84212642D02*
X190063428Y-84069785D01*
X190063428Y-84441214D01*
D11*
%TO.C,C33*%
X174140400Y-68477220D02*
X174140400Y-68758380D01*
X175160400Y-68477220D02*
X175160400Y-68758380D01*
%TO.C,C23*%
X188362000Y-81418165D02*
X188362000Y-81649835D01*
X189082000Y-81418165D02*
X189082000Y-81649835D01*
%TO.C,C27*%
X172579256Y-78855835D02*
X172579256Y-78624165D01*
X171859256Y-78855835D02*
X171859256Y-78624165D01*
%TO.C,R2*%
X189448421Y-65761600D02*
X189113179Y-65761600D01*
X189448421Y-66521600D02*
X189113179Y-66521600D01*
%TO.C,C32*%
X173878284Y-78855835D02*
X173878284Y-78624165D01*
X173158284Y-78855835D02*
X173158284Y-78624165D01*
%TO.C,C8*%
X178252800Y-69135635D02*
X178252800Y-68903965D01*
X178972800Y-69135635D02*
X178972800Y-68903965D01*
%TO.C,R13*%
X195200000Y-81366379D02*
X195200000Y-81701621D01*
X195960000Y-81366379D02*
X195960000Y-81701621D01*
%TO.C,C30*%
X177775368Y-78855835D02*
X177775368Y-78624165D01*
X177055368Y-78855835D02*
X177055368Y-78624165D01*
%TO.C,R15*%
X193930000Y-81366379D02*
X193930000Y-81701621D01*
X194690000Y-81366379D02*
X194690000Y-81701621D01*
%TO.C,R3*%
X185658779Y-66521600D02*
X185994021Y-66521600D01*
X185658779Y-65761600D02*
X185994021Y-65761600D01*
%TO.C,C26*%
X170560228Y-78855835D02*
X170560228Y-78624165D01*
X171280228Y-78855835D02*
X171280228Y-78624165D01*
%TO.C,C9*%
X176534400Y-69135635D02*
X176534400Y-68903965D01*
X175814400Y-69135635D02*
X175814400Y-68903965D01*
%TO.C,C28*%
X174457312Y-78855835D02*
X174457312Y-78624165D01*
X175177312Y-78855835D02*
X175177312Y-78624165D01*
%TO.C,C31*%
X179074400Y-78855835D02*
X179074400Y-78624165D01*
X178354400Y-78855835D02*
X178354400Y-78624165D01*
%TO.C,C7*%
X179472000Y-68912665D02*
X179472000Y-69144335D01*
X180192000Y-68912665D02*
X180192000Y-69144335D01*
%TO.C,R12*%
X190882000Y-81366379D02*
X190882000Y-81701621D01*
X191642000Y-81366379D02*
X191642000Y-81701621D01*
%TO.C,R1*%
X170308000Y-61381621D02*
X170308000Y-61046379D01*
X171068000Y-61381621D02*
X171068000Y-61046379D01*
%TO.C,C24*%
X193400000Y-81418165D02*
X193400000Y-81649835D01*
X192680000Y-81418165D02*
X192680000Y-81649835D01*
%TO.C,C29*%
X175756340Y-78855835D02*
X175756340Y-78624165D01*
X176476340Y-78855835D02*
X176476340Y-78624165D01*
%TO.C,JP1*%
X171266000Y-58858000D02*
X170966000Y-59158000D01*
X171466000Y-56258000D02*
X171466000Y-59058000D01*
X170966000Y-59158000D02*
X170966000Y-58558000D01*
X172166000Y-59708000D02*
X172766000Y-59708000D01*
X172766000Y-55608000D02*
X172166000Y-55608000D01*
X173466000Y-59058000D02*
X173466000Y-56258000D01*
X171266000Y-58858000D02*
X170966000Y-58558000D01*
X172766000Y-59708000D02*
G75*
G03*
X173466000Y-59008000I1J699999D01*
G01*
X172166000Y-55608000D02*
G75*
G03*
X171466000Y-56308000I0J-700000D01*
G01*
X171466000Y-59008000D02*
G75*
G03*
X172166000Y-59708000I699999J-1D01*
G01*
X173466000Y-56308000D02*
G75*
G03*
X172766000Y-55608000I-700000J0D01*
G01*
%TO.C,C25*%
X169981200Y-78855835D02*
X169981200Y-78624165D01*
X169261200Y-78855835D02*
X169261200Y-78624165D01*
%TO.C,R14*%
X189612000Y-81366379D02*
X189612000Y-81701621D01*
X190372000Y-81366379D02*
X190372000Y-81701621D01*
%TD*%
M02*
