%TF.GenerationSoftware,KiCad,Pcbnew,(6.0.8)*%
%TF.CreationDate,2024-11-24T14:11:02+01:00*%
%TF.ProjectId,WHEEL-07,57484545-4c2d-4303-972e-6b696361645f,rev?*%
%TF.SameCoordinates,Original*%
%TF.FileFunction,Copper,L3,Inr*%
%TF.FilePolarity,Positive*%
%FSLAX46Y46*%
G04 Gerber Fmt 4.6, Leading zero omitted, Abs format (unit mm)*
G04 Created by KiCad (PCBNEW (6.0.8)) date 2024-11-24 14:11:02*
%MOMM*%
%LPD*%
G01*
G04 APERTURE LIST*
G04 Aperture macros list*
%AMRoundRect*
0 Rectangle with rounded corners*
0 $1 Rounding radius*
0 $2 $3 $4 $5 $6 $7 $8 $9 X,Y pos of 4 corners*
0 Add a 4 corners polygon primitive as box body*
4,1,4,$2,$3,$4,$5,$6,$7,$8,$9,$2,$3,0*
0 Add four circle primitives for the rounded corners*
1,1,$1+$1,$2,$3*
1,1,$1+$1,$4,$5*
1,1,$1+$1,$6,$7*
1,1,$1+$1,$8,$9*
0 Add four rect primitives between the rounded corners*
20,1,$1+$1,$2,$3,$4,$5,0*
20,1,$1+$1,$4,$5,$6,$7,0*
20,1,$1+$1,$6,$7,$8,$9,0*
20,1,$1+$1,$8,$9,$2,$3,0*%
G04 Aperture macros list end*
%TA.AperFunction,ComponentPad*%
%ADD10RoundRect,0.250000X0.350000X0.650000X-0.350000X0.650000X-0.350000X-0.650000X0.350000X-0.650000X0*%
%TD*%
%TA.AperFunction,ComponentPad*%
%ADD11O,1.200000X1.800000*%
%TD*%
%TA.AperFunction,ComponentPad*%
%ADD12RoundRect,0.200000X-0.450000X0.200000X-0.450000X-0.200000X0.450000X-0.200000X0.450000X0.200000X0*%
%TD*%
%TA.AperFunction,ComponentPad*%
%ADD13O,1.300000X0.800000*%
%TD*%
%TA.AperFunction,ComponentPad*%
%ADD14RoundRect,0.200000X0.200000X0.450000X-0.200000X0.450000X-0.200000X-0.450000X0.200000X-0.450000X0*%
%TD*%
%TA.AperFunction,ComponentPad*%
%ADD15O,0.800000X1.300000*%
%TD*%
%TA.AperFunction,ComponentPad*%
%ADD16R,1.700000X1.700000*%
%TD*%
%TA.AperFunction,ComponentPad*%
%ADD17O,1.700000X1.700000*%
%TD*%
%TA.AperFunction,ComponentPad*%
%ADD18R,1.000000X1.000000*%
%TD*%
%TA.AperFunction,ComponentPad*%
%ADD19O,1.000000X1.000000*%
%TD*%
%TA.AperFunction,ComponentPad*%
%ADD20RoundRect,0.250000X0.650000X-0.350000X0.650000X0.350000X-0.650000X0.350000X-0.650000X-0.350000X0*%
%TD*%
%TA.AperFunction,ComponentPad*%
%ADD21O,1.800000X1.200000*%
%TD*%
%TA.AperFunction,ViaPad*%
%ADD22C,0.800000*%
%TD*%
%TA.AperFunction,ViaPad*%
%ADD23C,0.600000*%
%TD*%
G04 APERTURE END LIST*
D10*
%TO.N,PADDLE1_IN*%
%TO.C,J5*%
X195405000Y-78930000D03*
D11*
%TO.N,GND*%
X193405000Y-78930000D03*
%TO.N,PADDLE2_IN*%
X191405000Y-78930000D03*
%TO.N,GND*%
X189405000Y-78930000D03*
%TD*%
D12*
%TO.N,GND*%
%TO.C,J7*%
X197358000Y-73152000D03*
D13*
%TO.N,GPIO_3*%
X197358000Y-74402000D03*
%TD*%
D14*
%TO.N,TIM3_CH1*%
%TO.C,J17*%
X189815000Y-52890000D03*
D15*
%TO.N,TIM3_CH2*%
X188565000Y-52890000D03*
%TO.N,TIM3_CH3*%
X187315000Y-52890000D03*
%TO.N,TIM1_CH1*%
X186065000Y-52890000D03*
%TO.N,TIM1_CH2*%
X184815000Y-52890000D03*
%TO.N,TIM1_CH3*%
X183565000Y-52890000D03*
%TD*%
D16*
%TO.N,GND*%
%TO.C,J16*%
X196088000Y-53898800D03*
D17*
%TO.N,+3.3V*%
X196088000Y-56438800D03*
%TD*%
D12*
%TO.N,GND*%
%TO.C,J14*%
X197358000Y-62240000D03*
D13*
%TO.N,GPIO_7*%
X197358000Y-63490000D03*
%TD*%
D12*
%TO.N,GND*%
%TO.C,J10*%
X192786000Y-67701000D03*
D13*
%TO.N,GPIO_6*%
X192786000Y-68951000D03*
%TD*%
D14*
%TO.N,Net-(J12-Pad1)*%
%TO.C,J12*%
X181357600Y-82346800D03*
D15*
%TO.N,GND*%
X180107600Y-82346800D03*
%TO.N,Net-(C31-Pad1)*%
X178857600Y-82346800D03*
%TO.N,Net-(C30-Pad1)*%
X177607600Y-82346800D03*
%TO.N,Net-(C29-Pad1)*%
X176357600Y-82346800D03*
%TO.N,Net-(C28-Pad1)*%
X175107600Y-82346800D03*
%TO.N,Net-(C32-Pad1)*%
X173857600Y-82346800D03*
%TO.N,Net-(C27-Pad1)*%
X172607600Y-82346800D03*
%TO.N,Net-(C26-Pad1)*%
X171357600Y-82346800D03*
%TO.N,Net-(C25-Pad1)*%
X170107600Y-82346800D03*
%TD*%
D18*
%TO.N,+3.3V*%
%TO.C,J11*%
X175524000Y-54605000D03*
D19*
%TO.N,GND*%
X176794000Y-54605000D03*
%TO.N,unconnected-(J11-Pad3)*%
X175524000Y-55875000D03*
%TO.N,NRST*%
X176794000Y-55875000D03*
%TO.N,SWCLK*%
X175524000Y-57145000D03*
%TO.N,SWDIO*%
X176794000Y-57145000D03*
%TD*%
D12*
%TO.N,GND*%
%TO.C,J8*%
X192786000Y-73152000D03*
D13*
%TO.N,GPIO_4*%
X192786000Y-74402000D03*
%TD*%
D12*
%TO.N,GND*%
%TO.C,J9*%
X197358000Y-67696000D03*
D13*
%TO.N,GPIO_5*%
X197358000Y-68946000D03*
%TD*%
D12*
%TO.N,GND*%
%TO.C,J15*%
X192786000Y-62230000D03*
D13*
%TO.N,GPIO_8*%
X192786000Y-63480000D03*
%TD*%
D18*
%TO.N,I2C2_SCL*%
%TO.C,J2*%
X188722000Y-64389000D03*
D19*
%TO.N,I2C2_SDA*%
X188722000Y-63119000D03*
%TO.N,SPI_CS*%
X188722000Y-61849000D03*
%TO.N,SPI2_SCK*%
X188722000Y-60579000D03*
%TO.N,SPI2_MISO*%
X188722000Y-59309000D03*
%TO.N,SPI2_MOSI*%
X188722000Y-58039000D03*
%TD*%
D20*
%TO.N,GND*%
%TO.C,J1*%
X154953200Y-71675000D03*
D21*
%TO.N,12V_CONN*%
X154953200Y-69675000D03*
%TO.N,/CAN_BUS/CAN1_H*%
X154953200Y-67675000D03*
%TO.N,/CAN_BUS/CAN1_L*%
X154953200Y-65675000D03*
%TO.N,/CAN_BUS/CAN2_H*%
X154953200Y-63675000D03*
%TO.N,/CAN_BUS/CAN2_L*%
X154953200Y-61675000D03*
%TD*%
D22*
%TO.N,+3.3V*%
X181400000Y-76800000D03*
X180500000Y-76800000D03*
%TO.N,GND*%
X155690000Y-80990000D03*
D23*
X169037000Y-66294000D03*
X153963332Y-52197000D03*
X169139678Y-77038072D03*
X166624000Y-55118000D03*
D22*
X188722000Y-83058000D03*
D23*
X163372800Y-78943200D03*
X163415000Y-78261800D03*
X154584400Y-52878400D03*
X157400000Y-58526800D03*
X161188400Y-65481200D03*
X162709532Y-78943200D03*
X152594600Y-52878400D03*
D22*
X155760000Y-76370000D03*
D23*
X172466000Y-60198000D03*
X165201600Y-71475600D03*
X153921132Y-52878400D03*
X164600000Y-56200000D03*
D22*
X155750000Y-73850000D03*
D23*
X153257866Y-52878400D03*
X179590539Y-77907639D03*
X163830000Y-69850000D03*
X161383000Y-78943200D03*
X181386517Y-57576683D03*
X179882800Y-70256400D03*
X170789600Y-71272400D03*
X162751732Y-78261800D03*
X166624000Y-60960000D03*
D22*
X193040000Y-83058000D03*
X160320000Y-72640000D03*
X157300000Y-72170000D03*
D23*
X161100000Y-73550000D03*
X161425200Y-78261800D03*
X164600000Y-62200000D03*
X180497517Y-56687683D03*
X188259800Y-67884800D03*
X169016717Y-63647283D03*
X167995600Y-73863200D03*
X166188400Y-84591600D03*
X187502800Y-67259200D03*
X153300066Y-52197000D03*
X152636800Y-52197000D03*
X176225200Y-67665600D03*
D22*
X188468000Y-74742000D03*
D23*
X162088466Y-78261800D03*
X175226422Y-71288273D03*
X180594000Y-75590400D03*
X154626600Y-52197000D03*
X160360000Y-74260000D03*
X174650400Y-70307200D03*
X158340000Y-74680000D03*
X162046266Y-78943200D03*
%TO.N,+3.3V*%
X165252400Y-77063600D03*
X168097200Y-77876400D03*
X168097200Y-78587600D03*
D22*
X195580000Y-83058000D03*
D23*
X181559200Y-74625200D03*
X167115066Y-77063600D03*
X177393600Y-68122800D03*
D22*
X183388000Y-74742000D03*
D23*
X179882800Y-67665600D03*
D22*
X191262000Y-83058000D03*
D23*
X189890400Y-66852800D03*
X174650400Y-66954400D03*
X178719517Y-57449683D03*
X168046400Y-77063600D03*
X166183733Y-77063600D03*
X185724800Y-68021200D03*
X165252400Y-78638400D03*
X168254717Y-64460083D03*
X165269800Y-77875100D03*
X184454800Y-66294000D03*
%TO.N,+3.3VA*%
X176276000Y-71170800D03*
D22*
%TO.N,+12V*%
X150590000Y-73770000D03*
X150650000Y-76380000D03*
X150710000Y-83160000D03*
X150730000Y-80880000D03*
D23*
%TO.N,+5V*%
X160000000Y-52675000D03*
X160000000Y-55450000D03*
X166624000Y-53594000D03*
X160840000Y-54360000D03*
X160840000Y-52680000D03*
X166624000Y-59436000D03*
X160840000Y-53490000D03*
X159175000Y-55450000D03*
X159175000Y-52650000D03*
D22*
%TO.N,Net-(C23-Pad1)*%
X188468000Y-76266000D03*
%TO.N,Net-(C24-Pad1)*%
X190754000Y-76200000D03*
D23*
%TO.N,I2C2_SCL*%
X189028333Y-67664435D03*
%TO.N,I2C2_SDA*%
X185318400Y-67310000D03*
%TO.N,GPIO_3*%
X179616817Y-71123922D03*
%TO.N,NRST*%
X173482000Y-69469000D03*
%TO.N,Net-(C31-Pad1)*%
X178689000Y-80264000D03*
%TO.N,Net-(C30-Pad1)*%
X177419000Y-80264000D03*
%TO.N,Net-(C29-Pad1)*%
X176149000Y-80264000D03*
%TO.N,Net-(C28-Pad1)*%
X174752000Y-80264000D03*
%TO.N,Net-(C32-Pad1)*%
X173482000Y-80264000D03*
%TO.N,Net-(C27-Pad1)*%
X172212000Y-80264000D03*
%TO.N,Net-(C26-Pad1)*%
X170942000Y-80264000D03*
%TO.N,Net-(C25-Pad1)*%
X169672000Y-80264000D03*
%TO.N,BOOT0*%
X171058500Y-62992000D03*
%TO.N,LED_STATUS*%
X171348400Y-67005200D03*
X167640000Y-65735200D03*
%TD*%
%TA.AperFunction,Conductor*%
%TO.N,+5V*%
G36*
X173170121Y-50677343D02*
G01*
X173216614Y-50730999D01*
X173228000Y-50783341D01*
X173228000Y-59367622D01*
X173207998Y-59435743D01*
X173170668Y-59473266D01*
X172784147Y-59724504D01*
X172716131Y-59744858D01*
X172678764Y-59736748D01*
X172678095Y-59738985D01*
X172540739Y-59697907D01*
X172531763Y-59697852D01*
X172531762Y-59697852D01*
X172471555Y-59697484D01*
X172397376Y-59697031D01*
X172259529Y-59736428D01*
X172138280Y-59812930D01*
X172043377Y-59920388D01*
X171982447Y-60050163D01*
X171960391Y-60191823D01*
X171960811Y-60195035D01*
X171940828Y-60260144D01*
X171904337Y-60296381D01*
X168149884Y-62736775D01*
X168146050Y-62739170D01*
X166907926Y-63482045D01*
X166843101Y-63500000D01*
X156129493Y-63500000D01*
X156061372Y-63479998D01*
X156014879Y-63426342D01*
X156010219Y-63414615D01*
X155982097Y-63332007D01*
X155941641Y-63266246D01*
X155891685Y-63185045D01*
X155887994Y-63179045D01*
X155883068Y-63174014D01*
X155883065Y-63174011D01*
X155822224Y-63111883D01*
X155762341Y-63050732D01*
X155745613Y-63039951D01*
X155617309Y-62957265D01*
X155611383Y-62953446D01*
X155604763Y-62951037D01*
X155604760Y-62951035D01*
X155449239Y-62894430D01*
X155449236Y-62894429D01*
X155442622Y-62892022D01*
X155385892Y-62884856D01*
X155307845Y-62874996D01*
X155307842Y-62874996D01*
X155303917Y-62874500D01*
X154608045Y-62874500D01*
X154474728Y-62889454D01*
X154468075Y-62891771D01*
X154468074Y-62891771D01*
X154399749Y-62915564D01*
X154305127Y-62948515D01*
X154299153Y-62952248D01*
X154299151Y-62952249D01*
X154215766Y-63004354D01*
X154152825Y-63043684D01*
X154088835Y-63107229D01*
X154030390Y-63165267D01*
X154030387Y-63165271D01*
X154025393Y-63170230D01*
X153929163Y-63321864D01*
X153926797Y-63328509D01*
X153895548Y-63416266D01*
X153853854Y-63473731D01*
X153787712Y-63499531D01*
X153776849Y-63500000D01*
X148640500Y-63500000D01*
X148572379Y-63479998D01*
X148525886Y-63426342D01*
X148514500Y-63374000D01*
X148514500Y-61669376D01*
X153847655Y-61669376D01*
X153848391Y-61676379D01*
X153848391Y-61676380D01*
X153864092Y-61825763D01*
X153866427Y-61847983D01*
X153924303Y-62017993D01*
X153927993Y-62023991D01*
X153927994Y-62023993D01*
X153948966Y-62058082D01*
X154018406Y-62170955D01*
X154023332Y-62175986D01*
X154023335Y-62175989D01*
X154058947Y-62212354D01*
X154144059Y-62299268D01*
X154149984Y-62303087D01*
X154149986Y-62303088D01*
X154187205Y-62327074D01*
X154295017Y-62396554D01*
X154301637Y-62398963D01*
X154301640Y-62398965D01*
X154457161Y-62455570D01*
X154457164Y-62455571D01*
X154463778Y-62457978D01*
X154490321Y-62461331D01*
X154598555Y-62475004D01*
X154598558Y-62475004D01*
X154602483Y-62475500D01*
X155298355Y-62475500D01*
X155431672Y-62460546D01*
X155439047Y-62457978D01*
X155506651Y-62434436D01*
X155601273Y-62401485D01*
X155609165Y-62396554D01*
X155747601Y-62310049D01*
X155753575Y-62306316D01*
X155817565Y-62242771D01*
X155866856Y-62193823D01*
X164094391Y-62193823D01*
X164095555Y-62202725D01*
X164095555Y-62202728D01*
X164096814Y-62212354D01*
X164112980Y-62335979D01*
X164170720Y-62467203D01*
X164176497Y-62474076D01*
X164176498Y-62474077D01*
X164177277Y-62475004D01*
X164262970Y-62576948D01*
X164382313Y-62656390D01*
X164519157Y-62699142D01*
X164528129Y-62699306D01*
X164528132Y-62699307D01*
X164593463Y-62700504D01*
X164662499Y-62701770D01*
X164671533Y-62699307D01*
X164792158Y-62666421D01*
X164792160Y-62666420D01*
X164800817Y-62664060D01*
X164922991Y-62589045D01*
X165019200Y-62482754D01*
X165060384Y-62397751D01*
X165077795Y-62361814D01*
X165077795Y-62361813D01*
X165081710Y-62353733D01*
X165105496Y-62212354D01*
X165105647Y-62200000D01*
X165085323Y-62058082D01*
X165071708Y-62028136D01*
X165029700Y-61935746D01*
X165025984Y-61927572D01*
X165007598Y-61906234D01*
X164938260Y-61825763D01*
X164938257Y-61825760D01*
X164932400Y-61818963D01*
X164812095Y-61740985D01*
X164674739Y-61699907D01*
X164665763Y-61699852D01*
X164665762Y-61699852D01*
X164605555Y-61699484D01*
X164531376Y-61699031D01*
X164393529Y-61738428D01*
X164272280Y-61814930D01*
X164266338Y-61821658D01*
X164266337Y-61821659D01*
X164237197Y-61854654D01*
X164177377Y-61922388D01*
X164116447Y-62052163D01*
X164115066Y-62061035D01*
X164097168Y-62175989D01*
X164094391Y-62193823D01*
X155866856Y-62193823D01*
X155876010Y-62184733D01*
X155876013Y-62184729D01*
X155881007Y-62179770D01*
X155977237Y-62028136D01*
X156011999Y-61930514D01*
X156035119Y-61865586D01*
X156035120Y-61865581D01*
X156037481Y-61858951D01*
X156038314Y-61851965D01*
X156038315Y-61851961D01*
X156056452Y-61699852D01*
X156058745Y-61680624D01*
X156039973Y-61502017D01*
X155989496Y-61353741D01*
X155984368Y-61338677D01*
X155984367Y-61338674D01*
X155982097Y-61332007D01*
X155887994Y-61179045D01*
X155883068Y-61174014D01*
X155883065Y-61174011D01*
X155806650Y-61095979D01*
X155762341Y-61050732D01*
X155745613Y-61039951D01*
X155617309Y-60957265D01*
X155611968Y-60953823D01*
X166118391Y-60953823D01*
X166119555Y-60962725D01*
X166119555Y-60962728D01*
X166120814Y-60972354D01*
X166136980Y-61095979D01*
X166194720Y-61227203D01*
X166200497Y-61234076D01*
X166200498Y-61234077D01*
X166277773Y-61326007D01*
X166286970Y-61336948D01*
X166406313Y-61416390D01*
X166543157Y-61459142D01*
X166552129Y-61459306D01*
X166552132Y-61459307D01*
X166617463Y-61460504D01*
X166686499Y-61461770D01*
X166695533Y-61459307D01*
X166816158Y-61426421D01*
X166816160Y-61426420D01*
X166824817Y-61424060D01*
X166946991Y-61349045D01*
X167043200Y-61242754D01*
X167078089Y-61170743D01*
X167101795Y-61121814D01*
X167101795Y-61121813D01*
X167105710Y-61113733D01*
X167129496Y-60972354D01*
X167129647Y-60960000D01*
X167109323Y-60818082D01*
X167049984Y-60687572D01*
X167028001Y-60662060D01*
X166962260Y-60585763D01*
X166962257Y-60585760D01*
X166956400Y-60578963D01*
X166836095Y-60500985D01*
X166698739Y-60459907D01*
X166689763Y-60459852D01*
X166689762Y-60459852D01*
X166629555Y-60459484D01*
X166555376Y-60459031D01*
X166417529Y-60498428D01*
X166296280Y-60574930D01*
X166201377Y-60682388D01*
X166140447Y-60812163D01*
X166139066Y-60821035D01*
X166128151Y-60891140D01*
X166118391Y-60953823D01*
X155611968Y-60953823D01*
X155611383Y-60953446D01*
X155604763Y-60951037D01*
X155604760Y-60951035D01*
X155449239Y-60894430D01*
X155449236Y-60894429D01*
X155442622Y-60892022D01*
X155385892Y-60884856D01*
X155307845Y-60874996D01*
X155307842Y-60874996D01*
X155303917Y-60874500D01*
X154608045Y-60874500D01*
X154474728Y-60889454D01*
X154468075Y-60891771D01*
X154468074Y-60891771D01*
X154399749Y-60915564D01*
X154305127Y-60948515D01*
X154299153Y-60952248D01*
X154299151Y-60952249D01*
X154259303Y-60977149D01*
X154152825Y-61043684D01*
X154109131Y-61087074D01*
X154030390Y-61165267D01*
X154030387Y-61165271D01*
X154025393Y-61170230D01*
X153929163Y-61321864D01*
X153926798Y-61328506D01*
X153871281Y-61484414D01*
X153871280Y-61484419D01*
X153868919Y-61491049D01*
X153868086Y-61498035D01*
X153868085Y-61498039D01*
X153852848Y-61625823D01*
X153847655Y-61669376D01*
X148514500Y-61669376D01*
X148514500Y-58520623D01*
X156894391Y-58520623D01*
X156895555Y-58529525D01*
X156895555Y-58529528D01*
X156896814Y-58539154D01*
X156912980Y-58662779D01*
X156970720Y-58794003D01*
X156976497Y-58800876D01*
X156976498Y-58800877D01*
X156983792Y-58809554D01*
X157062970Y-58903748D01*
X157182313Y-58983190D01*
X157319157Y-59025942D01*
X157328129Y-59026106D01*
X157328132Y-59026107D01*
X157393463Y-59027304D01*
X157462499Y-59028570D01*
X157471533Y-59026107D01*
X157592158Y-58993221D01*
X157592160Y-58993220D01*
X157600817Y-58990860D01*
X157722991Y-58915845D01*
X157819200Y-58809554D01*
X157881710Y-58680533D01*
X157905496Y-58539154D01*
X157905647Y-58526800D01*
X157885323Y-58384882D01*
X157825984Y-58254372D01*
X157807598Y-58233034D01*
X157738260Y-58152563D01*
X157738257Y-58152560D01*
X157732400Y-58145763D01*
X157612095Y-58067785D01*
X157474739Y-58026707D01*
X157465763Y-58026652D01*
X157465762Y-58026652D01*
X157405555Y-58026284D01*
X157331376Y-58025831D01*
X157193529Y-58065228D01*
X157072280Y-58141730D01*
X156977377Y-58249188D01*
X156916447Y-58378963D01*
X156894391Y-58520623D01*
X148514500Y-58520623D01*
X148514500Y-56193823D01*
X164094391Y-56193823D01*
X164095555Y-56202725D01*
X164095555Y-56202728D01*
X164096814Y-56212354D01*
X164112980Y-56335979D01*
X164170720Y-56467203D01*
X164176497Y-56474076D01*
X164176498Y-56474077D01*
X164183792Y-56482754D01*
X164262970Y-56576948D01*
X164382313Y-56656390D01*
X164519157Y-56699142D01*
X164528129Y-56699306D01*
X164528132Y-56699307D01*
X164593463Y-56700504D01*
X164662499Y-56701770D01*
X164671533Y-56699307D01*
X164792158Y-56666421D01*
X164792160Y-56666420D01*
X164800817Y-56664060D01*
X164922991Y-56589045D01*
X165019200Y-56482754D01*
X165081710Y-56353733D01*
X165105496Y-56212354D01*
X165105647Y-56200000D01*
X165085323Y-56058082D01*
X165025984Y-55927572D01*
X165007598Y-55906234D01*
X164938260Y-55825763D01*
X164938257Y-55825760D01*
X164932400Y-55818963D01*
X164812095Y-55740985D01*
X164674739Y-55699907D01*
X164665763Y-55699852D01*
X164665762Y-55699852D01*
X164605555Y-55699484D01*
X164531376Y-55699031D01*
X164393529Y-55738428D01*
X164272280Y-55814930D01*
X164177377Y-55922388D01*
X164116447Y-56052163D01*
X164094391Y-56193823D01*
X148514500Y-56193823D01*
X148514500Y-55111823D01*
X166118391Y-55111823D01*
X166119555Y-55120725D01*
X166119555Y-55120728D01*
X166120814Y-55130354D01*
X166136980Y-55253979D01*
X166194720Y-55385203D01*
X166200497Y-55392076D01*
X166200498Y-55392077D01*
X166207792Y-55400754D01*
X166286970Y-55494948D01*
X166406313Y-55574390D01*
X166543157Y-55617142D01*
X166552129Y-55617306D01*
X166552132Y-55617307D01*
X166617463Y-55618504D01*
X166686499Y-55619770D01*
X166695533Y-55617307D01*
X166816158Y-55584421D01*
X166816160Y-55584420D01*
X166824817Y-55582060D01*
X166946991Y-55507045D01*
X167043200Y-55400754D01*
X167105710Y-55271733D01*
X167129496Y-55130354D01*
X167129647Y-55118000D01*
X167109323Y-54976082D01*
X167049984Y-54845572D01*
X167031598Y-54824234D01*
X166962260Y-54743763D01*
X166962257Y-54743760D01*
X166956400Y-54736963D01*
X166836095Y-54658985D01*
X166698739Y-54617907D01*
X166689763Y-54617852D01*
X166689762Y-54617852D01*
X166629555Y-54617484D01*
X166555376Y-54617031D01*
X166417529Y-54656428D01*
X166296280Y-54732930D01*
X166201377Y-54840388D01*
X166140447Y-54970163D01*
X166118391Y-55111823D01*
X148514500Y-55111823D01*
X148514500Y-52872223D01*
X152088991Y-52872223D01*
X152090155Y-52881125D01*
X152090155Y-52881128D01*
X152091414Y-52890754D01*
X152107580Y-53014379D01*
X152165320Y-53145603D01*
X152171097Y-53152476D01*
X152171098Y-53152477D01*
X152178392Y-53161154D01*
X152257570Y-53255348D01*
X152376913Y-53334790D01*
X152513757Y-53377542D01*
X152522729Y-53377706D01*
X152522732Y-53377707D01*
X152588063Y-53378904D01*
X152657099Y-53380170D01*
X152666133Y-53377707D01*
X152786758Y-53344821D01*
X152786760Y-53344820D01*
X152795417Y-53342460D01*
X152803064Y-53337765D01*
X152803068Y-53337763D01*
X152860063Y-53302768D01*
X152928580Y-53284170D01*
X152995810Y-53305256D01*
X153032706Y-53329816D01*
X153032709Y-53329817D01*
X153040179Y-53334790D01*
X153048746Y-53337466D01*
X153048747Y-53337467D01*
X153072287Y-53344821D01*
X153177023Y-53377542D01*
X153185995Y-53377706D01*
X153185998Y-53377707D01*
X153251329Y-53378904D01*
X153320365Y-53380170D01*
X153329399Y-53377707D01*
X153450024Y-53344821D01*
X153450026Y-53344820D01*
X153458683Y-53342460D01*
X153466330Y-53337765D01*
X153466334Y-53337763D01*
X153523329Y-53302768D01*
X153591846Y-53284170D01*
X153659076Y-53305256D01*
X153695972Y-53329816D01*
X153695975Y-53329817D01*
X153703445Y-53334790D01*
X153712012Y-53337466D01*
X153712013Y-53337467D01*
X153735553Y-53344821D01*
X153840289Y-53377542D01*
X153849261Y-53377706D01*
X153849264Y-53377707D01*
X153914595Y-53378904D01*
X153983631Y-53380170D01*
X153992665Y-53377707D01*
X154113290Y-53344821D01*
X154113292Y-53344820D01*
X154121949Y-53342460D01*
X154186596Y-53302767D01*
X154255112Y-53284169D01*
X154322344Y-53305255D01*
X154366713Y-53334790D01*
X154503557Y-53377542D01*
X154512529Y-53377706D01*
X154512532Y-53377707D01*
X154577863Y-53378904D01*
X154646899Y-53380170D01*
X154655933Y-53377707D01*
X154776558Y-53344821D01*
X154776560Y-53344820D01*
X154785217Y-53342460D01*
X154907391Y-53267445D01*
X155003600Y-53161154D01*
X155066110Y-53032133D01*
X155089896Y-52890754D01*
X155090047Y-52878400D01*
X155069723Y-52736482D01*
X155047357Y-52687289D01*
X155018283Y-52623345D01*
X155008297Y-52553054D01*
X155035831Y-52494578D01*
X155034756Y-52493853D01*
X155039447Y-52486898D01*
X155039569Y-52486639D01*
X155039776Y-52486411D01*
X155039781Y-52486404D01*
X155045800Y-52479754D01*
X155108310Y-52350733D01*
X155132096Y-52209354D01*
X155132247Y-52197000D01*
X155113767Y-52067956D01*
X155113196Y-52063968D01*
X155113195Y-52063965D01*
X155111923Y-52055082D01*
X155052584Y-51924572D01*
X154995040Y-51857789D01*
X154964860Y-51822763D01*
X154964857Y-51822760D01*
X154959000Y-51815963D01*
X154838695Y-51737985D01*
X154701339Y-51696907D01*
X154692363Y-51696852D01*
X154692362Y-51696852D01*
X154632155Y-51696484D01*
X154557976Y-51696031D01*
X154420129Y-51735428D01*
X154371775Y-51765937D01*
X154362281Y-51771927D01*
X154293996Y-51791361D01*
X154226515Y-51771098D01*
X154182965Y-51742871D01*
X154175427Y-51737985D01*
X154038071Y-51696907D01*
X154029095Y-51696852D01*
X154029094Y-51696852D01*
X153968887Y-51696484D01*
X153894708Y-51696031D01*
X153756861Y-51735428D01*
X153708507Y-51765937D01*
X153699013Y-51771927D01*
X153630728Y-51791361D01*
X153563248Y-51771098D01*
X153512161Y-51737985D01*
X153374805Y-51696907D01*
X153365829Y-51696852D01*
X153365828Y-51696852D01*
X153305621Y-51696484D01*
X153231442Y-51696031D01*
X153093595Y-51735428D01*
X153045241Y-51765937D01*
X153035747Y-51771927D01*
X152967462Y-51791361D01*
X152899982Y-51771098D01*
X152848895Y-51737985D01*
X152711539Y-51696907D01*
X152702563Y-51696852D01*
X152702562Y-51696852D01*
X152642355Y-51696484D01*
X152568176Y-51696031D01*
X152430329Y-51735428D01*
X152309080Y-51811930D01*
X152214177Y-51919388D01*
X152153247Y-52049163D01*
X152131191Y-52190823D01*
X152132355Y-52199725D01*
X152132355Y-52199728D01*
X152133614Y-52209354D01*
X152149780Y-52332979D01*
X152183404Y-52409394D01*
X152203361Y-52454750D01*
X152212489Y-52525157D01*
X152182471Y-52588905D01*
X152171977Y-52600788D01*
X152111047Y-52730563D01*
X152088991Y-52872223D01*
X148514500Y-52872223D01*
X148514500Y-52805300D01*
X148534502Y-52737179D01*
X148588158Y-52690686D01*
X148632258Y-52679570D01*
X148664249Y-52677474D01*
X148688826Y-52675863D01*
X148688830Y-52675862D01*
X148692941Y-52675593D01*
X148696981Y-52674789D01*
X148696984Y-52674789D01*
X148783008Y-52657678D01*
X148967109Y-52621059D01*
X148971013Y-52619734D01*
X148971016Y-52619733D01*
X149227908Y-52532531D01*
X149227909Y-52532530D01*
X149231814Y-52531205D01*
X149482526Y-52407569D01*
X149607487Y-52324074D01*
X149711527Y-52254558D01*
X149711532Y-52254554D01*
X149714955Y-52252267D01*
X149925126Y-52067956D01*
X149927842Y-52064859D01*
X149927848Y-52064853D01*
X150106716Y-51860896D01*
X150109441Y-51857789D01*
X150264748Y-51625363D01*
X150388388Y-51374653D01*
X150478248Y-51109951D01*
X150488834Y-51056740D01*
X150531985Y-50839822D01*
X150531986Y-50839818D01*
X150532788Y-50835784D01*
X150534548Y-50808947D01*
X150536767Y-50775097D01*
X150561183Y-50708431D01*
X150617766Y-50665548D01*
X150662497Y-50657341D01*
X173102000Y-50657341D01*
X173170121Y-50677343D01*
G37*
%TD.AperFunction*%
%TD*%
%TA.AperFunction,Conductor*%
%TO.N,+3.3V*%
G36*
X198826774Y-50577843D02*
G01*
X198873267Y-50631499D01*
X198884383Y-50675598D01*
X198893123Y-50808900D01*
X198894032Y-50822772D01*
X198946029Y-51084152D01*
X199031697Y-51336509D01*
X199149571Y-51575525D01*
X199297634Y-51797111D01*
X199473353Y-51997476D01*
X199673721Y-52173191D01*
X199677144Y-52175478D01*
X199677149Y-52175482D01*
X199741177Y-52218263D01*
X199895310Y-52321250D01*
X199899005Y-52323072D01*
X199899010Y-52323075D01*
X200000877Y-52373309D01*
X200134329Y-52439119D01*
X200138233Y-52440444D01*
X200138235Y-52440445D01*
X200382781Y-52523456D01*
X200382784Y-52523457D01*
X200386688Y-52524782D01*
X200561110Y-52559476D01*
X200644026Y-52575969D01*
X200644029Y-52575969D01*
X200648069Y-52576773D01*
X200652180Y-52577042D01*
X200652184Y-52577043D01*
X200795241Y-52586419D01*
X200861907Y-52610833D01*
X200904792Y-52667415D01*
X200913000Y-52712149D01*
X200913000Y-83101492D01*
X200892998Y-83169613D01*
X200839342Y-83216106D01*
X200795241Y-83227222D01*
X200778957Y-83228289D01*
X200648067Y-83236868D01*
X200644017Y-83237674D01*
X200644014Y-83237674D01*
X200390726Y-83288057D01*
X200390723Y-83288058D01*
X200386685Y-83288861D01*
X200134326Y-83374527D01*
X200130636Y-83376347D01*
X200130633Y-83376348D01*
X199992890Y-83444277D01*
X199895307Y-83492400D01*
X199891874Y-83494694D01*
X199891872Y-83494695D01*
X199677149Y-83638170D01*
X199673719Y-83640462D01*
X199473353Y-83816182D01*
X199297637Y-84016552D01*
X199248104Y-84090686D01*
X199170702Y-84206530D01*
X199149579Y-84238143D01*
X199031711Y-84477164D01*
X199030386Y-84481069D01*
X199030383Y-84481075D01*
X198949734Y-84718674D01*
X198946051Y-84729525D01*
X198894063Y-84990908D01*
X198893793Y-84995021D01*
X198893793Y-84995025D01*
X198884420Y-85138079D01*
X198860007Y-85204746D01*
X198803427Y-85247632D01*
X198758690Y-85255841D01*
X198523410Y-85255841D01*
X166509206Y-85255842D01*
X166441086Y-85235840D01*
X166394593Y-85182184D01*
X166384489Y-85111910D01*
X166413983Y-85047330D01*
X166443278Y-85022467D01*
X166503742Y-84985342D01*
X166503744Y-84985340D01*
X166511391Y-84980645D01*
X166607600Y-84874354D01*
X166670110Y-84745333D01*
X166693896Y-84603954D01*
X166694047Y-84591600D01*
X166685873Y-84534524D01*
X166674996Y-84458568D01*
X166674995Y-84458565D01*
X166673723Y-84449682D01*
X166614384Y-84319172D01*
X166595998Y-84297834D01*
X166526660Y-84217363D01*
X166526657Y-84217360D01*
X166520800Y-84210563D01*
X166400495Y-84132585D01*
X166263139Y-84091507D01*
X166254163Y-84091452D01*
X166254162Y-84091452D01*
X166193955Y-84091084D01*
X166119776Y-84090631D01*
X165981929Y-84130028D01*
X165860680Y-84206530D01*
X165854738Y-84213258D01*
X165854737Y-84213259D01*
X165832742Y-84238164D01*
X165765777Y-84313988D01*
X165704847Y-84443763D01*
X165682791Y-84585423D01*
X165683955Y-84594325D01*
X165683955Y-84594328D01*
X165685214Y-84603954D01*
X165701380Y-84727579D01*
X165759120Y-84858803D01*
X165764897Y-84865676D01*
X165764898Y-84865677D01*
X165772192Y-84874354D01*
X165851370Y-84968548D01*
X165878892Y-84986868D01*
X165936108Y-85024955D01*
X165981731Y-85079353D01*
X165990701Y-85149780D01*
X165960172Y-85213878D01*
X165899835Y-85251294D01*
X165866291Y-85255842D01*
X150569268Y-85255842D01*
X150501147Y-85235840D01*
X150454654Y-85182184D01*
X150443538Y-85138080D01*
X150434165Y-84995032D01*
X150434164Y-84995025D01*
X150433895Y-84990915D01*
X150381909Y-84729537D01*
X150296250Y-84477180D01*
X150215776Y-84313988D01*
X150180209Y-84241862D01*
X150180206Y-84241857D01*
X150178385Y-84238164D01*
X150164487Y-84217363D01*
X150032620Y-84020005D01*
X150032616Y-84020000D01*
X150030329Y-84016577D01*
X149854617Y-83816212D01*
X149851520Y-83813496D01*
X149851514Y-83813490D01*
X149657359Y-83643218D01*
X149657357Y-83643217D01*
X149654255Y-83640496D01*
X149432672Y-83492436D01*
X149193658Y-83374565D01*
X149172527Y-83367392D01*
X148945216Y-83290230D01*
X148945212Y-83290229D01*
X148941303Y-83288902D01*
X148937259Y-83288098D01*
X148937253Y-83288096D01*
X148683965Y-83237713D01*
X148683959Y-83237712D01*
X148679926Y-83236910D01*
X148675821Y-83236641D01*
X148675814Y-83236640D01*
X148532758Y-83227264D01*
X148466091Y-83202850D01*
X148433615Y-83160000D01*
X150104318Y-83160000D01*
X150124956Y-83316762D01*
X150185464Y-83462841D01*
X150281718Y-83588282D01*
X150407159Y-83684536D01*
X150553238Y-83745044D01*
X150710000Y-83765682D01*
X150718188Y-83764604D01*
X150858574Y-83746122D01*
X150866762Y-83745044D01*
X151012841Y-83684536D01*
X151138282Y-83588282D01*
X151234536Y-83462841D01*
X151295044Y-83316762D01*
X151315682Y-83160000D01*
X151295044Y-83003238D01*
X151234536Y-82857159D01*
X151138282Y-82731718D01*
X151013749Y-82636161D01*
X169507100Y-82636161D01*
X169522556Y-82753562D01*
X169583064Y-82899641D01*
X169679318Y-83025082D01*
X169804759Y-83121336D01*
X169950838Y-83181844D01*
X170107600Y-83202482D01*
X170115788Y-83201404D01*
X170256174Y-83182922D01*
X170264362Y-83181844D01*
X170410441Y-83121336D01*
X170535882Y-83025082D01*
X170552644Y-83003238D01*
X170632136Y-82899641D01*
X170634801Y-82901686D01*
X170674850Y-82863491D01*
X170744562Y-82850046D01*
X170810476Y-82876425D01*
X170831580Y-82900780D01*
X170833064Y-82899641D01*
X170912557Y-83003238D01*
X170929318Y-83025082D01*
X171054759Y-83121336D01*
X171200838Y-83181844D01*
X171357600Y-83202482D01*
X171365788Y-83201404D01*
X171506174Y-83182922D01*
X171514362Y-83181844D01*
X171660441Y-83121336D01*
X171785882Y-83025082D01*
X171802644Y-83003238D01*
X171882136Y-82899641D01*
X171884801Y-82901686D01*
X171924850Y-82863491D01*
X171994562Y-82850046D01*
X172060476Y-82876425D01*
X172081580Y-82900780D01*
X172083064Y-82899641D01*
X172162557Y-83003238D01*
X172179318Y-83025082D01*
X172304759Y-83121336D01*
X172450838Y-83181844D01*
X172607600Y-83202482D01*
X172615788Y-83201404D01*
X172756174Y-83182922D01*
X172764362Y-83181844D01*
X172910441Y-83121336D01*
X173035882Y-83025082D01*
X173052644Y-83003238D01*
X173132136Y-82899641D01*
X173134801Y-82901686D01*
X173174850Y-82863491D01*
X173244562Y-82850046D01*
X173310476Y-82876425D01*
X173331580Y-82900780D01*
X173333064Y-82899641D01*
X173412557Y-83003238D01*
X173429318Y-83025082D01*
X173554759Y-83121336D01*
X173700838Y-83181844D01*
X173857600Y-83202482D01*
X173865788Y-83201404D01*
X174006174Y-83182922D01*
X174014362Y-83181844D01*
X174160441Y-83121336D01*
X174285882Y-83025082D01*
X174302644Y-83003238D01*
X174382136Y-82899641D01*
X174384801Y-82901686D01*
X174424850Y-82863491D01*
X174494562Y-82850046D01*
X174560476Y-82876425D01*
X174581580Y-82900780D01*
X174583064Y-82899641D01*
X174662557Y-83003238D01*
X174679318Y-83025082D01*
X174804759Y-83121336D01*
X174950838Y-83181844D01*
X175107600Y-83202482D01*
X175115788Y-83201404D01*
X175256174Y-83182922D01*
X175264362Y-83181844D01*
X175410441Y-83121336D01*
X175535882Y-83025082D01*
X175552644Y-83003238D01*
X175632136Y-82899641D01*
X175634801Y-82901686D01*
X175674850Y-82863491D01*
X175744562Y-82850046D01*
X175810476Y-82876425D01*
X175831580Y-82900780D01*
X175833064Y-82899641D01*
X175912557Y-83003238D01*
X175929318Y-83025082D01*
X176054759Y-83121336D01*
X176200838Y-83181844D01*
X176357600Y-83202482D01*
X176365788Y-83201404D01*
X176506174Y-83182922D01*
X176514362Y-83181844D01*
X176660441Y-83121336D01*
X176785882Y-83025082D01*
X176802644Y-83003238D01*
X176882136Y-82899641D01*
X176884801Y-82901686D01*
X176924850Y-82863491D01*
X176994562Y-82850046D01*
X177060476Y-82876425D01*
X177081580Y-82900780D01*
X177083064Y-82899641D01*
X177162557Y-83003238D01*
X177179318Y-83025082D01*
X177304759Y-83121336D01*
X177450838Y-83181844D01*
X177607600Y-83202482D01*
X177615788Y-83201404D01*
X177756174Y-83182922D01*
X177764362Y-83181844D01*
X177910441Y-83121336D01*
X178035882Y-83025082D01*
X178052644Y-83003238D01*
X178132136Y-82899641D01*
X178134801Y-82901686D01*
X178174850Y-82863491D01*
X178244562Y-82850046D01*
X178310476Y-82876425D01*
X178331580Y-82900780D01*
X178333064Y-82899641D01*
X178412557Y-83003238D01*
X178429318Y-83025082D01*
X178554759Y-83121336D01*
X178700838Y-83181844D01*
X178857600Y-83202482D01*
X178865788Y-83201404D01*
X179006174Y-83182922D01*
X179014362Y-83181844D01*
X179160441Y-83121336D01*
X179285882Y-83025082D01*
X179302644Y-83003238D01*
X179382136Y-82899641D01*
X179384801Y-82901686D01*
X179424850Y-82863491D01*
X179494562Y-82850046D01*
X179560476Y-82876425D01*
X179581580Y-82900780D01*
X179583064Y-82899641D01*
X179662557Y-83003238D01*
X179679318Y-83025082D01*
X179804759Y-83121336D01*
X179950838Y-83181844D01*
X180107600Y-83202482D01*
X180115788Y-83201404D01*
X180256174Y-83182922D01*
X180264362Y-83181844D01*
X180410441Y-83121336D01*
X180535882Y-83025082D01*
X180587714Y-82957534D01*
X180645051Y-82915667D01*
X180715922Y-82911445D01*
X180777825Y-82946209D01*
X180799943Y-82977034D01*
X180829550Y-83035142D01*
X180919258Y-83124850D01*
X181032296Y-83182446D01*
X181042085Y-83183996D01*
X181042087Y-83183997D01*
X181069449Y-83188330D01*
X181126081Y-83197300D01*
X181357553Y-83197300D01*
X181589118Y-83197299D01*
X181594012Y-83196524D01*
X181673106Y-83183998D01*
X181673108Y-83183997D01*
X181682904Y-83182446D01*
X181795942Y-83124850D01*
X181862792Y-83058000D01*
X188116318Y-83058000D01*
X188136956Y-83214762D01*
X188140116Y-83222391D01*
X188144532Y-83233053D01*
X188197464Y-83360841D01*
X188293718Y-83486282D01*
X188300264Y-83491305D01*
X188329918Y-83514059D01*
X188419159Y-83582536D01*
X188565238Y-83643044D01*
X188722000Y-83663682D01*
X188730188Y-83662604D01*
X188870574Y-83644122D01*
X188878762Y-83643044D01*
X189024841Y-83582536D01*
X189114082Y-83514059D01*
X189143736Y-83491305D01*
X189150282Y-83486282D01*
X189246536Y-83360841D01*
X189299468Y-83233053D01*
X189303884Y-83222391D01*
X189307044Y-83214762D01*
X189327682Y-83058000D01*
X192434318Y-83058000D01*
X192454956Y-83214762D01*
X192458116Y-83222391D01*
X192462532Y-83233053D01*
X192515464Y-83360841D01*
X192611718Y-83486282D01*
X192618264Y-83491305D01*
X192647918Y-83514059D01*
X192737159Y-83582536D01*
X192883238Y-83643044D01*
X193040000Y-83663682D01*
X193048188Y-83662604D01*
X193188574Y-83644122D01*
X193196762Y-83643044D01*
X193342841Y-83582536D01*
X193432082Y-83514059D01*
X193461736Y-83491305D01*
X193468282Y-83486282D01*
X193564536Y-83360841D01*
X193617468Y-83233053D01*
X193621884Y-83222391D01*
X193625044Y-83214762D01*
X193645682Y-83058000D01*
X193625044Y-82901238D01*
X193564536Y-82755159D01*
X193468282Y-82629718D01*
X193342841Y-82533464D01*
X193196762Y-82472956D01*
X193040000Y-82452318D01*
X192883238Y-82472956D01*
X192737159Y-82533464D01*
X192611718Y-82629718D01*
X192515464Y-82755159D01*
X192454956Y-82901238D01*
X192434318Y-83058000D01*
X189327682Y-83058000D01*
X189307044Y-82901238D01*
X189246536Y-82755159D01*
X189150282Y-82629718D01*
X189024841Y-82533464D01*
X188878762Y-82472956D01*
X188722000Y-82452318D01*
X188565238Y-82472956D01*
X188419159Y-82533464D01*
X188293718Y-82629718D01*
X188197464Y-82755159D01*
X188136956Y-82901238D01*
X188116318Y-83058000D01*
X181862792Y-83058000D01*
X181885650Y-83035142D01*
X181943246Y-82922104D01*
X181946624Y-82900780D01*
X181953532Y-82857159D01*
X181958100Y-82828319D01*
X181958099Y-81865282D01*
X181948012Y-81801589D01*
X181944798Y-81781294D01*
X181944797Y-81781292D01*
X181943246Y-81771496D01*
X181938584Y-81762345D01*
X181894111Y-81675064D01*
X181885650Y-81658458D01*
X181795942Y-81568750D01*
X181682904Y-81511154D01*
X181673115Y-81509604D01*
X181673113Y-81509603D01*
X181645751Y-81505270D01*
X181589119Y-81496300D01*
X181357647Y-81496300D01*
X181126082Y-81496301D01*
X181121189Y-81497076D01*
X181121188Y-81497076D01*
X181042094Y-81509602D01*
X181042092Y-81509603D01*
X181032296Y-81511154D01*
X181023459Y-81515657D01*
X181023458Y-81515657D01*
X181000705Y-81527251D01*
X180919258Y-81568750D01*
X180829550Y-81658458D01*
X180825050Y-81667290D01*
X180799943Y-81716565D01*
X180751195Y-81768180D01*
X180682280Y-81785246D01*
X180615078Y-81762345D01*
X180587713Y-81736066D01*
X180572750Y-81716565D01*
X180535882Y-81668518D01*
X180410441Y-81572264D01*
X180264362Y-81511756D01*
X180107600Y-81491118D01*
X179950838Y-81511756D01*
X179804759Y-81572264D01*
X179679318Y-81668518D01*
X179583064Y-81793959D01*
X179580399Y-81791914D01*
X179540350Y-81830109D01*
X179470638Y-81843554D01*
X179404724Y-81817175D01*
X179383620Y-81792820D01*
X179382136Y-81793959D01*
X179290905Y-81675064D01*
X179290904Y-81675063D01*
X179285882Y-81668518D01*
X179160441Y-81572264D01*
X179014362Y-81511756D01*
X178857600Y-81491118D01*
X178700838Y-81511756D01*
X178554759Y-81572264D01*
X178429318Y-81668518D01*
X178333064Y-81793959D01*
X178330399Y-81791914D01*
X178290350Y-81830109D01*
X178220638Y-81843554D01*
X178154724Y-81817175D01*
X178133620Y-81792820D01*
X178132136Y-81793959D01*
X178040905Y-81675064D01*
X178040904Y-81675063D01*
X178035882Y-81668518D01*
X177910441Y-81572264D01*
X177764362Y-81511756D01*
X177607600Y-81491118D01*
X177450838Y-81511756D01*
X177304759Y-81572264D01*
X177179318Y-81668518D01*
X177083064Y-81793959D01*
X177080399Y-81791914D01*
X177040350Y-81830109D01*
X176970638Y-81843554D01*
X176904724Y-81817175D01*
X176883620Y-81792820D01*
X176882136Y-81793959D01*
X176790905Y-81675064D01*
X176790904Y-81675063D01*
X176785882Y-81668518D01*
X176660441Y-81572264D01*
X176514362Y-81511756D01*
X176357600Y-81491118D01*
X176200838Y-81511756D01*
X176054759Y-81572264D01*
X175929318Y-81668518D01*
X175833064Y-81793959D01*
X175830399Y-81791914D01*
X175790350Y-81830109D01*
X175720638Y-81843554D01*
X175654724Y-81817175D01*
X175633620Y-81792820D01*
X175632136Y-81793959D01*
X175540905Y-81675064D01*
X175540904Y-81675063D01*
X175535882Y-81668518D01*
X175410441Y-81572264D01*
X175264362Y-81511756D01*
X175107600Y-81491118D01*
X174950838Y-81511756D01*
X174804759Y-81572264D01*
X174679318Y-81668518D01*
X174583064Y-81793959D01*
X174580399Y-81791914D01*
X174540350Y-81830109D01*
X174470638Y-81843554D01*
X174404724Y-81817175D01*
X174383620Y-81792820D01*
X174382136Y-81793959D01*
X174290905Y-81675064D01*
X174290904Y-81675063D01*
X174285882Y-81668518D01*
X174160441Y-81572264D01*
X174014362Y-81511756D01*
X173857600Y-81491118D01*
X173700838Y-81511756D01*
X173554759Y-81572264D01*
X173429318Y-81668518D01*
X173333064Y-81793959D01*
X173330399Y-81791914D01*
X173290350Y-81830109D01*
X173220638Y-81843554D01*
X173154724Y-81817175D01*
X173133620Y-81792820D01*
X173132136Y-81793959D01*
X173040905Y-81675064D01*
X173040904Y-81675063D01*
X173035882Y-81668518D01*
X172910441Y-81572264D01*
X172764362Y-81511756D01*
X172607600Y-81491118D01*
X172450838Y-81511756D01*
X172304759Y-81572264D01*
X172179318Y-81668518D01*
X172083064Y-81793959D01*
X172080399Y-81791914D01*
X172040350Y-81830109D01*
X171970638Y-81843554D01*
X171904724Y-81817175D01*
X171883620Y-81792820D01*
X171882136Y-81793959D01*
X171790905Y-81675064D01*
X171790904Y-81675063D01*
X171785882Y-81668518D01*
X171660441Y-81572264D01*
X171514362Y-81511756D01*
X171357600Y-81491118D01*
X171200838Y-81511756D01*
X171054759Y-81572264D01*
X170929318Y-81668518D01*
X170833064Y-81793959D01*
X170830399Y-81791914D01*
X170790350Y-81830109D01*
X170720638Y-81843554D01*
X170654724Y-81817175D01*
X170633620Y-81792820D01*
X170632136Y-81793959D01*
X170540905Y-81675064D01*
X170540904Y-81675063D01*
X170535882Y-81668518D01*
X170410441Y-81572264D01*
X170264362Y-81511756D01*
X170107600Y-81491118D01*
X169950838Y-81511756D01*
X169804759Y-81572264D01*
X169679318Y-81668518D01*
X169583064Y-81793959D01*
X169522556Y-81940038D01*
X169507100Y-82057439D01*
X169507100Y-82636161D01*
X151013749Y-82636161D01*
X151012841Y-82635464D01*
X150866762Y-82574956D01*
X150710000Y-82554318D01*
X150553238Y-82574956D01*
X150407159Y-82635464D01*
X150281718Y-82731718D01*
X150185464Y-82857159D01*
X150124956Y-83003238D01*
X150104318Y-83160000D01*
X148433615Y-83160000D01*
X148423207Y-83146268D01*
X148414999Y-83101534D01*
X148414999Y-80880000D01*
X150124318Y-80880000D01*
X150144956Y-81036762D01*
X150205464Y-81182841D01*
X150301718Y-81308282D01*
X150427159Y-81404536D01*
X150573238Y-81465044D01*
X150730000Y-81485682D01*
X150738188Y-81484604D01*
X150878574Y-81466122D01*
X150886762Y-81465044D01*
X151032841Y-81404536D01*
X151158282Y-81308282D01*
X151254536Y-81182841D01*
X151315044Y-81036762D01*
X151321200Y-80990000D01*
X155084318Y-80990000D01*
X155104956Y-81146762D01*
X155165464Y-81292841D01*
X155261718Y-81418282D01*
X155387159Y-81514536D01*
X155533238Y-81575044D01*
X155690000Y-81595682D01*
X155698188Y-81594604D01*
X155838574Y-81576122D01*
X155846762Y-81575044D01*
X155992841Y-81514536D01*
X156118282Y-81418282D01*
X156214536Y-81292841D01*
X156275044Y-81146762D01*
X156295682Y-80990000D01*
X156275044Y-80833238D01*
X156214536Y-80687159D01*
X156118282Y-80561718D01*
X156098781Y-80546754D01*
X155999392Y-80470491D01*
X155992841Y-80465464D01*
X155846762Y-80404956D01*
X155690000Y-80384318D01*
X155533238Y-80404956D01*
X155387159Y-80465464D01*
X155380608Y-80470491D01*
X155281220Y-80546754D01*
X155261718Y-80561718D01*
X155165464Y-80687159D01*
X155104956Y-80833238D01*
X155084318Y-80990000D01*
X151321200Y-80990000D01*
X151335682Y-80880000D01*
X151315044Y-80723238D01*
X151254536Y-80577159D01*
X151158282Y-80451718D01*
X151032841Y-80355464D01*
X150886762Y-80294956D01*
X150730000Y-80274318D01*
X150573238Y-80294956D01*
X150427159Y-80355464D01*
X150301718Y-80451718D01*
X150205464Y-80577159D01*
X150144956Y-80723238D01*
X150124318Y-80880000D01*
X148414999Y-80880000D01*
X148414999Y-80257823D01*
X169166391Y-80257823D01*
X169167555Y-80266725D01*
X169167555Y-80266728D01*
X169171660Y-80298116D01*
X169184980Y-80399979D01*
X169242720Y-80531203D01*
X169248497Y-80538076D01*
X169248498Y-80538077D01*
X169329190Y-80634072D01*
X169334970Y-80640948D01*
X169454313Y-80720390D01*
X169591157Y-80763142D01*
X169600129Y-80763306D01*
X169600132Y-80763307D01*
X169665463Y-80764504D01*
X169734499Y-80765770D01*
X169743533Y-80763307D01*
X169864158Y-80730421D01*
X169864160Y-80730420D01*
X169872817Y-80728060D01*
X169994991Y-80653045D01*
X170091200Y-80546754D01*
X170134073Y-80458264D01*
X170149795Y-80425814D01*
X170149795Y-80425813D01*
X170153710Y-80417733D01*
X170177496Y-80276354D01*
X170177647Y-80264000D01*
X170176762Y-80257823D01*
X170436391Y-80257823D01*
X170437555Y-80266725D01*
X170437555Y-80266728D01*
X170441660Y-80298116D01*
X170454980Y-80399979D01*
X170512720Y-80531203D01*
X170518497Y-80538076D01*
X170518498Y-80538077D01*
X170599190Y-80634072D01*
X170604970Y-80640948D01*
X170724313Y-80720390D01*
X170861157Y-80763142D01*
X170870129Y-80763306D01*
X170870132Y-80763307D01*
X170935463Y-80764504D01*
X171004499Y-80765770D01*
X171013533Y-80763307D01*
X171134158Y-80730421D01*
X171134160Y-80730420D01*
X171142817Y-80728060D01*
X171264991Y-80653045D01*
X171361200Y-80546754D01*
X171404073Y-80458264D01*
X171419795Y-80425814D01*
X171419795Y-80425813D01*
X171423710Y-80417733D01*
X171447496Y-80276354D01*
X171447647Y-80264000D01*
X171446762Y-80257823D01*
X171706391Y-80257823D01*
X171707555Y-80266725D01*
X171707555Y-80266728D01*
X171711660Y-80298116D01*
X171724980Y-80399979D01*
X171782720Y-80531203D01*
X171788497Y-80538076D01*
X171788498Y-80538077D01*
X171869190Y-80634072D01*
X171874970Y-80640948D01*
X171994313Y-80720390D01*
X172131157Y-80763142D01*
X172140129Y-80763306D01*
X172140132Y-80763307D01*
X172205463Y-80764504D01*
X172274499Y-80765770D01*
X172283533Y-80763307D01*
X172404158Y-80730421D01*
X172404160Y-80730420D01*
X172412817Y-80728060D01*
X172534991Y-80653045D01*
X172631200Y-80546754D01*
X172674073Y-80458264D01*
X172689795Y-80425814D01*
X172689795Y-80425813D01*
X172693710Y-80417733D01*
X172717496Y-80276354D01*
X172717647Y-80264000D01*
X172716762Y-80257823D01*
X172976391Y-80257823D01*
X172977555Y-80266725D01*
X172977555Y-80266728D01*
X172981660Y-80298116D01*
X172994980Y-80399979D01*
X173052720Y-80531203D01*
X173058497Y-80538076D01*
X173058498Y-80538077D01*
X173139190Y-80634072D01*
X173144970Y-80640948D01*
X173264313Y-80720390D01*
X173401157Y-80763142D01*
X173410129Y-80763306D01*
X173410132Y-80763307D01*
X173475463Y-80764504D01*
X173544499Y-80765770D01*
X173553533Y-80763307D01*
X173674158Y-80730421D01*
X173674160Y-80730420D01*
X173682817Y-80728060D01*
X173804991Y-80653045D01*
X173901200Y-80546754D01*
X173944073Y-80458264D01*
X173959795Y-80425814D01*
X173959795Y-80425813D01*
X173963710Y-80417733D01*
X173987496Y-80276354D01*
X173987647Y-80264000D01*
X173986762Y-80257823D01*
X174246391Y-80257823D01*
X174247555Y-80266725D01*
X174247555Y-80266728D01*
X174251660Y-80298116D01*
X174264980Y-80399979D01*
X174322720Y-80531203D01*
X174328497Y-80538076D01*
X174328498Y-80538077D01*
X174409190Y-80634072D01*
X174414970Y-80640948D01*
X174534313Y-80720390D01*
X174671157Y-80763142D01*
X174680129Y-80763306D01*
X174680132Y-80763307D01*
X174745463Y-80764504D01*
X174814499Y-80765770D01*
X174823533Y-80763307D01*
X174944158Y-80730421D01*
X174944160Y-80730420D01*
X174952817Y-80728060D01*
X175074991Y-80653045D01*
X175171200Y-80546754D01*
X175214073Y-80458264D01*
X175229795Y-80425814D01*
X175229795Y-80425813D01*
X175233710Y-80417733D01*
X175257496Y-80276354D01*
X175257647Y-80264000D01*
X175256762Y-80257823D01*
X175643391Y-80257823D01*
X175644555Y-80266725D01*
X175644555Y-80266728D01*
X175648660Y-80298116D01*
X175661980Y-80399979D01*
X175719720Y-80531203D01*
X175725497Y-80538076D01*
X175725498Y-80538077D01*
X175806190Y-80634072D01*
X175811970Y-80640948D01*
X175931313Y-80720390D01*
X176068157Y-80763142D01*
X176077129Y-80763306D01*
X176077132Y-80763307D01*
X176142463Y-80764504D01*
X176211499Y-80765770D01*
X176220533Y-80763307D01*
X176341158Y-80730421D01*
X176341160Y-80730420D01*
X176349817Y-80728060D01*
X176471991Y-80653045D01*
X176568200Y-80546754D01*
X176611073Y-80458264D01*
X176626795Y-80425814D01*
X176626795Y-80425813D01*
X176630710Y-80417733D01*
X176654496Y-80276354D01*
X176654647Y-80264000D01*
X176653762Y-80257823D01*
X176913391Y-80257823D01*
X176914555Y-80266725D01*
X176914555Y-80266728D01*
X176918660Y-80298116D01*
X176931980Y-80399979D01*
X176989720Y-80531203D01*
X176995497Y-80538076D01*
X176995498Y-80538077D01*
X177076190Y-80634072D01*
X177081970Y-80640948D01*
X177201313Y-80720390D01*
X177338157Y-80763142D01*
X177347129Y-80763306D01*
X177347132Y-80763307D01*
X177412463Y-80764504D01*
X177481499Y-80765770D01*
X177490533Y-80763307D01*
X177611158Y-80730421D01*
X177611160Y-80730420D01*
X177619817Y-80728060D01*
X177741991Y-80653045D01*
X177838200Y-80546754D01*
X177881073Y-80458264D01*
X177896795Y-80425814D01*
X177896795Y-80425813D01*
X177900710Y-80417733D01*
X177924496Y-80276354D01*
X177924647Y-80264000D01*
X177923762Y-80257823D01*
X178183391Y-80257823D01*
X178184555Y-80266725D01*
X178184555Y-80266728D01*
X178188660Y-80298116D01*
X178201980Y-80399979D01*
X178259720Y-80531203D01*
X178265497Y-80538076D01*
X178265498Y-80538077D01*
X178346190Y-80634072D01*
X178351970Y-80640948D01*
X178471313Y-80720390D01*
X178608157Y-80763142D01*
X178617129Y-80763306D01*
X178617132Y-80763307D01*
X178682463Y-80764504D01*
X178751499Y-80765770D01*
X178760533Y-80763307D01*
X178881158Y-80730421D01*
X178881160Y-80730420D01*
X178889817Y-80728060D01*
X179011991Y-80653045D01*
X179108200Y-80546754D01*
X179151073Y-80458264D01*
X179166795Y-80425814D01*
X179166795Y-80425813D01*
X179170710Y-80417733D01*
X179194496Y-80276354D01*
X179194647Y-80264000D01*
X179174323Y-80122082D01*
X179114984Y-79991572D01*
X179086829Y-79958897D01*
X179027260Y-79889763D01*
X179027257Y-79889760D01*
X179021400Y-79882963D01*
X178901095Y-79804985D01*
X178763739Y-79763907D01*
X178754763Y-79763852D01*
X178754762Y-79763852D01*
X178694555Y-79763484D01*
X178620376Y-79763031D01*
X178482529Y-79802428D01*
X178361280Y-79878930D01*
X178266377Y-79986388D01*
X178205447Y-80116163D01*
X178183391Y-80257823D01*
X177923762Y-80257823D01*
X177904323Y-80122082D01*
X177844984Y-79991572D01*
X177816829Y-79958897D01*
X177757260Y-79889763D01*
X177757257Y-79889760D01*
X177751400Y-79882963D01*
X177631095Y-79804985D01*
X177493739Y-79763907D01*
X177484763Y-79763852D01*
X177484762Y-79763852D01*
X177424555Y-79763484D01*
X177350376Y-79763031D01*
X177212529Y-79802428D01*
X177091280Y-79878930D01*
X176996377Y-79986388D01*
X176935447Y-80116163D01*
X176913391Y-80257823D01*
X176653762Y-80257823D01*
X176634323Y-80122082D01*
X176574984Y-79991572D01*
X176546829Y-79958897D01*
X176487260Y-79889763D01*
X176487257Y-79889760D01*
X176481400Y-79882963D01*
X176361095Y-79804985D01*
X176223739Y-79763907D01*
X176214763Y-79763852D01*
X176214762Y-79763852D01*
X176154555Y-79763484D01*
X176080376Y-79763031D01*
X175942529Y-79802428D01*
X175821280Y-79878930D01*
X175726377Y-79986388D01*
X175665447Y-80116163D01*
X175643391Y-80257823D01*
X175256762Y-80257823D01*
X175237323Y-80122082D01*
X175177984Y-79991572D01*
X175149829Y-79958897D01*
X175090260Y-79889763D01*
X175090257Y-79889760D01*
X175084400Y-79882963D01*
X174964095Y-79804985D01*
X174826739Y-79763907D01*
X174817763Y-79763852D01*
X174817762Y-79763852D01*
X174757555Y-79763484D01*
X174683376Y-79763031D01*
X174545529Y-79802428D01*
X174424280Y-79878930D01*
X174329377Y-79986388D01*
X174268447Y-80116163D01*
X174246391Y-80257823D01*
X173986762Y-80257823D01*
X173967323Y-80122082D01*
X173907984Y-79991572D01*
X173879829Y-79958897D01*
X173820260Y-79889763D01*
X173820257Y-79889760D01*
X173814400Y-79882963D01*
X173694095Y-79804985D01*
X173556739Y-79763907D01*
X173547763Y-79763852D01*
X173547762Y-79763852D01*
X173487555Y-79763484D01*
X173413376Y-79763031D01*
X173275529Y-79802428D01*
X173154280Y-79878930D01*
X173059377Y-79986388D01*
X172998447Y-80116163D01*
X172976391Y-80257823D01*
X172716762Y-80257823D01*
X172697323Y-80122082D01*
X172637984Y-79991572D01*
X172609829Y-79958897D01*
X172550260Y-79889763D01*
X172550257Y-79889760D01*
X172544400Y-79882963D01*
X172424095Y-79804985D01*
X172286739Y-79763907D01*
X172277763Y-79763852D01*
X172277762Y-79763852D01*
X172217555Y-79763484D01*
X172143376Y-79763031D01*
X172005529Y-79802428D01*
X171884280Y-79878930D01*
X171789377Y-79986388D01*
X171728447Y-80116163D01*
X171706391Y-80257823D01*
X171446762Y-80257823D01*
X171427323Y-80122082D01*
X171367984Y-79991572D01*
X171339829Y-79958897D01*
X171280260Y-79889763D01*
X171280257Y-79889760D01*
X171274400Y-79882963D01*
X171154095Y-79804985D01*
X171016739Y-79763907D01*
X171007763Y-79763852D01*
X171007762Y-79763852D01*
X170947555Y-79763484D01*
X170873376Y-79763031D01*
X170735529Y-79802428D01*
X170614280Y-79878930D01*
X170519377Y-79986388D01*
X170458447Y-80116163D01*
X170436391Y-80257823D01*
X170176762Y-80257823D01*
X170157323Y-80122082D01*
X170097984Y-79991572D01*
X170069829Y-79958897D01*
X170010260Y-79889763D01*
X170010257Y-79889760D01*
X170004400Y-79882963D01*
X169884095Y-79804985D01*
X169746739Y-79763907D01*
X169737763Y-79763852D01*
X169737762Y-79763852D01*
X169677555Y-79763484D01*
X169603376Y-79763031D01*
X169465529Y-79802428D01*
X169344280Y-79878930D01*
X169249377Y-79986388D01*
X169188447Y-80116163D01*
X169166391Y-80257823D01*
X148414999Y-80257823D01*
X148414999Y-78937023D01*
X160877391Y-78937023D01*
X160878555Y-78945925D01*
X160878555Y-78945928D01*
X160879814Y-78955554D01*
X160895980Y-79079179D01*
X160953720Y-79210403D01*
X160959497Y-79217276D01*
X160959498Y-79217277D01*
X161012825Y-79280717D01*
X161045970Y-79320148D01*
X161165313Y-79399590D01*
X161302157Y-79442342D01*
X161311129Y-79442506D01*
X161311132Y-79442507D01*
X161376463Y-79443704D01*
X161445499Y-79444970D01*
X161454533Y-79442507D01*
X161575158Y-79409621D01*
X161575160Y-79409620D01*
X161583817Y-79407260D01*
X161591464Y-79402565D01*
X161591468Y-79402563D01*
X161648463Y-79367568D01*
X161716980Y-79348970D01*
X161784210Y-79370056D01*
X161821106Y-79394616D01*
X161821109Y-79394617D01*
X161828579Y-79399590D01*
X161837146Y-79402266D01*
X161837147Y-79402267D01*
X161857009Y-79408472D01*
X161965423Y-79442342D01*
X161974395Y-79442506D01*
X161974398Y-79442507D01*
X162039729Y-79443704D01*
X162108765Y-79444970D01*
X162117799Y-79442507D01*
X162238424Y-79409621D01*
X162238426Y-79409620D01*
X162247083Y-79407260D01*
X162254730Y-79402565D01*
X162254734Y-79402563D01*
X162311729Y-79367568D01*
X162380246Y-79348970D01*
X162447476Y-79370056D01*
X162484372Y-79394616D01*
X162484375Y-79394617D01*
X162491845Y-79399590D01*
X162500412Y-79402266D01*
X162500413Y-79402267D01*
X162520275Y-79408472D01*
X162628689Y-79442342D01*
X162637661Y-79442506D01*
X162637664Y-79442507D01*
X162702995Y-79443704D01*
X162772031Y-79444970D01*
X162781065Y-79442507D01*
X162901690Y-79409621D01*
X162901692Y-79409620D01*
X162910349Y-79407260D01*
X162974996Y-79367567D01*
X163043512Y-79348969D01*
X163110744Y-79370055D01*
X163155113Y-79399590D01*
X163291957Y-79442342D01*
X163300929Y-79442506D01*
X163300932Y-79442507D01*
X163366263Y-79443704D01*
X163435299Y-79444970D01*
X163444333Y-79442507D01*
X163564958Y-79409621D01*
X163564960Y-79409620D01*
X163573617Y-79407260D01*
X163695791Y-79332245D01*
X163747466Y-79275155D01*
X188604500Y-79275155D01*
X188619454Y-79408472D01*
X188678515Y-79578073D01*
X188682248Y-79584047D01*
X188682249Y-79584049D01*
X188728285Y-79657722D01*
X188773684Y-79730375D01*
X188806983Y-79763907D01*
X188895267Y-79852810D01*
X188895271Y-79852813D01*
X188900230Y-79857807D01*
X188906176Y-79861581D01*
X188906178Y-79861582D01*
X188958140Y-79894558D01*
X189051864Y-79954037D01*
X189071890Y-79961168D01*
X189214414Y-80011919D01*
X189214419Y-80011920D01*
X189221049Y-80014281D01*
X189228035Y-80015114D01*
X189228039Y-80015115D01*
X189354727Y-80030221D01*
X189399376Y-80035545D01*
X189406379Y-80034809D01*
X189406380Y-80034809D01*
X189570975Y-80017510D01*
X189570979Y-80017509D01*
X189577983Y-80016773D01*
X189669104Y-79985753D01*
X189741323Y-79961168D01*
X189741326Y-79961167D01*
X189747993Y-79958897D01*
X189762036Y-79950258D01*
X189852540Y-79894579D01*
X189900955Y-79864794D01*
X189905986Y-79859868D01*
X189905989Y-79859865D01*
X190002353Y-79765498D01*
X190029268Y-79739141D01*
X190034918Y-79730375D01*
X190122735Y-79594109D01*
X190126554Y-79588183D01*
X190178680Y-79444970D01*
X190185570Y-79426039D01*
X190185571Y-79426036D01*
X190187978Y-79419422D01*
X190196878Y-79348969D01*
X190205004Y-79284645D01*
X190205004Y-79284642D01*
X190205500Y-79280717D01*
X190205500Y-79275155D01*
X190604500Y-79275155D01*
X190619454Y-79408472D01*
X190678515Y-79578073D01*
X190682248Y-79584047D01*
X190682249Y-79584049D01*
X190728285Y-79657722D01*
X190773684Y-79730375D01*
X190806983Y-79763907D01*
X190895267Y-79852810D01*
X190895271Y-79852813D01*
X190900230Y-79857807D01*
X190906176Y-79861581D01*
X190906178Y-79861582D01*
X190958140Y-79894558D01*
X191051864Y-79954037D01*
X191071890Y-79961168D01*
X191214414Y-80011919D01*
X191214419Y-80011920D01*
X191221049Y-80014281D01*
X191228035Y-80015114D01*
X191228039Y-80015115D01*
X191354727Y-80030221D01*
X191399376Y-80035545D01*
X191406379Y-80034809D01*
X191406380Y-80034809D01*
X191570975Y-80017510D01*
X191570979Y-80017509D01*
X191577983Y-80016773D01*
X191669104Y-79985753D01*
X191741323Y-79961168D01*
X191741326Y-79961167D01*
X191747993Y-79958897D01*
X191762036Y-79950258D01*
X191852540Y-79894579D01*
X191900955Y-79864794D01*
X191905986Y-79859868D01*
X191905989Y-79859865D01*
X192002353Y-79765498D01*
X192029268Y-79739141D01*
X192034918Y-79730375D01*
X192122735Y-79594109D01*
X192126554Y-79588183D01*
X192178680Y-79444970D01*
X192185570Y-79426039D01*
X192185571Y-79426036D01*
X192187978Y-79419422D01*
X192196878Y-79348969D01*
X192205004Y-79284645D01*
X192205004Y-79284642D01*
X192205500Y-79280717D01*
X192205500Y-79275155D01*
X192604500Y-79275155D01*
X192619454Y-79408472D01*
X192678515Y-79578073D01*
X192682248Y-79584047D01*
X192682249Y-79584049D01*
X192728285Y-79657722D01*
X192773684Y-79730375D01*
X192806983Y-79763907D01*
X192895267Y-79852810D01*
X192895271Y-79852813D01*
X192900230Y-79857807D01*
X192906176Y-79861581D01*
X192906178Y-79861582D01*
X192958140Y-79894558D01*
X193051864Y-79954037D01*
X193071890Y-79961168D01*
X193214414Y-80011919D01*
X193214419Y-80011920D01*
X193221049Y-80014281D01*
X193228035Y-80015114D01*
X193228039Y-80015115D01*
X193354727Y-80030221D01*
X193399376Y-80035545D01*
X193406379Y-80034809D01*
X193406380Y-80034809D01*
X193570975Y-80017510D01*
X193570979Y-80017509D01*
X193577983Y-80016773D01*
X193669104Y-79985753D01*
X193741323Y-79961168D01*
X193741326Y-79961167D01*
X193747993Y-79958897D01*
X193762036Y-79950258D01*
X193852540Y-79894579D01*
X193900955Y-79864794D01*
X193905986Y-79859868D01*
X193905989Y-79859865D01*
X194002353Y-79765498D01*
X194029268Y-79739141D01*
X194034918Y-79730375D01*
X194097134Y-79633834D01*
X194604500Y-79633834D01*
X194607481Y-79665369D01*
X194652366Y-79793184D01*
X194657958Y-79800754D01*
X194657959Y-79800757D01*
X194715699Y-79878930D01*
X194732850Y-79902150D01*
X194740421Y-79907742D01*
X194834243Y-79977041D01*
X194834246Y-79977042D01*
X194841816Y-79982634D01*
X194969631Y-80027519D01*
X194977277Y-80028242D01*
X194977278Y-80028242D01*
X194983248Y-80028806D01*
X195001166Y-80030500D01*
X195808834Y-80030500D01*
X195826752Y-80028806D01*
X195832722Y-80028242D01*
X195832723Y-80028242D01*
X195840369Y-80027519D01*
X195968184Y-79982634D01*
X195975754Y-79977042D01*
X195975757Y-79977041D01*
X196069579Y-79907742D01*
X196077150Y-79902150D01*
X196094301Y-79878930D01*
X196152041Y-79800757D01*
X196152042Y-79800754D01*
X196157634Y-79793184D01*
X196202519Y-79665369D01*
X196205500Y-79633834D01*
X196205500Y-78226166D01*
X196202519Y-78194631D01*
X196157634Y-78066816D01*
X196152042Y-78059246D01*
X196152041Y-78059243D01*
X196082742Y-77965421D01*
X196077150Y-77957850D01*
X196012864Y-77910367D01*
X195975757Y-77882959D01*
X195975754Y-77882958D01*
X195968184Y-77877366D01*
X195840369Y-77832481D01*
X195832723Y-77831758D01*
X195832722Y-77831758D01*
X195826752Y-77831194D01*
X195808834Y-77829500D01*
X195001166Y-77829500D01*
X194983248Y-77831194D01*
X194977278Y-77831758D01*
X194977277Y-77831758D01*
X194969631Y-77832481D01*
X194841816Y-77877366D01*
X194834246Y-77882958D01*
X194834243Y-77882959D01*
X194797136Y-77910367D01*
X194732850Y-77957850D01*
X194727258Y-77965421D01*
X194657959Y-78059243D01*
X194657958Y-78059246D01*
X194652366Y-78066816D01*
X194607481Y-78194631D01*
X194604500Y-78226166D01*
X194604500Y-79633834D01*
X194097134Y-79633834D01*
X194122735Y-79594109D01*
X194126554Y-79588183D01*
X194178680Y-79444970D01*
X194185570Y-79426039D01*
X194185571Y-79426036D01*
X194187978Y-79419422D01*
X194196878Y-79348969D01*
X194205004Y-79284645D01*
X194205004Y-79284642D01*
X194205500Y-79280717D01*
X194205500Y-78584845D01*
X194190546Y-78451528D01*
X194131485Y-78281927D01*
X194123591Y-78269293D01*
X194040049Y-78135599D01*
X194036316Y-78129625D01*
X193942064Y-78034713D01*
X193914733Y-78007190D01*
X193914729Y-78007187D01*
X193909770Y-78002193D01*
X193898761Y-77995206D01*
X193787799Y-77924788D01*
X193758136Y-77905963D01*
X193728352Y-77895357D01*
X193595586Y-77848081D01*
X193595581Y-77848080D01*
X193588951Y-77845719D01*
X193581965Y-77844886D01*
X193581961Y-77844885D01*
X193452933Y-77829500D01*
X193410624Y-77824455D01*
X193403621Y-77825191D01*
X193403620Y-77825191D01*
X193239025Y-77842490D01*
X193239021Y-77842491D01*
X193232017Y-77843227D01*
X193225346Y-77845498D01*
X193068677Y-77898832D01*
X193068674Y-77898833D01*
X193062007Y-77901103D01*
X193056009Y-77904793D01*
X193056007Y-77904794D01*
X192985526Y-77948154D01*
X192909045Y-77995206D01*
X192904014Y-78000132D01*
X192904011Y-78000135D01*
X192859608Y-78043618D01*
X192780732Y-78120859D01*
X192776913Y-78126784D01*
X192776912Y-78126786D01*
X192688143Y-78264528D01*
X192683446Y-78271817D01*
X192681037Y-78278437D01*
X192681035Y-78278440D01*
X192628196Y-78423614D01*
X192622022Y-78440578D01*
X192621140Y-78447561D01*
X192607015Y-78559378D01*
X192604500Y-78579283D01*
X192604500Y-79275155D01*
X192205500Y-79275155D01*
X192205500Y-78584845D01*
X192190546Y-78451528D01*
X192131485Y-78281927D01*
X192123591Y-78269293D01*
X192040049Y-78135599D01*
X192036316Y-78129625D01*
X191942064Y-78034713D01*
X191914733Y-78007190D01*
X191914729Y-78007187D01*
X191909770Y-78002193D01*
X191898761Y-77995206D01*
X191787799Y-77924788D01*
X191758136Y-77905963D01*
X191728352Y-77895357D01*
X191595586Y-77848081D01*
X191595581Y-77848080D01*
X191588951Y-77845719D01*
X191581965Y-77844886D01*
X191581961Y-77844885D01*
X191452933Y-77829500D01*
X191410624Y-77824455D01*
X191403621Y-77825191D01*
X191403620Y-77825191D01*
X191239025Y-77842490D01*
X191239021Y-77842491D01*
X191232017Y-77843227D01*
X191225346Y-77845498D01*
X191068677Y-77898832D01*
X191068674Y-77898833D01*
X191062007Y-77901103D01*
X191056009Y-77904793D01*
X191056007Y-77904794D01*
X190985526Y-77948154D01*
X190909045Y-77995206D01*
X190904014Y-78000132D01*
X190904011Y-78000135D01*
X190859608Y-78043618D01*
X190780732Y-78120859D01*
X190776913Y-78126784D01*
X190776912Y-78126786D01*
X190688143Y-78264528D01*
X190683446Y-78271817D01*
X190681037Y-78278437D01*
X190681035Y-78278440D01*
X190628196Y-78423614D01*
X190622022Y-78440578D01*
X190621140Y-78447561D01*
X190607015Y-78559378D01*
X190604500Y-78579283D01*
X190604500Y-79275155D01*
X190205500Y-79275155D01*
X190205500Y-78584845D01*
X190190546Y-78451528D01*
X190131485Y-78281927D01*
X190123591Y-78269293D01*
X190040049Y-78135599D01*
X190036316Y-78129625D01*
X189942064Y-78034713D01*
X189914733Y-78007190D01*
X189914729Y-78007187D01*
X189909770Y-78002193D01*
X189898761Y-77995206D01*
X189787799Y-77924788D01*
X189758136Y-77905963D01*
X189728352Y-77895357D01*
X189595586Y-77848081D01*
X189595581Y-77848080D01*
X189588951Y-77845719D01*
X189581965Y-77844886D01*
X189581961Y-77844885D01*
X189452933Y-77829500D01*
X189410624Y-77824455D01*
X189403621Y-77825191D01*
X189403620Y-77825191D01*
X189239025Y-77842490D01*
X189239021Y-77842491D01*
X189232017Y-77843227D01*
X189225346Y-77845498D01*
X189068677Y-77898832D01*
X189068674Y-77898833D01*
X189062007Y-77901103D01*
X189056009Y-77904793D01*
X189056007Y-77904794D01*
X188985526Y-77948154D01*
X188909045Y-77995206D01*
X188904014Y-78000132D01*
X188904011Y-78000135D01*
X188859608Y-78043618D01*
X188780732Y-78120859D01*
X188776913Y-78126784D01*
X188776912Y-78126786D01*
X188688143Y-78264528D01*
X188683446Y-78271817D01*
X188681037Y-78278437D01*
X188681035Y-78278440D01*
X188628196Y-78423614D01*
X188622022Y-78440578D01*
X188621140Y-78447561D01*
X188607015Y-78559378D01*
X188604500Y-78579283D01*
X188604500Y-79275155D01*
X163747466Y-79275155D01*
X163792000Y-79225954D01*
X163854510Y-79096933D01*
X163878296Y-78955554D01*
X163878447Y-78943200D01*
X163858123Y-78801282D01*
X163806683Y-78688145D01*
X163796697Y-78617854D01*
X163824231Y-78559378D01*
X163823156Y-78558653D01*
X163827847Y-78551698D01*
X163827969Y-78551439D01*
X163828176Y-78551211D01*
X163828181Y-78551204D01*
X163834200Y-78544554D01*
X163881193Y-78447561D01*
X163892795Y-78423614D01*
X163892795Y-78423613D01*
X163896710Y-78415533D01*
X163920496Y-78274154D01*
X163920647Y-78261800D01*
X163902574Y-78135599D01*
X163901596Y-78128768D01*
X163901595Y-78128765D01*
X163900323Y-78119882D01*
X163840984Y-77989372D01*
X163813823Y-77957850D01*
X163765236Y-77901462D01*
X179084930Y-77901462D01*
X179086094Y-77910364D01*
X179086094Y-77910367D01*
X179093294Y-77965421D01*
X179103519Y-78043618D01*
X179161259Y-78174842D01*
X179167036Y-78181715D01*
X179167037Y-78181716D01*
X179236648Y-78264528D01*
X179253509Y-78284587D01*
X179372852Y-78364029D01*
X179509696Y-78406781D01*
X179518668Y-78406945D01*
X179518671Y-78406946D01*
X179584002Y-78408143D01*
X179653038Y-78409409D01*
X179662072Y-78406946D01*
X179782697Y-78374060D01*
X179782699Y-78374059D01*
X179791356Y-78371699D01*
X179913530Y-78296684D01*
X179932297Y-78275951D01*
X180003717Y-78197046D01*
X180009739Y-78190393D01*
X180072249Y-78061372D01*
X180096035Y-77919993D01*
X180096186Y-77907639D01*
X180081870Y-77807671D01*
X180077135Y-77774607D01*
X180077134Y-77774604D01*
X180075862Y-77765721D01*
X180016523Y-77635211D01*
X179998137Y-77613873D01*
X179928799Y-77533402D01*
X179928796Y-77533399D01*
X179922939Y-77526602D01*
X179802634Y-77448624D01*
X179665278Y-77407546D01*
X179656302Y-77407491D01*
X179656301Y-77407491D01*
X179596094Y-77407123D01*
X179521915Y-77406670D01*
X179384068Y-77446067D01*
X179262819Y-77522569D01*
X179167916Y-77630027D01*
X179106986Y-77759802D01*
X179105605Y-77768674D01*
X179087811Y-77882959D01*
X179084930Y-77901462D01*
X163765236Y-77901462D01*
X163753260Y-77887563D01*
X163753257Y-77887560D01*
X163747400Y-77880763D01*
X163627095Y-77802785D01*
X163489739Y-77761707D01*
X163480763Y-77761652D01*
X163480762Y-77761652D01*
X163420555Y-77761284D01*
X163346376Y-77760831D01*
X163208529Y-77800228D01*
X163168965Y-77825191D01*
X163150681Y-77836727D01*
X163082396Y-77856161D01*
X163014915Y-77835898D01*
X162971365Y-77807671D01*
X162963827Y-77802785D01*
X162826471Y-77761707D01*
X162817495Y-77761652D01*
X162817494Y-77761652D01*
X162757287Y-77761284D01*
X162683108Y-77760831D01*
X162545261Y-77800228D01*
X162505697Y-77825191D01*
X162487413Y-77836727D01*
X162419128Y-77856161D01*
X162351648Y-77835898D01*
X162300561Y-77802785D01*
X162163205Y-77761707D01*
X162154229Y-77761652D01*
X162154228Y-77761652D01*
X162094021Y-77761284D01*
X162019842Y-77760831D01*
X161881995Y-77800228D01*
X161842431Y-77825191D01*
X161824147Y-77836727D01*
X161755862Y-77856161D01*
X161688382Y-77835898D01*
X161637295Y-77802785D01*
X161499939Y-77761707D01*
X161490963Y-77761652D01*
X161490962Y-77761652D01*
X161430755Y-77761284D01*
X161356576Y-77760831D01*
X161218729Y-77800228D01*
X161097480Y-77876730D01*
X161091538Y-77883458D01*
X161091537Y-77883459D01*
X161073751Y-77903598D01*
X161002577Y-77984188D01*
X160941647Y-78113963D01*
X160933448Y-78166622D01*
X160927897Y-78202278D01*
X160919591Y-78255623D01*
X160920755Y-78264525D01*
X160920755Y-78264528D01*
X160923378Y-78284587D01*
X160938180Y-78397779D01*
X160958903Y-78444874D01*
X160991761Y-78519550D01*
X161000889Y-78589957D01*
X160970871Y-78653705D01*
X160960377Y-78665588D01*
X160899447Y-78795363D01*
X160877391Y-78937023D01*
X148414999Y-78937023D01*
X148415000Y-77031895D01*
X168634069Y-77031895D01*
X168635233Y-77040797D01*
X168635233Y-77040800D01*
X168636492Y-77050426D01*
X168652658Y-77174051D01*
X168710398Y-77305275D01*
X168716175Y-77312148D01*
X168716176Y-77312149D01*
X168723470Y-77320826D01*
X168802648Y-77415020D01*
X168921991Y-77494462D01*
X169058835Y-77537214D01*
X169067807Y-77537378D01*
X169067810Y-77537379D01*
X169133141Y-77538576D01*
X169202177Y-77539842D01*
X169211211Y-77537379D01*
X169331836Y-77504493D01*
X169331838Y-77504492D01*
X169340495Y-77502132D01*
X169462669Y-77427117D01*
X169480434Y-77407491D01*
X169552856Y-77327479D01*
X169558878Y-77320826D01*
X169621388Y-77191805D01*
X169645174Y-77050426D01*
X169645325Y-77038072D01*
X169625001Y-76896154D01*
X169565662Y-76765644D01*
X169530241Y-76724536D01*
X169477938Y-76663835D01*
X169477935Y-76663832D01*
X169472078Y-76657035D01*
X169351773Y-76579057D01*
X169214417Y-76537979D01*
X169205441Y-76537924D01*
X169205440Y-76537924D01*
X169145233Y-76537556D01*
X169071054Y-76537103D01*
X168933207Y-76576500D01*
X168811958Y-76653002D01*
X168717055Y-76760460D01*
X168656125Y-76890235D01*
X168634069Y-77031895D01*
X148415000Y-77031895D01*
X148415000Y-76380000D01*
X150044318Y-76380000D01*
X150045396Y-76388188D01*
X150062562Y-76518574D01*
X150064956Y-76536762D01*
X150125464Y-76682841D01*
X150221718Y-76808282D01*
X150347159Y-76904536D01*
X150493238Y-76965044D01*
X150650000Y-76985682D01*
X150658188Y-76984604D01*
X150798574Y-76966122D01*
X150806762Y-76965044D01*
X150952841Y-76904536D01*
X151078282Y-76808282D01*
X151174536Y-76682841D01*
X151235044Y-76536762D01*
X151237439Y-76518574D01*
X151254604Y-76388188D01*
X151255682Y-76380000D01*
X151254365Y-76370000D01*
X155154318Y-76370000D01*
X155174956Y-76526762D01*
X155235464Y-76672841D01*
X155331718Y-76798282D01*
X155457159Y-76894536D01*
X155603238Y-76955044D01*
X155760000Y-76975682D01*
X155768188Y-76974604D01*
X155908574Y-76956122D01*
X155916762Y-76955044D01*
X156062841Y-76894536D01*
X156188282Y-76798282D01*
X156284536Y-76672841D01*
X156345044Y-76526762D01*
X156365682Y-76370000D01*
X156351990Y-76266000D01*
X187862318Y-76266000D01*
X187882956Y-76422762D01*
X187943464Y-76568841D01*
X187948491Y-76575392D01*
X188028293Y-76679392D01*
X188039718Y-76694282D01*
X188165159Y-76790536D01*
X188311238Y-76851044D01*
X188468000Y-76871682D01*
X188476188Y-76870604D01*
X188616574Y-76852122D01*
X188624762Y-76851044D01*
X188770841Y-76790536D01*
X188896282Y-76694282D01*
X188907708Y-76679392D01*
X188987509Y-76575392D01*
X188992536Y-76568841D01*
X189053044Y-76422762D01*
X189073682Y-76266000D01*
X189064993Y-76200000D01*
X190148318Y-76200000D01*
X190168956Y-76356762D01*
X190229464Y-76502841D01*
X190325718Y-76628282D01*
X190451159Y-76724536D01*
X190597238Y-76785044D01*
X190754000Y-76805682D01*
X190762188Y-76804604D01*
X190902574Y-76786122D01*
X190910762Y-76785044D01*
X191056841Y-76724536D01*
X191182282Y-76628282D01*
X191278536Y-76502841D01*
X191339044Y-76356762D01*
X191359682Y-76200000D01*
X191339044Y-76043238D01*
X191278536Y-75897159D01*
X191182282Y-75771718D01*
X191056841Y-75675464D01*
X190910762Y-75614956D01*
X190754000Y-75594318D01*
X190597238Y-75614956D01*
X190451159Y-75675464D01*
X190325718Y-75771718D01*
X190229464Y-75897159D01*
X190168956Y-76043238D01*
X190148318Y-76200000D01*
X189064993Y-76200000D01*
X189053044Y-76109238D01*
X188992536Y-75963159D01*
X188896282Y-75837718D01*
X188770841Y-75741464D01*
X188624762Y-75680956D01*
X188468000Y-75660318D01*
X188311238Y-75680956D01*
X188165159Y-75741464D01*
X188039718Y-75837718D01*
X187943464Y-75963159D01*
X187882956Y-76109238D01*
X187862318Y-76266000D01*
X156351990Y-76266000D01*
X156350912Y-76257812D01*
X156346122Y-76221426D01*
X156345044Y-76213238D01*
X156284536Y-76067159D01*
X156200978Y-75958264D01*
X156193305Y-75948264D01*
X156188282Y-75941718D01*
X156062841Y-75845464D01*
X155916762Y-75784956D01*
X155760000Y-75764318D01*
X155603238Y-75784956D01*
X155457159Y-75845464D01*
X155331718Y-75941718D01*
X155326695Y-75948264D01*
X155319022Y-75958264D01*
X155235464Y-76067159D01*
X155174956Y-76213238D01*
X155173878Y-76221426D01*
X155169088Y-76257812D01*
X155154318Y-76370000D01*
X151254365Y-76370000D01*
X151235044Y-76223238D01*
X151174536Y-76077159D01*
X151078282Y-75951718D01*
X150952841Y-75855464D01*
X150806762Y-75794956D01*
X150650000Y-75774318D01*
X150493238Y-75794956D01*
X150347159Y-75855464D01*
X150221718Y-75951718D01*
X150125464Y-76077159D01*
X150064956Y-76223238D01*
X150044318Y-76380000D01*
X148415000Y-76380000D01*
X148415000Y-75584223D01*
X180088391Y-75584223D01*
X180089555Y-75593125D01*
X180089555Y-75593128D01*
X180092823Y-75618116D01*
X180106980Y-75726379D01*
X180164720Y-75857603D01*
X180170497Y-75864476D01*
X180170498Y-75864477D01*
X180235426Y-75941718D01*
X180256970Y-75967348D01*
X180376313Y-76046790D01*
X180513157Y-76089542D01*
X180522129Y-76089706D01*
X180522132Y-76089707D01*
X180587463Y-76090904D01*
X180656499Y-76092170D01*
X180665533Y-76089707D01*
X180786158Y-76056821D01*
X180786160Y-76056820D01*
X180794817Y-76054460D01*
X180916991Y-75979445D01*
X180951140Y-75941718D01*
X181007178Y-75879807D01*
X181013200Y-75873154D01*
X181051609Y-75793878D01*
X181071795Y-75752214D01*
X181071795Y-75752213D01*
X181075710Y-75744133D01*
X181099496Y-75602754D01*
X181099647Y-75590400D01*
X181079323Y-75448482D01*
X181019984Y-75317972D01*
X180971332Y-75261509D01*
X180932260Y-75216163D01*
X180932257Y-75216160D01*
X180926400Y-75209363D01*
X180806095Y-75131385D01*
X180668739Y-75090307D01*
X180659763Y-75090252D01*
X180659762Y-75090252D01*
X180599555Y-75089884D01*
X180525376Y-75089431D01*
X180387529Y-75128828D01*
X180266280Y-75205330D01*
X180171377Y-75312788D01*
X180110447Y-75442563D01*
X180088391Y-75584223D01*
X148415000Y-75584223D01*
X148415000Y-74673823D01*
X157834391Y-74673823D01*
X157835555Y-74682725D01*
X157835555Y-74682728D01*
X157840346Y-74719364D01*
X157852980Y-74815979D01*
X157910720Y-74947203D01*
X157916497Y-74954076D01*
X157916498Y-74954077D01*
X157957202Y-75002500D01*
X158002970Y-75056948D01*
X158122313Y-75136390D01*
X158259157Y-75179142D01*
X158268129Y-75179306D01*
X158268132Y-75179307D01*
X158333463Y-75180504D01*
X158402499Y-75181770D01*
X158411533Y-75179307D01*
X158532158Y-75146421D01*
X158532160Y-75146420D01*
X158540817Y-75144060D01*
X158662991Y-75069045D01*
X158691806Y-75037211D01*
X158753178Y-74969407D01*
X158759200Y-74962754D01*
X158821710Y-74833733D01*
X158845496Y-74692354D01*
X158845647Y-74680000D01*
X158825323Y-74538082D01*
X158765984Y-74407572D01*
X158729276Y-74364970D01*
X158678260Y-74305763D01*
X158678257Y-74305760D01*
X158672400Y-74298963D01*
X158552095Y-74220985D01*
X158414739Y-74179907D01*
X158405763Y-74179852D01*
X158405762Y-74179852D01*
X158345555Y-74179484D01*
X158271376Y-74179031D01*
X158133529Y-74218428D01*
X158012280Y-74294930D01*
X157917377Y-74402388D01*
X157856447Y-74532163D01*
X157852306Y-74558762D01*
X157837518Y-74653741D01*
X157834391Y-74673823D01*
X148415000Y-74673823D01*
X148415000Y-73770000D01*
X149984318Y-73770000D01*
X150004956Y-73926762D01*
X150065464Y-74072841D01*
X150114907Y-74137277D01*
X150152862Y-74186740D01*
X150161718Y-74198282D01*
X150168264Y-74203305D01*
X150187952Y-74218412D01*
X150287159Y-74294536D01*
X150433238Y-74355044D01*
X150441426Y-74356122D01*
X150488672Y-74362342D01*
X150590000Y-74375682D01*
X150598188Y-74374604D01*
X150738574Y-74356122D01*
X150746762Y-74355044D01*
X150892841Y-74294536D01*
X150992048Y-74218412D01*
X151011736Y-74203305D01*
X151018282Y-74198282D01*
X151027139Y-74186740D01*
X151065093Y-74137277D01*
X151114536Y-74072841D01*
X151175044Y-73926762D01*
X151185150Y-73850000D01*
X155144318Y-73850000D01*
X155164956Y-74006762D01*
X155225464Y-74152841D01*
X155247453Y-74181498D01*
X155305343Y-74256941D01*
X155321718Y-74278282D01*
X155447159Y-74374536D01*
X155593238Y-74435044D01*
X155750000Y-74455682D01*
X155758188Y-74454604D01*
X155898574Y-74436122D01*
X155906762Y-74435044D01*
X156052841Y-74374536D01*
X156178282Y-74278282D01*
X156194658Y-74256941D01*
X156252547Y-74181498D01*
X156274536Y-74152841D01*
X156335044Y-74006762D01*
X156355682Y-73850000D01*
X156335044Y-73693238D01*
X156274536Y-73547159D01*
X156178282Y-73421718D01*
X156052841Y-73325464D01*
X155906762Y-73264956D01*
X155750000Y-73244318D01*
X155593238Y-73264956D01*
X155447159Y-73325464D01*
X155321718Y-73421718D01*
X155225464Y-73547159D01*
X155164956Y-73693238D01*
X155144318Y-73850000D01*
X151185150Y-73850000D01*
X151195682Y-73770000D01*
X151175044Y-73613238D01*
X151114536Y-73467159D01*
X151018282Y-73341718D01*
X150892841Y-73245464D01*
X150746762Y-73184956D01*
X150590000Y-73164318D01*
X150433238Y-73184956D01*
X150287159Y-73245464D01*
X150161718Y-73341718D01*
X150065464Y-73467159D01*
X150004956Y-73613238D01*
X149984318Y-73770000D01*
X148415000Y-73770000D01*
X148415000Y-72230442D01*
X148415002Y-72229683D01*
X148415911Y-72078834D01*
X153852700Y-72078834D01*
X153855681Y-72110369D01*
X153900566Y-72238184D01*
X153906158Y-72245754D01*
X153906159Y-72245757D01*
X153959943Y-72318574D01*
X153981050Y-72347150D01*
X153988621Y-72352742D01*
X154082443Y-72422041D01*
X154082446Y-72422042D01*
X154090016Y-72427634D01*
X154217831Y-72472519D01*
X154225477Y-72473242D01*
X154225478Y-72473242D01*
X154231448Y-72473806D01*
X154249366Y-72475500D01*
X155657034Y-72475500D01*
X155674952Y-72473806D01*
X155680922Y-72473242D01*
X155680923Y-72473242D01*
X155688569Y-72472519D01*
X155816384Y-72427634D01*
X155823954Y-72422042D01*
X155823957Y-72422041D01*
X155917779Y-72352742D01*
X155925350Y-72347150D01*
X155946457Y-72318574D01*
X156000241Y-72245757D01*
X156000242Y-72245754D01*
X156005834Y-72238184D01*
X156029778Y-72170000D01*
X156694318Y-72170000D01*
X156714956Y-72326762D01*
X156775464Y-72472841D01*
X156871718Y-72598282D01*
X156997159Y-72694536D01*
X157143238Y-72755044D01*
X157300000Y-72775682D01*
X157308188Y-72774604D01*
X157448574Y-72756122D01*
X157456762Y-72755044D01*
X157602841Y-72694536D01*
X157673914Y-72640000D01*
X159714318Y-72640000D01*
X159734956Y-72796762D01*
X159795464Y-72942841D01*
X159891718Y-73068282D01*
X160017159Y-73164536D01*
X160163238Y-73225044D01*
X160320000Y-73245682D01*
X160471962Y-73225676D01*
X160471963Y-73225676D01*
X160476762Y-73225044D01*
X160476861Y-73225793D01*
X160541355Y-73227330D01*
X160600150Y-73267126D01*
X160628096Y-73332391D01*
X160619697Y-73384477D01*
X160622887Y-73385452D01*
X160620263Y-73394035D01*
X160616447Y-73402163D01*
X160612383Y-73428264D01*
X160603373Y-73486137D01*
X160594391Y-73543823D01*
X160595555Y-73552725D01*
X160595555Y-73552727D01*
X160596814Y-73562354D01*
X160605090Y-73625639D01*
X160594090Y-73695776D01*
X160546916Y-73748834D01*
X160478545Y-73767965D01*
X160444056Y-73762693D01*
X160443697Y-73762586D01*
X160443340Y-73762479D01*
X160443338Y-73762479D01*
X160434739Y-73759907D01*
X160425763Y-73759852D01*
X160425762Y-73759852D01*
X160365555Y-73759484D01*
X160291376Y-73759031D01*
X160153529Y-73798428D01*
X160032280Y-73874930D01*
X159937377Y-73982388D01*
X159876447Y-74112163D01*
X159871302Y-74145211D01*
X159857591Y-74233272D01*
X159854391Y-74253823D01*
X159855555Y-74262725D01*
X159855555Y-74262728D01*
X159856733Y-74271736D01*
X159872980Y-74395979D01*
X159930720Y-74527203D01*
X159936497Y-74534076D01*
X159936498Y-74534077D01*
X159979503Y-74585238D01*
X160022970Y-74636948D01*
X160078366Y-74673823D01*
X160134805Y-74711392D01*
X160142313Y-74716390D01*
X160279157Y-74759142D01*
X160288129Y-74759306D01*
X160288132Y-74759307D01*
X160353463Y-74760504D01*
X160422499Y-74761770D01*
X160431533Y-74759307D01*
X160495015Y-74742000D01*
X187862318Y-74742000D01*
X187882956Y-74898762D01*
X187943464Y-75044841D01*
X188039718Y-75170282D01*
X188046264Y-75175305D01*
X188051265Y-75179142D01*
X188165159Y-75266536D01*
X188311238Y-75327044D01*
X188468000Y-75347682D01*
X188476188Y-75346604D01*
X188616574Y-75328122D01*
X188624762Y-75327044D01*
X188770841Y-75266536D01*
X188884735Y-75179142D01*
X188889736Y-75175305D01*
X188896282Y-75170282D01*
X188992536Y-75044841D01*
X189053044Y-74898762D01*
X189073682Y-74742000D01*
X189053044Y-74585238D01*
X188992536Y-74439159D01*
X188964023Y-74402000D01*
X191930318Y-74402000D01*
X191931396Y-74410188D01*
X191948849Y-74542754D01*
X191950956Y-74558762D01*
X192011464Y-74704841D01*
X192107718Y-74830282D01*
X192233159Y-74926536D01*
X192379238Y-74987044D01*
X192496639Y-75002500D01*
X193075361Y-75002500D01*
X193192762Y-74987044D01*
X193338841Y-74926536D01*
X193464282Y-74830282D01*
X193560536Y-74704841D01*
X193621044Y-74558762D01*
X193623152Y-74542754D01*
X193640604Y-74410188D01*
X193641682Y-74402000D01*
X196502318Y-74402000D01*
X196503396Y-74410188D01*
X196520849Y-74542754D01*
X196522956Y-74558762D01*
X196583464Y-74704841D01*
X196679718Y-74830282D01*
X196805159Y-74926536D01*
X196951238Y-74987044D01*
X197068639Y-75002500D01*
X197647361Y-75002500D01*
X197764762Y-74987044D01*
X197910841Y-74926536D01*
X198036282Y-74830282D01*
X198132536Y-74704841D01*
X198193044Y-74558762D01*
X198195152Y-74542754D01*
X198212604Y-74410188D01*
X198213682Y-74402000D01*
X198193044Y-74245238D01*
X198132536Y-74099159D01*
X198036282Y-73973718D01*
X197968734Y-73921886D01*
X197926867Y-73864549D01*
X197922645Y-73793678D01*
X197957409Y-73731775D01*
X197988235Y-73709657D01*
X197992741Y-73707361D01*
X198046342Y-73680050D01*
X198136050Y-73590342D01*
X198193646Y-73477304D01*
X198196291Y-73460608D01*
X198204142Y-73411035D01*
X198208500Y-73383519D01*
X198208499Y-72920482D01*
X198207724Y-72915588D01*
X198195198Y-72836494D01*
X198195197Y-72836492D01*
X198193646Y-72826696D01*
X198182282Y-72804392D01*
X198167653Y-72775682D01*
X198136050Y-72713658D01*
X198046342Y-72623950D01*
X197933304Y-72566354D01*
X197923515Y-72564804D01*
X197923513Y-72564803D01*
X197896151Y-72560470D01*
X197839519Y-72551500D01*
X197358098Y-72551500D01*
X196876482Y-72551501D01*
X196871589Y-72552276D01*
X196871588Y-72552276D01*
X196792494Y-72564802D01*
X196792492Y-72564803D01*
X196782696Y-72566354D01*
X196669658Y-72623950D01*
X196579950Y-72713658D01*
X196522354Y-72826696D01*
X196507500Y-72920481D01*
X196507501Y-73383518D01*
X196508276Y-73388409D01*
X196508276Y-73388412D01*
X196512799Y-73416968D01*
X196522354Y-73477304D01*
X196579950Y-73590342D01*
X196669658Y-73680050D01*
X196723259Y-73707361D01*
X196727765Y-73709657D01*
X196779380Y-73758405D01*
X196796446Y-73827320D01*
X196773545Y-73894522D01*
X196747267Y-73921886D01*
X196679718Y-73973718D01*
X196583464Y-74099159D01*
X196522956Y-74245238D01*
X196502318Y-74402000D01*
X193641682Y-74402000D01*
X193621044Y-74245238D01*
X193560536Y-74099159D01*
X193464282Y-73973718D01*
X193396734Y-73921886D01*
X193354867Y-73864549D01*
X193350645Y-73793678D01*
X193385409Y-73731775D01*
X193416235Y-73709657D01*
X193420741Y-73707361D01*
X193474342Y-73680050D01*
X193564050Y-73590342D01*
X193621646Y-73477304D01*
X193624291Y-73460608D01*
X193632142Y-73411035D01*
X193636500Y-73383519D01*
X193636499Y-72920482D01*
X193635724Y-72915588D01*
X193623198Y-72836494D01*
X193623197Y-72836492D01*
X193621646Y-72826696D01*
X193610282Y-72804392D01*
X193595653Y-72775682D01*
X193564050Y-72713658D01*
X193474342Y-72623950D01*
X193361304Y-72566354D01*
X193351515Y-72564804D01*
X193351513Y-72564803D01*
X193324151Y-72560470D01*
X193267519Y-72551500D01*
X192786098Y-72551500D01*
X192304482Y-72551501D01*
X192299589Y-72552276D01*
X192299588Y-72552276D01*
X192220494Y-72564802D01*
X192220492Y-72564803D01*
X192210696Y-72566354D01*
X192097658Y-72623950D01*
X192007950Y-72713658D01*
X191950354Y-72826696D01*
X191935500Y-72920481D01*
X191935501Y-73383518D01*
X191936276Y-73388409D01*
X191936276Y-73388412D01*
X191940799Y-73416968D01*
X191950354Y-73477304D01*
X192007950Y-73590342D01*
X192097658Y-73680050D01*
X192151259Y-73707361D01*
X192155765Y-73709657D01*
X192207380Y-73758405D01*
X192224446Y-73827320D01*
X192201545Y-73894522D01*
X192175267Y-73921886D01*
X192107718Y-73973718D01*
X192011464Y-74099159D01*
X191950956Y-74245238D01*
X191930318Y-74402000D01*
X188964023Y-74402000D01*
X188896282Y-74313718D01*
X188871284Y-74294536D01*
X188836040Y-74267493D01*
X188770841Y-74217464D01*
X188624762Y-74156956D01*
X188468000Y-74136318D01*
X188311238Y-74156956D01*
X188165159Y-74217464D01*
X188099960Y-74267493D01*
X188064717Y-74294536D01*
X188039718Y-74313718D01*
X187943464Y-74439159D01*
X187882956Y-74585238D01*
X187862318Y-74742000D01*
X160495015Y-74742000D01*
X160552158Y-74726421D01*
X160552160Y-74726420D01*
X160560817Y-74724060D01*
X160682991Y-74649045D01*
X160779200Y-74542754D01*
X160841710Y-74413733D01*
X160865496Y-74272354D01*
X160865647Y-74260000D01*
X160855155Y-74186738D01*
X160865297Y-74116471D01*
X160911820Y-74062841D01*
X160979952Y-74042877D01*
X161001545Y-74046179D01*
X161001731Y-74045030D01*
X161010587Y-74046465D01*
X161019157Y-74049142D01*
X161028129Y-74049306D01*
X161028132Y-74049307D01*
X161093463Y-74050504D01*
X161162499Y-74051770D01*
X161171533Y-74049307D01*
X161292158Y-74016421D01*
X161292160Y-74016420D01*
X161300817Y-74014060D01*
X161422991Y-73939045D01*
X161519200Y-73832754D01*
X161573311Y-73721069D01*
X161577795Y-73711814D01*
X161577795Y-73711813D01*
X161581710Y-73703733D01*
X161605496Y-73562354D01*
X161605647Y-73550000D01*
X161593833Y-73467506D01*
X161586596Y-73416968D01*
X161586595Y-73416965D01*
X161585323Y-73408082D01*
X161574155Y-73383518D01*
X161566179Y-73365977D01*
X161525984Y-73277572D01*
X161495595Y-73242304D01*
X161438260Y-73175763D01*
X161438257Y-73175760D01*
X161432400Y-73168963D01*
X161312095Y-73090985D01*
X161174739Y-73049907D01*
X161165763Y-73049852D01*
X161165762Y-73049852D01*
X161105555Y-73049484D01*
X161031376Y-73049031D01*
X161020442Y-73052156D01*
X161018066Y-73052139D01*
X161013853Y-73052716D01*
X161013770Y-73052108D01*
X160949449Y-73051642D01*
X160890002Y-73012828D01*
X160860976Y-72948036D01*
X160869411Y-72882788D01*
X160901884Y-72804392D01*
X160901885Y-72804389D01*
X160905044Y-72796762D01*
X160925682Y-72640000D01*
X160905044Y-72483238D01*
X160844536Y-72337159D01*
X160748282Y-72211718D01*
X160622841Y-72115464D01*
X160476762Y-72054956D01*
X160320000Y-72034318D01*
X160163238Y-72054956D01*
X160017159Y-72115464D01*
X159891718Y-72211718D01*
X159795464Y-72337159D01*
X159734956Y-72483238D01*
X159714318Y-72640000D01*
X157673914Y-72640000D01*
X157728282Y-72598282D01*
X157824536Y-72472841D01*
X157885044Y-72326762D01*
X157905682Y-72170000D01*
X157885044Y-72013238D01*
X157824536Y-71867159D01*
X157728282Y-71741718D01*
X157718984Y-71734583D01*
X157609392Y-71650491D01*
X157602841Y-71645464D01*
X157456762Y-71584956D01*
X157441837Y-71582991D01*
X157308188Y-71565396D01*
X157300000Y-71564318D01*
X157291812Y-71565396D01*
X157158164Y-71582991D01*
X157143238Y-71584956D01*
X156997159Y-71645464D01*
X156990608Y-71650491D01*
X156881017Y-71734583D01*
X156871718Y-71741718D01*
X156775464Y-71867159D01*
X156714956Y-72013238D01*
X156694318Y-72170000D01*
X156029778Y-72170000D01*
X156050719Y-72110369D01*
X156053700Y-72078834D01*
X156053700Y-71469423D01*
X164695991Y-71469423D01*
X164697155Y-71478325D01*
X164697155Y-71478328D01*
X164701685Y-71512967D01*
X164714580Y-71611579D01*
X164772320Y-71742803D01*
X164778097Y-71749676D01*
X164778098Y-71749677D01*
X164812029Y-71790043D01*
X164864570Y-71852548D01*
X164983913Y-71931990D01*
X165120757Y-71974742D01*
X165129729Y-71974906D01*
X165129732Y-71974907D01*
X165195063Y-71976104D01*
X165264099Y-71977370D01*
X165273133Y-71974907D01*
X165393758Y-71942021D01*
X165393760Y-71942020D01*
X165402417Y-71939660D01*
X165524591Y-71864645D01*
X165620800Y-71758354D01*
X165664933Y-71667264D01*
X165679395Y-71637414D01*
X165679395Y-71637413D01*
X165683310Y-71629333D01*
X165707096Y-71487954D01*
X165707247Y-71475600D01*
X165696134Y-71397999D01*
X165688196Y-71342568D01*
X165688195Y-71342565D01*
X165686923Y-71333682D01*
X165678739Y-71315681D01*
X165649328Y-71250996D01*
X165627584Y-71203172D01*
X165573527Y-71140436D01*
X165539860Y-71101363D01*
X165539857Y-71101360D01*
X165534000Y-71094563D01*
X165413695Y-71016585D01*
X165276339Y-70975507D01*
X165267363Y-70975452D01*
X165267362Y-70975452D01*
X165207155Y-70975084D01*
X165132976Y-70974631D01*
X164995129Y-71014028D01*
X164873880Y-71090530D01*
X164778977Y-71197988D01*
X164718047Y-71327763D01*
X164716666Y-71336635D01*
X164697426Y-71460207D01*
X164695991Y-71469423D01*
X156053700Y-71469423D01*
X156053700Y-71271166D01*
X156050719Y-71239631D01*
X156005834Y-71111816D01*
X156000242Y-71104246D01*
X156000241Y-71104243D01*
X155930942Y-71010421D01*
X155925350Y-71002850D01*
X155886067Y-70973835D01*
X155823957Y-70927959D01*
X155823954Y-70927958D01*
X155816384Y-70922366D01*
X155688569Y-70877481D01*
X155680923Y-70876758D01*
X155680922Y-70876758D01*
X155674952Y-70876194D01*
X155657034Y-70874500D01*
X154249366Y-70874500D01*
X154231448Y-70876194D01*
X154225478Y-70876758D01*
X154225477Y-70876758D01*
X154217831Y-70877481D01*
X154090016Y-70922366D01*
X154082446Y-70927958D01*
X154082443Y-70927959D01*
X154020333Y-70973835D01*
X153981050Y-71002850D01*
X153975458Y-71010421D01*
X153906159Y-71104243D01*
X153906158Y-71104246D01*
X153900566Y-71111816D01*
X153855681Y-71239631D01*
X153852700Y-71271166D01*
X153852700Y-72078834D01*
X148415911Y-72078834D01*
X148430426Y-69669376D01*
X153847655Y-69669376D01*
X153848391Y-69676379D01*
X153848391Y-69676380D01*
X153862131Y-69807107D01*
X153866427Y-69847983D01*
X153868698Y-69854654D01*
X153919449Y-70003733D01*
X153924303Y-70017993D01*
X153927993Y-70023991D01*
X153927994Y-70023993D01*
X153936435Y-70037714D01*
X154018406Y-70170955D01*
X154023332Y-70175986D01*
X154023335Y-70175989D01*
X154027038Y-70179770D01*
X154144059Y-70299268D01*
X154149984Y-70303087D01*
X154149986Y-70303088D01*
X154221288Y-70349039D01*
X154295017Y-70396554D01*
X154301637Y-70398963D01*
X154301640Y-70398965D01*
X154457161Y-70455570D01*
X154457164Y-70455571D01*
X154463778Y-70457978D01*
X154490321Y-70461331D01*
X154598555Y-70475004D01*
X154598558Y-70475004D01*
X154602483Y-70475500D01*
X155298355Y-70475500D01*
X155431672Y-70460546D01*
X155439047Y-70457978D01*
X155507115Y-70434274D01*
X155601273Y-70401485D01*
X155609165Y-70396554D01*
X155747601Y-70310049D01*
X155753575Y-70306316D01*
X155840423Y-70220072D01*
X155876010Y-70184733D01*
X155876013Y-70184729D01*
X155881007Y-70179770D01*
X155888328Y-70168235D01*
X155967838Y-70042946D01*
X155977237Y-70028136D01*
X155990052Y-69992146D01*
X156035119Y-69865586D01*
X156035120Y-69865581D01*
X156037481Y-69858951D01*
X156038314Y-69851965D01*
X156038315Y-69851961D01*
X156039285Y-69843823D01*
X163324391Y-69843823D01*
X163325555Y-69852725D01*
X163325555Y-69852728D01*
X163333686Y-69914901D01*
X163342980Y-69985979D01*
X163400720Y-70117203D01*
X163406497Y-70124076D01*
X163406498Y-70124077D01*
X163453313Y-70179770D01*
X163492970Y-70226948D01*
X163500447Y-70231925D01*
X163604745Y-70301352D01*
X163612313Y-70306390D01*
X163749157Y-70349142D01*
X163758129Y-70349306D01*
X163758132Y-70349307D01*
X163823463Y-70350504D01*
X163892499Y-70351770D01*
X163901533Y-70349307D01*
X163963298Y-70332468D01*
X165099603Y-70332468D01*
X165113234Y-70332433D01*
X165113236Y-70332433D01*
X166351229Y-70329214D01*
X166419402Y-70349039D01*
X166466034Y-70402574D01*
X166477557Y-70455001D01*
X166482940Y-73659618D01*
X166496814Y-73659450D01*
X166496816Y-73659450D01*
X167373746Y-73648807D01*
X167442104Y-73667981D01*
X167489245Y-73721069D01*
X167499775Y-73794182D01*
X167492734Y-73839407D01*
X167489991Y-73857023D01*
X167491155Y-73865925D01*
X167491155Y-73865928D01*
X167498040Y-73918574D01*
X167508580Y-73999179D01*
X167566320Y-74130403D01*
X167572097Y-74137276D01*
X167572098Y-74137277D01*
X167639502Y-74217464D01*
X167658570Y-74240148D01*
X167706024Y-74271736D01*
X167769092Y-74313718D01*
X167777913Y-74319590D01*
X167914757Y-74362342D01*
X167923729Y-74362506D01*
X167923732Y-74362507D01*
X167989063Y-74363704D01*
X168058099Y-74364970D01*
X168067133Y-74362507D01*
X168187758Y-74329621D01*
X168187760Y-74329620D01*
X168196417Y-74327260D01*
X168318591Y-74252245D01*
X168324934Y-74245238D01*
X168408778Y-74152607D01*
X168414800Y-74145954D01*
X168461705Y-74049142D01*
X168473395Y-74025014D01*
X168473395Y-74025013D01*
X168477310Y-74016933D01*
X168501096Y-73875554D01*
X168501247Y-73863200D01*
X168488992Y-73777628D01*
X168499134Y-73707361D01*
X168545657Y-73653731D01*
X168612189Y-73633776D01*
X170065219Y-73616142D01*
X170619086Y-73609420D01*
X170619087Y-73609420D01*
X170637200Y-73609200D01*
X170668642Y-73557493D01*
X171815965Y-71670664D01*
X171877764Y-71569033D01*
X171879626Y-71552725D01*
X171938396Y-71037768D01*
X171953012Y-70909704D01*
X171980609Y-70844290D01*
X171989104Y-70834896D01*
X172522977Y-70301023D01*
X174144791Y-70301023D01*
X174145955Y-70309925D01*
X174145955Y-70309928D01*
X174148898Y-70332433D01*
X174163380Y-70443179D01*
X174221120Y-70574403D01*
X174226897Y-70581276D01*
X174226898Y-70581277D01*
X174307590Y-70677272D01*
X174313370Y-70684148D01*
X174358241Y-70714017D01*
X174418903Y-70754397D01*
X174432713Y-70763590D01*
X174569557Y-70806342D01*
X174578529Y-70806506D01*
X174578532Y-70806507D01*
X174681601Y-70808396D01*
X174706687Y-70808856D01*
X174774429Y-70830104D01*
X174819931Y-70884602D01*
X174828745Y-70955050D01*
X174809702Y-71003977D01*
X174803799Y-71010661D01*
X174799986Y-71018783D01*
X174799985Y-71018784D01*
X174798023Y-71022963D01*
X174742869Y-71140436D01*
X174737385Y-71175659D01*
X174722515Y-71271166D01*
X174720813Y-71282096D01*
X174721977Y-71290998D01*
X174721977Y-71291001D01*
X174727945Y-71336635D01*
X174739402Y-71424252D01*
X174797142Y-71555476D01*
X174802919Y-71562349D01*
X174802920Y-71562350D01*
X174877010Y-71650491D01*
X174889392Y-71665221D01*
X175008735Y-71744663D01*
X175145579Y-71787415D01*
X175154551Y-71787579D01*
X175154554Y-71787580D01*
X175219885Y-71788777D01*
X175288921Y-71790043D01*
X175297955Y-71787580D01*
X175418580Y-71754694D01*
X175418582Y-71754693D01*
X175427239Y-71752333D01*
X175549413Y-71677318D01*
X175556090Y-71669942D01*
X175639600Y-71577680D01*
X175645622Y-71571027D01*
X175675276Y-71509821D01*
X175722978Y-71457238D01*
X175791536Y-71438792D01*
X175859184Y-71460339D01*
X175885118Y-71483683D01*
X175938970Y-71547748D01*
X175963863Y-71564318D01*
X176048092Y-71620386D01*
X176058313Y-71627190D01*
X176195157Y-71669942D01*
X176204129Y-71670106D01*
X176204132Y-71670107D01*
X176269463Y-71671304D01*
X176338499Y-71672570D01*
X176347163Y-71670208D01*
X176468158Y-71637221D01*
X176468160Y-71637220D01*
X176476817Y-71634860D01*
X176598991Y-71559845D01*
X176641423Y-71512967D01*
X176689178Y-71460207D01*
X176695200Y-71453554D01*
X176751847Y-71336635D01*
X176753795Y-71332614D01*
X176753795Y-71332613D01*
X176757710Y-71324533D01*
X176781496Y-71183154D01*
X176781647Y-71170800D01*
X176774049Y-71117745D01*
X179111208Y-71117745D01*
X179112372Y-71126647D01*
X179112372Y-71126650D01*
X179119761Y-71183154D01*
X179129797Y-71259901D01*
X179187537Y-71391125D01*
X179193314Y-71397998D01*
X179193315Y-71397999D01*
X179274007Y-71493994D01*
X179279787Y-71500870D01*
X179399130Y-71580312D01*
X179535974Y-71623064D01*
X179544946Y-71623228D01*
X179544949Y-71623229D01*
X179610280Y-71624426D01*
X179679316Y-71625692D01*
X179688350Y-71623229D01*
X179808975Y-71590343D01*
X179808977Y-71590342D01*
X179817634Y-71587982D01*
X179939808Y-71512967D01*
X179962449Y-71487954D01*
X180029995Y-71413329D01*
X180036017Y-71406676D01*
X180098527Y-71277655D01*
X180122313Y-71136276D01*
X180122464Y-71123922D01*
X180110126Y-71037768D01*
X180103413Y-70990890D01*
X180103412Y-70990887D01*
X180102140Y-70982004D01*
X180075025Y-70922366D01*
X180051192Y-70869949D01*
X180041206Y-70799658D01*
X180070806Y-70735127D01*
X180099964Y-70710423D01*
X180142757Y-70684148D01*
X180205791Y-70645445D01*
X180263873Y-70581277D01*
X180295978Y-70545807D01*
X180302000Y-70539154D01*
X180364510Y-70410133D01*
X180388296Y-70268754D01*
X180388447Y-70256400D01*
X180377473Y-70179770D01*
X180369396Y-70123368D01*
X180369395Y-70123365D01*
X180368123Y-70114482D01*
X180308784Y-69983972D01*
X180264832Y-69932963D01*
X180221060Y-69882163D01*
X180221057Y-69882160D01*
X180215200Y-69875363D01*
X180094895Y-69797385D01*
X179957539Y-69756307D01*
X179948563Y-69756252D01*
X179948562Y-69756252D01*
X179888355Y-69755884D01*
X179814176Y-69755431D01*
X179676329Y-69794828D01*
X179555080Y-69871330D01*
X179460177Y-69978788D01*
X179399247Y-70108563D01*
X179397866Y-70117435D01*
X179380815Y-70226948D01*
X179377191Y-70250223D01*
X179378355Y-70259125D01*
X179378355Y-70259128D01*
X179384998Y-70309928D01*
X179395780Y-70392379D01*
X179425033Y-70458860D01*
X179448197Y-70511505D01*
X179457325Y-70581912D01*
X179426938Y-70646077D01*
X179400104Y-70668812D01*
X179289097Y-70738852D01*
X179194194Y-70846310D01*
X179133264Y-70976085D01*
X179126958Y-71016585D01*
X179113759Y-71101363D01*
X179111208Y-71117745D01*
X176774049Y-71117745D01*
X176761323Y-71028882D01*
X176755396Y-71015845D01*
X176705700Y-70906546D01*
X176701984Y-70898372D01*
X176661591Y-70851494D01*
X176614260Y-70796563D01*
X176614257Y-70796560D01*
X176608400Y-70789763D01*
X176488095Y-70711785D01*
X176350739Y-70670707D01*
X176341763Y-70670652D01*
X176341762Y-70670652D01*
X176281555Y-70670284D01*
X176207376Y-70669831D01*
X176069529Y-70709228D01*
X175948280Y-70785730D01*
X175942338Y-70792458D01*
X175942337Y-70792459D01*
X175904858Y-70834896D01*
X175853377Y-70893188D01*
X175839678Y-70922366D01*
X175827833Y-70947594D01*
X175780776Y-71000756D01*
X175712448Y-71020038D01*
X175644542Y-70999318D01*
X175618325Y-70976292D01*
X175564685Y-70914039D01*
X175564680Y-70914035D01*
X175558822Y-70907236D01*
X175438517Y-70829258D01*
X175301161Y-70788180D01*
X175292185Y-70788125D01*
X175292184Y-70788125D01*
X175171096Y-70787385D01*
X175103099Y-70766967D01*
X175056935Y-70713028D01*
X175047260Y-70642693D01*
X175066418Y-70593469D01*
X175069600Y-70589954D01*
X175077135Y-70574403D01*
X175128195Y-70469014D01*
X175128195Y-70469013D01*
X175132110Y-70460933D01*
X175155896Y-70319554D01*
X175156047Y-70307200D01*
X175144554Y-70226948D01*
X175136996Y-70174168D01*
X175136995Y-70174165D01*
X175135723Y-70165282D01*
X175123959Y-70139407D01*
X175112626Y-70114482D01*
X175076384Y-70034772D01*
X175018972Y-69968142D01*
X174988660Y-69932963D01*
X174988657Y-69932960D01*
X174982800Y-69926163D01*
X174862495Y-69848185D01*
X174725139Y-69807107D01*
X174716163Y-69807052D01*
X174716162Y-69807052D01*
X174655955Y-69806684D01*
X174581776Y-69806231D01*
X174443929Y-69845628D01*
X174322680Y-69922130D01*
X174227777Y-70029588D01*
X174166847Y-70159363D01*
X174163670Y-70179770D01*
X174149069Y-70273549D01*
X174144791Y-70301023D01*
X172522977Y-70301023D01*
X172973493Y-69850507D01*
X173035805Y-69816481D01*
X173106620Y-69821546D01*
X173142848Y-69843423D01*
X173144970Y-69845948D01*
X173264313Y-69925390D01*
X173401157Y-69968142D01*
X173410129Y-69968306D01*
X173410132Y-69968307D01*
X173475463Y-69969504D01*
X173544499Y-69970770D01*
X173553533Y-69968307D01*
X173674158Y-69935421D01*
X173674160Y-69935420D01*
X173682817Y-69933060D01*
X173804991Y-69858045D01*
X173811896Y-69850417D01*
X173895178Y-69758407D01*
X173901200Y-69751754D01*
X173963710Y-69622733D01*
X173987496Y-69481354D01*
X173987647Y-69469000D01*
X173979473Y-69411924D01*
X173968596Y-69335968D01*
X173968595Y-69335965D01*
X173967323Y-69327082D01*
X173962244Y-69315910D01*
X173934728Y-69255392D01*
X173907984Y-69196572D01*
X173838034Y-69115391D01*
X173820260Y-69094763D01*
X173820257Y-69094760D01*
X173814400Y-69087963D01*
X173694095Y-69009985D01*
X173556739Y-68968907D01*
X173547763Y-68968852D01*
X173547762Y-68968852D01*
X173487555Y-68968484D01*
X173413376Y-68968031D01*
X173275529Y-69007428D01*
X173154280Y-69083930D01*
X173148338Y-69090658D01*
X173148337Y-69090659D01*
X173126495Y-69115391D01*
X173059377Y-69191388D01*
X172998447Y-69321163D01*
X172997065Y-69330039D01*
X172996293Y-69334993D01*
X172966047Y-69399224D01*
X172905876Y-69436907D01*
X172834885Y-69436077D01*
X172782699Y-69404699D01*
X172329000Y-68951000D01*
X191930318Y-68951000D01*
X191950956Y-69107762D01*
X192011464Y-69253841D01*
X192107718Y-69379282D01*
X192114264Y-69384305D01*
X192119616Y-69388412D01*
X192233159Y-69475536D01*
X192379238Y-69536044D01*
X192387426Y-69537122D01*
X192458660Y-69546500D01*
X192496639Y-69551500D01*
X193075361Y-69551500D01*
X193113341Y-69546500D01*
X193184574Y-69537122D01*
X193192762Y-69536044D01*
X193338841Y-69475536D01*
X193452384Y-69388412D01*
X193457736Y-69384305D01*
X193464282Y-69379282D01*
X193560536Y-69253841D01*
X193621044Y-69107762D01*
X193641682Y-68951000D01*
X193641024Y-68946000D01*
X196502318Y-68946000D01*
X196522956Y-69102762D01*
X196583464Y-69248841D01*
X196679718Y-69374282D01*
X196805159Y-69470536D01*
X196951238Y-69531044D01*
X197068639Y-69546500D01*
X197647361Y-69546500D01*
X197764762Y-69531044D01*
X197910841Y-69470536D01*
X198036282Y-69374282D01*
X198132536Y-69248841D01*
X198193044Y-69102762D01*
X198213682Y-68946000D01*
X198193044Y-68789238D01*
X198132536Y-68643159D01*
X198036282Y-68517718D01*
X197968734Y-68465886D01*
X197926867Y-68408549D01*
X197922645Y-68337678D01*
X197957409Y-68275775D01*
X197988235Y-68253657D01*
X198037510Y-68228550D01*
X198037509Y-68228550D01*
X198046342Y-68224050D01*
X198136050Y-68134342D01*
X198193646Y-68021304D01*
X198208500Y-67927519D01*
X198208499Y-67464482D01*
X198207724Y-67459588D01*
X198195198Y-67380494D01*
X198195197Y-67380492D01*
X198193646Y-67370696D01*
X198183537Y-67350855D01*
X198172149Y-67328506D01*
X198136050Y-67257658D01*
X198046342Y-67167950D01*
X197933304Y-67110354D01*
X197923515Y-67108804D01*
X197923513Y-67108803D01*
X197888362Y-67103236D01*
X197839519Y-67095500D01*
X197358098Y-67095500D01*
X196876482Y-67095501D01*
X196871589Y-67096276D01*
X196871588Y-67096276D01*
X196792494Y-67108802D01*
X196792492Y-67108803D01*
X196782696Y-67110354D01*
X196773859Y-67114857D01*
X196773858Y-67114857D01*
X196751659Y-67126168D01*
X196669658Y-67167950D01*
X196579950Y-67257658D01*
X196522354Y-67370696D01*
X196520804Y-67380485D01*
X196520803Y-67380487D01*
X196517174Y-67403399D01*
X196507500Y-67464481D01*
X196507501Y-67927518D01*
X196522354Y-68021304D01*
X196579950Y-68134342D01*
X196669658Y-68224050D01*
X196678491Y-68228550D01*
X196678490Y-68228550D01*
X196727765Y-68253657D01*
X196779380Y-68302405D01*
X196796446Y-68371320D01*
X196773545Y-68438522D01*
X196747267Y-68465886D01*
X196679718Y-68517718D01*
X196583464Y-68643159D01*
X196522956Y-68789238D01*
X196502318Y-68946000D01*
X193641024Y-68946000D01*
X193621044Y-68794238D01*
X193560536Y-68648159D01*
X193464282Y-68522718D01*
X193396734Y-68470886D01*
X193354867Y-68413549D01*
X193350645Y-68342678D01*
X193385409Y-68280775D01*
X193416235Y-68258657D01*
X193474342Y-68229050D01*
X193564050Y-68139342D01*
X193621646Y-68026304D01*
X193623932Y-68011874D01*
X193632938Y-67955007D01*
X193636500Y-67932519D01*
X193636499Y-67469482D01*
X193632284Y-67442869D01*
X193623198Y-67385494D01*
X193623197Y-67385492D01*
X193621646Y-67375696D01*
X193564050Y-67262658D01*
X193474342Y-67172950D01*
X193361304Y-67115354D01*
X193351515Y-67113804D01*
X193351513Y-67113803D01*
X193319936Y-67108802D01*
X193267519Y-67100500D01*
X192786098Y-67100500D01*
X192304482Y-67100501D01*
X192299589Y-67101276D01*
X192299588Y-67101276D01*
X192220494Y-67113802D01*
X192220492Y-67113803D01*
X192210696Y-67115354D01*
X192201859Y-67119857D01*
X192201858Y-67119857D01*
X192189472Y-67126168D01*
X192097658Y-67172950D01*
X192007950Y-67262658D01*
X191950354Y-67375696D01*
X191948804Y-67385485D01*
X191948803Y-67385487D01*
X191947586Y-67393172D01*
X191935500Y-67469481D01*
X191935501Y-67932518D01*
X191936276Y-67937409D01*
X191936276Y-67937412D01*
X191948069Y-68011874D01*
X191950354Y-68026304D01*
X191954855Y-68035137D01*
X191954857Y-68035142D01*
X191966451Y-68057895D01*
X192007950Y-68139342D01*
X192097658Y-68229050D01*
X192155765Y-68258657D01*
X192207380Y-68307405D01*
X192224446Y-68376320D01*
X192201545Y-68443522D01*
X192175267Y-68470886D01*
X192107718Y-68522718D01*
X192011464Y-68648159D01*
X191950956Y-68794238D01*
X191930318Y-68951000D01*
X172329000Y-68951000D01*
X171069356Y-67691356D01*
X171051919Y-67659423D01*
X175719591Y-67659423D01*
X175720755Y-67668325D01*
X175720755Y-67668328D01*
X175723841Y-67691925D01*
X175738180Y-67801579D01*
X175741797Y-67809799D01*
X175775999Y-67887528D01*
X175795920Y-67932803D01*
X175801697Y-67939676D01*
X175801698Y-67939677D01*
X175882390Y-68035672D01*
X175888170Y-68042548D01*
X176007513Y-68121990D01*
X176144357Y-68164742D01*
X176153329Y-68164906D01*
X176153332Y-68164907D01*
X176218663Y-68166104D01*
X176287699Y-68167370D01*
X176296733Y-68164907D01*
X176417358Y-68132021D01*
X176417360Y-68132020D01*
X176426017Y-68129660D01*
X176548191Y-68054645D01*
X176571405Y-68028999D01*
X176638378Y-67955007D01*
X176644400Y-67948354D01*
X176706910Y-67819333D01*
X176730696Y-67677954D01*
X176730847Y-67665600D01*
X176716297Y-67564000D01*
X176711796Y-67532568D01*
X176711795Y-67532565D01*
X176710523Y-67523682D01*
X176697640Y-67495346D01*
X176683644Y-67464564D01*
X176651184Y-67393172D01*
X176589741Y-67321864D01*
X176574196Y-67303823D01*
X184812791Y-67303823D01*
X184813955Y-67312725D01*
X184813955Y-67312728D01*
X184821034Y-67366858D01*
X184831380Y-67445979D01*
X184841702Y-67469437D01*
X184883311Y-67564000D01*
X184889120Y-67577203D01*
X184894897Y-67584076D01*
X184894898Y-67584077D01*
X184968744Y-67671928D01*
X184981370Y-67686948D01*
X185035920Y-67723260D01*
X185092571Y-67760970D01*
X185100713Y-67766390D01*
X185237557Y-67809142D01*
X185246529Y-67809306D01*
X185246532Y-67809307D01*
X185311863Y-67810504D01*
X185380899Y-67811770D01*
X185389933Y-67809307D01*
X185510558Y-67776421D01*
X185510560Y-67776420D01*
X185519217Y-67774060D01*
X185641391Y-67699045D01*
X185660482Y-67677954D01*
X185731578Y-67599407D01*
X185737600Y-67592754D01*
X185786876Y-67491049D01*
X185796195Y-67471814D01*
X185796195Y-67471813D01*
X185800110Y-67463733D01*
X185823896Y-67322354D01*
X185824047Y-67310000D01*
X185815887Y-67253023D01*
X186997191Y-67253023D01*
X186998355Y-67261925D01*
X186998355Y-67261928D01*
X187004998Y-67312728D01*
X187015780Y-67395179D01*
X187019397Y-67403399D01*
X187063886Y-67504507D01*
X187073520Y-67526403D01*
X187079297Y-67533276D01*
X187079298Y-67533277D01*
X187096248Y-67553441D01*
X187165770Y-67636148D01*
X187173247Y-67641125D01*
X187267313Y-67703741D01*
X187285113Y-67715590D01*
X187421957Y-67758342D01*
X187430929Y-67758506D01*
X187430932Y-67758507D01*
X187496263Y-67759704D01*
X187565299Y-67760970D01*
X187596370Y-67752499D01*
X187667353Y-67753880D01*
X187726321Y-67793418D01*
X187754553Y-67858560D01*
X187755280Y-67871628D01*
X187754191Y-67878623D01*
X187755355Y-67887525D01*
X187755355Y-67887528D01*
X187762101Y-67939112D01*
X187772780Y-68020779D01*
X187776397Y-68028999D01*
X187818623Y-68124964D01*
X187830520Y-68152003D01*
X187836297Y-68158876D01*
X187836298Y-68158877D01*
X187899067Y-68233550D01*
X187922770Y-68261748D01*
X188042113Y-68341190D01*
X188178957Y-68383942D01*
X188187929Y-68384106D01*
X188187932Y-68384107D01*
X188253263Y-68385304D01*
X188322299Y-68386570D01*
X188331333Y-68384107D01*
X188451958Y-68351221D01*
X188451960Y-68351220D01*
X188460617Y-68348860D01*
X188582791Y-68273845D01*
X188596539Y-68258657D01*
X188672978Y-68174207D01*
X188679000Y-68167554D01*
X188679496Y-68168003D01*
X188728884Y-68127092D01*
X188799365Y-68118552D01*
X188816242Y-68122573D01*
X188947490Y-68163577D01*
X188956462Y-68163741D01*
X188956465Y-68163742D01*
X189021796Y-68164939D01*
X189090832Y-68166205D01*
X189099866Y-68163742D01*
X189220491Y-68130856D01*
X189220493Y-68130855D01*
X189229150Y-68128495D01*
X189351324Y-68053480D01*
X189447533Y-67947189D01*
X189492366Y-67854654D01*
X189506128Y-67826249D01*
X189506128Y-67826248D01*
X189510043Y-67818168D01*
X189533829Y-67676789D01*
X189533980Y-67664435D01*
X189521488Y-67577203D01*
X189514929Y-67531403D01*
X189514928Y-67531400D01*
X189513656Y-67522517D01*
X189507800Y-67509636D01*
X189487317Y-67464588D01*
X189454317Y-67392007D01*
X189408365Y-67338677D01*
X189366593Y-67290198D01*
X189366590Y-67290195D01*
X189360733Y-67283398D01*
X189240428Y-67205420D01*
X189103072Y-67164342D01*
X189094096Y-67164287D01*
X189094095Y-67164287D01*
X189033888Y-67163919D01*
X188959709Y-67163466D01*
X188821862Y-67202863D01*
X188700613Y-67279365D01*
X188694671Y-67286093D01*
X188694670Y-67286094D01*
X188673557Y-67310000D01*
X188605710Y-67386823D01*
X188603443Y-67384821D01*
X188560876Y-67420971D01*
X188490505Y-67430376D01*
X188472175Y-67424850D01*
X188471895Y-67425785D01*
X188334539Y-67384707D01*
X188325563Y-67384652D01*
X188325562Y-67384652D01*
X188265355Y-67384284D01*
X188191176Y-67383831D01*
X188168961Y-67390180D01*
X188097968Y-67389668D01*
X188038520Y-67350855D01*
X188009493Y-67286063D01*
X188008346Y-67267496D01*
X188008388Y-67264062D01*
X188008388Y-67264056D01*
X188008447Y-67259200D01*
X187996671Y-67176968D01*
X187989396Y-67126168D01*
X187989395Y-67126165D01*
X187988123Y-67117282D01*
X187984268Y-67108802D01*
X187948788Y-67030769D01*
X187928784Y-66986772D01*
X187897991Y-66951035D01*
X187841060Y-66884963D01*
X187841057Y-66884960D01*
X187835200Y-66878163D01*
X187714895Y-66800185D01*
X187577539Y-66759107D01*
X187568563Y-66759052D01*
X187568562Y-66759052D01*
X187508355Y-66758684D01*
X187434176Y-66758231D01*
X187296329Y-66797628D01*
X187175080Y-66874130D01*
X187080177Y-66981588D01*
X187019247Y-67111363D01*
X187017866Y-67120235D01*
X187003661Y-67211471D01*
X186997191Y-67253023D01*
X185815887Y-67253023D01*
X185808351Y-67200397D01*
X185804996Y-67176968D01*
X185804995Y-67176965D01*
X185803723Y-67168082D01*
X185795539Y-67150081D01*
X185781968Y-67120235D01*
X185744384Y-67037572D01*
X185707655Y-66994946D01*
X185656660Y-66935763D01*
X185656657Y-66935760D01*
X185650800Y-66928963D01*
X185530495Y-66850985D01*
X185393139Y-66809907D01*
X185384163Y-66809852D01*
X185384162Y-66809852D01*
X185323955Y-66809484D01*
X185249776Y-66809031D01*
X185111929Y-66848428D01*
X184990680Y-66924930D01*
X184984738Y-66931658D01*
X184984737Y-66931659D01*
X184967625Y-66951035D01*
X184895777Y-67032388D01*
X184834847Y-67162163D01*
X184828894Y-67200397D01*
X184814226Y-67294607D01*
X184812791Y-67303823D01*
X176574196Y-67303823D01*
X176563460Y-67291363D01*
X176563457Y-67291360D01*
X176557600Y-67284563D01*
X176437295Y-67206585D01*
X176299939Y-67165507D01*
X176290963Y-67165452D01*
X176290962Y-67165452D01*
X176230755Y-67165084D01*
X176156576Y-67164631D01*
X176018729Y-67204028D01*
X175897480Y-67280530D01*
X175891538Y-67287258D01*
X175891537Y-67287259D01*
X175887913Y-67291363D01*
X175802577Y-67387988D01*
X175741647Y-67517763D01*
X175739342Y-67532568D01*
X175723215Y-67636148D01*
X175719591Y-67659423D01*
X171051919Y-67659423D01*
X171035330Y-67629044D01*
X171040395Y-67558229D01*
X171082942Y-67501393D01*
X171149462Y-67476582D01*
X171196024Y-67481994D01*
X171267557Y-67504342D01*
X171276529Y-67504506D01*
X171276532Y-67504507D01*
X171341863Y-67505704D01*
X171410899Y-67506970D01*
X171419933Y-67504507D01*
X171540558Y-67471621D01*
X171540560Y-67471620D01*
X171549217Y-67469260D01*
X171671391Y-67394245D01*
X171677696Y-67387280D01*
X171761578Y-67294607D01*
X171767600Y-67287954D01*
X171808262Y-67204028D01*
X171826195Y-67167014D01*
X171826195Y-67167013D01*
X171830110Y-67158933D01*
X171853896Y-67017554D01*
X171854047Y-67005200D01*
X171836828Y-66884963D01*
X171834996Y-66872168D01*
X171834995Y-66872165D01*
X171833723Y-66863282D01*
X171774384Y-66732772D01*
X171725803Y-66676391D01*
X171686660Y-66630963D01*
X171686657Y-66630960D01*
X171680800Y-66624163D01*
X171560495Y-66546185D01*
X171423139Y-66505107D01*
X171414163Y-66505052D01*
X171414162Y-66505052D01*
X171353955Y-66504684D01*
X171279776Y-66504231D01*
X171141929Y-66543628D01*
X171020680Y-66620130D01*
X170925777Y-66727588D01*
X170864847Y-66857363D01*
X170862179Y-66874500D01*
X170845506Y-66981588D01*
X170842791Y-66999023D01*
X170843955Y-67007925D01*
X170843955Y-67007928D01*
X170848631Y-67043684D01*
X170861380Y-67141179D01*
X170878445Y-67179961D01*
X170913311Y-67259200D01*
X170919120Y-67272403D01*
X170957022Y-67317493D01*
X170982356Y-67347632D01*
X171010877Y-67412648D01*
X170999721Y-67482762D01*
X170952428Y-67535715D01*
X170884015Y-67554693D01*
X170868088Y-67553441D01*
X170053000Y-67437000D01*
X165100000Y-67437000D01*
X165099998Y-67450542D01*
X165099998Y-67450543D01*
X165099606Y-70314060D01*
X165099603Y-70332468D01*
X163963298Y-70332468D01*
X164022158Y-70316421D01*
X164022160Y-70316420D01*
X164030817Y-70314060D01*
X164152991Y-70239045D01*
X164249200Y-70132754D01*
X164297002Y-70034090D01*
X164307795Y-70011814D01*
X164307795Y-70011813D01*
X164311710Y-70003733D01*
X164335496Y-69862354D01*
X164335647Y-69850000D01*
X164322229Y-69756307D01*
X164316596Y-69716968D01*
X164316595Y-69716965D01*
X164315323Y-69708082D01*
X164255984Y-69577572D01*
X164196920Y-69509025D01*
X164168260Y-69475763D01*
X164168257Y-69475760D01*
X164162400Y-69468963D01*
X164042095Y-69390985D01*
X163904739Y-69349907D01*
X163895763Y-69349852D01*
X163895762Y-69349852D01*
X163835555Y-69349484D01*
X163761376Y-69349031D01*
X163623529Y-69388428D01*
X163502280Y-69464930D01*
X163407377Y-69572388D01*
X163346447Y-69702163D01*
X163338726Y-69751754D01*
X163330108Y-69807107D01*
X163324391Y-69843823D01*
X156039285Y-69843823D01*
X156057911Y-69687617D01*
X156058745Y-69680624D01*
X156048773Y-69585746D01*
X156040710Y-69509025D01*
X156040709Y-69509021D01*
X156039973Y-69502017D01*
X156017525Y-69436077D01*
X155984368Y-69338677D01*
X155984367Y-69338674D01*
X155982097Y-69332007D01*
X155887994Y-69179045D01*
X155883068Y-69174014D01*
X155883065Y-69174011D01*
X155798800Y-69087963D01*
X155762341Y-69050732D01*
X155745613Y-69039951D01*
X155617309Y-68957265D01*
X155611383Y-68953446D01*
X155604763Y-68951037D01*
X155604760Y-68951035D01*
X155449239Y-68894430D01*
X155449236Y-68894429D01*
X155442622Y-68892022D01*
X155385892Y-68884856D01*
X155307845Y-68874996D01*
X155307842Y-68874996D01*
X155303917Y-68874500D01*
X154608045Y-68874500D01*
X154474728Y-68889454D01*
X154468075Y-68891771D01*
X154468074Y-68891771D01*
X154399749Y-68915564D01*
X154305127Y-68948515D01*
X154299153Y-68952248D01*
X154299151Y-68952249D01*
X154203183Y-69012217D01*
X154152825Y-69043684D01*
X154096544Y-69099574D01*
X154030390Y-69165267D01*
X154030387Y-69165271D01*
X154025393Y-69170230D01*
X153929163Y-69321864D01*
X153926798Y-69328506D01*
X153871281Y-69484414D01*
X153871280Y-69484419D01*
X153868919Y-69491049D01*
X153868086Y-69498035D01*
X153868085Y-69498039D01*
X153860022Y-69565659D01*
X153847655Y-69669376D01*
X148430426Y-69669376D01*
X148442474Y-67669376D01*
X153847655Y-67669376D01*
X153848391Y-67676379D01*
X153848391Y-67676380D01*
X153864143Y-67826249D01*
X153866427Y-67847983D01*
X153924303Y-68017993D01*
X154018406Y-68170955D01*
X154023332Y-68175986D01*
X154023335Y-68175989D01*
X154068431Y-68222039D01*
X154144059Y-68299268D01*
X154149984Y-68303087D01*
X154149986Y-68303088D01*
X154275447Y-68383942D01*
X154295017Y-68396554D01*
X154301637Y-68398963D01*
X154301640Y-68398965D01*
X154457161Y-68455570D01*
X154457164Y-68455571D01*
X154463778Y-68457978D01*
X154490321Y-68461331D01*
X154598555Y-68475004D01*
X154598558Y-68475004D01*
X154602483Y-68475500D01*
X155298355Y-68475500D01*
X155431672Y-68460546D01*
X155439047Y-68457978D01*
X155543901Y-68421464D01*
X155601273Y-68401485D01*
X155609165Y-68396554D01*
X155747601Y-68310049D01*
X155753575Y-68306316D01*
X155817565Y-68242771D01*
X155876010Y-68184733D01*
X155876013Y-68184729D01*
X155881007Y-68179770D01*
X155888877Y-68167370D01*
X155920834Y-68117013D01*
X155977237Y-68028136D01*
X156008937Y-67939112D01*
X156035119Y-67865586D01*
X156035120Y-67865581D01*
X156037481Y-67858951D01*
X156038314Y-67851965D01*
X156038315Y-67851961D01*
X156057911Y-67687617D01*
X156058745Y-67680624D01*
X156058009Y-67673620D01*
X156040710Y-67509025D01*
X156040709Y-67509021D01*
X156039973Y-67502017D01*
X156023927Y-67454881D01*
X155984368Y-67338677D01*
X155984367Y-67338674D01*
X155982097Y-67332007D01*
X155976159Y-67322354D01*
X155928047Y-67244150D01*
X155887994Y-67179045D01*
X155883068Y-67174014D01*
X155883065Y-67174011D01*
X155819207Y-67108802D01*
X155762341Y-67050732D01*
X155754605Y-67045746D01*
X155617309Y-66957265D01*
X155611383Y-66953446D01*
X155604763Y-66951037D01*
X155604760Y-66951035D01*
X155449239Y-66894430D01*
X155449236Y-66894429D01*
X155442622Y-66892022D01*
X155385892Y-66884856D01*
X155307845Y-66874996D01*
X155307842Y-66874996D01*
X155303917Y-66874500D01*
X154608045Y-66874500D01*
X154474728Y-66889454D01*
X154468075Y-66891771D01*
X154468074Y-66891771D01*
X154399749Y-66915564D01*
X154305127Y-66948515D01*
X154299153Y-66952248D01*
X154299151Y-66952249D01*
X154291124Y-66957265D01*
X154152825Y-67043684D01*
X154100646Y-67095500D01*
X154030390Y-67165267D01*
X154030387Y-67165271D01*
X154025393Y-67170230D01*
X154021619Y-67176176D01*
X154021618Y-67176178D01*
X154004683Y-67202863D01*
X153929163Y-67321864D01*
X153926798Y-67328506D01*
X153871281Y-67484414D01*
X153871280Y-67484419D01*
X153868919Y-67491049D01*
X153868086Y-67498035D01*
X153868085Y-67498039D01*
X153855998Y-67599407D01*
X153847655Y-67669376D01*
X148442474Y-67669376D01*
X148454522Y-65669376D01*
X153847655Y-65669376D01*
X153848391Y-65676379D01*
X153848391Y-65676380D01*
X153865061Y-65834985D01*
X153866427Y-65847983D01*
X153868698Y-65854654D01*
X153921336Y-66009277D01*
X153924303Y-66017993D01*
X153927993Y-66023991D01*
X153927994Y-66023993D01*
X153934206Y-66034090D01*
X154018406Y-66170955D01*
X154023332Y-66175986D01*
X154023335Y-66175989D01*
X154080739Y-66234608D01*
X154144059Y-66299268D01*
X154149984Y-66303087D01*
X154149986Y-66303088D01*
X154289091Y-66392735D01*
X154295017Y-66396554D01*
X154301637Y-66398963D01*
X154301640Y-66398965D01*
X154457161Y-66455570D01*
X154457164Y-66455571D01*
X154463778Y-66457978D01*
X154490321Y-66461331D01*
X154598555Y-66475004D01*
X154598558Y-66475004D01*
X154602483Y-66475500D01*
X155298355Y-66475500D01*
X155431672Y-66460546D01*
X155439047Y-66457978D01*
X155545021Y-66421074D01*
X155601273Y-66401485D01*
X155609165Y-66396554D01*
X155747601Y-66310049D01*
X155753575Y-66306316D01*
X155772198Y-66287823D01*
X168531391Y-66287823D01*
X168532555Y-66296725D01*
X168532555Y-66296728D01*
X168533387Y-66303088D01*
X168549980Y-66429979D01*
X168607720Y-66561203D01*
X168613497Y-66568076D01*
X168613498Y-66568077D01*
X168657253Y-66620130D01*
X168699970Y-66670948D01*
X168707447Y-66675925D01*
X168805126Y-66740946D01*
X168819313Y-66750390D01*
X168956157Y-66793142D01*
X168965129Y-66793306D01*
X168965132Y-66793307D01*
X169030463Y-66794504D01*
X169099499Y-66795770D01*
X169108533Y-66793307D01*
X169229158Y-66760421D01*
X169229160Y-66760420D01*
X169237817Y-66758060D01*
X169359991Y-66683045D01*
X169456200Y-66576754D01*
X169505257Y-66475500D01*
X169514795Y-66455814D01*
X169514795Y-66455813D01*
X169518710Y-66447733D01*
X169542496Y-66306354D01*
X169542647Y-66294000D01*
X169533720Y-66231664D01*
X169523596Y-66160968D01*
X169523595Y-66160965D01*
X169522323Y-66152082D01*
X169511802Y-66128941D01*
X169501040Y-66105272D01*
X169462984Y-66021572D01*
X169425150Y-65977664D01*
X169375260Y-65919763D01*
X169375257Y-65919760D01*
X169369400Y-65912963D01*
X169249095Y-65834985D01*
X169111739Y-65793907D01*
X169102763Y-65793852D01*
X169102762Y-65793852D01*
X169042555Y-65793484D01*
X168968376Y-65793031D01*
X168830529Y-65832428D01*
X168709280Y-65908930D01*
X168703338Y-65915658D01*
X168703337Y-65915659D01*
X168661829Y-65962659D01*
X168614377Y-66016388D01*
X168553447Y-66146163D01*
X168547442Y-66184733D01*
X168539309Y-66236970D01*
X168531391Y-66287823D01*
X155772198Y-66287823D01*
X155828750Y-66231664D01*
X155876010Y-66184733D01*
X155876013Y-66184729D01*
X155881007Y-66179770D01*
X155896705Y-66155035D01*
X155973458Y-66034090D01*
X155977237Y-66028136D01*
X156015827Y-65919763D01*
X156035119Y-65865586D01*
X156035120Y-65865581D01*
X156037481Y-65858951D01*
X156038314Y-65851965D01*
X156038315Y-65851961D01*
X156057911Y-65687617D01*
X156058745Y-65680624D01*
X156053943Y-65634933D01*
X156040710Y-65509025D01*
X156040709Y-65509021D01*
X156039973Y-65502017D01*
X156030784Y-65475023D01*
X160682791Y-65475023D01*
X160683955Y-65483925D01*
X160683955Y-65483928D01*
X160685841Y-65498349D01*
X160701380Y-65617179D01*
X160730250Y-65682791D01*
X160755449Y-65740059D01*
X160759120Y-65748403D01*
X160764897Y-65755276D01*
X160764898Y-65755277D01*
X160842825Y-65847983D01*
X160851370Y-65858148D01*
X160970713Y-65937590D01*
X161107557Y-65980342D01*
X161116529Y-65980506D01*
X161116532Y-65980507D01*
X161181863Y-65981704D01*
X161250899Y-65982970D01*
X161259933Y-65980507D01*
X161380558Y-65947621D01*
X161380560Y-65947620D01*
X161389217Y-65945260D01*
X161511391Y-65870245D01*
X161531542Y-65847983D01*
X161601578Y-65770607D01*
X161607600Y-65763954D01*
X161624524Y-65729023D01*
X167134391Y-65729023D01*
X167135555Y-65737925D01*
X167135555Y-65737928D01*
X167143084Y-65795498D01*
X167152980Y-65871179D01*
X167180012Y-65932613D01*
X167201086Y-65980507D01*
X167210720Y-66002403D01*
X167216497Y-66009276D01*
X167216498Y-66009277D01*
X167297190Y-66105272D01*
X167302970Y-66112148D01*
X167422313Y-66191590D01*
X167559157Y-66234342D01*
X167568129Y-66234506D01*
X167568132Y-66234507D01*
X167633463Y-66235704D01*
X167702499Y-66236970D01*
X167711533Y-66234507D01*
X167832158Y-66201621D01*
X167832160Y-66201620D01*
X167840817Y-66199260D01*
X167962991Y-66124245D01*
X168059200Y-66017954D01*
X168106773Y-65919763D01*
X168117795Y-65897014D01*
X168117795Y-65897013D01*
X168121710Y-65888933D01*
X168145496Y-65747554D01*
X168145647Y-65735200D01*
X168130020Y-65626081D01*
X168126596Y-65602168D01*
X168126595Y-65602165D01*
X168125323Y-65593282D01*
X168065984Y-65462772D01*
X168047598Y-65441434D01*
X167978260Y-65360963D01*
X167978257Y-65360960D01*
X167972400Y-65354163D01*
X167852095Y-65276185D01*
X167714739Y-65235107D01*
X167705763Y-65235052D01*
X167705762Y-65235052D01*
X167645555Y-65234684D01*
X167571376Y-65234231D01*
X167433529Y-65273628D01*
X167312280Y-65350130D01*
X167217377Y-65457588D01*
X167156447Y-65587363D01*
X167155066Y-65596235D01*
X167141927Y-65680624D01*
X167134391Y-65729023D01*
X161624524Y-65729023D01*
X161670110Y-65634933D01*
X161693896Y-65493554D01*
X161694047Y-65481200D01*
X161676828Y-65360963D01*
X161674996Y-65348168D01*
X161674995Y-65348165D01*
X161673723Y-65339282D01*
X161668824Y-65328506D01*
X161647256Y-65281071D01*
X161614384Y-65208772D01*
X161593939Y-65185045D01*
X161526660Y-65106963D01*
X161526657Y-65106960D01*
X161520800Y-65100163D01*
X161400495Y-65022185D01*
X161263139Y-64981107D01*
X161254163Y-64981052D01*
X161254162Y-64981052D01*
X161193955Y-64980684D01*
X161119776Y-64980231D01*
X160981929Y-65019628D01*
X160860680Y-65096130D01*
X160765777Y-65203588D01*
X160704847Y-65333363D01*
X160701609Y-65354163D01*
X160685506Y-65457588D01*
X160682791Y-65475023D01*
X156030784Y-65475023D01*
X156027763Y-65466150D01*
X155984368Y-65338677D01*
X155984367Y-65338674D01*
X155982097Y-65332007D01*
X155977932Y-65325236D01*
X155935045Y-65255526D01*
X155887994Y-65179045D01*
X155883068Y-65174014D01*
X155883065Y-65174011D01*
X155782163Y-65070974D01*
X155762341Y-65050732D01*
X155745613Y-65039951D01*
X155617309Y-64957265D01*
X155611383Y-64953446D01*
X155604763Y-64951037D01*
X155604760Y-64951035D01*
X155449239Y-64894430D01*
X155449236Y-64894429D01*
X155442622Y-64892022D01*
X155385892Y-64884856D01*
X155307845Y-64874996D01*
X155307842Y-64874996D01*
X155303917Y-64874500D01*
X154608045Y-64874500D01*
X154474728Y-64889454D01*
X154468075Y-64891771D01*
X154468074Y-64891771D01*
X154419323Y-64908748D01*
X154305127Y-64948515D01*
X154299153Y-64952248D01*
X154299151Y-64952249D01*
X154185544Y-65023239D01*
X154152825Y-65043684D01*
X154100868Y-65095280D01*
X154030390Y-65165267D01*
X154030387Y-65165271D01*
X154025393Y-65170230D01*
X153929163Y-65321864D01*
X153926798Y-65328506D01*
X153871281Y-65484414D01*
X153871280Y-65484419D01*
X153868919Y-65491049D01*
X153868086Y-65498035D01*
X153868085Y-65498039D01*
X153856376Y-65596235D01*
X153847655Y-65669376D01*
X148454522Y-65669376D01*
X148462256Y-64385548D01*
X148482668Y-64317549D01*
X148536603Y-64271380D01*
X148586539Y-64260319D01*
X153979377Y-64186947D01*
X154047762Y-64206020D01*
X154071110Y-64224775D01*
X154144059Y-64299268D01*
X154149984Y-64303087D01*
X154149986Y-64303088D01*
X154172425Y-64317549D01*
X154295017Y-64396554D01*
X154301637Y-64398963D01*
X154301640Y-64398965D01*
X154457161Y-64455570D01*
X154457164Y-64455571D01*
X154463778Y-64457978D01*
X154490321Y-64461331D01*
X154598555Y-64475004D01*
X154598558Y-64475004D01*
X154602483Y-64475500D01*
X155298355Y-64475500D01*
X155431672Y-64460546D01*
X155439047Y-64457978D01*
X155506651Y-64434436D01*
X155601273Y-64401485D01*
X155609165Y-64396554D01*
X155747601Y-64310049D01*
X155753575Y-64306316D01*
X155863955Y-64196703D01*
X155926384Y-64162897D01*
X155951023Y-64160122D01*
X165573212Y-64029208D01*
X167114068Y-64008244D01*
X167132000Y-64008000D01*
X167241063Y-63936690D01*
X167856718Y-63534146D01*
X168476589Y-63128846D01*
X168544549Y-63108308D01*
X168612825Y-63127773D01*
X168659739Y-63181061D01*
X168670396Y-63251253D01*
X168639983Y-63317711D01*
X168594094Y-63369671D01*
X168533164Y-63499446D01*
X168523927Y-63558773D01*
X168515612Y-63612180D01*
X168511108Y-63641106D01*
X168512272Y-63650008D01*
X168512272Y-63650011D01*
X168517305Y-63688500D01*
X168529697Y-63783262D01*
X168587437Y-63914486D01*
X168593214Y-63921359D01*
X168593215Y-63921360D01*
X168673907Y-64017355D01*
X168679687Y-64024231D01*
X168687164Y-64029208D01*
X168779241Y-64090500D01*
X168799030Y-64103673D01*
X168935874Y-64146425D01*
X168944846Y-64146589D01*
X168944849Y-64146590D01*
X169010180Y-64147787D01*
X169079216Y-64149053D01*
X169088250Y-64146590D01*
X169208875Y-64113704D01*
X169208877Y-64113703D01*
X169217534Y-64111343D01*
X169339708Y-64036328D01*
X169368485Y-64004536D01*
X169429895Y-63936690D01*
X169435917Y-63930037D01*
X169475672Y-63847983D01*
X169494512Y-63809097D01*
X169494512Y-63809096D01*
X169498427Y-63801016D01*
X169522213Y-63659637D01*
X169522364Y-63647283D01*
X169512740Y-63580083D01*
X169503313Y-63514251D01*
X169503312Y-63514248D01*
X169502040Y-63505365D01*
X169486785Y-63471812D01*
X169468784Y-63432222D01*
X169442701Y-63374855D01*
X169398225Y-63323238D01*
X169354977Y-63273046D01*
X169354974Y-63273043D01*
X169349117Y-63266246D01*
X169228812Y-63188268D01*
X169091456Y-63147190D01*
X169082480Y-63147135D01*
X169082479Y-63147135D01*
X169022272Y-63146767D01*
X168948093Y-63146314D01*
X168939463Y-63148780D01*
X168939459Y-63148781D01*
X168862699Y-63170719D01*
X168791704Y-63170207D01*
X168732257Y-63131392D01*
X168703231Y-63066600D01*
X168713842Y-62996401D01*
X168723002Y-62985823D01*
X170552891Y-62985823D01*
X170554055Y-62994725D01*
X170554055Y-62994728D01*
X170560851Y-63046696D01*
X170571480Y-63127979D01*
X170629220Y-63259203D01*
X170634997Y-63266076D01*
X170634998Y-63266077D01*
X170691453Y-63333238D01*
X170721470Y-63368948D01*
X170746698Y-63385741D01*
X170827242Y-63439356D01*
X170840813Y-63448390D01*
X170977657Y-63491142D01*
X170986629Y-63491306D01*
X170986632Y-63491307D01*
X171051963Y-63492504D01*
X171120999Y-63493770D01*
X171130033Y-63491307D01*
X171250658Y-63458421D01*
X171250660Y-63458420D01*
X171259317Y-63456060D01*
X171381491Y-63381045D01*
X171426404Y-63331426D01*
X171471678Y-63281407D01*
X171477700Y-63274754D01*
X171524984Y-63177159D01*
X171536295Y-63153814D01*
X171536295Y-63153813D01*
X171540210Y-63145733D01*
X171545951Y-63111611D01*
X188016394Y-63111611D01*
X188034999Y-63280135D01*
X188064984Y-63362072D01*
X188073646Y-63385741D01*
X188093266Y-63439356D01*
X188097502Y-63445659D01*
X188097504Y-63445664D01*
X188159390Y-63537761D01*
X188180782Y-63605458D01*
X188162178Y-63673974D01*
X188124810Y-63712801D01*
X188087763Y-63737555D01*
X188087761Y-63737557D01*
X188077448Y-63744448D01*
X188033133Y-63810769D01*
X188021500Y-63869252D01*
X188021500Y-64908748D01*
X188033133Y-64967231D01*
X188077448Y-65033552D01*
X188143769Y-65077867D01*
X188155938Y-65080288D01*
X188155939Y-65080288D01*
X188196184Y-65088293D01*
X188202252Y-65089500D01*
X189241748Y-65089500D01*
X189247816Y-65088293D01*
X189288061Y-65080288D01*
X189288062Y-65080288D01*
X189300231Y-65077867D01*
X189366552Y-65033552D01*
X189410867Y-64967231D01*
X189422500Y-64908748D01*
X189422500Y-63869252D01*
X189410867Y-63810769D01*
X189366552Y-63744448D01*
X189318645Y-63712437D01*
X189273118Y-63657959D01*
X189264271Y-63587516D01*
X189286325Y-63534146D01*
X189307006Y-63505365D01*
X189325233Y-63480000D01*
X191930318Y-63480000D01*
X191950956Y-63636762D01*
X192011464Y-63782841D01*
X192107718Y-63908282D01*
X192114264Y-63913305D01*
X192127296Y-63923305D01*
X192233159Y-64004536D01*
X192379238Y-64065044D01*
X192496639Y-64080500D01*
X193075361Y-64080500D01*
X193192762Y-64065044D01*
X193338841Y-64004536D01*
X193444704Y-63923305D01*
X193457736Y-63913305D01*
X193464282Y-63908282D01*
X193560536Y-63782841D01*
X193621044Y-63636762D01*
X193640365Y-63490000D01*
X196502318Y-63490000D01*
X196503396Y-63498188D01*
X196520562Y-63628574D01*
X196522956Y-63646762D01*
X196526116Y-63654391D01*
X196527594Y-63657959D01*
X196583464Y-63792841D01*
X196679718Y-63918282D01*
X196805159Y-64014536D01*
X196951238Y-64075044D01*
X196959426Y-64076122D01*
X196992681Y-64080500D01*
X197068639Y-64090500D01*
X197647361Y-64090500D01*
X197723320Y-64080500D01*
X197756574Y-64076122D01*
X197764762Y-64075044D01*
X197910841Y-64014536D01*
X198036282Y-63918282D01*
X198132536Y-63792841D01*
X198188406Y-63657959D01*
X198189884Y-63654391D01*
X198193044Y-63646762D01*
X198195439Y-63628574D01*
X198212604Y-63498188D01*
X198213682Y-63490000D01*
X198193044Y-63333238D01*
X198186613Y-63317711D01*
X198168819Y-63274754D01*
X198132536Y-63187159D01*
X198036282Y-63061718D01*
X197968734Y-63009886D01*
X197926867Y-62952549D01*
X197922645Y-62881678D01*
X197957409Y-62819775D01*
X197988235Y-62797657D01*
X197998107Y-62792627D01*
X198046342Y-62768050D01*
X198136050Y-62678342D01*
X198193646Y-62565304D01*
X198197724Y-62539560D01*
X198205271Y-62491907D01*
X198208500Y-62471519D01*
X198208499Y-62008482D01*
X198193646Y-61914696D01*
X198136050Y-61801658D01*
X198046342Y-61711950D01*
X197933304Y-61654354D01*
X197923515Y-61652804D01*
X197923513Y-61652803D01*
X197896151Y-61648470D01*
X197839519Y-61639500D01*
X197358098Y-61639500D01*
X196876482Y-61639501D01*
X196871589Y-61640276D01*
X196871588Y-61640276D01*
X196792494Y-61652802D01*
X196792492Y-61652803D01*
X196782696Y-61654354D01*
X196669658Y-61711950D01*
X196579950Y-61801658D01*
X196522354Y-61914696D01*
X196507500Y-62008481D01*
X196507501Y-62471518D01*
X196508276Y-62476409D01*
X196508276Y-62476412D01*
X196519220Y-62545513D01*
X196522354Y-62565304D01*
X196526855Y-62574137D01*
X196526857Y-62574142D01*
X196538451Y-62596895D01*
X196579950Y-62678342D01*
X196669658Y-62768050D01*
X196717893Y-62792627D01*
X196727765Y-62797657D01*
X196779380Y-62846405D01*
X196796446Y-62915320D01*
X196773545Y-62982522D01*
X196747267Y-63009886D01*
X196679718Y-63061718D01*
X196583464Y-63187159D01*
X196547181Y-63274754D01*
X196529388Y-63317711D01*
X196522956Y-63333238D01*
X196502318Y-63490000D01*
X193640365Y-63490000D01*
X193641682Y-63480000D01*
X193626157Y-63362072D01*
X193622122Y-63331426D01*
X193621044Y-63323238D01*
X193560536Y-63177159D01*
X193464282Y-63051718D01*
X193396734Y-62999886D01*
X193354867Y-62942549D01*
X193350645Y-62871678D01*
X193385409Y-62809775D01*
X193416235Y-62787657D01*
X193474342Y-62758050D01*
X193564050Y-62668342D01*
X193621646Y-62555304D01*
X193624803Y-62535375D01*
X193627622Y-62517570D01*
X193636500Y-62461519D01*
X193636499Y-61998482D01*
X193635724Y-61993588D01*
X193623198Y-61914494D01*
X193623197Y-61914492D01*
X193621646Y-61904696D01*
X193564050Y-61791658D01*
X193474342Y-61701950D01*
X193361304Y-61644354D01*
X193351515Y-61642804D01*
X193351513Y-61642803D01*
X193324151Y-61638470D01*
X193267519Y-61629500D01*
X192786098Y-61629500D01*
X192304482Y-61629501D01*
X192299589Y-61630276D01*
X192299588Y-61630276D01*
X192220494Y-61642802D01*
X192220492Y-61642803D01*
X192210696Y-61644354D01*
X192097658Y-61701950D01*
X192007950Y-61791658D01*
X191950354Y-61904696D01*
X191935500Y-61998481D01*
X191935501Y-62461518D01*
X191936276Y-62466409D01*
X191936276Y-62466412D01*
X191947861Y-62539560D01*
X191950354Y-62555304D01*
X191954855Y-62564137D01*
X191954857Y-62564142D01*
X191962594Y-62579326D01*
X192007950Y-62668342D01*
X192097658Y-62758050D01*
X192155765Y-62787657D01*
X192207380Y-62836405D01*
X192224446Y-62905320D01*
X192201545Y-62972522D01*
X192175267Y-62999886D01*
X192107718Y-63051718D01*
X192011464Y-63177159D01*
X191950956Y-63323238D01*
X191949878Y-63331426D01*
X191945843Y-63362072D01*
X191930318Y-63480000D01*
X189325233Y-63480000D01*
X189340361Y-63458947D01*
X189348237Y-63439356D01*
X189400766Y-63308687D01*
X189400767Y-63308685D01*
X189403601Y-63301634D01*
X189422233Y-63170719D01*
X189426909Y-63137862D01*
X189426909Y-63137859D01*
X189427490Y-63133778D01*
X189427645Y-63119000D01*
X189425840Y-63104080D01*
X189414441Y-63009887D01*
X189407276Y-62950680D01*
X189347345Y-62792077D01*
X189303131Y-62727746D01*
X189255614Y-62658608D01*
X189255613Y-62658607D01*
X189251312Y-62652349D01*
X189167663Y-62577820D01*
X189130107Y-62517570D01*
X189131088Y-62446580D01*
X189169652Y-62387933D01*
X189235648Y-62331567D01*
X189235651Y-62331564D01*
X189241423Y-62326634D01*
X189340361Y-62188947D01*
X189348237Y-62169356D01*
X189400766Y-62038687D01*
X189400767Y-62038685D01*
X189403601Y-62031634D01*
X189418850Y-61924487D01*
X189426909Y-61867862D01*
X189426909Y-61867859D01*
X189427490Y-61863778D01*
X189427645Y-61849000D01*
X189425840Y-61834080D01*
X189421775Y-61800491D01*
X189407276Y-61680680D01*
X189347345Y-61522077D01*
X189251312Y-61382349D01*
X189167663Y-61307820D01*
X189130107Y-61247570D01*
X189131088Y-61176580D01*
X189169652Y-61117933D01*
X189235648Y-61061567D01*
X189235651Y-61061564D01*
X189241423Y-61056634D01*
X189340361Y-60918947D01*
X189348237Y-60899356D01*
X189400766Y-60768687D01*
X189400767Y-60768685D01*
X189403601Y-60761634D01*
X189427490Y-60593778D01*
X189427645Y-60579000D01*
X189425840Y-60564080D01*
X189408188Y-60418220D01*
X189407276Y-60410680D01*
X189347345Y-60252077D01*
X189251312Y-60112349D01*
X189167663Y-60037820D01*
X189130107Y-59977570D01*
X189131088Y-59906580D01*
X189169652Y-59847933D01*
X189235648Y-59791567D01*
X189235651Y-59791564D01*
X189241423Y-59786634D01*
X189340361Y-59648947D01*
X189348237Y-59629356D01*
X189400766Y-59498687D01*
X189400767Y-59498685D01*
X189403601Y-59491634D01*
X189427490Y-59323778D01*
X189427645Y-59309000D01*
X189425840Y-59294080D01*
X189408188Y-59148220D01*
X189407276Y-59140680D01*
X189347345Y-58982077D01*
X189251312Y-58842349D01*
X189167663Y-58767820D01*
X189130107Y-58707570D01*
X189131088Y-58636580D01*
X189169652Y-58577933D01*
X189235648Y-58521567D01*
X189235651Y-58521564D01*
X189241423Y-58516634D01*
X189340361Y-58378947D01*
X189348237Y-58359356D01*
X189400766Y-58228687D01*
X189400767Y-58228685D01*
X189403601Y-58221634D01*
X189424002Y-58078288D01*
X189426909Y-58057862D01*
X189426909Y-58057859D01*
X189427490Y-58053778D01*
X189427645Y-58039000D01*
X189426326Y-58028096D01*
X189408188Y-57878220D01*
X189407276Y-57870680D01*
X189347345Y-57712077D01*
X189315044Y-57665079D01*
X189255614Y-57578608D01*
X189255613Y-57578607D01*
X189251312Y-57572349D01*
X189232656Y-57555727D01*
X189130392Y-57464612D01*
X189130388Y-57464610D01*
X189124721Y-57459560D01*
X189098705Y-57445785D01*
X189051363Y-57420719D01*
X188974881Y-57380224D01*
X188810441Y-57338919D01*
X188802843Y-57338879D01*
X188802841Y-57338879D01*
X188725668Y-57338475D01*
X188640895Y-57338031D01*
X188633508Y-57339805D01*
X188633504Y-57339805D01*
X188490162Y-57374220D01*
X188476032Y-57377612D01*
X188469288Y-57381093D01*
X188469285Y-57381094D01*
X188348084Y-57443651D01*
X188325369Y-57455375D01*
X188319647Y-57460367D01*
X188319645Y-57460368D01*
X188248069Y-57522808D01*
X188197604Y-57566831D01*
X188100113Y-57705547D01*
X188038524Y-57863513D01*
X188037532Y-57871046D01*
X188037532Y-57871047D01*
X188026005Y-57958608D01*
X188016394Y-58031611D01*
X188034999Y-58200135D01*
X188093266Y-58359356D01*
X188097502Y-58365659D01*
X188097502Y-58365660D01*
X188110574Y-58385113D01*
X188187830Y-58500083D01*
X188193446Y-58505193D01*
X188276958Y-58581184D01*
X188313880Y-58641824D01*
X188312157Y-58712800D01*
X188274987Y-58769326D01*
X188197604Y-58836831D01*
X188100113Y-58975547D01*
X188038524Y-59133513D01*
X188016394Y-59301611D01*
X188034999Y-59470135D01*
X188093266Y-59629356D01*
X188097502Y-59635659D01*
X188097502Y-59635660D01*
X188110574Y-59655113D01*
X188187830Y-59770083D01*
X188193446Y-59775193D01*
X188276958Y-59851184D01*
X188313880Y-59911824D01*
X188312157Y-59982800D01*
X188274987Y-60039326D01*
X188197604Y-60106831D01*
X188193237Y-60113045D01*
X188133530Y-60198000D01*
X188100113Y-60245547D01*
X188038524Y-60403513D01*
X188037532Y-60411046D01*
X188037532Y-60411047D01*
X188029419Y-60472677D01*
X188016394Y-60571611D01*
X188034999Y-60740135D01*
X188093266Y-60899356D01*
X188097502Y-60905659D01*
X188097502Y-60905660D01*
X188110574Y-60925113D01*
X188187830Y-61040083D01*
X188193446Y-61045193D01*
X188276958Y-61121184D01*
X188313880Y-61181824D01*
X188312157Y-61252800D01*
X188274987Y-61309326D01*
X188197604Y-61376831D01*
X188100113Y-61515547D01*
X188038524Y-61673513D01*
X188037532Y-61681046D01*
X188037532Y-61681047D01*
X188021654Y-61801658D01*
X188016394Y-61841611D01*
X188034999Y-62010135D01*
X188093266Y-62169356D01*
X188097502Y-62175659D01*
X188097502Y-62175660D01*
X188110574Y-62195113D01*
X188187830Y-62310083D01*
X188193446Y-62315193D01*
X188276958Y-62391184D01*
X188313880Y-62451824D01*
X188312157Y-62522800D01*
X188274987Y-62579326D01*
X188197604Y-62646831D01*
X188175458Y-62678342D01*
X188116276Y-62762550D01*
X188100113Y-62785547D01*
X188038524Y-62943513D01*
X188037532Y-62951046D01*
X188037532Y-62951047D01*
X188022101Y-63068264D01*
X188016394Y-63111611D01*
X171545951Y-63111611D01*
X171563996Y-63004354D01*
X171564147Y-62992000D01*
X171552556Y-62911064D01*
X171545096Y-62858968D01*
X171545095Y-62858965D01*
X171543823Y-62850082D01*
X171539467Y-62840500D01*
X171515440Y-62787657D01*
X171484484Y-62719572D01*
X171431954Y-62658608D01*
X171396760Y-62617763D01*
X171396757Y-62617760D01*
X171390900Y-62610963D01*
X171270595Y-62532985D01*
X171133239Y-62491907D01*
X171124263Y-62491852D01*
X171124262Y-62491852D01*
X171064055Y-62491484D01*
X170989876Y-62491031D01*
X170852029Y-62530428D01*
X170730780Y-62606930D01*
X170635877Y-62714388D01*
X170574947Y-62844163D01*
X170573566Y-62853035D01*
X170554962Y-62972522D01*
X170552891Y-62985823D01*
X168723002Y-62985823D01*
X168759121Y-62944113D01*
X170753225Y-61640276D01*
X172207164Y-60689624D01*
X172275125Y-60669086D01*
X172313686Y-60674813D01*
X172385157Y-60697142D01*
X172394129Y-60697306D01*
X172394132Y-60697307D01*
X172459463Y-60698504D01*
X172528499Y-60699770D01*
X172537533Y-60697307D01*
X172658158Y-60664421D01*
X172658160Y-60664420D01*
X172666817Y-60662060D01*
X172788991Y-60587045D01*
X172885200Y-60480754D01*
X172947710Y-60351733D01*
X172966220Y-60241711D01*
X172997247Y-60177854D01*
X173021519Y-60157160D01*
X173736000Y-59690000D01*
X173736000Y-55149669D01*
X174516001Y-55149669D01*
X174516371Y-55156490D01*
X174521895Y-55207352D01*
X174525521Y-55222604D01*
X174570676Y-55343054D01*
X174579214Y-55358649D01*
X174655715Y-55460724D01*
X174668276Y-55473285D01*
X174770353Y-55549787D01*
X174780523Y-55555355D01*
X174830670Y-55605612D01*
X174845685Y-55675003D01*
X174842516Y-55694405D01*
X174840524Y-55699513D01*
X174818394Y-55867611D01*
X174836999Y-56036135D01*
X174844867Y-56057634D01*
X174892124Y-56186769D01*
X174895266Y-56195356D01*
X174899502Y-56201659D01*
X174899502Y-56201660D01*
X174912574Y-56221113D01*
X174989830Y-56336083D01*
X174995446Y-56341193D01*
X175078958Y-56417184D01*
X175115880Y-56477824D01*
X175114157Y-56548800D01*
X175076987Y-56605326D01*
X174999604Y-56672831D01*
X174902113Y-56811547D01*
X174840524Y-56969513D01*
X174839532Y-56977046D01*
X174839532Y-56977047D01*
X174820726Y-57119900D01*
X174818394Y-57137611D01*
X174836999Y-57306135D01*
X174849321Y-57339805D01*
X174891845Y-57456007D01*
X174895266Y-57465356D01*
X174899502Y-57471659D01*
X174899502Y-57471660D01*
X174912574Y-57491113D01*
X174989830Y-57606083D01*
X174995442Y-57611190D01*
X174995445Y-57611193D01*
X175109612Y-57715077D01*
X175109616Y-57715080D01*
X175115233Y-57720191D01*
X175121906Y-57723814D01*
X175121910Y-57723817D01*
X175257558Y-57797467D01*
X175257560Y-57797468D01*
X175264235Y-57801092D01*
X175271584Y-57803020D01*
X175420883Y-57842188D01*
X175420885Y-57842188D01*
X175428233Y-57844116D01*
X175514609Y-57845473D01*
X175590161Y-57846660D01*
X175590164Y-57846660D01*
X175597760Y-57846779D01*
X175605165Y-57845083D01*
X175605166Y-57845083D01*
X175665586Y-57831245D01*
X175763029Y-57808928D01*
X175914498Y-57732747D01*
X176043423Y-57622634D01*
X176055504Y-57605821D01*
X176111497Y-57562174D01*
X176182201Y-57555727D01*
X176245166Y-57588529D01*
X176253207Y-57597014D01*
X176255594Y-57599780D01*
X176259830Y-57606083D01*
X176265446Y-57611193D01*
X176265449Y-57611196D01*
X176379612Y-57715077D01*
X176379616Y-57715080D01*
X176385233Y-57720191D01*
X176391906Y-57723814D01*
X176391910Y-57723817D01*
X176527558Y-57797467D01*
X176527560Y-57797468D01*
X176534235Y-57801092D01*
X176541584Y-57803020D01*
X176690883Y-57842188D01*
X176690885Y-57842188D01*
X176698233Y-57844116D01*
X176784609Y-57845473D01*
X176860161Y-57846660D01*
X176860164Y-57846660D01*
X176867760Y-57846779D01*
X176875165Y-57845083D01*
X176875166Y-57845083D01*
X176935586Y-57831245D01*
X177033029Y-57808928D01*
X177184498Y-57732747D01*
X177313423Y-57622634D01*
X177350881Y-57570506D01*
X180880908Y-57570506D01*
X180882072Y-57579408D01*
X180882072Y-57579411D01*
X180888369Y-57627564D01*
X180899497Y-57712662D01*
X180903114Y-57720882D01*
X180939256Y-57803020D01*
X180957237Y-57843886D01*
X180963014Y-57850759D01*
X180963015Y-57850760D01*
X181043707Y-57946755D01*
X181049487Y-57953631D01*
X181168830Y-58033073D01*
X181305674Y-58075825D01*
X181314646Y-58075989D01*
X181314649Y-58075990D01*
X181379980Y-58077187D01*
X181449016Y-58078453D01*
X181458050Y-58075990D01*
X181578675Y-58043104D01*
X181578677Y-58043103D01*
X181587334Y-58040743D01*
X181709508Y-57965728D01*
X181805717Y-57859437D01*
X181859524Y-57748379D01*
X181864312Y-57738497D01*
X181864312Y-57738496D01*
X181868227Y-57730416D01*
X181892013Y-57589037D01*
X181892164Y-57576683D01*
X181878689Y-57482592D01*
X181873113Y-57443651D01*
X181873112Y-57443648D01*
X181871840Y-57434765D01*
X181812501Y-57304255D01*
X181763597Y-57247499D01*
X181724777Y-57202446D01*
X181724774Y-57202443D01*
X181718917Y-57195646D01*
X181598612Y-57117668D01*
X181461256Y-57076590D01*
X181452280Y-57076535D01*
X181452279Y-57076535D01*
X181392072Y-57076167D01*
X181317893Y-57075714D01*
X181180046Y-57115111D01*
X181058797Y-57191613D01*
X180963894Y-57299071D01*
X180902964Y-57428846D01*
X180894596Y-57482592D01*
X180882913Y-57557631D01*
X180880908Y-57570506D01*
X177350881Y-57570506D01*
X177412361Y-57484947D01*
X177422567Y-57459560D01*
X177472766Y-57334687D01*
X177472767Y-57334685D01*
X177475601Y-57327634D01*
X177487006Y-57247499D01*
X177498909Y-57163862D01*
X177498909Y-57163859D01*
X177499490Y-57159778D01*
X177499645Y-57145000D01*
X177497840Y-57130080D01*
X177490578Y-57070074D01*
X177479276Y-56976680D01*
X177419345Y-56818077D01*
X177342843Y-56706766D01*
X177327614Y-56684608D01*
X177327613Y-56684607D01*
X177325482Y-56681506D01*
X179991908Y-56681506D01*
X179993072Y-56690408D01*
X179993072Y-56690411D01*
X179997865Y-56727064D01*
X180010497Y-56823662D01*
X180014114Y-56831882D01*
X180063917Y-56945067D01*
X180068237Y-56954886D01*
X180074014Y-56961759D01*
X180074015Y-56961760D01*
X180074582Y-56962434D01*
X180160487Y-57064631D01*
X180167964Y-57069608D01*
X180267677Y-57135983D01*
X180279830Y-57144073D01*
X180416674Y-57186825D01*
X180425646Y-57186989D01*
X180425649Y-57186990D01*
X180490980Y-57188187D01*
X180560016Y-57189453D01*
X180569050Y-57186990D01*
X180689675Y-57154104D01*
X180689677Y-57154103D01*
X180698334Y-57151743D01*
X180820508Y-57076728D01*
X180916717Y-56970437D01*
X180979227Y-56841416D01*
X181001881Y-56706766D01*
X194756257Y-56706766D01*
X194786565Y-56841246D01*
X194789645Y-56851075D01*
X194869770Y-57048403D01*
X194874413Y-57057594D01*
X194985694Y-57239188D01*
X194991777Y-57247499D01*
X195131213Y-57408467D01*
X195138580Y-57415683D01*
X195302434Y-57551716D01*
X195310881Y-57557631D01*
X195494756Y-57665079D01*
X195504042Y-57669529D01*
X195703001Y-57745503D01*
X195712899Y-57748379D01*
X195816250Y-57769406D01*
X195830299Y-57768210D01*
X195834000Y-57757865D01*
X195834000Y-57757317D01*
X196342000Y-57757317D01*
X196346064Y-57771159D01*
X196359478Y-57773193D01*
X196366184Y-57772334D01*
X196376262Y-57770192D01*
X196580255Y-57708991D01*
X196589842Y-57705233D01*
X196781095Y-57611539D01*
X196789945Y-57606264D01*
X196963328Y-57482592D01*
X196971200Y-57475939D01*
X197122052Y-57325612D01*
X197128730Y-57317765D01*
X197253003Y-57144820D01*
X197258313Y-57135983D01*
X197352670Y-56945067D01*
X197356469Y-56935472D01*
X197418377Y-56731710D01*
X197420555Y-56721637D01*
X197421986Y-56710762D01*
X197419775Y-56696578D01*
X197406617Y-56692800D01*
X196360115Y-56692800D01*
X196344876Y-56697275D01*
X196343671Y-56698665D01*
X196342000Y-56706348D01*
X196342000Y-57757317D01*
X195834000Y-57757317D01*
X195834000Y-56710915D01*
X195829525Y-56695676D01*
X195828135Y-56694471D01*
X195820452Y-56692800D01*
X194771225Y-56692800D01*
X194757694Y-56696773D01*
X194756257Y-56706766D01*
X181001881Y-56706766D01*
X181003013Y-56700037D01*
X181003089Y-56693819D01*
X181003105Y-56692542D01*
X181003105Y-56692537D01*
X181003164Y-56687683D01*
X180985675Y-56565560D01*
X180984113Y-56554651D01*
X180984112Y-56554648D01*
X180982840Y-56545765D01*
X180966762Y-56510402D01*
X180927217Y-56423429D01*
X180923501Y-56415255D01*
X180869543Y-56352634D01*
X180835777Y-56313446D01*
X180835774Y-56313443D01*
X180829917Y-56306646D01*
X180709612Y-56228668D01*
X180572256Y-56187590D01*
X180563280Y-56187535D01*
X180563279Y-56187535D01*
X180503072Y-56187167D01*
X180428893Y-56186714D01*
X180291046Y-56226111D01*
X180169797Y-56302613D01*
X180163855Y-56309341D01*
X180163854Y-56309342D01*
X180135722Y-56341196D01*
X180074894Y-56410071D01*
X180013964Y-56539846D01*
X179991908Y-56681506D01*
X177325482Y-56681506D01*
X177323312Y-56678349D01*
X177239663Y-56603820D01*
X177202107Y-56543570D01*
X177203088Y-56472580D01*
X177241652Y-56413933D01*
X177307648Y-56357567D01*
X177307651Y-56357564D01*
X177313423Y-56352634D01*
X177412361Y-56214947D01*
X177422719Y-56189181D01*
X177429231Y-56172983D01*
X194752389Y-56172983D01*
X194753912Y-56181407D01*
X194766292Y-56184800D01*
X197406344Y-56184800D01*
X197419875Y-56180827D01*
X197421180Y-56171747D01*
X197379214Y-56004675D01*
X197375894Y-55994924D01*
X197290972Y-55799614D01*
X197286105Y-55790539D01*
X197170426Y-55611726D01*
X197164136Y-55603557D01*
X197020806Y-55446040D01*
X197013273Y-55439015D01*
X196846139Y-55307022D01*
X196837552Y-55301317D01*
X196651117Y-55198399D01*
X196641705Y-55194169D01*
X196641435Y-55194073D01*
X196641341Y-55194005D01*
X196636989Y-55192049D01*
X196637393Y-55191151D01*
X196583899Y-55152479D01*
X196557983Y-55086381D01*
X196571917Y-55016765D01*
X196621276Y-54965734D01*
X196683495Y-54949300D01*
X196957748Y-54949300D01*
X196979632Y-54944947D01*
X197004061Y-54940088D01*
X197004062Y-54940088D01*
X197016231Y-54937667D01*
X197082552Y-54893352D01*
X197126867Y-54827031D01*
X197138500Y-54768548D01*
X197138500Y-53029052D01*
X197126867Y-52970569D01*
X197082552Y-52904248D01*
X197016231Y-52859933D01*
X197004062Y-52857512D01*
X197004061Y-52857512D01*
X196963816Y-52849507D01*
X196957748Y-52848300D01*
X195218252Y-52848300D01*
X195212184Y-52849507D01*
X195171939Y-52857512D01*
X195171938Y-52857512D01*
X195159769Y-52859933D01*
X195093448Y-52904248D01*
X195049133Y-52970569D01*
X195037500Y-53029052D01*
X195037500Y-54768548D01*
X195049133Y-54827031D01*
X195093448Y-54893352D01*
X195159769Y-54937667D01*
X195171938Y-54940088D01*
X195171939Y-54940088D01*
X195196368Y-54944947D01*
X195218252Y-54949300D01*
X195493233Y-54949300D01*
X195561354Y-54969302D01*
X195607847Y-55022958D01*
X195617951Y-55093232D01*
X195588457Y-55157812D01*
X195551413Y-55187063D01*
X195366463Y-55283342D01*
X195357738Y-55288836D01*
X195187433Y-55416705D01*
X195179726Y-55423548D01*
X195032590Y-55577517D01*
X195026104Y-55585527D01*
X194906098Y-55761449D01*
X194901000Y-55770423D01*
X194811338Y-55963583D01*
X194807775Y-55973270D01*
X194752389Y-56172983D01*
X177429231Y-56172983D01*
X177472766Y-56064687D01*
X177472767Y-56064685D01*
X177475601Y-56057634D01*
X177499490Y-55889778D01*
X177499645Y-55875000D01*
X177497840Y-55860080D01*
X177480188Y-55714220D01*
X177479276Y-55706680D01*
X177419345Y-55548077D01*
X177359309Y-55460724D01*
X177327614Y-55414608D01*
X177327613Y-55414607D01*
X177323312Y-55408349D01*
X177239663Y-55333820D01*
X177202107Y-55273570D01*
X177203088Y-55202580D01*
X177241652Y-55143933D01*
X177307648Y-55087567D01*
X177307651Y-55087564D01*
X177313423Y-55082634D01*
X177412361Y-54944947D01*
X177437248Y-54883039D01*
X177472766Y-54794687D01*
X177472767Y-54794685D01*
X177475601Y-54787634D01*
X177499490Y-54619778D01*
X177499645Y-54605000D01*
X177479276Y-54436680D01*
X177419345Y-54278077D01*
X177323312Y-54138349D01*
X177228096Y-54053514D01*
X177202392Y-54030612D01*
X177202388Y-54030610D01*
X177196721Y-54025560D01*
X177046881Y-53946224D01*
X176882441Y-53904919D01*
X176874843Y-53904879D01*
X176874841Y-53904879D01*
X176797668Y-53904475D01*
X176712895Y-53904031D01*
X176705508Y-53905805D01*
X176705504Y-53905805D01*
X176645799Y-53920140D01*
X176616308Y-53927220D01*
X176545401Y-53923674D01*
X176487667Y-53882355D01*
X176476373Y-53865209D01*
X176468787Y-53851353D01*
X176392285Y-53749276D01*
X176379724Y-53736715D01*
X176277649Y-53660214D01*
X176262054Y-53651676D01*
X176141606Y-53606522D01*
X176126351Y-53602895D01*
X176075486Y-53597369D01*
X176068672Y-53597000D01*
X175796115Y-53597000D01*
X175780876Y-53601475D01*
X175779671Y-53602865D01*
X175778000Y-53610548D01*
X175778000Y-54733000D01*
X175757998Y-54801121D01*
X175704342Y-54847614D01*
X175652000Y-54859000D01*
X174534116Y-54859000D01*
X174518877Y-54863475D01*
X174517672Y-54864865D01*
X174516001Y-54872548D01*
X174516001Y-55149669D01*
X173736000Y-55149669D01*
X173736000Y-54332885D01*
X174516000Y-54332885D01*
X174520475Y-54348124D01*
X174521865Y-54349329D01*
X174529548Y-54351000D01*
X175251885Y-54351000D01*
X175267124Y-54346525D01*
X175268329Y-54345135D01*
X175270000Y-54337452D01*
X175270000Y-53615116D01*
X175265525Y-53599877D01*
X175264135Y-53598672D01*
X175256452Y-53597001D01*
X174979331Y-53597001D01*
X174972510Y-53597371D01*
X174921648Y-53602895D01*
X174906396Y-53606521D01*
X174785946Y-53651676D01*
X174770351Y-53660214D01*
X174668276Y-53736715D01*
X174655715Y-53749276D01*
X174579214Y-53851351D01*
X174570676Y-53866946D01*
X174525522Y-53987394D01*
X174521895Y-54002649D01*
X174516369Y-54053514D01*
X174516000Y-54060328D01*
X174516000Y-54332885D01*
X173736000Y-54332885D01*
X173736000Y-53179361D01*
X182964500Y-53179361D01*
X182979956Y-53296762D01*
X183040464Y-53442841D01*
X183136718Y-53568282D01*
X183262159Y-53664536D01*
X183408238Y-53725044D01*
X183565000Y-53745682D01*
X183573188Y-53744604D01*
X183713574Y-53726122D01*
X183721762Y-53725044D01*
X183867841Y-53664536D01*
X183993282Y-53568282D01*
X184080479Y-53454645D01*
X184089536Y-53442841D01*
X184092201Y-53444886D01*
X184132250Y-53406691D01*
X184201962Y-53393246D01*
X184267876Y-53419625D01*
X184288980Y-53443980D01*
X184290464Y-53442841D01*
X184299522Y-53454645D01*
X184386718Y-53568282D01*
X184512159Y-53664536D01*
X184658238Y-53725044D01*
X184815000Y-53745682D01*
X184823188Y-53744604D01*
X184963574Y-53726122D01*
X184971762Y-53725044D01*
X185117841Y-53664536D01*
X185243282Y-53568282D01*
X185330479Y-53454645D01*
X185339536Y-53442841D01*
X185342201Y-53444886D01*
X185382250Y-53406691D01*
X185451962Y-53393246D01*
X185517876Y-53419625D01*
X185538980Y-53443980D01*
X185540464Y-53442841D01*
X185549522Y-53454645D01*
X185636718Y-53568282D01*
X185762159Y-53664536D01*
X185908238Y-53725044D01*
X186065000Y-53745682D01*
X186073188Y-53744604D01*
X186213574Y-53726122D01*
X186221762Y-53725044D01*
X186367841Y-53664536D01*
X186493282Y-53568282D01*
X186580479Y-53454645D01*
X186589536Y-53442841D01*
X186592201Y-53444886D01*
X186632250Y-53406691D01*
X186701962Y-53393246D01*
X186767876Y-53419625D01*
X186788980Y-53443980D01*
X186790464Y-53442841D01*
X186799522Y-53454645D01*
X186886718Y-53568282D01*
X187012159Y-53664536D01*
X187158238Y-53725044D01*
X187315000Y-53745682D01*
X187323188Y-53744604D01*
X187463574Y-53726122D01*
X187471762Y-53725044D01*
X187617841Y-53664536D01*
X187743282Y-53568282D01*
X187830479Y-53454645D01*
X187839536Y-53442841D01*
X187842201Y-53444886D01*
X187882250Y-53406691D01*
X187951962Y-53393246D01*
X188017876Y-53419625D01*
X188038980Y-53443980D01*
X188040464Y-53442841D01*
X188049522Y-53454645D01*
X188136718Y-53568282D01*
X188262159Y-53664536D01*
X188408238Y-53725044D01*
X188565000Y-53745682D01*
X188573188Y-53744604D01*
X188713574Y-53726122D01*
X188721762Y-53725044D01*
X188867841Y-53664536D01*
X188993282Y-53568282D01*
X189045114Y-53500734D01*
X189102451Y-53458867D01*
X189173322Y-53454645D01*
X189235225Y-53489409D01*
X189257343Y-53520234D01*
X189286950Y-53578342D01*
X189376658Y-53668050D01*
X189489696Y-53725646D01*
X189499485Y-53727196D01*
X189499487Y-53727197D01*
X189526849Y-53731530D01*
X189583481Y-53740500D01*
X189814953Y-53740500D01*
X190046518Y-53740499D01*
X190051412Y-53739724D01*
X190130506Y-53727198D01*
X190130508Y-53727197D01*
X190140304Y-53725646D01*
X190253342Y-53668050D01*
X190343050Y-53578342D01*
X190400646Y-53465304D01*
X190404024Y-53443980D01*
X190409929Y-53406691D01*
X190415500Y-53371519D01*
X190415499Y-52408482D01*
X190405412Y-52344789D01*
X190402198Y-52324494D01*
X190402197Y-52324492D01*
X190400646Y-52314696D01*
X190395984Y-52305545D01*
X190372657Y-52259765D01*
X190343050Y-52201658D01*
X190253342Y-52111950D01*
X190140304Y-52054354D01*
X190130515Y-52052804D01*
X190130513Y-52052803D01*
X190103151Y-52048470D01*
X190046519Y-52039500D01*
X189815047Y-52039500D01*
X189583482Y-52039501D01*
X189578589Y-52040276D01*
X189578588Y-52040276D01*
X189499494Y-52052802D01*
X189499492Y-52052803D01*
X189489696Y-52054354D01*
X189376658Y-52111950D01*
X189286950Y-52201658D01*
X189257343Y-52259765D01*
X189208595Y-52311380D01*
X189139680Y-52328446D01*
X189072478Y-52305545D01*
X189045113Y-52279266D01*
X189030150Y-52259765D01*
X188993282Y-52211718D01*
X188867841Y-52115464D01*
X188721762Y-52054956D01*
X188565000Y-52034318D01*
X188408238Y-52054956D01*
X188262159Y-52115464D01*
X188136718Y-52211718D01*
X188040464Y-52337159D01*
X188037799Y-52335114D01*
X187997750Y-52373309D01*
X187928038Y-52386754D01*
X187862124Y-52360375D01*
X187841020Y-52336020D01*
X187839536Y-52337159D01*
X187748305Y-52218264D01*
X187748304Y-52218263D01*
X187743282Y-52211718D01*
X187617841Y-52115464D01*
X187471762Y-52054956D01*
X187315000Y-52034318D01*
X187158238Y-52054956D01*
X187012159Y-52115464D01*
X186886718Y-52211718D01*
X186790464Y-52337159D01*
X186787799Y-52335114D01*
X186747750Y-52373309D01*
X186678038Y-52386754D01*
X186612124Y-52360375D01*
X186591020Y-52336020D01*
X186589536Y-52337159D01*
X186498305Y-52218264D01*
X186498304Y-52218263D01*
X186493282Y-52211718D01*
X186367841Y-52115464D01*
X186221762Y-52054956D01*
X186065000Y-52034318D01*
X185908238Y-52054956D01*
X185762159Y-52115464D01*
X185636718Y-52211718D01*
X185540464Y-52337159D01*
X185537799Y-52335114D01*
X185497750Y-52373309D01*
X185428038Y-52386754D01*
X185362124Y-52360375D01*
X185341020Y-52336020D01*
X185339536Y-52337159D01*
X185248305Y-52218264D01*
X185248304Y-52218263D01*
X185243282Y-52211718D01*
X185117841Y-52115464D01*
X184971762Y-52054956D01*
X184815000Y-52034318D01*
X184658238Y-52054956D01*
X184512159Y-52115464D01*
X184386718Y-52211718D01*
X184290464Y-52337159D01*
X184287799Y-52335114D01*
X184247750Y-52373309D01*
X184178038Y-52386754D01*
X184112124Y-52360375D01*
X184091020Y-52336020D01*
X184089536Y-52337159D01*
X183998305Y-52218264D01*
X183998304Y-52218263D01*
X183993282Y-52211718D01*
X183867841Y-52115464D01*
X183721762Y-52054956D01*
X183565000Y-52034318D01*
X183408238Y-52054956D01*
X183262159Y-52115464D01*
X183136718Y-52211718D01*
X183040464Y-52337159D01*
X182979956Y-52483238D01*
X182964500Y-52600639D01*
X182964500Y-53179361D01*
X173736000Y-53179361D01*
X173736000Y-50683841D01*
X173756002Y-50615720D01*
X173809658Y-50569227D01*
X173862000Y-50557841D01*
X198758653Y-50557841D01*
X198826774Y-50577843D01*
G37*
%TD.AperFunction*%
%TD*%
M02*
