%TF.GenerationSoftware,KiCad,Pcbnew,(6.0.8)*%
%TF.CreationDate,2023-03-18T00:57:18+01:00*%
%TF.ProjectId,WHEEL-07,57484545-4c2d-4303-972e-6b696361645f,rev?*%
%TF.SameCoordinates,Original*%
%TF.FileFunction,Soldermask,Top*%
%TF.FilePolarity,Negative*%
%FSLAX46Y46*%
G04 Gerber Fmt 4.6, Leading zero omitted, Abs format (unit mm)*
G04 Created by KiCad (PCBNEW (6.0.8)) date 2023-03-18 00:57:18*
%MOMM*%
%LPD*%
G01*
G04 APERTURE LIST*
G04 Aperture macros list*
%AMRoundRect*
0 Rectangle with rounded corners*
0 $1 Rounding radius*
0 $2 $3 $4 $5 $6 $7 $8 $9 X,Y pos of 4 corners*
0 Add a 4 corners polygon primitive as box body*
4,1,4,$2,$3,$4,$5,$6,$7,$8,$9,$2,$3,0*
0 Add four circle primitives for the rounded corners*
1,1,$1+$1,$2,$3*
1,1,$1+$1,$4,$5*
1,1,$1+$1,$6,$7*
1,1,$1+$1,$8,$9*
0 Add four rect primitives between the rounded corners*
20,1,$1+$1,$2,$3,$4,$5,0*
20,1,$1+$1,$4,$5,$6,$7,0*
20,1,$1+$1,$6,$7,$8,$9,0*
20,1,$1+$1,$8,$9,$2,$3,0*%
G04 Aperture macros list end*
%ADD10RoundRect,0.250000X0.250000X0.475000X-0.250000X0.475000X-0.250000X-0.475000X0.250000X-0.475000X0*%
%ADD11O,1.200000X1.800000*%
%ADD12RoundRect,0.250000X0.350000X0.650000X-0.350000X0.650000X-0.350000X-0.650000X0.350000X-0.650000X0*%
%ADD13R,0.850000X0.300000*%
%ADD14R,1.700000X2.500000*%
%ADD15RoundRect,0.200000X-0.450000X0.200000X-0.450000X-0.200000X0.450000X-0.200000X0.450000X0.200000X0*%
%ADD16O,1.300000X0.800000*%
%ADD17RoundRect,0.200000X0.200000X0.450000X-0.200000X0.450000X-0.200000X-0.450000X0.200000X-0.450000X0*%
%ADD18O,0.800000X1.300000*%
%ADD19RoundRect,0.150000X0.825000X0.150000X-0.825000X0.150000X-0.825000X-0.150000X0.825000X-0.150000X0*%
%ADD20RoundRect,0.160000X-0.160000X0.197500X-0.160000X-0.197500X0.160000X-0.197500X0.160000X0.197500X0*%
%ADD21RoundRect,0.250000X0.475000X-0.250000X0.475000X0.250000X-0.475000X0.250000X-0.475000X-0.250000X0*%
%ADD22RoundRect,0.155000X-0.040659X-0.259862X0.259862X0.040659X0.040659X0.259862X-0.259862X-0.040659X0*%
%ADD23R,1.250000X0.600000*%
%ADD24RoundRect,0.155000X0.212500X0.155000X-0.212500X0.155000X-0.212500X-0.155000X0.212500X-0.155000X0*%
%ADD25RoundRect,0.155000X0.040659X0.259862X-0.259862X-0.040659X-0.040659X-0.259862X0.259862X0.040659X0*%
%ADD26RoundRect,0.160000X-0.197500X-0.160000X0.197500X-0.160000X0.197500X0.160000X-0.197500X0.160000X0*%
%ADD27RoundRect,0.075000X-0.441942X-0.548008X0.548008X0.441942X0.441942X0.548008X-0.548008X-0.441942X0*%
%ADD28RoundRect,0.075000X0.441942X-0.548008X0.548008X-0.441942X-0.441942X0.548008X-0.548008X0.441942X0*%
%ADD29RoundRect,0.155000X-0.155000X0.212500X-0.155000X-0.212500X0.155000X-0.212500X0.155000X0.212500X0*%
%ADD30R,1.700000X1.700000*%
%ADD31O,1.700000X1.700000*%
%ADD32RoundRect,0.155000X-0.212500X-0.155000X0.212500X-0.155000X0.212500X0.155000X-0.212500X0.155000X0*%
%ADD33RoundRect,0.243750X-0.243750X-0.456250X0.243750X-0.456250X0.243750X0.456250X-0.243750X0.456250X0*%
%ADD34RoundRect,0.160000X0.197500X0.160000X-0.197500X0.160000X-0.197500X-0.160000X0.197500X-0.160000X0*%
%ADD35RoundRect,0.225000X0.250000X-0.225000X0.250000X0.225000X-0.250000X0.225000X-0.250000X-0.225000X0*%
%ADD36RoundRect,0.160000X0.160000X-0.197500X0.160000X0.197500X-0.160000X0.197500X-0.160000X-0.197500X0*%
%ADD37R,2.286000X1.854500*%
%ADD38R,0.800000X0.900000*%
%ADD39R,1.000000X1.800000*%
%ADD40RoundRect,0.150000X0.150000X-0.587500X0.150000X0.587500X-0.150000X0.587500X-0.150000X-0.587500X0*%
%ADD41R,1.000000X1.000000*%
%ADD42O,1.000000X1.000000*%
%ADD43R,0.475000X0.300000*%
%ADD44RoundRect,0.250000X0.650000X-0.350000X0.650000X0.350000X-0.650000X0.350000X-0.650000X-0.350000X0*%
%ADD45O,1.800000X1.200000*%
G04 APERTURE END LIST*
D10*
%TO.C,C15*%
X160817600Y-75641200D03*
X158917600Y-75641200D03*
%TD*%
D11*
%TO.C,J5*%
X189405000Y-78930000D03*
X191405000Y-78930000D03*
X193405000Y-78930000D03*
D12*
X195405000Y-78930000D03*
%TD*%
D13*
%TO.C,IC2*%
X152889000Y-54062000D03*
X152889000Y-55012000D03*
X152889000Y-55962000D03*
X155789000Y-55962000D03*
X155789000Y-55012000D03*
X155789000Y-54062000D03*
D14*
X154339000Y-55012000D03*
%TD*%
D15*
%TO.C,J7*%
X197358000Y-73152000D03*
D16*
X197358000Y-74402000D03*
%TD*%
D17*
%TO.C,J17*%
X189815000Y-52890000D03*
D18*
X188565000Y-52890000D03*
X187315000Y-52890000D03*
X186065000Y-52890000D03*
X184815000Y-52890000D03*
X183565000Y-52890000D03*
%TD*%
D19*
%TO.C,U2*%
X168083000Y-62103000D03*
X168083000Y-60833000D03*
X168083000Y-59563000D03*
X168083000Y-58293000D03*
X163133000Y-58293000D03*
X163133000Y-59563000D03*
X163133000Y-60833000D03*
X163133000Y-62103000D03*
%TD*%
D20*
%TO.C,R18*%
X172219256Y-77889544D03*
X172219256Y-79084544D03*
%TD*%
D21*
%TO.C,C13*%
X150529000Y-56322000D03*
X150529000Y-54422000D03*
%TD*%
D20*
%TO.C,R16*%
X169621200Y-77895072D03*
X169621200Y-79090072D03*
%TD*%
%TO.C,R6*%
X158900000Y-58502500D03*
X158900000Y-59697500D03*
%TD*%
D22*
%TO.C,C35*%
X179207234Y-57977966D03*
X180009800Y-57175400D03*
%TD*%
D19*
%TO.C,U3*%
X168083000Y-56261000D03*
X168083000Y-54991000D03*
X168083000Y-53721000D03*
X168083000Y-52451000D03*
X163133000Y-52451000D03*
X163133000Y-53721000D03*
X163133000Y-54991000D03*
X163133000Y-56261000D03*
%TD*%
D23*
%TO.C,IC4*%
X187198000Y-75692000D03*
X187198000Y-74742000D03*
X187198000Y-73792000D03*
X184698000Y-73792000D03*
X184698000Y-74742000D03*
X184698000Y-75692000D03*
%TD*%
D24*
%TO.C,C4*%
X169883900Y-74472800D03*
X168748900Y-74472800D03*
%TD*%
D22*
%TO.C,C37*%
X186212517Y-68549483D03*
X187015083Y-67746917D03*
%TD*%
D25*
%TO.C,C36*%
X181096883Y-74223917D03*
X180294317Y-75026483D03*
%TD*%
D26*
%TO.C,R11*%
X162707800Y-76088000D03*
X163902800Y-76088000D03*
%TD*%
D27*
%TO.C,U1*%
X170591700Y-68356700D03*
X170945253Y-68710253D03*
X171298806Y-69063806D03*
X171652360Y-69417360D03*
X172005913Y-69770913D03*
X172359467Y-70124467D03*
X172713020Y-70478020D03*
X173066573Y-70831573D03*
X173420127Y-71185127D03*
X173773680Y-71538680D03*
X174127233Y-71892233D03*
X174480787Y-72245787D03*
X174834340Y-72599340D03*
X175187894Y-72952894D03*
X175541447Y-73306447D03*
X175895000Y-73660000D03*
D28*
X178617362Y-73660000D03*
X178970915Y-73306447D03*
X179324468Y-72952894D03*
X179678022Y-72599340D03*
X180031575Y-72245787D03*
X180385129Y-71892233D03*
X180738682Y-71538680D03*
X181092235Y-71185127D03*
X181445789Y-70831573D03*
X181799342Y-70478020D03*
X182152895Y-70124467D03*
X182506449Y-69770913D03*
X182860002Y-69417360D03*
X183213556Y-69063806D03*
X183567109Y-68710253D03*
X183920662Y-68356700D03*
D27*
X183920662Y-65634338D03*
X183567109Y-65280785D03*
X183213556Y-64927232D03*
X182860002Y-64573678D03*
X182506449Y-64220125D03*
X182152895Y-63866571D03*
X181799342Y-63513018D03*
X181445789Y-63159465D03*
X181092235Y-62805911D03*
X180738682Y-62452358D03*
X180385129Y-62098805D03*
X180031575Y-61745251D03*
X179678022Y-61391698D03*
X179324468Y-61038144D03*
X178970915Y-60684591D03*
X178617362Y-60331038D03*
D28*
X175895000Y-60331038D03*
X175541447Y-60684591D03*
X175187894Y-61038144D03*
X174834340Y-61391698D03*
X174480787Y-61745251D03*
X174127233Y-62098805D03*
X173773680Y-62452358D03*
X173420127Y-62805911D03*
X173066573Y-63159465D03*
X172713020Y-63513018D03*
X172359467Y-63866571D03*
X172005913Y-64220125D03*
X171652360Y-64573678D03*
X171298806Y-64927232D03*
X170945253Y-65280785D03*
X170591700Y-65634338D03*
%TD*%
D29*
%TO.C,C6*%
X164465000Y-68393500D03*
X164465000Y-69528500D03*
%TD*%
D30*
%TO.C,J16*%
X196088000Y-53898800D03*
D31*
X196088000Y-56438800D03*
%TD*%
D20*
%TO.C,R24*%
X173518284Y-77911656D03*
X173518284Y-79106656D03*
%TD*%
%TO.C,R22*%
X177415368Y-77922712D03*
X177415368Y-79117712D03*
%TD*%
D32*
%TO.C,C21*%
X152391300Y-75793600D03*
X153526300Y-75793600D03*
%TD*%
D33*
%TO.C,D1*%
X162107400Y-65481200D03*
X163982400Y-65481200D03*
%TD*%
D34*
%TO.C,R9*%
X163919500Y-78613000D03*
X162724500Y-78613000D03*
%TD*%
D35*
%TO.C,C14*%
X158149000Y-55152000D03*
X158149000Y-53602000D03*
%TD*%
D26*
%TO.C,R8*%
X162724500Y-82423000D03*
X163919500Y-82423000D03*
%TD*%
D36*
%TO.C,R4*%
X158900000Y-63747500D03*
X158900000Y-62552500D03*
%TD*%
D22*
%TO.C,C34*%
X168666234Y-64912166D03*
X169468800Y-64109600D03*
%TD*%
D20*
%TO.C,R17*%
X170920228Y-77884016D03*
X170920228Y-79079016D03*
%TD*%
D26*
%TO.C,R7*%
X162724500Y-81153000D03*
X163919500Y-81153000D03*
%TD*%
D24*
%TO.C,C16*%
X159885000Y-78867000D03*
X158750000Y-78867000D03*
%TD*%
D37*
%TO.C,L2*%
X154559000Y-82931000D03*
X154559000Y-79146500D03*
%TD*%
D15*
%TO.C,J14*%
X197358000Y-62240000D03*
D16*
X197358000Y-63490000D03*
%TD*%
D32*
%TO.C,C22*%
X152391300Y-77063600D03*
X153526300Y-77063600D03*
%TD*%
D15*
%TO.C,J10*%
X192786000Y-67701000D03*
D16*
X192786000Y-68951000D03*
%TD*%
D38*
%TO.C,Y1*%
X168766400Y-71486800D03*
X168766400Y-72886800D03*
X169866400Y-72886800D03*
X169866400Y-71486800D03*
%TD*%
D39*
%TO.C,Y2*%
X168636000Y-68834000D03*
X166136000Y-68834000D03*
%TD*%
D32*
%TO.C,C5*%
X167862500Y-66929000D03*
X168997500Y-66929000D03*
%TD*%
D20*
%TO.C,R21*%
X176116340Y-77917184D03*
X176116340Y-79112184D03*
%TD*%
%TO.C,R20*%
X174817312Y-77906128D03*
X174817312Y-79101128D03*
%TD*%
D17*
%TO.C,J12*%
X181357600Y-82346800D03*
D18*
X180107600Y-82346800D03*
X178857600Y-82346800D03*
X177607600Y-82346800D03*
X176357600Y-82346800D03*
X175107600Y-82346800D03*
X173857600Y-82346800D03*
X172607600Y-82346800D03*
X171357600Y-82346800D03*
X170107600Y-82346800D03*
%TD*%
D40*
%TO.C,Q1*%
X158841400Y-71016100D03*
X160741400Y-71016100D03*
X159791400Y-69141100D03*
%TD*%
D41*
%TO.C,J11*%
X175524000Y-54605000D03*
D42*
X176794000Y-54605000D03*
X175524000Y-55875000D03*
X176794000Y-55875000D03*
X175524000Y-57145000D03*
X176794000Y-57145000D03*
%TD*%
D24*
%TO.C,C20*%
X163830000Y-74828400D03*
X162695000Y-74828400D03*
%TD*%
D34*
%TO.C,R5*%
X166776400Y-65532000D03*
X165581400Y-65532000D03*
%TD*%
D15*
%TO.C,J8*%
X192786000Y-73152000D03*
D16*
X192786000Y-74402000D03*
%TD*%
D43*
%TO.C,IC3*%
X158479500Y-80373000D03*
X158479500Y-80873000D03*
X158479500Y-81373000D03*
X158479500Y-81873000D03*
X160155500Y-81873000D03*
X160155500Y-81373000D03*
X160155500Y-80873000D03*
X160155500Y-80373000D03*
%TD*%
D22*
%TO.C,C1*%
X187152317Y-69336883D03*
X187954883Y-68534317D03*
%TD*%
D15*
%TO.C,J9*%
X197358000Y-67696000D03*
D16*
X197358000Y-68946000D03*
%TD*%
D34*
%TO.C,R10*%
X163902800Y-77358000D03*
X162707800Y-77358000D03*
%TD*%
D20*
%TO.C,R23*%
X178714400Y-77900600D03*
X178714400Y-79095600D03*
%TD*%
D24*
%TO.C,C18*%
X163902800Y-79883000D03*
X162767800Y-79883000D03*
%TD*%
%TO.C,C3*%
X167081200Y-71475600D03*
X165946200Y-71475600D03*
%TD*%
D33*
%TO.C,F1*%
X158930100Y-73355200D03*
X160805100Y-73355200D03*
%TD*%
D15*
%TO.C,J15*%
X192786000Y-62230000D03*
D16*
X192786000Y-63480000D03*
%TD*%
D24*
%TO.C,C17*%
X159825500Y-77520800D03*
X158690500Y-77520800D03*
%TD*%
%TO.C,C19*%
X163889500Y-83693000D03*
X162754500Y-83693000D03*
%TD*%
D22*
%TO.C,C2*%
X180096234Y-58866966D03*
X180898800Y-58064400D03*
%TD*%
D41*
%TO.C,J2*%
X188722000Y-64389000D03*
D42*
X188722000Y-63119000D03*
X188722000Y-61849000D03*
X188722000Y-60579000D03*
X188722000Y-59309000D03*
X188722000Y-58039000D03*
%TD*%
D44*
%TO.C,J1*%
X154953200Y-71675000D03*
D45*
X154953200Y-69675000D03*
X154953200Y-67675000D03*
X154953200Y-65675000D03*
X154953200Y-63675000D03*
X154953200Y-61675000D03*
%TD*%
M02*
