%TF.GenerationSoftware,KiCad,Pcbnew,(6.0.8)*%
%TF.CreationDate,2024-11-24T14:10:59+01:00*%
%TF.ProjectId,WHEEL-07,57484545-4c2d-4303-972e-6b696361645f,rev?*%
%TF.SameCoordinates,Original*%
%TF.FileFunction,Drillmap*%
%TF.FilePolarity,Positive*%
%FSLAX45Y45*%
G04 Gerber Fmt 4.5, Leading zero omitted, Abs format (unit mm)*
G04 Created by KiCad (PCBNEW (6.0.8)) date 2024-11-24 14:10:59*
%MOMM*%
%LPD*%
G01*
G04 APERTURE LIST*
%ADD10C,0.100000*%
%ADD11C,0.200000*%
%ADD12C,0.030000*%
%ADD13C,0.040000*%
%ADD14C,0.050000*%
%ADD15C,0.065000*%
%ADD16C,0.080000*%
G04 APERTURE END LIST*
D10*
X14841400Y-5258880D02*
G75*
G03*
X15044600Y-5055684I0J203200D01*
G01*
X19888196Y-5055684D02*
G75*
G03*
X20091400Y-5258884I203204J4D01*
G01*
X20091400Y-8322480D02*
G75*
G03*
X19888200Y-8525684I0J-203200D01*
G01*
X19888200Y-5055684D02*
X15044600Y-5055684D01*
X14841400Y-5258884D02*
X14841400Y-8322484D01*
X20091400Y-8322484D02*
X20091400Y-5258884D01*
X15044600Y-8525684D02*
X19888200Y-8525684D01*
X15044596Y-8525684D02*
G75*
G03*
X14841400Y-8322484I-203196J4D01*
G01*
D11*
D12*
X15244460Y-5272840D02*
X15274460Y-5302840D01*
X15274460Y-5272840D02*
X15244460Y-5302840D01*
X15248680Y-5204700D02*
X15278680Y-5234700D01*
X15278680Y-5204700D02*
X15248680Y-5234700D01*
X15310787Y-5272840D02*
X15340787Y-5302840D01*
X15340787Y-5272840D02*
X15310787Y-5302840D01*
X15315007Y-5204700D02*
X15345007Y-5234700D01*
X15345007Y-5204700D02*
X15315007Y-5234700D01*
X15377113Y-5272840D02*
X15407113Y-5302840D01*
X15407113Y-5272840D02*
X15377113Y-5302840D01*
X15381333Y-5204700D02*
X15411333Y-5234700D01*
X15411333Y-5204700D02*
X15381333Y-5234700D01*
X15443440Y-5272840D02*
X15473440Y-5302840D01*
X15473440Y-5272840D02*
X15443440Y-5302840D01*
X15447660Y-5204700D02*
X15477660Y-5234700D01*
X15477660Y-5204700D02*
X15447660Y-5234700D01*
X15725000Y-5837680D02*
X15755000Y-5867680D01*
X15755000Y-5837680D02*
X15725000Y-5867680D01*
X15819000Y-7453000D02*
X15849000Y-7483000D01*
X15849000Y-7453000D02*
X15819000Y-7483000D01*
X15902500Y-5250000D02*
X15932500Y-5280000D01*
X15932500Y-5250000D02*
X15902500Y-5280000D01*
X15902500Y-5530000D02*
X15932500Y-5560000D01*
X15932500Y-5530000D02*
X15902500Y-5560000D01*
X15985000Y-5252500D02*
X16015000Y-5282500D01*
X16015000Y-5252500D02*
X15985000Y-5282500D01*
X15985000Y-5530000D02*
X16015000Y-5560000D01*
X16015000Y-5530000D02*
X15985000Y-5560000D01*
X16021000Y-7411000D02*
X16051000Y-7441000D01*
X16051000Y-7411000D02*
X16021000Y-7441000D01*
X16069000Y-5253000D02*
X16099000Y-5283000D01*
X16099000Y-5253000D02*
X16069000Y-5283000D01*
X16069000Y-5334000D02*
X16099000Y-5364000D01*
X16099000Y-5334000D02*
X16069000Y-5364000D01*
X16069000Y-5421000D02*
X16099000Y-5451000D01*
X16099000Y-5421000D02*
X16069000Y-5451000D01*
X16095000Y-7340000D02*
X16125000Y-7370000D01*
X16125000Y-7340000D02*
X16095000Y-7370000D01*
X16103840Y-6533120D02*
X16133840Y-6563120D01*
X16133840Y-6533120D02*
X16103840Y-6563120D01*
X16123300Y-7879320D02*
X16153300Y-7909320D01*
X16153300Y-7879320D02*
X16123300Y-7909320D01*
X16127520Y-7811180D02*
X16157520Y-7841180D01*
X16157520Y-7811180D02*
X16127520Y-7841180D01*
X16189627Y-7879320D02*
X16219627Y-7909320D01*
X16219627Y-7879320D02*
X16189627Y-7909320D01*
X16193847Y-7811180D02*
X16223847Y-7841180D01*
X16223847Y-7811180D02*
X16193847Y-7841180D01*
X16255953Y-7879320D02*
X16285953Y-7909320D01*
X16285953Y-7879320D02*
X16255953Y-7909320D01*
X16260173Y-7811180D02*
X16290173Y-7841180D01*
X16290173Y-7811180D02*
X16260173Y-7841180D01*
X16322280Y-7879320D02*
X16352280Y-7909320D01*
X16352280Y-7879320D02*
X16322280Y-7909320D01*
X16326500Y-7811180D02*
X16356500Y-7841180D01*
X16356500Y-7811180D02*
X16326500Y-7841180D01*
X16368000Y-6970000D02*
X16398000Y-7000000D01*
X16398000Y-6970000D02*
X16368000Y-7000000D01*
X16445000Y-5605000D02*
X16475000Y-5635000D01*
X16475000Y-5605000D02*
X16445000Y-5635000D01*
X16445000Y-6205000D02*
X16475000Y-6235000D01*
X16475000Y-6205000D02*
X16445000Y-6235000D01*
X16505160Y-7132560D02*
X16535160Y-7162560D01*
X16535160Y-7132560D02*
X16505160Y-7162560D01*
X16510240Y-7691360D02*
X16540240Y-7721360D01*
X16540240Y-7691360D02*
X16510240Y-7721360D01*
X16510240Y-7848840D02*
X16540240Y-7878840D01*
X16540240Y-7848840D02*
X16510240Y-7878840D01*
X16511980Y-7772510D02*
X16541980Y-7802510D01*
X16541980Y-7772510D02*
X16511980Y-7802510D01*
X16603373Y-7691360D02*
X16633373Y-7721360D01*
X16633373Y-7691360D02*
X16603373Y-7721360D01*
X16603840Y-8444160D02*
X16633840Y-8474160D01*
X16633840Y-8444160D02*
X16603840Y-8474160D01*
X16647400Y-5344400D02*
X16677400Y-5374400D01*
X16677400Y-5344400D02*
X16647400Y-5374400D01*
X16647400Y-5496800D02*
X16677400Y-5526800D01*
X16677400Y-5496800D02*
X16647400Y-5526800D01*
X16647400Y-5928600D02*
X16677400Y-5958600D01*
X16677400Y-5928600D02*
X16647400Y-5958600D01*
X16647400Y-6081000D02*
X16677400Y-6111000D01*
X16677400Y-6081000D02*
X16647400Y-6111000D01*
X16696507Y-7691360D02*
X16726507Y-7721360D01*
X16726507Y-7691360D02*
X16696507Y-7721360D01*
X16749000Y-6558520D02*
X16779000Y-6588520D01*
X16779000Y-6558520D02*
X16749000Y-6588520D01*
X16784560Y-7371320D02*
X16814560Y-7401320D01*
X16814560Y-7371320D02*
X16784560Y-7401320D01*
X16789640Y-7691360D02*
X16819640Y-7721360D01*
X16819640Y-7691360D02*
X16789640Y-7721360D01*
X16794720Y-7772640D02*
X16824720Y-7802640D01*
X16824720Y-7772640D02*
X16794720Y-7802640D01*
X16794720Y-7843760D02*
X16824720Y-7873760D01*
X16824720Y-7843760D02*
X16794720Y-7873760D01*
X16810472Y-6431008D02*
X16840472Y-6461008D01*
X16840472Y-6431008D02*
X16810472Y-6461008D01*
X16886672Y-6349728D02*
X16916672Y-6379728D01*
X16916672Y-6349728D02*
X16886672Y-6379728D01*
X16888700Y-6614400D02*
X16918700Y-6644400D01*
X16918700Y-6614400D02*
X16888700Y-6644400D01*
X16898968Y-7688807D02*
X16928968Y-7718807D01*
X16928968Y-7688807D02*
X16898968Y-7718807D01*
X16952200Y-8011400D02*
X16982200Y-8041400D01*
X16982200Y-8011400D02*
X16952200Y-8041400D01*
X17063960Y-7112240D02*
X17093960Y-7142240D01*
X17093960Y-7112240D02*
X17063960Y-7142240D01*
X17079200Y-8011400D02*
X17109200Y-8041400D01*
X17109200Y-8011400D02*
X17079200Y-8041400D01*
X17090850Y-6284200D02*
X17120850Y-6314200D01*
X17120850Y-6284200D02*
X17090850Y-6314200D01*
X17119840Y-6685520D02*
X17149840Y-6715520D01*
X17149840Y-6685520D02*
X17119840Y-6715520D01*
X17206200Y-8011400D02*
X17236200Y-8041400D01*
X17236200Y-8011400D02*
X17206200Y-8041400D01*
X17231600Y-6004800D02*
X17261600Y-6034800D01*
X17261600Y-6004800D02*
X17231600Y-6034800D01*
X17333200Y-6931900D02*
X17363200Y-6961900D01*
X17363200Y-6931900D02*
X17333200Y-6961900D01*
X17333200Y-8011400D02*
X17363200Y-8041400D01*
X17363200Y-8011400D02*
X17333200Y-8041400D01*
X17450040Y-6680440D02*
X17480040Y-6710440D01*
X17480040Y-6680440D02*
X17450040Y-6710440D01*
X17450040Y-7015720D02*
X17480040Y-7045720D01*
X17480040Y-7015720D02*
X17450040Y-7045720D01*
X17460200Y-8011400D02*
X17490200Y-8041400D01*
X17490200Y-8011400D02*
X17460200Y-8041400D01*
X17507642Y-7113827D02*
X17537642Y-7143827D01*
X17537642Y-7113827D02*
X17507642Y-7143827D01*
X17599900Y-8011400D02*
X17629900Y-8041400D01*
X17629900Y-8011400D02*
X17599900Y-8041400D01*
X17607520Y-6751560D02*
X17637520Y-6781560D01*
X17637520Y-6751560D02*
X17607520Y-6781560D01*
X17612600Y-7102080D02*
X17642600Y-7132080D01*
X17642600Y-7102080D02*
X17612600Y-7132080D01*
X17724360Y-6797280D02*
X17754360Y-6827280D01*
X17754360Y-6797280D02*
X17724360Y-6827280D01*
X17726900Y-8011400D02*
X17756900Y-8041400D01*
X17756900Y-8011400D02*
X17726900Y-8041400D01*
X17853900Y-8011400D02*
X17883900Y-8041400D01*
X17883900Y-8011400D02*
X17853900Y-8041400D01*
X17856952Y-5729968D02*
X17886952Y-5759968D01*
X17886952Y-5729968D02*
X17856952Y-5759968D01*
X17944054Y-7775764D02*
X17974054Y-7805764D01*
X17974054Y-7775764D02*
X17944054Y-7805764D01*
X17946682Y-7097392D02*
X17976682Y-7127392D01*
X17976682Y-7097392D02*
X17946682Y-7127392D01*
X17973280Y-6751560D02*
X18003280Y-6781560D01*
X18003280Y-6751560D02*
X17973280Y-6781560D01*
X17973280Y-7010640D02*
X18003280Y-7040640D01*
X18003280Y-7010640D02*
X17973280Y-7040640D01*
X18034752Y-5653768D02*
X18064752Y-5683768D01*
X18064752Y-5653768D02*
X18034752Y-5683768D01*
X18044400Y-7544040D02*
X18074400Y-7574040D01*
X18074400Y-7544040D02*
X18044400Y-7574040D01*
X18123652Y-5742668D02*
X18153652Y-5772668D01*
X18153652Y-5742668D02*
X18123652Y-5772668D01*
X18140920Y-7447520D02*
X18170920Y-7477520D01*
X18170920Y-7447520D02*
X18140920Y-7477520D01*
X18430480Y-6614400D02*
X18460480Y-6644400D01*
X18460480Y-6614400D02*
X18430480Y-6644400D01*
X18516840Y-6716000D02*
X18546840Y-6746000D01*
X18546840Y-6716000D02*
X18516840Y-6746000D01*
X18557480Y-6787120D02*
X18587480Y-6817120D01*
X18587480Y-6787120D02*
X18557480Y-6817120D01*
X18735280Y-6710920D02*
X18765280Y-6740920D01*
X18765280Y-6710920D02*
X18735280Y-6740920D01*
X18810980Y-6773480D02*
X18840980Y-6803480D01*
X18840980Y-6773480D02*
X18810980Y-6803480D01*
X18887833Y-6751443D02*
X18917833Y-6781443D01*
X18917833Y-6751443D02*
X18887833Y-6781443D01*
X18974040Y-6670280D02*
X19004040Y-6700280D01*
X19004040Y-6670280D02*
X18974040Y-6700280D01*
D13*
X15079000Y-7377000D02*
G75*
G03*
X15079000Y-7377000I-20000J0D01*
G01*
X15085000Y-7638000D02*
G75*
G03*
X15085000Y-7638000I-20000J0D01*
G01*
X15091000Y-8316000D02*
G75*
G03*
X15091000Y-8316000I-20000J0D01*
G01*
X15093000Y-8088000D02*
G75*
G03*
X15093000Y-8088000I-20000J0D01*
G01*
X15589000Y-8099000D02*
G75*
G03*
X15589000Y-8099000I-20000J0D01*
G01*
X15595000Y-7385000D02*
G75*
G03*
X15595000Y-7385000I-20000J0D01*
G01*
X15596000Y-7637000D02*
G75*
G03*
X15596000Y-7637000I-20000J0D01*
G01*
X15750000Y-7217000D02*
G75*
G03*
X15750000Y-7217000I-20000J0D01*
G01*
X16052000Y-7264000D02*
G75*
G03*
X16052000Y-7264000I-20000J0D01*
G01*
X18070000Y-7680000D02*
G75*
G03*
X18070000Y-7680000I-20000J0D01*
G01*
X18160000Y-7680000D02*
G75*
G03*
X18160000Y-7680000I-20000J0D01*
G01*
X18358800Y-7474200D02*
G75*
G03*
X18358800Y-7474200I-20000J0D01*
G01*
X18866800Y-7474200D02*
G75*
G03*
X18866800Y-7474200I-20000J0D01*
G01*
X18866800Y-7626600D02*
G75*
G03*
X18866800Y-7626600I-20000J0D01*
G01*
X18892200Y-8305800D02*
G75*
G03*
X18892200Y-8305800I-20000J0D01*
G01*
X19095400Y-7620000D02*
G75*
G03*
X19095400Y-7620000I-20000J0D01*
G01*
X19146200Y-8305800D02*
G75*
G03*
X19146200Y-8305800I-20000J0D01*
G01*
X19324000Y-8305800D02*
G75*
G03*
X19324000Y-8305800I-20000J0D01*
G01*
X19578000Y-8305800D02*
G75*
G03*
X19578000Y-8305800I-20000J0D01*
G01*
D14*
X17010760Y-8209680D02*
X17010760Y-8259680D01*
X16985760Y-8234680D02*
X17035760Y-8234680D01*
X17135760Y-8209680D02*
X17135760Y-8259680D01*
X17110760Y-8234680D02*
X17160760Y-8234680D01*
X17260760Y-8209680D02*
X17260760Y-8259680D01*
X17235760Y-8234680D02*
X17285760Y-8234680D01*
X17385760Y-8209680D02*
X17385760Y-8259680D01*
X17360760Y-8234680D02*
X17410760Y-8234680D01*
X17510760Y-8209680D02*
X17510760Y-8259680D01*
X17485760Y-8234680D02*
X17535760Y-8234680D01*
X17635760Y-8209680D02*
X17635760Y-8259680D01*
X17610760Y-8234680D02*
X17660760Y-8234680D01*
X17760760Y-8209680D02*
X17760760Y-8259680D01*
X17735760Y-8234680D02*
X17785760Y-8234680D01*
X17885760Y-8209680D02*
X17885760Y-8259680D01*
X17860760Y-8234680D02*
X17910760Y-8234680D01*
X18010760Y-8209680D02*
X18010760Y-8259680D01*
X17985760Y-8234680D02*
X18035760Y-8234680D01*
X18135760Y-8209680D02*
X18135760Y-8259680D01*
X18110760Y-8234680D02*
X18160760Y-8234680D01*
X18356500Y-5264000D02*
X18356500Y-5314000D01*
X18331500Y-5289000D02*
X18381500Y-5289000D01*
X18481500Y-5264000D02*
X18481500Y-5314000D01*
X18456500Y-5289000D02*
X18506500Y-5289000D01*
X18606500Y-5264000D02*
X18606500Y-5314000D01*
X18581500Y-5289000D02*
X18631500Y-5289000D01*
X18731500Y-5264000D02*
X18731500Y-5314000D01*
X18706500Y-5289000D02*
X18756500Y-5289000D01*
X18856500Y-5264000D02*
X18856500Y-5314000D01*
X18831500Y-5289000D02*
X18881500Y-5289000D01*
X18981500Y-5264000D02*
X18981500Y-5314000D01*
X18956500Y-5289000D02*
X19006500Y-5289000D01*
X19278600Y-6198000D02*
X19278600Y-6248000D01*
X19253600Y-6223000D02*
X19303600Y-6223000D01*
X19278600Y-6323000D02*
X19278600Y-6373000D01*
X19253600Y-6348000D02*
X19303600Y-6348000D01*
X19278600Y-6745100D02*
X19278600Y-6795100D01*
X19253600Y-6770100D02*
X19303600Y-6770100D01*
X19278600Y-6870100D02*
X19278600Y-6920100D01*
X19253600Y-6895100D02*
X19303600Y-6895100D01*
X19278600Y-7290200D02*
X19278600Y-7340200D01*
X19253600Y-7315200D02*
X19303600Y-7315200D01*
X19278600Y-7415200D02*
X19278600Y-7465200D01*
X19253600Y-7440200D02*
X19303600Y-7440200D01*
X19735800Y-6199000D02*
X19735800Y-6249000D01*
X19710800Y-6224000D02*
X19760800Y-6224000D01*
X19735800Y-6324000D02*
X19735800Y-6374000D01*
X19710800Y-6349000D02*
X19760800Y-6349000D01*
X19735800Y-6744600D02*
X19735800Y-6794600D01*
X19710800Y-6769600D02*
X19760800Y-6769600D01*
X19735800Y-6869600D02*
X19735800Y-6919600D01*
X19710800Y-6894600D02*
X19760800Y-6894600D01*
X19735800Y-7290200D02*
X19735800Y-7340200D01*
X19710800Y-7315200D02*
X19760800Y-7315200D01*
X19735800Y-7415200D02*
X19735800Y-7465200D01*
X19710800Y-7440200D02*
X19760800Y-7440200D01*
D15*
X17575381Y-5483481D02*
X17575381Y-5437519D01*
X17529419Y-5437519D01*
X17529419Y-5483481D01*
X17575381Y-5483481D01*
X17575381Y-5610481D02*
X17575381Y-5564519D01*
X17529419Y-5564519D01*
X17529419Y-5610481D01*
X17575381Y-5610481D01*
X17575381Y-5737481D02*
X17575381Y-5691519D01*
X17529419Y-5691519D01*
X17529419Y-5737481D01*
X17575381Y-5737481D01*
X17702381Y-5483481D02*
X17702381Y-5437519D01*
X17656419Y-5437519D01*
X17656419Y-5483481D01*
X17702381Y-5483481D01*
X17702381Y-5610481D02*
X17702381Y-5564519D01*
X17656419Y-5564519D01*
X17656419Y-5610481D01*
X17702381Y-5610481D01*
X17702381Y-5737481D02*
X17702381Y-5691519D01*
X17656419Y-5691519D01*
X17656419Y-5737481D01*
X17702381Y-5737481D01*
X18895181Y-5826881D02*
X18895181Y-5780919D01*
X18849219Y-5780919D01*
X18849219Y-5826881D01*
X18895181Y-5826881D01*
X18895181Y-5953881D02*
X18895181Y-5907919D01*
X18849219Y-5907919D01*
X18849219Y-5953881D01*
X18895181Y-5953881D01*
X18895181Y-6080881D02*
X18895181Y-6034919D01*
X18849219Y-6034919D01*
X18849219Y-6080881D01*
X18895181Y-6080881D01*
X18895181Y-6207881D02*
X18895181Y-6161919D01*
X18849219Y-6161919D01*
X18849219Y-6207881D01*
X18895181Y-6207881D01*
X18895181Y-6334881D02*
X18895181Y-6288919D01*
X18849219Y-6288919D01*
X18849219Y-6334881D01*
X18895181Y-6334881D01*
X18895181Y-6461881D02*
X18895181Y-6415919D01*
X18849219Y-6415919D01*
X18849219Y-6461881D01*
X18895181Y-6461881D01*
D16*
X15495320Y-6207500D02*
X15535320Y-6167500D01*
X15495320Y-6127500D01*
X15455320Y-6167500D01*
X15495320Y-6207500D01*
X15495320Y-6407500D02*
X15535320Y-6367500D01*
X15495320Y-6327500D01*
X15455320Y-6367500D01*
X15495320Y-6407500D01*
X15495320Y-6607500D02*
X15535320Y-6567500D01*
X15495320Y-6527500D01*
X15455320Y-6567500D01*
X15495320Y-6607500D01*
X15495320Y-6807500D02*
X15535320Y-6767500D01*
X15495320Y-6727500D01*
X15455320Y-6767500D01*
X15495320Y-6807500D01*
X15495320Y-7007500D02*
X15535320Y-6967500D01*
X15495320Y-6927500D01*
X15455320Y-6967500D01*
X15495320Y-7007500D01*
X15495320Y-7207500D02*
X15535320Y-7167500D01*
X15495320Y-7127500D01*
X15455320Y-7167500D01*
X15495320Y-7207500D01*
X18940500Y-7933000D02*
X18980500Y-7893000D01*
X18940500Y-7853000D01*
X18900500Y-7893000D01*
X18940500Y-7933000D01*
X19140500Y-7933000D02*
X19180500Y-7893000D01*
X19140500Y-7853000D01*
X19100500Y-7893000D01*
X19140500Y-7933000D01*
X19340500Y-7933000D02*
X19380500Y-7893000D01*
X19340500Y-7853000D01*
X19300500Y-7893000D01*
X19340500Y-7933000D01*
X19540500Y-7933000D02*
X19580500Y-7893000D01*
X19540500Y-7853000D01*
X19500500Y-7893000D01*
X19540500Y-7933000D01*
D10*
X19558800Y-5339880D02*
X19658800Y-5439880D01*
X19658800Y-5339880D02*
X19558800Y-5439880D01*
X19658800Y-5389880D02*
G75*
G03*
X19658800Y-5389880I-50000J0D01*
G01*
X19558800Y-5593880D02*
X19658800Y-5693880D01*
X19658800Y-5593880D02*
X19558800Y-5693880D01*
X19658800Y-5643880D02*
G75*
G03*
X19658800Y-5643880I-50000J0D01*
G01*
D11*
X15094019Y-8841160D02*
X15094019Y-8641160D01*
X15141638Y-8641160D01*
X15170209Y-8650684D01*
X15189257Y-8669732D01*
X15198781Y-8688779D01*
X15208305Y-8726875D01*
X15208305Y-8755446D01*
X15198781Y-8793541D01*
X15189257Y-8812589D01*
X15170209Y-8831637D01*
X15141638Y-8841160D01*
X15094019Y-8841160D01*
X15294019Y-8841160D02*
X15294019Y-8707827D01*
X15294019Y-8745922D02*
X15303543Y-8726875D01*
X15313066Y-8717351D01*
X15332114Y-8707827D01*
X15351162Y-8707827D01*
X15417828Y-8841160D02*
X15417828Y-8707827D01*
X15417828Y-8641160D02*
X15408305Y-8650684D01*
X15417828Y-8660208D01*
X15427352Y-8650684D01*
X15417828Y-8641160D01*
X15417828Y-8660208D01*
X15541638Y-8841160D02*
X15522590Y-8831637D01*
X15513066Y-8812589D01*
X15513066Y-8641160D01*
X15646400Y-8841160D02*
X15627352Y-8831637D01*
X15617828Y-8812589D01*
X15617828Y-8641160D01*
X15874971Y-8841160D02*
X15874971Y-8641160D01*
X15941638Y-8784018D01*
X16008305Y-8641160D01*
X16008305Y-8841160D01*
X16189257Y-8841160D02*
X16189257Y-8736398D01*
X16179733Y-8717351D01*
X16160686Y-8707827D01*
X16122590Y-8707827D01*
X16103543Y-8717351D01*
X16189257Y-8831637D02*
X16170209Y-8841160D01*
X16122590Y-8841160D01*
X16103543Y-8831637D01*
X16094019Y-8812589D01*
X16094019Y-8793541D01*
X16103543Y-8774494D01*
X16122590Y-8764970D01*
X16170209Y-8764970D01*
X16189257Y-8755446D01*
X16284495Y-8707827D02*
X16284495Y-8907827D01*
X16284495Y-8717351D02*
X16303543Y-8707827D01*
X16341638Y-8707827D01*
X16360686Y-8717351D01*
X16370209Y-8726875D01*
X16379733Y-8745922D01*
X16379733Y-8803065D01*
X16370209Y-8822113D01*
X16360686Y-8831637D01*
X16341638Y-8841160D01*
X16303543Y-8841160D01*
X16284495Y-8831637D01*
X16465447Y-8822113D02*
X16474971Y-8831637D01*
X16465447Y-8841160D01*
X16455924Y-8831637D01*
X16465447Y-8822113D01*
X16465447Y-8841160D01*
X16465447Y-8717351D02*
X16474971Y-8726875D01*
X16465447Y-8736398D01*
X16455924Y-8726875D01*
X16465447Y-8717351D01*
X16465447Y-8736398D01*
D12*
X14806400Y-9155684D02*
X14836400Y-9185684D01*
X14836400Y-9155684D02*
X14806400Y-9185684D01*
D11*
X15132114Y-9061160D02*
X15151162Y-9061160D01*
X15170209Y-9070684D01*
X15179733Y-9080208D01*
X15189257Y-9099256D01*
X15198781Y-9137351D01*
X15198781Y-9184970D01*
X15189257Y-9223065D01*
X15179733Y-9242113D01*
X15170209Y-9251637D01*
X15151162Y-9261160D01*
X15132114Y-9261160D01*
X15113066Y-9251637D01*
X15103543Y-9242113D01*
X15094019Y-9223065D01*
X15084495Y-9184970D01*
X15084495Y-9137351D01*
X15094019Y-9099256D01*
X15103543Y-9080208D01*
X15113066Y-9070684D01*
X15132114Y-9061160D01*
X15284495Y-9242113D02*
X15294019Y-9251637D01*
X15284495Y-9261160D01*
X15274971Y-9251637D01*
X15284495Y-9242113D01*
X15284495Y-9261160D01*
X15360686Y-9061160D02*
X15484495Y-9061160D01*
X15417828Y-9137351D01*
X15446400Y-9137351D01*
X15465447Y-9146875D01*
X15474971Y-9156398D01*
X15484495Y-9175446D01*
X15484495Y-9223065D01*
X15474971Y-9242113D01*
X15465447Y-9251637D01*
X15446400Y-9261160D01*
X15389257Y-9261160D01*
X15370209Y-9251637D01*
X15360686Y-9242113D01*
X15608305Y-9061160D02*
X15627352Y-9061160D01*
X15646400Y-9070684D01*
X15655924Y-9080208D01*
X15665447Y-9099256D01*
X15674971Y-9137351D01*
X15674971Y-9184970D01*
X15665447Y-9223065D01*
X15655924Y-9242113D01*
X15646400Y-9251637D01*
X15627352Y-9261160D01*
X15608305Y-9261160D01*
X15589257Y-9251637D01*
X15579733Y-9242113D01*
X15570209Y-9223065D01*
X15560686Y-9184970D01*
X15560686Y-9137351D01*
X15570209Y-9099256D01*
X15579733Y-9080208D01*
X15589257Y-9070684D01*
X15608305Y-9061160D01*
X15798781Y-9061160D02*
X15817828Y-9061160D01*
X15836876Y-9070684D01*
X15846400Y-9080208D01*
X15855924Y-9099256D01*
X15865447Y-9137351D01*
X15865447Y-9184970D01*
X15855924Y-9223065D01*
X15846400Y-9242113D01*
X15836876Y-9251637D01*
X15817828Y-9261160D01*
X15798781Y-9261160D01*
X15779733Y-9251637D01*
X15770209Y-9242113D01*
X15760686Y-9223065D01*
X15751162Y-9184970D01*
X15751162Y-9137351D01*
X15760686Y-9099256D01*
X15770209Y-9080208D01*
X15779733Y-9070684D01*
X15798781Y-9061160D01*
X15951162Y-9261160D02*
X15951162Y-9127827D01*
X15951162Y-9146875D02*
X15960686Y-9137351D01*
X15979733Y-9127827D01*
X16008305Y-9127827D01*
X16027352Y-9137351D01*
X16036876Y-9156398D01*
X16036876Y-9261160D01*
X16036876Y-9156398D02*
X16046400Y-9137351D01*
X16065447Y-9127827D01*
X16094019Y-9127827D01*
X16113066Y-9137351D01*
X16122590Y-9156398D01*
X16122590Y-9261160D01*
X16217828Y-9261160D02*
X16217828Y-9127827D01*
X16217828Y-9146875D02*
X16227352Y-9137351D01*
X16246400Y-9127827D01*
X16274971Y-9127827D01*
X16294019Y-9137351D01*
X16303543Y-9156398D01*
X16303543Y-9261160D01*
X16303543Y-9156398D02*
X16313066Y-9137351D01*
X16332114Y-9127827D01*
X16360686Y-9127827D01*
X16379733Y-9137351D01*
X16389257Y-9156398D01*
X16389257Y-9261160D01*
X16779733Y-9051637D02*
X16608305Y-9308779D01*
X17036876Y-9061160D02*
X17055924Y-9061160D01*
X17074971Y-9070684D01*
X17084495Y-9080208D01*
X17094019Y-9099256D01*
X17103543Y-9137351D01*
X17103543Y-9184970D01*
X17094019Y-9223065D01*
X17084495Y-9242113D01*
X17074971Y-9251637D01*
X17055924Y-9261160D01*
X17036876Y-9261160D01*
X17017828Y-9251637D01*
X17008305Y-9242113D01*
X16998781Y-9223065D01*
X16989257Y-9184970D01*
X16989257Y-9137351D01*
X16998781Y-9099256D01*
X17008305Y-9080208D01*
X17017828Y-9070684D01*
X17036876Y-9061160D01*
X17189257Y-9242113D02*
X17198781Y-9251637D01*
X17189257Y-9261160D01*
X17179733Y-9251637D01*
X17189257Y-9242113D01*
X17189257Y-9261160D01*
X17322590Y-9061160D02*
X17341638Y-9061160D01*
X17360686Y-9070684D01*
X17370209Y-9080208D01*
X17379733Y-9099256D01*
X17389257Y-9137351D01*
X17389257Y-9184970D01*
X17379733Y-9223065D01*
X17370209Y-9242113D01*
X17360686Y-9251637D01*
X17341638Y-9261160D01*
X17322590Y-9261160D01*
X17303543Y-9251637D01*
X17294019Y-9242113D01*
X17284495Y-9223065D01*
X17274971Y-9184970D01*
X17274971Y-9137351D01*
X17284495Y-9099256D01*
X17294019Y-9080208D01*
X17303543Y-9070684D01*
X17322590Y-9061160D01*
X17579733Y-9261160D02*
X17465448Y-9261160D01*
X17522590Y-9261160D02*
X17522590Y-9061160D01*
X17503543Y-9089732D01*
X17484495Y-9108779D01*
X17465448Y-9118303D01*
X17770209Y-9261160D02*
X17655924Y-9261160D01*
X17713067Y-9261160D02*
X17713067Y-9061160D01*
X17694019Y-9089732D01*
X17674971Y-9108779D01*
X17655924Y-9118303D01*
X17884495Y-9146875D02*
X17865448Y-9137351D01*
X17855924Y-9127827D01*
X17846400Y-9108779D01*
X17846400Y-9099256D01*
X17855924Y-9080208D01*
X17865448Y-9070684D01*
X17884495Y-9061160D01*
X17922590Y-9061160D01*
X17941638Y-9070684D01*
X17951162Y-9080208D01*
X17960686Y-9099256D01*
X17960686Y-9108779D01*
X17951162Y-9127827D01*
X17941638Y-9137351D01*
X17922590Y-9146875D01*
X17884495Y-9146875D01*
X17865448Y-9156398D01*
X17855924Y-9165922D01*
X17846400Y-9184970D01*
X17846400Y-9223065D01*
X17855924Y-9242113D01*
X17865448Y-9251637D01*
X17884495Y-9261160D01*
X17922590Y-9261160D01*
X17941638Y-9251637D01*
X17951162Y-9242113D01*
X17960686Y-9223065D01*
X17960686Y-9184970D01*
X17951162Y-9165922D01*
X17941638Y-9156398D01*
X17922590Y-9146875D01*
X18036876Y-9061160D02*
X18036876Y-9099256D01*
X18113067Y-9061160D02*
X18113067Y-9099256D01*
X18408305Y-9337351D02*
X18398781Y-9327827D01*
X18379733Y-9299256D01*
X18370209Y-9280208D01*
X18360686Y-9251637D01*
X18351162Y-9204018D01*
X18351162Y-9165922D01*
X18360686Y-9118303D01*
X18370209Y-9089732D01*
X18379733Y-9070684D01*
X18398781Y-9042113D01*
X18408305Y-9032589D01*
X18513067Y-9146875D02*
X18494019Y-9137351D01*
X18484495Y-9127827D01*
X18474971Y-9108779D01*
X18474971Y-9099256D01*
X18484495Y-9080208D01*
X18494019Y-9070684D01*
X18513067Y-9061160D01*
X18551162Y-9061160D01*
X18570209Y-9070684D01*
X18579733Y-9080208D01*
X18589257Y-9099256D01*
X18589257Y-9108779D01*
X18579733Y-9127827D01*
X18570209Y-9137351D01*
X18551162Y-9146875D01*
X18513067Y-9146875D01*
X18494019Y-9156398D01*
X18484495Y-9165922D01*
X18474971Y-9184970D01*
X18474971Y-9223065D01*
X18484495Y-9242113D01*
X18494019Y-9251637D01*
X18513067Y-9261160D01*
X18551162Y-9261160D01*
X18570209Y-9251637D01*
X18579733Y-9242113D01*
X18589257Y-9223065D01*
X18589257Y-9184970D01*
X18579733Y-9165922D01*
X18570209Y-9156398D01*
X18551162Y-9146875D01*
X18760686Y-9061160D02*
X18722590Y-9061160D01*
X18703543Y-9070684D01*
X18694019Y-9080208D01*
X18674971Y-9108779D01*
X18665448Y-9146875D01*
X18665448Y-9223065D01*
X18674971Y-9242113D01*
X18684495Y-9251637D01*
X18703543Y-9261160D01*
X18741638Y-9261160D01*
X18760686Y-9251637D01*
X18770209Y-9242113D01*
X18779733Y-9223065D01*
X18779733Y-9175446D01*
X18770209Y-9156398D01*
X18760686Y-9146875D01*
X18741638Y-9137351D01*
X18703543Y-9137351D01*
X18684495Y-9146875D01*
X18674971Y-9156398D01*
X18665448Y-9175446D01*
X19017828Y-9261160D02*
X19017828Y-9061160D01*
X19103543Y-9261160D02*
X19103543Y-9156398D01*
X19094019Y-9137351D01*
X19074971Y-9127827D01*
X19046400Y-9127827D01*
X19027352Y-9137351D01*
X19017828Y-9146875D01*
X19227352Y-9261160D02*
X19208305Y-9251637D01*
X19198781Y-9242113D01*
X19189257Y-9223065D01*
X19189257Y-9165922D01*
X19198781Y-9146875D01*
X19208305Y-9137351D01*
X19227352Y-9127827D01*
X19255924Y-9127827D01*
X19274971Y-9137351D01*
X19284495Y-9146875D01*
X19294019Y-9165922D01*
X19294019Y-9223065D01*
X19284495Y-9242113D01*
X19274971Y-9251637D01*
X19255924Y-9261160D01*
X19227352Y-9261160D01*
X19408305Y-9261160D02*
X19389257Y-9251637D01*
X19379733Y-9232589D01*
X19379733Y-9061160D01*
X19560686Y-9251637D02*
X19541638Y-9261160D01*
X19503543Y-9261160D01*
X19484495Y-9251637D01*
X19474971Y-9232589D01*
X19474971Y-9156398D01*
X19484495Y-9137351D01*
X19503543Y-9127827D01*
X19541638Y-9127827D01*
X19560686Y-9137351D01*
X19570209Y-9156398D01*
X19570209Y-9175446D01*
X19474971Y-9194494D01*
X19646400Y-9251637D02*
X19665448Y-9261160D01*
X19703543Y-9261160D01*
X19722590Y-9251637D01*
X19732114Y-9232589D01*
X19732114Y-9223065D01*
X19722590Y-9204018D01*
X19703543Y-9194494D01*
X19674971Y-9194494D01*
X19655924Y-9184970D01*
X19646400Y-9165922D01*
X19646400Y-9156398D01*
X19655924Y-9137351D01*
X19674971Y-9127827D01*
X19703543Y-9127827D01*
X19722590Y-9137351D01*
X19798781Y-9337351D02*
X19808305Y-9327827D01*
X19827352Y-9299256D01*
X19836876Y-9280208D01*
X19846400Y-9251637D01*
X19855924Y-9204018D01*
X19855924Y-9165922D01*
X19846400Y-9118303D01*
X19836876Y-9089732D01*
X19827352Y-9070684D01*
X19808305Y-9042113D01*
X19798781Y-9032589D01*
D13*
X14836400Y-9434684D02*
G75*
G03*
X14836400Y-9434684I-20000J0D01*
G01*
D11*
X15132114Y-9325160D02*
X15151162Y-9325160D01*
X15170209Y-9334684D01*
X15179733Y-9344208D01*
X15189257Y-9363256D01*
X15198781Y-9401351D01*
X15198781Y-9448970D01*
X15189257Y-9487065D01*
X15179733Y-9506113D01*
X15170209Y-9515637D01*
X15151162Y-9525160D01*
X15132114Y-9525160D01*
X15113066Y-9515637D01*
X15103543Y-9506113D01*
X15094019Y-9487065D01*
X15084495Y-9448970D01*
X15084495Y-9401351D01*
X15094019Y-9363256D01*
X15103543Y-9344208D01*
X15113066Y-9334684D01*
X15132114Y-9325160D01*
X15284495Y-9506113D02*
X15294019Y-9515637D01*
X15284495Y-9525160D01*
X15274971Y-9515637D01*
X15284495Y-9506113D01*
X15284495Y-9525160D01*
X15465447Y-9391827D02*
X15465447Y-9525160D01*
X15417828Y-9315637D02*
X15370209Y-9458494D01*
X15494019Y-9458494D01*
X15608305Y-9325160D02*
X15627352Y-9325160D01*
X15646400Y-9334684D01*
X15655924Y-9344208D01*
X15665447Y-9363256D01*
X15674971Y-9401351D01*
X15674971Y-9448970D01*
X15665447Y-9487065D01*
X15655924Y-9506113D01*
X15646400Y-9515637D01*
X15627352Y-9525160D01*
X15608305Y-9525160D01*
X15589257Y-9515637D01*
X15579733Y-9506113D01*
X15570209Y-9487065D01*
X15560686Y-9448970D01*
X15560686Y-9401351D01*
X15570209Y-9363256D01*
X15579733Y-9344208D01*
X15589257Y-9334684D01*
X15608305Y-9325160D01*
X15798781Y-9325160D02*
X15817828Y-9325160D01*
X15836876Y-9334684D01*
X15846400Y-9344208D01*
X15855924Y-9363256D01*
X15865447Y-9401351D01*
X15865447Y-9448970D01*
X15855924Y-9487065D01*
X15846400Y-9506113D01*
X15836876Y-9515637D01*
X15817828Y-9525160D01*
X15798781Y-9525160D01*
X15779733Y-9515637D01*
X15770209Y-9506113D01*
X15760686Y-9487065D01*
X15751162Y-9448970D01*
X15751162Y-9401351D01*
X15760686Y-9363256D01*
X15770209Y-9344208D01*
X15779733Y-9334684D01*
X15798781Y-9325160D01*
X15951162Y-9525160D02*
X15951162Y-9391827D01*
X15951162Y-9410875D02*
X15960686Y-9401351D01*
X15979733Y-9391827D01*
X16008305Y-9391827D01*
X16027352Y-9401351D01*
X16036876Y-9420398D01*
X16036876Y-9525160D01*
X16036876Y-9420398D02*
X16046400Y-9401351D01*
X16065447Y-9391827D01*
X16094019Y-9391827D01*
X16113066Y-9401351D01*
X16122590Y-9420398D01*
X16122590Y-9525160D01*
X16217828Y-9525160D02*
X16217828Y-9391827D01*
X16217828Y-9410875D02*
X16227352Y-9401351D01*
X16246400Y-9391827D01*
X16274971Y-9391827D01*
X16294019Y-9401351D01*
X16303543Y-9420398D01*
X16303543Y-9525160D01*
X16303543Y-9420398D02*
X16313066Y-9401351D01*
X16332114Y-9391827D01*
X16360686Y-9391827D01*
X16379733Y-9401351D01*
X16389257Y-9420398D01*
X16389257Y-9525160D01*
X16779733Y-9315637D02*
X16608305Y-9572779D01*
X17036876Y-9325160D02*
X17055924Y-9325160D01*
X17074971Y-9334684D01*
X17084495Y-9344208D01*
X17094019Y-9363256D01*
X17103543Y-9401351D01*
X17103543Y-9448970D01*
X17094019Y-9487065D01*
X17084495Y-9506113D01*
X17074971Y-9515637D01*
X17055924Y-9525160D01*
X17036876Y-9525160D01*
X17017828Y-9515637D01*
X17008305Y-9506113D01*
X16998781Y-9487065D01*
X16989257Y-9448970D01*
X16989257Y-9401351D01*
X16998781Y-9363256D01*
X17008305Y-9344208D01*
X17017828Y-9334684D01*
X17036876Y-9325160D01*
X17189257Y-9506113D02*
X17198781Y-9515637D01*
X17189257Y-9525160D01*
X17179733Y-9515637D01*
X17189257Y-9506113D01*
X17189257Y-9525160D01*
X17322590Y-9325160D02*
X17341638Y-9325160D01*
X17360686Y-9334684D01*
X17370209Y-9344208D01*
X17379733Y-9363256D01*
X17389257Y-9401351D01*
X17389257Y-9448970D01*
X17379733Y-9487065D01*
X17370209Y-9506113D01*
X17360686Y-9515637D01*
X17341638Y-9525160D01*
X17322590Y-9525160D01*
X17303543Y-9515637D01*
X17294019Y-9506113D01*
X17284495Y-9487065D01*
X17274971Y-9448970D01*
X17274971Y-9401351D01*
X17284495Y-9363256D01*
X17294019Y-9344208D01*
X17303543Y-9334684D01*
X17322590Y-9325160D01*
X17579733Y-9525160D02*
X17465448Y-9525160D01*
X17522590Y-9525160D02*
X17522590Y-9325160D01*
X17503543Y-9353732D01*
X17484495Y-9372779D01*
X17465448Y-9382303D01*
X17760686Y-9325160D02*
X17665448Y-9325160D01*
X17655924Y-9420398D01*
X17665448Y-9410875D01*
X17684495Y-9401351D01*
X17732114Y-9401351D01*
X17751162Y-9410875D01*
X17760686Y-9420398D01*
X17770209Y-9439446D01*
X17770209Y-9487065D01*
X17760686Y-9506113D01*
X17751162Y-9515637D01*
X17732114Y-9525160D01*
X17684495Y-9525160D01*
X17665448Y-9515637D01*
X17655924Y-9506113D01*
X17836876Y-9325160D02*
X17970209Y-9325160D01*
X17884495Y-9525160D01*
X18036876Y-9325160D02*
X18036876Y-9363256D01*
X18113067Y-9325160D02*
X18113067Y-9363256D01*
X18408305Y-9601351D02*
X18398781Y-9591827D01*
X18379733Y-9563256D01*
X18370209Y-9544208D01*
X18360686Y-9515637D01*
X18351162Y-9468018D01*
X18351162Y-9429922D01*
X18360686Y-9382303D01*
X18370209Y-9353732D01*
X18379733Y-9334684D01*
X18398781Y-9306113D01*
X18408305Y-9296589D01*
X18589257Y-9525160D02*
X18474971Y-9525160D01*
X18532114Y-9525160D02*
X18532114Y-9325160D01*
X18513067Y-9353732D01*
X18494019Y-9372779D01*
X18474971Y-9382303D01*
X18684495Y-9525160D02*
X18722590Y-9525160D01*
X18741638Y-9515637D01*
X18751162Y-9506113D01*
X18770209Y-9477541D01*
X18779733Y-9439446D01*
X18779733Y-9363256D01*
X18770209Y-9344208D01*
X18760686Y-9334684D01*
X18741638Y-9325160D01*
X18703543Y-9325160D01*
X18684495Y-9334684D01*
X18674971Y-9344208D01*
X18665448Y-9363256D01*
X18665448Y-9410875D01*
X18674971Y-9429922D01*
X18684495Y-9439446D01*
X18703543Y-9448970D01*
X18741638Y-9448970D01*
X18760686Y-9439446D01*
X18770209Y-9429922D01*
X18779733Y-9410875D01*
X19017828Y-9525160D02*
X19017828Y-9325160D01*
X19103543Y-9525160D02*
X19103543Y-9420398D01*
X19094019Y-9401351D01*
X19074971Y-9391827D01*
X19046400Y-9391827D01*
X19027352Y-9401351D01*
X19017828Y-9410875D01*
X19227352Y-9525160D02*
X19208305Y-9515637D01*
X19198781Y-9506113D01*
X19189257Y-9487065D01*
X19189257Y-9429922D01*
X19198781Y-9410875D01*
X19208305Y-9401351D01*
X19227352Y-9391827D01*
X19255924Y-9391827D01*
X19274971Y-9401351D01*
X19284495Y-9410875D01*
X19294019Y-9429922D01*
X19294019Y-9487065D01*
X19284495Y-9506113D01*
X19274971Y-9515637D01*
X19255924Y-9525160D01*
X19227352Y-9525160D01*
X19408305Y-9525160D02*
X19389257Y-9515637D01*
X19379733Y-9496589D01*
X19379733Y-9325160D01*
X19560686Y-9515637D02*
X19541638Y-9525160D01*
X19503543Y-9525160D01*
X19484495Y-9515637D01*
X19474971Y-9496589D01*
X19474971Y-9420398D01*
X19484495Y-9401351D01*
X19503543Y-9391827D01*
X19541638Y-9391827D01*
X19560686Y-9401351D01*
X19570209Y-9420398D01*
X19570209Y-9439446D01*
X19474971Y-9458494D01*
X19646400Y-9515637D02*
X19665448Y-9525160D01*
X19703543Y-9525160D01*
X19722590Y-9515637D01*
X19732114Y-9496589D01*
X19732114Y-9487065D01*
X19722590Y-9468018D01*
X19703543Y-9458494D01*
X19674971Y-9458494D01*
X19655924Y-9448970D01*
X19646400Y-9429922D01*
X19646400Y-9420398D01*
X19655924Y-9401351D01*
X19674971Y-9391827D01*
X19703543Y-9391827D01*
X19722590Y-9401351D01*
X19798781Y-9601351D02*
X19808305Y-9591827D01*
X19827352Y-9563256D01*
X19836876Y-9544208D01*
X19846400Y-9515637D01*
X19855924Y-9468018D01*
X19855924Y-9429922D01*
X19846400Y-9382303D01*
X19836876Y-9353732D01*
X19827352Y-9334684D01*
X19808305Y-9306113D01*
X19798781Y-9296589D01*
D14*
X14811400Y-9673684D02*
X14811400Y-9723684D01*
X14786400Y-9698684D02*
X14836400Y-9698684D01*
D11*
X15132114Y-9589160D02*
X15151162Y-9589160D01*
X15170209Y-9598684D01*
X15179733Y-9608208D01*
X15189257Y-9627256D01*
X15198781Y-9665351D01*
X15198781Y-9712970D01*
X15189257Y-9751065D01*
X15179733Y-9770113D01*
X15170209Y-9779637D01*
X15151162Y-9789160D01*
X15132114Y-9789160D01*
X15113066Y-9779637D01*
X15103543Y-9770113D01*
X15094019Y-9751065D01*
X15084495Y-9712970D01*
X15084495Y-9665351D01*
X15094019Y-9627256D01*
X15103543Y-9608208D01*
X15113066Y-9598684D01*
X15132114Y-9589160D01*
X15284495Y-9770113D02*
X15294019Y-9779637D01*
X15284495Y-9789160D01*
X15274971Y-9779637D01*
X15284495Y-9770113D01*
X15284495Y-9789160D01*
X15474971Y-9589160D02*
X15379733Y-9589160D01*
X15370209Y-9684398D01*
X15379733Y-9674875D01*
X15398781Y-9665351D01*
X15446400Y-9665351D01*
X15465447Y-9674875D01*
X15474971Y-9684398D01*
X15484495Y-9703446D01*
X15484495Y-9751065D01*
X15474971Y-9770113D01*
X15465447Y-9779637D01*
X15446400Y-9789160D01*
X15398781Y-9789160D01*
X15379733Y-9779637D01*
X15370209Y-9770113D01*
X15608305Y-9589160D02*
X15627352Y-9589160D01*
X15646400Y-9598684D01*
X15655924Y-9608208D01*
X15665447Y-9627256D01*
X15674971Y-9665351D01*
X15674971Y-9712970D01*
X15665447Y-9751065D01*
X15655924Y-9770113D01*
X15646400Y-9779637D01*
X15627352Y-9789160D01*
X15608305Y-9789160D01*
X15589257Y-9779637D01*
X15579733Y-9770113D01*
X15570209Y-9751065D01*
X15560686Y-9712970D01*
X15560686Y-9665351D01*
X15570209Y-9627256D01*
X15579733Y-9608208D01*
X15589257Y-9598684D01*
X15608305Y-9589160D01*
X15798781Y-9589160D02*
X15817828Y-9589160D01*
X15836876Y-9598684D01*
X15846400Y-9608208D01*
X15855924Y-9627256D01*
X15865447Y-9665351D01*
X15865447Y-9712970D01*
X15855924Y-9751065D01*
X15846400Y-9770113D01*
X15836876Y-9779637D01*
X15817828Y-9789160D01*
X15798781Y-9789160D01*
X15779733Y-9779637D01*
X15770209Y-9770113D01*
X15760686Y-9751065D01*
X15751162Y-9712970D01*
X15751162Y-9665351D01*
X15760686Y-9627256D01*
X15770209Y-9608208D01*
X15779733Y-9598684D01*
X15798781Y-9589160D01*
X15951162Y-9789160D02*
X15951162Y-9655827D01*
X15951162Y-9674875D02*
X15960686Y-9665351D01*
X15979733Y-9655827D01*
X16008305Y-9655827D01*
X16027352Y-9665351D01*
X16036876Y-9684398D01*
X16036876Y-9789160D01*
X16036876Y-9684398D02*
X16046400Y-9665351D01*
X16065447Y-9655827D01*
X16094019Y-9655827D01*
X16113066Y-9665351D01*
X16122590Y-9684398D01*
X16122590Y-9789160D01*
X16217828Y-9789160D02*
X16217828Y-9655827D01*
X16217828Y-9674875D02*
X16227352Y-9665351D01*
X16246400Y-9655827D01*
X16274971Y-9655827D01*
X16294019Y-9665351D01*
X16303543Y-9684398D01*
X16303543Y-9789160D01*
X16303543Y-9684398D02*
X16313066Y-9665351D01*
X16332114Y-9655827D01*
X16360686Y-9655827D01*
X16379733Y-9665351D01*
X16389257Y-9684398D01*
X16389257Y-9789160D01*
X16779733Y-9579637D02*
X16608305Y-9836779D01*
X17036876Y-9589160D02*
X17055924Y-9589160D01*
X17074971Y-9598684D01*
X17084495Y-9608208D01*
X17094019Y-9627256D01*
X17103543Y-9665351D01*
X17103543Y-9712970D01*
X17094019Y-9751065D01*
X17084495Y-9770113D01*
X17074971Y-9779637D01*
X17055924Y-9789160D01*
X17036876Y-9789160D01*
X17017828Y-9779637D01*
X17008305Y-9770113D01*
X16998781Y-9751065D01*
X16989257Y-9712970D01*
X16989257Y-9665351D01*
X16998781Y-9627256D01*
X17008305Y-9608208D01*
X17017828Y-9598684D01*
X17036876Y-9589160D01*
X17189257Y-9770113D02*
X17198781Y-9779637D01*
X17189257Y-9789160D01*
X17179733Y-9779637D01*
X17189257Y-9770113D01*
X17189257Y-9789160D01*
X17322590Y-9589160D02*
X17341638Y-9589160D01*
X17360686Y-9598684D01*
X17370209Y-9608208D01*
X17379733Y-9627256D01*
X17389257Y-9665351D01*
X17389257Y-9712970D01*
X17379733Y-9751065D01*
X17370209Y-9770113D01*
X17360686Y-9779637D01*
X17341638Y-9789160D01*
X17322590Y-9789160D01*
X17303543Y-9779637D01*
X17294019Y-9770113D01*
X17284495Y-9751065D01*
X17274971Y-9712970D01*
X17274971Y-9665351D01*
X17284495Y-9627256D01*
X17294019Y-9608208D01*
X17303543Y-9598684D01*
X17322590Y-9589160D01*
X17579733Y-9789160D02*
X17465448Y-9789160D01*
X17522590Y-9789160D02*
X17522590Y-9589160D01*
X17503543Y-9617732D01*
X17484495Y-9636779D01*
X17465448Y-9646303D01*
X17674971Y-9789160D02*
X17713067Y-9789160D01*
X17732114Y-9779637D01*
X17741638Y-9770113D01*
X17760686Y-9741541D01*
X17770209Y-9703446D01*
X17770209Y-9627256D01*
X17760686Y-9608208D01*
X17751162Y-9598684D01*
X17732114Y-9589160D01*
X17694019Y-9589160D01*
X17674971Y-9598684D01*
X17665448Y-9608208D01*
X17655924Y-9627256D01*
X17655924Y-9674875D01*
X17665448Y-9693922D01*
X17674971Y-9703446D01*
X17694019Y-9712970D01*
X17732114Y-9712970D01*
X17751162Y-9703446D01*
X17760686Y-9693922D01*
X17770209Y-9674875D01*
X17836876Y-9589160D02*
X17970209Y-9589160D01*
X17884495Y-9789160D01*
X18036876Y-9589160D02*
X18036876Y-9627256D01*
X18113067Y-9589160D02*
X18113067Y-9627256D01*
X18408305Y-9865351D02*
X18398781Y-9855827D01*
X18379733Y-9827256D01*
X18370209Y-9808208D01*
X18360686Y-9779637D01*
X18351162Y-9732018D01*
X18351162Y-9693922D01*
X18360686Y-9646303D01*
X18370209Y-9617732D01*
X18379733Y-9598684D01*
X18398781Y-9570113D01*
X18408305Y-9560589D01*
X18474971Y-9608208D02*
X18484495Y-9598684D01*
X18503543Y-9589160D01*
X18551162Y-9589160D01*
X18570209Y-9598684D01*
X18579733Y-9608208D01*
X18589257Y-9627256D01*
X18589257Y-9646303D01*
X18579733Y-9674875D01*
X18465448Y-9789160D01*
X18589257Y-9789160D01*
X18703543Y-9674875D02*
X18684495Y-9665351D01*
X18674971Y-9655827D01*
X18665448Y-9636779D01*
X18665448Y-9627256D01*
X18674971Y-9608208D01*
X18684495Y-9598684D01*
X18703543Y-9589160D01*
X18741638Y-9589160D01*
X18760686Y-9598684D01*
X18770209Y-9608208D01*
X18779733Y-9627256D01*
X18779733Y-9636779D01*
X18770209Y-9655827D01*
X18760686Y-9665351D01*
X18741638Y-9674875D01*
X18703543Y-9674875D01*
X18684495Y-9684398D01*
X18674971Y-9693922D01*
X18665448Y-9712970D01*
X18665448Y-9751065D01*
X18674971Y-9770113D01*
X18684495Y-9779637D01*
X18703543Y-9789160D01*
X18741638Y-9789160D01*
X18760686Y-9779637D01*
X18770209Y-9770113D01*
X18779733Y-9751065D01*
X18779733Y-9712970D01*
X18770209Y-9693922D01*
X18760686Y-9684398D01*
X18741638Y-9674875D01*
X19017828Y-9789160D02*
X19017828Y-9589160D01*
X19103543Y-9789160D02*
X19103543Y-9684398D01*
X19094019Y-9665351D01*
X19074971Y-9655827D01*
X19046400Y-9655827D01*
X19027352Y-9665351D01*
X19017828Y-9674875D01*
X19227352Y-9789160D02*
X19208305Y-9779637D01*
X19198781Y-9770113D01*
X19189257Y-9751065D01*
X19189257Y-9693922D01*
X19198781Y-9674875D01*
X19208305Y-9665351D01*
X19227352Y-9655827D01*
X19255924Y-9655827D01*
X19274971Y-9665351D01*
X19284495Y-9674875D01*
X19294019Y-9693922D01*
X19294019Y-9751065D01*
X19284495Y-9770113D01*
X19274971Y-9779637D01*
X19255924Y-9789160D01*
X19227352Y-9789160D01*
X19408305Y-9789160D02*
X19389257Y-9779637D01*
X19379733Y-9760589D01*
X19379733Y-9589160D01*
X19560686Y-9779637D02*
X19541638Y-9789160D01*
X19503543Y-9789160D01*
X19484495Y-9779637D01*
X19474971Y-9760589D01*
X19474971Y-9684398D01*
X19484495Y-9665351D01*
X19503543Y-9655827D01*
X19541638Y-9655827D01*
X19560686Y-9665351D01*
X19570209Y-9684398D01*
X19570209Y-9703446D01*
X19474971Y-9722494D01*
X19646400Y-9779637D02*
X19665448Y-9789160D01*
X19703543Y-9789160D01*
X19722590Y-9779637D01*
X19732114Y-9760589D01*
X19732114Y-9751065D01*
X19722590Y-9732018D01*
X19703543Y-9722494D01*
X19674971Y-9722494D01*
X19655924Y-9712970D01*
X19646400Y-9693922D01*
X19646400Y-9684398D01*
X19655924Y-9665351D01*
X19674971Y-9655827D01*
X19703543Y-9655827D01*
X19722590Y-9665351D01*
X19798781Y-9865351D02*
X19808305Y-9855827D01*
X19827352Y-9827256D01*
X19836876Y-9808208D01*
X19846400Y-9779637D01*
X19855924Y-9732018D01*
X19855924Y-9693922D01*
X19846400Y-9646303D01*
X19836876Y-9617732D01*
X19827352Y-9598684D01*
X19808305Y-9570113D01*
X19798781Y-9560589D01*
D15*
X14826881Y-9985665D02*
X14826881Y-9939703D01*
X14780919Y-9939703D01*
X14780919Y-9985665D01*
X14826881Y-9985665D01*
D11*
X15132114Y-9853160D02*
X15151162Y-9853160D01*
X15170209Y-9862684D01*
X15179733Y-9872208D01*
X15189257Y-9891256D01*
X15198781Y-9929351D01*
X15198781Y-9976970D01*
X15189257Y-10015065D01*
X15179733Y-10034113D01*
X15170209Y-10043637D01*
X15151162Y-10053160D01*
X15132114Y-10053160D01*
X15113066Y-10043637D01*
X15103543Y-10034113D01*
X15094019Y-10015065D01*
X15084495Y-9976970D01*
X15084495Y-9929351D01*
X15094019Y-9891256D01*
X15103543Y-9872208D01*
X15113066Y-9862684D01*
X15132114Y-9853160D01*
X15284495Y-10034113D02*
X15294019Y-10043637D01*
X15284495Y-10053160D01*
X15274971Y-10043637D01*
X15284495Y-10034113D01*
X15284495Y-10053160D01*
X15465447Y-9853160D02*
X15427352Y-9853160D01*
X15408305Y-9862684D01*
X15398781Y-9872208D01*
X15379733Y-9900779D01*
X15370209Y-9938875D01*
X15370209Y-10015065D01*
X15379733Y-10034113D01*
X15389257Y-10043637D01*
X15408305Y-10053160D01*
X15446400Y-10053160D01*
X15465447Y-10043637D01*
X15474971Y-10034113D01*
X15484495Y-10015065D01*
X15484495Y-9967446D01*
X15474971Y-9948398D01*
X15465447Y-9938875D01*
X15446400Y-9929351D01*
X15408305Y-9929351D01*
X15389257Y-9938875D01*
X15379733Y-9948398D01*
X15370209Y-9967446D01*
X15665447Y-9853160D02*
X15570209Y-9853160D01*
X15560686Y-9948398D01*
X15570209Y-9938875D01*
X15589257Y-9929351D01*
X15636876Y-9929351D01*
X15655924Y-9938875D01*
X15665447Y-9948398D01*
X15674971Y-9967446D01*
X15674971Y-10015065D01*
X15665447Y-10034113D01*
X15655924Y-10043637D01*
X15636876Y-10053160D01*
X15589257Y-10053160D01*
X15570209Y-10043637D01*
X15560686Y-10034113D01*
X15798781Y-9853160D02*
X15817828Y-9853160D01*
X15836876Y-9862684D01*
X15846400Y-9872208D01*
X15855924Y-9891256D01*
X15865447Y-9929351D01*
X15865447Y-9976970D01*
X15855924Y-10015065D01*
X15846400Y-10034113D01*
X15836876Y-10043637D01*
X15817828Y-10053160D01*
X15798781Y-10053160D01*
X15779733Y-10043637D01*
X15770209Y-10034113D01*
X15760686Y-10015065D01*
X15751162Y-9976970D01*
X15751162Y-9929351D01*
X15760686Y-9891256D01*
X15770209Y-9872208D01*
X15779733Y-9862684D01*
X15798781Y-9853160D01*
X15951162Y-10053160D02*
X15951162Y-9919827D01*
X15951162Y-9938875D02*
X15960686Y-9929351D01*
X15979733Y-9919827D01*
X16008305Y-9919827D01*
X16027352Y-9929351D01*
X16036876Y-9948398D01*
X16036876Y-10053160D01*
X16036876Y-9948398D02*
X16046400Y-9929351D01*
X16065447Y-9919827D01*
X16094019Y-9919827D01*
X16113066Y-9929351D01*
X16122590Y-9948398D01*
X16122590Y-10053160D01*
X16217828Y-10053160D02*
X16217828Y-9919827D01*
X16217828Y-9938875D02*
X16227352Y-9929351D01*
X16246400Y-9919827D01*
X16274971Y-9919827D01*
X16294019Y-9929351D01*
X16303543Y-9948398D01*
X16303543Y-10053160D01*
X16303543Y-9948398D02*
X16313066Y-9929351D01*
X16332114Y-9919827D01*
X16360686Y-9919827D01*
X16379733Y-9929351D01*
X16389257Y-9948398D01*
X16389257Y-10053160D01*
X16779733Y-9843637D02*
X16608305Y-10100779D01*
X17036876Y-9853160D02*
X17055924Y-9853160D01*
X17074971Y-9862684D01*
X17084495Y-9872208D01*
X17094019Y-9891256D01*
X17103543Y-9929351D01*
X17103543Y-9976970D01*
X17094019Y-10015065D01*
X17084495Y-10034113D01*
X17074971Y-10043637D01*
X17055924Y-10053160D01*
X17036876Y-10053160D01*
X17017828Y-10043637D01*
X17008305Y-10034113D01*
X16998781Y-10015065D01*
X16989257Y-9976970D01*
X16989257Y-9929351D01*
X16998781Y-9891256D01*
X17008305Y-9872208D01*
X17017828Y-9862684D01*
X17036876Y-9853160D01*
X17189257Y-10034113D02*
X17198781Y-10043637D01*
X17189257Y-10053160D01*
X17179733Y-10043637D01*
X17189257Y-10034113D01*
X17189257Y-10053160D01*
X17322590Y-9853160D02*
X17341638Y-9853160D01*
X17360686Y-9862684D01*
X17370209Y-9872208D01*
X17379733Y-9891256D01*
X17389257Y-9929351D01*
X17389257Y-9976970D01*
X17379733Y-10015065D01*
X17370209Y-10034113D01*
X17360686Y-10043637D01*
X17341638Y-10053160D01*
X17322590Y-10053160D01*
X17303543Y-10043637D01*
X17294019Y-10034113D01*
X17284495Y-10015065D01*
X17274971Y-9976970D01*
X17274971Y-9929351D01*
X17284495Y-9891256D01*
X17294019Y-9872208D01*
X17303543Y-9862684D01*
X17322590Y-9853160D01*
X17465448Y-9872208D02*
X17474971Y-9862684D01*
X17494019Y-9853160D01*
X17541638Y-9853160D01*
X17560686Y-9862684D01*
X17570209Y-9872208D01*
X17579733Y-9891256D01*
X17579733Y-9910303D01*
X17570209Y-9938875D01*
X17455924Y-10053160D01*
X17579733Y-10053160D01*
X17760686Y-9853160D02*
X17665448Y-9853160D01*
X17655924Y-9948398D01*
X17665448Y-9938875D01*
X17684495Y-9929351D01*
X17732114Y-9929351D01*
X17751162Y-9938875D01*
X17760686Y-9948398D01*
X17770209Y-9967446D01*
X17770209Y-10015065D01*
X17760686Y-10034113D01*
X17751162Y-10043637D01*
X17732114Y-10053160D01*
X17684495Y-10053160D01*
X17665448Y-10043637D01*
X17655924Y-10034113D01*
X17941638Y-9853160D02*
X17903543Y-9853160D01*
X17884495Y-9862684D01*
X17874971Y-9872208D01*
X17855924Y-9900779D01*
X17846400Y-9938875D01*
X17846400Y-10015065D01*
X17855924Y-10034113D01*
X17865448Y-10043637D01*
X17884495Y-10053160D01*
X17922590Y-10053160D01*
X17941638Y-10043637D01*
X17951162Y-10034113D01*
X17960686Y-10015065D01*
X17960686Y-9967446D01*
X17951162Y-9948398D01*
X17941638Y-9938875D01*
X17922590Y-9929351D01*
X17884495Y-9929351D01*
X17865448Y-9938875D01*
X17855924Y-9948398D01*
X17846400Y-9967446D01*
X18036876Y-9853160D02*
X18036876Y-9891256D01*
X18113067Y-9853160D02*
X18113067Y-9891256D01*
X18408305Y-10129351D02*
X18398781Y-10119827D01*
X18379733Y-10091256D01*
X18370209Y-10072208D01*
X18360686Y-10043637D01*
X18351162Y-9996018D01*
X18351162Y-9957922D01*
X18360686Y-9910303D01*
X18370209Y-9881732D01*
X18379733Y-9862684D01*
X18398781Y-9834113D01*
X18408305Y-9824589D01*
X18589257Y-10053160D02*
X18474971Y-10053160D01*
X18532114Y-10053160D02*
X18532114Y-9853160D01*
X18513067Y-9881732D01*
X18494019Y-9900779D01*
X18474971Y-9910303D01*
X18665448Y-9872208D02*
X18674971Y-9862684D01*
X18694019Y-9853160D01*
X18741638Y-9853160D01*
X18760686Y-9862684D01*
X18770209Y-9872208D01*
X18779733Y-9891256D01*
X18779733Y-9910303D01*
X18770209Y-9938875D01*
X18655924Y-10053160D01*
X18779733Y-10053160D01*
X19017828Y-10053160D02*
X19017828Y-9853160D01*
X19103543Y-10053160D02*
X19103543Y-9948398D01*
X19094019Y-9929351D01*
X19074971Y-9919827D01*
X19046400Y-9919827D01*
X19027352Y-9929351D01*
X19017828Y-9938875D01*
X19227352Y-10053160D02*
X19208305Y-10043637D01*
X19198781Y-10034113D01*
X19189257Y-10015065D01*
X19189257Y-9957922D01*
X19198781Y-9938875D01*
X19208305Y-9929351D01*
X19227352Y-9919827D01*
X19255924Y-9919827D01*
X19274971Y-9929351D01*
X19284495Y-9938875D01*
X19294019Y-9957922D01*
X19294019Y-10015065D01*
X19284495Y-10034113D01*
X19274971Y-10043637D01*
X19255924Y-10053160D01*
X19227352Y-10053160D01*
X19408305Y-10053160D02*
X19389257Y-10043637D01*
X19379733Y-10024589D01*
X19379733Y-9853160D01*
X19560686Y-10043637D02*
X19541638Y-10053160D01*
X19503543Y-10053160D01*
X19484495Y-10043637D01*
X19474971Y-10024589D01*
X19474971Y-9948398D01*
X19484495Y-9929351D01*
X19503543Y-9919827D01*
X19541638Y-9919827D01*
X19560686Y-9929351D01*
X19570209Y-9948398D01*
X19570209Y-9967446D01*
X19474971Y-9986494D01*
X19646400Y-10043637D02*
X19665448Y-10053160D01*
X19703543Y-10053160D01*
X19722590Y-10043637D01*
X19732114Y-10024589D01*
X19732114Y-10015065D01*
X19722590Y-9996018D01*
X19703543Y-9986494D01*
X19674971Y-9986494D01*
X19655924Y-9976970D01*
X19646400Y-9957922D01*
X19646400Y-9948398D01*
X19655924Y-9929351D01*
X19674971Y-9919827D01*
X19703543Y-9919827D01*
X19722590Y-9929351D01*
X19798781Y-10129351D02*
X19808305Y-10119827D01*
X19827352Y-10091256D01*
X19836876Y-10072208D01*
X19846400Y-10043637D01*
X19855924Y-9996018D01*
X19855924Y-9957922D01*
X19846400Y-9910303D01*
X19836876Y-9881732D01*
X19827352Y-9862684D01*
X19808305Y-9834113D01*
X19798781Y-9824589D01*
D16*
X14796400Y-10266684D02*
X14836400Y-10226684D01*
X14796400Y-10186684D01*
X14756400Y-10226684D01*
X14796400Y-10266684D01*
D11*
X15132114Y-10117160D02*
X15151162Y-10117160D01*
X15170209Y-10126684D01*
X15179733Y-10136208D01*
X15189257Y-10155256D01*
X15198781Y-10193351D01*
X15198781Y-10240970D01*
X15189257Y-10279065D01*
X15179733Y-10298113D01*
X15170209Y-10307637D01*
X15151162Y-10317160D01*
X15132114Y-10317160D01*
X15113066Y-10307637D01*
X15103543Y-10298113D01*
X15094019Y-10279065D01*
X15084495Y-10240970D01*
X15084495Y-10193351D01*
X15094019Y-10155256D01*
X15103543Y-10136208D01*
X15113066Y-10126684D01*
X15132114Y-10117160D01*
X15284495Y-10298113D02*
X15294019Y-10307637D01*
X15284495Y-10317160D01*
X15274971Y-10307637D01*
X15284495Y-10298113D01*
X15284495Y-10317160D01*
X15408305Y-10202875D02*
X15389257Y-10193351D01*
X15379733Y-10183827D01*
X15370209Y-10164779D01*
X15370209Y-10155256D01*
X15379733Y-10136208D01*
X15389257Y-10126684D01*
X15408305Y-10117160D01*
X15446400Y-10117160D01*
X15465447Y-10126684D01*
X15474971Y-10136208D01*
X15484495Y-10155256D01*
X15484495Y-10164779D01*
X15474971Y-10183827D01*
X15465447Y-10193351D01*
X15446400Y-10202875D01*
X15408305Y-10202875D01*
X15389257Y-10212398D01*
X15379733Y-10221922D01*
X15370209Y-10240970D01*
X15370209Y-10279065D01*
X15379733Y-10298113D01*
X15389257Y-10307637D01*
X15408305Y-10317160D01*
X15446400Y-10317160D01*
X15465447Y-10307637D01*
X15474971Y-10298113D01*
X15484495Y-10279065D01*
X15484495Y-10240970D01*
X15474971Y-10221922D01*
X15465447Y-10212398D01*
X15446400Y-10202875D01*
X15608305Y-10117160D02*
X15627352Y-10117160D01*
X15646400Y-10126684D01*
X15655924Y-10136208D01*
X15665447Y-10155256D01*
X15674971Y-10193351D01*
X15674971Y-10240970D01*
X15665447Y-10279065D01*
X15655924Y-10298113D01*
X15646400Y-10307637D01*
X15627352Y-10317160D01*
X15608305Y-10317160D01*
X15589257Y-10307637D01*
X15579733Y-10298113D01*
X15570209Y-10279065D01*
X15560686Y-10240970D01*
X15560686Y-10193351D01*
X15570209Y-10155256D01*
X15579733Y-10136208D01*
X15589257Y-10126684D01*
X15608305Y-10117160D01*
X15798781Y-10117160D02*
X15817828Y-10117160D01*
X15836876Y-10126684D01*
X15846400Y-10136208D01*
X15855924Y-10155256D01*
X15865447Y-10193351D01*
X15865447Y-10240970D01*
X15855924Y-10279065D01*
X15846400Y-10298113D01*
X15836876Y-10307637D01*
X15817828Y-10317160D01*
X15798781Y-10317160D01*
X15779733Y-10307637D01*
X15770209Y-10298113D01*
X15760686Y-10279065D01*
X15751162Y-10240970D01*
X15751162Y-10193351D01*
X15760686Y-10155256D01*
X15770209Y-10136208D01*
X15779733Y-10126684D01*
X15798781Y-10117160D01*
X15951162Y-10317160D02*
X15951162Y-10183827D01*
X15951162Y-10202875D02*
X15960686Y-10193351D01*
X15979733Y-10183827D01*
X16008305Y-10183827D01*
X16027352Y-10193351D01*
X16036876Y-10212398D01*
X16036876Y-10317160D01*
X16036876Y-10212398D02*
X16046400Y-10193351D01*
X16065447Y-10183827D01*
X16094019Y-10183827D01*
X16113066Y-10193351D01*
X16122590Y-10212398D01*
X16122590Y-10317160D01*
X16217828Y-10317160D02*
X16217828Y-10183827D01*
X16217828Y-10202875D02*
X16227352Y-10193351D01*
X16246400Y-10183827D01*
X16274971Y-10183827D01*
X16294019Y-10193351D01*
X16303543Y-10212398D01*
X16303543Y-10317160D01*
X16303543Y-10212398D02*
X16313066Y-10193351D01*
X16332114Y-10183827D01*
X16360686Y-10183827D01*
X16379733Y-10193351D01*
X16389257Y-10212398D01*
X16389257Y-10317160D01*
X16779733Y-10107637D02*
X16608305Y-10364779D01*
X17036876Y-10117160D02*
X17055924Y-10117160D01*
X17074971Y-10126684D01*
X17084495Y-10136208D01*
X17094019Y-10155256D01*
X17103543Y-10193351D01*
X17103543Y-10240970D01*
X17094019Y-10279065D01*
X17084495Y-10298113D01*
X17074971Y-10307637D01*
X17055924Y-10317160D01*
X17036876Y-10317160D01*
X17017828Y-10307637D01*
X17008305Y-10298113D01*
X16998781Y-10279065D01*
X16989257Y-10240970D01*
X16989257Y-10193351D01*
X16998781Y-10155256D01*
X17008305Y-10136208D01*
X17017828Y-10126684D01*
X17036876Y-10117160D01*
X17189257Y-10298113D02*
X17198781Y-10307637D01*
X17189257Y-10317160D01*
X17179733Y-10307637D01*
X17189257Y-10298113D01*
X17189257Y-10317160D01*
X17322590Y-10117160D02*
X17341638Y-10117160D01*
X17360686Y-10126684D01*
X17370209Y-10136208D01*
X17379733Y-10155256D01*
X17389257Y-10193351D01*
X17389257Y-10240970D01*
X17379733Y-10279065D01*
X17370209Y-10298113D01*
X17360686Y-10307637D01*
X17341638Y-10317160D01*
X17322590Y-10317160D01*
X17303543Y-10307637D01*
X17294019Y-10298113D01*
X17284495Y-10279065D01*
X17274971Y-10240970D01*
X17274971Y-10193351D01*
X17284495Y-10155256D01*
X17294019Y-10136208D01*
X17303543Y-10126684D01*
X17322590Y-10117160D01*
X17455924Y-10117160D02*
X17579733Y-10117160D01*
X17513067Y-10193351D01*
X17541638Y-10193351D01*
X17560686Y-10202875D01*
X17570209Y-10212398D01*
X17579733Y-10231446D01*
X17579733Y-10279065D01*
X17570209Y-10298113D01*
X17560686Y-10307637D01*
X17541638Y-10317160D01*
X17484495Y-10317160D01*
X17465448Y-10307637D01*
X17455924Y-10298113D01*
X17770209Y-10317160D02*
X17655924Y-10317160D01*
X17713067Y-10317160D02*
X17713067Y-10117160D01*
X17694019Y-10145732D01*
X17674971Y-10164779D01*
X17655924Y-10174303D01*
X17951162Y-10117160D02*
X17855924Y-10117160D01*
X17846400Y-10212398D01*
X17855924Y-10202875D01*
X17874971Y-10193351D01*
X17922590Y-10193351D01*
X17941638Y-10202875D01*
X17951162Y-10212398D01*
X17960686Y-10231446D01*
X17960686Y-10279065D01*
X17951162Y-10298113D01*
X17941638Y-10307637D01*
X17922590Y-10317160D01*
X17874971Y-10317160D01*
X17855924Y-10307637D01*
X17846400Y-10298113D01*
X18036876Y-10117160D02*
X18036876Y-10155256D01*
X18113067Y-10117160D02*
X18113067Y-10155256D01*
X18408305Y-10393351D02*
X18398781Y-10383827D01*
X18379733Y-10355256D01*
X18370209Y-10336208D01*
X18360686Y-10307637D01*
X18351162Y-10260018D01*
X18351162Y-10221922D01*
X18360686Y-10174303D01*
X18370209Y-10145732D01*
X18379733Y-10126684D01*
X18398781Y-10098113D01*
X18408305Y-10088589D01*
X18589257Y-10317160D02*
X18474971Y-10317160D01*
X18532114Y-10317160D02*
X18532114Y-10117160D01*
X18513067Y-10145732D01*
X18494019Y-10164779D01*
X18474971Y-10174303D01*
X18713067Y-10117160D02*
X18732114Y-10117160D01*
X18751162Y-10126684D01*
X18760686Y-10136208D01*
X18770209Y-10155256D01*
X18779733Y-10193351D01*
X18779733Y-10240970D01*
X18770209Y-10279065D01*
X18760686Y-10298113D01*
X18751162Y-10307637D01*
X18732114Y-10317160D01*
X18713067Y-10317160D01*
X18694019Y-10307637D01*
X18684495Y-10298113D01*
X18674971Y-10279065D01*
X18665448Y-10240970D01*
X18665448Y-10193351D01*
X18674971Y-10155256D01*
X18684495Y-10136208D01*
X18694019Y-10126684D01*
X18713067Y-10117160D01*
X19017828Y-10317160D02*
X19017828Y-10117160D01*
X19103543Y-10317160D02*
X19103543Y-10212398D01*
X19094019Y-10193351D01*
X19074971Y-10183827D01*
X19046400Y-10183827D01*
X19027352Y-10193351D01*
X19017828Y-10202875D01*
X19227352Y-10317160D02*
X19208305Y-10307637D01*
X19198781Y-10298113D01*
X19189257Y-10279065D01*
X19189257Y-10221922D01*
X19198781Y-10202875D01*
X19208305Y-10193351D01*
X19227352Y-10183827D01*
X19255924Y-10183827D01*
X19274971Y-10193351D01*
X19284495Y-10202875D01*
X19294019Y-10221922D01*
X19294019Y-10279065D01*
X19284495Y-10298113D01*
X19274971Y-10307637D01*
X19255924Y-10317160D01*
X19227352Y-10317160D01*
X19408305Y-10317160D02*
X19389257Y-10307637D01*
X19379733Y-10288589D01*
X19379733Y-10117160D01*
X19560686Y-10307637D02*
X19541638Y-10317160D01*
X19503543Y-10317160D01*
X19484495Y-10307637D01*
X19474971Y-10288589D01*
X19474971Y-10212398D01*
X19484495Y-10193351D01*
X19503543Y-10183827D01*
X19541638Y-10183827D01*
X19560686Y-10193351D01*
X19570209Y-10212398D01*
X19570209Y-10231446D01*
X19474971Y-10250494D01*
X19646400Y-10307637D02*
X19665448Y-10317160D01*
X19703543Y-10317160D01*
X19722590Y-10307637D01*
X19732114Y-10288589D01*
X19732114Y-10279065D01*
X19722590Y-10260018D01*
X19703543Y-10250494D01*
X19674971Y-10250494D01*
X19655924Y-10240970D01*
X19646400Y-10221922D01*
X19646400Y-10212398D01*
X19655924Y-10193351D01*
X19674971Y-10183827D01*
X19703543Y-10183827D01*
X19722590Y-10193351D01*
X19798781Y-10393351D02*
X19808305Y-10383827D01*
X19827352Y-10355256D01*
X19836876Y-10336208D01*
X19846400Y-10307637D01*
X19855924Y-10260018D01*
X19855924Y-10221922D01*
X19846400Y-10174303D01*
X19836876Y-10145732D01*
X19827352Y-10126684D01*
X19808305Y-10098113D01*
X19798781Y-10088589D01*
D10*
X14736400Y-10440684D02*
X14836400Y-10540684D01*
X14836400Y-10440684D02*
X14736400Y-10540684D01*
X14836400Y-10490684D02*
G75*
G03*
X14836400Y-10490684I-50000J0D01*
G01*
D11*
X15198781Y-10581160D02*
X15084495Y-10581160D01*
X15141638Y-10581160D02*
X15141638Y-10381160D01*
X15122590Y-10409732D01*
X15103543Y-10428779D01*
X15084495Y-10438303D01*
X15284495Y-10562113D02*
X15294019Y-10571637D01*
X15284495Y-10581160D01*
X15274971Y-10571637D01*
X15284495Y-10562113D01*
X15284495Y-10581160D01*
X15417828Y-10381160D02*
X15436876Y-10381160D01*
X15455924Y-10390684D01*
X15465447Y-10400208D01*
X15474971Y-10419256D01*
X15484495Y-10457351D01*
X15484495Y-10504970D01*
X15474971Y-10543065D01*
X15465447Y-10562113D01*
X15455924Y-10571637D01*
X15436876Y-10581160D01*
X15417828Y-10581160D01*
X15398781Y-10571637D01*
X15389257Y-10562113D01*
X15379733Y-10543065D01*
X15370209Y-10504970D01*
X15370209Y-10457351D01*
X15379733Y-10419256D01*
X15389257Y-10400208D01*
X15398781Y-10390684D01*
X15417828Y-10381160D01*
X15608305Y-10381160D02*
X15627352Y-10381160D01*
X15646400Y-10390684D01*
X15655924Y-10400208D01*
X15665447Y-10419256D01*
X15674971Y-10457351D01*
X15674971Y-10504970D01*
X15665447Y-10543065D01*
X15655924Y-10562113D01*
X15646400Y-10571637D01*
X15627352Y-10581160D01*
X15608305Y-10581160D01*
X15589257Y-10571637D01*
X15579733Y-10562113D01*
X15570209Y-10543065D01*
X15560686Y-10504970D01*
X15560686Y-10457351D01*
X15570209Y-10419256D01*
X15579733Y-10400208D01*
X15589257Y-10390684D01*
X15608305Y-10381160D01*
X15798781Y-10381160D02*
X15817828Y-10381160D01*
X15836876Y-10390684D01*
X15846400Y-10400208D01*
X15855924Y-10419256D01*
X15865447Y-10457351D01*
X15865447Y-10504970D01*
X15855924Y-10543065D01*
X15846400Y-10562113D01*
X15836876Y-10571637D01*
X15817828Y-10581160D01*
X15798781Y-10581160D01*
X15779733Y-10571637D01*
X15770209Y-10562113D01*
X15760686Y-10543065D01*
X15751162Y-10504970D01*
X15751162Y-10457351D01*
X15760686Y-10419256D01*
X15770209Y-10400208D01*
X15779733Y-10390684D01*
X15798781Y-10381160D01*
X15951162Y-10581160D02*
X15951162Y-10447827D01*
X15951162Y-10466875D02*
X15960686Y-10457351D01*
X15979733Y-10447827D01*
X16008305Y-10447827D01*
X16027352Y-10457351D01*
X16036876Y-10476398D01*
X16036876Y-10581160D01*
X16036876Y-10476398D02*
X16046400Y-10457351D01*
X16065447Y-10447827D01*
X16094019Y-10447827D01*
X16113066Y-10457351D01*
X16122590Y-10476398D01*
X16122590Y-10581160D01*
X16217828Y-10581160D02*
X16217828Y-10447827D01*
X16217828Y-10466875D02*
X16227352Y-10457351D01*
X16246400Y-10447827D01*
X16274971Y-10447827D01*
X16294019Y-10457351D01*
X16303543Y-10476398D01*
X16303543Y-10581160D01*
X16303543Y-10476398D02*
X16313066Y-10457351D01*
X16332114Y-10447827D01*
X16360686Y-10447827D01*
X16379733Y-10457351D01*
X16389257Y-10476398D01*
X16389257Y-10581160D01*
X16779733Y-10371637D02*
X16608305Y-10628779D01*
X17036876Y-10381160D02*
X17055924Y-10381160D01*
X17074971Y-10390684D01*
X17084495Y-10400208D01*
X17094019Y-10419256D01*
X17103543Y-10457351D01*
X17103543Y-10504970D01*
X17094019Y-10543065D01*
X17084495Y-10562113D01*
X17074971Y-10571637D01*
X17055924Y-10581160D01*
X17036876Y-10581160D01*
X17017828Y-10571637D01*
X17008305Y-10562113D01*
X16998781Y-10543065D01*
X16989257Y-10504970D01*
X16989257Y-10457351D01*
X16998781Y-10419256D01*
X17008305Y-10400208D01*
X17017828Y-10390684D01*
X17036876Y-10381160D01*
X17189257Y-10562113D02*
X17198781Y-10571637D01*
X17189257Y-10581160D01*
X17179733Y-10571637D01*
X17189257Y-10562113D01*
X17189257Y-10581160D01*
X17322590Y-10381160D02*
X17341638Y-10381160D01*
X17360686Y-10390684D01*
X17370209Y-10400208D01*
X17379733Y-10419256D01*
X17389257Y-10457351D01*
X17389257Y-10504970D01*
X17379733Y-10543065D01*
X17370209Y-10562113D01*
X17360686Y-10571637D01*
X17341638Y-10581160D01*
X17322590Y-10581160D01*
X17303543Y-10571637D01*
X17294019Y-10562113D01*
X17284495Y-10543065D01*
X17274971Y-10504970D01*
X17274971Y-10457351D01*
X17284495Y-10419256D01*
X17294019Y-10400208D01*
X17303543Y-10390684D01*
X17322590Y-10381160D01*
X17455924Y-10381160D02*
X17579733Y-10381160D01*
X17513067Y-10457351D01*
X17541638Y-10457351D01*
X17560686Y-10466875D01*
X17570209Y-10476398D01*
X17579733Y-10495446D01*
X17579733Y-10543065D01*
X17570209Y-10562113D01*
X17560686Y-10571637D01*
X17541638Y-10581160D01*
X17484495Y-10581160D01*
X17465448Y-10571637D01*
X17455924Y-10562113D01*
X17674971Y-10581160D02*
X17713067Y-10581160D01*
X17732114Y-10571637D01*
X17741638Y-10562113D01*
X17760686Y-10533541D01*
X17770209Y-10495446D01*
X17770209Y-10419256D01*
X17760686Y-10400208D01*
X17751162Y-10390684D01*
X17732114Y-10381160D01*
X17694019Y-10381160D01*
X17674971Y-10390684D01*
X17665448Y-10400208D01*
X17655924Y-10419256D01*
X17655924Y-10466875D01*
X17665448Y-10485922D01*
X17674971Y-10495446D01*
X17694019Y-10504970D01*
X17732114Y-10504970D01*
X17751162Y-10495446D01*
X17760686Y-10485922D01*
X17770209Y-10466875D01*
X17941638Y-10447827D02*
X17941638Y-10581160D01*
X17894019Y-10371637D02*
X17846400Y-10514494D01*
X17970209Y-10514494D01*
X18036876Y-10381160D02*
X18036876Y-10419256D01*
X18113067Y-10381160D02*
X18113067Y-10419256D01*
X18408305Y-10657351D02*
X18398781Y-10647827D01*
X18379733Y-10619256D01*
X18370209Y-10600208D01*
X18360686Y-10571637D01*
X18351162Y-10524018D01*
X18351162Y-10485922D01*
X18360686Y-10438303D01*
X18370209Y-10409732D01*
X18379733Y-10390684D01*
X18398781Y-10362113D01*
X18408305Y-10352589D01*
X18474971Y-10400208D02*
X18484495Y-10390684D01*
X18503543Y-10381160D01*
X18551162Y-10381160D01*
X18570209Y-10390684D01*
X18579733Y-10400208D01*
X18589257Y-10419256D01*
X18589257Y-10438303D01*
X18579733Y-10466875D01*
X18465448Y-10581160D01*
X18589257Y-10581160D01*
X18827352Y-10581160D02*
X18827352Y-10381160D01*
X18913067Y-10581160D02*
X18913067Y-10476398D01*
X18903543Y-10457351D01*
X18884495Y-10447827D01*
X18855924Y-10447827D01*
X18836876Y-10457351D01*
X18827352Y-10466875D01*
X19036876Y-10581160D02*
X19017828Y-10571637D01*
X19008305Y-10562113D01*
X18998781Y-10543065D01*
X18998781Y-10485922D01*
X19008305Y-10466875D01*
X19017828Y-10457351D01*
X19036876Y-10447827D01*
X19065448Y-10447827D01*
X19084495Y-10457351D01*
X19094019Y-10466875D01*
X19103543Y-10485922D01*
X19103543Y-10543065D01*
X19094019Y-10562113D01*
X19084495Y-10571637D01*
X19065448Y-10581160D01*
X19036876Y-10581160D01*
X19217828Y-10581160D02*
X19198781Y-10571637D01*
X19189257Y-10552589D01*
X19189257Y-10381160D01*
X19370209Y-10571637D02*
X19351162Y-10581160D01*
X19313067Y-10581160D01*
X19294019Y-10571637D01*
X19284495Y-10552589D01*
X19284495Y-10476398D01*
X19294019Y-10457351D01*
X19313067Y-10447827D01*
X19351162Y-10447827D01*
X19370209Y-10457351D01*
X19379733Y-10476398D01*
X19379733Y-10495446D01*
X19284495Y-10514494D01*
X19455924Y-10571637D02*
X19474971Y-10581160D01*
X19513067Y-10581160D01*
X19532114Y-10571637D01*
X19541638Y-10552589D01*
X19541638Y-10543065D01*
X19532114Y-10524018D01*
X19513067Y-10514494D01*
X19484495Y-10514494D01*
X19465448Y-10504970D01*
X19455924Y-10485922D01*
X19455924Y-10476398D01*
X19465448Y-10457351D01*
X19484495Y-10447827D01*
X19513067Y-10447827D01*
X19532114Y-10457351D01*
X19608305Y-10657351D02*
X19617828Y-10647827D01*
X19636876Y-10619256D01*
X19646400Y-10600208D01*
X19655924Y-10571637D01*
X19665448Y-10524018D01*
X19665448Y-10485922D01*
X19655924Y-10438303D01*
X19646400Y-10409732D01*
X19636876Y-10390684D01*
X19617828Y-10362113D01*
X19608305Y-10352589D01*
M02*
