%TF.GenerationSoftware,KiCad,Pcbnew,(6.0.8)*%
%TF.CreationDate,2023-03-18T00:57:18+01:00*%
%TF.ProjectId,WHEEL-07,57484545-4c2d-4303-972e-6b696361645f,rev?*%
%TF.SameCoordinates,Original*%
%TF.FileFunction,Copper,L3,Inr*%
%TF.FilePolarity,Positive*%
%FSLAX46Y46*%
G04 Gerber Fmt 4.6, Leading zero omitted, Abs format (unit mm)*
G04 Created by KiCad (PCBNEW (6.0.8)) date 2023-03-18 00:57:18*
%MOMM*%
%LPD*%
G01*
G04 APERTURE LIST*
G04 Aperture macros list*
%AMRoundRect*
0 Rectangle with rounded corners*
0 $1 Rounding radius*
0 $2 $3 $4 $5 $6 $7 $8 $9 X,Y pos of 4 corners*
0 Add a 4 corners polygon primitive as box body*
4,1,4,$2,$3,$4,$5,$6,$7,$8,$9,$2,$3,0*
0 Add four circle primitives for the rounded corners*
1,1,$1+$1,$2,$3*
1,1,$1+$1,$4,$5*
1,1,$1+$1,$6,$7*
1,1,$1+$1,$8,$9*
0 Add four rect primitives between the rounded corners*
20,1,$1+$1,$2,$3,$4,$5,0*
20,1,$1+$1,$4,$5,$6,$7,0*
20,1,$1+$1,$6,$7,$8,$9,0*
20,1,$1+$1,$8,$9,$2,$3,0*%
G04 Aperture macros list end*
%TA.AperFunction,ComponentPad*%
%ADD10O,1.200000X1.800000*%
%TD*%
%TA.AperFunction,ComponentPad*%
%ADD11RoundRect,0.250000X0.350000X0.650000X-0.350000X0.650000X-0.350000X-0.650000X0.350000X-0.650000X0*%
%TD*%
%TA.AperFunction,ComponentPad*%
%ADD12RoundRect,0.200000X-0.450000X0.200000X-0.450000X-0.200000X0.450000X-0.200000X0.450000X0.200000X0*%
%TD*%
%TA.AperFunction,ComponentPad*%
%ADD13O,1.300000X0.800000*%
%TD*%
%TA.AperFunction,ComponentPad*%
%ADD14RoundRect,0.200000X0.200000X0.450000X-0.200000X0.450000X-0.200000X-0.450000X0.200000X-0.450000X0*%
%TD*%
%TA.AperFunction,ComponentPad*%
%ADD15O,0.800000X1.300000*%
%TD*%
%TA.AperFunction,ComponentPad*%
%ADD16R,1.700000X1.700000*%
%TD*%
%TA.AperFunction,ComponentPad*%
%ADD17O,1.700000X1.700000*%
%TD*%
%TA.AperFunction,ComponentPad*%
%ADD18R,1.000000X1.000000*%
%TD*%
%TA.AperFunction,ComponentPad*%
%ADD19O,1.000000X1.000000*%
%TD*%
%TA.AperFunction,ComponentPad*%
%ADD20RoundRect,0.250000X0.650000X-0.350000X0.650000X0.350000X-0.650000X0.350000X-0.650000X-0.350000X0*%
%TD*%
%TA.AperFunction,ComponentPad*%
%ADD21O,1.800000X1.200000*%
%TD*%
%TA.AperFunction,ViaPad*%
%ADD22C,0.600000*%
%TD*%
%TA.AperFunction,ViaPad*%
%ADD23C,0.800000*%
%TD*%
G04 APERTURE END LIST*
D10*
%TO.N,GND*%
%TO.C,J5*%
X189405000Y-78930000D03*
%TO.N,PADDLE2_IN*%
X191405000Y-78930000D03*
%TO.N,GND*%
X193405000Y-78930000D03*
D11*
%TO.N,PADDLE1_IN*%
X195405000Y-78930000D03*
%TD*%
D12*
%TO.N,GND*%
%TO.C,J7*%
X197358000Y-73152000D03*
D13*
%TO.N,GPIO_3*%
X197358000Y-74402000D03*
%TD*%
D14*
%TO.N,TIM3_CH1*%
%TO.C,J17*%
X189815000Y-52890000D03*
D15*
%TO.N,TIM3_CH2*%
X188565000Y-52890000D03*
%TO.N,TIM3_CH3*%
X187315000Y-52890000D03*
%TO.N,TIM1_CH1*%
X186065000Y-52890000D03*
%TO.N,TIM1_CH2*%
X184815000Y-52890000D03*
%TO.N,TIM1_CH3*%
X183565000Y-52890000D03*
%TD*%
D16*
%TO.N,GND*%
%TO.C,J16*%
X196088000Y-53898800D03*
D17*
%TO.N,+3.3V*%
X196088000Y-56438800D03*
%TD*%
D12*
%TO.N,GND*%
%TO.C,J14*%
X197358000Y-62240000D03*
D13*
%TO.N,GPIO_7*%
X197358000Y-63490000D03*
%TD*%
D12*
%TO.N,GND*%
%TO.C,J10*%
X192786000Y-67701000D03*
D13*
%TO.N,GPIO_6*%
X192786000Y-68951000D03*
%TD*%
D14*
%TO.N,+3.3V*%
%TO.C,J12*%
X181357600Y-82346800D03*
D15*
%TO.N,GND*%
X180107600Y-82346800D03*
%TO.N,Net-(C31-Pad1)*%
X178857600Y-82346800D03*
%TO.N,Net-(C30-Pad1)*%
X177607600Y-82346800D03*
%TO.N,Net-(C29-Pad1)*%
X176357600Y-82346800D03*
%TO.N,Net-(C28-Pad1)*%
X175107600Y-82346800D03*
%TO.N,Net-(C32-Pad1)*%
X173857600Y-82346800D03*
%TO.N,Net-(C27-Pad1)*%
X172607600Y-82346800D03*
%TO.N,Net-(C26-Pad1)*%
X171357600Y-82346800D03*
%TO.N,Net-(C25-Pad1)*%
X170107600Y-82346800D03*
%TD*%
D18*
%TO.N,+3.3V*%
%TO.C,J11*%
X175524000Y-54605000D03*
D19*
%TO.N,GND*%
X176794000Y-54605000D03*
%TO.N,unconnected-(J11-Pad3)*%
X175524000Y-55875000D03*
%TO.N,NRST*%
X176794000Y-55875000D03*
%TO.N,SWCLK*%
X175524000Y-57145000D03*
%TO.N,SWDIO*%
X176794000Y-57145000D03*
%TD*%
D12*
%TO.N,GND*%
%TO.C,J8*%
X192786000Y-73152000D03*
D13*
%TO.N,GPIO_4*%
X192786000Y-74402000D03*
%TD*%
D12*
%TO.N,GND*%
%TO.C,J9*%
X197358000Y-67696000D03*
D13*
%TO.N,GPIO_5*%
X197358000Y-68946000D03*
%TD*%
D12*
%TO.N,GND*%
%TO.C,J15*%
X192786000Y-62230000D03*
D13*
%TO.N,GPIO_8*%
X192786000Y-63480000D03*
%TD*%
D18*
%TO.N,I2C2_SCL*%
%TO.C,J2*%
X188722000Y-64389000D03*
D19*
%TO.N,I2C2_SDA*%
X188722000Y-63119000D03*
%TO.N,SPI_CS*%
X188722000Y-61849000D03*
%TO.N,SPI2_SCK*%
X188722000Y-60579000D03*
%TO.N,SPI2_MISO*%
X188722000Y-59309000D03*
%TO.N,SPI2_MOSI*%
X188722000Y-58039000D03*
%TD*%
D20*
%TO.N,GND*%
%TO.C,J1*%
X154953200Y-71675000D03*
D21*
%TO.N,12V_CONN*%
X154953200Y-69675000D03*
%TO.N,/CAN_BUS/CAN1_H*%
X154953200Y-67675000D03*
%TO.N,/CAN_BUS/CAN1_L*%
X154953200Y-65675000D03*
%TO.N,/CAN_BUS/CAN2_H*%
X154953200Y-63675000D03*
%TO.N,/CAN_BUS/CAN2_L*%
X154953200Y-61675000D03*
%TD*%
D22*
%TO.N,GND*%
X169037000Y-66294000D03*
X168801700Y-77978000D03*
X166624000Y-55118000D03*
D23*
X188722000Y-83058000D03*
D22*
X152713400Y-52218000D03*
X154643800Y-52878400D03*
X159444500Y-82804000D03*
X158149000Y-52675200D03*
X161188400Y-65481200D03*
X152764200Y-52827600D03*
X153373800Y-52218000D03*
X172466000Y-60198000D03*
X164693600Y-79908400D03*
X165201600Y-71475600D03*
X154000332Y-52878399D03*
X164600000Y-56200000D03*
X153356866Y-52861466D03*
X154051132Y-52217999D03*
X160079500Y-82804000D03*
X179590539Y-77907639D03*
X154694600Y-52218000D03*
X158174500Y-82804000D03*
X163830000Y-69850000D03*
X181386517Y-57576683D03*
X179882800Y-70256400D03*
X161925000Y-77343000D03*
X170789600Y-71272400D03*
X166624000Y-60960000D03*
D23*
X193040000Y-83058000D03*
D22*
X164600000Y-62200000D03*
X180497517Y-56687683D03*
X151739600Y-75793600D03*
X188259800Y-67884800D03*
X169016717Y-63647283D03*
X167995600Y-73863200D03*
X187502800Y-67259200D03*
X151688800Y-77063600D03*
X158809500Y-82804000D03*
D23*
X169468800Y-55219600D03*
D22*
X176225200Y-67665600D03*
D23*
X188468000Y-74742000D03*
D22*
X175226422Y-71288273D03*
X160782000Y-78867000D03*
X180594000Y-75590400D03*
X174650400Y-70307200D03*
%TO.N,+3.3V*%
X154542066Y-75488800D03*
X162712400Y-74015600D03*
X155194000Y-77520800D03*
X155905200Y-77520800D03*
D23*
X195580000Y-83058000D03*
D22*
X154516668Y-76166133D03*
X181559200Y-74625200D03*
X154525134Y-76843466D03*
X155913666Y-75488800D03*
X177393600Y-68122800D03*
D23*
X183388000Y-74742000D03*
D22*
X155185534Y-76843466D03*
X179882800Y-67665600D03*
D23*
X191262000Y-83058000D03*
D22*
X189890400Y-66852800D03*
X174650400Y-66954400D03*
X178719517Y-57449683D03*
X155202466Y-75488800D03*
X185724800Y-68021200D03*
X155177068Y-76166133D03*
X168254717Y-64460083D03*
X155896734Y-76843466D03*
X154533600Y-77520800D03*
X184454800Y-66294000D03*
X155888268Y-76166133D03*
%TO.N,+3.3VA*%
X176276000Y-71170800D03*
%TO.N,+12V*%
X164719000Y-81254600D03*
X159198632Y-81090590D03*
%TO.N,+5V*%
X158784000Y-56282000D03*
X156879000Y-55647000D03*
X157514000Y-56282000D03*
X166624000Y-53594000D03*
X158149000Y-56282000D03*
X156879000Y-56282000D03*
X156879000Y-55012000D03*
X166624000Y-59436000D03*
D23*
%TO.N,Net-(C23-Pad1)*%
X188468000Y-76266000D03*
%TO.N,Net-(C24-Pad1)*%
X190754000Y-76200000D03*
D22*
%TO.N,I2C2_SCL*%
X189028333Y-67664435D03*
%TO.N,I2C2_SDA*%
X185318400Y-67310000D03*
%TO.N,GPIO_3*%
X179616817Y-71123922D03*
%TO.N,NRST*%
X173482000Y-69469000D03*
%TO.N,Net-(C31-Pad1)*%
X178689000Y-80264000D03*
%TO.N,Net-(C30-Pad1)*%
X177419000Y-80264000D03*
%TO.N,Net-(C29-Pad1)*%
X176149000Y-80264000D03*
%TO.N,Net-(C28-Pad1)*%
X174752000Y-80264000D03*
%TO.N,Net-(C32-Pad1)*%
X173482000Y-80264000D03*
%TO.N,Net-(C27-Pad1)*%
X172212000Y-80264000D03*
%TO.N,Net-(C26-Pad1)*%
X170942000Y-80264000D03*
%TO.N,Net-(C25-Pad1)*%
X169672000Y-80264000D03*
%TO.N,BOOT0*%
X171058500Y-62992000D03*
%TO.N,LED_STATUS*%
X171348400Y-67005200D03*
X167640000Y-65735200D03*
%TD*%
%TA.AperFunction,Conductor*%
%TO.N,+5V*%
G36*
X173170121Y-50677343D02*
G01*
X173216614Y-50730999D01*
X173228000Y-50783341D01*
X173228000Y-59367622D01*
X173207998Y-59435743D01*
X173170668Y-59473266D01*
X172784147Y-59724504D01*
X172716131Y-59744858D01*
X172678764Y-59736748D01*
X172678095Y-59738985D01*
X172540739Y-59697907D01*
X172531763Y-59697852D01*
X172531762Y-59697852D01*
X172471555Y-59697484D01*
X172397376Y-59697031D01*
X172259529Y-59736428D01*
X172138280Y-59812930D01*
X172043377Y-59920388D01*
X171982447Y-60050163D01*
X171960391Y-60191823D01*
X171960811Y-60195035D01*
X171940828Y-60260144D01*
X171904337Y-60296381D01*
X168149884Y-62736775D01*
X168146050Y-62739170D01*
X166907926Y-63482045D01*
X166843101Y-63500000D01*
X156129493Y-63500000D01*
X156061372Y-63479998D01*
X156014879Y-63426342D01*
X156010219Y-63414615D01*
X155982097Y-63332007D01*
X155941641Y-63266246D01*
X155891685Y-63185045D01*
X155887994Y-63179045D01*
X155883068Y-63174014D01*
X155883065Y-63174011D01*
X155822224Y-63111883D01*
X155762341Y-63050732D01*
X155745613Y-63039951D01*
X155617309Y-62957265D01*
X155611383Y-62953446D01*
X155604763Y-62951037D01*
X155604760Y-62951035D01*
X155449239Y-62894430D01*
X155449236Y-62894429D01*
X155442622Y-62892022D01*
X155385892Y-62884856D01*
X155307845Y-62874996D01*
X155307842Y-62874996D01*
X155303917Y-62874500D01*
X154608045Y-62874500D01*
X154474728Y-62889454D01*
X154468075Y-62891771D01*
X154468074Y-62891771D01*
X154399749Y-62915564D01*
X154305127Y-62948515D01*
X154299153Y-62952248D01*
X154299151Y-62952249D01*
X154215766Y-63004354D01*
X154152825Y-63043684D01*
X154088835Y-63107229D01*
X154030390Y-63165267D01*
X154030387Y-63165271D01*
X154025393Y-63170230D01*
X153929163Y-63321864D01*
X153926797Y-63328509D01*
X153895548Y-63416266D01*
X153853854Y-63473731D01*
X153787712Y-63499531D01*
X153776849Y-63500000D01*
X148640500Y-63500000D01*
X148572379Y-63479998D01*
X148525886Y-63426342D01*
X148514500Y-63374000D01*
X148514500Y-61669376D01*
X153847655Y-61669376D01*
X153848391Y-61676379D01*
X153848391Y-61676380D01*
X153864092Y-61825763D01*
X153866427Y-61847983D01*
X153924303Y-62017993D01*
X153927993Y-62023991D01*
X153927994Y-62023993D01*
X153948966Y-62058082D01*
X154018406Y-62170955D01*
X154023332Y-62175986D01*
X154023335Y-62175989D01*
X154058947Y-62212354D01*
X154144059Y-62299268D01*
X154149984Y-62303087D01*
X154149986Y-62303088D01*
X154187205Y-62327074D01*
X154295017Y-62396554D01*
X154301637Y-62398963D01*
X154301640Y-62398965D01*
X154457161Y-62455570D01*
X154457164Y-62455571D01*
X154463778Y-62457978D01*
X154490321Y-62461331D01*
X154598555Y-62475004D01*
X154598558Y-62475004D01*
X154602483Y-62475500D01*
X155298355Y-62475500D01*
X155431672Y-62460546D01*
X155439047Y-62457978D01*
X155506651Y-62434436D01*
X155601273Y-62401485D01*
X155609165Y-62396554D01*
X155747601Y-62310049D01*
X155753575Y-62306316D01*
X155817565Y-62242771D01*
X155866856Y-62193823D01*
X164094391Y-62193823D01*
X164095555Y-62202725D01*
X164095555Y-62202728D01*
X164096814Y-62212354D01*
X164112980Y-62335979D01*
X164170720Y-62467203D01*
X164176497Y-62474076D01*
X164176498Y-62474077D01*
X164177277Y-62475004D01*
X164262970Y-62576948D01*
X164382313Y-62656390D01*
X164519157Y-62699142D01*
X164528129Y-62699306D01*
X164528132Y-62699307D01*
X164593463Y-62700504D01*
X164662499Y-62701770D01*
X164671533Y-62699307D01*
X164792158Y-62666421D01*
X164792160Y-62666420D01*
X164800817Y-62664060D01*
X164922991Y-62589045D01*
X165019200Y-62482754D01*
X165060384Y-62397751D01*
X165077795Y-62361814D01*
X165077795Y-62361813D01*
X165081710Y-62353733D01*
X165105496Y-62212354D01*
X165105647Y-62200000D01*
X165085323Y-62058082D01*
X165071708Y-62028136D01*
X165029700Y-61935746D01*
X165025984Y-61927572D01*
X165007598Y-61906234D01*
X164938260Y-61825763D01*
X164938257Y-61825760D01*
X164932400Y-61818963D01*
X164812095Y-61740985D01*
X164674739Y-61699907D01*
X164665763Y-61699852D01*
X164665762Y-61699852D01*
X164605555Y-61699484D01*
X164531376Y-61699031D01*
X164393529Y-61738428D01*
X164272280Y-61814930D01*
X164266338Y-61821658D01*
X164266337Y-61821659D01*
X164237197Y-61854654D01*
X164177377Y-61922388D01*
X164116447Y-62052163D01*
X164115066Y-62061035D01*
X164097168Y-62175989D01*
X164094391Y-62193823D01*
X155866856Y-62193823D01*
X155876010Y-62184733D01*
X155876013Y-62184729D01*
X155881007Y-62179770D01*
X155977237Y-62028136D01*
X156011999Y-61930514D01*
X156035119Y-61865586D01*
X156035120Y-61865581D01*
X156037481Y-61858951D01*
X156038314Y-61851965D01*
X156038315Y-61851961D01*
X156056452Y-61699852D01*
X156058745Y-61680624D01*
X156039973Y-61502017D01*
X155989496Y-61353741D01*
X155984368Y-61338677D01*
X155984367Y-61338674D01*
X155982097Y-61332007D01*
X155887994Y-61179045D01*
X155883068Y-61174014D01*
X155883065Y-61174011D01*
X155806650Y-61095979D01*
X155762341Y-61050732D01*
X155745613Y-61039951D01*
X155617309Y-60957265D01*
X155611968Y-60953823D01*
X166118391Y-60953823D01*
X166119555Y-60962725D01*
X166119555Y-60962728D01*
X166120814Y-60972354D01*
X166136980Y-61095979D01*
X166194720Y-61227203D01*
X166200497Y-61234076D01*
X166200498Y-61234077D01*
X166277773Y-61326007D01*
X166286970Y-61336948D01*
X166406313Y-61416390D01*
X166543157Y-61459142D01*
X166552129Y-61459306D01*
X166552132Y-61459307D01*
X166617463Y-61460504D01*
X166686499Y-61461770D01*
X166695533Y-61459307D01*
X166816158Y-61426421D01*
X166816160Y-61426420D01*
X166824817Y-61424060D01*
X166946991Y-61349045D01*
X167043200Y-61242754D01*
X167078089Y-61170743D01*
X167101795Y-61121814D01*
X167101795Y-61121813D01*
X167105710Y-61113733D01*
X167129496Y-60972354D01*
X167129647Y-60960000D01*
X167109323Y-60818082D01*
X167049984Y-60687572D01*
X167028001Y-60662060D01*
X166962260Y-60585763D01*
X166962257Y-60585760D01*
X166956400Y-60578963D01*
X166836095Y-60500985D01*
X166698739Y-60459907D01*
X166689763Y-60459852D01*
X166689762Y-60459852D01*
X166629555Y-60459484D01*
X166555376Y-60459031D01*
X166417529Y-60498428D01*
X166296280Y-60574930D01*
X166201377Y-60682388D01*
X166140447Y-60812163D01*
X166139066Y-60821035D01*
X166128151Y-60891140D01*
X166118391Y-60953823D01*
X155611968Y-60953823D01*
X155611383Y-60953446D01*
X155604763Y-60951037D01*
X155604760Y-60951035D01*
X155449239Y-60894430D01*
X155449236Y-60894429D01*
X155442622Y-60892022D01*
X155385892Y-60884856D01*
X155307845Y-60874996D01*
X155307842Y-60874996D01*
X155303917Y-60874500D01*
X154608045Y-60874500D01*
X154474728Y-60889454D01*
X154468075Y-60891771D01*
X154468074Y-60891771D01*
X154399749Y-60915564D01*
X154305127Y-60948515D01*
X154299153Y-60952248D01*
X154299151Y-60952249D01*
X154259303Y-60977149D01*
X154152825Y-61043684D01*
X154109131Y-61087074D01*
X154030390Y-61165267D01*
X154030387Y-61165271D01*
X154025393Y-61170230D01*
X153929163Y-61321864D01*
X153926798Y-61328506D01*
X153871281Y-61484414D01*
X153871280Y-61484419D01*
X153868919Y-61491049D01*
X153868086Y-61498035D01*
X153868085Y-61498039D01*
X153852848Y-61625823D01*
X153847655Y-61669376D01*
X148514500Y-61669376D01*
X148514500Y-56193823D01*
X164094391Y-56193823D01*
X164095555Y-56202725D01*
X164095555Y-56202728D01*
X164096814Y-56212354D01*
X164112980Y-56335979D01*
X164170720Y-56467203D01*
X164176497Y-56474076D01*
X164176498Y-56474077D01*
X164183792Y-56482754D01*
X164262970Y-56576948D01*
X164382313Y-56656390D01*
X164519157Y-56699142D01*
X164528129Y-56699306D01*
X164528132Y-56699307D01*
X164593463Y-56700504D01*
X164662499Y-56701770D01*
X164671533Y-56699307D01*
X164792158Y-56666421D01*
X164792160Y-56666420D01*
X164800817Y-56664060D01*
X164922991Y-56589045D01*
X165019200Y-56482754D01*
X165081710Y-56353733D01*
X165105496Y-56212354D01*
X165105647Y-56200000D01*
X165085323Y-56058082D01*
X165025984Y-55927572D01*
X165007598Y-55906234D01*
X164938260Y-55825763D01*
X164938257Y-55825760D01*
X164932400Y-55818963D01*
X164812095Y-55740985D01*
X164674739Y-55699907D01*
X164665763Y-55699852D01*
X164665762Y-55699852D01*
X164605555Y-55699484D01*
X164531376Y-55699031D01*
X164393529Y-55738428D01*
X164272280Y-55814930D01*
X164266338Y-55821658D01*
X164266337Y-55821659D01*
X164263137Y-55825282D01*
X164177377Y-55922388D01*
X164116447Y-56052163D01*
X164094391Y-56193823D01*
X148514500Y-56193823D01*
X148514500Y-55111823D01*
X166118391Y-55111823D01*
X166119555Y-55120725D01*
X166119555Y-55120728D01*
X166120814Y-55130354D01*
X166136980Y-55253979D01*
X166194720Y-55385203D01*
X166200497Y-55392076D01*
X166200498Y-55392077D01*
X166207792Y-55400754D01*
X166286970Y-55494948D01*
X166406313Y-55574390D01*
X166543157Y-55617142D01*
X166552129Y-55617306D01*
X166552132Y-55617307D01*
X166617463Y-55618504D01*
X166686499Y-55619770D01*
X166695533Y-55617307D01*
X166816158Y-55584421D01*
X166816160Y-55584420D01*
X166824817Y-55582060D01*
X166946991Y-55507045D01*
X167043200Y-55400754D01*
X167105710Y-55271733D01*
X167114481Y-55219600D01*
X168863118Y-55219600D01*
X168883756Y-55376362D01*
X168944264Y-55522441D01*
X169040518Y-55647882D01*
X169165959Y-55744136D01*
X169312038Y-55804644D01*
X169468800Y-55825282D01*
X169476988Y-55824204D01*
X169496320Y-55821659D01*
X169625562Y-55804644D01*
X169771641Y-55744136D01*
X169897082Y-55647882D01*
X169993336Y-55522441D01*
X170053844Y-55376362D01*
X170074482Y-55219600D01*
X170053844Y-55062838D01*
X169993336Y-54916759D01*
X169897082Y-54791318D01*
X169771641Y-54695064D01*
X169625562Y-54634556D01*
X169468800Y-54613918D01*
X169312038Y-54634556D01*
X169165959Y-54695064D01*
X169040518Y-54791318D01*
X168944264Y-54916759D01*
X168883756Y-55062838D01*
X168863118Y-55219600D01*
X167114481Y-55219600D01*
X167129496Y-55130354D01*
X167129647Y-55118000D01*
X167109323Y-54976082D01*
X167049984Y-54845572D01*
X167003236Y-54791318D01*
X166962260Y-54743763D01*
X166962257Y-54743760D01*
X166956400Y-54736963D01*
X166836095Y-54658985D01*
X166698739Y-54617907D01*
X166689763Y-54617852D01*
X166689762Y-54617852D01*
X166629555Y-54617484D01*
X166555376Y-54617031D01*
X166417529Y-54656428D01*
X166296280Y-54732930D01*
X166201377Y-54840388D01*
X166140447Y-54970163D01*
X166139066Y-54979035D01*
X166127206Y-55055209D01*
X166118391Y-55111823D01*
X148514500Y-55111823D01*
X148514500Y-52805300D01*
X148534502Y-52737179D01*
X148588158Y-52690686D01*
X148632258Y-52679570D01*
X148664249Y-52677474D01*
X148688826Y-52675863D01*
X148688830Y-52675862D01*
X148692941Y-52675593D01*
X148696981Y-52674789D01*
X148696984Y-52674789D01*
X148783008Y-52657678D01*
X148967109Y-52621059D01*
X148971013Y-52619734D01*
X148971016Y-52619733D01*
X149227908Y-52532531D01*
X149227909Y-52532530D01*
X149231814Y-52531205D01*
X149482526Y-52407569D01*
X149598740Y-52329918D01*
X149711527Y-52254558D01*
X149711532Y-52254554D01*
X149714955Y-52252267D01*
X149761074Y-52211823D01*
X152207791Y-52211823D01*
X152208955Y-52220725D01*
X152208955Y-52220728D01*
X152213379Y-52254558D01*
X152226380Y-52353979D01*
X152284120Y-52485203D01*
X152289898Y-52492077D01*
X152294640Y-52499695D01*
X152293072Y-52500671D01*
X152317173Y-52555604D01*
X152306256Y-52625218D01*
X152280647Y-52679763D01*
X152273088Y-52728313D01*
X152260186Y-52811179D01*
X152258591Y-52821423D01*
X152259755Y-52830325D01*
X152259755Y-52830328D01*
X152266677Y-52883259D01*
X152277180Y-52963579D01*
X152334920Y-53094803D01*
X152340697Y-53101676D01*
X152340698Y-53101677D01*
X152383904Y-53153077D01*
X152427170Y-53204548D01*
X152434647Y-53209525D01*
X152528713Y-53272141D01*
X152546513Y-53283990D01*
X152683357Y-53326742D01*
X152692329Y-53326906D01*
X152692332Y-53326907D01*
X152757663Y-53328104D01*
X152826699Y-53329370D01*
X152835733Y-53326907D01*
X152956358Y-53294021D01*
X152956360Y-53294020D01*
X152965017Y-53291660D01*
X152972664Y-53286965D01*
X152980906Y-53283398D01*
X152982242Y-53286486D01*
X153034990Y-53272168D01*
X153102221Y-53293255D01*
X153139179Y-53317856D01*
X153276023Y-53360608D01*
X153284995Y-53360772D01*
X153284998Y-53360773D01*
X153350329Y-53361970D01*
X153419365Y-53363236D01*
X153428399Y-53360773D01*
X153549024Y-53327887D01*
X153549026Y-53327886D01*
X153557683Y-53325526D01*
X153598798Y-53300281D01*
X153667313Y-53281684D01*
X153734544Y-53302770D01*
X153782645Y-53334789D01*
X153791220Y-53337468D01*
X153807196Y-53342459D01*
X153919489Y-53377541D01*
X153928461Y-53377705D01*
X153928464Y-53377706D01*
X153993795Y-53378903D01*
X154062831Y-53380169D01*
X154071495Y-53377807D01*
X154192490Y-53344820D01*
X154192492Y-53344819D01*
X154201149Y-53342459D01*
X154242667Y-53316967D01*
X154255496Y-53309090D01*
X154324014Y-53290493D01*
X154391242Y-53311578D01*
X154426113Y-53334790D01*
X154562957Y-53377542D01*
X154571929Y-53377706D01*
X154571932Y-53377707D01*
X154637263Y-53378904D01*
X154706299Y-53380170D01*
X154714963Y-53377808D01*
X154835958Y-53344821D01*
X154835960Y-53344820D01*
X154844617Y-53342460D01*
X154966791Y-53267445D01*
X154975233Y-53258119D01*
X155056978Y-53167807D01*
X155063000Y-53161154D01*
X155125510Y-53032133D01*
X155149296Y-52890754D01*
X155149447Y-52878400D01*
X155141095Y-52820081D01*
X155130396Y-52745368D01*
X155130395Y-52745365D01*
X155129123Y-52736482D01*
X155108301Y-52690686D01*
X155098452Y-52669023D01*
X157643391Y-52669023D01*
X157644555Y-52677925D01*
X157644555Y-52677928D01*
X157646441Y-52692349D01*
X157661980Y-52811179D01*
X157719720Y-52942403D01*
X157725497Y-52949276D01*
X157725498Y-52949277D01*
X157730035Y-52954674D01*
X157811970Y-53052148D01*
X157931313Y-53131590D01*
X158068157Y-53174342D01*
X158077129Y-53174506D01*
X158077132Y-53174507D01*
X158142463Y-53175704D01*
X158211499Y-53176970D01*
X158220533Y-53174507D01*
X158341158Y-53141621D01*
X158341160Y-53141620D01*
X158349817Y-53139260D01*
X158471991Y-53064245D01*
X158509070Y-53023281D01*
X158562178Y-52964607D01*
X158568200Y-52957954D01*
X158604389Y-52883259D01*
X158626795Y-52837014D01*
X158626795Y-52837013D01*
X158630710Y-52828933D01*
X158654496Y-52687554D01*
X158654647Y-52675200D01*
X158640000Y-52572924D01*
X158635596Y-52542168D01*
X158635595Y-52542165D01*
X158634323Y-52533282D01*
X158619534Y-52500754D01*
X158611538Y-52483169D01*
X158574984Y-52402772D01*
X158525268Y-52345074D01*
X158487260Y-52300963D01*
X158487257Y-52300960D01*
X158481400Y-52294163D01*
X158361095Y-52216185D01*
X158223739Y-52175107D01*
X158214763Y-52175052D01*
X158214762Y-52175052D01*
X158154555Y-52174684D01*
X158080376Y-52174231D01*
X157942529Y-52213628D01*
X157821280Y-52290130D01*
X157726377Y-52397588D01*
X157665447Y-52527363D01*
X157661568Y-52552278D01*
X157650734Y-52621863D01*
X157643391Y-52669023D01*
X155098452Y-52669023D01*
X155086914Y-52643647D01*
X155076928Y-52573356D01*
X155104060Y-52515730D01*
X155102756Y-52514850D01*
X155107772Y-52507414D01*
X155113800Y-52500754D01*
X155121335Y-52485203D01*
X155172395Y-52379814D01*
X155172395Y-52379813D01*
X155176310Y-52371733D01*
X155200096Y-52230354D01*
X155200247Y-52218000D01*
X155179923Y-52076082D01*
X155120584Y-51945572D01*
X155100782Y-51922591D01*
X155032860Y-51843763D01*
X155032857Y-51843760D01*
X155027000Y-51836963D01*
X154906695Y-51758985D01*
X154769339Y-51717907D01*
X154760363Y-51717852D01*
X154760362Y-51717852D01*
X154700155Y-51717484D01*
X154625976Y-51717031D01*
X154488129Y-51756428D01*
X154480544Y-51761214D01*
X154480540Y-51761216D01*
X154440314Y-51786597D01*
X154372029Y-51806031D01*
X154304550Y-51785769D01*
X154263227Y-51758984D01*
X154125871Y-51717906D01*
X154116895Y-51717851D01*
X154116894Y-51717851D01*
X154056687Y-51717483D01*
X153982508Y-51717030D01*
X153844661Y-51756427D01*
X153779683Y-51797425D01*
X153711401Y-51816858D01*
X153643920Y-51796595D01*
X153585895Y-51758985D01*
X153448539Y-51717907D01*
X153439563Y-51717852D01*
X153439562Y-51717852D01*
X153379355Y-51717484D01*
X153305176Y-51717031D01*
X153167329Y-51756428D01*
X153159741Y-51761216D01*
X153159738Y-51761217D01*
X153110935Y-51792010D01*
X153042650Y-51811445D01*
X152975169Y-51791182D01*
X152925495Y-51758985D01*
X152788139Y-51717907D01*
X152779163Y-51717852D01*
X152779162Y-51717852D01*
X152718955Y-51717484D01*
X152644776Y-51717031D01*
X152506929Y-51756428D01*
X152385680Y-51832930D01*
X152290777Y-51940388D01*
X152229847Y-52070163D01*
X152220610Y-52129490D01*
X152213508Y-52175107D01*
X152207791Y-52211823D01*
X149761074Y-52211823D01*
X149925126Y-52067956D01*
X149927842Y-52064859D01*
X149927848Y-52064853D01*
X150106716Y-51860896D01*
X150109441Y-51857789D01*
X150264748Y-51625363D01*
X150388388Y-51374653D01*
X150478248Y-51109951D01*
X150488834Y-51056740D01*
X150531985Y-50839822D01*
X150531986Y-50839818D01*
X150532788Y-50835784D01*
X150534548Y-50808947D01*
X150536767Y-50775097D01*
X150561183Y-50708431D01*
X150617766Y-50665548D01*
X150662497Y-50657341D01*
X173102000Y-50657341D01*
X173170121Y-50677343D01*
G37*
%TD.AperFunction*%
%TD*%
%TA.AperFunction,Conductor*%
%TO.N,+3.3V*%
G36*
X198826774Y-50577843D02*
G01*
X198873267Y-50631499D01*
X198884383Y-50675598D01*
X198893123Y-50808900D01*
X198894032Y-50822772D01*
X198946029Y-51084152D01*
X199031697Y-51336509D01*
X199149571Y-51575525D01*
X199297634Y-51797111D01*
X199473353Y-51997476D01*
X199673721Y-52173191D01*
X199677144Y-52175478D01*
X199677149Y-52175482D01*
X199735337Y-52214361D01*
X199895310Y-52321250D01*
X199899005Y-52323072D01*
X199899010Y-52323075D01*
X200000877Y-52373309D01*
X200134329Y-52439119D01*
X200138233Y-52440444D01*
X200138235Y-52440445D01*
X200382781Y-52523456D01*
X200382784Y-52523457D01*
X200386688Y-52524782D01*
X200561110Y-52559476D01*
X200644026Y-52575969D01*
X200644029Y-52575969D01*
X200648069Y-52576773D01*
X200652180Y-52577042D01*
X200652184Y-52577043D01*
X200795241Y-52586419D01*
X200861907Y-52610833D01*
X200904792Y-52667415D01*
X200913000Y-52712149D01*
X200913000Y-83101492D01*
X200892998Y-83169613D01*
X200839342Y-83216106D01*
X200795241Y-83227222D01*
X200778957Y-83228289D01*
X200648067Y-83236868D01*
X200644017Y-83237674D01*
X200644014Y-83237674D01*
X200390726Y-83288057D01*
X200390723Y-83288058D01*
X200386685Y-83288861D01*
X200134326Y-83374527D01*
X200130636Y-83376347D01*
X200130633Y-83376348D01*
X199995724Y-83442879D01*
X199895307Y-83492400D01*
X199891874Y-83494694D01*
X199891872Y-83494695D01*
X199878376Y-83503713D01*
X199673719Y-83640462D01*
X199473353Y-83816182D01*
X199297637Y-84016552D01*
X199149579Y-84238143D01*
X199031711Y-84477164D01*
X199030386Y-84481069D01*
X199030383Y-84481075D01*
X198947377Y-84725618D01*
X198946051Y-84729525D01*
X198894063Y-84990908D01*
X198893793Y-84995021D01*
X198893793Y-84995025D01*
X198884420Y-85138079D01*
X198860007Y-85204746D01*
X198803427Y-85247632D01*
X198758690Y-85255841D01*
X174663979Y-85255842D01*
X150569268Y-85255842D01*
X150501147Y-85235840D01*
X150454654Y-85182184D01*
X150443538Y-85138080D01*
X150434165Y-84995032D01*
X150434164Y-84995025D01*
X150433895Y-84990915D01*
X150381909Y-84729537D01*
X150296250Y-84477180D01*
X150178385Y-84238164D01*
X150032917Y-84020450D01*
X150032620Y-84020005D01*
X150032616Y-84020000D01*
X150030329Y-84016577D01*
X149854617Y-83816212D01*
X149851520Y-83813496D01*
X149851514Y-83813490D01*
X149657359Y-83643218D01*
X149657357Y-83643217D01*
X149654255Y-83640496D01*
X149432672Y-83492436D01*
X149193658Y-83374565D01*
X149156572Y-83361976D01*
X148945216Y-83290230D01*
X148945212Y-83290229D01*
X148941303Y-83288902D01*
X148937259Y-83288098D01*
X148937253Y-83288096D01*
X148683965Y-83237713D01*
X148683959Y-83237712D01*
X148679926Y-83236910D01*
X148675821Y-83236641D01*
X148675814Y-83236640D01*
X148532758Y-83227264D01*
X148466091Y-83202850D01*
X148423207Y-83146268D01*
X148414999Y-83101534D01*
X148414999Y-82797823D01*
X157668891Y-82797823D01*
X157670055Y-82806725D01*
X157670055Y-82806728D01*
X157671314Y-82816354D01*
X157687480Y-82939979D01*
X157691097Y-82948199D01*
X157739411Y-83058000D01*
X157745220Y-83071203D01*
X157750997Y-83078076D01*
X157750998Y-83078077D01*
X157827942Y-83169613D01*
X157837470Y-83180948D01*
X157862698Y-83197741D01*
X157931015Y-83243217D01*
X157956813Y-83260390D01*
X158093657Y-83303142D01*
X158102629Y-83303306D01*
X158102632Y-83303307D01*
X158167963Y-83304504D01*
X158236999Y-83305770D01*
X158246033Y-83303307D01*
X158366658Y-83270421D01*
X158366660Y-83270420D01*
X158375317Y-83268060D01*
X158425258Y-83237396D01*
X158493776Y-83218798D01*
X158561005Y-83239883D01*
X158584341Y-83255417D01*
X158584346Y-83255419D01*
X158591813Y-83260390D01*
X158600380Y-83263066D01*
X158600381Y-83263067D01*
X158623921Y-83270421D01*
X158728657Y-83303142D01*
X158737629Y-83303306D01*
X158737632Y-83303307D01*
X158802963Y-83304504D01*
X158871999Y-83305770D01*
X158881033Y-83303307D01*
X159001658Y-83270421D01*
X159001660Y-83270420D01*
X159010317Y-83268060D01*
X159060258Y-83237396D01*
X159128776Y-83218798D01*
X159196005Y-83239883D01*
X159219341Y-83255417D01*
X159219346Y-83255419D01*
X159226813Y-83260390D01*
X159235380Y-83263066D01*
X159235381Y-83263067D01*
X159258921Y-83270421D01*
X159363657Y-83303142D01*
X159372629Y-83303306D01*
X159372632Y-83303307D01*
X159437963Y-83304504D01*
X159506999Y-83305770D01*
X159516033Y-83303307D01*
X159636658Y-83270421D01*
X159636660Y-83270420D01*
X159645317Y-83268060D01*
X159695258Y-83237396D01*
X159763776Y-83218798D01*
X159831005Y-83239883D01*
X159854341Y-83255417D01*
X159854346Y-83255419D01*
X159861813Y-83260390D01*
X159870380Y-83263066D01*
X159870381Y-83263067D01*
X159893921Y-83270421D01*
X159998657Y-83303142D01*
X160007629Y-83303306D01*
X160007632Y-83303307D01*
X160072963Y-83304504D01*
X160141999Y-83305770D01*
X160151033Y-83303307D01*
X160271658Y-83270421D01*
X160271660Y-83270420D01*
X160280317Y-83268060D01*
X160402491Y-83193045D01*
X160423701Y-83169613D01*
X160492678Y-83093407D01*
X160498700Y-83086754D01*
X160561210Y-82957733D01*
X160584996Y-82816354D01*
X160585147Y-82804000D01*
X160564823Y-82662082D01*
X160553038Y-82636161D01*
X169507100Y-82636161D01*
X169507638Y-82640247D01*
X169507638Y-82640248D01*
X169510901Y-82665035D01*
X169522556Y-82753562D01*
X169583064Y-82899641D01*
X169679318Y-83025082D01*
X169804759Y-83121336D01*
X169950838Y-83181844D01*
X170107600Y-83202482D01*
X170115788Y-83201404D01*
X170143612Y-83197741D01*
X170264362Y-83181844D01*
X170410441Y-83121336D01*
X170535882Y-83025082D01*
X170632136Y-82899641D01*
X170634801Y-82901686D01*
X170674850Y-82863491D01*
X170744562Y-82850046D01*
X170810476Y-82876425D01*
X170831580Y-82900780D01*
X170833064Y-82899641D01*
X170929318Y-83025082D01*
X171054759Y-83121336D01*
X171200838Y-83181844D01*
X171357600Y-83202482D01*
X171365788Y-83201404D01*
X171393612Y-83197741D01*
X171514362Y-83181844D01*
X171660441Y-83121336D01*
X171785882Y-83025082D01*
X171882136Y-82899641D01*
X171884801Y-82901686D01*
X171924850Y-82863491D01*
X171994562Y-82850046D01*
X172060476Y-82876425D01*
X172081580Y-82900780D01*
X172083064Y-82899641D01*
X172179318Y-83025082D01*
X172304759Y-83121336D01*
X172450838Y-83181844D01*
X172607600Y-83202482D01*
X172615788Y-83201404D01*
X172643612Y-83197741D01*
X172764362Y-83181844D01*
X172910441Y-83121336D01*
X173035882Y-83025082D01*
X173132136Y-82899641D01*
X173134801Y-82901686D01*
X173174850Y-82863491D01*
X173244562Y-82850046D01*
X173310476Y-82876425D01*
X173331580Y-82900780D01*
X173333064Y-82899641D01*
X173429318Y-83025082D01*
X173554759Y-83121336D01*
X173700838Y-83181844D01*
X173857600Y-83202482D01*
X173865788Y-83201404D01*
X173893612Y-83197741D01*
X174014362Y-83181844D01*
X174160441Y-83121336D01*
X174285882Y-83025082D01*
X174382136Y-82899641D01*
X174384801Y-82901686D01*
X174424850Y-82863491D01*
X174494562Y-82850046D01*
X174560476Y-82876425D01*
X174581580Y-82900780D01*
X174583064Y-82899641D01*
X174679318Y-83025082D01*
X174804759Y-83121336D01*
X174950838Y-83181844D01*
X175107600Y-83202482D01*
X175115788Y-83201404D01*
X175143612Y-83197741D01*
X175264362Y-83181844D01*
X175410441Y-83121336D01*
X175535882Y-83025082D01*
X175632136Y-82899641D01*
X175634801Y-82901686D01*
X175674850Y-82863491D01*
X175744562Y-82850046D01*
X175810476Y-82876425D01*
X175831580Y-82900780D01*
X175833064Y-82899641D01*
X175929318Y-83025082D01*
X176054759Y-83121336D01*
X176200838Y-83181844D01*
X176357600Y-83202482D01*
X176365788Y-83201404D01*
X176393612Y-83197741D01*
X176514362Y-83181844D01*
X176660441Y-83121336D01*
X176785882Y-83025082D01*
X176882136Y-82899641D01*
X176884801Y-82901686D01*
X176924850Y-82863491D01*
X176994562Y-82850046D01*
X177060476Y-82876425D01*
X177081580Y-82900780D01*
X177083064Y-82899641D01*
X177179318Y-83025082D01*
X177304759Y-83121336D01*
X177450838Y-83181844D01*
X177607600Y-83202482D01*
X177615788Y-83201404D01*
X177643612Y-83197741D01*
X177764362Y-83181844D01*
X177910441Y-83121336D01*
X178035882Y-83025082D01*
X178132136Y-82899641D01*
X178134801Y-82901686D01*
X178174850Y-82863491D01*
X178244562Y-82850046D01*
X178310476Y-82876425D01*
X178331580Y-82900780D01*
X178333064Y-82899641D01*
X178429318Y-83025082D01*
X178554759Y-83121336D01*
X178700838Y-83181844D01*
X178857600Y-83202482D01*
X178865788Y-83201404D01*
X178893612Y-83197741D01*
X179014362Y-83181844D01*
X179160441Y-83121336D01*
X179285882Y-83025082D01*
X179382136Y-82899641D01*
X179384801Y-82901686D01*
X179424850Y-82863491D01*
X179494562Y-82850046D01*
X179560476Y-82876425D01*
X179581580Y-82900780D01*
X179583064Y-82899641D01*
X179679318Y-83025082D01*
X179804759Y-83121336D01*
X179950838Y-83181844D01*
X180107600Y-83202482D01*
X180115788Y-83201404D01*
X180143612Y-83197741D01*
X180264362Y-83181844D01*
X180271991Y-83178684D01*
X180403184Y-83124342D01*
X180473774Y-83116753D01*
X180537261Y-83148532D01*
X180559178Y-83175479D01*
X180592421Y-83230370D01*
X180601731Y-83242243D01*
X180712157Y-83352669D01*
X180724026Y-83361976D01*
X180857612Y-83442879D01*
X180871357Y-83449085D01*
X181021244Y-83496056D01*
X181034294Y-83498669D01*
X181089186Y-83503713D01*
X181100724Y-83500325D01*
X181101929Y-83498935D01*
X181103600Y-83491252D01*
X181103600Y-83486684D01*
X181611600Y-83486684D01*
X181616075Y-83501923D01*
X181617465Y-83503128D01*
X181621894Y-83504091D01*
X181680915Y-83498668D01*
X181693951Y-83496057D01*
X181843843Y-83449085D01*
X181857588Y-83442879D01*
X181991174Y-83361976D01*
X182003043Y-83352669D01*
X182113469Y-83242243D01*
X182122779Y-83230370D01*
X182203679Y-83096788D01*
X182209885Y-83083043D01*
X182217733Y-83058000D01*
X188116318Y-83058000D01*
X188136956Y-83214762D01*
X188140116Y-83222391D01*
X188143421Y-83230370D01*
X188197464Y-83360841D01*
X188293718Y-83486282D01*
X188300264Y-83491305D01*
X188309860Y-83498668D01*
X188419159Y-83582536D01*
X188565238Y-83643044D01*
X188722000Y-83663682D01*
X188730188Y-83662604D01*
X188870574Y-83644122D01*
X188878762Y-83643044D01*
X189024841Y-83582536D01*
X189134140Y-83498668D01*
X189143736Y-83491305D01*
X189150282Y-83486282D01*
X189246536Y-83360841D01*
X189300579Y-83230370D01*
X189303884Y-83222391D01*
X189307044Y-83214762D01*
X189327682Y-83058000D01*
X192434318Y-83058000D01*
X192454956Y-83214762D01*
X192458116Y-83222391D01*
X192461421Y-83230370D01*
X192515464Y-83360841D01*
X192611718Y-83486282D01*
X192618264Y-83491305D01*
X192627860Y-83498668D01*
X192737159Y-83582536D01*
X192883238Y-83643044D01*
X193040000Y-83663682D01*
X193048188Y-83662604D01*
X193188574Y-83644122D01*
X193196762Y-83643044D01*
X193342841Y-83582536D01*
X193452140Y-83498668D01*
X193461736Y-83491305D01*
X193468282Y-83486282D01*
X193564536Y-83360841D01*
X193618579Y-83230370D01*
X193621884Y-83222391D01*
X193625044Y-83214762D01*
X193645682Y-83058000D01*
X193625044Y-82901238D01*
X193564536Y-82755159D01*
X193468282Y-82629718D01*
X193342841Y-82533464D01*
X193196762Y-82472956D01*
X193040000Y-82452318D01*
X192883238Y-82472956D01*
X192737159Y-82533464D01*
X192611718Y-82629718D01*
X192515464Y-82755159D01*
X192454956Y-82901238D01*
X192434318Y-83058000D01*
X189327682Y-83058000D01*
X189307044Y-82901238D01*
X189246536Y-82755159D01*
X189150282Y-82629718D01*
X189024841Y-82533464D01*
X188878762Y-82472956D01*
X188722000Y-82452318D01*
X188565238Y-82472956D01*
X188419159Y-82533464D01*
X188293718Y-82629718D01*
X188197464Y-82755159D01*
X188136956Y-82901238D01*
X188116318Y-83058000D01*
X182217733Y-83058000D01*
X182256856Y-82933156D01*
X182259469Y-82920106D01*
X182265334Y-82856279D01*
X182265600Y-82850491D01*
X182265600Y-82618915D01*
X182261125Y-82603676D01*
X182259735Y-82602471D01*
X182252052Y-82600800D01*
X181629715Y-82600800D01*
X181614476Y-82605275D01*
X181613271Y-82606665D01*
X181611600Y-82614348D01*
X181611600Y-83486684D01*
X181103600Y-83486684D01*
X181103600Y-82074685D01*
X181611600Y-82074685D01*
X181616075Y-82089924D01*
X181617465Y-82091129D01*
X181625148Y-82092800D01*
X182247484Y-82092800D01*
X182262723Y-82088325D01*
X182263928Y-82086935D01*
X182265599Y-82079252D01*
X182265599Y-81843095D01*
X182265336Y-81837346D01*
X182259468Y-81773485D01*
X182256857Y-81760449D01*
X182209885Y-81610557D01*
X182203679Y-81596812D01*
X182122776Y-81463226D01*
X182113469Y-81451357D01*
X182003043Y-81340931D01*
X181991174Y-81331624D01*
X181857588Y-81250721D01*
X181843843Y-81244515D01*
X181693956Y-81197544D01*
X181680906Y-81194931D01*
X181626014Y-81189887D01*
X181614476Y-81193275D01*
X181613271Y-81194665D01*
X181611600Y-81202348D01*
X181611600Y-82074685D01*
X181103600Y-82074685D01*
X181103600Y-81206916D01*
X181099125Y-81191677D01*
X181097735Y-81190472D01*
X181093306Y-81189509D01*
X181034285Y-81194932D01*
X181021249Y-81197543D01*
X180871357Y-81244515D01*
X180857612Y-81250721D01*
X180724026Y-81331624D01*
X180712157Y-81340931D01*
X180601731Y-81451357D01*
X180592424Y-81463226D01*
X180559178Y-81518121D01*
X180506780Y-81566027D01*
X180436800Y-81578000D01*
X180403184Y-81569258D01*
X180271991Y-81514916D01*
X180264362Y-81511756D01*
X180107600Y-81491118D01*
X179950838Y-81511756D01*
X179804759Y-81572264D01*
X179679318Y-81668518D01*
X179674295Y-81675064D01*
X179613797Y-81753907D01*
X179583064Y-81793959D01*
X179580399Y-81791914D01*
X179540350Y-81830109D01*
X179470638Y-81843554D01*
X179404724Y-81817175D01*
X179383620Y-81792820D01*
X179382136Y-81793959D01*
X179290905Y-81675064D01*
X179285882Y-81668518D01*
X179160441Y-81572264D01*
X179014362Y-81511756D01*
X178857600Y-81491118D01*
X178700838Y-81511756D01*
X178554759Y-81572264D01*
X178429318Y-81668518D01*
X178424295Y-81675064D01*
X178363797Y-81753907D01*
X178333064Y-81793959D01*
X178330399Y-81791914D01*
X178290350Y-81830109D01*
X178220638Y-81843554D01*
X178154724Y-81817175D01*
X178133620Y-81792820D01*
X178132136Y-81793959D01*
X178040905Y-81675064D01*
X178035882Y-81668518D01*
X177910441Y-81572264D01*
X177764362Y-81511756D01*
X177607600Y-81491118D01*
X177450838Y-81511756D01*
X177304759Y-81572264D01*
X177179318Y-81668518D01*
X177174295Y-81675064D01*
X177113797Y-81753907D01*
X177083064Y-81793959D01*
X177080399Y-81791914D01*
X177040350Y-81830109D01*
X176970638Y-81843554D01*
X176904724Y-81817175D01*
X176883620Y-81792820D01*
X176882136Y-81793959D01*
X176790905Y-81675064D01*
X176785882Y-81668518D01*
X176660441Y-81572264D01*
X176514362Y-81511756D01*
X176357600Y-81491118D01*
X176200838Y-81511756D01*
X176054759Y-81572264D01*
X175929318Y-81668518D01*
X175924295Y-81675064D01*
X175863797Y-81753907D01*
X175833064Y-81793959D01*
X175830399Y-81791914D01*
X175790350Y-81830109D01*
X175720638Y-81843554D01*
X175654724Y-81817175D01*
X175633620Y-81792820D01*
X175632136Y-81793959D01*
X175540905Y-81675064D01*
X175535882Y-81668518D01*
X175410441Y-81572264D01*
X175264362Y-81511756D01*
X175107600Y-81491118D01*
X174950838Y-81511756D01*
X174804759Y-81572264D01*
X174679318Y-81668518D01*
X174674295Y-81675064D01*
X174613797Y-81753907D01*
X174583064Y-81793959D01*
X174580399Y-81791914D01*
X174540350Y-81830109D01*
X174470638Y-81843554D01*
X174404724Y-81817175D01*
X174383620Y-81792820D01*
X174382136Y-81793959D01*
X174290905Y-81675064D01*
X174285882Y-81668518D01*
X174160441Y-81572264D01*
X174014362Y-81511756D01*
X173857600Y-81491118D01*
X173700838Y-81511756D01*
X173554759Y-81572264D01*
X173429318Y-81668518D01*
X173424295Y-81675064D01*
X173363797Y-81753907D01*
X173333064Y-81793959D01*
X173330399Y-81791914D01*
X173290350Y-81830109D01*
X173220638Y-81843554D01*
X173154724Y-81817175D01*
X173133620Y-81792820D01*
X173132136Y-81793959D01*
X173040905Y-81675064D01*
X173035882Y-81668518D01*
X172910441Y-81572264D01*
X172764362Y-81511756D01*
X172607600Y-81491118D01*
X172450838Y-81511756D01*
X172304759Y-81572264D01*
X172179318Y-81668518D01*
X172174295Y-81675064D01*
X172113797Y-81753907D01*
X172083064Y-81793959D01*
X172080399Y-81791914D01*
X172040350Y-81830109D01*
X171970638Y-81843554D01*
X171904724Y-81817175D01*
X171883620Y-81792820D01*
X171882136Y-81793959D01*
X171790905Y-81675064D01*
X171785882Y-81668518D01*
X171660441Y-81572264D01*
X171514362Y-81511756D01*
X171357600Y-81491118D01*
X171200838Y-81511756D01*
X171054759Y-81572264D01*
X170929318Y-81668518D01*
X170924295Y-81675064D01*
X170863797Y-81753907D01*
X170833064Y-81793959D01*
X170830399Y-81791914D01*
X170790350Y-81830109D01*
X170720638Y-81843554D01*
X170654724Y-81817175D01*
X170633620Y-81792820D01*
X170632136Y-81793959D01*
X170540905Y-81675064D01*
X170535882Y-81668518D01*
X170410441Y-81572264D01*
X170264362Y-81511756D01*
X170107600Y-81491118D01*
X169950838Y-81511756D01*
X169804759Y-81572264D01*
X169679318Y-81668518D01*
X169583064Y-81793959D01*
X169522556Y-81940038D01*
X169507100Y-82057439D01*
X169507100Y-82636161D01*
X160553038Y-82636161D01*
X160543120Y-82614348D01*
X160505484Y-82531572D01*
X160438123Y-82453396D01*
X160417760Y-82429763D01*
X160417757Y-82429760D01*
X160411900Y-82422963D01*
X160291595Y-82344985D01*
X160154239Y-82303907D01*
X160145263Y-82303852D01*
X160145262Y-82303852D01*
X160085055Y-82303484D01*
X160010876Y-82303031D01*
X159873029Y-82342428D01*
X159865441Y-82347216D01*
X159865438Y-82347217D01*
X159829506Y-82369889D01*
X159761221Y-82389324D01*
X159693738Y-82369060D01*
X159693717Y-82369047D01*
X159656595Y-82344985D01*
X159519239Y-82303907D01*
X159510263Y-82303852D01*
X159510262Y-82303852D01*
X159450055Y-82303484D01*
X159375876Y-82303031D01*
X159238029Y-82342428D01*
X159230441Y-82347216D01*
X159230438Y-82347217D01*
X159194506Y-82369889D01*
X159126221Y-82389324D01*
X159058738Y-82369060D01*
X159058717Y-82369047D01*
X159021595Y-82344985D01*
X158884239Y-82303907D01*
X158875263Y-82303852D01*
X158875262Y-82303852D01*
X158815055Y-82303484D01*
X158740876Y-82303031D01*
X158603029Y-82342428D01*
X158595441Y-82347216D01*
X158595438Y-82347217D01*
X158559506Y-82369889D01*
X158491221Y-82389324D01*
X158423738Y-82369060D01*
X158423717Y-82369047D01*
X158386595Y-82344985D01*
X158249239Y-82303907D01*
X158240263Y-82303852D01*
X158240262Y-82303852D01*
X158180055Y-82303484D01*
X158105876Y-82303031D01*
X157968029Y-82342428D01*
X157846780Y-82418930D01*
X157751877Y-82526388D01*
X157690947Y-82656163D01*
X157689566Y-82665035D01*
X157674346Y-82762789D01*
X157668891Y-82797823D01*
X148414999Y-82797823D01*
X148414999Y-81084413D01*
X158693023Y-81084413D01*
X158694187Y-81093315D01*
X158694187Y-81093318D01*
X158702318Y-81155491D01*
X158711612Y-81226569D01*
X158721228Y-81248423D01*
X158761933Y-81340931D01*
X158769352Y-81357793D01*
X158775129Y-81364666D01*
X158775130Y-81364667D01*
X158782424Y-81373344D01*
X158861602Y-81467538D01*
X158980945Y-81546980D01*
X159117789Y-81589732D01*
X159126761Y-81589896D01*
X159126764Y-81589897D01*
X159192095Y-81591094D01*
X159261131Y-81592360D01*
X159270165Y-81589897D01*
X159390790Y-81557011D01*
X159390792Y-81557010D01*
X159399449Y-81554650D01*
X159521623Y-81479635D01*
X159617832Y-81373344D01*
X159667054Y-81271749D01*
X159676427Y-81252404D01*
X159676427Y-81252403D01*
X159678355Y-81248423D01*
X164213391Y-81248423D01*
X164214555Y-81257325D01*
X164214555Y-81257328D01*
X164215814Y-81266954D01*
X164231980Y-81390579D01*
X164289720Y-81521803D01*
X164295497Y-81528676D01*
X164295498Y-81528677D01*
X164329610Y-81569258D01*
X164381970Y-81631548D01*
X164501313Y-81710990D01*
X164638157Y-81753742D01*
X164647129Y-81753906D01*
X164647132Y-81753907D01*
X164712463Y-81755104D01*
X164781499Y-81756370D01*
X164790533Y-81753907D01*
X164911158Y-81721021D01*
X164911160Y-81721020D01*
X164919817Y-81718660D01*
X165041991Y-81643645D01*
X165088412Y-81592360D01*
X165112247Y-81566027D01*
X165138200Y-81537354D01*
X165200710Y-81408333D01*
X165224496Y-81266954D01*
X165224647Y-81254600D01*
X165215463Y-81190472D01*
X165205596Y-81121568D01*
X165205595Y-81121565D01*
X165204323Y-81112682D01*
X165199896Y-81102944D01*
X165148700Y-80990346D01*
X165144984Y-80982172D01*
X165118663Y-80951625D01*
X165057260Y-80880363D01*
X165057257Y-80880360D01*
X165051400Y-80873563D01*
X164931095Y-80795585D01*
X164793739Y-80754507D01*
X164784763Y-80754452D01*
X164784762Y-80754452D01*
X164724555Y-80754084D01*
X164650376Y-80753631D01*
X164512529Y-80793028D01*
X164391280Y-80869530D01*
X164296377Y-80976988D01*
X164235447Y-81106763D01*
X164234066Y-81115635D01*
X164215408Y-81235471D01*
X164213391Y-81248423D01*
X159678355Y-81248423D01*
X159680342Y-81244323D01*
X159704128Y-81102944D01*
X159704279Y-81090590D01*
X159688010Y-80976988D01*
X159685228Y-80957558D01*
X159685227Y-80957555D01*
X159683955Y-80948672D01*
X159624616Y-80818162D01*
X159577350Y-80763307D01*
X159536892Y-80716353D01*
X159536889Y-80716350D01*
X159531032Y-80709553D01*
X159410727Y-80631575D01*
X159273371Y-80590497D01*
X159264395Y-80590442D01*
X159264394Y-80590442D01*
X159204187Y-80590074D01*
X159130008Y-80589621D01*
X158992161Y-80629018D01*
X158870912Y-80705520D01*
X158776009Y-80812978D01*
X158715079Y-80942753D01*
X158693023Y-81084413D01*
X148414999Y-81084413D01*
X148415000Y-79902223D01*
X164187991Y-79902223D01*
X164189155Y-79911125D01*
X164189155Y-79911128D01*
X164190414Y-79920754D01*
X164206580Y-80044379D01*
X164210197Y-80052599D01*
X164242070Y-80125035D01*
X164264320Y-80175603D01*
X164270097Y-80182476D01*
X164270098Y-80182477D01*
X164344924Y-80271493D01*
X164356570Y-80285348D01*
X164475913Y-80364790D01*
X164612757Y-80407542D01*
X164621729Y-80407706D01*
X164621732Y-80407707D01*
X164687063Y-80408904D01*
X164756099Y-80410170D01*
X164765133Y-80407707D01*
X164885758Y-80374821D01*
X164885760Y-80374820D01*
X164894417Y-80372460D01*
X165016591Y-80297445D01*
X165035682Y-80276354D01*
X165052455Y-80257823D01*
X169166391Y-80257823D01*
X169167555Y-80266725D01*
X169167555Y-80266728D01*
X169168814Y-80276354D01*
X169184980Y-80399979D01*
X169242720Y-80531203D01*
X169248497Y-80538076D01*
X169248498Y-80538077D01*
X169293899Y-80592088D01*
X169334970Y-80640948D01*
X169454313Y-80720390D01*
X169591157Y-80763142D01*
X169600129Y-80763306D01*
X169600132Y-80763307D01*
X169665463Y-80764504D01*
X169734499Y-80765770D01*
X169743533Y-80763307D01*
X169864158Y-80730421D01*
X169864160Y-80730420D01*
X169872817Y-80728060D01*
X169994991Y-80653045D01*
X170016754Y-80629002D01*
X170085178Y-80553407D01*
X170091200Y-80546754D01*
X170153710Y-80417733D01*
X170177496Y-80276354D01*
X170177647Y-80264000D01*
X170176762Y-80257823D01*
X170436391Y-80257823D01*
X170437555Y-80266725D01*
X170437555Y-80266728D01*
X170438814Y-80276354D01*
X170454980Y-80399979D01*
X170512720Y-80531203D01*
X170518497Y-80538076D01*
X170518498Y-80538077D01*
X170563899Y-80592088D01*
X170604970Y-80640948D01*
X170724313Y-80720390D01*
X170861157Y-80763142D01*
X170870129Y-80763306D01*
X170870132Y-80763307D01*
X170935463Y-80764504D01*
X171004499Y-80765770D01*
X171013533Y-80763307D01*
X171134158Y-80730421D01*
X171134160Y-80730420D01*
X171142817Y-80728060D01*
X171264991Y-80653045D01*
X171286754Y-80629002D01*
X171355178Y-80553407D01*
X171361200Y-80546754D01*
X171423710Y-80417733D01*
X171447496Y-80276354D01*
X171447647Y-80264000D01*
X171446762Y-80257823D01*
X171706391Y-80257823D01*
X171707555Y-80266725D01*
X171707555Y-80266728D01*
X171708814Y-80276354D01*
X171724980Y-80399979D01*
X171782720Y-80531203D01*
X171788497Y-80538076D01*
X171788498Y-80538077D01*
X171833899Y-80592088D01*
X171874970Y-80640948D01*
X171994313Y-80720390D01*
X172131157Y-80763142D01*
X172140129Y-80763306D01*
X172140132Y-80763307D01*
X172205463Y-80764504D01*
X172274499Y-80765770D01*
X172283533Y-80763307D01*
X172404158Y-80730421D01*
X172404160Y-80730420D01*
X172412817Y-80728060D01*
X172534991Y-80653045D01*
X172556754Y-80629002D01*
X172625178Y-80553407D01*
X172631200Y-80546754D01*
X172693710Y-80417733D01*
X172717496Y-80276354D01*
X172717647Y-80264000D01*
X172716762Y-80257823D01*
X172976391Y-80257823D01*
X172977555Y-80266725D01*
X172977555Y-80266728D01*
X172978814Y-80276354D01*
X172994980Y-80399979D01*
X173052720Y-80531203D01*
X173058497Y-80538076D01*
X173058498Y-80538077D01*
X173103899Y-80592088D01*
X173144970Y-80640948D01*
X173264313Y-80720390D01*
X173401157Y-80763142D01*
X173410129Y-80763306D01*
X173410132Y-80763307D01*
X173475463Y-80764504D01*
X173544499Y-80765770D01*
X173553533Y-80763307D01*
X173674158Y-80730421D01*
X173674160Y-80730420D01*
X173682817Y-80728060D01*
X173804991Y-80653045D01*
X173826754Y-80629002D01*
X173895178Y-80553407D01*
X173901200Y-80546754D01*
X173963710Y-80417733D01*
X173987496Y-80276354D01*
X173987647Y-80264000D01*
X173986762Y-80257823D01*
X174246391Y-80257823D01*
X174247555Y-80266725D01*
X174247555Y-80266728D01*
X174248814Y-80276354D01*
X174264980Y-80399979D01*
X174322720Y-80531203D01*
X174328497Y-80538076D01*
X174328498Y-80538077D01*
X174373899Y-80592088D01*
X174414970Y-80640948D01*
X174534313Y-80720390D01*
X174671157Y-80763142D01*
X174680129Y-80763306D01*
X174680132Y-80763307D01*
X174745463Y-80764504D01*
X174814499Y-80765770D01*
X174823533Y-80763307D01*
X174944158Y-80730421D01*
X174944160Y-80730420D01*
X174952817Y-80728060D01*
X175074991Y-80653045D01*
X175096754Y-80629002D01*
X175165178Y-80553407D01*
X175171200Y-80546754D01*
X175233710Y-80417733D01*
X175257496Y-80276354D01*
X175257647Y-80264000D01*
X175256762Y-80257823D01*
X175643391Y-80257823D01*
X175644555Y-80266725D01*
X175644555Y-80266728D01*
X175645814Y-80276354D01*
X175661980Y-80399979D01*
X175719720Y-80531203D01*
X175725497Y-80538076D01*
X175725498Y-80538077D01*
X175770899Y-80592088D01*
X175811970Y-80640948D01*
X175931313Y-80720390D01*
X176068157Y-80763142D01*
X176077129Y-80763306D01*
X176077132Y-80763307D01*
X176142463Y-80764504D01*
X176211499Y-80765770D01*
X176220533Y-80763307D01*
X176341158Y-80730421D01*
X176341160Y-80730420D01*
X176349817Y-80728060D01*
X176471991Y-80653045D01*
X176493754Y-80629002D01*
X176562178Y-80553407D01*
X176568200Y-80546754D01*
X176630710Y-80417733D01*
X176654496Y-80276354D01*
X176654647Y-80264000D01*
X176653762Y-80257823D01*
X176913391Y-80257823D01*
X176914555Y-80266725D01*
X176914555Y-80266728D01*
X176915814Y-80276354D01*
X176931980Y-80399979D01*
X176989720Y-80531203D01*
X176995497Y-80538076D01*
X176995498Y-80538077D01*
X177040899Y-80592088D01*
X177081970Y-80640948D01*
X177201313Y-80720390D01*
X177338157Y-80763142D01*
X177347129Y-80763306D01*
X177347132Y-80763307D01*
X177412463Y-80764504D01*
X177481499Y-80765770D01*
X177490533Y-80763307D01*
X177611158Y-80730421D01*
X177611160Y-80730420D01*
X177619817Y-80728060D01*
X177741991Y-80653045D01*
X177763754Y-80629002D01*
X177832178Y-80553407D01*
X177838200Y-80546754D01*
X177900710Y-80417733D01*
X177924496Y-80276354D01*
X177924647Y-80264000D01*
X177923762Y-80257823D01*
X178183391Y-80257823D01*
X178184555Y-80266725D01*
X178184555Y-80266728D01*
X178185814Y-80276354D01*
X178201980Y-80399979D01*
X178259720Y-80531203D01*
X178265497Y-80538076D01*
X178265498Y-80538077D01*
X178310899Y-80592088D01*
X178351970Y-80640948D01*
X178471313Y-80720390D01*
X178608157Y-80763142D01*
X178617129Y-80763306D01*
X178617132Y-80763307D01*
X178682463Y-80764504D01*
X178751499Y-80765770D01*
X178760533Y-80763307D01*
X178881158Y-80730421D01*
X178881160Y-80730420D01*
X178889817Y-80728060D01*
X179011991Y-80653045D01*
X179033754Y-80629002D01*
X179102178Y-80553407D01*
X179108200Y-80546754D01*
X179170710Y-80417733D01*
X179194496Y-80276354D01*
X179194647Y-80264000D01*
X179174323Y-80122082D01*
X179114984Y-79991572D01*
X179086829Y-79958897D01*
X179027260Y-79889763D01*
X179027257Y-79889760D01*
X179021400Y-79882963D01*
X178901095Y-79804985D01*
X178763739Y-79763907D01*
X178754763Y-79763852D01*
X178754762Y-79763852D01*
X178694555Y-79763484D01*
X178620376Y-79763031D01*
X178482529Y-79802428D01*
X178361280Y-79878930D01*
X178266377Y-79986388D01*
X178205447Y-80116163D01*
X178183391Y-80257823D01*
X177923762Y-80257823D01*
X177904323Y-80122082D01*
X177844984Y-79991572D01*
X177816829Y-79958897D01*
X177757260Y-79889763D01*
X177757257Y-79889760D01*
X177751400Y-79882963D01*
X177631095Y-79804985D01*
X177493739Y-79763907D01*
X177484763Y-79763852D01*
X177484762Y-79763852D01*
X177424555Y-79763484D01*
X177350376Y-79763031D01*
X177212529Y-79802428D01*
X177091280Y-79878930D01*
X176996377Y-79986388D01*
X176935447Y-80116163D01*
X176913391Y-80257823D01*
X176653762Y-80257823D01*
X176634323Y-80122082D01*
X176574984Y-79991572D01*
X176546829Y-79958897D01*
X176487260Y-79889763D01*
X176487257Y-79889760D01*
X176481400Y-79882963D01*
X176361095Y-79804985D01*
X176223739Y-79763907D01*
X176214763Y-79763852D01*
X176214762Y-79763852D01*
X176154555Y-79763484D01*
X176080376Y-79763031D01*
X175942529Y-79802428D01*
X175821280Y-79878930D01*
X175726377Y-79986388D01*
X175665447Y-80116163D01*
X175643391Y-80257823D01*
X175256762Y-80257823D01*
X175237323Y-80122082D01*
X175177984Y-79991572D01*
X175149829Y-79958897D01*
X175090260Y-79889763D01*
X175090257Y-79889760D01*
X175084400Y-79882963D01*
X174964095Y-79804985D01*
X174826739Y-79763907D01*
X174817763Y-79763852D01*
X174817762Y-79763852D01*
X174757555Y-79763484D01*
X174683376Y-79763031D01*
X174545529Y-79802428D01*
X174424280Y-79878930D01*
X174329377Y-79986388D01*
X174268447Y-80116163D01*
X174246391Y-80257823D01*
X173986762Y-80257823D01*
X173967323Y-80122082D01*
X173907984Y-79991572D01*
X173879829Y-79958897D01*
X173820260Y-79889763D01*
X173820257Y-79889760D01*
X173814400Y-79882963D01*
X173694095Y-79804985D01*
X173556739Y-79763907D01*
X173547763Y-79763852D01*
X173547762Y-79763852D01*
X173487555Y-79763484D01*
X173413376Y-79763031D01*
X173275529Y-79802428D01*
X173154280Y-79878930D01*
X173059377Y-79986388D01*
X172998447Y-80116163D01*
X172976391Y-80257823D01*
X172716762Y-80257823D01*
X172697323Y-80122082D01*
X172637984Y-79991572D01*
X172609829Y-79958897D01*
X172550260Y-79889763D01*
X172550257Y-79889760D01*
X172544400Y-79882963D01*
X172424095Y-79804985D01*
X172286739Y-79763907D01*
X172277763Y-79763852D01*
X172277762Y-79763852D01*
X172217555Y-79763484D01*
X172143376Y-79763031D01*
X172005529Y-79802428D01*
X171884280Y-79878930D01*
X171789377Y-79986388D01*
X171728447Y-80116163D01*
X171706391Y-80257823D01*
X171446762Y-80257823D01*
X171427323Y-80122082D01*
X171367984Y-79991572D01*
X171339829Y-79958897D01*
X171280260Y-79889763D01*
X171280257Y-79889760D01*
X171274400Y-79882963D01*
X171154095Y-79804985D01*
X171016739Y-79763907D01*
X171007763Y-79763852D01*
X171007762Y-79763852D01*
X170947555Y-79763484D01*
X170873376Y-79763031D01*
X170735529Y-79802428D01*
X170614280Y-79878930D01*
X170519377Y-79986388D01*
X170458447Y-80116163D01*
X170436391Y-80257823D01*
X170176762Y-80257823D01*
X170157323Y-80122082D01*
X170097984Y-79991572D01*
X170069829Y-79958897D01*
X170010260Y-79889763D01*
X170010257Y-79889760D01*
X170004400Y-79882963D01*
X169884095Y-79804985D01*
X169746739Y-79763907D01*
X169737763Y-79763852D01*
X169737762Y-79763852D01*
X169677555Y-79763484D01*
X169603376Y-79763031D01*
X169465529Y-79802428D01*
X169344280Y-79878930D01*
X169249377Y-79986388D01*
X169188447Y-80116163D01*
X169166391Y-80257823D01*
X165052455Y-80257823D01*
X165106778Y-80197807D01*
X165112800Y-80191154D01*
X165175310Y-80062133D01*
X165199096Y-79920754D01*
X165199247Y-79908400D01*
X165178923Y-79766482D01*
X165119584Y-79635972D01*
X165101198Y-79614634D01*
X165031860Y-79534163D01*
X165031857Y-79534160D01*
X165026000Y-79527363D01*
X164905695Y-79449385D01*
X164768339Y-79408307D01*
X164759363Y-79408252D01*
X164759362Y-79408252D01*
X164699155Y-79407884D01*
X164624976Y-79407431D01*
X164487129Y-79446828D01*
X164365880Y-79523330D01*
X164270977Y-79630788D01*
X164210047Y-79760563D01*
X164208666Y-79769435D01*
X164190990Y-79882963D01*
X164187991Y-79902223D01*
X148415000Y-79902223D01*
X148415000Y-78860823D01*
X160276391Y-78860823D01*
X160277555Y-78869725D01*
X160277555Y-78869728D01*
X160278814Y-78879354D01*
X160294980Y-79002979D01*
X160352720Y-79134203D01*
X160358497Y-79141076D01*
X160358498Y-79141077D01*
X160365792Y-79149754D01*
X160444970Y-79243948D01*
X160564313Y-79323390D01*
X160701157Y-79366142D01*
X160710129Y-79366306D01*
X160710132Y-79366307D01*
X160775463Y-79367504D01*
X160844499Y-79368770D01*
X160853533Y-79366307D01*
X160974158Y-79333421D01*
X160974160Y-79333420D01*
X160982817Y-79331060D01*
X161073867Y-79275155D01*
X188604500Y-79275155D01*
X188619454Y-79408472D01*
X188678515Y-79578073D01*
X188682248Y-79584047D01*
X188682249Y-79584049D01*
X188716533Y-79638914D01*
X188773684Y-79730375D01*
X188818364Y-79775368D01*
X188895267Y-79852810D01*
X188895271Y-79852813D01*
X188900230Y-79857807D01*
X188906176Y-79861581D01*
X188906178Y-79861582D01*
X188956237Y-79893350D01*
X189051864Y-79954037D01*
X189071890Y-79961168D01*
X189214414Y-80011919D01*
X189214419Y-80011920D01*
X189221049Y-80014281D01*
X189228035Y-80015114D01*
X189228039Y-80015115D01*
X189354727Y-80030221D01*
X189399376Y-80035545D01*
X189406379Y-80034809D01*
X189406380Y-80034809D01*
X189570975Y-80017510D01*
X189570979Y-80017509D01*
X189577983Y-80016773D01*
X189669104Y-79985753D01*
X189741323Y-79961168D01*
X189741326Y-79961167D01*
X189747993Y-79958897D01*
X189762036Y-79950258D01*
X189854538Y-79893350D01*
X189900955Y-79864794D01*
X189905986Y-79859868D01*
X189905989Y-79859865D01*
X189992274Y-79775368D01*
X190029268Y-79739141D01*
X190034918Y-79730375D01*
X190122735Y-79594109D01*
X190126554Y-79588183D01*
X190147710Y-79530059D01*
X190185570Y-79426039D01*
X190185571Y-79426036D01*
X190187978Y-79419422D01*
X190205500Y-79280717D01*
X190205500Y-79275155D01*
X190604500Y-79275155D01*
X190619454Y-79408472D01*
X190678515Y-79578073D01*
X190682248Y-79584047D01*
X190682249Y-79584049D01*
X190716533Y-79638914D01*
X190773684Y-79730375D01*
X190818364Y-79775368D01*
X190895267Y-79852810D01*
X190895271Y-79852813D01*
X190900230Y-79857807D01*
X190906176Y-79861581D01*
X190906178Y-79861582D01*
X190956237Y-79893350D01*
X191051864Y-79954037D01*
X191071890Y-79961168D01*
X191214414Y-80011919D01*
X191214419Y-80011920D01*
X191221049Y-80014281D01*
X191228035Y-80015114D01*
X191228039Y-80015115D01*
X191354727Y-80030221D01*
X191399376Y-80035545D01*
X191406379Y-80034809D01*
X191406380Y-80034809D01*
X191570975Y-80017510D01*
X191570979Y-80017509D01*
X191577983Y-80016773D01*
X191669104Y-79985753D01*
X191741323Y-79961168D01*
X191741326Y-79961167D01*
X191747993Y-79958897D01*
X191762036Y-79950258D01*
X191854538Y-79893350D01*
X191900955Y-79864794D01*
X191905986Y-79859868D01*
X191905989Y-79859865D01*
X191992274Y-79775368D01*
X192029268Y-79739141D01*
X192034918Y-79730375D01*
X192122735Y-79594109D01*
X192126554Y-79588183D01*
X192147710Y-79530059D01*
X192185570Y-79426039D01*
X192185571Y-79426036D01*
X192187978Y-79419422D01*
X192205500Y-79280717D01*
X192205500Y-79275155D01*
X192604500Y-79275155D01*
X192619454Y-79408472D01*
X192678515Y-79578073D01*
X192682248Y-79584047D01*
X192682249Y-79584049D01*
X192716533Y-79638914D01*
X192773684Y-79730375D01*
X192818364Y-79775368D01*
X192895267Y-79852810D01*
X192895271Y-79852813D01*
X192900230Y-79857807D01*
X192906176Y-79861581D01*
X192906178Y-79861582D01*
X192956237Y-79893350D01*
X193051864Y-79954037D01*
X193071890Y-79961168D01*
X193214414Y-80011919D01*
X193214419Y-80011920D01*
X193221049Y-80014281D01*
X193228035Y-80015114D01*
X193228039Y-80015115D01*
X193354727Y-80030221D01*
X193399376Y-80035545D01*
X193406379Y-80034809D01*
X193406380Y-80034809D01*
X193570975Y-80017510D01*
X193570979Y-80017509D01*
X193577983Y-80016773D01*
X193669104Y-79985753D01*
X193741323Y-79961168D01*
X193741326Y-79961167D01*
X193747993Y-79958897D01*
X193762036Y-79950258D01*
X193854538Y-79893350D01*
X193900955Y-79864794D01*
X193905986Y-79859868D01*
X193905989Y-79859865D01*
X193992274Y-79775368D01*
X194029268Y-79739141D01*
X194034918Y-79730375D01*
X194097134Y-79633834D01*
X194604500Y-79633834D01*
X194607481Y-79665369D01*
X194652366Y-79793184D01*
X194657958Y-79800754D01*
X194657959Y-79800757D01*
X194715699Y-79878930D01*
X194732850Y-79902150D01*
X194740421Y-79907742D01*
X194834243Y-79977041D01*
X194834246Y-79977042D01*
X194841816Y-79982634D01*
X194969631Y-80027519D01*
X194977277Y-80028242D01*
X194977278Y-80028242D01*
X194983248Y-80028806D01*
X195001166Y-80030500D01*
X195808834Y-80030500D01*
X195826752Y-80028806D01*
X195832722Y-80028242D01*
X195832723Y-80028242D01*
X195840369Y-80027519D01*
X195968184Y-79982634D01*
X195975754Y-79977042D01*
X195975757Y-79977041D01*
X196069579Y-79907742D01*
X196077150Y-79902150D01*
X196094301Y-79878930D01*
X196152041Y-79800757D01*
X196152042Y-79800754D01*
X196157634Y-79793184D01*
X196202519Y-79665369D01*
X196205500Y-79633834D01*
X196205500Y-78226166D01*
X196202519Y-78194631D01*
X196157634Y-78066816D01*
X196152042Y-78059246D01*
X196152041Y-78059243D01*
X196082742Y-77965421D01*
X196077150Y-77957850D01*
X196012864Y-77910367D01*
X195975757Y-77882959D01*
X195975754Y-77882958D01*
X195968184Y-77877366D01*
X195840369Y-77832481D01*
X195832723Y-77831758D01*
X195832722Y-77831758D01*
X195826752Y-77831194D01*
X195808834Y-77829500D01*
X195001166Y-77829500D01*
X194983248Y-77831194D01*
X194977278Y-77831758D01*
X194977277Y-77831758D01*
X194969631Y-77832481D01*
X194841816Y-77877366D01*
X194834246Y-77882958D01*
X194834243Y-77882959D01*
X194797136Y-77910367D01*
X194732850Y-77957850D01*
X194727258Y-77965421D01*
X194657959Y-78059243D01*
X194657958Y-78059246D01*
X194652366Y-78066816D01*
X194607481Y-78194631D01*
X194604500Y-78226166D01*
X194604500Y-79633834D01*
X194097134Y-79633834D01*
X194122735Y-79594109D01*
X194126554Y-79588183D01*
X194147710Y-79530059D01*
X194185570Y-79426039D01*
X194185571Y-79426036D01*
X194187978Y-79419422D01*
X194205500Y-79280717D01*
X194205500Y-78584845D01*
X194190546Y-78451528D01*
X194131485Y-78281927D01*
X194094800Y-78223218D01*
X194040049Y-78135599D01*
X194036316Y-78129625D01*
X193942064Y-78034713D01*
X193914733Y-78007190D01*
X193914729Y-78007187D01*
X193909770Y-78002193D01*
X193898761Y-77995206D01*
X193787799Y-77924788D01*
X193758136Y-77905963D01*
X193728352Y-77895357D01*
X193595586Y-77848081D01*
X193595581Y-77848080D01*
X193588951Y-77845719D01*
X193581965Y-77844886D01*
X193581961Y-77844885D01*
X193452933Y-77829500D01*
X193410624Y-77824455D01*
X193403621Y-77825191D01*
X193403620Y-77825191D01*
X193239025Y-77842490D01*
X193239021Y-77842491D01*
X193232017Y-77843227D01*
X193225346Y-77845498D01*
X193068677Y-77898832D01*
X193068674Y-77898833D01*
X193062007Y-77901103D01*
X193056009Y-77904793D01*
X193056007Y-77904794D01*
X192985526Y-77948154D01*
X192909045Y-77995206D01*
X192904014Y-78000132D01*
X192904011Y-78000135D01*
X192859608Y-78043618D01*
X192780732Y-78120859D01*
X192776913Y-78126784D01*
X192776912Y-78126786D01*
X192696168Y-78252077D01*
X192683446Y-78271817D01*
X192681037Y-78278437D01*
X192681035Y-78278440D01*
X192624430Y-78433961D01*
X192622022Y-78440578D01*
X192604500Y-78579283D01*
X192604500Y-79275155D01*
X192205500Y-79275155D01*
X192205500Y-78584845D01*
X192190546Y-78451528D01*
X192131485Y-78281927D01*
X192094800Y-78223218D01*
X192040049Y-78135599D01*
X192036316Y-78129625D01*
X191942064Y-78034713D01*
X191914733Y-78007190D01*
X191914729Y-78007187D01*
X191909770Y-78002193D01*
X191898761Y-77995206D01*
X191787799Y-77924788D01*
X191758136Y-77905963D01*
X191728352Y-77895357D01*
X191595586Y-77848081D01*
X191595581Y-77848080D01*
X191588951Y-77845719D01*
X191581965Y-77844886D01*
X191581961Y-77844885D01*
X191452933Y-77829500D01*
X191410624Y-77824455D01*
X191403621Y-77825191D01*
X191403620Y-77825191D01*
X191239025Y-77842490D01*
X191239021Y-77842491D01*
X191232017Y-77843227D01*
X191225346Y-77845498D01*
X191068677Y-77898832D01*
X191068674Y-77898833D01*
X191062007Y-77901103D01*
X191056009Y-77904793D01*
X191056007Y-77904794D01*
X190985526Y-77948154D01*
X190909045Y-77995206D01*
X190904014Y-78000132D01*
X190904011Y-78000135D01*
X190859608Y-78043618D01*
X190780732Y-78120859D01*
X190776913Y-78126784D01*
X190776912Y-78126786D01*
X190696168Y-78252077D01*
X190683446Y-78271817D01*
X190681037Y-78278437D01*
X190681035Y-78278440D01*
X190624430Y-78433961D01*
X190622022Y-78440578D01*
X190604500Y-78579283D01*
X190604500Y-79275155D01*
X190205500Y-79275155D01*
X190205500Y-78584845D01*
X190190546Y-78451528D01*
X190131485Y-78281927D01*
X190094800Y-78223218D01*
X190040049Y-78135599D01*
X190036316Y-78129625D01*
X189942064Y-78034713D01*
X189914733Y-78007190D01*
X189914729Y-78007187D01*
X189909770Y-78002193D01*
X189898761Y-77995206D01*
X189787799Y-77924788D01*
X189758136Y-77905963D01*
X189728352Y-77895357D01*
X189595586Y-77848081D01*
X189595581Y-77848080D01*
X189588951Y-77845719D01*
X189581965Y-77844886D01*
X189581961Y-77844885D01*
X189452933Y-77829500D01*
X189410624Y-77824455D01*
X189403621Y-77825191D01*
X189403620Y-77825191D01*
X189239025Y-77842490D01*
X189239021Y-77842491D01*
X189232017Y-77843227D01*
X189225346Y-77845498D01*
X189068677Y-77898832D01*
X189068674Y-77898833D01*
X189062007Y-77901103D01*
X189056009Y-77904793D01*
X189056007Y-77904794D01*
X188985526Y-77948154D01*
X188909045Y-77995206D01*
X188904014Y-78000132D01*
X188904011Y-78000135D01*
X188859608Y-78043618D01*
X188780732Y-78120859D01*
X188776913Y-78126784D01*
X188776912Y-78126786D01*
X188696168Y-78252077D01*
X188683446Y-78271817D01*
X188681037Y-78278437D01*
X188681035Y-78278440D01*
X188624430Y-78433961D01*
X188622022Y-78440578D01*
X188604500Y-78579283D01*
X188604500Y-79275155D01*
X161073867Y-79275155D01*
X161104991Y-79256045D01*
X161201200Y-79149754D01*
X161263710Y-79020733D01*
X161287496Y-78879354D01*
X161287647Y-78867000D01*
X161267323Y-78725082D01*
X161207984Y-78594572D01*
X161189598Y-78573234D01*
X161120260Y-78492763D01*
X161120257Y-78492760D01*
X161114400Y-78485963D01*
X160994095Y-78407985D01*
X160856739Y-78366907D01*
X160847763Y-78366852D01*
X160847762Y-78366852D01*
X160787555Y-78366484D01*
X160713376Y-78366031D01*
X160575529Y-78405428D01*
X160454280Y-78481930D01*
X160359377Y-78589388D01*
X160298447Y-78719163D01*
X160276391Y-78860823D01*
X148415000Y-78860823D01*
X148415000Y-77971823D01*
X168296091Y-77971823D01*
X168297255Y-77980725D01*
X168297255Y-77980728D01*
X168304315Y-78034713D01*
X168314680Y-78113979D01*
X168341460Y-78174842D01*
X168364044Y-78226166D01*
X168372420Y-78245203D01*
X168378197Y-78252076D01*
X168378198Y-78252077D01*
X168458890Y-78348072D01*
X168464670Y-78354948D01*
X168489898Y-78371741D01*
X168542937Y-78407047D01*
X168584013Y-78434390D01*
X168720857Y-78477142D01*
X168729829Y-78477306D01*
X168729832Y-78477307D01*
X168795163Y-78478504D01*
X168864199Y-78479770D01*
X168873233Y-78477307D01*
X168993858Y-78444421D01*
X168993860Y-78444420D01*
X169002517Y-78442060D01*
X169124691Y-78367045D01*
X169184128Y-78301380D01*
X169214878Y-78267407D01*
X169220900Y-78260754D01*
X169258903Y-78182316D01*
X169279495Y-78139814D01*
X169279495Y-78139813D01*
X169283410Y-78131733D01*
X169307196Y-77990354D01*
X169307347Y-77978000D01*
X169298344Y-77915132D01*
X169296386Y-77901462D01*
X179084930Y-77901462D01*
X179086094Y-77910364D01*
X179086094Y-77910367D01*
X179092970Y-77962950D01*
X179103519Y-78043618D01*
X179107136Y-78051838D01*
X179138096Y-78122199D01*
X179161259Y-78174842D01*
X179167036Y-78181715D01*
X179167037Y-78181716D01*
X179226686Y-78252677D01*
X179253509Y-78284587D01*
X179372852Y-78364029D01*
X179509696Y-78406781D01*
X179518668Y-78406945D01*
X179518671Y-78406946D01*
X179584002Y-78408143D01*
X179653038Y-78409409D01*
X179662072Y-78406946D01*
X179782697Y-78374060D01*
X179782699Y-78374059D01*
X179791356Y-78371699D01*
X179913530Y-78296684D01*
X179932297Y-78275951D01*
X180003717Y-78197046D01*
X180009739Y-78190393D01*
X180072249Y-78061372D01*
X180096035Y-77919993D01*
X180096186Y-77907639D01*
X180084996Y-77829500D01*
X180077135Y-77774607D01*
X180077134Y-77774604D01*
X180075862Y-77765721D01*
X180016523Y-77635211D01*
X179954222Y-77562907D01*
X179928799Y-77533402D01*
X179928796Y-77533399D01*
X179922939Y-77526602D01*
X179802634Y-77448624D01*
X179665278Y-77407546D01*
X179656302Y-77407491D01*
X179656301Y-77407491D01*
X179596094Y-77407123D01*
X179521915Y-77406670D01*
X179384068Y-77446067D01*
X179262819Y-77522569D01*
X179256877Y-77529297D01*
X179256876Y-77529298D01*
X179253252Y-77533402D01*
X179167916Y-77630027D01*
X179106986Y-77759802D01*
X179097749Y-77819129D01*
X179087811Y-77882959D01*
X179084930Y-77901462D01*
X169296386Y-77901462D01*
X169288296Y-77844968D01*
X169288295Y-77844965D01*
X169287023Y-77836082D01*
X169227684Y-77705572D01*
X169161195Y-77628408D01*
X169139960Y-77603763D01*
X169139957Y-77603760D01*
X169134100Y-77596963D01*
X169013795Y-77518985D01*
X168876439Y-77477907D01*
X168867463Y-77477852D01*
X168867462Y-77477852D01*
X168807255Y-77477484D01*
X168733076Y-77477031D01*
X168595229Y-77516428D01*
X168473980Y-77592930D01*
X168379077Y-77700388D01*
X168318147Y-77830163D01*
X168311283Y-77874247D01*
X168298267Y-77957850D01*
X168296091Y-77971823D01*
X148415000Y-77971823D01*
X148415000Y-77057423D01*
X151183191Y-77057423D01*
X151184355Y-77066325D01*
X151184355Y-77066328D01*
X151185295Y-77073514D01*
X151201780Y-77199579D01*
X151259520Y-77330803D01*
X151265297Y-77337676D01*
X151265298Y-77337677D01*
X151272066Y-77345728D01*
X151351770Y-77440548D01*
X151376998Y-77457341D01*
X151448315Y-77504814D01*
X151471113Y-77519990D01*
X151479688Y-77522669D01*
X151492277Y-77526602D01*
X151607957Y-77562742D01*
X151616929Y-77562906D01*
X151616932Y-77562907D01*
X151682263Y-77564104D01*
X151751299Y-77565370D01*
X151760333Y-77562907D01*
X151880958Y-77530021D01*
X151880960Y-77530020D01*
X151889617Y-77527660D01*
X152011791Y-77452645D01*
X152108000Y-77346354D01*
X152112618Y-77336823D01*
X161419391Y-77336823D01*
X161420555Y-77345725D01*
X161420555Y-77345728D01*
X161421507Y-77353007D01*
X161437980Y-77478979D01*
X161441597Y-77487199D01*
X161491081Y-77599659D01*
X161495720Y-77610203D01*
X161501497Y-77617076D01*
X161501498Y-77617077D01*
X161506727Y-77623298D01*
X161587970Y-77719948D01*
X161707313Y-77799390D01*
X161844157Y-77842142D01*
X161853129Y-77842306D01*
X161853132Y-77842307D01*
X161918463Y-77843504D01*
X161987499Y-77844770D01*
X161996533Y-77842307D01*
X162117158Y-77809421D01*
X162117160Y-77809420D01*
X162125817Y-77807060D01*
X162247991Y-77732045D01*
X162344200Y-77625754D01*
X162390582Y-77530021D01*
X162402795Y-77504814D01*
X162402795Y-77504813D01*
X162406710Y-77496733D01*
X162430496Y-77355354D01*
X162430647Y-77343000D01*
X162413808Y-77225414D01*
X162411596Y-77209968D01*
X162411595Y-77209965D01*
X162410323Y-77201082D01*
X162350984Y-77070572D01*
X162332009Y-77048550D01*
X162263260Y-76968763D01*
X162263257Y-76968760D01*
X162257400Y-76961963D01*
X162137095Y-76883985D01*
X161999739Y-76842907D01*
X161990763Y-76842852D01*
X161990762Y-76842852D01*
X161930555Y-76842484D01*
X161856376Y-76842031D01*
X161718529Y-76881428D01*
X161597280Y-76957930D01*
X161502377Y-77065388D01*
X161441447Y-77195163D01*
X161419391Y-77336823D01*
X152112618Y-77336823D01*
X152170510Y-77217333D01*
X152194296Y-77075954D01*
X152194447Y-77063600D01*
X152186273Y-77006524D01*
X152175396Y-76930568D01*
X152175395Y-76930565D01*
X152174123Y-76921682D01*
X152114784Y-76791172D01*
X152096398Y-76769834D01*
X152027060Y-76689363D01*
X152027057Y-76689360D01*
X152021200Y-76682563D01*
X151900895Y-76604585D01*
X151763539Y-76563507D01*
X151754563Y-76563452D01*
X151754562Y-76563452D01*
X151694355Y-76563084D01*
X151620176Y-76562631D01*
X151482329Y-76602028D01*
X151361080Y-76678530D01*
X151355138Y-76685258D01*
X151355137Y-76685259D01*
X151351513Y-76689363D01*
X151266177Y-76785988D01*
X151205247Y-76915763D01*
X151183191Y-77057423D01*
X148415000Y-77057423D01*
X148415000Y-75787423D01*
X151233991Y-75787423D01*
X151235155Y-75796325D01*
X151235155Y-75796328D01*
X151236414Y-75805954D01*
X151252580Y-75929579D01*
X151310320Y-76060803D01*
X151316097Y-76067676D01*
X151316098Y-76067677D01*
X151344621Y-76101609D01*
X151402570Y-76170548D01*
X151521913Y-76249990D01*
X151658757Y-76292742D01*
X151667729Y-76292906D01*
X151667732Y-76292907D01*
X151733063Y-76294104D01*
X151802099Y-76295370D01*
X151811133Y-76292907D01*
X151909827Y-76266000D01*
X187862318Y-76266000D01*
X187882956Y-76422762D01*
X187943464Y-76568841D01*
X188039718Y-76694282D01*
X188165159Y-76790536D01*
X188311238Y-76851044D01*
X188468000Y-76871682D01*
X188476188Y-76870604D01*
X188616574Y-76852122D01*
X188624762Y-76851044D01*
X188770841Y-76790536D01*
X188896282Y-76694282D01*
X188992536Y-76568841D01*
X189053044Y-76422762D01*
X189073682Y-76266000D01*
X189064993Y-76200000D01*
X190148318Y-76200000D01*
X190168956Y-76356762D01*
X190229464Y-76502841D01*
X190325718Y-76628282D01*
X190451159Y-76724536D01*
X190597238Y-76785044D01*
X190754000Y-76805682D01*
X190762188Y-76804604D01*
X190902574Y-76786122D01*
X190910762Y-76785044D01*
X191056841Y-76724536D01*
X191182282Y-76628282D01*
X191278536Y-76502841D01*
X191339044Y-76356762D01*
X191359682Y-76200000D01*
X191339044Y-76043238D01*
X191278536Y-75897159D01*
X191182282Y-75771718D01*
X191056841Y-75675464D01*
X190910762Y-75614956D01*
X190754000Y-75594318D01*
X190597238Y-75614956D01*
X190451159Y-75675464D01*
X190325718Y-75771718D01*
X190229464Y-75897159D01*
X190168956Y-76043238D01*
X190148318Y-76200000D01*
X189064993Y-76200000D01*
X189053044Y-76109238D01*
X188992536Y-75963159D01*
X188896282Y-75837718D01*
X188770841Y-75741464D01*
X188624762Y-75680956D01*
X188468000Y-75660318D01*
X188311238Y-75680956D01*
X188165159Y-75741464D01*
X188039718Y-75837718D01*
X187943464Y-75963159D01*
X187882956Y-76109238D01*
X187862318Y-76266000D01*
X151909827Y-76266000D01*
X151931758Y-76260021D01*
X151931760Y-76260020D01*
X151940417Y-76257660D01*
X152062591Y-76182645D01*
X152158800Y-76076354D01*
X152211613Y-75967348D01*
X152217395Y-75955414D01*
X152217395Y-75955413D01*
X152221310Y-75947333D01*
X152245096Y-75805954D01*
X152245247Y-75793600D01*
X152236895Y-75735281D01*
X152226196Y-75660568D01*
X152226195Y-75660565D01*
X152224923Y-75651682D01*
X152194251Y-75584223D01*
X180088391Y-75584223D01*
X180089555Y-75593125D01*
X180089555Y-75593128D01*
X180096144Y-75643513D01*
X180106980Y-75726379D01*
X180164720Y-75857603D01*
X180170497Y-75864476D01*
X180170498Y-75864477D01*
X180232705Y-75938481D01*
X180256970Y-75967348D01*
X180376313Y-76046790D01*
X180513157Y-76089542D01*
X180522129Y-76089706D01*
X180522132Y-76089707D01*
X180587463Y-76090904D01*
X180656499Y-76092170D01*
X180665533Y-76089707D01*
X180786158Y-76056821D01*
X180786160Y-76056820D01*
X180794817Y-76054460D01*
X180916991Y-75979445D01*
X180954070Y-75938481D01*
X181007178Y-75879807D01*
X181013200Y-75873154D01*
X181050422Y-75796328D01*
X181071795Y-75752214D01*
X181071795Y-75752213D01*
X181075710Y-75744133D01*
X181099496Y-75602754D01*
X181099647Y-75590400D01*
X181091473Y-75533324D01*
X181080596Y-75457368D01*
X181080595Y-75457365D01*
X181079323Y-75448482D01*
X181066084Y-75419363D01*
X181027537Y-75334585D01*
X181019984Y-75317972D01*
X181000274Y-75295098D01*
X180932260Y-75216163D01*
X180932257Y-75216160D01*
X180926400Y-75209363D01*
X180806095Y-75131385D01*
X180668739Y-75090307D01*
X180659763Y-75090252D01*
X180659762Y-75090252D01*
X180599555Y-75089884D01*
X180525376Y-75089431D01*
X180387529Y-75128828D01*
X180266280Y-75205330D01*
X180171377Y-75312788D01*
X180110447Y-75442563D01*
X180088391Y-75584223D01*
X152194251Y-75584223D01*
X152165584Y-75521172D01*
X152110607Y-75457368D01*
X152077860Y-75419363D01*
X152077857Y-75419360D01*
X152072000Y-75412563D01*
X151951695Y-75334585D01*
X151814339Y-75293507D01*
X151805363Y-75293452D01*
X151805362Y-75293452D01*
X151745155Y-75293084D01*
X151670976Y-75292631D01*
X151533129Y-75332028D01*
X151411880Y-75408530D01*
X151316977Y-75515988D01*
X151256047Y-75645763D01*
X151250640Y-75680491D01*
X151241147Y-75741464D01*
X151233991Y-75787423D01*
X148415000Y-75787423D01*
X148415000Y-74742000D01*
X187862318Y-74742000D01*
X187882956Y-74898762D01*
X187943464Y-75044841D01*
X188039718Y-75170282D01*
X188165159Y-75266536D01*
X188311238Y-75327044D01*
X188468000Y-75347682D01*
X188476188Y-75346604D01*
X188616574Y-75328122D01*
X188624762Y-75327044D01*
X188770841Y-75266536D01*
X188896282Y-75170282D01*
X188992536Y-75044841D01*
X189053044Y-74898762D01*
X189073682Y-74742000D01*
X189053044Y-74585238D01*
X188992536Y-74439159D01*
X188964023Y-74402000D01*
X191930318Y-74402000D01*
X191950956Y-74558762D01*
X192011464Y-74704841D01*
X192107718Y-74830282D01*
X192233159Y-74926536D01*
X192379238Y-74987044D01*
X192496639Y-75002500D01*
X193075361Y-75002500D01*
X193192762Y-74987044D01*
X193338841Y-74926536D01*
X193464282Y-74830282D01*
X193560536Y-74704841D01*
X193621044Y-74558762D01*
X193641682Y-74402000D01*
X196502318Y-74402000D01*
X196522956Y-74558762D01*
X196583464Y-74704841D01*
X196679718Y-74830282D01*
X196805159Y-74926536D01*
X196951238Y-74987044D01*
X197068639Y-75002500D01*
X197647361Y-75002500D01*
X197764762Y-74987044D01*
X197910841Y-74926536D01*
X198036282Y-74830282D01*
X198132536Y-74704841D01*
X198193044Y-74558762D01*
X198213682Y-74402000D01*
X198193044Y-74245238D01*
X198132536Y-74099159D01*
X198036282Y-73973718D01*
X197968734Y-73921886D01*
X197926867Y-73864549D01*
X197922645Y-73793678D01*
X197957409Y-73731775D01*
X197988235Y-73709657D01*
X198037510Y-73684550D01*
X198037509Y-73684550D01*
X198046342Y-73680050D01*
X198136050Y-73590342D01*
X198193646Y-73477304D01*
X198208500Y-73383519D01*
X198208499Y-72920482D01*
X198193646Y-72826696D01*
X198136050Y-72713658D01*
X198046342Y-72623950D01*
X197933304Y-72566354D01*
X197923515Y-72564804D01*
X197923513Y-72564803D01*
X197896151Y-72560470D01*
X197839519Y-72551500D01*
X197358098Y-72551500D01*
X196876482Y-72551501D01*
X196871589Y-72552276D01*
X196871588Y-72552276D01*
X196792494Y-72564802D01*
X196792492Y-72564803D01*
X196782696Y-72566354D01*
X196669658Y-72623950D01*
X196579950Y-72713658D01*
X196522354Y-72826696D01*
X196507500Y-72920481D01*
X196507501Y-73383518D01*
X196522354Y-73477304D01*
X196579950Y-73590342D01*
X196669658Y-73680050D01*
X196678491Y-73684550D01*
X196678490Y-73684550D01*
X196727765Y-73709657D01*
X196779380Y-73758405D01*
X196796446Y-73827320D01*
X196773545Y-73894522D01*
X196747267Y-73921886D01*
X196679718Y-73973718D01*
X196583464Y-74099159D01*
X196522956Y-74245238D01*
X196502318Y-74402000D01*
X193641682Y-74402000D01*
X193621044Y-74245238D01*
X193560536Y-74099159D01*
X193464282Y-73973718D01*
X193396734Y-73921886D01*
X193354867Y-73864549D01*
X193350645Y-73793678D01*
X193385409Y-73731775D01*
X193416235Y-73709657D01*
X193465510Y-73684550D01*
X193465509Y-73684550D01*
X193474342Y-73680050D01*
X193564050Y-73590342D01*
X193621646Y-73477304D01*
X193636500Y-73383519D01*
X193636499Y-72920482D01*
X193621646Y-72826696D01*
X193564050Y-72713658D01*
X193474342Y-72623950D01*
X193361304Y-72566354D01*
X193351515Y-72564804D01*
X193351513Y-72564803D01*
X193324151Y-72560470D01*
X193267519Y-72551500D01*
X192786098Y-72551500D01*
X192304482Y-72551501D01*
X192299589Y-72552276D01*
X192299588Y-72552276D01*
X192220494Y-72564802D01*
X192220492Y-72564803D01*
X192210696Y-72566354D01*
X192097658Y-72623950D01*
X192007950Y-72713658D01*
X191950354Y-72826696D01*
X191935500Y-72920481D01*
X191935501Y-73383518D01*
X191950354Y-73477304D01*
X192007950Y-73590342D01*
X192097658Y-73680050D01*
X192106491Y-73684550D01*
X192106490Y-73684550D01*
X192155765Y-73709657D01*
X192207380Y-73758405D01*
X192224446Y-73827320D01*
X192201545Y-73894522D01*
X192175267Y-73921886D01*
X192107718Y-73973718D01*
X192011464Y-74099159D01*
X191950956Y-74245238D01*
X191930318Y-74402000D01*
X188964023Y-74402000D01*
X188896282Y-74313718D01*
X188770841Y-74217464D01*
X188624762Y-74156956D01*
X188468000Y-74136318D01*
X188311238Y-74156956D01*
X188165159Y-74217464D01*
X188039718Y-74313718D01*
X187943464Y-74439159D01*
X187882956Y-74585238D01*
X187862318Y-74742000D01*
X148415000Y-74742000D01*
X148415000Y-72230442D01*
X148415002Y-72229683D01*
X148415911Y-72078834D01*
X153852700Y-72078834D01*
X153855681Y-72110369D01*
X153900566Y-72238184D01*
X153906158Y-72245754D01*
X153906159Y-72245757D01*
X153968535Y-72330206D01*
X153981050Y-72347150D01*
X153988621Y-72352742D01*
X154082443Y-72422041D01*
X154082446Y-72422042D01*
X154090016Y-72427634D01*
X154217831Y-72472519D01*
X154225477Y-72473242D01*
X154225478Y-72473242D01*
X154231448Y-72473806D01*
X154249366Y-72475500D01*
X155657034Y-72475500D01*
X155674952Y-72473806D01*
X155680922Y-72473242D01*
X155680923Y-72473242D01*
X155688569Y-72472519D01*
X155816384Y-72427634D01*
X155823954Y-72422042D01*
X155823957Y-72422041D01*
X155917779Y-72352742D01*
X155925350Y-72347150D01*
X155937865Y-72330206D01*
X156000241Y-72245757D01*
X156000242Y-72245754D01*
X156005834Y-72238184D01*
X156050719Y-72110369D01*
X156053700Y-72078834D01*
X156053700Y-71469423D01*
X164695991Y-71469423D01*
X164697155Y-71478325D01*
X164697155Y-71478328D01*
X164701685Y-71512967D01*
X164714580Y-71611579D01*
X164772320Y-71742803D01*
X164778097Y-71749676D01*
X164778098Y-71749677D01*
X164812029Y-71790043D01*
X164864570Y-71852548D01*
X164983913Y-71931990D01*
X165120757Y-71974742D01*
X165129729Y-71974906D01*
X165129732Y-71974907D01*
X165195063Y-71976104D01*
X165264099Y-71977370D01*
X165273133Y-71974907D01*
X165393758Y-71942021D01*
X165393760Y-71942020D01*
X165402417Y-71939660D01*
X165524591Y-71864645D01*
X165620800Y-71758354D01*
X165664933Y-71667264D01*
X165679395Y-71637414D01*
X165679395Y-71637413D01*
X165683310Y-71629333D01*
X165707096Y-71487954D01*
X165707247Y-71475600D01*
X165696134Y-71397999D01*
X165688196Y-71342568D01*
X165688195Y-71342565D01*
X165686923Y-71333682D01*
X165678739Y-71315681D01*
X165649328Y-71250996D01*
X165627584Y-71203172D01*
X165573527Y-71140436D01*
X165539860Y-71101363D01*
X165539857Y-71101360D01*
X165534000Y-71094563D01*
X165413695Y-71016585D01*
X165276339Y-70975507D01*
X165267363Y-70975452D01*
X165267362Y-70975452D01*
X165207155Y-70975084D01*
X165132976Y-70974631D01*
X164995129Y-71014028D01*
X164873880Y-71090530D01*
X164778977Y-71197988D01*
X164718047Y-71327763D01*
X164716666Y-71336635D01*
X164697426Y-71460207D01*
X164695991Y-71469423D01*
X156053700Y-71469423D01*
X156053700Y-71271166D01*
X156050719Y-71239631D01*
X156005834Y-71111816D01*
X156000242Y-71104246D01*
X156000241Y-71104243D01*
X155930942Y-71010421D01*
X155925350Y-71002850D01*
X155886067Y-70973835D01*
X155823957Y-70927959D01*
X155823954Y-70927958D01*
X155816384Y-70922366D01*
X155688569Y-70877481D01*
X155680923Y-70876758D01*
X155680922Y-70876758D01*
X155674952Y-70876194D01*
X155657034Y-70874500D01*
X154249366Y-70874500D01*
X154231448Y-70876194D01*
X154225478Y-70876758D01*
X154225477Y-70876758D01*
X154217831Y-70877481D01*
X154090016Y-70922366D01*
X154082446Y-70927958D01*
X154082443Y-70927959D01*
X154020333Y-70973835D01*
X153981050Y-71002850D01*
X153975458Y-71010421D01*
X153906159Y-71104243D01*
X153906158Y-71104246D01*
X153900566Y-71111816D01*
X153855681Y-71239631D01*
X153852700Y-71271166D01*
X153852700Y-72078834D01*
X148415911Y-72078834D01*
X148430426Y-69669376D01*
X153847655Y-69669376D01*
X153848391Y-69676379D01*
X153848391Y-69676380D01*
X153862131Y-69807107D01*
X153866427Y-69847983D01*
X153868698Y-69854654D01*
X153919449Y-70003733D01*
X153924303Y-70017993D01*
X153927993Y-70023991D01*
X153927994Y-70023993D01*
X153936435Y-70037714D01*
X154018406Y-70170955D01*
X154023332Y-70175986D01*
X154023335Y-70175989D01*
X154027038Y-70179770D01*
X154144059Y-70299268D01*
X154149984Y-70303087D01*
X154149986Y-70303088D01*
X154221288Y-70349039D01*
X154295017Y-70396554D01*
X154301637Y-70398963D01*
X154301640Y-70398965D01*
X154457161Y-70455570D01*
X154457164Y-70455571D01*
X154463778Y-70457978D01*
X154490321Y-70461331D01*
X154598555Y-70475004D01*
X154598558Y-70475004D01*
X154602483Y-70475500D01*
X155298355Y-70475500D01*
X155431672Y-70460546D01*
X155439047Y-70457978D01*
X155507115Y-70434274D01*
X155601273Y-70401485D01*
X155609165Y-70396554D01*
X155747601Y-70310049D01*
X155753575Y-70306316D01*
X155840423Y-70220072D01*
X155876010Y-70184733D01*
X155876013Y-70184729D01*
X155881007Y-70179770D01*
X155888328Y-70168235D01*
X155967838Y-70042946D01*
X155977237Y-70028136D01*
X155990052Y-69992146D01*
X156035119Y-69865586D01*
X156035120Y-69865581D01*
X156037481Y-69858951D01*
X156038314Y-69851965D01*
X156038315Y-69851961D01*
X156039285Y-69843823D01*
X163324391Y-69843823D01*
X163325555Y-69852725D01*
X163325555Y-69852728D01*
X163333686Y-69914901D01*
X163342980Y-69985979D01*
X163400720Y-70117203D01*
X163406497Y-70124076D01*
X163406498Y-70124077D01*
X163453313Y-70179770D01*
X163492970Y-70226948D01*
X163500447Y-70231925D01*
X163604745Y-70301352D01*
X163612313Y-70306390D01*
X163749157Y-70349142D01*
X163758129Y-70349306D01*
X163758132Y-70349307D01*
X163823463Y-70350504D01*
X163892499Y-70351770D01*
X163901533Y-70349307D01*
X163963298Y-70332468D01*
X165099603Y-70332468D01*
X165113234Y-70332433D01*
X165113236Y-70332433D01*
X166351229Y-70329214D01*
X166419402Y-70349039D01*
X166466034Y-70402574D01*
X166477557Y-70455001D01*
X166482940Y-73659618D01*
X166496814Y-73659450D01*
X166496816Y-73659450D01*
X167373746Y-73648807D01*
X167442104Y-73667981D01*
X167489245Y-73721069D01*
X167499775Y-73794182D01*
X167494616Y-73827320D01*
X167489991Y-73857023D01*
X167491155Y-73865925D01*
X167491155Y-73865928D01*
X167498473Y-73921887D01*
X167508580Y-73999179D01*
X167566320Y-74130403D01*
X167572097Y-74137276D01*
X167572098Y-74137277D01*
X167579392Y-74145954D01*
X167658570Y-74240148D01*
X167666047Y-74245125D01*
X167769092Y-74313718D01*
X167777913Y-74319590D01*
X167914757Y-74362342D01*
X167923729Y-74362506D01*
X167923732Y-74362507D01*
X167989063Y-74363704D01*
X168058099Y-74364970D01*
X168067133Y-74362507D01*
X168187758Y-74329621D01*
X168187760Y-74329620D01*
X168196417Y-74327260D01*
X168318591Y-74252245D01*
X168324934Y-74245238D01*
X168408778Y-74152607D01*
X168414800Y-74145954D01*
X168477310Y-74016933D01*
X168501096Y-73875554D01*
X168501247Y-73863200D01*
X168488992Y-73777628D01*
X168499134Y-73707361D01*
X168545657Y-73653731D01*
X168612189Y-73633776D01*
X170065219Y-73616142D01*
X170619086Y-73609420D01*
X170619087Y-73609420D01*
X170637200Y-73609200D01*
X170771457Y-73388409D01*
X171815965Y-71670664D01*
X171877764Y-71569033D01*
X171879626Y-71552725D01*
X171938396Y-71037768D01*
X171953012Y-70909704D01*
X171980609Y-70844290D01*
X171989104Y-70834896D01*
X172522977Y-70301023D01*
X174144791Y-70301023D01*
X174145955Y-70309925D01*
X174145955Y-70309928D01*
X174148898Y-70332433D01*
X174163380Y-70443179D01*
X174221120Y-70574403D01*
X174226897Y-70581276D01*
X174226898Y-70581277D01*
X174307590Y-70677272D01*
X174313370Y-70684148D01*
X174358241Y-70714017D01*
X174418903Y-70754397D01*
X174432713Y-70763590D01*
X174569557Y-70806342D01*
X174578529Y-70806506D01*
X174578532Y-70806507D01*
X174681601Y-70808396D01*
X174706687Y-70808856D01*
X174774429Y-70830104D01*
X174819931Y-70884602D01*
X174828745Y-70955050D01*
X174809702Y-71003977D01*
X174803799Y-71010661D01*
X174799986Y-71018783D01*
X174799985Y-71018784D01*
X174798023Y-71022963D01*
X174742869Y-71140436D01*
X174737385Y-71175659D01*
X174722515Y-71271166D01*
X174720813Y-71282096D01*
X174721977Y-71290998D01*
X174721977Y-71291001D01*
X174727945Y-71336635D01*
X174739402Y-71424252D01*
X174797142Y-71555476D01*
X174802919Y-71562349D01*
X174802920Y-71562350D01*
X174866018Y-71637414D01*
X174889392Y-71665221D01*
X175008735Y-71744663D01*
X175145579Y-71787415D01*
X175154551Y-71787579D01*
X175154554Y-71787580D01*
X175219885Y-71788777D01*
X175288921Y-71790043D01*
X175297955Y-71787580D01*
X175418580Y-71754694D01*
X175418582Y-71754693D01*
X175427239Y-71752333D01*
X175549413Y-71677318D01*
X175556090Y-71669942D01*
X175639600Y-71577680D01*
X175645622Y-71571027D01*
X175675276Y-71509821D01*
X175722978Y-71457238D01*
X175791536Y-71438792D01*
X175859184Y-71460339D01*
X175885118Y-71483683D01*
X175938970Y-71547748D01*
X175964198Y-71564541D01*
X176048092Y-71620386D01*
X176058313Y-71627190D01*
X176195157Y-71669942D01*
X176204129Y-71670106D01*
X176204132Y-71670107D01*
X176269463Y-71671304D01*
X176338499Y-71672570D01*
X176347163Y-71670208D01*
X176468158Y-71637221D01*
X176468160Y-71637220D01*
X176476817Y-71634860D01*
X176598991Y-71559845D01*
X176641423Y-71512967D01*
X176689178Y-71460207D01*
X176695200Y-71453554D01*
X176751847Y-71336635D01*
X176753795Y-71332614D01*
X176753795Y-71332613D01*
X176757710Y-71324533D01*
X176781496Y-71183154D01*
X176781647Y-71170800D01*
X176774049Y-71117745D01*
X179111208Y-71117745D01*
X179112372Y-71126647D01*
X179112372Y-71126650D01*
X179119761Y-71183154D01*
X179129797Y-71259901D01*
X179187537Y-71391125D01*
X179193314Y-71397998D01*
X179193315Y-71397999D01*
X179274007Y-71493994D01*
X179279787Y-71500870D01*
X179399130Y-71580312D01*
X179535974Y-71623064D01*
X179544946Y-71623228D01*
X179544949Y-71623229D01*
X179610280Y-71624426D01*
X179679316Y-71625692D01*
X179688350Y-71623229D01*
X179808975Y-71590343D01*
X179808977Y-71590342D01*
X179817634Y-71587982D01*
X179939808Y-71512967D01*
X179962449Y-71487954D01*
X180029995Y-71413329D01*
X180036017Y-71406676D01*
X180098527Y-71277655D01*
X180122313Y-71136276D01*
X180122464Y-71123922D01*
X180110126Y-71037768D01*
X180103413Y-70990890D01*
X180103412Y-70990887D01*
X180102140Y-70982004D01*
X180075025Y-70922366D01*
X180051192Y-70869949D01*
X180041206Y-70799658D01*
X180070806Y-70735127D01*
X180099964Y-70710423D01*
X180142757Y-70684148D01*
X180205791Y-70645445D01*
X180263873Y-70581277D01*
X180295978Y-70545807D01*
X180302000Y-70539154D01*
X180364510Y-70410133D01*
X180388296Y-70268754D01*
X180388447Y-70256400D01*
X180377473Y-70179770D01*
X180369396Y-70123368D01*
X180369395Y-70123365D01*
X180368123Y-70114482D01*
X180308784Y-69983972D01*
X180264832Y-69932963D01*
X180221060Y-69882163D01*
X180221057Y-69882160D01*
X180215200Y-69875363D01*
X180094895Y-69797385D01*
X179957539Y-69756307D01*
X179948563Y-69756252D01*
X179948562Y-69756252D01*
X179888355Y-69755884D01*
X179814176Y-69755431D01*
X179676329Y-69794828D01*
X179555080Y-69871330D01*
X179460177Y-69978788D01*
X179399247Y-70108563D01*
X179397866Y-70117435D01*
X179380815Y-70226948D01*
X179377191Y-70250223D01*
X179378355Y-70259125D01*
X179378355Y-70259128D01*
X179384998Y-70309928D01*
X179395780Y-70392379D01*
X179425033Y-70458860D01*
X179448197Y-70511505D01*
X179457325Y-70581912D01*
X179426938Y-70646077D01*
X179400104Y-70668812D01*
X179289097Y-70738852D01*
X179194194Y-70846310D01*
X179133264Y-70976085D01*
X179126958Y-71016585D01*
X179113759Y-71101363D01*
X179111208Y-71117745D01*
X176774049Y-71117745D01*
X176761323Y-71028882D01*
X176755396Y-71015845D01*
X176705700Y-70906546D01*
X176701984Y-70898372D01*
X176661591Y-70851494D01*
X176614260Y-70796563D01*
X176614257Y-70796560D01*
X176608400Y-70789763D01*
X176488095Y-70711785D01*
X176350739Y-70670707D01*
X176341763Y-70670652D01*
X176341762Y-70670652D01*
X176281555Y-70670284D01*
X176207376Y-70669831D01*
X176069529Y-70709228D01*
X175948280Y-70785730D01*
X175942338Y-70792458D01*
X175942337Y-70792459D01*
X175904858Y-70834896D01*
X175853377Y-70893188D01*
X175839678Y-70922366D01*
X175827833Y-70947594D01*
X175780776Y-71000756D01*
X175712448Y-71020038D01*
X175644542Y-70999318D01*
X175618325Y-70976292D01*
X175564685Y-70914039D01*
X175564680Y-70914035D01*
X175558822Y-70907236D01*
X175438517Y-70829258D01*
X175301161Y-70788180D01*
X175292185Y-70788125D01*
X175292184Y-70788125D01*
X175171096Y-70787385D01*
X175103099Y-70766967D01*
X175056935Y-70713028D01*
X175047260Y-70642693D01*
X175066418Y-70593469D01*
X175069600Y-70589954D01*
X175077135Y-70574403D01*
X175128195Y-70469014D01*
X175128195Y-70469013D01*
X175132110Y-70460933D01*
X175155896Y-70319554D01*
X175156047Y-70307200D01*
X175144554Y-70226948D01*
X175136996Y-70174168D01*
X175136995Y-70174165D01*
X175135723Y-70165282D01*
X175123959Y-70139407D01*
X175112626Y-70114482D01*
X175076384Y-70034772D01*
X175018972Y-69968142D01*
X174988660Y-69932963D01*
X174988657Y-69932960D01*
X174982800Y-69926163D01*
X174862495Y-69848185D01*
X174725139Y-69807107D01*
X174716163Y-69807052D01*
X174716162Y-69807052D01*
X174655955Y-69806684D01*
X174581776Y-69806231D01*
X174443929Y-69845628D01*
X174322680Y-69922130D01*
X174227777Y-70029588D01*
X174166847Y-70159363D01*
X174163670Y-70179770D01*
X174149069Y-70273549D01*
X174144791Y-70301023D01*
X172522977Y-70301023D01*
X172973493Y-69850507D01*
X173035805Y-69816481D01*
X173106620Y-69821546D01*
X173142848Y-69843423D01*
X173144970Y-69845948D01*
X173264313Y-69925390D01*
X173401157Y-69968142D01*
X173410129Y-69968306D01*
X173410132Y-69968307D01*
X173475463Y-69969504D01*
X173544499Y-69970770D01*
X173553533Y-69968307D01*
X173674158Y-69935421D01*
X173674160Y-69935420D01*
X173682817Y-69933060D01*
X173804991Y-69858045D01*
X173811896Y-69850417D01*
X173895178Y-69758407D01*
X173901200Y-69751754D01*
X173963710Y-69622733D01*
X173987496Y-69481354D01*
X173987647Y-69469000D01*
X173979473Y-69411924D01*
X173968596Y-69335968D01*
X173968595Y-69335965D01*
X173967323Y-69327082D01*
X173962244Y-69315910D01*
X173934728Y-69255392D01*
X173907984Y-69196572D01*
X173838034Y-69115391D01*
X173820260Y-69094763D01*
X173820257Y-69094760D01*
X173814400Y-69087963D01*
X173694095Y-69009985D01*
X173556739Y-68968907D01*
X173547763Y-68968852D01*
X173547762Y-68968852D01*
X173487555Y-68968484D01*
X173413376Y-68968031D01*
X173275529Y-69007428D01*
X173154280Y-69083930D01*
X173148338Y-69090658D01*
X173148337Y-69090659D01*
X173126495Y-69115391D01*
X173059377Y-69191388D01*
X172998447Y-69321163D01*
X172997065Y-69330039D01*
X172996293Y-69334993D01*
X172966047Y-69399224D01*
X172905876Y-69436907D01*
X172834885Y-69436077D01*
X172782699Y-69404699D01*
X172329000Y-68951000D01*
X191930318Y-68951000D01*
X191950956Y-69107762D01*
X192011464Y-69253841D01*
X192107718Y-69379282D01*
X192114264Y-69384305D01*
X192119616Y-69388412D01*
X192233159Y-69475536D01*
X192379238Y-69536044D01*
X192387426Y-69537122D01*
X192458660Y-69546500D01*
X192496639Y-69551500D01*
X193075361Y-69551500D01*
X193113341Y-69546500D01*
X193184574Y-69537122D01*
X193192762Y-69536044D01*
X193338841Y-69475536D01*
X193452384Y-69388412D01*
X193457736Y-69384305D01*
X193464282Y-69379282D01*
X193560536Y-69253841D01*
X193621044Y-69107762D01*
X193641682Y-68951000D01*
X193641024Y-68946000D01*
X196502318Y-68946000D01*
X196522956Y-69102762D01*
X196583464Y-69248841D01*
X196679718Y-69374282D01*
X196805159Y-69470536D01*
X196951238Y-69531044D01*
X197068639Y-69546500D01*
X197647361Y-69546500D01*
X197764762Y-69531044D01*
X197910841Y-69470536D01*
X198036282Y-69374282D01*
X198132536Y-69248841D01*
X198193044Y-69102762D01*
X198213682Y-68946000D01*
X198193044Y-68789238D01*
X198132536Y-68643159D01*
X198036282Y-68517718D01*
X197968734Y-68465886D01*
X197926867Y-68408549D01*
X197922645Y-68337678D01*
X197957409Y-68275775D01*
X197988235Y-68253657D01*
X198037510Y-68228550D01*
X198037509Y-68228550D01*
X198046342Y-68224050D01*
X198136050Y-68134342D01*
X198193646Y-68021304D01*
X198208500Y-67927519D01*
X198208499Y-67464482D01*
X198207724Y-67459588D01*
X198195198Y-67380494D01*
X198195197Y-67380492D01*
X198193646Y-67370696D01*
X198183537Y-67350855D01*
X198172149Y-67328506D01*
X198136050Y-67257658D01*
X198046342Y-67167950D01*
X197933304Y-67110354D01*
X197923515Y-67108804D01*
X197923513Y-67108803D01*
X197888362Y-67103236D01*
X197839519Y-67095500D01*
X197358098Y-67095500D01*
X196876482Y-67095501D01*
X196871589Y-67096276D01*
X196871588Y-67096276D01*
X196792494Y-67108802D01*
X196792492Y-67108803D01*
X196782696Y-67110354D01*
X196773859Y-67114857D01*
X196773858Y-67114857D01*
X196751659Y-67126168D01*
X196669658Y-67167950D01*
X196579950Y-67257658D01*
X196522354Y-67370696D01*
X196520804Y-67380485D01*
X196520803Y-67380487D01*
X196517174Y-67403399D01*
X196507500Y-67464481D01*
X196507501Y-67927518D01*
X196522354Y-68021304D01*
X196579950Y-68134342D01*
X196669658Y-68224050D01*
X196678491Y-68228550D01*
X196678490Y-68228550D01*
X196727765Y-68253657D01*
X196779380Y-68302405D01*
X196796446Y-68371320D01*
X196773545Y-68438522D01*
X196747267Y-68465886D01*
X196679718Y-68517718D01*
X196583464Y-68643159D01*
X196522956Y-68789238D01*
X196502318Y-68946000D01*
X193641024Y-68946000D01*
X193621044Y-68794238D01*
X193560536Y-68648159D01*
X193464282Y-68522718D01*
X193396734Y-68470886D01*
X193354867Y-68413549D01*
X193350645Y-68342678D01*
X193385409Y-68280775D01*
X193416235Y-68258657D01*
X193474342Y-68229050D01*
X193564050Y-68139342D01*
X193621646Y-68026304D01*
X193623932Y-68011874D01*
X193632938Y-67955007D01*
X193636500Y-67932519D01*
X193636499Y-67469482D01*
X193632284Y-67442869D01*
X193623198Y-67385494D01*
X193623197Y-67385492D01*
X193621646Y-67375696D01*
X193564050Y-67262658D01*
X193474342Y-67172950D01*
X193361304Y-67115354D01*
X193351515Y-67113804D01*
X193351513Y-67113803D01*
X193319936Y-67108802D01*
X193267519Y-67100500D01*
X192786098Y-67100500D01*
X192304482Y-67100501D01*
X192299589Y-67101276D01*
X192299588Y-67101276D01*
X192220494Y-67113802D01*
X192220492Y-67113803D01*
X192210696Y-67115354D01*
X192201859Y-67119857D01*
X192201858Y-67119857D01*
X192189472Y-67126168D01*
X192097658Y-67172950D01*
X192007950Y-67262658D01*
X191950354Y-67375696D01*
X191948804Y-67385485D01*
X191948803Y-67385487D01*
X191947586Y-67393172D01*
X191935500Y-67469481D01*
X191935501Y-67932518D01*
X191936276Y-67937409D01*
X191936276Y-67937412D01*
X191948069Y-68011874D01*
X191950354Y-68026304D01*
X191954855Y-68035137D01*
X191954857Y-68035142D01*
X191966451Y-68057895D01*
X192007950Y-68139342D01*
X192097658Y-68229050D01*
X192155765Y-68258657D01*
X192207380Y-68307405D01*
X192224446Y-68376320D01*
X192201545Y-68443522D01*
X192175267Y-68470886D01*
X192107718Y-68522718D01*
X192011464Y-68648159D01*
X191950956Y-68794238D01*
X191930318Y-68951000D01*
X172329000Y-68951000D01*
X171069356Y-67691356D01*
X171051919Y-67659423D01*
X175719591Y-67659423D01*
X175720755Y-67668325D01*
X175720755Y-67668328D01*
X175723841Y-67691925D01*
X175738180Y-67801579D01*
X175741797Y-67809799D01*
X175775999Y-67887528D01*
X175795920Y-67932803D01*
X175801697Y-67939676D01*
X175801698Y-67939677D01*
X175882390Y-68035672D01*
X175888170Y-68042548D01*
X176007513Y-68121990D01*
X176144357Y-68164742D01*
X176153329Y-68164906D01*
X176153332Y-68164907D01*
X176218663Y-68166104D01*
X176287699Y-68167370D01*
X176296733Y-68164907D01*
X176417358Y-68132021D01*
X176417360Y-68132020D01*
X176426017Y-68129660D01*
X176548191Y-68054645D01*
X176571405Y-68028999D01*
X176638378Y-67955007D01*
X176644400Y-67948354D01*
X176706910Y-67819333D01*
X176730696Y-67677954D01*
X176730847Y-67665600D01*
X176716297Y-67564000D01*
X176711796Y-67532568D01*
X176711795Y-67532565D01*
X176710523Y-67523682D01*
X176697640Y-67495346D01*
X176683644Y-67464564D01*
X176651184Y-67393172D01*
X176589741Y-67321864D01*
X176574196Y-67303823D01*
X184812791Y-67303823D01*
X184813955Y-67312725D01*
X184813955Y-67312728D01*
X184821034Y-67366858D01*
X184831380Y-67445979D01*
X184841702Y-67469437D01*
X184883311Y-67564000D01*
X184889120Y-67577203D01*
X184894897Y-67584076D01*
X184894898Y-67584077D01*
X184968744Y-67671928D01*
X184981370Y-67686948D01*
X185035920Y-67723260D01*
X185092571Y-67760970D01*
X185100713Y-67766390D01*
X185237557Y-67809142D01*
X185246529Y-67809306D01*
X185246532Y-67809307D01*
X185311863Y-67810504D01*
X185380899Y-67811770D01*
X185389933Y-67809307D01*
X185510558Y-67776421D01*
X185510560Y-67776420D01*
X185519217Y-67774060D01*
X185641391Y-67699045D01*
X185660482Y-67677954D01*
X185731578Y-67599407D01*
X185737600Y-67592754D01*
X185786876Y-67491049D01*
X185796195Y-67471814D01*
X185796195Y-67471813D01*
X185800110Y-67463733D01*
X185823896Y-67322354D01*
X185824047Y-67310000D01*
X185815887Y-67253023D01*
X186997191Y-67253023D01*
X186998355Y-67261925D01*
X186998355Y-67261928D01*
X187004998Y-67312728D01*
X187015780Y-67395179D01*
X187019397Y-67403399D01*
X187063886Y-67504507D01*
X187073520Y-67526403D01*
X187079297Y-67533276D01*
X187079298Y-67533277D01*
X187096248Y-67553441D01*
X187165770Y-67636148D01*
X187173247Y-67641125D01*
X187267313Y-67703741D01*
X187285113Y-67715590D01*
X187421957Y-67758342D01*
X187430929Y-67758506D01*
X187430932Y-67758507D01*
X187496263Y-67759704D01*
X187565299Y-67760970D01*
X187596370Y-67752499D01*
X187667353Y-67753880D01*
X187726321Y-67793418D01*
X187754553Y-67858560D01*
X187755280Y-67871628D01*
X187754191Y-67878623D01*
X187755355Y-67887525D01*
X187755355Y-67887528D01*
X187762101Y-67939112D01*
X187772780Y-68020779D01*
X187776397Y-68028999D01*
X187818623Y-68124964D01*
X187830520Y-68152003D01*
X187836297Y-68158876D01*
X187836298Y-68158877D01*
X187899067Y-68233550D01*
X187922770Y-68261748D01*
X188042113Y-68341190D01*
X188178957Y-68383942D01*
X188187929Y-68384106D01*
X188187932Y-68384107D01*
X188253263Y-68385304D01*
X188322299Y-68386570D01*
X188331333Y-68384107D01*
X188451958Y-68351221D01*
X188451960Y-68351220D01*
X188460617Y-68348860D01*
X188582791Y-68273845D01*
X188596539Y-68258657D01*
X188672978Y-68174207D01*
X188679000Y-68167554D01*
X188679496Y-68168003D01*
X188728884Y-68127092D01*
X188799365Y-68118552D01*
X188816242Y-68122573D01*
X188947490Y-68163577D01*
X188956462Y-68163741D01*
X188956465Y-68163742D01*
X189021796Y-68164939D01*
X189090832Y-68166205D01*
X189099866Y-68163742D01*
X189220491Y-68130856D01*
X189220493Y-68130855D01*
X189229150Y-68128495D01*
X189351324Y-68053480D01*
X189447533Y-67947189D01*
X189492366Y-67854654D01*
X189506128Y-67826249D01*
X189506128Y-67826248D01*
X189510043Y-67818168D01*
X189533829Y-67676789D01*
X189533980Y-67664435D01*
X189521488Y-67577203D01*
X189514929Y-67531403D01*
X189514928Y-67531400D01*
X189513656Y-67522517D01*
X189507800Y-67509636D01*
X189487317Y-67464588D01*
X189454317Y-67392007D01*
X189408365Y-67338677D01*
X189366593Y-67290198D01*
X189366590Y-67290195D01*
X189360733Y-67283398D01*
X189240428Y-67205420D01*
X189103072Y-67164342D01*
X189094096Y-67164287D01*
X189094095Y-67164287D01*
X189033888Y-67163919D01*
X188959709Y-67163466D01*
X188821862Y-67202863D01*
X188700613Y-67279365D01*
X188694671Y-67286093D01*
X188694670Y-67286094D01*
X188673557Y-67310000D01*
X188605710Y-67386823D01*
X188603443Y-67384821D01*
X188560876Y-67420971D01*
X188490505Y-67430376D01*
X188472175Y-67424850D01*
X188471895Y-67425785D01*
X188334539Y-67384707D01*
X188325563Y-67384652D01*
X188325562Y-67384652D01*
X188265355Y-67384284D01*
X188191176Y-67383831D01*
X188168961Y-67390180D01*
X188097968Y-67389668D01*
X188038520Y-67350855D01*
X188009493Y-67286063D01*
X188008346Y-67267496D01*
X188008388Y-67264062D01*
X188008388Y-67264056D01*
X188008447Y-67259200D01*
X187996671Y-67176968D01*
X187989396Y-67126168D01*
X187989395Y-67126165D01*
X187988123Y-67117282D01*
X187984268Y-67108802D01*
X187948788Y-67030769D01*
X187928784Y-66986772D01*
X187897991Y-66951035D01*
X187841060Y-66884963D01*
X187841057Y-66884960D01*
X187835200Y-66878163D01*
X187714895Y-66800185D01*
X187577539Y-66759107D01*
X187568563Y-66759052D01*
X187568562Y-66759052D01*
X187508355Y-66758684D01*
X187434176Y-66758231D01*
X187296329Y-66797628D01*
X187175080Y-66874130D01*
X187080177Y-66981588D01*
X187019247Y-67111363D01*
X187017866Y-67120235D01*
X187003661Y-67211471D01*
X186997191Y-67253023D01*
X185815887Y-67253023D01*
X185808351Y-67200397D01*
X185804996Y-67176968D01*
X185804995Y-67176965D01*
X185803723Y-67168082D01*
X185795539Y-67150081D01*
X185781968Y-67120235D01*
X185744384Y-67037572D01*
X185707655Y-66994946D01*
X185656660Y-66935763D01*
X185656657Y-66935760D01*
X185650800Y-66928963D01*
X185530495Y-66850985D01*
X185393139Y-66809907D01*
X185384163Y-66809852D01*
X185384162Y-66809852D01*
X185323955Y-66809484D01*
X185249776Y-66809031D01*
X185111929Y-66848428D01*
X184990680Y-66924930D01*
X184984738Y-66931658D01*
X184984737Y-66931659D01*
X184967625Y-66951035D01*
X184895777Y-67032388D01*
X184834847Y-67162163D01*
X184828894Y-67200397D01*
X184814226Y-67294607D01*
X184812791Y-67303823D01*
X176574196Y-67303823D01*
X176563460Y-67291363D01*
X176563457Y-67291360D01*
X176557600Y-67284563D01*
X176437295Y-67206585D01*
X176299939Y-67165507D01*
X176290963Y-67165452D01*
X176290962Y-67165452D01*
X176230755Y-67165084D01*
X176156576Y-67164631D01*
X176018729Y-67204028D01*
X175897480Y-67280530D01*
X175891538Y-67287258D01*
X175891537Y-67287259D01*
X175887913Y-67291363D01*
X175802577Y-67387988D01*
X175741647Y-67517763D01*
X175739342Y-67532568D01*
X175723215Y-67636148D01*
X175719591Y-67659423D01*
X171051919Y-67659423D01*
X171035330Y-67629044D01*
X171040395Y-67558229D01*
X171082942Y-67501393D01*
X171149462Y-67476582D01*
X171196024Y-67481994D01*
X171267557Y-67504342D01*
X171276529Y-67504506D01*
X171276532Y-67504507D01*
X171341863Y-67505704D01*
X171410899Y-67506970D01*
X171419933Y-67504507D01*
X171540558Y-67471621D01*
X171540560Y-67471620D01*
X171549217Y-67469260D01*
X171671391Y-67394245D01*
X171677696Y-67387280D01*
X171761578Y-67294607D01*
X171767600Y-67287954D01*
X171808262Y-67204028D01*
X171826195Y-67167014D01*
X171826195Y-67167013D01*
X171830110Y-67158933D01*
X171853896Y-67017554D01*
X171854047Y-67005200D01*
X171836828Y-66884963D01*
X171834996Y-66872168D01*
X171834995Y-66872165D01*
X171833723Y-66863282D01*
X171774384Y-66732772D01*
X171725803Y-66676391D01*
X171686660Y-66630963D01*
X171686657Y-66630960D01*
X171680800Y-66624163D01*
X171560495Y-66546185D01*
X171423139Y-66505107D01*
X171414163Y-66505052D01*
X171414162Y-66505052D01*
X171353955Y-66504684D01*
X171279776Y-66504231D01*
X171141929Y-66543628D01*
X171020680Y-66620130D01*
X170925777Y-66727588D01*
X170864847Y-66857363D01*
X170862179Y-66874500D01*
X170845506Y-66981588D01*
X170842791Y-66999023D01*
X170843955Y-67007925D01*
X170843955Y-67007928D01*
X170848631Y-67043684D01*
X170861380Y-67141179D01*
X170878445Y-67179961D01*
X170913311Y-67259200D01*
X170919120Y-67272403D01*
X170957022Y-67317493D01*
X170982356Y-67347632D01*
X171010877Y-67412648D01*
X170999721Y-67482762D01*
X170952428Y-67535715D01*
X170884015Y-67554693D01*
X170868088Y-67553441D01*
X170053000Y-67437000D01*
X165100000Y-67437000D01*
X165099998Y-67450542D01*
X165099998Y-67450543D01*
X165099606Y-70314060D01*
X165099603Y-70332468D01*
X163963298Y-70332468D01*
X164022158Y-70316421D01*
X164022160Y-70316420D01*
X164030817Y-70314060D01*
X164152991Y-70239045D01*
X164249200Y-70132754D01*
X164297002Y-70034090D01*
X164307795Y-70011814D01*
X164307795Y-70011813D01*
X164311710Y-70003733D01*
X164335496Y-69862354D01*
X164335647Y-69850000D01*
X164322229Y-69756307D01*
X164316596Y-69716968D01*
X164316595Y-69716965D01*
X164315323Y-69708082D01*
X164255984Y-69577572D01*
X164196920Y-69509025D01*
X164168260Y-69475763D01*
X164168257Y-69475760D01*
X164162400Y-69468963D01*
X164042095Y-69390985D01*
X163904739Y-69349907D01*
X163895763Y-69349852D01*
X163895762Y-69349852D01*
X163835555Y-69349484D01*
X163761376Y-69349031D01*
X163623529Y-69388428D01*
X163502280Y-69464930D01*
X163407377Y-69572388D01*
X163346447Y-69702163D01*
X163338726Y-69751754D01*
X163330108Y-69807107D01*
X163324391Y-69843823D01*
X156039285Y-69843823D01*
X156057911Y-69687617D01*
X156058745Y-69680624D01*
X156048773Y-69585746D01*
X156040710Y-69509025D01*
X156040709Y-69509021D01*
X156039973Y-69502017D01*
X156017525Y-69436077D01*
X155984368Y-69338677D01*
X155984367Y-69338674D01*
X155982097Y-69332007D01*
X155887994Y-69179045D01*
X155883068Y-69174014D01*
X155883065Y-69174011D01*
X155798800Y-69087963D01*
X155762341Y-69050732D01*
X155745613Y-69039951D01*
X155617309Y-68957265D01*
X155611383Y-68953446D01*
X155604763Y-68951037D01*
X155604760Y-68951035D01*
X155449239Y-68894430D01*
X155449236Y-68894429D01*
X155442622Y-68892022D01*
X155385892Y-68884856D01*
X155307845Y-68874996D01*
X155307842Y-68874996D01*
X155303917Y-68874500D01*
X154608045Y-68874500D01*
X154474728Y-68889454D01*
X154468075Y-68891771D01*
X154468074Y-68891771D01*
X154399749Y-68915564D01*
X154305127Y-68948515D01*
X154299153Y-68952248D01*
X154299151Y-68952249D01*
X154203183Y-69012217D01*
X154152825Y-69043684D01*
X154096544Y-69099574D01*
X154030390Y-69165267D01*
X154030387Y-69165271D01*
X154025393Y-69170230D01*
X153929163Y-69321864D01*
X153926798Y-69328506D01*
X153871281Y-69484414D01*
X153871280Y-69484419D01*
X153868919Y-69491049D01*
X153868086Y-69498035D01*
X153868085Y-69498039D01*
X153860022Y-69565659D01*
X153847655Y-69669376D01*
X148430426Y-69669376D01*
X148442474Y-67669376D01*
X153847655Y-67669376D01*
X153848391Y-67676379D01*
X153848391Y-67676380D01*
X153864143Y-67826249D01*
X153866427Y-67847983D01*
X153924303Y-68017993D01*
X154018406Y-68170955D01*
X154023332Y-68175986D01*
X154023335Y-68175989D01*
X154068431Y-68222039D01*
X154144059Y-68299268D01*
X154149984Y-68303087D01*
X154149986Y-68303088D01*
X154275447Y-68383942D01*
X154295017Y-68396554D01*
X154301637Y-68398963D01*
X154301640Y-68398965D01*
X154457161Y-68455570D01*
X154457164Y-68455571D01*
X154463778Y-68457978D01*
X154490321Y-68461331D01*
X154598555Y-68475004D01*
X154598558Y-68475004D01*
X154602483Y-68475500D01*
X155298355Y-68475500D01*
X155431672Y-68460546D01*
X155439047Y-68457978D01*
X155543901Y-68421464D01*
X155601273Y-68401485D01*
X155609165Y-68396554D01*
X155747601Y-68310049D01*
X155753575Y-68306316D01*
X155817565Y-68242771D01*
X155876010Y-68184733D01*
X155876013Y-68184729D01*
X155881007Y-68179770D01*
X155888877Y-68167370D01*
X155920834Y-68117013D01*
X155977237Y-68028136D01*
X156008937Y-67939112D01*
X156035119Y-67865586D01*
X156035120Y-67865581D01*
X156037481Y-67858951D01*
X156038314Y-67851965D01*
X156038315Y-67851961D01*
X156057911Y-67687617D01*
X156058745Y-67680624D01*
X156058009Y-67673620D01*
X156040710Y-67509025D01*
X156040709Y-67509021D01*
X156039973Y-67502017D01*
X156023927Y-67454881D01*
X155984368Y-67338677D01*
X155984367Y-67338674D01*
X155982097Y-67332007D01*
X155976159Y-67322354D01*
X155928047Y-67244150D01*
X155887994Y-67179045D01*
X155883068Y-67174014D01*
X155883065Y-67174011D01*
X155819207Y-67108802D01*
X155762341Y-67050732D01*
X155754605Y-67045746D01*
X155617309Y-66957265D01*
X155611383Y-66953446D01*
X155604763Y-66951037D01*
X155604760Y-66951035D01*
X155449239Y-66894430D01*
X155449236Y-66894429D01*
X155442622Y-66892022D01*
X155385892Y-66884856D01*
X155307845Y-66874996D01*
X155307842Y-66874996D01*
X155303917Y-66874500D01*
X154608045Y-66874500D01*
X154474728Y-66889454D01*
X154468075Y-66891771D01*
X154468074Y-66891771D01*
X154399749Y-66915564D01*
X154305127Y-66948515D01*
X154299153Y-66952248D01*
X154299151Y-66952249D01*
X154291124Y-66957265D01*
X154152825Y-67043684D01*
X154100646Y-67095500D01*
X154030390Y-67165267D01*
X154030387Y-67165271D01*
X154025393Y-67170230D01*
X154021619Y-67176176D01*
X154021618Y-67176178D01*
X154004683Y-67202863D01*
X153929163Y-67321864D01*
X153926798Y-67328506D01*
X153871281Y-67484414D01*
X153871280Y-67484419D01*
X153868919Y-67491049D01*
X153868086Y-67498035D01*
X153868085Y-67498039D01*
X153855998Y-67599407D01*
X153847655Y-67669376D01*
X148442474Y-67669376D01*
X148454522Y-65669376D01*
X153847655Y-65669376D01*
X153848391Y-65676379D01*
X153848391Y-65676380D01*
X153865061Y-65834985D01*
X153866427Y-65847983D01*
X153868698Y-65854654D01*
X153921336Y-66009277D01*
X153924303Y-66017993D01*
X153927993Y-66023991D01*
X153927994Y-66023993D01*
X153934206Y-66034090D01*
X154018406Y-66170955D01*
X154023332Y-66175986D01*
X154023335Y-66175989D01*
X154080739Y-66234608D01*
X154144059Y-66299268D01*
X154149984Y-66303087D01*
X154149986Y-66303088D01*
X154289091Y-66392735D01*
X154295017Y-66396554D01*
X154301637Y-66398963D01*
X154301640Y-66398965D01*
X154457161Y-66455570D01*
X154457164Y-66455571D01*
X154463778Y-66457978D01*
X154490321Y-66461331D01*
X154598555Y-66475004D01*
X154598558Y-66475004D01*
X154602483Y-66475500D01*
X155298355Y-66475500D01*
X155431672Y-66460546D01*
X155439047Y-66457978D01*
X155545021Y-66421074D01*
X155601273Y-66401485D01*
X155609165Y-66396554D01*
X155747601Y-66310049D01*
X155753575Y-66306316D01*
X155772198Y-66287823D01*
X168531391Y-66287823D01*
X168532555Y-66296725D01*
X168532555Y-66296728D01*
X168533387Y-66303088D01*
X168549980Y-66429979D01*
X168607720Y-66561203D01*
X168613497Y-66568076D01*
X168613498Y-66568077D01*
X168657253Y-66620130D01*
X168699970Y-66670948D01*
X168707447Y-66675925D01*
X168805126Y-66740946D01*
X168819313Y-66750390D01*
X168956157Y-66793142D01*
X168965129Y-66793306D01*
X168965132Y-66793307D01*
X169030463Y-66794504D01*
X169099499Y-66795770D01*
X169108533Y-66793307D01*
X169229158Y-66760421D01*
X169229160Y-66760420D01*
X169237817Y-66758060D01*
X169359991Y-66683045D01*
X169456200Y-66576754D01*
X169505257Y-66475500D01*
X169514795Y-66455814D01*
X169514795Y-66455813D01*
X169518710Y-66447733D01*
X169542496Y-66306354D01*
X169542647Y-66294000D01*
X169533720Y-66231664D01*
X169523596Y-66160968D01*
X169523595Y-66160965D01*
X169522323Y-66152082D01*
X169511802Y-66128941D01*
X169501040Y-66105272D01*
X169462984Y-66021572D01*
X169425150Y-65977664D01*
X169375260Y-65919763D01*
X169375257Y-65919760D01*
X169369400Y-65912963D01*
X169249095Y-65834985D01*
X169111739Y-65793907D01*
X169102763Y-65793852D01*
X169102762Y-65793852D01*
X169042555Y-65793484D01*
X168968376Y-65793031D01*
X168830529Y-65832428D01*
X168709280Y-65908930D01*
X168703338Y-65915658D01*
X168703337Y-65915659D01*
X168661829Y-65962659D01*
X168614377Y-66016388D01*
X168553447Y-66146163D01*
X168547442Y-66184733D01*
X168539309Y-66236970D01*
X168531391Y-66287823D01*
X155772198Y-66287823D01*
X155828750Y-66231664D01*
X155876010Y-66184733D01*
X155876013Y-66184729D01*
X155881007Y-66179770D01*
X155896705Y-66155035D01*
X155973458Y-66034090D01*
X155977237Y-66028136D01*
X156015827Y-65919763D01*
X156035119Y-65865586D01*
X156035120Y-65865581D01*
X156037481Y-65858951D01*
X156038314Y-65851965D01*
X156038315Y-65851961D01*
X156057911Y-65687617D01*
X156058745Y-65680624D01*
X156053943Y-65634933D01*
X156040710Y-65509025D01*
X156040709Y-65509021D01*
X156039973Y-65502017D01*
X156030784Y-65475023D01*
X160682791Y-65475023D01*
X160683955Y-65483925D01*
X160683955Y-65483928D01*
X160685841Y-65498349D01*
X160701380Y-65617179D01*
X160730250Y-65682791D01*
X160755449Y-65740059D01*
X160759120Y-65748403D01*
X160764897Y-65755276D01*
X160764898Y-65755277D01*
X160842825Y-65847983D01*
X160851370Y-65858148D01*
X160970713Y-65937590D01*
X161107557Y-65980342D01*
X161116529Y-65980506D01*
X161116532Y-65980507D01*
X161181863Y-65981704D01*
X161250899Y-65982970D01*
X161259933Y-65980507D01*
X161380558Y-65947621D01*
X161380560Y-65947620D01*
X161389217Y-65945260D01*
X161511391Y-65870245D01*
X161531542Y-65847983D01*
X161601578Y-65770607D01*
X161607600Y-65763954D01*
X161624524Y-65729023D01*
X167134391Y-65729023D01*
X167135555Y-65737925D01*
X167135555Y-65737928D01*
X167143084Y-65795498D01*
X167152980Y-65871179D01*
X167180012Y-65932613D01*
X167201086Y-65980507D01*
X167210720Y-66002403D01*
X167216497Y-66009276D01*
X167216498Y-66009277D01*
X167297190Y-66105272D01*
X167302970Y-66112148D01*
X167422313Y-66191590D01*
X167559157Y-66234342D01*
X167568129Y-66234506D01*
X167568132Y-66234507D01*
X167633463Y-66235704D01*
X167702499Y-66236970D01*
X167711533Y-66234507D01*
X167832158Y-66201621D01*
X167832160Y-66201620D01*
X167840817Y-66199260D01*
X167962991Y-66124245D01*
X168059200Y-66017954D01*
X168106773Y-65919763D01*
X168117795Y-65897014D01*
X168117795Y-65897013D01*
X168121710Y-65888933D01*
X168145496Y-65747554D01*
X168145647Y-65735200D01*
X168130020Y-65626081D01*
X168126596Y-65602168D01*
X168126595Y-65602165D01*
X168125323Y-65593282D01*
X168065984Y-65462772D01*
X168047598Y-65441434D01*
X167978260Y-65360963D01*
X167978257Y-65360960D01*
X167972400Y-65354163D01*
X167852095Y-65276185D01*
X167714739Y-65235107D01*
X167705763Y-65235052D01*
X167705762Y-65235052D01*
X167645555Y-65234684D01*
X167571376Y-65234231D01*
X167433529Y-65273628D01*
X167312280Y-65350130D01*
X167217377Y-65457588D01*
X167156447Y-65587363D01*
X167155066Y-65596235D01*
X167141927Y-65680624D01*
X167134391Y-65729023D01*
X161624524Y-65729023D01*
X161670110Y-65634933D01*
X161693896Y-65493554D01*
X161694047Y-65481200D01*
X161676828Y-65360963D01*
X161674996Y-65348168D01*
X161674995Y-65348165D01*
X161673723Y-65339282D01*
X161668824Y-65328506D01*
X161647256Y-65281071D01*
X161614384Y-65208772D01*
X161593939Y-65185045D01*
X161526660Y-65106963D01*
X161526657Y-65106960D01*
X161520800Y-65100163D01*
X161400495Y-65022185D01*
X161263139Y-64981107D01*
X161254163Y-64981052D01*
X161254162Y-64981052D01*
X161193955Y-64980684D01*
X161119776Y-64980231D01*
X160981929Y-65019628D01*
X160860680Y-65096130D01*
X160765777Y-65203588D01*
X160704847Y-65333363D01*
X160701609Y-65354163D01*
X160685506Y-65457588D01*
X160682791Y-65475023D01*
X156030784Y-65475023D01*
X156027763Y-65466150D01*
X155984368Y-65338677D01*
X155984367Y-65338674D01*
X155982097Y-65332007D01*
X155977932Y-65325236D01*
X155935045Y-65255526D01*
X155887994Y-65179045D01*
X155883068Y-65174014D01*
X155883065Y-65174011D01*
X155782163Y-65070974D01*
X155762341Y-65050732D01*
X155745613Y-65039951D01*
X155617309Y-64957265D01*
X155611383Y-64953446D01*
X155604763Y-64951037D01*
X155604760Y-64951035D01*
X155449239Y-64894430D01*
X155449236Y-64894429D01*
X155442622Y-64892022D01*
X155385892Y-64884856D01*
X155307845Y-64874996D01*
X155307842Y-64874996D01*
X155303917Y-64874500D01*
X154608045Y-64874500D01*
X154474728Y-64889454D01*
X154468075Y-64891771D01*
X154468074Y-64891771D01*
X154419323Y-64908748D01*
X154305127Y-64948515D01*
X154299153Y-64952248D01*
X154299151Y-64952249D01*
X154185544Y-65023239D01*
X154152825Y-65043684D01*
X154100868Y-65095280D01*
X154030390Y-65165267D01*
X154030387Y-65165271D01*
X154025393Y-65170230D01*
X153929163Y-65321864D01*
X153926798Y-65328506D01*
X153871281Y-65484414D01*
X153871280Y-65484419D01*
X153868919Y-65491049D01*
X153868086Y-65498035D01*
X153868085Y-65498039D01*
X153856376Y-65596235D01*
X153847655Y-65669376D01*
X148454522Y-65669376D01*
X148462256Y-64385548D01*
X148482668Y-64317549D01*
X148536603Y-64271380D01*
X148586539Y-64260319D01*
X153979377Y-64186947D01*
X154047762Y-64206020D01*
X154071110Y-64224775D01*
X154144059Y-64299268D01*
X154149984Y-64303087D01*
X154149986Y-64303088D01*
X154172425Y-64317549D01*
X154295017Y-64396554D01*
X154301637Y-64398963D01*
X154301640Y-64398965D01*
X154457161Y-64455570D01*
X154457164Y-64455571D01*
X154463778Y-64457978D01*
X154490321Y-64461331D01*
X154598555Y-64475004D01*
X154598558Y-64475004D01*
X154602483Y-64475500D01*
X155298355Y-64475500D01*
X155431672Y-64460546D01*
X155439047Y-64457978D01*
X155506651Y-64434436D01*
X155601273Y-64401485D01*
X155609165Y-64396554D01*
X155747601Y-64310049D01*
X155753575Y-64306316D01*
X155863955Y-64196703D01*
X155926384Y-64162897D01*
X155951023Y-64160122D01*
X165573212Y-64029208D01*
X167114068Y-64008244D01*
X167132000Y-64008000D01*
X167241063Y-63936690D01*
X167856718Y-63534146D01*
X168476589Y-63128846D01*
X168544549Y-63108308D01*
X168612825Y-63127773D01*
X168659739Y-63181061D01*
X168670396Y-63251253D01*
X168639983Y-63317711D01*
X168594094Y-63369671D01*
X168533164Y-63499446D01*
X168523927Y-63558773D01*
X168515612Y-63612180D01*
X168511108Y-63641106D01*
X168512272Y-63650008D01*
X168512272Y-63650011D01*
X168517305Y-63688500D01*
X168529697Y-63783262D01*
X168587437Y-63914486D01*
X168593214Y-63921359D01*
X168593215Y-63921360D01*
X168673907Y-64017355D01*
X168679687Y-64024231D01*
X168687164Y-64029208D01*
X168779241Y-64090500D01*
X168799030Y-64103673D01*
X168935874Y-64146425D01*
X168944846Y-64146589D01*
X168944849Y-64146590D01*
X169010180Y-64147787D01*
X169079216Y-64149053D01*
X169088250Y-64146590D01*
X169208875Y-64113704D01*
X169208877Y-64113703D01*
X169217534Y-64111343D01*
X169339708Y-64036328D01*
X169368485Y-64004536D01*
X169429895Y-63936690D01*
X169435917Y-63930037D01*
X169475672Y-63847983D01*
X169494512Y-63809097D01*
X169494512Y-63809096D01*
X169498427Y-63801016D01*
X169522213Y-63659637D01*
X169522364Y-63647283D01*
X169512740Y-63580083D01*
X169503313Y-63514251D01*
X169503312Y-63514248D01*
X169502040Y-63505365D01*
X169486785Y-63471812D01*
X169468784Y-63432222D01*
X169442701Y-63374855D01*
X169398225Y-63323238D01*
X169354977Y-63273046D01*
X169354974Y-63273043D01*
X169349117Y-63266246D01*
X169228812Y-63188268D01*
X169091456Y-63147190D01*
X169082480Y-63147135D01*
X169082479Y-63147135D01*
X169022272Y-63146767D01*
X168948093Y-63146314D01*
X168939463Y-63148780D01*
X168939459Y-63148781D01*
X168862699Y-63170719D01*
X168791704Y-63170207D01*
X168732257Y-63131392D01*
X168703231Y-63066600D01*
X168713842Y-62996401D01*
X168723002Y-62985823D01*
X170552891Y-62985823D01*
X170554055Y-62994725D01*
X170554055Y-62994728D01*
X170560851Y-63046696D01*
X170571480Y-63127979D01*
X170629220Y-63259203D01*
X170634997Y-63266076D01*
X170634998Y-63266077D01*
X170691453Y-63333238D01*
X170721470Y-63368948D01*
X170746698Y-63385741D01*
X170827242Y-63439356D01*
X170840813Y-63448390D01*
X170977657Y-63491142D01*
X170986629Y-63491306D01*
X170986632Y-63491307D01*
X171051963Y-63492504D01*
X171120999Y-63493770D01*
X171130033Y-63491307D01*
X171250658Y-63458421D01*
X171250660Y-63458420D01*
X171259317Y-63456060D01*
X171381491Y-63381045D01*
X171426404Y-63331426D01*
X171471678Y-63281407D01*
X171477700Y-63274754D01*
X171524984Y-63177159D01*
X171536295Y-63153814D01*
X171536295Y-63153813D01*
X171540210Y-63145733D01*
X171545951Y-63111611D01*
X188016394Y-63111611D01*
X188034999Y-63280135D01*
X188064984Y-63362072D01*
X188073646Y-63385741D01*
X188093266Y-63439356D01*
X188097502Y-63445659D01*
X188097504Y-63445664D01*
X188159390Y-63537761D01*
X188180782Y-63605458D01*
X188162178Y-63673974D01*
X188124810Y-63712801D01*
X188087763Y-63737555D01*
X188087761Y-63737557D01*
X188077448Y-63744448D01*
X188033133Y-63810769D01*
X188021500Y-63869252D01*
X188021500Y-64908748D01*
X188033133Y-64967231D01*
X188077448Y-65033552D01*
X188143769Y-65077867D01*
X188155938Y-65080288D01*
X188155939Y-65080288D01*
X188196184Y-65088293D01*
X188202252Y-65089500D01*
X189241748Y-65089500D01*
X189247816Y-65088293D01*
X189288061Y-65080288D01*
X189288062Y-65080288D01*
X189300231Y-65077867D01*
X189366552Y-65033552D01*
X189410867Y-64967231D01*
X189422500Y-64908748D01*
X189422500Y-63869252D01*
X189410867Y-63810769D01*
X189366552Y-63744448D01*
X189318645Y-63712437D01*
X189273118Y-63657959D01*
X189264271Y-63587516D01*
X189286325Y-63534146D01*
X189307006Y-63505365D01*
X189325233Y-63480000D01*
X191930318Y-63480000D01*
X191950956Y-63636762D01*
X192011464Y-63782841D01*
X192107718Y-63908282D01*
X192114264Y-63913305D01*
X192127296Y-63923305D01*
X192233159Y-64004536D01*
X192379238Y-64065044D01*
X192496639Y-64080500D01*
X193075361Y-64080500D01*
X193192762Y-64065044D01*
X193338841Y-64004536D01*
X193444704Y-63923305D01*
X193457736Y-63913305D01*
X193464282Y-63908282D01*
X193560536Y-63782841D01*
X193621044Y-63636762D01*
X193640365Y-63490000D01*
X196502318Y-63490000D01*
X196503396Y-63498188D01*
X196520562Y-63628574D01*
X196522956Y-63646762D01*
X196526116Y-63654391D01*
X196527594Y-63657959D01*
X196583464Y-63792841D01*
X196679718Y-63918282D01*
X196805159Y-64014536D01*
X196951238Y-64075044D01*
X196959426Y-64076122D01*
X196992681Y-64080500D01*
X197068639Y-64090500D01*
X197647361Y-64090500D01*
X197723320Y-64080500D01*
X197756574Y-64076122D01*
X197764762Y-64075044D01*
X197910841Y-64014536D01*
X198036282Y-63918282D01*
X198132536Y-63792841D01*
X198188406Y-63657959D01*
X198189884Y-63654391D01*
X198193044Y-63646762D01*
X198195439Y-63628574D01*
X198212604Y-63498188D01*
X198213682Y-63490000D01*
X198193044Y-63333238D01*
X198186613Y-63317711D01*
X198168819Y-63274754D01*
X198132536Y-63187159D01*
X198036282Y-63061718D01*
X197968734Y-63009886D01*
X197926867Y-62952549D01*
X197922645Y-62881678D01*
X197957409Y-62819775D01*
X197988235Y-62797657D01*
X197998107Y-62792627D01*
X198046342Y-62768050D01*
X198136050Y-62678342D01*
X198193646Y-62565304D01*
X198197724Y-62539560D01*
X198205271Y-62491907D01*
X198208500Y-62471519D01*
X198208499Y-62008482D01*
X198193646Y-61914696D01*
X198136050Y-61801658D01*
X198046342Y-61711950D01*
X197933304Y-61654354D01*
X197923515Y-61652804D01*
X197923513Y-61652803D01*
X197896151Y-61648470D01*
X197839519Y-61639500D01*
X197358098Y-61639500D01*
X196876482Y-61639501D01*
X196871589Y-61640276D01*
X196871588Y-61640276D01*
X196792494Y-61652802D01*
X196792492Y-61652803D01*
X196782696Y-61654354D01*
X196669658Y-61711950D01*
X196579950Y-61801658D01*
X196522354Y-61914696D01*
X196507500Y-62008481D01*
X196507501Y-62471518D01*
X196508276Y-62476409D01*
X196508276Y-62476412D01*
X196519220Y-62545513D01*
X196522354Y-62565304D01*
X196526855Y-62574137D01*
X196526857Y-62574142D01*
X196538451Y-62596895D01*
X196579950Y-62678342D01*
X196669658Y-62768050D01*
X196717893Y-62792627D01*
X196727765Y-62797657D01*
X196779380Y-62846405D01*
X196796446Y-62915320D01*
X196773545Y-62982522D01*
X196747267Y-63009886D01*
X196679718Y-63061718D01*
X196583464Y-63187159D01*
X196547181Y-63274754D01*
X196529388Y-63317711D01*
X196522956Y-63333238D01*
X196502318Y-63490000D01*
X193640365Y-63490000D01*
X193641682Y-63480000D01*
X193626157Y-63362072D01*
X193622122Y-63331426D01*
X193621044Y-63323238D01*
X193560536Y-63177159D01*
X193464282Y-63051718D01*
X193396734Y-62999886D01*
X193354867Y-62942549D01*
X193350645Y-62871678D01*
X193385409Y-62809775D01*
X193416235Y-62787657D01*
X193474342Y-62758050D01*
X193564050Y-62668342D01*
X193621646Y-62555304D01*
X193624803Y-62535375D01*
X193627622Y-62517570D01*
X193636500Y-62461519D01*
X193636499Y-61998482D01*
X193635724Y-61993588D01*
X193623198Y-61914494D01*
X193623197Y-61914492D01*
X193621646Y-61904696D01*
X193564050Y-61791658D01*
X193474342Y-61701950D01*
X193361304Y-61644354D01*
X193351515Y-61642804D01*
X193351513Y-61642803D01*
X193324151Y-61638470D01*
X193267519Y-61629500D01*
X192786098Y-61629500D01*
X192304482Y-61629501D01*
X192299589Y-61630276D01*
X192299588Y-61630276D01*
X192220494Y-61642802D01*
X192220492Y-61642803D01*
X192210696Y-61644354D01*
X192097658Y-61701950D01*
X192007950Y-61791658D01*
X191950354Y-61904696D01*
X191935500Y-61998481D01*
X191935501Y-62461518D01*
X191936276Y-62466409D01*
X191936276Y-62466412D01*
X191947861Y-62539560D01*
X191950354Y-62555304D01*
X191954855Y-62564137D01*
X191954857Y-62564142D01*
X191962594Y-62579326D01*
X192007950Y-62668342D01*
X192097658Y-62758050D01*
X192155765Y-62787657D01*
X192207380Y-62836405D01*
X192224446Y-62905320D01*
X192201545Y-62972522D01*
X192175267Y-62999886D01*
X192107718Y-63051718D01*
X192011464Y-63177159D01*
X191950956Y-63323238D01*
X191949878Y-63331426D01*
X191945843Y-63362072D01*
X191930318Y-63480000D01*
X189325233Y-63480000D01*
X189340361Y-63458947D01*
X189348237Y-63439356D01*
X189400766Y-63308687D01*
X189400767Y-63308685D01*
X189403601Y-63301634D01*
X189422233Y-63170719D01*
X189426909Y-63137862D01*
X189426909Y-63137859D01*
X189427490Y-63133778D01*
X189427645Y-63119000D01*
X189425840Y-63104080D01*
X189414441Y-63009887D01*
X189407276Y-62950680D01*
X189347345Y-62792077D01*
X189303131Y-62727746D01*
X189255614Y-62658608D01*
X189255613Y-62658607D01*
X189251312Y-62652349D01*
X189167663Y-62577820D01*
X189130107Y-62517570D01*
X189131088Y-62446580D01*
X189169652Y-62387933D01*
X189235648Y-62331567D01*
X189235651Y-62331564D01*
X189241423Y-62326634D01*
X189340361Y-62188947D01*
X189348237Y-62169356D01*
X189400766Y-62038687D01*
X189400767Y-62038685D01*
X189403601Y-62031634D01*
X189418850Y-61924487D01*
X189426909Y-61867862D01*
X189426909Y-61867859D01*
X189427490Y-61863778D01*
X189427645Y-61849000D01*
X189425840Y-61834080D01*
X189421775Y-61800491D01*
X189407276Y-61680680D01*
X189347345Y-61522077D01*
X189251312Y-61382349D01*
X189167663Y-61307820D01*
X189130107Y-61247570D01*
X189131088Y-61176580D01*
X189169652Y-61117933D01*
X189235648Y-61061567D01*
X189235651Y-61061564D01*
X189241423Y-61056634D01*
X189340361Y-60918947D01*
X189348237Y-60899356D01*
X189400766Y-60768687D01*
X189400767Y-60768685D01*
X189403601Y-60761634D01*
X189427490Y-60593778D01*
X189427645Y-60579000D01*
X189425840Y-60564080D01*
X189408188Y-60418220D01*
X189407276Y-60410680D01*
X189347345Y-60252077D01*
X189251312Y-60112349D01*
X189167663Y-60037820D01*
X189130107Y-59977570D01*
X189131088Y-59906580D01*
X189169652Y-59847933D01*
X189235648Y-59791567D01*
X189235651Y-59791564D01*
X189241423Y-59786634D01*
X189340361Y-59648947D01*
X189348237Y-59629356D01*
X189400766Y-59498687D01*
X189400767Y-59498685D01*
X189403601Y-59491634D01*
X189427490Y-59323778D01*
X189427645Y-59309000D01*
X189425840Y-59294080D01*
X189408188Y-59148220D01*
X189407276Y-59140680D01*
X189347345Y-58982077D01*
X189251312Y-58842349D01*
X189167663Y-58767820D01*
X189130107Y-58707570D01*
X189131088Y-58636580D01*
X189169652Y-58577933D01*
X189235648Y-58521567D01*
X189235651Y-58521564D01*
X189241423Y-58516634D01*
X189340361Y-58378947D01*
X189348237Y-58359356D01*
X189400766Y-58228687D01*
X189400767Y-58228685D01*
X189403601Y-58221634D01*
X189424002Y-58078288D01*
X189426909Y-58057862D01*
X189426909Y-58057859D01*
X189427490Y-58053778D01*
X189427645Y-58039000D01*
X189426326Y-58028096D01*
X189408188Y-57878220D01*
X189407276Y-57870680D01*
X189347345Y-57712077D01*
X189315044Y-57665079D01*
X189255614Y-57578608D01*
X189255613Y-57578607D01*
X189251312Y-57572349D01*
X189232656Y-57555727D01*
X189130392Y-57464612D01*
X189130388Y-57464610D01*
X189124721Y-57459560D01*
X189098705Y-57445785D01*
X189051363Y-57420719D01*
X188974881Y-57380224D01*
X188810441Y-57338919D01*
X188802843Y-57338879D01*
X188802841Y-57338879D01*
X188725668Y-57338475D01*
X188640895Y-57338031D01*
X188633508Y-57339805D01*
X188633504Y-57339805D01*
X188490162Y-57374220D01*
X188476032Y-57377612D01*
X188469288Y-57381093D01*
X188469285Y-57381094D01*
X188348084Y-57443651D01*
X188325369Y-57455375D01*
X188319647Y-57460367D01*
X188319645Y-57460368D01*
X188248069Y-57522808D01*
X188197604Y-57566831D01*
X188100113Y-57705547D01*
X188038524Y-57863513D01*
X188037532Y-57871046D01*
X188037532Y-57871047D01*
X188026005Y-57958608D01*
X188016394Y-58031611D01*
X188034999Y-58200135D01*
X188093266Y-58359356D01*
X188097502Y-58365659D01*
X188097502Y-58365660D01*
X188110574Y-58385113D01*
X188187830Y-58500083D01*
X188193446Y-58505193D01*
X188276958Y-58581184D01*
X188313880Y-58641824D01*
X188312157Y-58712800D01*
X188274987Y-58769326D01*
X188197604Y-58836831D01*
X188100113Y-58975547D01*
X188038524Y-59133513D01*
X188016394Y-59301611D01*
X188034999Y-59470135D01*
X188093266Y-59629356D01*
X188097502Y-59635659D01*
X188097502Y-59635660D01*
X188110574Y-59655113D01*
X188187830Y-59770083D01*
X188193446Y-59775193D01*
X188276958Y-59851184D01*
X188313880Y-59911824D01*
X188312157Y-59982800D01*
X188274987Y-60039326D01*
X188197604Y-60106831D01*
X188193237Y-60113045D01*
X188133530Y-60198000D01*
X188100113Y-60245547D01*
X188038524Y-60403513D01*
X188037532Y-60411046D01*
X188037532Y-60411047D01*
X188029419Y-60472677D01*
X188016394Y-60571611D01*
X188034999Y-60740135D01*
X188093266Y-60899356D01*
X188097502Y-60905659D01*
X188097502Y-60905660D01*
X188110574Y-60925113D01*
X188187830Y-61040083D01*
X188193446Y-61045193D01*
X188276958Y-61121184D01*
X188313880Y-61181824D01*
X188312157Y-61252800D01*
X188274987Y-61309326D01*
X188197604Y-61376831D01*
X188100113Y-61515547D01*
X188038524Y-61673513D01*
X188037532Y-61681046D01*
X188037532Y-61681047D01*
X188021654Y-61801658D01*
X188016394Y-61841611D01*
X188034999Y-62010135D01*
X188093266Y-62169356D01*
X188097502Y-62175659D01*
X188097502Y-62175660D01*
X188110574Y-62195113D01*
X188187830Y-62310083D01*
X188193446Y-62315193D01*
X188276958Y-62391184D01*
X188313880Y-62451824D01*
X188312157Y-62522800D01*
X188274987Y-62579326D01*
X188197604Y-62646831D01*
X188175458Y-62678342D01*
X188116276Y-62762550D01*
X188100113Y-62785547D01*
X188038524Y-62943513D01*
X188037532Y-62951046D01*
X188037532Y-62951047D01*
X188022101Y-63068264D01*
X188016394Y-63111611D01*
X171545951Y-63111611D01*
X171563996Y-63004354D01*
X171564147Y-62992000D01*
X171552556Y-62911064D01*
X171545096Y-62858968D01*
X171545095Y-62858965D01*
X171543823Y-62850082D01*
X171539467Y-62840500D01*
X171515440Y-62787657D01*
X171484484Y-62719572D01*
X171431954Y-62658608D01*
X171396760Y-62617763D01*
X171396757Y-62617760D01*
X171390900Y-62610963D01*
X171270595Y-62532985D01*
X171133239Y-62491907D01*
X171124263Y-62491852D01*
X171124262Y-62491852D01*
X171064055Y-62491484D01*
X170989876Y-62491031D01*
X170852029Y-62530428D01*
X170730780Y-62606930D01*
X170635877Y-62714388D01*
X170574947Y-62844163D01*
X170573566Y-62853035D01*
X170554962Y-62972522D01*
X170552891Y-62985823D01*
X168723002Y-62985823D01*
X168759121Y-62944113D01*
X170753225Y-61640276D01*
X172207164Y-60689624D01*
X172275125Y-60669086D01*
X172313686Y-60674813D01*
X172385157Y-60697142D01*
X172394129Y-60697306D01*
X172394132Y-60697307D01*
X172459463Y-60698504D01*
X172528499Y-60699770D01*
X172537533Y-60697307D01*
X172658158Y-60664421D01*
X172658160Y-60664420D01*
X172666817Y-60662060D01*
X172788991Y-60587045D01*
X172885200Y-60480754D01*
X172947710Y-60351733D01*
X172966220Y-60241711D01*
X172997247Y-60177854D01*
X173021519Y-60157160D01*
X173736000Y-59690000D01*
X173736000Y-55149669D01*
X174516001Y-55149669D01*
X174516371Y-55156490D01*
X174521895Y-55207352D01*
X174525521Y-55222604D01*
X174570676Y-55343054D01*
X174579214Y-55358649D01*
X174655715Y-55460724D01*
X174668276Y-55473285D01*
X174770353Y-55549787D01*
X174780523Y-55555355D01*
X174830670Y-55605612D01*
X174845685Y-55675003D01*
X174842516Y-55694405D01*
X174840524Y-55699513D01*
X174818394Y-55867611D01*
X174836999Y-56036135D01*
X174844867Y-56057634D01*
X174892124Y-56186769D01*
X174895266Y-56195356D01*
X174899502Y-56201659D01*
X174899502Y-56201660D01*
X174912574Y-56221113D01*
X174989830Y-56336083D01*
X174995446Y-56341193D01*
X175078958Y-56417184D01*
X175115880Y-56477824D01*
X175114157Y-56548800D01*
X175076987Y-56605326D01*
X174999604Y-56672831D01*
X174902113Y-56811547D01*
X174840524Y-56969513D01*
X174839532Y-56977046D01*
X174839532Y-56977047D01*
X174820726Y-57119900D01*
X174818394Y-57137611D01*
X174836999Y-57306135D01*
X174849321Y-57339805D01*
X174891845Y-57456007D01*
X174895266Y-57465356D01*
X174899502Y-57471659D01*
X174899502Y-57471660D01*
X174912574Y-57491113D01*
X174989830Y-57606083D01*
X174995442Y-57611190D01*
X174995445Y-57611193D01*
X175109612Y-57715077D01*
X175109616Y-57715080D01*
X175115233Y-57720191D01*
X175121906Y-57723814D01*
X175121910Y-57723817D01*
X175257558Y-57797467D01*
X175257560Y-57797468D01*
X175264235Y-57801092D01*
X175271584Y-57803020D01*
X175420883Y-57842188D01*
X175420885Y-57842188D01*
X175428233Y-57844116D01*
X175514609Y-57845473D01*
X175590161Y-57846660D01*
X175590164Y-57846660D01*
X175597760Y-57846779D01*
X175605165Y-57845083D01*
X175605166Y-57845083D01*
X175665586Y-57831245D01*
X175763029Y-57808928D01*
X175914498Y-57732747D01*
X176043423Y-57622634D01*
X176055504Y-57605821D01*
X176111497Y-57562174D01*
X176182201Y-57555727D01*
X176245166Y-57588529D01*
X176253207Y-57597014D01*
X176255594Y-57599780D01*
X176259830Y-57606083D01*
X176265446Y-57611193D01*
X176265449Y-57611196D01*
X176379612Y-57715077D01*
X176379616Y-57715080D01*
X176385233Y-57720191D01*
X176391906Y-57723814D01*
X176391910Y-57723817D01*
X176527558Y-57797467D01*
X176527560Y-57797468D01*
X176534235Y-57801092D01*
X176541584Y-57803020D01*
X176690883Y-57842188D01*
X176690885Y-57842188D01*
X176698233Y-57844116D01*
X176784609Y-57845473D01*
X176860161Y-57846660D01*
X176860164Y-57846660D01*
X176867760Y-57846779D01*
X176875165Y-57845083D01*
X176875166Y-57845083D01*
X176935586Y-57831245D01*
X177033029Y-57808928D01*
X177184498Y-57732747D01*
X177313423Y-57622634D01*
X177350881Y-57570506D01*
X180880908Y-57570506D01*
X180882072Y-57579408D01*
X180882072Y-57579411D01*
X180888369Y-57627564D01*
X180899497Y-57712662D01*
X180903114Y-57720882D01*
X180939256Y-57803020D01*
X180957237Y-57843886D01*
X180963014Y-57850759D01*
X180963015Y-57850760D01*
X181043707Y-57946755D01*
X181049487Y-57953631D01*
X181168830Y-58033073D01*
X181305674Y-58075825D01*
X181314646Y-58075989D01*
X181314649Y-58075990D01*
X181379980Y-58077187D01*
X181449016Y-58078453D01*
X181458050Y-58075990D01*
X181578675Y-58043104D01*
X181578677Y-58043103D01*
X181587334Y-58040743D01*
X181709508Y-57965728D01*
X181805717Y-57859437D01*
X181859524Y-57748379D01*
X181864312Y-57738497D01*
X181864312Y-57738496D01*
X181868227Y-57730416D01*
X181892013Y-57589037D01*
X181892164Y-57576683D01*
X181878689Y-57482592D01*
X181873113Y-57443651D01*
X181873112Y-57443648D01*
X181871840Y-57434765D01*
X181812501Y-57304255D01*
X181763597Y-57247499D01*
X181724777Y-57202446D01*
X181724774Y-57202443D01*
X181718917Y-57195646D01*
X181598612Y-57117668D01*
X181461256Y-57076590D01*
X181452280Y-57076535D01*
X181452279Y-57076535D01*
X181392072Y-57076167D01*
X181317893Y-57075714D01*
X181180046Y-57115111D01*
X181058797Y-57191613D01*
X180963894Y-57299071D01*
X180902964Y-57428846D01*
X180894596Y-57482592D01*
X180882913Y-57557631D01*
X180880908Y-57570506D01*
X177350881Y-57570506D01*
X177412361Y-57484947D01*
X177422567Y-57459560D01*
X177472766Y-57334687D01*
X177472767Y-57334685D01*
X177475601Y-57327634D01*
X177487006Y-57247499D01*
X177498909Y-57163862D01*
X177498909Y-57163859D01*
X177499490Y-57159778D01*
X177499645Y-57145000D01*
X177497840Y-57130080D01*
X177490578Y-57070074D01*
X177479276Y-56976680D01*
X177419345Y-56818077D01*
X177342843Y-56706766D01*
X177327614Y-56684608D01*
X177327613Y-56684607D01*
X177325482Y-56681506D01*
X179991908Y-56681506D01*
X179993072Y-56690408D01*
X179993072Y-56690411D01*
X179997865Y-56727064D01*
X180010497Y-56823662D01*
X180014114Y-56831882D01*
X180063917Y-56945067D01*
X180068237Y-56954886D01*
X180074014Y-56961759D01*
X180074015Y-56961760D01*
X180074582Y-56962434D01*
X180160487Y-57064631D01*
X180167964Y-57069608D01*
X180267677Y-57135983D01*
X180279830Y-57144073D01*
X180416674Y-57186825D01*
X180425646Y-57186989D01*
X180425649Y-57186990D01*
X180490980Y-57188187D01*
X180560016Y-57189453D01*
X180569050Y-57186990D01*
X180689675Y-57154104D01*
X180689677Y-57154103D01*
X180698334Y-57151743D01*
X180820508Y-57076728D01*
X180916717Y-56970437D01*
X180979227Y-56841416D01*
X181001881Y-56706766D01*
X194756257Y-56706766D01*
X194786565Y-56841246D01*
X194789645Y-56851075D01*
X194869770Y-57048403D01*
X194874413Y-57057594D01*
X194985694Y-57239188D01*
X194991777Y-57247499D01*
X195131213Y-57408467D01*
X195138580Y-57415683D01*
X195302434Y-57551716D01*
X195310881Y-57557631D01*
X195494756Y-57665079D01*
X195504042Y-57669529D01*
X195703001Y-57745503D01*
X195712899Y-57748379D01*
X195816250Y-57769406D01*
X195830299Y-57768210D01*
X195834000Y-57757865D01*
X195834000Y-57757317D01*
X196342000Y-57757317D01*
X196346064Y-57771159D01*
X196359478Y-57773193D01*
X196366184Y-57772334D01*
X196376262Y-57770192D01*
X196580255Y-57708991D01*
X196589842Y-57705233D01*
X196781095Y-57611539D01*
X196789945Y-57606264D01*
X196963328Y-57482592D01*
X196971200Y-57475939D01*
X197122052Y-57325612D01*
X197128730Y-57317765D01*
X197253003Y-57144820D01*
X197258313Y-57135983D01*
X197352670Y-56945067D01*
X197356469Y-56935472D01*
X197418377Y-56731710D01*
X197420555Y-56721637D01*
X197421986Y-56710762D01*
X197419775Y-56696578D01*
X197406617Y-56692800D01*
X196360115Y-56692800D01*
X196344876Y-56697275D01*
X196343671Y-56698665D01*
X196342000Y-56706348D01*
X196342000Y-57757317D01*
X195834000Y-57757317D01*
X195834000Y-56710915D01*
X195829525Y-56695676D01*
X195828135Y-56694471D01*
X195820452Y-56692800D01*
X194771225Y-56692800D01*
X194757694Y-56696773D01*
X194756257Y-56706766D01*
X181001881Y-56706766D01*
X181003013Y-56700037D01*
X181003089Y-56693819D01*
X181003105Y-56692542D01*
X181003105Y-56692537D01*
X181003164Y-56687683D01*
X180985675Y-56565560D01*
X180984113Y-56554651D01*
X180984112Y-56554648D01*
X180982840Y-56545765D01*
X180966762Y-56510402D01*
X180927217Y-56423429D01*
X180923501Y-56415255D01*
X180869543Y-56352634D01*
X180835777Y-56313446D01*
X180835774Y-56313443D01*
X180829917Y-56306646D01*
X180709612Y-56228668D01*
X180572256Y-56187590D01*
X180563280Y-56187535D01*
X180563279Y-56187535D01*
X180503072Y-56187167D01*
X180428893Y-56186714D01*
X180291046Y-56226111D01*
X180169797Y-56302613D01*
X180163855Y-56309341D01*
X180163854Y-56309342D01*
X180135722Y-56341196D01*
X180074894Y-56410071D01*
X180013964Y-56539846D01*
X179991908Y-56681506D01*
X177325482Y-56681506D01*
X177323312Y-56678349D01*
X177239663Y-56603820D01*
X177202107Y-56543570D01*
X177203088Y-56472580D01*
X177241652Y-56413933D01*
X177307648Y-56357567D01*
X177307651Y-56357564D01*
X177313423Y-56352634D01*
X177412361Y-56214947D01*
X177422719Y-56189181D01*
X177429231Y-56172983D01*
X194752389Y-56172983D01*
X194753912Y-56181407D01*
X194766292Y-56184800D01*
X197406344Y-56184800D01*
X197419875Y-56180827D01*
X197421180Y-56171747D01*
X197379214Y-56004675D01*
X197375894Y-55994924D01*
X197290972Y-55799614D01*
X197286105Y-55790539D01*
X197170426Y-55611726D01*
X197164136Y-55603557D01*
X197020806Y-55446040D01*
X197013273Y-55439015D01*
X196846139Y-55307022D01*
X196837552Y-55301317D01*
X196651117Y-55198399D01*
X196641705Y-55194169D01*
X196641435Y-55194073D01*
X196641341Y-55194005D01*
X196636989Y-55192049D01*
X196637393Y-55191151D01*
X196583899Y-55152479D01*
X196557983Y-55086381D01*
X196571917Y-55016765D01*
X196621276Y-54965734D01*
X196683495Y-54949300D01*
X196957748Y-54949300D01*
X196979632Y-54944947D01*
X197004061Y-54940088D01*
X197004062Y-54940088D01*
X197016231Y-54937667D01*
X197082552Y-54893352D01*
X197126867Y-54827031D01*
X197138500Y-54768548D01*
X197138500Y-53029052D01*
X197126867Y-52970569D01*
X197082552Y-52904248D01*
X197016231Y-52859933D01*
X197004062Y-52857512D01*
X197004061Y-52857512D01*
X196963816Y-52849507D01*
X196957748Y-52848300D01*
X195218252Y-52848300D01*
X195212184Y-52849507D01*
X195171939Y-52857512D01*
X195171938Y-52857512D01*
X195159769Y-52859933D01*
X195093448Y-52904248D01*
X195049133Y-52970569D01*
X195037500Y-53029052D01*
X195037500Y-54768548D01*
X195049133Y-54827031D01*
X195093448Y-54893352D01*
X195159769Y-54937667D01*
X195171938Y-54940088D01*
X195171939Y-54940088D01*
X195196368Y-54944947D01*
X195218252Y-54949300D01*
X195493233Y-54949300D01*
X195561354Y-54969302D01*
X195607847Y-55022958D01*
X195617951Y-55093232D01*
X195588457Y-55157812D01*
X195551413Y-55187063D01*
X195366463Y-55283342D01*
X195357738Y-55288836D01*
X195187433Y-55416705D01*
X195179726Y-55423548D01*
X195032590Y-55577517D01*
X195026104Y-55585527D01*
X194906098Y-55761449D01*
X194901000Y-55770423D01*
X194811338Y-55963583D01*
X194807775Y-55973270D01*
X194752389Y-56172983D01*
X177429231Y-56172983D01*
X177472766Y-56064687D01*
X177472767Y-56064685D01*
X177475601Y-56057634D01*
X177499490Y-55889778D01*
X177499645Y-55875000D01*
X177497840Y-55860080D01*
X177480188Y-55714220D01*
X177479276Y-55706680D01*
X177419345Y-55548077D01*
X177359309Y-55460724D01*
X177327614Y-55414608D01*
X177327613Y-55414607D01*
X177323312Y-55408349D01*
X177239663Y-55333820D01*
X177202107Y-55273570D01*
X177203088Y-55202580D01*
X177241652Y-55143933D01*
X177307648Y-55087567D01*
X177307651Y-55087564D01*
X177313423Y-55082634D01*
X177412361Y-54944947D01*
X177437248Y-54883039D01*
X177472766Y-54794687D01*
X177472767Y-54794685D01*
X177475601Y-54787634D01*
X177499490Y-54619778D01*
X177499645Y-54605000D01*
X177479276Y-54436680D01*
X177419345Y-54278077D01*
X177323312Y-54138349D01*
X177228096Y-54053514D01*
X177202392Y-54030612D01*
X177202388Y-54030610D01*
X177196721Y-54025560D01*
X177046881Y-53946224D01*
X176882441Y-53904919D01*
X176874843Y-53904879D01*
X176874841Y-53904879D01*
X176797668Y-53904475D01*
X176712895Y-53904031D01*
X176705508Y-53905805D01*
X176705504Y-53905805D01*
X176645799Y-53920140D01*
X176616308Y-53927220D01*
X176545401Y-53923674D01*
X176487667Y-53882355D01*
X176476373Y-53865209D01*
X176468787Y-53851353D01*
X176392285Y-53749276D01*
X176379724Y-53736715D01*
X176277649Y-53660214D01*
X176262054Y-53651676D01*
X176141606Y-53606522D01*
X176126351Y-53602895D01*
X176075486Y-53597369D01*
X176068672Y-53597000D01*
X175796115Y-53597000D01*
X175780876Y-53601475D01*
X175779671Y-53602865D01*
X175778000Y-53610548D01*
X175778000Y-54733000D01*
X175757998Y-54801121D01*
X175704342Y-54847614D01*
X175652000Y-54859000D01*
X174534116Y-54859000D01*
X174518877Y-54863475D01*
X174517672Y-54864865D01*
X174516001Y-54872548D01*
X174516001Y-55149669D01*
X173736000Y-55149669D01*
X173736000Y-54332885D01*
X174516000Y-54332885D01*
X174520475Y-54348124D01*
X174521865Y-54349329D01*
X174529548Y-54351000D01*
X175251885Y-54351000D01*
X175267124Y-54346525D01*
X175268329Y-54345135D01*
X175270000Y-54337452D01*
X175270000Y-53615116D01*
X175265525Y-53599877D01*
X175264135Y-53598672D01*
X175256452Y-53597001D01*
X174979331Y-53597001D01*
X174972510Y-53597371D01*
X174921648Y-53602895D01*
X174906396Y-53606521D01*
X174785946Y-53651676D01*
X174770351Y-53660214D01*
X174668276Y-53736715D01*
X174655715Y-53749276D01*
X174579214Y-53851351D01*
X174570676Y-53866946D01*
X174525522Y-53987394D01*
X174521895Y-54002649D01*
X174516369Y-54053514D01*
X174516000Y-54060328D01*
X174516000Y-54332885D01*
X173736000Y-54332885D01*
X173736000Y-53179361D01*
X182964500Y-53179361D01*
X182979956Y-53296762D01*
X183040464Y-53442841D01*
X183136718Y-53568282D01*
X183262159Y-53664536D01*
X183408238Y-53725044D01*
X183565000Y-53745682D01*
X183573188Y-53744604D01*
X183713574Y-53726122D01*
X183721762Y-53725044D01*
X183867841Y-53664536D01*
X183993282Y-53568282D01*
X184080479Y-53454645D01*
X184089536Y-53442841D01*
X184092201Y-53444886D01*
X184132250Y-53406691D01*
X184201962Y-53393246D01*
X184267876Y-53419625D01*
X184288980Y-53443980D01*
X184290464Y-53442841D01*
X184299522Y-53454645D01*
X184386718Y-53568282D01*
X184512159Y-53664536D01*
X184658238Y-53725044D01*
X184815000Y-53745682D01*
X184823188Y-53744604D01*
X184963574Y-53726122D01*
X184971762Y-53725044D01*
X185117841Y-53664536D01*
X185243282Y-53568282D01*
X185330479Y-53454645D01*
X185339536Y-53442841D01*
X185342201Y-53444886D01*
X185382250Y-53406691D01*
X185451962Y-53393246D01*
X185517876Y-53419625D01*
X185538980Y-53443980D01*
X185540464Y-53442841D01*
X185549522Y-53454645D01*
X185636718Y-53568282D01*
X185762159Y-53664536D01*
X185908238Y-53725044D01*
X186065000Y-53745682D01*
X186073188Y-53744604D01*
X186213574Y-53726122D01*
X186221762Y-53725044D01*
X186367841Y-53664536D01*
X186493282Y-53568282D01*
X186580479Y-53454645D01*
X186589536Y-53442841D01*
X186592201Y-53444886D01*
X186632250Y-53406691D01*
X186701962Y-53393246D01*
X186767876Y-53419625D01*
X186788980Y-53443980D01*
X186790464Y-53442841D01*
X186799522Y-53454645D01*
X186886718Y-53568282D01*
X187012159Y-53664536D01*
X187158238Y-53725044D01*
X187315000Y-53745682D01*
X187323188Y-53744604D01*
X187463574Y-53726122D01*
X187471762Y-53725044D01*
X187617841Y-53664536D01*
X187743282Y-53568282D01*
X187830479Y-53454645D01*
X187839536Y-53442841D01*
X187842201Y-53444886D01*
X187882250Y-53406691D01*
X187951962Y-53393246D01*
X188017876Y-53419625D01*
X188038980Y-53443980D01*
X188040464Y-53442841D01*
X188049522Y-53454645D01*
X188136718Y-53568282D01*
X188262159Y-53664536D01*
X188408238Y-53725044D01*
X188565000Y-53745682D01*
X188573188Y-53744604D01*
X188713574Y-53726122D01*
X188721762Y-53725044D01*
X188867841Y-53664536D01*
X188993282Y-53568282D01*
X189045114Y-53500734D01*
X189102451Y-53458867D01*
X189173322Y-53454645D01*
X189235225Y-53489409D01*
X189257343Y-53520234D01*
X189286950Y-53578342D01*
X189376658Y-53668050D01*
X189489696Y-53725646D01*
X189499485Y-53727196D01*
X189499487Y-53727197D01*
X189526849Y-53731530D01*
X189583481Y-53740500D01*
X189814953Y-53740500D01*
X190046518Y-53740499D01*
X190051412Y-53739724D01*
X190130506Y-53727198D01*
X190130508Y-53727197D01*
X190140304Y-53725646D01*
X190253342Y-53668050D01*
X190343050Y-53578342D01*
X190400646Y-53465304D01*
X190404024Y-53443980D01*
X190409929Y-53406691D01*
X190415500Y-53371519D01*
X190415499Y-52408482D01*
X190405412Y-52344789D01*
X190402198Y-52324494D01*
X190402197Y-52324492D01*
X190400646Y-52314696D01*
X190395984Y-52305545D01*
X190372657Y-52259765D01*
X190343050Y-52201658D01*
X190253342Y-52111950D01*
X190140304Y-52054354D01*
X190130515Y-52052804D01*
X190130513Y-52052803D01*
X190103151Y-52048470D01*
X190046519Y-52039500D01*
X189815047Y-52039500D01*
X189583482Y-52039501D01*
X189578589Y-52040276D01*
X189578588Y-52040276D01*
X189499494Y-52052802D01*
X189499492Y-52052803D01*
X189489696Y-52054354D01*
X189376658Y-52111950D01*
X189286950Y-52201658D01*
X189257343Y-52259765D01*
X189208595Y-52311380D01*
X189139680Y-52328446D01*
X189072478Y-52305545D01*
X189045113Y-52279266D01*
X189030150Y-52259765D01*
X188993282Y-52211718D01*
X188867841Y-52115464D01*
X188721762Y-52054956D01*
X188565000Y-52034318D01*
X188408238Y-52054956D01*
X188262159Y-52115464D01*
X188136718Y-52211718D01*
X188040464Y-52337159D01*
X188037799Y-52335114D01*
X187997750Y-52373309D01*
X187928038Y-52386754D01*
X187862124Y-52360375D01*
X187841020Y-52336020D01*
X187839536Y-52337159D01*
X187748305Y-52218264D01*
X187748304Y-52218263D01*
X187743282Y-52211718D01*
X187617841Y-52115464D01*
X187471762Y-52054956D01*
X187315000Y-52034318D01*
X187158238Y-52054956D01*
X187012159Y-52115464D01*
X186886718Y-52211718D01*
X186790464Y-52337159D01*
X186787799Y-52335114D01*
X186747750Y-52373309D01*
X186678038Y-52386754D01*
X186612124Y-52360375D01*
X186591020Y-52336020D01*
X186589536Y-52337159D01*
X186498305Y-52218264D01*
X186498304Y-52218263D01*
X186493282Y-52211718D01*
X186367841Y-52115464D01*
X186221762Y-52054956D01*
X186065000Y-52034318D01*
X185908238Y-52054956D01*
X185762159Y-52115464D01*
X185636718Y-52211718D01*
X185540464Y-52337159D01*
X185537799Y-52335114D01*
X185497750Y-52373309D01*
X185428038Y-52386754D01*
X185362124Y-52360375D01*
X185341020Y-52336020D01*
X185339536Y-52337159D01*
X185248305Y-52218264D01*
X185248304Y-52218263D01*
X185243282Y-52211718D01*
X185117841Y-52115464D01*
X184971762Y-52054956D01*
X184815000Y-52034318D01*
X184658238Y-52054956D01*
X184512159Y-52115464D01*
X184386718Y-52211718D01*
X184290464Y-52337159D01*
X184287799Y-52335114D01*
X184247750Y-52373309D01*
X184178038Y-52386754D01*
X184112124Y-52360375D01*
X184091020Y-52336020D01*
X184089536Y-52337159D01*
X183998305Y-52218264D01*
X183998304Y-52218263D01*
X183993282Y-52211718D01*
X183867841Y-52115464D01*
X183721762Y-52054956D01*
X183565000Y-52034318D01*
X183408238Y-52054956D01*
X183262159Y-52115464D01*
X183136718Y-52211718D01*
X183040464Y-52337159D01*
X182979956Y-52483238D01*
X182964500Y-52600639D01*
X182964500Y-53179361D01*
X173736000Y-53179361D01*
X173736000Y-50683841D01*
X173756002Y-50615720D01*
X173809658Y-50569227D01*
X173862000Y-50557841D01*
X198758653Y-50557841D01*
X198826774Y-50577843D01*
G37*
%TD.AperFunction*%
%TD*%
M02*
