%TF.GenerationSoftware,KiCad,Pcbnew,(6.0.8)*%
%TF.CreationDate,2024-11-24T14:11:02+01:00*%
%TF.ProjectId,WHEEL-07,57484545-4c2d-4303-972e-6b696361645f,rev?*%
%TF.SameCoordinates,Original*%
%TF.FileFunction,Copper,L1,Top*%
%TF.FilePolarity,Positive*%
%FSLAX46Y46*%
G04 Gerber Fmt 4.6, Leading zero omitted, Abs format (unit mm)*
G04 Created by KiCad (PCBNEW (6.0.8)) date 2024-11-24 14:11:02*
%MOMM*%
%LPD*%
G01*
G04 APERTURE LIST*
G04 Aperture macros list*
%AMRoundRect*
0 Rectangle with rounded corners*
0 $1 Rounding radius*
0 $2 $3 $4 $5 $6 $7 $8 $9 X,Y pos of 4 corners*
0 Add a 4 corners polygon primitive as box body*
4,1,4,$2,$3,$4,$5,$6,$7,$8,$9,$2,$3,0*
0 Add four circle primitives for the rounded corners*
1,1,$1+$1,$2,$3*
1,1,$1+$1,$4,$5*
1,1,$1+$1,$6,$7*
1,1,$1+$1,$8,$9*
0 Add four rect primitives between the rounded corners*
20,1,$1+$1,$2,$3,$4,$5,0*
20,1,$1+$1,$4,$5,$6,$7,0*
20,1,$1+$1,$6,$7,$8,$9,0*
20,1,$1+$1,$8,$9,$2,$3,0*%
G04 Aperture macros list end*
%TA.AperFunction,SMDPad,CuDef*%
%ADD10RoundRect,0.250000X-0.450000X0.262500X-0.450000X-0.262500X0.450000X-0.262500X0.450000X0.262500X0*%
%TD*%
%TA.AperFunction,SMDPad,CuDef*%
%ADD11RoundRect,0.155000X0.155000X-0.212500X0.155000X0.212500X-0.155000X0.212500X-0.155000X-0.212500X0*%
%TD*%
%TA.AperFunction,SMDPad,CuDef*%
%ADD12R,0.850000X0.300000*%
%TD*%
%TA.AperFunction,SMDPad,CuDef*%
%ADD13R,1.700000X2.500000*%
%TD*%
%TA.AperFunction,ComponentPad*%
%ADD14RoundRect,0.250000X0.350000X0.650000X-0.350000X0.650000X-0.350000X-0.650000X0.350000X-0.650000X0*%
%TD*%
%TA.AperFunction,ComponentPad*%
%ADD15O,1.200000X1.800000*%
%TD*%
%TA.AperFunction,ComponentPad*%
%ADD16RoundRect,0.200000X-0.450000X0.200000X-0.450000X-0.200000X0.450000X-0.200000X0.450000X0.200000X0*%
%TD*%
%TA.AperFunction,ComponentPad*%
%ADD17O,1.300000X0.800000*%
%TD*%
%TA.AperFunction,ComponentPad*%
%ADD18RoundRect,0.200000X0.200000X0.450000X-0.200000X0.450000X-0.200000X-0.450000X0.200000X-0.450000X0*%
%TD*%
%TA.AperFunction,ComponentPad*%
%ADD19O,0.800000X1.300000*%
%TD*%
%TA.AperFunction,SMDPad,CuDef*%
%ADD20RoundRect,0.140000X0.170000X-0.140000X0.170000X0.140000X-0.170000X0.140000X-0.170000X-0.140000X0*%
%TD*%
%TA.AperFunction,SMDPad,CuDef*%
%ADD21RoundRect,0.150000X0.825000X0.150000X-0.825000X0.150000X-0.825000X-0.150000X0.825000X-0.150000X0*%
%TD*%
%TA.AperFunction,SMDPad,CuDef*%
%ADD22RoundRect,0.160000X-0.160000X0.197500X-0.160000X-0.197500X0.160000X-0.197500X0.160000X0.197500X0*%
%TD*%
%TA.AperFunction,SMDPad,CuDef*%
%ADD23RoundRect,0.250000X0.475000X-0.250000X0.475000X0.250000X-0.475000X0.250000X-0.475000X-0.250000X0*%
%TD*%
%TA.AperFunction,SMDPad,CuDef*%
%ADD24RoundRect,0.155000X-0.040659X-0.259862X0.259862X0.040659X0.040659X0.259862X-0.259862X-0.040659X0*%
%TD*%
%TA.AperFunction,SMDPad,CuDef*%
%ADD25R,1.250000X0.600000*%
%TD*%
%TA.AperFunction,SMDPad,CuDef*%
%ADD26RoundRect,0.155000X0.212500X0.155000X-0.212500X0.155000X-0.212500X-0.155000X0.212500X-0.155000X0*%
%TD*%
%TA.AperFunction,SMDPad,CuDef*%
%ADD27RoundRect,0.155000X0.040659X0.259862X-0.259862X-0.040659X-0.040659X-0.259862X0.259862X0.040659X0*%
%TD*%
%TA.AperFunction,SMDPad,CuDef*%
%ADD28R,1.500000X2.200000*%
%TD*%
%TA.AperFunction,SMDPad,CuDef*%
%ADD29RoundRect,0.075000X-0.441942X-0.548008X0.548008X0.441942X0.441942X0.548008X-0.548008X-0.441942X0*%
%TD*%
%TA.AperFunction,SMDPad,CuDef*%
%ADD30RoundRect,0.075000X0.441942X-0.548008X0.548008X-0.441942X-0.441942X0.548008X-0.548008X0.441942X0*%
%TD*%
%TA.AperFunction,SMDPad,CuDef*%
%ADD31RoundRect,0.155000X-0.155000X0.212500X-0.155000X-0.212500X0.155000X-0.212500X0.155000X0.212500X0*%
%TD*%
%TA.AperFunction,ComponentPad*%
%ADD32R,1.700000X1.700000*%
%TD*%
%TA.AperFunction,ComponentPad*%
%ADD33O,1.700000X1.700000*%
%TD*%
%TA.AperFunction,SMDPad,CuDef*%
%ADD34R,0.600000X0.450000*%
%TD*%
%TA.AperFunction,SMDPad,CuDef*%
%ADD35RoundRect,0.243750X-0.456250X0.243750X-0.456250X-0.243750X0.456250X-0.243750X0.456250X0.243750X0*%
%TD*%
%TA.AperFunction,SMDPad,CuDef*%
%ADD36RoundRect,0.243750X-0.243750X-0.456250X0.243750X-0.456250X0.243750X0.456250X-0.243750X0.456250X0*%
%TD*%
%TA.AperFunction,SMDPad,CuDef*%
%ADD37RoundRect,0.225000X-0.250000X0.225000X-0.250000X-0.225000X0.250000X-0.225000X0.250000X0.225000X0*%
%TD*%
%TA.AperFunction,SMDPad,CuDef*%
%ADD38RoundRect,0.160000X0.160000X-0.197500X0.160000X0.197500X-0.160000X0.197500X-0.160000X-0.197500X0*%
%TD*%
%TA.AperFunction,SMDPad,CuDef*%
%ADD39R,0.800000X0.900000*%
%TD*%
%TA.AperFunction,SMDPad,CuDef*%
%ADD40R,1.000000X1.800000*%
%TD*%
%TA.AperFunction,SMDPad,CuDef*%
%ADD41RoundRect,0.155000X-0.212500X-0.155000X0.212500X-0.155000X0.212500X0.155000X-0.212500X0.155000X0*%
%TD*%
%TA.AperFunction,SMDPad,CuDef*%
%ADD42RoundRect,0.150000X0.150000X-0.587500X0.150000X0.587500X-0.150000X0.587500X-0.150000X-0.587500X0*%
%TD*%
%TA.AperFunction,ComponentPad*%
%ADD43R,1.000000X1.000000*%
%TD*%
%TA.AperFunction,ComponentPad*%
%ADD44O,1.000000X1.000000*%
%TD*%
%TA.AperFunction,SMDPad,CuDef*%
%ADD45RoundRect,0.160000X0.197500X0.160000X-0.197500X0.160000X-0.197500X-0.160000X0.197500X-0.160000X0*%
%TD*%
%TA.AperFunction,SMDPad,CuDef*%
%ADD46R,1.800000X2.500000*%
%TD*%
%TA.AperFunction,SMDPad,CuDef*%
%ADD47RoundRect,0.243750X0.243750X0.456250X-0.243750X0.456250X-0.243750X-0.456250X0.243750X-0.456250X0*%
%TD*%
%TA.AperFunction,ComponentPad*%
%ADD48RoundRect,0.250000X0.650000X-0.350000X0.650000X0.350000X-0.650000X0.350000X-0.650000X-0.350000X0*%
%TD*%
%TA.AperFunction,ComponentPad*%
%ADD49O,1.800000X1.200000*%
%TD*%
%TA.AperFunction,ViaPad*%
%ADD50C,0.800000*%
%TD*%
%TA.AperFunction,ViaPad*%
%ADD51C,0.600000*%
%TD*%
%TA.AperFunction,Conductor*%
%ADD52C,0.250000*%
%TD*%
%TA.AperFunction,Conductor*%
%ADD53C,0.500000*%
%TD*%
%TA.AperFunction,Conductor*%
%ADD54C,0.600000*%
%TD*%
%TA.AperFunction,Conductor*%
%ADD55C,0.800000*%
%TD*%
G04 APERTURE END LIST*
D10*
%TO.P,R7,1*%
%TO.N,+3.3V*%
X181000000Y-77975000D03*
%TO.P,R7,2*%
%TO.N,Net-(J12-Pad1)*%
X181000000Y-79800000D03*
%TD*%
D11*
%TO.P,C21,2*%
%TO.N,+5V*%
X170000000Y-59632500D03*
%TO.P,C21,1*%
%TO.N,GND*%
X170000000Y-60767500D03*
%TD*%
%TO.P,C20,2*%
%TO.N,+5V*%
X170000000Y-53832500D03*
%TO.P,C20,1*%
%TO.N,GND*%
X170000000Y-54967500D03*
%TD*%
D12*
%TO.P,IC1,1,GND*%
%TO.N,GND*%
X161677400Y-80126800D03*
%TO.P,IC1,2,EN*%
%TO.N,+12V*%
X161677400Y-81076800D03*
%TO.P,IC1,3,VIN*%
X161677400Y-82026800D03*
%TO.P,IC1,4,VOUT*%
%TO.N,/POWER/3V3PREFUSE*%
X164577400Y-82026800D03*
%TO.P,IC1,5,VSENSE*%
X164577400Y-81076800D03*
%TO.P,IC1,6,ADJ/NC*%
%TO.N,unconnected-(IC1-Pad6)*%
X164577400Y-80126800D03*
D13*
%TO.P,IC1,7,EP*%
%TO.N,GND*%
X163127400Y-81076800D03*
%TD*%
D14*
%TO.P,J5,1,Pin_1*%
%TO.N,PADDLE1_IN*%
X195405000Y-78930000D03*
D15*
%TO.P,J5,2,Pin_2*%
%TO.N,GND*%
X193405000Y-78930000D03*
%TO.P,J5,3,Pin_3*%
%TO.N,PADDLE2_IN*%
X191405000Y-78930000D03*
%TO.P,J5,4,Pin_4*%
%TO.N,GND*%
X189405000Y-78930000D03*
%TD*%
D12*
%TO.P,IC2,1,GND_1*%
%TO.N,GND*%
X152889000Y-54062000D03*
%TO.P,IC2,2,EN*%
%TO.N,+12V*%
X152889000Y-55012000D03*
%TO.P,IC2,3,VIN*%
X152889000Y-55962000D03*
%TO.P,IC2,4,VOUT*%
%TO.N,/POWER/5VPREFUSE*%
X155789000Y-55962000D03*
%TO.P,IC2,5,VSENSE*%
X155789000Y-55012000D03*
%TO.P,IC2,6,ADJ*%
%TO.N,unconnected-(IC2-Pad6)*%
X155789000Y-54062000D03*
D13*
%TO.P,IC2,7,GND_2*%
%TO.N,GND*%
X154339000Y-55012000D03*
%TD*%
D16*
%TO.P,J7,1,Pin_1*%
%TO.N,GND*%
X197358000Y-73152000D03*
D17*
%TO.P,J7,2,Pin_2*%
%TO.N,GPIO_3*%
X197358000Y-74402000D03*
%TD*%
D18*
%TO.P,J17,1,Pin_1*%
%TO.N,TIM3_CH1*%
X189815000Y-52890000D03*
D19*
%TO.P,J17,2,Pin_2*%
%TO.N,TIM3_CH2*%
X188565000Y-52890000D03*
%TO.P,J17,3,Pin_3*%
%TO.N,TIM3_CH3*%
X187315000Y-52890000D03*
%TO.P,J17,4,Pin_4*%
%TO.N,TIM1_CH1*%
X186065000Y-52890000D03*
%TO.P,J17,5,Pin_5*%
%TO.N,TIM1_CH2*%
X184815000Y-52890000D03*
%TO.P,J17,6,Pin_6*%
%TO.N,TIM1_CH3*%
X183565000Y-52890000D03*
%TD*%
D20*
%TO.P,C17,1*%
%TO.N,Net-(C17-Pad1)*%
X159000000Y-75880000D03*
%TO.P,C17,2*%
%TO.N,GND*%
X159000000Y-74920000D03*
%TD*%
D21*
%TO.P,U2,1,TXD*%
%TO.N,CAN1_TX*%
X168083000Y-62103000D03*
%TO.P,U2,2,VSS*%
%TO.N,GND*%
X168083000Y-60833000D03*
%TO.P,U2,3,VDD*%
%TO.N,+5V*%
X168083000Y-59563000D03*
%TO.P,U2,4,RXD*%
%TO.N,CAN1_RX*%
X168083000Y-58293000D03*
%TO.P,U2,5,SPLIT*%
%TO.N,unconnected-(U2-Pad5)*%
X163133000Y-58293000D03*
%TO.P,U2,6,CANL*%
%TO.N,/CAN_BUS/CAN1_L*%
X163133000Y-59563000D03*
%TO.P,U2,7,CANH*%
%TO.N,/CAN_BUS/CAN1_H*%
X163133000Y-60833000D03*
%TO.P,U2,8,STBY*%
%TO.N,GND*%
X163133000Y-62103000D03*
%TD*%
D22*
%TO.P,R18,1*%
%TO.N,ADC_A3*%
X172219256Y-77889544D03*
%TO.P,R18,2*%
%TO.N,Net-(C27-Pad1)*%
X172219256Y-79084544D03*
%TD*%
D23*
%TO.P,C13,1*%
%TO.N,+12V*%
X150529000Y-56322000D03*
%TO.P,C13,2*%
%TO.N,GND*%
X150529000Y-54422000D03*
%TD*%
D22*
%TO.P,R16,1*%
%TO.N,ADC_A1*%
X169621200Y-77895072D03*
%TO.P,R16,2*%
%TO.N,Net-(C25-Pad1)*%
X169621200Y-79090072D03*
%TD*%
%TO.P,R6,1*%
%TO.N,/CAN_BUS/CAN2_L*%
X158900000Y-58502500D03*
%TO.P,R6,2*%
%TO.N,/CAN_BUS/CAN2_H*%
X158900000Y-59697500D03*
%TD*%
D24*
%TO.P,C35,1*%
%TO.N,+3.3V*%
X179207234Y-57977966D03*
%TO.P,C35,2*%
%TO.N,GND*%
X180009800Y-57175400D03*
%TD*%
D21*
%TO.P,U3,1,TXD*%
%TO.N,CAN2_TX*%
X168083000Y-56261000D03*
%TO.P,U3,2,VSS*%
%TO.N,GND*%
X168083000Y-54991000D03*
%TO.P,U3,3,VDD*%
%TO.N,+5V*%
X168083000Y-53721000D03*
%TO.P,U3,4,RXD*%
%TO.N,CAN2_RX*%
X168083000Y-52451000D03*
%TO.P,U3,5,SPLIT*%
%TO.N,unconnected-(U3-Pad5)*%
X163133000Y-52451000D03*
%TO.P,U3,6,CANL*%
%TO.N,/CAN_BUS/CAN2_L*%
X163133000Y-53721000D03*
%TO.P,U3,7,CANH*%
%TO.N,/CAN_BUS/CAN2_H*%
X163133000Y-54991000D03*
%TO.P,U3,8,STBY*%
%TO.N,GND*%
X163133000Y-56261000D03*
%TD*%
D25*
%TO.P,IC4,1,A1*%
%TO.N,Net-(C23-Pad1)*%
X187198000Y-75692000D03*
%TO.P,IC4,2,GND*%
%TO.N,GND*%
X187198000Y-74742000D03*
%TO.P,IC4,3,IN_A2*%
%TO.N,Net-(C24-Pad1)*%
X187198000Y-73792000D03*
%TO.P,IC4,4,Y2*%
%TO.N,GPIO_2*%
X184698000Y-73792000D03*
%TO.P,IC4,5,VCC*%
%TO.N,+3.3V*%
X184698000Y-74742000D03*
%TO.P,IC4,6,Y1*%
%TO.N,GPIO_1*%
X184698000Y-75692000D03*
%TD*%
D26*
%TO.P,C4,1*%
%TO.N,OSC_OUT*%
X169883900Y-74472800D03*
%TO.P,C4,2*%
%TO.N,GND*%
X168748900Y-74472800D03*
%TD*%
D24*
%TO.P,C37,1*%
%TO.N,+3.3V*%
X186212517Y-68549483D03*
%TO.P,C37,2*%
%TO.N,GND*%
X187015083Y-67746917D03*
%TD*%
D27*
%TO.P,C36,1*%
%TO.N,+3.3V*%
X181096883Y-74223917D03*
%TO.P,C36,2*%
%TO.N,GND*%
X180294317Y-75026483D03*
%TD*%
D28*
%TO.P,L2,1*%
%TO.N,+12V*%
X150800000Y-78800000D03*
%TO.P,L2,2*%
%TO.N,Net-(C17-Pad1)*%
X157200000Y-78800000D03*
%TD*%
D20*
%TO.P,C18,1*%
%TO.N,Net-(C17-Pad1)*%
X160200000Y-75880000D03*
%TO.P,C18,2*%
%TO.N,GND*%
X160200000Y-74920000D03*
%TD*%
D29*
%TO.P,U1,1,VBAT*%
%TO.N,+3.3V*%
X170591700Y-68356700D03*
%TO.P,U1,2,PC13*%
%TO.N,LED_STATUS*%
X170945253Y-68710253D03*
%TO.P,U1,3,PC14*%
%TO.N,OSC32_IN*%
X171298806Y-69063806D03*
%TO.P,U1,4,PC15*%
%TO.N,OSC32_OUT*%
X171652360Y-69417360D03*
%TO.P,U1,5,PH0*%
%TO.N,OSC_IN*%
X172005913Y-69770913D03*
%TO.P,U1,6,PH1*%
%TO.N,OSC_OUT*%
X172359467Y-70124467D03*
%TO.P,U1,7,NRST*%
%TO.N,NRST*%
X172713020Y-70478020D03*
%TO.P,U1,8,PC0*%
%TO.N,ADC_A1*%
X173066573Y-70831573D03*
%TO.P,U1,9,PC1*%
%TO.N,ADC_A2*%
X173420127Y-71185127D03*
%TO.P,U1,10,PC2*%
%TO.N,ADC_A3*%
X173773680Y-71538680D03*
%TO.P,U1,11,PC3*%
%TO.N,ADC_A4*%
X174127233Y-71892233D03*
%TO.P,U1,12,VSSA*%
%TO.N,GND*%
X174480787Y-72245787D03*
%TO.P,U1,13,VDDA*%
%TO.N,+3.3VA*%
X174834340Y-72599340D03*
%TO.P,U1,14,PA0*%
%TO.N,ADC_B1*%
X175187894Y-72952894D03*
%TO.P,U1,15,PA1*%
%TO.N,ADC_B2*%
X175541447Y-73306447D03*
%TO.P,U1,16,PA2*%
%TO.N,ADC_B3*%
X175895000Y-73660000D03*
D30*
%TO.P,U1,17,PA3*%
%TO.N,ADC_B4*%
X178617362Y-73660000D03*
%TO.P,U1,18,VSS*%
%TO.N,GND*%
X178970915Y-73306447D03*
%TO.P,U1,19,VDD*%
%TO.N,+3.3V*%
X179324468Y-72952894D03*
%TO.P,U1,20,PA4*%
%TO.N,GPIO_1*%
X179678022Y-72599340D03*
%TO.P,U1,21,PA5*%
%TO.N,GPIO_2*%
X180031575Y-72245787D03*
%TO.P,U1,22,PA6*%
%TO.N,GPIO_3*%
X180385129Y-71892233D03*
%TO.P,U1,23,PA7*%
%TO.N,GPIO_4*%
X180738682Y-71538680D03*
%TO.P,U1,24,PC4*%
%TO.N,GPIO_5*%
X181092235Y-71185127D03*
%TO.P,U1,25,PC5*%
%TO.N,GPIO_6*%
X181445789Y-70831573D03*
%TO.P,U1,26,PB0*%
%TO.N,GPIO_7*%
X181799342Y-70478020D03*
%TO.P,U1,27,PB1*%
%TO.N,GPIO_8*%
X182152895Y-70124467D03*
%TO.P,U1,28,PB2*%
%TO.N,unconnected-(U1-Pad28)*%
X182506449Y-69770913D03*
%TO.P,U1,29,PB10*%
%TO.N,I2C2_SCL*%
X182860002Y-69417360D03*
%TO.P,U1,30,PB11*%
%TO.N,I2C2_SDA*%
X183213556Y-69063806D03*
%TO.P,U1,31,VCAP_1*%
%TO.N,Net-(C1-Pad1)*%
X183567109Y-68710253D03*
%TO.P,U1,32,VDD*%
%TO.N,+3.3V*%
X183920662Y-68356700D03*
D29*
%TO.P,U1,33,PB12*%
%TO.N,SPI_CS*%
X183920662Y-65634338D03*
%TO.P,U1,34,PB13*%
%TO.N,SPI2_SCK*%
X183567109Y-65280785D03*
%TO.P,U1,35,PB14*%
%TO.N,SPI2_MISO*%
X183213556Y-64927232D03*
%TO.P,U1,36,PB15*%
%TO.N,SPI2_MOSI*%
X182860002Y-64573678D03*
%TO.P,U1,37,PC6*%
%TO.N,TIM3_CH1*%
X182506449Y-64220125D03*
%TO.P,U1,38,PC7*%
%TO.N,TIM3_CH2*%
X182152895Y-63866571D03*
%TO.P,U1,39,PC8*%
%TO.N,TIM3_CH3*%
X181799342Y-63513018D03*
%TO.P,U1,40,PC9*%
%TO.N,unconnected-(U1-Pad40)*%
X181445789Y-63159465D03*
%TO.P,U1,41,PA8*%
%TO.N,TIM1_CH1*%
X181092235Y-62805911D03*
%TO.P,U1,42,PA9*%
%TO.N,TIM1_CH2*%
X180738682Y-62452358D03*
%TO.P,U1,43,PA10*%
%TO.N,TIM1_CH3*%
X180385129Y-62098805D03*
%TO.P,U1,44,PA11*%
%TO.N,unconnected-(U1-Pad44)*%
X180031575Y-61745251D03*
%TO.P,U1,45,PA12*%
%TO.N,unconnected-(U1-Pad45)*%
X179678022Y-61391698D03*
%TO.P,U1,46,PA13*%
%TO.N,SWDIO*%
X179324468Y-61038144D03*
%TO.P,U1,47,VCAP_2*%
%TO.N,Net-(C2-Pad1)*%
X178970915Y-60684591D03*
%TO.P,U1,48,VDD*%
%TO.N,+3.3V*%
X178617362Y-60331038D03*
D30*
%TO.P,U1,49,PA14*%
%TO.N,SWCLK*%
X175895000Y-60331038D03*
%TO.P,U1,50,PA15*%
%TO.N,unconnected-(U1-Pad50)*%
X175541447Y-60684591D03*
%TO.P,U1,51,PC10*%
%TO.N,USART_TX*%
X175187894Y-61038144D03*
%TO.P,U1,52,PC11*%
%TO.N,USART_RX*%
X174834340Y-61391698D03*
%TO.P,U1,53,PC12*%
%TO.N,USART_CK*%
X174480787Y-61745251D03*
%TO.P,U1,54,PD2*%
%TO.N,unconnected-(U1-Pad54)*%
X174127233Y-62098805D03*
%TO.P,U1,55,PB3*%
%TO.N,SWO*%
X173773680Y-62452358D03*
%TO.P,U1,56,PB4*%
%TO.N,unconnected-(U1-Pad56)*%
X173420127Y-62805911D03*
%TO.P,U1,57,PB5*%
%TO.N,CAN2_RX*%
X173066573Y-63159465D03*
%TO.P,U1,58,PB6*%
%TO.N,CAN2_TX*%
X172713020Y-63513018D03*
%TO.P,U1,59,PB7*%
%TO.N,unconnected-(U1-Pad59)*%
X172359467Y-63866571D03*
%TO.P,U1,60,BOOT0*%
%TO.N,BOOT0*%
X172005913Y-64220125D03*
%TO.P,U1,61,PB8*%
%TO.N,CAN1_RX*%
X171652360Y-64573678D03*
%TO.P,U1,62,PB9*%
%TO.N,CAN1_TX*%
X171298806Y-64927232D03*
%TO.P,U1,63,VSS*%
%TO.N,GND*%
X170945253Y-65280785D03*
%TO.P,U1,64,VDD*%
%TO.N,+3.3V*%
X170591700Y-65634338D03*
%TD*%
D31*
%TO.P,C6,1*%
%TO.N,OSC32_OUT*%
X164465000Y-68393500D03*
%TO.P,C6,2*%
%TO.N,GND*%
X164465000Y-69528500D03*
%TD*%
D32*
%TO.P,J16,1,Pin_1*%
%TO.N,GND*%
X196088000Y-53898800D03*
D33*
%TO.P,J16,2,Pin_2*%
%TO.N,+3.3V*%
X196088000Y-56438800D03*
%TD*%
D34*
%TO.P,D2,1,K*%
%TO.N,+12V*%
X153128000Y-57912000D03*
%TO.P,D2,2,A*%
%TO.N,/POWER/5VPREFUSE*%
X155228000Y-57912000D03*
%TD*%
D22*
%TO.P,R24,1*%
%TO.N,ADC_A4*%
X173518284Y-77911656D03*
%TO.P,R24,2*%
%TO.N,Net-(C32-Pad1)*%
X173518284Y-79106656D03*
%TD*%
D23*
%TO.P,C16,1*%
%TO.N,+12V*%
X159500000Y-82128400D03*
%TO.P,C16,2*%
%TO.N,GND*%
X159500000Y-80228400D03*
%TD*%
D22*
%TO.P,R22,1*%
%TO.N,ADC_B3*%
X177415368Y-77922712D03*
%TO.P,R22,2*%
%TO.N,Net-(C30-Pad1)*%
X177415368Y-79117712D03*
%TD*%
D35*
%TO.P,F3,1*%
%TO.N,+3.3V*%
X166674800Y-78361300D03*
%TO.P,F3,2*%
%TO.N,/POWER/3V3PREFUSE*%
X166674800Y-80236300D03*
%TD*%
D36*
%TO.P,D1,1,K*%
%TO.N,GND*%
X162107400Y-65481200D03*
%TO.P,D1,2,A*%
%TO.N,Net-(D1-Pad2)*%
X163982400Y-65481200D03*
%TD*%
D37*
%TO.P,C14,1*%
%TO.N,/POWER/5VPREFUSE*%
X157400000Y-56050000D03*
%TO.P,C14,2*%
%TO.N,GND*%
X157400000Y-57600000D03*
%TD*%
D36*
%TO.P,FB1,1*%
%TO.N,Net-(C17-Pad1)*%
X161825000Y-76000000D03*
%TO.P,FB1,2*%
%TO.N,Net-(FB1-Pad2)*%
X163700000Y-76000000D03*
%TD*%
D37*
%TO.P,C19,1*%
%TO.N,/POWER/3V3PREFUSE*%
X166188400Y-82114800D03*
%TO.P,C19,2*%
%TO.N,GND*%
X166188400Y-83664800D03*
%TD*%
D38*
%TO.P,R4,1*%
%TO.N,/CAN_BUS/CAN1_H*%
X158900000Y-63747500D03*
%TO.P,R4,2*%
%TO.N,/CAN_BUS/CAN1_L*%
X158900000Y-62552500D03*
%TD*%
D24*
%TO.P,C34,1*%
%TO.N,+3.3V*%
X168666234Y-64912166D03*
%TO.P,C34,2*%
%TO.N,GND*%
X169468800Y-64109600D03*
%TD*%
D22*
%TO.P,R17,1*%
%TO.N,ADC_A2*%
X170920228Y-77884016D03*
%TO.P,R17,2*%
%TO.N,Net-(C26-Pad1)*%
X170920228Y-79079016D03*
%TD*%
D34*
%TO.P,D3,1,K*%
%TO.N,+12V*%
X161916400Y-84023200D03*
%TO.P,D3,2,A*%
%TO.N,/POWER/3V3PREFUSE*%
X164016400Y-84023200D03*
%TD*%
D16*
%TO.P,J14,1,Pin_1*%
%TO.N,GND*%
X197358000Y-62240000D03*
D17*
%TO.P,J14,2,Pin_2*%
%TO.N,GPIO_7*%
X197358000Y-63490000D03*
%TD*%
D16*
%TO.P,J10,1,Pin_1*%
%TO.N,GND*%
X192786000Y-67701000D03*
D17*
%TO.P,J10,2,Pin_2*%
%TO.N,GPIO_6*%
X192786000Y-68951000D03*
%TD*%
D39*
%TO.P,Y1,1,1*%
%TO.N,OSC_IN*%
X168766400Y-71486800D03*
%TO.P,Y1,2,2*%
%TO.N,GND*%
X168766400Y-72886800D03*
%TO.P,Y1,3,3*%
%TO.N,OSC_OUT*%
X169866400Y-72886800D03*
%TO.P,Y1,4,4*%
%TO.N,GND*%
X169866400Y-71486800D03*
%TD*%
D40*
%TO.P,Y2,1,1*%
%TO.N,OSC32_IN*%
X168636000Y-68834000D03*
%TO.P,Y2,2,2*%
%TO.N,OSC32_OUT*%
X166136000Y-68834000D03*
%TD*%
D41*
%TO.P,C5,1*%
%TO.N,OSC32_IN*%
X167862500Y-66929000D03*
%TO.P,C5,2*%
%TO.N,GND*%
X168997500Y-66929000D03*
%TD*%
D22*
%TO.P,R21,1*%
%TO.N,ADC_B2*%
X176116340Y-77917184D03*
%TO.P,R21,2*%
%TO.N,Net-(C29-Pad1)*%
X176116340Y-79112184D03*
%TD*%
%TO.P,R20,1*%
%TO.N,ADC_B1*%
X174817312Y-77906128D03*
%TO.P,R20,2*%
%TO.N,Net-(C28-Pad1)*%
X174817312Y-79101128D03*
%TD*%
D18*
%TO.P,J12,1,Pin_1*%
%TO.N,Net-(J12-Pad1)*%
X181357600Y-82346800D03*
D19*
%TO.P,J12,2,Pin_2*%
%TO.N,GND*%
X180107600Y-82346800D03*
%TO.P,J12,3,Pin_3*%
%TO.N,Net-(C31-Pad1)*%
X178857600Y-82346800D03*
%TO.P,J12,4,Pin_4*%
%TO.N,Net-(C30-Pad1)*%
X177607600Y-82346800D03*
%TO.P,J12,5,Pin_5*%
%TO.N,Net-(C29-Pad1)*%
X176357600Y-82346800D03*
%TO.P,J12,6,Pin_6*%
%TO.N,Net-(C28-Pad1)*%
X175107600Y-82346800D03*
%TO.P,J12,7,Pin_7*%
%TO.N,Net-(C32-Pad1)*%
X173857600Y-82346800D03*
%TO.P,J12,8,Pin_8*%
%TO.N,Net-(C27-Pad1)*%
X172607600Y-82346800D03*
%TO.P,J12,9,Pin_9*%
%TO.N,Net-(C26-Pad1)*%
X171357600Y-82346800D03*
%TO.P,J12,10,Pin_10*%
%TO.N,Net-(C25-Pad1)*%
X170107600Y-82346800D03*
%TD*%
D42*
%TO.P,Q1,1,G*%
%TO.N,GND*%
X161750000Y-73637500D03*
%TO.P,Q1,2,S*%
%TO.N,Net-(FB1-Pad2)*%
X163650000Y-73637500D03*
%TO.P,Q1,3,D*%
%TO.N,Net-(F1-Pad2)*%
X162700000Y-71762500D03*
%TD*%
D43*
%TO.P,J11,1,Pin_1*%
%TO.N,+3.3V*%
X175524000Y-54605000D03*
D44*
%TO.P,J11,2,Pin_2*%
%TO.N,GND*%
X176794000Y-54605000D03*
%TO.P,J11,3,Pin_3*%
%TO.N,unconnected-(J11-Pad3)*%
X175524000Y-55875000D03*
%TO.P,J11,4,Pin_4*%
%TO.N,NRST*%
X176794000Y-55875000D03*
%TO.P,J11,5,Pin_5*%
%TO.N,SWCLK*%
X175524000Y-57145000D03*
%TO.P,J11,6,Pin_6*%
%TO.N,SWDIO*%
X176794000Y-57145000D03*
%TD*%
D45*
%TO.P,R5,1*%
%TO.N,LED_STATUS*%
X166776400Y-65532000D03*
%TO.P,R5,2*%
%TO.N,Net-(D1-Pad2)*%
X165581400Y-65532000D03*
%TD*%
D16*
%TO.P,J8,1,Pin_1*%
%TO.N,GND*%
X192786000Y-73152000D03*
D17*
%TO.P,J8,2,Pin_2*%
%TO.N,GPIO_4*%
X192786000Y-74402000D03*
%TD*%
D24*
%TO.P,C1,1*%
%TO.N,Net-(C1-Pad1)*%
X187152317Y-69336883D03*
%TO.P,C1,2*%
%TO.N,GND*%
X187954883Y-68534317D03*
%TD*%
D16*
%TO.P,J9,1,Pin_1*%
%TO.N,GND*%
X197358000Y-67696000D03*
D17*
%TO.P,J9,2,Pin_2*%
%TO.N,GPIO_5*%
X197358000Y-68946000D03*
%TD*%
D22*
%TO.P,R23,1*%
%TO.N,ADC_B4*%
X178714400Y-77900600D03*
%TO.P,R23,2*%
%TO.N,Net-(C31-Pad1)*%
X178714400Y-79095600D03*
%TD*%
D26*
%TO.P,C3,1*%
%TO.N,OSC_IN*%
X167081200Y-71475600D03*
%TO.P,C3,2*%
%TO.N,GND*%
X165946200Y-71475600D03*
%TD*%
D35*
%TO.P,F1,1*%
%TO.N,12V_CONN*%
X162000000Y-67962500D03*
%TO.P,F1,2*%
%TO.N,Net-(F1-Pad2)*%
X162000000Y-69837500D03*
%TD*%
D16*
%TO.P,J15,1,Pin_1*%
%TO.N,GND*%
X192786000Y-62230000D03*
D17*
%TO.P,J15,2,Pin_2*%
%TO.N,GPIO_8*%
X192786000Y-63480000D03*
%TD*%
D46*
%TO.P,D4,1,A1*%
%TO.N,GND*%
X159000000Y-72700000D03*
%TO.P,D4,2,A2*%
%TO.N,12V_CONN*%
X159000000Y-68700000D03*
%TD*%
D24*
%TO.P,C2,1*%
%TO.N,Net-(C2-Pad1)*%
X180096234Y-58866966D03*
%TO.P,C2,2*%
%TO.N,GND*%
X180898800Y-58064400D03*
%TD*%
D43*
%TO.P,J2,1,Pin_1*%
%TO.N,I2C2_SCL*%
X188722000Y-64389000D03*
D44*
%TO.P,J2,2,Pin_2*%
%TO.N,I2C2_SDA*%
X188722000Y-63119000D03*
%TO.P,J2,3,Pin_3*%
%TO.N,SPI_CS*%
X188722000Y-61849000D03*
%TO.P,J2,4,Pin_4*%
%TO.N,SPI2_SCK*%
X188722000Y-60579000D03*
%TO.P,J2,5,Pin_5*%
%TO.N,SPI2_MISO*%
X188722000Y-59309000D03*
%TO.P,J2,6,Pin_6*%
%TO.N,SPI2_MOSI*%
X188722000Y-58039000D03*
%TD*%
D47*
%TO.P,F2,1*%
%TO.N,+5V*%
X159437500Y-54100000D03*
%TO.P,F2,2*%
%TO.N,/POWER/5VPREFUSE*%
X157562500Y-54100000D03*
%TD*%
D48*
%TO.P,J1,1,Pin_1*%
%TO.N,GND*%
X154953200Y-71675000D03*
D49*
%TO.P,J1,2,Pin_2*%
%TO.N,12V_CONN*%
X154953200Y-69675000D03*
%TO.P,J1,3,Pin_3*%
%TO.N,/CAN_BUS/CAN1_H*%
X154953200Y-67675000D03*
%TO.P,J1,4,Pin_4*%
%TO.N,/CAN_BUS/CAN1_L*%
X154953200Y-65675000D03*
%TO.P,J1,5,Pin_5*%
%TO.N,/CAN_BUS/CAN2_H*%
X154953200Y-63675000D03*
%TO.P,J1,6,Pin_6*%
%TO.N,/CAN_BUS/CAN2_L*%
X154953200Y-61675000D03*
%TD*%
D50*
%TO.N,+3.3V*%
X181400000Y-76800000D03*
X180500000Y-76800000D03*
%TO.N,GND*%
X155690000Y-80990000D03*
D51*
X169037000Y-66294000D03*
X153963332Y-52197000D03*
X169139678Y-77038072D03*
X166624000Y-55118000D03*
D50*
X188722000Y-83058000D03*
D51*
X163372800Y-78943200D03*
X163415000Y-78261800D03*
X154584400Y-52878400D03*
X157400000Y-58526800D03*
X161188400Y-65481200D03*
X162709532Y-78943200D03*
X152594600Y-52878400D03*
D50*
X155760000Y-76370000D03*
D51*
X172466000Y-60198000D03*
X165201600Y-71475600D03*
X153921132Y-52878400D03*
X164600000Y-56200000D03*
D50*
X155750000Y-73850000D03*
D51*
X153257866Y-52878400D03*
X179590539Y-77907639D03*
X163830000Y-69850000D03*
X161383000Y-78943200D03*
X181386517Y-57576683D03*
X179882800Y-70256400D03*
X170789600Y-71272400D03*
X162751732Y-78261800D03*
X166624000Y-60960000D03*
D50*
X193040000Y-83058000D03*
X160320000Y-72640000D03*
X157300000Y-72170000D03*
D51*
X161100000Y-73550000D03*
X161425200Y-78261800D03*
X164600000Y-62200000D03*
X180497517Y-56687683D03*
X188259800Y-67884800D03*
X169016717Y-63647283D03*
X167995600Y-73863200D03*
X166188400Y-84591600D03*
X187502800Y-67259200D03*
X153300066Y-52197000D03*
X152636800Y-52197000D03*
X176225200Y-67665600D03*
D50*
X188468000Y-74742000D03*
D51*
X162088466Y-78261800D03*
X175226422Y-71288273D03*
X180594000Y-75590400D03*
X154626600Y-52197000D03*
X160360000Y-74260000D03*
X174650400Y-70307200D03*
X158340000Y-74680000D03*
X162046266Y-78943200D03*
%TO.N,+3.3V*%
X165252400Y-77063600D03*
X168097200Y-77876400D03*
X168097200Y-78587600D03*
D50*
X195580000Y-83058000D03*
D51*
X181559200Y-74625200D03*
X167115066Y-77063600D03*
X177393600Y-68122800D03*
D50*
X183388000Y-74742000D03*
D51*
X179882800Y-67665600D03*
D50*
X191262000Y-83058000D03*
D51*
X189890400Y-66852800D03*
X174650400Y-66954400D03*
X178719517Y-57449683D03*
X168046400Y-77063600D03*
X166183733Y-77063600D03*
X185724800Y-68021200D03*
X165252400Y-78638400D03*
X168254717Y-64460083D03*
X165269800Y-77875100D03*
X184454800Y-66294000D03*
%TO.N,+3.3VA*%
X176276000Y-71170800D03*
D50*
%TO.N,+12V*%
X150590000Y-73770000D03*
X150650000Y-76380000D03*
X150710000Y-83160000D03*
X150730000Y-80880000D03*
D51*
%TO.N,+5V*%
X160000000Y-52675000D03*
X160000000Y-55450000D03*
X166624000Y-53594000D03*
X160840000Y-54360000D03*
X160840000Y-52680000D03*
X166624000Y-59436000D03*
X160840000Y-53490000D03*
X159175000Y-55450000D03*
X159175000Y-52650000D03*
D50*
%TO.N,Net-(C23-Pad1)*%
X188468000Y-76266000D03*
%TO.N,Net-(C24-Pad1)*%
X190754000Y-76200000D03*
D51*
%TO.N,I2C2_SCL*%
X189028333Y-67664435D03*
%TO.N,I2C2_SDA*%
X185318400Y-67310000D03*
%TO.N,GPIO_3*%
X179616817Y-71123922D03*
%TO.N,NRST*%
X173482000Y-69469000D03*
%TO.N,Net-(C31-Pad1)*%
X178689000Y-80264000D03*
%TO.N,Net-(C30-Pad1)*%
X177419000Y-80264000D03*
%TO.N,Net-(C29-Pad1)*%
X176149000Y-80264000D03*
%TO.N,Net-(C28-Pad1)*%
X174752000Y-80264000D03*
%TO.N,Net-(C32-Pad1)*%
X173482000Y-80264000D03*
%TO.N,Net-(C27-Pad1)*%
X172212000Y-80264000D03*
%TO.N,Net-(C26-Pad1)*%
X170942000Y-80264000D03*
%TO.N,Net-(C25-Pad1)*%
X169672000Y-80264000D03*
%TO.N,BOOT0*%
X171058500Y-62992000D03*
%TO.N,LED_STATUS*%
X171348400Y-67005200D03*
X167640000Y-65735200D03*
%TD*%
D52*
%TO.N,CAN1_RX*%
X170635000Y-59221177D02*
X170635000Y-61178823D01*
X170433500Y-61380323D02*
X170433500Y-63354818D01*
X170353823Y-58940000D02*
X170635000Y-59221177D01*
X170340000Y-58940000D02*
X170353823Y-58940000D01*
X170635000Y-61178823D02*
X170433500Y-61380323D01*
X169693000Y-58293000D02*
X170340000Y-58940000D01*
X170433500Y-63354818D02*
X171652360Y-64573678D01*
X168083000Y-58293000D02*
X169693000Y-58293000D01*
%TO.N,GND*%
X169934500Y-60833000D02*
X170000000Y-60767500D01*
X168083000Y-60833000D02*
X169934500Y-60833000D01*
%TO.N,+5V*%
X169930500Y-59563000D02*
X170000000Y-59632500D01*
X168083000Y-59563000D02*
X169930500Y-59563000D01*
%TO.N,CAN2_RX*%
X170800000Y-56851961D02*
X170800000Y-53300000D01*
X171673643Y-57725604D02*
X170800000Y-56851961D01*
X169951000Y-52451000D02*
X168083000Y-52451000D01*
X171673643Y-61766535D02*
X171673643Y-57725604D01*
X170800000Y-53300000D02*
X169951000Y-52451000D01*
X173066573Y-63159465D02*
X171673643Y-61766535D01*
%TO.N,+5V*%
X169888500Y-53721000D02*
X170000000Y-53832500D01*
X168083000Y-53721000D02*
X169888500Y-53721000D01*
%TO.N,GND*%
X168083000Y-54991000D02*
X169976500Y-54991000D01*
X169976500Y-54991000D02*
X170000000Y-54967500D01*
D53*
%TO.N,+3.3V*%
X181000000Y-77200000D02*
X181400000Y-76800000D01*
X181000000Y-77975000D02*
X181000000Y-77200000D01*
X181000000Y-77300000D02*
X180500000Y-76800000D01*
X181000000Y-77975000D02*
X181000000Y-77300000D01*
%TO.N,Net-(J12-Pad1)*%
X181200000Y-80000000D02*
X181000000Y-79800000D01*
X181200000Y-82189200D02*
X181200000Y-80000000D01*
X181357600Y-82346800D02*
X181200000Y-82189200D01*
D52*
%TO.N,OSC_IN*%
X168766400Y-71486800D02*
X168766400Y-71086800D01*
X168755200Y-71475600D02*
X168766400Y-71486800D01*
X169294939Y-70558261D02*
X171218565Y-70558261D01*
X167081200Y-71475600D02*
X168755200Y-71475600D01*
X171218565Y-70558261D02*
X172005913Y-69770913D01*
X168766400Y-71086800D02*
X169294939Y-70558261D01*
%TO.N,GND*%
X161750000Y-73637500D02*
X161187500Y-73637500D01*
X187198000Y-74742000D02*
X188468000Y-74742000D01*
X158580000Y-74920000D02*
X158340000Y-74680000D01*
X157400000Y-57600000D02*
X157400000Y-58526800D01*
X161187500Y-73637500D02*
X161100000Y-73550000D01*
X180898800Y-58064400D02*
X181386517Y-57576683D01*
X170945253Y-65280785D02*
X169774068Y-64109600D01*
X180294317Y-74629849D02*
X180294317Y-75026483D01*
X150889000Y-54062000D02*
X152889000Y-54062000D01*
X168766400Y-72886800D02*
X168766400Y-73092400D01*
X180294317Y-75026483D02*
X180294317Y-75290717D01*
X168910000Y-66421000D02*
X169037000Y-66294000D01*
X165946200Y-71475600D02*
X165201600Y-71475600D01*
X168083000Y-54991000D02*
X166751000Y-54991000D01*
X150529000Y-54422000D02*
X150889000Y-54062000D01*
D54*
X159000000Y-72700000D02*
X157830000Y-72700000D01*
D52*
X169468800Y-64109600D02*
X169468800Y-64099366D01*
X178970915Y-73306447D02*
X180294317Y-74629849D01*
X163133000Y-62103000D02*
X164503000Y-62103000D01*
X160200000Y-74920000D02*
X160200000Y-74420000D01*
X166751000Y-54991000D02*
X166624000Y-55118000D01*
X162107400Y-65481200D02*
X161188400Y-65481200D01*
X168748900Y-74472800D02*
X168605200Y-74472800D01*
X164465000Y-69528500D02*
X164151500Y-69528500D01*
X169774068Y-64109600D02*
X169468800Y-64109600D01*
X164151500Y-69528500D02*
X163830000Y-69850000D01*
X166188400Y-83664800D02*
X166188400Y-84591600D01*
X168766400Y-73092400D02*
X167995600Y-73863200D01*
X180009800Y-57175400D02*
X180497517Y-56687683D01*
X168083000Y-60833000D02*
X166751000Y-60833000D01*
D54*
X160260000Y-72700000D02*
X160320000Y-72640000D01*
D52*
X159000000Y-74920000D02*
X158580000Y-74920000D01*
X166751000Y-60833000D02*
X166624000Y-60960000D01*
X168910000Y-66929000D02*
X168910000Y-66421000D01*
X175075242Y-71651332D02*
X175075242Y-71439453D01*
D54*
X157830000Y-72700000D02*
X157300000Y-72170000D01*
D52*
X169866400Y-71486800D02*
X170575200Y-71486800D01*
X164503000Y-62103000D02*
X164600000Y-62200000D01*
X168605200Y-74472800D02*
X167995600Y-73863200D01*
X187954883Y-68534317D02*
X187954883Y-68189717D01*
X159677400Y-80126800D02*
X161677400Y-80126800D01*
D54*
X159000000Y-72700000D02*
X160260000Y-72700000D01*
D52*
X175075242Y-71439453D02*
X175226422Y-71288273D01*
X187015083Y-67746917D02*
X187502800Y-67259200D01*
X170789600Y-71272400D02*
X170575200Y-71486800D01*
X160200000Y-74420000D02*
X160360000Y-74260000D01*
X180294317Y-75290717D02*
X180594000Y-75590400D01*
X164539000Y-56261000D02*
X164600000Y-56200000D01*
X187954883Y-68189717D02*
X188259800Y-67884800D01*
X163133000Y-56261000D02*
X164539000Y-56261000D01*
X169468800Y-64099366D02*
X169016717Y-63647283D01*
%TO.N,OSC_OUT*%
X169883900Y-72904300D02*
X169866400Y-72886800D01*
X169883900Y-74472800D02*
X169883900Y-72904300D01*
X171450000Y-71780400D02*
X170343600Y-72886800D01*
X170343600Y-72886800D02*
X169866400Y-72886800D01*
X172359467Y-70124467D02*
X171450000Y-71033934D01*
X171450000Y-71033934D02*
X171450000Y-71780400D01*
%TO.N,OSC32_IN*%
X167950000Y-68148000D02*
X167950000Y-66929000D01*
X168636000Y-68834000D02*
X167950000Y-68148000D01*
X170704351Y-69658261D02*
X171298806Y-69063806D01*
X169460261Y-69658261D02*
X170704351Y-69658261D01*
X168636000Y-68834000D02*
X169460261Y-69658261D01*
%TO.N,OSC32_OUT*%
X166136000Y-68834000D02*
X167410261Y-70108261D01*
X167410261Y-70108261D02*
X170961459Y-70108261D01*
X165695500Y-68393500D02*
X166136000Y-68834000D01*
X170961459Y-70108261D02*
X171652360Y-69417360D01*
X164465000Y-68393500D02*
X165695500Y-68393500D01*
%TO.N,+3.3V*%
X185875117Y-68886883D02*
X186212517Y-68549483D01*
X186212517Y-68508917D02*
X185724800Y-68021200D01*
X179324468Y-72988248D02*
X180560137Y-74223917D01*
X169869528Y-64912166D02*
X170591700Y-65634338D01*
X181096883Y-74223917D02*
X180560137Y-74223917D01*
X179207234Y-57977966D02*
X179207234Y-57937400D01*
X179324468Y-72952894D02*
X179324468Y-72988248D01*
X168666234Y-64912166D02*
X169869528Y-64912166D01*
X179207234Y-57977966D02*
X179207234Y-59741166D01*
X168666234Y-64871600D02*
X168254717Y-64460083D01*
X179207234Y-59741166D02*
X178617362Y-60331038D01*
X183920662Y-68356700D02*
X184450845Y-68886883D01*
X184698000Y-74742000D02*
X183388000Y-74742000D01*
X168666234Y-64912166D02*
X168666234Y-64871600D01*
X179207234Y-57937400D02*
X178719517Y-57449683D01*
X186212517Y-68549483D02*
X186212517Y-68508917D01*
X181096883Y-74223917D02*
X181157917Y-74223917D01*
X181157917Y-74223917D02*
X181559200Y-74625200D01*
X170591700Y-68356700D02*
X170591700Y-65634338D01*
X184450845Y-68886883D02*
X185875117Y-68886883D01*
%TO.N,+3.3VA*%
X174847460Y-72599340D02*
X176276000Y-71170800D01*
X174834340Y-72599340D02*
X174847460Y-72599340D01*
%TO.N,+5V*%
X168083000Y-59563000D02*
X166751000Y-59563000D01*
X166751000Y-53721000D02*
X166624000Y-53594000D01*
X166751000Y-59563000D02*
X166624000Y-59436000D01*
X168083000Y-53721000D02*
X166751000Y-53721000D01*
%TO.N,Net-(D1-Pad2)*%
X163982400Y-65481200D02*
X165530600Y-65481200D01*
X165530600Y-65481200D02*
X165581400Y-65532000D01*
%TO.N,/CAN_BUS/CAN1_H*%
X161795200Y-60833000D02*
X163133000Y-60833000D01*
X154953200Y-67675000D02*
X161795200Y-60833000D01*
%TO.N,/CAN_BUS/CAN2_H*%
X154953200Y-63646800D02*
X160910000Y-57690000D01*
X160910000Y-57690000D02*
X160910000Y-56440000D01*
X162359000Y-54991000D02*
X163133000Y-54991000D01*
X160910000Y-56440000D02*
X162359000Y-54991000D01*
%TO.N,Net-(C23-Pad1)*%
X187894000Y-75692000D02*
X188468000Y-76266000D01*
X187198000Y-75692000D02*
X187894000Y-75692000D01*
%TO.N,Net-(C24-Pad1)*%
X188788000Y-73792000D02*
X190754000Y-75758000D01*
X187198000Y-73792000D02*
X188788000Y-73792000D01*
X190754000Y-75758000D02*
X190754000Y-76200000D01*
%TO.N,GPIO_2*%
X183940055Y-73034055D02*
X180819843Y-73034055D01*
X180819843Y-73034055D02*
X180031575Y-72245787D01*
X184698000Y-73792000D02*
X183940055Y-73034055D01*
%TO.N,GPIO_1*%
X182184200Y-74563505D02*
X182184200Y-74331891D01*
X184698000Y-75692000D02*
X183312695Y-75692000D01*
X181336364Y-73484055D02*
X180562737Y-73484055D01*
X180562737Y-73484055D02*
X179678022Y-72599340D01*
X183312695Y-75692000D02*
X182184200Y-74563505D01*
X182184200Y-74331891D02*
X181336364Y-73484055D01*
%TO.N,SPI_CS*%
X186499499Y-64071501D02*
X185448145Y-64071501D01*
X188722000Y-61849000D02*
X186499499Y-64071501D01*
X185448145Y-64071501D02*
X184280803Y-65238843D01*
%TO.N,SPI2_SCK*%
X188268894Y-60579000D02*
X188722000Y-60579000D01*
X186316211Y-62955947D02*
X186427163Y-63066899D01*
X186851427Y-62642634D02*
X186740474Y-62531681D01*
X187589004Y-61258889D02*
X188268894Y-60579000D01*
X186740474Y-62107417D02*
X186740475Y-62107418D01*
X187664600Y-61758749D02*
X187589003Y-61683152D01*
X186851427Y-62642633D02*
X186851427Y-62642634D01*
X183567109Y-65280785D02*
X185891947Y-62955947D01*
X187164740Y-62107418D02*
X187240336Y-62183014D01*
X186740475Y-62107418D02*
X186740476Y-62107418D01*
X187664600Y-61758748D02*
X187664600Y-61758749D01*
X187589003Y-61258888D02*
X187589004Y-61258889D01*
X186851426Y-63066898D02*
G75*
G02*
X186427164Y-63066898I-212131J212131D01*
G01*
X186740425Y-62107368D02*
G75*
G03*
X186740474Y-62531681I212175J-212132D01*
G01*
X187588983Y-61258868D02*
G75*
G03*
X187589003Y-61683152I212117J-212132D01*
G01*
X186851393Y-62642667D02*
G75*
G02*
X186851427Y-63066899I-212093J-212133D01*
G01*
X187664581Y-61758767D02*
G75*
G02*
X187664600Y-62183014I-212081J-212133D01*
G01*
X187664599Y-62183013D02*
G75*
G02*
X187240337Y-62183013I-212131J212131D01*
G01*
X186316210Y-62955948D02*
G75*
G03*
X185891948Y-62955948I-212131J-212131D01*
G01*
X187164739Y-62107419D02*
G75*
G03*
X186740477Y-62107419I-212131J-212131D01*
G01*
%TO.N,SPI2_MISO*%
X186170137Y-61610584D02*
X186170138Y-61610582D01*
X185672747Y-62461529D02*
X186170137Y-61964136D01*
X184900137Y-62537450D02*
X184976059Y-62461529D01*
X185672746Y-62461530D02*
X185672747Y-62461529D01*
X183213556Y-64920717D02*
X184900137Y-63234136D01*
X188722000Y-59412273D02*
X188722000Y-59309000D01*
X184900139Y-62537449D02*
X184900137Y-62537450D01*
X186170137Y-61257030D02*
X186240849Y-61186319D01*
X184900137Y-62885794D02*
X184900138Y-62885792D01*
X186947956Y-61186320D02*
X186947957Y-61186319D01*
X186947957Y-61186319D02*
X188722000Y-59412273D01*
X186170139Y-61257029D02*
X186170137Y-61257030D01*
X184900102Y-62885829D02*
G75*
G02*
X184900137Y-63234136I-174102J-174171D01*
G01*
X184900118Y-62537428D02*
G75*
G03*
X184900138Y-62885792I174182J-174172D01*
G01*
X186594403Y-61186319D02*
G75*
G03*
X186240849Y-61186319I-176777J-176778D01*
G01*
X185672771Y-62461555D02*
G75*
G02*
X185324403Y-62461529I-174171J174155D01*
G01*
X185324403Y-62461529D02*
G75*
G03*
X184976059Y-62461529I-174172J-174173D01*
G01*
X186170133Y-61257023D02*
G75*
G03*
X186170138Y-61610582I176767J-176777D01*
G01*
X186170097Y-61610624D02*
G75*
G02*
X186170137Y-61964136I-176697J-176776D01*
G01*
X186947976Y-61186340D02*
G75*
G02*
X186594403Y-61186319I-176776J176840D01*
G01*
%TO.N,I2C2_SCL*%
X189028333Y-69415271D02*
X189028333Y-67664435D01*
X188861002Y-69582602D02*
X189028333Y-69415271D01*
X188187204Y-70256400D02*
X188861002Y-69582602D01*
X183699042Y-70256400D02*
X188187204Y-70256400D01*
X182860002Y-69417360D02*
X183699042Y-70256400D01*
%TO.N,I2C2_SDA*%
X183213556Y-69063806D02*
X182619101Y-68469351D01*
X183411726Y-67310000D02*
X185318400Y-67310000D01*
X182619101Y-68469351D02*
X182619101Y-68102625D01*
X182619101Y-68102625D02*
X183411726Y-67310000D01*
%TO.N,GPIO_3*%
X180385129Y-71892233D02*
X179616817Y-71123922D01*
%TO.N,GPIO_4*%
X190440055Y-72584055D02*
X192258000Y-74402000D01*
X181784057Y-72584055D02*
X190440055Y-72584055D01*
X180738682Y-71538680D02*
X181784057Y-72584055D01*
X192258000Y-74402000D02*
X192786000Y-74402000D01*
%TO.N,GPIO_5*%
X194169945Y-72134055D02*
X197358000Y-68946000D01*
X181092235Y-71185127D02*
X182041163Y-72134055D01*
X182041163Y-72134055D02*
X194169945Y-72134055D01*
%TO.N,GPIO_6*%
X182298271Y-71684055D02*
X189173945Y-71684055D01*
X189173945Y-71684055D02*
X191907000Y-68951000D01*
X191907000Y-68951000D02*
X192786000Y-68951000D01*
X181445789Y-70831573D02*
X182298271Y-71684055D01*
%TO.N,NRST*%
X173482000Y-69709040D02*
X172713020Y-70478020D01*
X173482000Y-69469000D02*
X173482000Y-69709040D01*
%TO.N,SWCLK*%
X175524000Y-59960038D02*
X175524000Y-57145000D01*
X175895000Y-60331038D02*
X175524000Y-59960038D01*
%TO.N,SWDIO*%
X176794000Y-60063312D02*
X178363287Y-61632599D01*
X176794000Y-57145000D02*
X176794000Y-60063312D01*
X178730013Y-61632599D02*
X179324468Y-61038144D01*
X178363287Y-61632599D02*
X178730013Y-61632599D01*
%TO.N,Net-(C31-Pad1)*%
X178714400Y-79095600D02*
X178714400Y-80238600D01*
X178857600Y-80432600D02*
X178689000Y-80264000D01*
X178857600Y-82346800D02*
X178857600Y-80432600D01*
X178714400Y-80238600D02*
X178689000Y-80264000D01*
%TO.N,Net-(C30-Pad1)*%
X177419000Y-79121344D02*
X177415368Y-79117712D01*
X177607600Y-82346800D02*
X177607600Y-80452600D01*
X177419000Y-80264000D02*
X177419000Y-79121344D01*
X177607600Y-80452600D02*
X177419000Y-80264000D01*
%TO.N,Net-(C29-Pad1)*%
X176357600Y-80472600D02*
X176149000Y-80264000D01*
X176116340Y-79112184D02*
X176116340Y-80231340D01*
X176357600Y-82346800D02*
X176357600Y-80472600D01*
X176116340Y-80231340D02*
X176149000Y-80264000D01*
%TO.N,Net-(C28-Pad1)*%
X174752000Y-80264000D02*
X174752000Y-79166440D01*
X175107600Y-80619600D02*
X174752000Y-80264000D01*
X174752000Y-79166440D02*
X174817312Y-79101128D01*
X175107600Y-82346800D02*
X175107600Y-80619600D01*
%TO.N,Net-(C32-Pad1)*%
X173857600Y-80639600D02*
X173482000Y-80264000D01*
X173518284Y-80227716D02*
X173482000Y-80264000D01*
X173857600Y-82346800D02*
X173857600Y-80639600D01*
X173518284Y-79106656D02*
X173518284Y-80227716D01*
%TO.N,Net-(C27-Pad1)*%
X172607600Y-80659600D02*
X172212000Y-80264000D01*
X172607600Y-82346800D02*
X172607600Y-80659600D01*
X172212000Y-80264000D02*
X172212000Y-79091800D01*
X172212000Y-79091800D02*
X172219256Y-79084544D01*
%TO.N,Net-(C26-Pad1)*%
X170920228Y-79079016D02*
X170920228Y-80242228D01*
X171357600Y-80679600D02*
X170942000Y-80264000D01*
X170920228Y-80242228D02*
X170942000Y-80264000D01*
X171357600Y-82346800D02*
X171357600Y-80679600D01*
%TO.N,Net-(C25-Pad1)*%
X169621200Y-80213200D02*
X169672000Y-80264000D01*
X170107600Y-80699600D02*
X169672000Y-80264000D01*
X169621200Y-79090072D02*
X169621200Y-80213200D01*
X170107600Y-82346800D02*
X170107600Y-80699600D01*
%TO.N,GPIO_7*%
X195590000Y-63490000D02*
X197358000Y-63490000D01*
X182555377Y-71234055D02*
X188607945Y-71234055D01*
X188607945Y-71234055D02*
X191811000Y-68031000D01*
X191811000Y-68031000D02*
X191811000Y-67269000D01*
X181799342Y-70478020D02*
X182555377Y-71234055D01*
X191811000Y-67269000D02*
X195590000Y-63490000D01*
%TO.N,GPIO_8*%
X191262000Y-67818000D02*
X191262000Y-65004000D01*
X188361079Y-70718921D02*
X191262000Y-67818000D01*
X182747349Y-70718921D02*
X188361079Y-70718921D01*
X182152895Y-70124467D02*
X182747349Y-70718921D01*
X191262000Y-65004000D02*
X192786000Y-63480000D01*
D55*
%TO.N,12V_CONN*%
X158025000Y-69675000D02*
X159000000Y-68700000D01*
X154953200Y-69675000D02*
X158025000Y-69675000D01*
X159000000Y-68700000D02*
X159737500Y-67962500D01*
X159737500Y-67962500D02*
X162000000Y-67962500D01*
D52*
%TO.N,BOOT0*%
X172005913Y-64220125D02*
X171058500Y-63272712D01*
X171058500Y-63272712D02*
X171058500Y-62992000D01*
%TO.N,/CAN_BUS/CAN1_L*%
X156174002Y-64754153D02*
X156174000Y-64754154D01*
X156807478Y-64680525D02*
X156807479Y-64680524D01*
X156174000Y-64754154D02*
X156247631Y-64680524D01*
X156174000Y-65034078D02*
X156174001Y-65034076D01*
X161925000Y-59563000D02*
X163133000Y-59563000D01*
X156807479Y-64680524D02*
X161925000Y-59563000D01*
X154953200Y-65675000D02*
X155813000Y-65675000D01*
X155813000Y-65675000D02*
X156174000Y-65314000D01*
X156807461Y-64680508D02*
G75*
G02*
X156527555Y-64680524I-139961J139908D01*
G01*
X156174038Y-65034040D02*
G75*
G02*
X156173999Y-65313999I-140038J-139960D01*
G01*
X156173987Y-64754138D02*
G75*
G03*
X156174001Y-65034076I140013J-139962D01*
G01*
X156527554Y-64680525D02*
G75*
G03*
X156247632Y-64680525I-139961J-139962D01*
G01*
%TO.N,LED_STATUS*%
X171539708Y-68115798D02*
X170945253Y-68710253D01*
X167436800Y-65532000D02*
X167640000Y-65735200D01*
X166776400Y-65532000D02*
X167436800Y-65532000D01*
X171539708Y-67196508D02*
X171539708Y-68115798D01*
X171348400Y-67005200D02*
X171539708Y-67196508D01*
%TO.N,/CAN_BUS/CAN2_L*%
X154953200Y-61675000D02*
X155727500Y-61675000D01*
X154953200Y-61675000D02*
X155749000Y-61675000D01*
X157132627Y-60269876D02*
X157132626Y-60269876D01*
X160230000Y-56120000D02*
X162629000Y-53721000D01*
X157132626Y-60269876D02*
X160230000Y-57172500D01*
X160230000Y-57172500D02*
X160230000Y-56120000D01*
X155727500Y-61675000D02*
X156411250Y-60991250D01*
X156411251Y-60326317D02*
X156411250Y-60326318D01*
X162629000Y-53721000D02*
X163133000Y-53721000D01*
X156411250Y-60326318D02*
X156467694Y-60269875D01*
X156411267Y-60658767D02*
G75*
G02*
X156411250Y-60991250I-166267J-166233D01*
G01*
X157132633Y-60269882D02*
G75*
G02*
X156800160Y-60269875I-166233J166282D01*
G01*
X156411300Y-60326366D02*
G75*
G03*
X156411250Y-60658784I166200J-166234D01*
G01*
X156800160Y-60269875D02*
G75*
G03*
X156467694Y-60269875I-166233J-166236D01*
G01*
%TO.N,ADC_A1*%
X169764178Y-76489256D02*
X169764178Y-77752094D01*
X173066573Y-70831573D02*
X173066573Y-70853432D01*
X171704000Y-74549434D02*
X169764178Y-76489256D01*
X169764178Y-77752094D02*
X169621200Y-77895072D01*
X171704000Y-72216005D02*
X171704000Y-74549434D01*
X173066573Y-70853432D02*
X171704000Y-72216005D01*
%TO.N,ADC_A2*%
X170818628Y-77782416D02*
X170920228Y-77884016D01*
X172154000Y-75142828D02*
X170818628Y-76478200D01*
X170818628Y-76478200D02*
X170818628Y-77782416D01*
X173416873Y-71185127D02*
X172154000Y-72448000D01*
X172154000Y-72448000D02*
X172154000Y-75142828D01*
%TO.N,ADC_A3*%
X173773680Y-71538680D02*
X172604000Y-72708360D01*
X172604000Y-77504800D02*
X172219256Y-77889544D01*
X172604000Y-72708360D02*
X172604000Y-77504800D01*
%TO.N,ADC_A4*%
X173054000Y-77447372D02*
X173518284Y-77911656D01*
X174106767Y-71892233D02*
X173054000Y-72945000D01*
X173054000Y-72945000D02*
X173054000Y-77447372D01*
%TO.N,ADC_B1*%
X174117000Y-74023788D02*
X174117000Y-77205816D01*
X175187894Y-72952894D02*
X174117000Y-74023788D01*
X174117000Y-77205816D02*
X174817312Y-77906128D01*
%TO.N,ADC_B2*%
X174567000Y-76367844D02*
X176116340Y-77917184D01*
X174567000Y-74280894D02*
X174567000Y-76367844D01*
X175541447Y-73306447D02*
X174567000Y-74280894D01*
%TO.N,ADC_B3*%
X175017000Y-74538000D02*
X175895000Y-73660000D01*
X177349312Y-77922712D02*
X175017000Y-75590400D01*
X177415368Y-77922712D02*
X177349312Y-77922712D01*
X175017000Y-75590400D02*
X175017000Y-74538000D01*
%TO.N,ADC_B4*%
X178617362Y-73664562D02*
X179324000Y-74371200D01*
X178617362Y-73660000D02*
X178617362Y-73664562D01*
X179324000Y-77291000D02*
X178714400Y-77900600D01*
X179324000Y-74371200D02*
X179324000Y-77291000D01*
%TO.N,Net-(C1-Pad1)*%
X184193739Y-69336883D02*
X187152317Y-69336883D01*
X183567109Y-68710253D02*
X184193739Y-69336883D01*
%TO.N,SPI2_MOSI*%
X182860002Y-64573678D02*
X184277000Y-63156680D01*
X184277000Y-62484000D02*
X188722000Y-58039000D01*
X184277000Y-63156680D02*
X184277000Y-62484000D01*
%TO.N,TIM3_CH1*%
X183827000Y-62934000D02*
X183827000Y-62297604D01*
X183168426Y-63592574D02*
X183827000Y-62934000D01*
X183827000Y-62297604D02*
X187452000Y-58672604D01*
X182506449Y-64220125D02*
X183134000Y-63592574D01*
X187452000Y-57531000D02*
X189815000Y-55168000D01*
X187452000Y-58672604D02*
X187452000Y-57531000D01*
X183134000Y-63592574D02*
X183168426Y-63592574D01*
X189815000Y-55168000D02*
X189815000Y-52890000D01*
%TO.N,TIM3_CH2*%
X186944000Y-58544208D02*
X186944000Y-56896000D01*
X184110505Y-60670599D02*
X184181217Y-60599888D01*
X184888324Y-60599889D02*
X184888325Y-60599888D01*
X188565000Y-55275000D02*
X188565000Y-52890000D01*
X183377000Y-62642466D02*
X183377000Y-62111211D01*
X184888325Y-60599888D02*
X186944000Y-58544208D01*
X182152895Y-63866571D02*
X183377000Y-62642466D01*
X184110507Y-60670598D02*
X184110505Y-60670599D01*
X183377000Y-62111211D02*
X184110505Y-61377705D01*
X186944000Y-56896000D02*
X188565000Y-55275000D01*
X184110505Y-61024153D02*
X184110506Y-61024151D01*
X184110532Y-60670623D02*
G75*
G03*
X184110506Y-61024151I176768J-176777D01*
G01*
X184888276Y-60599841D02*
G75*
G02*
X184534771Y-60599888I-176776J176741D01*
G01*
X184110534Y-61024124D02*
G75*
G02*
X184110505Y-61377705I-176834J-176776D01*
G01*
X184534771Y-60599888D02*
G75*
G03*
X184181217Y-60599888I-176777J-176778D01*
G01*
%TO.N,TIM3_CH3*%
X186309000Y-56261000D02*
X187315000Y-55255000D01*
X185923584Y-58170419D02*
X185923585Y-58170418D01*
X185145764Y-58241130D02*
X185145765Y-58241129D01*
X185145765Y-58241129D02*
X185216477Y-58170418D01*
X181799342Y-63513018D02*
X182927000Y-62385360D01*
X185322539Y-58771458D02*
X185145765Y-58594683D01*
X185428606Y-59372500D02*
X185499316Y-59301789D01*
X185075052Y-59372500D02*
X185075053Y-59372500D01*
X185499316Y-58948235D02*
X185322539Y-58771458D01*
X185923585Y-58170418D02*
X186309000Y-57785000D01*
X187315000Y-55255000D02*
X187315000Y-52890000D01*
X185428606Y-59372499D02*
X185428606Y-59372500D01*
X182927000Y-61167000D02*
X184721500Y-59372500D01*
X182927000Y-62385360D02*
X182927000Y-61167000D01*
X186309000Y-57785000D02*
X186309000Y-56261000D01*
X185428577Y-59372470D02*
G75*
G02*
X185075053Y-59372500I-176777J176770D01*
G01*
X185923575Y-58170410D02*
G75*
G02*
X185570032Y-58170417I-176775J176810D01*
G01*
X185075052Y-59372500D02*
G75*
G03*
X184721500Y-59372500I-176776J-176776D01*
G01*
X185570031Y-58170418D02*
G75*
G03*
X185216477Y-58170418I-176777J-176778D01*
G01*
X185145759Y-58241125D02*
G75*
G03*
X185145766Y-58594682I176741J-176775D01*
G01*
X185499328Y-58948223D02*
G75*
G02*
X185499316Y-59301789I-176828J-176777D01*
G01*
%TO.N,TIM1_CH1*%
X182321200Y-61576946D02*
X182321200Y-60375800D01*
X185420000Y-56261000D02*
X186065000Y-55616000D01*
X185420000Y-57277000D02*
X185420000Y-56261000D01*
X186065000Y-55616000D02*
X186065000Y-52890000D01*
X181092235Y-62805911D02*
X182321200Y-61576946D01*
X182321200Y-60375800D02*
X185420000Y-57277000D01*
%TO.N,TIM1_CH2*%
X183697965Y-57629482D02*
X183945452Y-57381996D01*
X183874739Y-57983036D02*
X183874739Y-57983035D01*
X180738682Y-62452358D02*
X181864000Y-61327040D01*
X183627253Y-58407299D02*
X183627252Y-58407300D01*
X183627252Y-58407300D02*
X183874739Y-58159812D01*
X181864000Y-61327040D02*
X181864000Y-59817000D01*
X184815000Y-56866000D02*
X184815000Y-52890000D01*
X184299007Y-57381996D02*
X184299006Y-57381996D01*
X181864000Y-59817000D02*
X183273700Y-58407300D01*
X184122228Y-57381996D02*
X184122230Y-57381995D01*
X183874739Y-57983035D02*
X183697964Y-57806260D01*
X184299006Y-57381996D02*
X184815000Y-56866000D01*
X183697964Y-57629484D02*
X183697965Y-57629482D01*
X183627289Y-58407335D02*
G75*
G02*
X183450476Y-58407300I-88389J88435D01*
G01*
X184298987Y-57381976D02*
G75*
G02*
X184122231Y-57381994I-88387J88376D01*
G01*
X183450476Y-58407300D02*
G75*
G03*
X183273700Y-58407300I-88388J-88386D01*
G01*
X183874762Y-57983013D02*
G75*
G02*
X183874738Y-58159811I-88362J-88387D01*
G01*
X183697992Y-57629512D02*
G75*
G03*
X183697964Y-57806260I88408J-88388D01*
G01*
X184122228Y-57381996D02*
G75*
G03*
X183945452Y-57381996I-88388J-88386D01*
G01*
%TO.N,TIM1_CH3*%
X182622605Y-58042392D02*
X182462661Y-57882447D01*
X180420483Y-62098805D02*
X181229000Y-61290288D01*
X182021565Y-58323545D02*
X182181512Y-58483492D01*
X182462662Y-57562553D02*
X182567033Y-57458183D01*
X181597300Y-58427916D02*
X181701673Y-58323544D01*
X182021565Y-58323544D02*
X182021565Y-58323545D01*
X182462661Y-57562555D02*
X182462662Y-57562553D01*
X181229000Y-59436000D02*
X181597300Y-59067700D01*
X183565000Y-57100000D02*
X183565000Y-52890000D01*
X182413016Y-58538216D02*
X182694164Y-58257067D01*
X180385129Y-62098805D02*
X180420483Y-62098805D01*
X183553290Y-57111710D02*
X183565000Y-57100000D01*
X182886925Y-57458183D02*
X182886927Y-57458182D01*
X182694164Y-58113951D02*
X182622605Y-58042392D01*
X181229000Y-61290288D02*
X181229000Y-59436000D01*
X182886927Y-57458182D02*
X182886928Y-57458183D01*
X182198342Y-58466658D02*
X182269900Y-58538216D01*
X182181512Y-58483492D02*
X182198342Y-58466658D01*
X183206820Y-57458183D02*
X183553290Y-57111710D01*
X182462660Y-57562554D02*
G75*
G03*
X182462661Y-57882447I159940J-159946D01*
G01*
X181597253Y-58747855D02*
G75*
G02*
X181597299Y-59067699I-159853J-159945D01*
G01*
X183206820Y-57458183D02*
G75*
G02*
X182886928Y-57458183I-159946J159945D01*
G01*
X181597338Y-58427954D02*
G75*
G03*
X181597300Y-58747808I159862J-159946D01*
G01*
X182021565Y-58323544D02*
G75*
G03*
X181701673Y-58323544I-159946J-159945D01*
G01*
X182886925Y-57458183D02*
G75*
G03*
X182567033Y-57458183I-159946J-159945D01*
G01*
X182413016Y-58538216D02*
G75*
G02*
X182269900Y-58538216I-71558J71559D01*
G01*
X182694172Y-58113943D02*
G75*
G02*
X182694163Y-58257066I-71572J-71557D01*
G01*
%TO.N,Net-(C2-Pad1)*%
X180096234Y-59559272D02*
X180096234Y-58866966D01*
X178970915Y-60684591D02*
X180096234Y-59559272D01*
%TO.N,CAN2_TX*%
X171223643Y-57912000D02*
X169572643Y-56261000D01*
X169572643Y-56261000D02*
X168083000Y-56261000D01*
X171223643Y-62023641D02*
X171223643Y-57912000D01*
X172713020Y-63513018D02*
X171223643Y-62023641D01*
%TO.N,CAN1_TX*%
X168083000Y-62103000D02*
X168474574Y-62103000D01*
X168474574Y-62103000D02*
X171298806Y-64927232D01*
D55*
%TO.N,Net-(C17-Pad1)*%
X161825000Y-76000000D02*
X158590000Y-76000000D01*
X158590000Y-76000000D02*
X157200000Y-77390000D01*
X157200000Y-77390000D02*
X157200000Y-78800000D01*
%TO.N,Net-(F1-Pad2)*%
X162700000Y-70537500D02*
X162700000Y-71762500D01*
X162000000Y-69837500D02*
X162700000Y-70537500D01*
%TO.N,Net-(FB1-Pad2)*%
X163650000Y-73637500D02*
X163650000Y-75950000D01*
X163650000Y-75950000D02*
X163700000Y-76000000D01*
%TD*%
%TA.AperFunction,Conductor*%
%TO.N,GND*%
G36*
X163806121Y-77833002D02*
G01*
X163852614Y-77886658D01*
X163864000Y-77939000D01*
X163864000Y-79192800D01*
X163843998Y-79260921D01*
X163790342Y-79307414D01*
X163738000Y-79318800D01*
X163399515Y-79318800D01*
X163384276Y-79323275D01*
X163383071Y-79324665D01*
X163381400Y-79332348D01*
X163381400Y-81204800D01*
X163361398Y-81272921D01*
X163307742Y-81319414D01*
X163255400Y-81330800D01*
X162999400Y-81330800D01*
X162931279Y-81310798D01*
X162884786Y-81257142D01*
X162873400Y-81204800D01*
X162873400Y-79336916D01*
X162868925Y-79321677D01*
X162867535Y-79320472D01*
X162859852Y-79318801D01*
X162232731Y-79318801D01*
X162225910Y-79319171D01*
X162175048Y-79324695D01*
X162159796Y-79328321D01*
X162039346Y-79373476D01*
X162023756Y-79382011D01*
X161941542Y-79443627D01*
X161875035Y-79468474D01*
X161865977Y-79468800D01*
X161845515Y-79468800D01*
X161830276Y-79473275D01*
X161829071Y-79474665D01*
X161827400Y-79482348D01*
X161827400Y-80150800D01*
X161807398Y-80218921D01*
X161753742Y-80265414D01*
X161701400Y-80276800D01*
X161653400Y-80276800D01*
X161585279Y-80256798D01*
X161538786Y-80203142D01*
X161527400Y-80150800D01*
X161527400Y-79486916D01*
X161522925Y-79471677D01*
X161521535Y-79470472D01*
X161513852Y-79468801D01*
X161207731Y-79468801D01*
X161200910Y-79469171D01*
X161150048Y-79474695D01*
X161134797Y-79478321D01*
X161113230Y-79486406D01*
X161042423Y-79491589D01*
X160980054Y-79457669D01*
X160945925Y-79395414D01*
X160943000Y-79368424D01*
X160943000Y-77939000D01*
X160963002Y-77870879D01*
X161016658Y-77824386D01*
X161069000Y-77813000D01*
X163738000Y-77813000D01*
X163806121Y-77833002D01*
G37*
%TD.AperFunction*%
%TD*%
%TA.AperFunction,Conductor*%
%TO.N,+12V*%
G36*
X152105873Y-54782402D02*
G01*
X152152366Y-54836058D01*
X152158648Y-54852903D01*
X152160475Y-54859124D01*
X152161865Y-54860329D01*
X152169548Y-54862000D01*
X152913000Y-54862000D01*
X152981121Y-54882002D01*
X153027614Y-54935658D01*
X153039000Y-54988000D01*
X153039000Y-55469999D01*
X153038896Y-55469999D01*
X153040369Y-55511254D01*
X153039000Y-55517547D01*
X153039000Y-56401884D01*
X153053371Y-56450828D01*
X153055291Y-56453814D01*
X153060400Y-56489331D01*
X153060400Y-57253001D01*
X153040398Y-57321122D01*
X152986742Y-57367615D01*
X152934400Y-57379001D01*
X152785969Y-57379001D01*
X152778539Y-57379441D01*
X152764780Y-57381078D01*
X152746738Y-57386036D01*
X152661159Y-57424048D01*
X152642304Y-57437007D01*
X152577683Y-57501741D01*
X152564758Y-57520618D01*
X152526901Y-57606248D01*
X152521972Y-57624330D01*
X152520425Y-57637600D01*
X152520000Y-57644904D01*
X152520000Y-57668885D01*
X152524475Y-57684124D01*
X152525865Y-57685329D01*
X152533548Y-57687000D01*
X153227000Y-57687000D01*
X153295121Y-57707002D01*
X153341614Y-57760658D01*
X153353000Y-57813000D01*
X153353000Y-58011000D01*
X153332998Y-58079121D01*
X153279342Y-58125614D01*
X153227000Y-58137000D01*
X152538116Y-58137000D01*
X152522877Y-58141475D01*
X152521672Y-58142865D01*
X152520001Y-58150548D01*
X152520001Y-58179031D01*
X152520441Y-58186461D01*
X152522078Y-58200220D01*
X152527036Y-58218262D01*
X152565048Y-58303841D01*
X152578005Y-58322693D01*
X152644268Y-58388840D01*
X152678347Y-58451122D01*
X152673344Y-58521942D01*
X152630847Y-58578815D01*
X152600197Y-58595724D01*
X151730000Y-58928000D01*
X151730000Y-71882000D01*
X151758349Y-77038364D01*
X151758468Y-77060063D01*
X151766408Y-77068782D01*
X152117159Y-77453938D01*
X152148237Y-77517771D01*
X152150000Y-77538775D01*
X152150000Y-80025022D01*
X152129998Y-80093143D01*
X152121519Y-80104810D01*
X152040752Y-80203525D01*
X151790000Y-80510000D01*
X151789456Y-80524388D01*
X151780702Y-80755810D01*
X151779030Y-80800000D01*
X151782409Y-80928900D01*
X151798101Y-81527546D01*
X151800000Y-81600000D01*
X151808238Y-81608924D01*
X151808238Y-81608925D01*
X152337845Y-82182665D01*
X152400000Y-82250000D01*
X157250000Y-82250000D01*
X157275974Y-82218831D01*
X160944401Y-82218831D01*
X160944841Y-82226261D01*
X160946478Y-82240020D01*
X160951436Y-82258062D01*
X160989448Y-82343641D01*
X161002407Y-82362496D01*
X161067141Y-82427117D01*
X161086018Y-82440042D01*
X161171648Y-82477899D01*
X161189730Y-82482828D01*
X161203000Y-82484375D01*
X161210304Y-82484800D01*
X161509285Y-82484800D01*
X161524524Y-82480325D01*
X161525729Y-82478935D01*
X161527400Y-82471252D01*
X161527400Y-82194915D01*
X161522925Y-82179676D01*
X161521535Y-82178471D01*
X161513852Y-82176800D01*
X160962516Y-82176800D01*
X160947277Y-82181275D01*
X160946072Y-82182665D01*
X160944401Y-82190348D01*
X160944401Y-82218831D01*
X157275974Y-82218831D01*
X157576096Y-81858685D01*
X160944400Y-81858685D01*
X160948875Y-81873924D01*
X160950265Y-81875129D01*
X160957948Y-81876800D01*
X161509285Y-81876800D01*
X161524524Y-81872325D01*
X161525729Y-81870935D01*
X161527400Y-81863252D01*
X161527400Y-81568801D01*
X161527504Y-81568801D01*
X161526031Y-81527546D01*
X161527400Y-81521253D01*
X161527400Y-81244915D01*
X161522925Y-81229676D01*
X161521535Y-81228471D01*
X161513852Y-81226800D01*
X160962516Y-81226800D01*
X160947277Y-81231275D01*
X160946072Y-81232665D01*
X160944401Y-81240348D01*
X160944401Y-81268831D01*
X160944841Y-81276261D01*
X160946478Y-81290020D01*
X160951436Y-81308062D01*
X160989448Y-81393641D01*
X161002405Y-81412492D01*
X161052595Y-81462594D01*
X161086675Y-81524876D01*
X161081672Y-81595696D01*
X161052751Y-81640786D01*
X161002081Y-81691545D01*
X160989158Y-81710418D01*
X160951301Y-81796048D01*
X160946372Y-81814130D01*
X160944825Y-81827400D01*
X160944400Y-81834704D01*
X160944400Y-81858685D01*
X157576096Y-81858685D01*
X157690333Y-81721600D01*
X158491174Y-81721600D01*
X158496067Y-81724400D01*
X159077885Y-81724400D01*
X159093124Y-81719925D01*
X159094329Y-81718535D01*
X159096000Y-81710852D01*
X159096000Y-81706285D01*
X159904000Y-81706285D01*
X159908475Y-81721524D01*
X159909865Y-81722729D01*
X159917548Y-81724400D01*
X160496093Y-81724400D01*
X160509624Y-81720427D01*
X160510426Y-81714847D01*
X160468872Y-81609892D01*
X160460510Y-81595052D01*
X160378467Y-81486965D01*
X160366435Y-81474933D01*
X160258348Y-81392890D01*
X160243508Y-81384528D01*
X160116877Y-81334392D01*
X160101319Y-81330441D01*
X160022114Y-81320856D01*
X160014560Y-81320400D01*
X159922115Y-81320400D01*
X159906876Y-81324875D01*
X159905671Y-81326265D01*
X159904000Y-81333948D01*
X159904000Y-81706285D01*
X159096000Y-81706285D01*
X159096000Y-81338516D01*
X159091525Y-81323277D01*
X159090135Y-81322072D01*
X159082452Y-81320401D01*
X158985446Y-81320401D01*
X158977889Y-81320856D01*
X158898680Y-81330441D01*
X158883122Y-81334392D01*
X158756492Y-81384528D01*
X158741652Y-81392890D01*
X158633565Y-81474933D01*
X158621533Y-81486965D01*
X158539490Y-81595052D01*
X158531128Y-81609892D01*
X158492461Y-81707556D01*
X158491174Y-81721600D01*
X157690333Y-81721600D01*
X158462219Y-80795337D01*
X158521195Y-80755810D01*
X158559015Y-80750000D01*
X158602089Y-80750000D01*
X158670210Y-80770002D01*
X158691184Y-80786905D01*
X158697258Y-80792979D01*
X158702850Y-80800550D01*
X158710421Y-80806142D01*
X158804243Y-80875441D01*
X158804246Y-80875442D01*
X158811816Y-80881034D01*
X158939631Y-80925919D01*
X158947277Y-80926642D01*
X158947278Y-80926642D01*
X158953248Y-80927206D01*
X158971166Y-80928900D01*
X160028834Y-80928900D01*
X160046752Y-80927206D01*
X160052722Y-80926642D01*
X160052723Y-80926642D01*
X160060369Y-80925919D01*
X160188184Y-80881034D01*
X160195754Y-80875442D01*
X160195757Y-80875441D01*
X160289579Y-80806142D01*
X160297150Y-80800550D01*
X160302742Y-80792979D01*
X160308816Y-80786905D01*
X160371128Y-80752879D01*
X160397911Y-80750000D01*
X160818693Y-80750000D01*
X160886814Y-80770002D01*
X160933307Y-80823658D01*
X160944056Y-80881041D01*
X160944400Y-80881041D01*
X160944400Y-80882879D01*
X160944481Y-80883311D01*
X160944400Y-80884705D01*
X160944400Y-80908685D01*
X160948875Y-80923924D01*
X160950265Y-80925129D01*
X160957948Y-80926800D01*
X161701400Y-80926800D01*
X161769521Y-80946802D01*
X161816014Y-81000458D01*
X161827400Y-81052800D01*
X161827400Y-81534799D01*
X161827296Y-81534799D01*
X161828769Y-81576054D01*
X161827400Y-81582347D01*
X161827400Y-82466684D01*
X161831875Y-82481923D01*
X161833265Y-82483128D01*
X161840948Y-82484799D01*
X162114750Y-82484799D01*
X162184751Y-82506033D01*
X162199169Y-82515667D01*
X162257652Y-82527300D01*
X162624000Y-82527300D01*
X162692121Y-82547302D01*
X162738614Y-82600958D01*
X162750000Y-82653300D01*
X162750000Y-83646620D01*
X162729998Y-83714741D01*
X162676342Y-83761234D01*
X162606068Y-83771338D01*
X162541488Y-83741844D01*
X162508848Y-83697768D01*
X162479349Y-83631355D01*
X162466393Y-83612504D01*
X162401659Y-83547883D01*
X162382782Y-83534958D01*
X162297152Y-83497101D01*
X162279070Y-83492172D01*
X162265800Y-83490625D01*
X162258496Y-83490200D01*
X162159515Y-83490200D01*
X162144276Y-83494675D01*
X162143071Y-83496065D01*
X162141400Y-83503748D01*
X162141400Y-84122200D01*
X162121398Y-84190321D01*
X162067742Y-84236814D01*
X162015400Y-84248200D01*
X161326516Y-84248200D01*
X161311277Y-84252675D01*
X161310072Y-84254065D01*
X161308401Y-84261748D01*
X161308401Y-84290231D01*
X161308841Y-84297661D01*
X161310478Y-84311420D01*
X161317940Y-84338574D01*
X161314711Y-84339461D01*
X161321875Y-84393217D01*
X161291718Y-84457490D01*
X161231599Y-84495256D01*
X161197349Y-84500000D01*
X151131874Y-84500000D01*
X151063753Y-84479998D01*
X151042198Y-84462511D01*
X151037243Y-84457490D01*
X150368644Y-83780085D01*
X161308400Y-83780085D01*
X161312875Y-83795324D01*
X161314265Y-83796529D01*
X161321948Y-83798200D01*
X161673285Y-83798200D01*
X161688524Y-83793725D01*
X161689729Y-83792335D01*
X161691400Y-83784652D01*
X161691400Y-83508316D01*
X161686925Y-83493077D01*
X161685535Y-83491872D01*
X161677852Y-83490201D01*
X161574369Y-83490201D01*
X161566939Y-83490641D01*
X161553180Y-83492278D01*
X161535138Y-83497236D01*
X161449559Y-83535248D01*
X161430704Y-83548207D01*
X161366083Y-83612941D01*
X161353158Y-83631818D01*
X161315301Y-83717448D01*
X161310372Y-83735530D01*
X161308825Y-83748800D01*
X161308400Y-83756104D01*
X161308400Y-83780085D01*
X150368644Y-83780085D01*
X150203673Y-83612941D01*
X149536324Y-82936802D01*
X149502707Y-82874268D01*
X149500000Y-82848291D01*
X149500000Y-82541953D01*
X158489574Y-82541953D01*
X158531128Y-82646908D01*
X158539490Y-82661748D01*
X158621533Y-82769835D01*
X158633565Y-82781867D01*
X158741652Y-82863910D01*
X158756492Y-82872272D01*
X158883123Y-82922408D01*
X158898681Y-82926359D01*
X158977886Y-82935944D01*
X158985440Y-82936400D01*
X159077885Y-82936400D01*
X159093124Y-82931925D01*
X159094329Y-82930535D01*
X159096000Y-82922852D01*
X159096000Y-82918284D01*
X159904000Y-82918284D01*
X159908475Y-82933523D01*
X159909865Y-82934728D01*
X159917548Y-82936399D01*
X160014554Y-82936399D01*
X160022111Y-82935944D01*
X160101320Y-82926359D01*
X160116878Y-82922408D01*
X160243508Y-82872272D01*
X160258348Y-82863910D01*
X160366435Y-82781867D01*
X160378467Y-82769835D01*
X160460510Y-82661748D01*
X160468872Y-82646908D01*
X160507539Y-82549244D01*
X160508826Y-82535200D01*
X160503933Y-82532400D01*
X159922115Y-82532400D01*
X159906876Y-82536875D01*
X159905671Y-82538265D01*
X159904000Y-82545948D01*
X159904000Y-82918284D01*
X159096000Y-82918284D01*
X159096000Y-82550515D01*
X159091525Y-82535276D01*
X159090135Y-82534071D01*
X159082452Y-82532400D01*
X158503907Y-82532400D01*
X158490376Y-82536373D01*
X158489574Y-82541953D01*
X149500000Y-82541953D01*
X149500000Y-80500000D01*
X149389920Y-80202135D01*
X149337813Y-80061141D01*
X149330000Y-80017463D01*
X149330000Y-79942031D01*
X149742001Y-79942031D01*
X149742441Y-79949461D01*
X149744078Y-79963220D01*
X149749036Y-79981262D01*
X149787048Y-80066841D01*
X149800007Y-80085696D01*
X149864741Y-80150317D01*
X149883618Y-80163242D01*
X149969248Y-80201099D01*
X149987330Y-80206028D01*
X150000600Y-80207575D01*
X150007904Y-80208000D01*
X150377885Y-80208000D01*
X150393124Y-80203525D01*
X150394329Y-80202135D01*
X150396000Y-80194452D01*
X150396000Y-80189884D01*
X151204000Y-80189884D01*
X151208475Y-80205123D01*
X151209865Y-80206328D01*
X151217548Y-80207999D01*
X151592031Y-80207999D01*
X151599461Y-80207559D01*
X151613220Y-80205922D01*
X151631262Y-80200964D01*
X151716841Y-80162952D01*
X151735696Y-80149993D01*
X151800317Y-80085259D01*
X151813242Y-80066382D01*
X151851099Y-79980752D01*
X151856028Y-79962670D01*
X151857575Y-79949400D01*
X151858000Y-79942096D01*
X151858000Y-79222115D01*
X151853525Y-79206876D01*
X151852135Y-79205671D01*
X151844452Y-79204000D01*
X151222115Y-79204000D01*
X151206876Y-79208475D01*
X151205671Y-79209865D01*
X151204000Y-79217548D01*
X151204000Y-80189884D01*
X150396000Y-80189884D01*
X150396000Y-79222115D01*
X150391525Y-79206876D01*
X150390135Y-79205671D01*
X150382452Y-79204000D01*
X149760116Y-79204000D01*
X149744877Y-79208475D01*
X149743672Y-79209865D01*
X149742001Y-79217548D01*
X149742001Y-79942031D01*
X149330000Y-79942031D01*
X149330000Y-78377885D01*
X149742000Y-78377885D01*
X149746475Y-78393124D01*
X149747865Y-78394329D01*
X149755548Y-78396000D01*
X150377885Y-78396000D01*
X150393124Y-78391525D01*
X150394329Y-78390135D01*
X150396000Y-78382452D01*
X150396000Y-78377885D01*
X151204000Y-78377885D01*
X151208475Y-78393124D01*
X151209865Y-78394329D01*
X151217548Y-78396000D01*
X151839884Y-78396000D01*
X151855123Y-78391525D01*
X151856328Y-78390135D01*
X151857999Y-78382452D01*
X151857999Y-77657969D01*
X151857559Y-77650539D01*
X151855922Y-77636780D01*
X151850964Y-77618738D01*
X151812952Y-77533159D01*
X151799993Y-77514304D01*
X151735259Y-77449683D01*
X151716382Y-77436758D01*
X151630752Y-77398901D01*
X151612670Y-77393972D01*
X151599400Y-77392425D01*
X151592096Y-77392000D01*
X151222115Y-77392000D01*
X151206876Y-77396475D01*
X151205671Y-77397865D01*
X151204000Y-77405548D01*
X151204000Y-78377885D01*
X150396000Y-78377885D01*
X150396000Y-77410116D01*
X150391525Y-77394877D01*
X150390135Y-77393672D01*
X150382452Y-77392001D01*
X150007969Y-77392001D01*
X150000539Y-77392441D01*
X149986780Y-77394078D01*
X149968738Y-77399036D01*
X149883159Y-77437048D01*
X149864304Y-77450007D01*
X149799683Y-77514741D01*
X149786758Y-77533618D01*
X149748901Y-77619248D01*
X149743972Y-77637330D01*
X149742425Y-77650600D01*
X149742000Y-77657904D01*
X149742000Y-78377885D01*
X149330000Y-78377885D01*
X149330000Y-77493345D01*
X149338364Y-77448204D01*
X149487011Y-77060832D01*
X149487011Y-77060831D01*
X149491174Y-77049983D01*
X149463331Y-58595724D01*
X149461039Y-57076515D01*
X149480938Y-57008364D01*
X149534524Y-56961790D01*
X149604782Y-56951581D01*
X149663219Y-56975963D01*
X149770653Y-57057510D01*
X149785492Y-57065872D01*
X149912123Y-57116008D01*
X149927681Y-57119959D01*
X150006886Y-57129544D01*
X150014440Y-57130000D01*
X150106885Y-57130000D01*
X150122124Y-57125525D01*
X150123329Y-57124135D01*
X150125000Y-57116452D01*
X150125000Y-57111884D01*
X150933000Y-57111884D01*
X150937475Y-57127123D01*
X150938865Y-57128328D01*
X150946548Y-57129999D01*
X151043554Y-57129999D01*
X151051111Y-57129544D01*
X151130320Y-57119959D01*
X151145878Y-57116008D01*
X151272508Y-57065872D01*
X151287348Y-57057510D01*
X151395435Y-56975467D01*
X151407467Y-56963435D01*
X151489510Y-56855348D01*
X151497872Y-56840508D01*
X151536539Y-56742844D01*
X151537826Y-56728800D01*
X151532933Y-56726000D01*
X150951115Y-56726000D01*
X150935876Y-56730475D01*
X150934671Y-56731865D01*
X150933000Y-56739548D01*
X150933000Y-57111884D01*
X150125000Y-57111884D01*
X150125000Y-56154031D01*
X152156001Y-56154031D01*
X152156441Y-56161461D01*
X152158078Y-56175220D01*
X152163036Y-56193262D01*
X152201048Y-56278841D01*
X152214007Y-56297696D01*
X152278741Y-56362317D01*
X152297618Y-56375242D01*
X152383248Y-56413099D01*
X152401330Y-56418028D01*
X152414600Y-56419575D01*
X152421904Y-56420000D01*
X152720885Y-56420000D01*
X152736124Y-56415525D01*
X152737329Y-56414135D01*
X152739000Y-56406452D01*
X152739000Y-56130115D01*
X152734525Y-56114876D01*
X152733135Y-56113671D01*
X152725452Y-56112000D01*
X152174116Y-56112000D01*
X152158877Y-56116475D01*
X152157672Y-56117865D01*
X152156001Y-56125548D01*
X152156001Y-56154031D01*
X150125000Y-56154031D01*
X150125000Y-56044000D01*
X150145002Y-55975879D01*
X150198658Y-55929386D01*
X150251000Y-55918000D01*
X151525093Y-55918000D01*
X151538624Y-55914027D01*
X151539426Y-55908447D01*
X151495849Y-55798383D01*
X151495437Y-55793885D01*
X152156000Y-55793885D01*
X152160475Y-55809124D01*
X152161865Y-55810329D01*
X152169548Y-55812000D01*
X152720885Y-55812000D01*
X152736124Y-55807525D01*
X152737329Y-55806135D01*
X152739000Y-55798452D01*
X152739000Y-55504001D01*
X152739104Y-55504001D01*
X152737631Y-55462746D01*
X152739000Y-55456453D01*
X152739000Y-55180115D01*
X152734525Y-55164876D01*
X152733135Y-55163671D01*
X152725452Y-55162000D01*
X152174116Y-55162000D01*
X152158877Y-55166475D01*
X152157672Y-55167865D01*
X152156001Y-55175548D01*
X152156001Y-55204031D01*
X152156441Y-55211461D01*
X152158078Y-55225220D01*
X152163036Y-55243262D01*
X152201048Y-55328841D01*
X152214005Y-55347692D01*
X152264195Y-55397794D01*
X152298275Y-55460076D01*
X152293272Y-55530896D01*
X152264351Y-55575986D01*
X152213681Y-55626745D01*
X152200758Y-55645618D01*
X152162901Y-55731248D01*
X152157972Y-55749330D01*
X152156425Y-55762600D01*
X152156000Y-55769904D01*
X152156000Y-55793885D01*
X151495437Y-55793885D01*
X151489370Y-55727683D01*
X151522143Y-55664703D01*
X151583763Y-55629439D01*
X151613001Y-55626000D01*
X151892000Y-55626000D01*
X151892000Y-54888400D01*
X151912002Y-54820279D01*
X151965658Y-54773786D01*
X152018000Y-54762400D01*
X152037752Y-54762400D01*
X152105873Y-54782402D01*
G37*
%TD.AperFunction*%
%TD*%
%TA.AperFunction,Conductor*%
%TO.N,+5V*%
G36*
X161252121Y-52320002D02*
G01*
X161298614Y-52373658D01*
X161310000Y-52426000D01*
X161310000Y-54527483D01*
X161289998Y-54595604D01*
X161273095Y-54616578D01*
X160013784Y-55875890D01*
X160005681Y-55883316D01*
X159976806Y-55907545D01*
X159971294Y-55917092D01*
X159964208Y-55925537D01*
X159961988Y-55923674D01*
X159922861Y-55960988D01*
X159865115Y-55975000D01*
X158876000Y-55975000D01*
X158807879Y-55954998D01*
X158761386Y-55901342D01*
X158750000Y-55849000D01*
X158750000Y-55039847D01*
X158770002Y-54971726D01*
X158823658Y-54925233D01*
X158893932Y-54915129D01*
X158950858Y-54938495D01*
X158972398Y-54954404D01*
X158988864Y-54963123D01*
X159016406Y-54972795D01*
X159030490Y-54973530D01*
X159033500Y-54967757D01*
X159033500Y-54960683D01*
X159841500Y-54960683D01*
X159845473Y-54974214D01*
X159851916Y-54975140D01*
X159886136Y-54963123D01*
X159902603Y-54954404D01*
X159996719Y-54884889D01*
X160009889Y-54871719D01*
X160079404Y-54777603D01*
X160088122Y-54761136D01*
X160127466Y-54649103D01*
X160130734Y-54634211D01*
X160132721Y-54613185D01*
X160133000Y-54607271D01*
X160133000Y-54522115D01*
X160128525Y-54506876D01*
X160127135Y-54505671D01*
X160119452Y-54504000D01*
X159859615Y-54504000D01*
X159844376Y-54508475D01*
X159843171Y-54509865D01*
X159841500Y-54517548D01*
X159841500Y-54960683D01*
X159033500Y-54960683D01*
X159033500Y-53677885D01*
X159841500Y-53677885D01*
X159845975Y-53693124D01*
X159847365Y-53694329D01*
X159855048Y-53696000D01*
X160114884Y-53696000D01*
X160130123Y-53691525D01*
X160131328Y-53690135D01*
X160132999Y-53682452D01*
X160132999Y-53592733D01*
X160132720Y-53586809D01*
X160130734Y-53565793D01*
X160127465Y-53550894D01*
X160088122Y-53438864D01*
X160079404Y-53422397D01*
X160009889Y-53328281D01*
X159996719Y-53315111D01*
X159902603Y-53245596D01*
X159886136Y-53236877D01*
X159858594Y-53227205D01*
X159844510Y-53226470D01*
X159841500Y-53232243D01*
X159841500Y-53677885D01*
X159033500Y-53677885D01*
X159033500Y-53239317D01*
X159029527Y-53225786D01*
X159023084Y-53224860D01*
X158988864Y-53236877D01*
X158972398Y-53245596D01*
X158950858Y-53261505D01*
X158884180Y-53285887D01*
X158814904Y-53270350D01*
X158765026Y-53219825D01*
X158750000Y-53160153D01*
X158750000Y-52426000D01*
X158770002Y-52357879D01*
X158823658Y-52311386D01*
X158876000Y-52300000D01*
X161184000Y-52300000D01*
X161252121Y-52320002D01*
G37*
%TD.AperFunction*%
%TD*%
%TA.AperFunction,Conductor*%
%TO.N,+3.3V*%
G36*
X168461121Y-76585102D02*
G01*
X168507614Y-76638758D01*
X168519000Y-76691100D01*
X168519000Y-78999100D01*
X168498998Y-79067221D01*
X168445342Y-79113714D01*
X168393000Y-79125100D01*
X167558291Y-79125100D01*
X167490170Y-79105098D01*
X167443677Y-79051442D01*
X167433573Y-78981168D01*
X167456939Y-78924241D01*
X167529206Y-78826398D01*
X167537923Y-78809936D01*
X167547595Y-78782394D01*
X167548330Y-78768310D01*
X167542557Y-78765300D01*
X165814117Y-78765300D01*
X165800586Y-78769273D01*
X165799660Y-78775716D01*
X165811677Y-78809936D01*
X165820394Y-78826398D01*
X165892661Y-78924241D01*
X165917043Y-78990919D01*
X165901506Y-79060195D01*
X165850982Y-79110073D01*
X165791309Y-79125100D01*
X164970000Y-79125100D01*
X164901879Y-79105098D01*
X164855386Y-79051442D01*
X164844000Y-78999100D01*
X164844000Y-77954290D01*
X165801270Y-77954290D01*
X165807043Y-77957300D01*
X166252685Y-77957300D01*
X166267924Y-77952825D01*
X166269129Y-77951435D01*
X166270800Y-77943752D01*
X166270800Y-77939185D01*
X167078800Y-77939185D01*
X167083275Y-77954424D01*
X167084665Y-77955629D01*
X167092348Y-77957300D01*
X167535483Y-77957300D01*
X167549014Y-77953327D01*
X167549940Y-77946884D01*
X167537923Y-77912664D01*
X167529204Y-77896197D01*
X167459689Y-77802081D01*
X167446519Y-77788911D01*
X167352403Y-77719396D01*
X167335936Y-77710678D01*
X167223903Y-77671334D01*
X167209011Y-77668066D01*
X167187985Y-77666079D01*
X167182071Y-77665800D01*
X167096915Y-77665800D01*
X167081676Y-77670275D01*
X167080471Y-77671665D01*
X167078800Y-77679348D01*
X167078800Y-77939185D01*
X166270800Y-77939185D01*
X166270800Y-77683916D01*
X166266325Y-77668677D01*
X166264935Y-77667472D01*
X166257252Y-77665801D01*
X166167533Y-77665801D01*
X166161609Y-77666080D01*
X166140593Y-77668066D01*
X166125694Y-77671335D01*
X166013664Y-77710678D01*
X165997197Y-77719396D01*
X165903081Y-77788911D01*
X165889911Y-77802081D01*
X165820396Y-77896197D01*
X165811677Y-77912664D01*
X165802005Y-77940206D01*
X165801270Y-77954290D01*
X164844000Y-77954290D01*
X164844000Y-76691100D01*
X164864002Y-76622979D01*
X164917658Y-76576486D01*
X164970000Y-76565100D01*
X168393000Y-76565100D01*
X168461121Y-76585102D01*
G37*
%TD.AperFunction*%
%TD*%
%TA.AperFunction,Conductor*%
%TO.N,/POWER/5VPREFUSE*%
G36*
X156850834Y-53727566D02*
G01*
X156867837Y-53739972D01*
X156872865Y-53744329D01*
X156880548Y-53746000D01*
X157790500Y-53746000D01*
X157858621Y-53766002D01*
X157905114Y-53819658D01*
X157916500Y-53872000D01*
X157916500Y-54978242D01*
X157920473Y-54991773D01*
X157926916Y-54992699D01*
X158011136Y-54963123D01*
X158027603Y-54954404D01*
X158121719Y-54884889D01*
X158134889Y-54871719D01*
X158204404Y-54777603D01*
X158213120Y-54761141D01*
X158221540Y-54737164D01*
X158262983Y-54679519D01*
X158329012Y-54653430D01*
X158398664Y-54667180D01*
X158449825Y-54716405D01*
X158466423Y-54779001D01*
X158465089Y-56664089D01*
X158445039Y-56732196D01*
X158391350Y-56778651D01*
X158339089Y-56790000D01*
X158056483Y-56790000D01*
X157988362Y-56769998D01*
X157941869Y-56716342D01*
X157931765Y-56646068D01*
X157959775Y-56584738D01*
X157959636Y-56584636D01*
X157960121Y-56583979D01*
X157961259Y-56581488D01*
X157964656Y-56577839D01*
X158031397Y-56487479D01*
X158040115Y-56471013D01*
X158057645Y-56421095D01*
X158058380Y-56407010D01*
X158052606Y-56404000D01*
X156754467Y-56404000D01*
X156740936Y-56407973D01*
X156740010Y-56414416D01*
X156759885Y-56471013D01*
X156768603Y-56487479D01*
X156840364Y-56584636D01*
X156838626Y-56585919D01*
X156866638Y-56637217D01*
X156861573Y-56708032D01*
X156819026Y-56764868D01*
X156752506Y-56789679D01*
X156743517Y-56790000D01*
X156718000Y-56790000D01*
X156718000Y-58294000D01*
X156697998Y-58362121D01*
X156644342Y-58408614D01*
X156592000Y-58420000D01*
X155824795Y-58420000D01*
X155756674Y-58399998D01*
X155710181Y-58346342D01*
X155700077Y-58276068D01*
X155713696Y-58240525D01*
X155712288Y-58239942D01*
X155726353Y-58205986D01*
X155734793Y-58163555D01*
X155735719Y-58154157D01*
X155731525Y-58139876D01*
X155730135Y-58138671D01*
X155722452Y-58137000D01*
X154738116Y-58137000D01*
X154722877Y-58141475D01*
X154721672Y-58142865D01*
X154720001Y-58150548D01*
X154720001Y-58151298D01*
X154721209Y-58163558D01*
X154729647Y-58205983D01*
X154743713Y-58239944D01*
X154741280Y-58240952D01*
X154757185Y-58291753D01*
X154738401Y-58360220D01*
X154685582Y-58407662D01*
X154631205Y-58420000D01*
X154558000Y-58420000D01*
X154489879Y-58399998D01*
X154443386Y-58346342D01*
X154432000Y-58294000D01*
X154432000Y-57669843D01*
X154720281Y-57669843D01*
X154724475Y-57684124D01*
X154725865Y-57685329D01*
X154733548Y-57687000D01*
X154984885Y-57687000D01*
X155000124Y-57682525D01*
X155001329Y-57681135D01*
X155003000Y-57673452D01*
X155003000Y-57668885D01*
X155453000Y-57668885D01*
X155457475Y-57684124D01*
X155458865Y-57685329D01*
X155466548Y-57687000D01*
X155717884Y-57687000D01*
X155733123Y-57682525D01*
X155734328Y-57681135D01*
X155735999Y-57673452D01*
X155735999Y-57672702D01*
X155734791Y-57660442D01*
X155726353Y-57618017D01*
X155717036Y-57595521D01*
X155684853Y-57547356D01*
X155667644Y-57530147D01*
X155619477Y-57497963D01*
X155596986Y-57488647D01*
X155554555Y-57480207D01*
X155542300Y-57479000D01*
X155471115Y-57479000D01*
X155455876Y-57483475D01*
X155454671Y-57484865D01*
X155453000Y-57492548D01*
X155453000Y-57668885D01*
X155003000Y-57668885D01*
X155003000Y-57497116D01*
X154998525Y-57481877D01*
X154997135Y-57480672D01*
X154989452Y-57479001D01*
X154913702Y-57479001D01*
X154901442Y-57480209D01*
X154859017Y-57488647D01*
X154836521Y-57497964D01*
X154788356Y-57530147D01*
X154771147Y-57547356D01*
X154738963Y-57595523D01*
X154729647Y-57618014D01*
X154721207Y-57660445D01*
X154720281Y-57669843D01*
X154432000Y-57669843D01*
X154432000Y-57476281D01*
X154452002Y-57408160D01*
X154494396Y-57367513D01*
X155458832Y-56803548D01*
X155482000Y-56790000D01*
X155481500Y-56446181D01*
X155501403Y-56378033D01*
X155554991Y-56331463D01*
X155607500Y-56320000D01*
X155620885Y-56320000D01*
X155636124Y-56315525D01*
X155637329Y-56314135D01*
X155639000Y-56306452D01*
X155639000Y-56301884D01*
X155939000Y-56301884D01*
X155943475Y-56317123D01*
X155944865Y-56318328D01*
X155952548Y-56319999D01*
X156228298Y-56319999D01*
X156240558Y-56318791D01*
X156282983Y-56310353D01*
X156305479Y-56301036D01*
X156353644Y-56268853D01*
X156370853Y-56251644D01*
X156403037Y-56203477D01*
X156412353Y-56180986D01*
X156420793Y-56138555D01*
X156421719Y-56129157D01*
X156417525Y-56114876D01*
X156416135Y-56113671D01*
X156408452Y-56112000D01*
X155957115Y-56112000D01*
X155941876Y-56116475D01*
X155940671Y-56117865D01*
X155939000Y-56125548D01*
X155939000Y-56301884D01*
X155639000Y-56301884D01*
X155639000Y-55938000D01*
X155659002Y-55869879D01*
X155712658Y-55823386D01*
X155765000Y-55812000D01*
X156403884Y-55812000D01*
X156419123Y-55807525D01*
X156420328Y-55806135D01*
X156421999Y-55798452D01*
X156421999Y-55797702D01*
X156420791Y-55785442D01*
X156412353Y-55743017D01*
X156403036Y-55720521D01*
X156384640Y-55692990D01*
X156741620Y-55692990D01*
X156747394Y-55696000D01*
X157027885Y-55696000D01*
X157043124Y-55691525D01*
X157044329Y-55690135D01*
X157046000Y-55682452D01*
X157046000Y-55677885D01*
X157754000Y-55677885D01*
X157758475Y-55693124D01*
X157759865Y-55694329D01*
X157767548Y-55696000D01*
X158045533Y-55696000D01*
X158059064Y-55692027D01*
X158059990Y-55685584D01*
X158040115Y-55628987D01*
X158031397Y-55612521D01*
X157965228Y-55522935D01*
X157952065Y-55509772D01*
X157862479Y-55443603D01*
X157846012Y-55434885D01*
X157771094Y-55408575D01*
X157757010Y-55407840D01*
X157754000Y-55413613D01*
X157754000Y-55677885D01*
X157046000Y-55677885D01*
X157046000Y-55420687D01*
X157042027Y-55407156D01*
X157035584Y-55406230D01*
X156953988Y-55434885D01*
X156937521Y-55443603D01*
X156847935Y-55509772D01*
X156834772Y-55522935D01*
X156768603Y-55612521D01*
X156759885Y-55628987D01*
X156742355Y-55678905D01*
X156741620Y-55692990D01*
X156384640Y-55692990D01*
X156370853Y-55672356D01*
X156353644Y-55655147D01*
X156305477Y-55622963D01*
X156282985Y-55613646D01*
X156267562Y-55610579D01*
X156204652Y-55577673D01*
X156169519Y-55515979D01*
X156173317Y-55445084D01*
X156214842Y-55387497D01*
X156267560Y-55363421D01*
X156282984Y-55360353D01*
X156305479Y-55351036D01*
X156353644Y-55318853D01*
X156370853Y-55301644D01*
X156403037Y-55253477D01*
X156412353Y-55230986D01*
X156420793Y-55188555D01*
X156421719Y-55179157D01*
X156417525Y-55164876D01*
X156416135Y-55163671D01*
X156408452Y-55162000D01*
X155765000Y-55162000D01*
X155696879Y-55141998D01*
X155650386Y-55088342D01*
X155639000Y-55036000D01*
X155639000Y-54988000D01*
X155659002Y-54919879D01*
X155712658Y-54873386D01*
X155765000Y-54862000D01*
X156403884Y-54862000D01*
X156419123Y-54857525D01*
X156420328Y-54856135D01*
X156421999Y-54848452D01*
X156421999Y-54847702D01*
X156420791Y-54835442D01*
X156412353Y-54793017D01*
X156403036Y-54770521D01*
X156370853Y-54722356D01*
X156359810Y-54711313D01*
X156325784Y-54649001D01*
X156329756Y-54607267D01*
X156867001Y-54607267D01*
X156867280Y-54613191D01*
X156869266Y-54634207D01*
X156872535Y-54649106D01*
X156911878Y-54761136D01*
X156920596Y-54777603D01*
X156990111Y-54871719D01*
X157003281Y-54884889D01*
X157097397Y-54954404D01*
X157113864Y-54963123D01*
X157191406Y-54990354D01*
X157205491Y-54991089D01*
X157208500Y-54985316D01*
X157208500Y-54472115D01*
X157204025Y-54456876D01*
X157202635Y-54455671D01*
X157194952Y-54454000D01*
X156885116Y-54454000D01*
X156869877Y-54458475D01*
X156868672Y-54459865D01*
X156867001Y-54467548D01*
X156867001Y-54607267D01*
X156329756Y-54607267D01*
X156333046Y-54572693D01*
X156669466Y-53785672D01*
X156714634Y-53730896D01*
X156782245Y-53709235D01*
X156850834Y-53727566D01*
G37*
%TD.AperFunction*%
%TD*%
%TA.AperFunction,Conductor*%
%TO.N,/POWER/3V3PREFUSE*%
G36*
X165917572Y-79439163D02*
G01*
X165964693Y-79492268D01*
X165975623Y-79562418D01*
X165946892Y-79627341D01*
X165925563Y-79647306D01*
X165903078Y-79663914D01*
X165889911Y-79677081D01*
X165820396Y-79771197D01*
X165811677Y-79787664D01*
X165784446Y-79865206D01*
X165783711Y-79879291D01*
X165789484Y-79882300D01*
X166902800Y-79882300D01*
X166970921Y-79902302D01*
X167017414Y-79955958D01*
X167028800Y-80008300D01*
X167028800Y-80913684D01*
X167033275Y-80928923D01*
X167034665Y-80930128D01*
X167042348Y-80931799D01*
X167128672Y-80931799D01*
X167196793Y-80951801D01*
X167243286Y-81005457D01*
X167254672Y-81057888D01*
X167254379Y-81471956D01*
X167253489Y-82728889D01*
X167233439Y-82796996D01*
X167179750Y-82843451D01*
X167127489Y-82854800D01*
X166844883Y-82854800D01*
X166776762Y-82834798D01*
X166730269Y-82781142D01*
X166720165Y-82710868D01*
X166748175Y-82649538D01*
X166748036Y-82649436D01*
X166748521Y-82648779D01*
X166749659Y-82646288D01*
X166753056Y-82642639D01*
X166819797Y-82552279D01*
X166828515Y-82535813D01*
X166846045Y-82485895D01*
X166846780Y-82471810D01*
X166841006Y-82468800D01*
X165542867Y-82468800D01*
X165529336Y-82472773D01*
X165528410Y-82479216D01*
X165548285Y-82535813D01*
X165557003Y-82552279D01*
X165628764Y-82649436D01*
X165627026Y-82650719D01*
X165655038Y-82702017D01*
X165649973Y-82772832D01*
X165607426Y-82829668D01*
X165540906Y-82854479D01*
X165531917Y-82854800D01*
X165506400Y-82854800D01*
X165506400Y-84358800D01*
X165486398Y-84426921D01*
X165432742Y-84473414D01*
X165380400Y-84484800D01*
X164633898Y-84484800D01*
X164565777Y-84464798D01*
X164519284Y-84411142D01*
X164509180Y-84340868D01*
X164512337Y-84329359D01*
X164512332Y-84329358D01*
X164523193Y-84274755D01*
X164524119Y-84265357D01*
X164519925Y-84251076D01*
X164518535Y-84249871D01*
X164510852Y-84248200D01*
X163526516Y-84248200D01*
X163511277Y-84252675D01*
X163510072Y-84254065D01*
X163508401Y-84261748D01*
X163508401Y-84262498D01*
X163509609Y-84274758D01*
X163520468Y-84329358D01*
X163517397Y-84329969D01*
X163522900Y-84381179D01*
X163491117Y-84444664D01*
X163430057Y-84480888D01*
X163398903Y-84484800D01*
X163346400Y-84484800D01*
X163278279Y-84464798D01*
X163231786Y-84411142D01*
X163220400Y-84358800D01*
X163220400Y-83781043D01*
X163508681Y-83781043D01*
X163512875Y-83795324D01*
X163514265Y-83796529D01*
X163521948Y-83798200D01*
X163773285Y-83798200D01*
X163788524Y-83793725D01*
X163789729Y-83792335D01*
X163791400Y-83784652D01*
X163791400Y-83780085D01*
X164241400Y-83780085D01*
X164245875Y-83795324D01*
X164247265Y-83796529D01*
X164254948Y-83798200D01*
X164506284Y-83798200D01*
X164521523Y-83793725D01*
X164522728Y-83792335D01*
X164524399Y-83784652D01*
X164524399Y-83783902D01*
X164523191Y-83771642D01*
X164514753Y-83729217D01*
X164505436Y-83706721D01*
X164473253Y-83658556D01*
X164456044Y-83641347D01*
X164407877Y-83609163D01*
X164385386Y-83599847D01*
X164342955Y-83591407D01*
X164330700Y-83590200D01*
X164259515Y-83590200D01*
X164244276Y-83594675D01*
X164243071Y-83596065D01*
X164241400Y-83603748D01*
X164241400Y-83780085D01*
X163791400Y-83780085D01*
X163791400Y-83608316D01*
X163786925Y-83593077D01*
X163785535Y-83591872D01*
X163777852Y-83590201D01*
X163702102Y-83590201D01*
X163689842Y-83591409D01*
X163647417Y-83599847D01*
X163624921Y-83609164D01*
X163576756Y-83641347D01*
X163559547Y-83658556D01*
X163527363Y-83706723D01*
X163518047Y-83729214D01*
X163509607Y-83771645D01*
X163508681Y-83781043D01*
X163220400Y-83781043D01*
X163220400Y-83541081D01*
X163240402Y-83472960D01*
X163282796Y-83432313D01*
X164247232Y-82868348D01*
X164270400Y-82854800D01*
X164269900Y-82510981D01*
X164289803Y-82442833D01*
X164343391Y-82396263D01*
X164395900Y-82384800D01*
X164409285Y-82384800D01*
X164424524Y-82380325D01*
X164425729Y-82378935D01*
X164427400Y-82371252D01*
X164427400Y-82366684D01*
X164727400Y-82366684D01*
X164731875Y-82381923D01*
X164733265Y-82383128D01*
X164740948Y-82384799D01*
X165016698Y-82384799D01*
X165028958Y-82383591D01*
X165071383Y-82375153D01*
X165093879Y-82365836D01*
X165142044Y-82333653D01*
X165159253Y-82316444D01*
X165191437Y-82268277D01*
X165200753Y-82245786D01*
X165209193Y-82203355D01*
X165210119Y-82193957D01*
X165205925Y-82179676D01*
X165204535Y-82178471D01*
X165196852Y-82176800D01*
X164745515Y-82176800D01*
X164730276Y-82181275D01*
X164729071Y-82182665D01*
X164727400Y-82190348D01*
X164727400Y-82366684D01*
X164427400Y-82366684D01*
X164427400Y-82002800D01*
X164447402Y-81934679D01*
X164501058Y-81888186D01*
X164553400Y-81876800D01*
X165192284Y-81876800D01*
X165207523Y-81872325D01*
X165208728Y-81870935D01*
X165210399Y-81863252D01*
X165210399Y-81862502D01*
X165209191Y-81850242D01*
X165200753Y-81807817D01*
X165191436Y-81785321D01*
X165173040Y-81757790D01*
X165530020Y-81757790D01*
X165535794Y-81760800D01*
X165816285Y-81760800D01*
X165831524Y-81756325D01*
X165832729Y-81754935D01*
X165834400Y-81747252D01*
X165834400Y-81742685D01*
X166542400Y-81742685D01*
X166546875Y-81757924D01*
X166548265Y-81759129D01*
X166555948Y-81760800D01*
X166833933Y-81760800D01*
X166847464Y-81756827D01*
X166848390Y-81750384D01*
X166828515Y-81693787D01*
X166819797Y-81677321D01*
X166753628Y-81587735D01*
X166740465Y-81574572D01*
X166650879Y-81508403D01*
X166634412Y-81499685D01*
X166559494Y-81473375D01*
X166545410Y-81472640D01*
X166542400Y-81478413D01*
X166542400Y-81742685D01*
X165834400Y-81742685D01*
X165834400Y-81485487D01*
X165830427Y-81471956D01*
X165823984Y-81471030D01*
X165742388Y-81499685D01*
X165725921Y-81508403D01*
X165636335Y-81574572D01*
X165623172Y-81587735D01*
X165557003Y-81677321D01*
X165548285Y-81693787D01*
X165530755Y-81743705D01*
X165530020Y-81757790D01*
X165173040Y-81757790D01*
X165159253Y-81737156D01*
X165142044Y-81719947D01*
X165093877Y-81687763D01*
X165071385Y-81678446D01*
X165055962Y-81675379D01*
X164993052Y-81642473D01*
X164957919Y-81580779D01*
X164961717Y-81509884D01*
X165003242Y-81452297D01*
X165055960Y-81428221D01*
X165071384Y-81425153D01*
X165093879Y-81415836D01*
X165142044Y-81383653D01*
X165159253Y-81366444D01*
X165191437Y-81318277D01*
X165200753Y-81295786D01*
X165209193Y-81253355D01*
X165210119Y-81243957D01*
X165205925Y-81229676D01*
X165204535Y-81228471D01*
X165196852Y-81226800D01*
X164553400Y-81226800D01*
X164485279Y-81206798D01*
X164438786Y-81153142D01*
X164427400Y-81100800D01*
X164427400Y-81052800D01*
X164447402Y-80984679D01*
X164501058Y-80938186D01*
X164553400Y-80926800D01*
X165192284Y-80926800D01*
X165207523Y-80922325D01*
X165208728Y-80920935D01*
X165210399Y-80913252D01*
X165210399Y-80912502D01*
X165209191Y-80900242D01*
X165200753Y-80857817D01*
X165191436Y-80835321D01*
X165159253Y-80787156D01*
X165148210Y-80776113D01*
X165114184Y-80713801D01*
X165121446Y-80637493D01*
X165137167Y-80600716D01*
X165782101Y-80600716D01*
X165811677Y-80684936D01*
X165820396Y-80701403D01*
X165889911Y-80795519D01*
X165903081Y-80808689D01*
X165997197Y-80878204D01*
X166013664Y-80886922D01*
X166125697Y-80926266D01*
X166140589Y-80929534D01*
X166161615Y-80931521D01*
X166167529Y-80931800D01*
X166302685Y-80931800D01*
X166317924Y-80927325D01*
X166319129Y-80925935D01*
X166320800Y-80918252D01*
X166320800Y-80608415D01*
X166316325Y-80593176D01*
X166314935Y-80591971D01*
X166307252Y-80590300D01*
X165796558Y-80590300D01*
X165783027Y-80594273D01*
X165782101Y-80600716D01*
X165137167Y-80600716D01*
X165608570Y-79497916D01*
X165653738Y-79443140D01*
X165722946Y-79421450D01*
X165849222Y-79419964D01*
X165917572Y-79439163D01*
G37*
%TD.AperFunction*%
%TD*%
%TA.AperFunction,Conductor*%
%TO.N,GND*%
G36*
X155017721Y-51768202D02*
G01*
X155064214Y-51821858D01*
X155075600Y-51874200D01*
X155075600Y-53128000D01*
X155055598Y-53196121D01*
X155001942Y-53242614D01*
X154949600Y-53254000D01*
X154611115Y-53254000D01*
X154595876Y-53258475D01*
X154594671Y-53259865D01*
X154593000Y-53267548D01*
X154593000Y-55140000D01*
X154572998Y-55208121D01*
X154519342Y-55254614D01*
X154467000Y-55266000D01*
X154211000Y-55266000D01*
X154142879Y-55245998D01*
X154096386Y-55192342D01*
X154085000Y-55140000D01*
X154085000Y-53272116D01*
X154080525Y-53256877D01*
X154079135Y-53255672D01*
X154071452Y-53254001D01*
X153444331Y-53254001D01*
X153437510Y-53254371D01*
X153386648Y-53259895D01*
X153371396Y-53263521D01*
X153250946Y-53308676D01*
X153235356Y-53317211D01*
X153153142Y-53378827D01*
X153086635Y-53403674D01*
X153077577Y-53404000D01*
X153057115Y-53404000D01*
X153041876Y-53408475D01*
X153040671Y-53409865D01*
X153039000Y-53417548D01*
X153039000Y-54086000D01*
X153018998Y-54154121D01*
X152965342Y-54200614D01*
X152913000Y-54212000D01*
X152865000Y-54212000D01*
X152796879Y-54191998D01*
X152750386Y-54138342D01*
X152739000Y-54086000D01*
X152739000Y-53422116D01*
X152734525Y-53406877D01*
X152733135Y-53405672D01*
X152725452Y-53404001D01*
X152419331Y-53404001D01*
X152412510Y-53404371D01*
X152361648Y-53409895D01*
X152346397Y-53413521D01*
X152324830Y-53421606D01*
X152254023Y-53426789D01*
X152191654Y-53392869D01*
X152157525Y-53330614D01*
X152154600Y-53303624D01*
X152154600Y-51874200D01*
X152174602Y-51806079D01*
X152228258Y-51759586D01*
X152280600Y-51748200D01*
X154949600Y-51748200D01*
X155017721Y-51768202D01*
G37*
%TD.AperFunction*%
%TD*%
M02*
