%TF.GenerationSoftware,KiCad,Pcbnew,(6.0.8)*%
%TF.CreationDate,2023-03-18T00:57:18+01:00*%
%TF.ProjectId,WHEEL-07,57484545-4c2d-4303-972e-6b696361645f,rev?*%
%TF.SameCoordinates,Original*%
%TF.FileFunction,Copper,L1,Top*%
%TF.FilePolarity,Positive*%
%FSLAX46Y46*%
G04 Gerber Fmt 4.6, Leading zero omitted, Abs format (unit mm)*
G04 Created by KiCad (PCBNEW (6.0.8)) date 2023-03-18 00:57:18*
%MOMM*%
%LPD*%
G01*
G04 APERTURE LIST*
G04 Aperture macros list*
%AMRoundRect*
0 Rectangle with rounded corners*
0 $1 Rounding radius*
0 $2 $3 $4 $5 $6 $7 $8 $9 X,Y pos of 4 corners*
0 Add a 4 corners polygon primitive as box body*
4,1,4,$2,$3,$4,$5,$6,$7,$8,$9,$2,$3,0*
0 Add four circle primitives for the rounded corners*
1,1,$1+$1,$2,$3*
1,1,$1+$1,$4,$5*
1,1,$1+$1,$6,$7*
1,1,$1+$1,$8,$9*
0 Add four rect primitives between the rounded corners*
20,1,$1+$1,$2,$3,$4,$5,0*
20,1,$1+$1,$4,$5,$6,$7,0*
20,1,$1+$1,$6,$7,$8,$9,0*
20,1,$1+$1,$8,$9,$2,$3,0*%
G04 Aperture macros list end*
%TA.AperFunction,SMDPad,CuDef*%
%ADD10RoundRect,0.250000X0.250000X0.475000X-0.250000X0.475000X-0.250000X-0.475000X0.250000X-0.475000X0*%
%TD*%
%TA.AperFunction,ComponentPad*%
%ADD11O,1.200000X1.800000*%
%TD*%
%TA.AperFunction,ComponentPad*%
%ADD12RoundRect,0.250000X0.350000X0.650000X-0.350000X0.650000X-0.350000X-0.650000X0.350000X-0.650000X0*%
%TD*%
%TA.AperFunction,SMDPad,CuDef*%
%ADD13R,0.850000X0.300000*%
%TD*%
%TA.AperFunction,SMDPad,CuDef*%
%ADD14R,1.700000X2.500000*%
%TD*%
%TA.AperFunction,ComponentPad*%
%ADD15RoundRect,0.200000X-0.450000X0.200000X-0.450000X-0.200000X0.450000X-0.200000X0.450000X0.200000X0*%
%TD*%
%TA.AperFunction,ComponentPad*%
%ADD16O,1.300000X0.800000*%
%TD*%
%TA.AperFunction,ComponentPad*%
%ADD17RoundRect,0.200000X0.200000X0.450000X-0.200000X0.450000X-0.200000X-0.450000X0.200000X-0.450000X0*%
%TD*%
%TA.AperFunction,ComponentPad*%
%ADD18O,0.800000X1.300000*%
%TD*%
%TA.AperFunction,SMDPad,CuDef*%
%ADD19RoundRect,0.150000X0.825000X0.150000X-0.825000X0.150000X-0.825000X-0.150000X0.825000X-0.150000X0*%
%TD*%
%TA.AperFunction,SMDPad,CuDef*%
%ADD20RoundRect,0.160000X-0.160000X0.197500X-0.160000X-0.197500X0.160000X-0.197500X0.160000X0.197500X0*%
%TD*%
%TA.AperFunction,SMDPad,CuDef*%
%ADD21RoundRect,0.250000X0.475000X-0.250000X0.475000X0.250000X-0.475000X0.250000X-0.475000X-0.250000X0*%
%TD*%
%TA.AperFunction,SMDPad,CuDef*%
%ADD22RoundRect,0.155000X-0.040659X-0.259862X0.259862X0.040659X0.040659X0.259862X-0.259862X-0.040659X0*%
%TD*%
%TA.AperFunction,SMDPad,CuDef*%
%ADD23R,1.250000X0.600000*%
%TD*%
%TA.AperFunction,SMDPad,CuDef*%
%ADD24RoundRect,0.155000X0.212500X0.155000X-0.212500X0.155000X-0.212500X-0.155000X0.212500X-0.155000X0*%
%TD*%
%TA.AperFunction,SMDPad,CuDef*%
%ADD25RoundRect,0.155000X0.040659X0.259862X-0.259862X-0.040659X-0.040659X-0.259862X0.259862X0.040659X0*%
%TD*%
%TA.AperFunction,SMDPad,CuDef*%
%ADD26RoundRect,0.160000X-0.197500X-0.160000X0.197500X-0.160000X0.197500X0.160000X-0.197500X0.160000X0*%
%TD*%
%TA.AperFunction,SMDPad,CuDef*%
%ADD27RoundRect,0.075000X-0.441942X-0.548008X0.548008X0.441942X0.441942X0.548008X-0.548008X-0.441942X0*%
%TD*%
%TA.AperFunction,SMDPad,CuDef*%
%ADD28RoundRect,0.075000X0.441942X-0.548008X0.548008X-0.441942X-0.441942X0.548008X-0.548008X0.441942X0*%
%TD*%
%TA.AperFunction,SMDPad,CuDef*%
%ADD29RoundRect,0.155000X-0.155000X0.212500X-0.155000X-0.212500X0.155000X-0.212500X0.155000X0.212500X0*%
%TD*%
%TA.AperFunction,ComponentPad*%
%ADD30R,1.700000X1.700000*%
%TD*%
%TA.AperFunction,ComponentPad*%
%ADD31O,1.700000X1.700000*%
%TD*%
%TA.AperFunction,SMDPad,CuDef*%
%ADD32RoundRect,0.155000X-0.212500X-0.155000X0.212500X-0.155000X0.212500X0.155000X-0.212500X0.155000X0*%
%TD*%
%TA.AperFunction,SMDPad,CuDef*%
%ADD33RoundRect,0.243750X-0.243750X-0.456250X0.243750X-0.456250X0.243750X0.456250X-0.243750X0.456250X0*%
%TD*%
%TA.AperFunction,SMDPad,CuDef*%
%ADD34RoundRect,0.160000X0.197500X0.160000X-0.197500X0.160000X-0.197500X-0.160000X0.197500X-0.160000X0*%
%TD*%
%TA.AperFunction,SMDPad,CuDef*%
%ADD35RoundRect,0.225000X0.250000X-0.225000X0.250000X0.225000X-0.250000X0.225000X-0.250000X-0.225000X0*%
%TD*%
%TA.AperFunction,SMDPad,CuDef*%
%ADD36RoundRect,0.160000X0.160000X-0.197500X0.160000X0.197500X-0.160000X0.197500X-0.160000X-0.197500X0*%
%TD*%
%TA.AperFunction,SMDPad,CuDef*%
%ADD37R,2.286000X1.854500*%
%TD*%
%TA.AperFunction,SMDPad,CuDef*%
%ADD38R,0.800000X0.900000*%
%TD*%
%TA.AperFunction,SMDPad,CuDef*%
%ADD39R,1.000000X1.800000*%
%TD*%
%TA.AperFunction,SMDPad,CuDef*%
%ADD40RoundRect,0.150000X0.150000X-0.587500X0.150000X0.587500X-0.150000X0.587500X-0.150000X-0.587500X0*%
%TD*%
%TA.AperFunction,ComponentPad*%
%ADD41R,1.000000X1.000000*%
%TD*%
%TA.AperFunction,ComponentPad*%
%ADD42O,1.000000X1.000000*%
%TD*%
%TA.AperFunction,SMDPad,CuDef*%
%ADD43R,0.475000X0.300000*%
%TD*%
%TA.AperFunction,ComponentPad*%
%ADD44RoundRect,0.250000X0.650000X-0.350000X0.650000X0.350000X-0.650000X0.350000X-0.650000X-0.350000X0*%
%TD*%
%TA.AperFunction,ComponentPad*%
%ADD45O,1.800000X1.200000*%
%TD*%
%TA.AperFunction,ViaPad*%
%ADD46C,0.600000*%
%TD*%
%TA.AperFunction,ViaPad*%
%ADD47C,0.800000*%
%TD*%
%TA.AperFunction,Conductor*%
%ADD48C,0.250000*%
%TD*%
%TA.AperFunction,Conductor*%
%ADD49C,0.600000*%
%TD*%
%TA.AperFunction,Conductor*%
%ADD50C,0.300000*%
%TD*%
G04 APERTURE END LIST*
D10*
%TO.P,C15,1*%
%TO.N,GND*%
X160817600Y-75641200D03*
%TO.P,C15,2*%
%TO.N,+12V*%
X158917600Y-75641200D03*
%TD*%
D11*
%TO.P,J5,4,Pin_4*%
%TO.N,GND*%
X189405000Y-78930000D03*
%TO.P,J5,3,Pin_3*%
%TO.N,PADDLE2_IN*%
X191405000Y-78930000D03*
%TO.P,J5,2,Pin_2*%
%TO.N,GND*%
X193405000Y-78930000D03*
D12*
%TO.P,J5,1,Pin_1*%
%TO.N,PADDLE1_IN*%
X195405000Y-78930000D03*
%TD*%
D13*
%TO.P,IC2,1,GND_1*%
%TO.N,GND*%
X152889000Y-54062000D03*
%TO.P,IC2,2,EN*%
%TO.N,+12V*%
X152889000Y-55012000D03*
%TO.P,IC2,3,VIN*%
X152889000Y-55962000D03*
%TO.P,IC2,4,VOUT*%
%TO.N,+5V*%
X155789000Y-55962000D03*
%TO.P,IC2,5,VSENSE*%
X155789000Y-55012000D03*
%TO.P,IC2,6,ADJ*%
%TO.N,unconnected-(IC2-Pad6)*%
X155789000Y-54062000D03*
D14*
%TO.P,IC2,7,GND_2*%
%TO.N,GND*%
X154339000Y-55012000D03*
%TD*%
D15*
%TO.P,J7,1,Pin_1*%
%TO.N,GND*%
X197358000Y-73152000D03*
D16*
%TO.P,J7,2,Pin_2*%
%TO.N,GPIO_3*%
X197358000Y-74402000D03*
%TD*%
D17*
%TO.P,J17,1,Pin_1*%
%TO.N,TIM3_CH1*%
X189815000Y-52890000D03*
D18*
%TO.P,J17,2,Pin_2*%
%TO.N,TIM3_CH2*%
X188565000Y-52890000D03*
%TO.P,J17,3,Pin_3*%
%TO.N,TIM3_CH3*%
X187315000Y-52890000D03*
%TO.P,J17,4,Pin_4*%
%TO.N,TIM1_CH1*%
X186065000Y-52890000D03*
%TO.P,J17,5,Pin_5*%
%TO.N,TIM1_CH2*%
X184815000Y-52890000D03*
%TO.P,J17,6,Pin_6*%
%TO.N,TIM1_CH3*%
X183565000Y-52890000D03*
%TD*%
D19*
%TO.P,U2,1,TXD*%
%TO.N,CAN1_TX*%
X168083000Y-62103000D03*
%TO.P,U2,2,VSS*%
%TO.N,GND*%
X168083000Y-60833000D03*
%TO.P,U2,3,VDD*%
%TO.N,+5V*%
X168083000Y-59563000D03*
%TO.P,U2,4,RXD*%
%TO.N,CAN1_RX*%
X168083000Y-58293000D03*
%TO.P,U2,5,SPLIT*%
%TO.N,unconnected-(U2-Pad5)*%
X163133000Y-58293000D03*
%TO.P,U2,6,CANL*%
%TO.N,/CAN_BUS/CAN1_L*%
X163133000Y-59563000D03*
%TO.P,U2,7,CANH*%
%TO.N,/CAN_BUS/CAN1_H*%
X163133000Y-60833000D03*
%TO.P,U2,8,STBY*%
%TO.N,GND*%
X163133000Y-62103000D03*
%TD*%
D20*
%TO.P,R18,1*%
%TO.N,ADC_A3*%
X172219256Y-77889544D03*
%TO.P,R18,2*%
%TO.N,Net-(C27-Pad1)*%
X172219256Y-79084544D03*
%TD*%
D21*
%TO.P,C13,1*%
%TO.N,+12V*%
X150529000Y-56322000D03*
%TO.P,C13,2*%
%TO.N,GND*%
X150529000Y-54422000D03*
%TD*%
D20*
%TO.P,R16,1*%
%TO.N,ADC_A1*%
X169621200Y-77895072D03*
%TO.P,R16,2*%
%TO.N,Net-(C25-Pad1)*%
X169621200Y-79090072D03*
%TD*%
%TO.P,R6,1*%
%TO.N,/CAN_BUS/CAN2_L*%
X158900000Y-58502500D03*
%TO.P,R6,2*%
%TO.N,/CAN_BUS/CAN2_H*%
X158900000Y-59697500D03*
%TD*%
D22*
%TO.P,C35,1*%
%TO.N,+3.3V*%
X179207234Y-57977966D03*
%TO.P,C35,2*%
%TO.N,GND*%
X180009800Y-57175400D03*
%TD*%
D19*
%TO.P,U3,1,TXD*%
%TO.N,CAN2_TX*%
X168083000Y-56261000D03*
%TO.P,U3,2,VSS*%
%TO.N,GND*%
X168083000Y-54991000D03*
%TO.P,U3,3,VDD*%
%TO.N,+5V*%
X168083000Y-53721000D03*
%TO.P,U3,4,RXD*%
%TO.N,CAN2_RX*%
X168083000Y-52451000D03*
%TO.P,U3,5,SPLIT*%
%TO.N,unconnected-(U3-Pad5)*%
X163133000Y-52451000D03*
%TO.P,U3,6,CANL*%
%TO.N,/CAN_BUS/CAN2_L*%
X163133000Y-53721000D03*
%TO.P,U3,7,CANH*%
%TO.N,/CAN_BUS/CAN2_H*%
X163133000Y-54991000D03*
%TO.P,U3,8,STBY*%
%TO.N,GND*%
X163133000Y-56261000D03*
%TD*%
D23*
%TO.P,IC4,1,A1*%
%TO.N,Net-(C23-Pad1)*%
X187198000Y-75692000D03*
%TO.P,IC4,2,GND*%
%TO.N,GND*%
X187198000Y-74742000D03*
%TO.P,IC4,3,IN_A2*%
%TO.N,Net-(C24-Pad1)*%
X187198000Y-73792000D03*
%TO.P,IC4,4,Y2*%
%TO.N,GPIO_2*%
X184698000Y-73792000D03*
%TO.P,IC4,5,VCC*%
%TO.N,+3.3V*%
X184698000Y-74742000D03*
%TO.P,IC4,6,Y1*%
%TO.N,GPIO_1*%
X184698000Y-75692000D03*
%TD*%
D24*
%TO.P,C4,1*%
%TO.N,OSC_OUT*%
X169883900Y-74472800D03*
%TO.P,C4,2*%
%TO.N,GND*%
X168748900Y-74472800D03*
%TD*%
D22*
%TO.P,C37,1*%
%TO.N,+3.3V*%
X186212517Y-68549483D03*
%TO.P,C37,2*%
%TO.N,GND*%
X187015083Y-67746917D03*
%TD*%
D25*
%TO.P,C36,1*%
%TO.N,+3.3V*%
X181096883Y-74223917D03*
%TO.P,C36,2*%
%TO.N,GND*%
X180294317Y-75026483D03*
%TD*%
D26*
%TO.P,R11,1*%
%TO.N,+3.3V*%
X162707800Y-76088000D03*
%TO.P,R11,2*%
%TO.N,Net-(C20-Pad1)*%
X163902800Y-76088000D03*
%TD*%
D27*
%TO.P,U1,1,VBAT*%
%TO.N,+3.3V*%
X170591700Y-68356700D03*
%TO.P,U1,2,PC13*%
%TO.N,LED_STATUS*%
X170945253Y-68710253D03*
%TO.P,U1,3,PC14*%
%TO.N,OSC32_IN*%
X171298806Y-69063806D03*
%TO.P,U1,4,PC15*%
%TO.N,OSC32_OUT*%
X171652360Y-69417360D03*
%TO.P,U1,5,PH0*%
%TO.N,OSC_IN*%
X172005913Y-69770913D03*
%TO.P,U1,6,PH1*%
%TO.N,OSC_OUT*%
X172359467Y-70124467D03*
%TO.P,U1,7,NRST*%
%TO.N,NRST*%
X172713020Y-70478020D03*
%TO.P,U1,8,PC0*%
%TO.N,ADC_A1*%
X173066573Y-70831573D03*
%TO.P,U1,9,PC1*%
%TO.N,ADC_A2*%
X173420127Y-71185127D03*
%TO.P,U1,10,PC2*%
%TO.N,ADC_A3*%
X173773680Y-71538680D03*
%TO.P,U1,11,PC3*%
%TO.N,ADC_A4*%
X174127233Y-71892233D03*
%TO.P,U1,12,VSSA*%
%TO.N,GND*%
X174480787Y-72245787D03*
%TO.P,U1,13,VDDA*%
%TO.N,+3.3VA*%
X174834340Y-72599340D03*
%TO.P,U1,14,PA0*%
%TO.N,ADC_B1*%
X175187894Y-72952894D03*
%TO.P,U1,15,PA1*%
%TO.N,ADC_B2*%
X175541447Y-73306447D03*
%TO.P,U1,16,PA2*%
%TO.N,ADC_B3*%
X175895000Y-73660000D03*
D28*
%TO.P,U1,17,PA3*%
%TO.N,ADC_B4*%
X178617362Y-73660000D03*
%TO.P,U1,18,VSS*%
%TO.N,GND*%
X178970915Y-73306447D03*
%TO.P,U1,19,VDD*%
%TO.N,+3.3V*%
X179324468Y-72952894D03*
%TO.P,U1,20,PA4*%
%TO.N,GPIO_1*%
X179678022Y-72599340D03*
%TO.P,U1,21,PA5*%
%TO.N,GPIO_2*%
X180031575Y-72245787D03*
%TO.P,U1,22,PA6*%
%TO.N,GPIO_3*%
X180385129Y-71892233D03*
%TO.P,U1,23,PA7*%
%TO.N,GPIO_4*%
X180738682Y-71538680D03*
%TO.P,U1,24,PC4*%
%TO.N,GPIO_5*%
X181092235Y-71185127D03*
%TO.P,U1,25,PC5*%
%TO.N,GPIO_6*%
X181445789Y-70831573D03*
%TO.P,U1,26,PB0*%
%TO.N,GPIO_7*%
X181799342Y-70478020D03*
%TO.P,U1,27,PB1*%
%TO.N,GPIO_8*%
X182152895Y-70124467D03*
%TO.P,U1,28,PB2*%
%TO.N,unconnected-(U1-Pad28)*%
X182506449Y-69770913D03*
%TO.P,U1,29,PB10*%
%TO.N,I2C2_SCL*%
X182860002Y-69417360D03*
%TO.P,U1,30,PB11*%
%TO.N,I2C2_SDA*%
X183213556Y-69063806D03*
%TO.P,U1,31,VCAP_1*%
%TO.N,Net-(C1-Pad1)*%
X183567109Y-68710253D03*
%TO.P,U1,32,VDD*%
%TO.N,+3.3V*%
X183920662Y-68356700D03*
D27*
%TO.P,U1,33,PB12*%
%TO.N,SPI_CS*%
X183920662Y-65634338D03*
%TO.P,U1,34,PB13*%
%TO.N,SPI2_SCK*%
X183567109Y-65280785D03*
%TO.P,U1,35,PB14*%
%TO.N,SPI2_MISO*%
X183213556Y-64927232D03*
%TO.P,U1,36,PB15*%
%TO.N,SPI2_MOSI*%
X182860002Y-64573678D03*
%TO.P,U1,37,PC6*%
%TO.N,TIM3_CH1*%
X182506449Y-64220125D03*
%TO.P,U1,38,PC7*%
%TO.N,TIM3_CH2*%
X182152895Y-63866571D03*
%TO.P,U1,39,PC8*%
%TO.N,TIM3_CH3*%
X181799342Y-63513018D03*
%TO.P,U1,40,PC9*%
%TO.N,unconnected-(U1-Pad40)*%
X181445789Y-63159465D03*
%TO.P,U1,41,PA8*%
%TO.N,TIM1_CH1*%
X181092235Y-62805911D03*
%TO.P,U1,42,PA9*%
%TO.N,TIM1_CH2*%
X180738682Y-62452358D03*
%TO.P,U1,43,PA10*%
%TO.N,TIM1_CH3*%
X180385129Y-62098805D03*
%TO.P,U1,44,PA11*%
%TO.N,unconnected-(U1-Pad44)*%
X180031575Y-61745251D03*
%TO.P,U1,45,PA12*%
%TO.N,unconnected-(U1-Pad45)*%
X179678022Y-61391698D03*
%TO.P,U1,46,PA13*%
%TO.N,SWDIO*%
X179324468Y-61038144D03*
%TO.P,U1,47,VCAP_2*%
%TO.N,Net-(C2-Pad1)*%
X178970915Y-60684591D03*
%TO.P,U1,48,VDD*%
%TO.N,+3.3V*%
X178617362Y-60331038D03*
D28*
%TO.P,U1,49,PA14*%
%TO.N,SWCLK*%
X175895000Y-60331038D03*
%TO.P,U1,50,PA15*%
%TO.N,unconnected-(U1-Pad50)*%
X175541447Y-60684591D03*
%TO.P,U1,51,PC10*%
%TO.N,USART_TX*%
X175187894Y-61038144D03*
%TO.P,U1,52,PC11*%
%TO.N,USART_RX*%
X174834340Y-61391698D03*
%TO.P,U1,53,PC12*%
%TO.N,USART_CK*%
X174480787Y-61745251D03*
%TO.P,U1,54,PD2*%
%TO.N,unconnected-(U1-Pad54)*%
X174127233Y-62098805D03*
%TO.P,U1,55,PB3*%
%TO.N,SWO*%
X173773680Y-62452358D03*
%TO.P,U1,56,PB4*%
%TO.N,unconnected-(U1-Pad56)*%
X173420127Y-62805911D03*
%TO.P,U1,57,PB5*%
%TO.N,CAN2_RX*%
X173066573Y-63159465D03*
%TO.P,U1,58,PB6*%
%TO.N,CAN2_TX*%
X172713020Y-63513018D03*
%TO.P,U1,59,PB7*%
%TO.N,unconnected-(U1-Pad59)*%
X172359467Y-63866571D03*
%TO.P,U1,60,BOOT0*%
%TO.N,BOOT0*%
X172005913Y-64220125D03*
%TO.P,U1,61,PB8*%
%TO.N,CAN1_RX*%
X171652360Y-64573678D03*
%TO.P,U1,62,PB9*%
%TO.N,CAN1_TX*%
X171298806Y-64927232D03*
%TO.P,U1,63,VSS*%
%TO.N,GND*%
X170945253Y-65280785D03*
%TO.P,U1,64,VDD*%
%TO.N,+3.3V*%
X170591700Y-65634338D03*
%TD*%
D29*
%TO.P,C6,1*%
%TO.N,OSC32_OUT*%
X164465000Y-68393500D03*
%TO.P,C6,2*%
%TO.N,GND*%
X164465000Y-69528500D03*
%TD*%
D30*
%TO.P,J16,1,Pin_1*%
%TO.N,GND*%
X196088000Y-53898800D03*
D31*
%TO.P,J16,2,Pin_2*%
%TO.N,+3.3V*%
X196088000Y-56438800D03*
%TD*%
D20*
%TO.P,R24,1*%
%TO.N,ADC_A4*%
X173518284Y-77911656D03*
%TO.P,R24,2*%
%TO.N,Net-(C32-Pad1)*%
X173518284Y-79106656D03*
%TD*%
%TO.P,R22,1*%
%TO.N,ADC_B3*%
X177415368Y-77922712D03*
%TO.P,R22,2*%
%TO.N,Net-(C30-Pad1)*%
X177415368Y-79117712D03*
%TD*%
D32*
%TO.P,C21,1*%
%TO.N,GND*%
X152391300Y-75793600D03*
%TO.P,C21,2*%
%TO.N,+3.3V*%
X153526300Y-75793600D03*
%TD*%
D33*
%TO.P,D1,1,K*%
%TO.N,GND*%
X162107400Y-65481200D03*
%TO.P,D1,2,A*%
%TO.N,Net-(D1-Pad2)*%
X163982400Y-65481200D03*
%TD*%
D34*
%TO.P,R9,1*%
%TO.N,Net-(C20-Pad1)*%
X163919500Y-78613000D03*
%TO.P,R9,2*%
%TO.N,Net-(IC3-Pad8)*%
X162724500Y-78613000D03*
%TD*%
D35*
%TO.P,C14,1*%
%TO.N,+5V*%
X158149000Y-55152000D03*
%TO.P,C14,2*%
%TO.N,GND*%
X158149000Y-53602000D03*
%TD*%
D26*
%TO.P,R8,1*%
%TO.N,Net-(IC3-Pad5)*%
X162724500Y-82423000D03*
%TO.P,R8,2*%
%TO.N,Net-(C19-Pad1)*%
X163919500Y-82423000D03*
%TD*%
D36*
%TO.P,R4,1*%
%TO.N,/CAN_BUS/CAN1_H*%
X158900000Y-63747500D03*
%TO.P,R4,2*%
%TO.N,/CAN_BUS/CAN1_L*%
X158900000Y-62552500D03*
%TD*%
D22*
%TO.P,C34,1*%
%TO.N,+3.3V*%
X168666234Y-64912166D03*
%TO.P,C34,2*%
%TO.N,GND*%
X169468800Y-64109600D03*
%TD*%
D20*
%TO.P,R17,1*%
%TO.N,ADC_A2*%
X170920228Y-77884016D03*
%TO.P,R17,2*%
%TO.N,Net-(C26-Pad1)*%
X170920228Y-79079016D03*
%TD*%
D26*
%TO.P,R7,1*%
%TO.N,Net-(IC3-Pad6)*%
X162724500Y-81153000D03*
%TO.P,R7,2*%
%TO.N,+12V*%
X163919500Y-81153000D03*
%TD*%
D24*
%TO.P,C16,1*%
%TO.N,GND*%
X159885000Y-78867000D03*
%TO.P,C16,2*%
%TO.N,/POWER/PG3V3*%
X158750000Y-78867000D03*
%TD*%
D37*
%TO.P,L2,1*%
%TO.N,Net-(C19-Pad2)*%
X154559000Y-82931000D03*
%TO.P,L2,2*%
%TO.N,+3.3V*%
X154559000Y-79146500D03*
%TD*%
D15*
%TO.P,J14,1,Pin_1*%
%TO.N,GND*%
X197358000Y-62240000D03*
D16*
%TO.P,J14,2,Pin_2*%
%TO.N,GPIO_7*%
X197358000Y-63490000D03*
%TD*%
D32*
%TO.P,C22,1*%
%TO.N,GND*%
X152391300Y-77063600D03*
%TO.P,C22,2*%
%TO.N,+3.3V*%
X153526300Y-77063600D03*
%TD*%
D15*
%TO.P,J10,1,Pin_1*%
%TO.N,GND*%
X192786000Y-67701000D03*
D16*
%TO.P,J10,2,Pin_2*%
%TO.N,GPIO_6*%
X192786000Y-68951000D03*
%TD*%
D38*
%TO.P,Y1,1,1*%
%TO.N,OSC_IN*%
X168766400Y-71486800D03*
%TO.P,Y1,2,2*%
%TO.N,GND*%
X168766400Y-72886800D03*
%TO.P,Y1,3,3*%
%TO.N,OSC_OUT*%
X169866400Y-72886800D03*
%TO.P,Y1,4,4*%
%TO.N,GND*%
X169866400Y-71486800D03*
%TD*%
D39*
%TO.P,Y2,1,1*%
%TO.N,OSC32_IN*%
X168636000Y-68834000D03*
%TO.P,Y2,2,2*%
%TO.N,OSC32_OUT*%
X166136000Y-68834000D03*
%TD*%
D32*
%TO.P,C5,1*%
%TO.N,OSC32_IN*%
X167862500Y-66929000D03*
%TO.P,C5,2*%
%TO.N,GND*%
X168997500Y-66929000D03*
%TD*%
D20*
%TO.P,R21,1*%
%TO.N,ADC_B2*%
X176116340Y-77917184D03*
%TO.P,R21,2*%
%TO.N,Net-(C29-Pad1)*%
X176116340Y-79112184D03*
%TD*%
%TO.P,R20,1*%
%TO.N,ADC_B1*%
X174817312Y-77906128D03*
%TO.P,R20,2*%
%TO.N,Net-(C28-Pad1)*%
X174817312Y-79101128D03*
%TD*%
D17*
%TO.P,J12,1,Pin_1*%
%TO.N,+3.3V*%
X181357600Y-82346800D03*
D18*
%TO.P,J12,2,Pin_2*%
%TO.N,GND*%
X180107600Y-82346800D03*
%TO.P,J12,3,Pin_3*%
%TO.N,Net-(C31-Pad1)*%
X178857600Y-82346800D03*
%TO.P,J12,4,Pin_4*%
%TO.N,Net-(C30-Pad1)*%
X177607600Y-82346800D03*
%TO.P,J12,5,Pin_5*%
%TO.N,Net-(C29-Pad1)*%
X176357600Y-82346800D03*
%TO.P,J12,6,Pin_6*%
%TO.N,Net-(C28-Pad1)*%
X175107600Y-82346800D03*
%TO.P,J12,7,Pin_7*%
%TO.N,Net-(C32-Pad1)*%
X173857600Y-82346800D03*
%TO.P,J12,8,Pin_8*%
%TO.N,Net-(C27-Pad1)*%
X172607600Y-82346800D03*
%TO.P,J12,9,Pin_9*%
%TO.N,Net-(C26-Pad1)*%
X171357600Y-82346800D03*
%TO.P,J12,10,Pin_10*%
%TO.N,Net-(C25-Pad1)*%
X170107600Y-82346800D03*
%TD*%
D40*
%TO.P,Q1,1,G*%
%TO.N,GND*%
X158841400Y-71016100D03*
%TO.P,Q1,2,S*%
%TO.N,Net-(F1-Pad2)*%
X160741400Y-71016100D03*
%TO.P,Q1,3,D*%
%TO.N,12V_CONN*%
X159791400Y-69141100D03*
%TD*%
D41*
%TO.P,J11,1,Pin_1*%
%TO.N,+3.3V*%
X175524000Y-54605000D03*
D42*
%TO.P,J11,2,Pin_2*%
%TO.N,GND*%
X176794000Y-54605000D03*
%TO.P,J11,3,Pin_3*%
%TO.N,unconnected-(J11-Pad3)*%
X175524000Y-55875000D03*
%TO.P,J11,4,Pin_4*%
%TO.N,NRST*%
X176794000Y-55875000D03*
%TO.P,J11,5,Pin_5*%
%TO.N,SWCLK*%
X175524000Y-57145000D03*
%TO.P,J11,6,Pin_6*%
%TO.N,SWDIO*%
X176794000Y-57145000D03*
%TD*%
D24*
%TO.P,C20,1*%
%TO.N,Net-(C20-Pad1)*%
X163830000Y-74828400D03*
%TO.P,C20,2*%
%TO.N,+3.3V*%
X162695000Y-74828400D03*
%TD*%
D34*
%TO.P,R5,1*%
%TO.N,LED_STATUS*%
X166776400Y-65532000D03*
%TO.P,R5,2*%
%TO.N,Net-(D1-Pad2)*%
X165581400Y-65532000D03*
%TD*%
D15*
%TO.P,J8,1,Pin_1*%
%TO.N,GND*%
X192786000Y-73152000D03*
D16*
%TO.P,J8,2,Pin_2*%
%TO.N,GPIO_4*%
X192786000Y-74402000D03*
%TD*%
D43*
%TO.P,IC3,1,PG*%
%TO.N,/POWER/PG3V3*%
X158479500Y-80373000D03*
%TO.P,IC3,2,IN*%
%TO.N,+12V*%
X158479500Y-80873000D03*
%TO.P,IC3,3,SW*%
%TO.N,Net-(C19-Pad2)*%
X158479500Y-81373000D03*
%TO.P,IC3,4,GND*%
%TO.N,GND*%
X158479500Y-81873000D03*
%TO.P,IC3,5,BST*%
%TO.N,Net-(IC3-Pad5)*%
X160155500Y-81873000D03*
%TO.P,IC3,6,EN*%
%TO.N,Net-(IC3-Pad6)*%
X160155500Y-81373000D03*
%TO.P,IC3,7,SS*%
%TO.N,Net-(C18-Pad2)*%
X160155500Y-80873000D03*
%TO.P,IC3,8,FB*%
%TO.N,Net-(IC3-Pad8)*%
X160155500Y-80373000D03*
%TD*%
D22*
%TO.P,C1,1*%
%TO.N,Net-(C1-Pad1)*%
X187152317Y-69336883D03*
%TO.P,C1,2*%
%TO.N,GND*%
X187954883Y-68534317D03*
%TD*%
D15*
%TO.P,J9,1,Pin_1*%
%TO.N,GND*%
X197358000Y-67696000D03*
D16*
%TO.P,J9,2,Pin_2*%
%TO.N,GPIO_5*%
X197358000Y-68946000D03*
%TD*%
D34*
%TO.P,R10,1*%
%TO.N,Net-(C20-Pad1)*%
X163902800Y-77358000D03*
%TO.P,R10,2*%
%TO.N,GND*%
X162707800Y-77358000D03*
%TD*%
D20*
%TO.P,R23,1*%
%TO.N,ADC_B4*%
X178714400Y-77900600D03*
%TO.P,R23,2*%
%TO.N,Net-(C31-Pad1)*%
X178714400Y-79095600D03*
%TD*%
D24*
%TO.P,C18,1*%
%TO.N,GND*%
X163902800Y-79883000D03*
%TO.P,C18,2*%
%TO.N,Net-(C18-Pad2)*%
X162767800Y-79883000D03*
%TD*%
%TO.P,C3,1*%
%TO.N,OSC_IN*%
X167081200Y-71475600D03*
%TO.P,C3,2*%
%TO.N,GND*%
X165946200Y-71475600D03*
%TD*%
D33*
%TO.P,F1,1*%
%TO.N,+12V*%
X158930100Y-73355200D03*
%TO.P,F1,2*%
%TO.N,Net-(F1-Pad2)*%
X160805100Y-73355200D03*
%TD*%
D15*
%TO.P,J15,1,Pin_1*%
%TO.N,GND*%
X192786000Y-62230000D03*
D16*
%TO.P,J15,2,Pin_2*%
%TO.N,GPIO_8*%
X192786000Y-63480000D03*
%TD*%
D24*
%TO.P,C17,1*%
%TO.N,GND*%
X159825500Y-77520800D03*
%TO.P,C17,2*%
%TO.N,+12V*%
X158690500Y-77520800D03*
%TD*%
%TO.P,C19,1*%
%TO.N,Net-(C19-Pad1)*%
X163889500Y-83693000D03*
%TO.P,C19,2*%
%TO.N,Net-(C19-Pad2)*%
X162754500Y-83693000D03*
%TD*%
D22*
%TO.P,C2,1*%
%TO.N,Net-(C2-Pad1)*%
X180096234Y-58866966D03*
%TO.P,C2,2*%
%TO.N,GND*%
X180898800Y-58064400D03*
%TD*%
D41*
%TO.P,J2,1,Pin_1*%
%TO.N,I2C2_SCL*%
X188722000Y-64389000D03*
D42*
%TO.P,J2,2,Pin_2*%
%TO.N,I2C2_SDA*%
X188722000Y-63119000D03*
%TO.P,J2,3,Pin_3*%
%TO.N,SPI_CS*%
X188722000Y-61849000D03*
%TO.P,J2,4,Pin_4*%
%TO.N,SPI2_SCK*%
X188722000Y-60579000D03*
%TO.P,J2,5,Pin_5*%
%TO.N,SPI2_MISO*%
X188722000Y-59309000D03*
%TO.P,J2,6,Pin_6*%
%TO.N,SPI2_MOSI*%
X188722000Y-58039000D03*
%TD*%
D44*
%TO.P,J1,1,Pin_1*%
%TO.N,GND*%
X154953200Y-71675000D03*
D45*
%TO.P,J1,2,Pin_2*%
%TO.N,12V_CONN*%
X154953200Y-69675000D03*
%TO.P,J1,3,Pin_3*%
%TO.N,/CAN_BUS/CAN1_H*%
X154953200Y-67675000D03*
%TO.P,J1,4,Pin_4*%
%TO.N,/CAN_BUS/CAN1_L*%
X154953200Y-65675000D03*
%TO.P,J1,5,Pin_5*%
%TO.N,/CAN_BUS/CAN2_H*%
X154953200Y-63675000D03*
%TO.P,J1,6,Pin_6*%
%TO.N,/CAN_BUS/CAN2_L*%
X154953200Y-61675000D03*
%TD*%
D46*
%TO.N,GND*%
X169037000Y-66294000D03*
X168801700Y-77978000D03*
X166624000Y-55118000D03*
D47*
X188722000Y-83058000D03*
D46*
X152713400Y-52218000D03*
X154643800Y-52878400D03*
X159444500Y-82804000D03*
X158149000Y-52675200D03*
X161188400Y-65481200D03*
X152764200Y-52827600D03*
X153373800Y-52218000D03*
X172466000Y-60198000D03*
X164693600Y-79908400D03*
X165201600Y-71475600D03*
X154000332Y-52878399D03*
X164600000Y-56200000D03*
X153356866Y-52861466D03*
X154051132Y-52217999D03*
X160079500Y-82804000D03*
X179590539Y-77907639D03*
X154694600Y-52218000D03*
X158174500Y-82804000D03*
X163830000Y-69850000D03*
X181386517Y-57576683D03*
X179882800Y-70256400D03*
X161925000Y-77343000D03*
X170789600Y-71272400D03*
X166624000Y-60960000D03*
D47*
X193040000Y-83058000D03*
D46*
X164600000Y-62200000D03*
X180497517Y-56687683D03*
X151739600Y-75793600D03*
X188259800Y-67884800D03*
X169016717Y-63647283D03*
X167995600Y-73863200D03*
X187502800Y-67259200D03*
X151688800Y-77063600D03*
X158809500Y-82804000D03*
D47*
X169468800Y-55219600D03*
D46*
X176225200Y-67665600D03*
D47*
X188468000Y-74742000D03*
D46*
X175226422Y-71288273D03*
X160782000Y-78867000D03*
X180594000Y-75590400D03*
X174650400Y-70307200D03*
%TO.N,+3.3V*%
X154542066Y-75488800D03*
X162712400Y-74015600D03*
X155194000Y-77520800D03*
X155905200Y-77520800D03*
D47*
X195580000Y-83058000D03*
D46*
X154516668Y-76166133D03*
X181559200Y-74625200D03*
X154525134Y-76843466D03*
X155913666Y-75488800D03*
X177393600Y-68122800D03*
D47*
X183388000Y-74742000D03*
D46*
X155185534Y-76843466D03*
X179882800Y-67665600D03*
D47*
X191262000Y-83058000D03*
D46*
X189890400Y-66852800D03*
X174650400Y-66954400D03*
X178719517Y-57449683D03*
X155202466Y-75488800D03*
X185724800Y-68021200D03*
X155177068Y-76166133D03*
X168254717Y-64460083D03*
X155896734Y-76843466D03*
X154533600Y-77520800D03*
X184454800Y-66294000D03*
X155888268Y-76166133D03*
%TO.N,+3.3VA*%
X176276000Y-71170800D03*
%TO.N,+12V*%
X164719000Y-81254600D03*
X159198632Y-81090590D03*
%TO.N,+5V*%
X158784000Y-56282000D03*
X156879000Y-55647000D03*
X157514000Y-56282000D03*
X166624000Y-53594000D03*
X158149000Y-56282000D03*
X156879000Y-56282000D03*
X156879000Y-55012000D03*
X166624000Y-59436000D03*
D47*
%TO.N,Net-(C23-Pad1)*%
X188468000Y-76266000D03*
%TO.N,Net-(C24-Pad1)*%
X190754000Y-76200000D03*
D46*
%TO.N,I2C2_SCL*%
X189028333Y-67664435D03*
%TO.N,I2C2_SDA*%
X185318400Y-67310000D03*
%TO.N,GPIO_3*%
X179616817Y-71123922D03*
%TO.N,NRST*%
X173482000Y-69469000D03*
%TO.N,Net-(C31-Pad1)*%
X178689000Y-80264000D03*
%TO.N,Net-(C30-Pad1)*%
X177419000Y-80264000D03*
%TO.N,Net-(C29-Pad1)*%
X176149000Y-80264000D03*
%TO.N,Net-(C28-Pad1)*%
X174752000Y-80264000D03*
%TO.N,Net-(C32-Pad1)*%
X173482000Y-80264000D03*
%TO.N,Net-(C27-Pad1)*%
X172212000Y-80264000D03*
%TO.N,Net-(C26-Pad1)*%
X170942000Y-80264000D03*
%TO.N,Net-(C25-Pad1)*%
X169672000Y-80264000D03*
%TO.N,BOOT0*%
X171058500Y-62992000D03*
%TO.N,LED_STATUS*%
X171348400Y-67005200D03*
X167640000Y-65735200D03*
%TD*%
D48*
%TO.N,GND*%
X150889000Y-54062000D02*
X152889000Y-54062000D01*
X150529000Y-54422000D02*
X150889000Y-54062000D01*
%TO.N,OSC_IN*%
X168766400Y-71486800D02*
X168766400Y-71086800D01*
X168755200Y-71475600D02*
X168766400Y-71486800D01*
X169294939Y-70558261D02*
X171218565Y-70558261D01*
X167081200Y-71475600D02*
X168755200Y-71475600D01*
X171218565Y-70558261D02*
X172005913Y-69770913D01*
X168766400Y-71086800D02*
X169294939Y-70558261D01*
%TO.N,GND*%
X187198000Y-74742000D02*
X188468000Y-74742000D01*
X152391300Y-77063600D02*
X151688800Y-77063600D01*
X158149000Y-53602000D02*
X158149000Y-52675200D01*
X180898800Y-58064400D02*
X181386517Y-57576683D01*
X159885000Y-77580300D02*
X159825500Y-77520800D01*
X159825500Y-77520800D02*
X159825500Y-76633300D01*
X170945253Y-65280785D02*
X169774068Y-64109600D01*
X154953200Y-71675000D02*
X158182500Y-71675000D01*
X180294317Y-74629849D02*
X180294317Y-75026483D01*
X168766400Y-72886800D02*
X168766400Y-73092400D01*
X180294317Y-75026483D02*
X180294317Y-75290717D01*
X168910000Y-66421000D02*
X169037000Y-66294000D01*
X165946200Y-71475600D02*
X165201600Y-71475600D01*
X168083000Y-54991000D02*
X166751000Y-54991000D01*
X169468800Y-64109600D02*
X169468800Y-64099366D01*
X178970915Y-73306447D02*
X180294317Y-74629849D01*
X169240200Y-54991000D02*
X169468800Y-55219600D01*
X158182500Y-71675000D02*
X158841400Y-71016100D01*
X158479500Y-81873000D02*
X158479500Y-82499000D01*
X163133000Y-62103000D02*
X164503000Y-62103000D01*
X159885000Y-78867000D02*
X160782000Y-78867000D01*
X166751000Y-54991000D02*
X166624000Y-55118000D01*
X162107400Y-65481200D02*
X161188400Y-65481200D01*
X168748900Y-74472800D02*
X168605200Y-74472800D01*
X164668200Y-79883000D02*
X164693600Y-79908400D01*
X164465000Y-69528500D02*
X164151500Y-69528500D01*
X169774068Y-64109600D02*
X169468800Y-64109600D01*
X164151500Y-69528500D02*
X163830000Y-69850000D01*
X158479500Y-82499000D02*
X158174500Y-82804000D01*
X168766400Y-73092400D02*
X167995600Y-73863200D01*
X180009800Y-57175400D02*
X180497517Y-56687683D01*
X152391300Y-75793600D02*
X151739600Y-75793600D01*
X168083000Y-60833000D02*
X166751000Y-60833000D01*
X166751000Y-60833000D02*
X166624000Y-60960000D01*
X168910000Y-66929000D02*
X168910000Y-66421000D01*
X175075242Y-71651332D02*
X175075242Y-71439453D01*
X158479500Y-82474000D02*
X158809500Y-82804000D01*
X158479500Y-81873000D02*
X158479500Y-82474000D01*
X169866400Y-71486800D02*
X170575200Y-71486800D01*
X164503000Y-62103000D02*
X164600000Y-62200000D01*
X168605200Y-74472800D02*
X167995600Y-73863200D01*
X159825500Y-76633300D02*
X160817600Y-75641200D01*
X187954883Y-68534317D02*
X187954883Y-68189717D01*
X161940000Y-77358000D02*
X161925000Y-77343000D01*
X162707800Y-77358000D02*
X161940000Y-77358000D01*
X175075242Y-71439453D02*
X175226422Y-71288273D01*
X187015083Y-67746917D02*
X187502800Y-67259200D01*
X168083000Y-54991000D02*
X169240200Y-54991000D01*
X159885000Y-78867000D02*
X159885000Y-77580300D01*
X170789600Y-71272400D02*
X170575200Y-71486800D01*
X158809500Y-82804000D02*
X160079500Y-82804000D01*
X180294317Y-75290717D02*
X180594000Y-75590400D01*
X164539000Y-56261000D02*
X164600000Y-56200000D01*
X187954883Y-68189717D02*
X188259800Y-67884800D01*
X163133000Y-56261000D02*
X164539000Y-56261000D01*
X163902800Y-79883000D02*
X164668200Y-79883000D01*
X169468800Y-64099366D02*
X169016717Y-63647283D01*
%TO.N,OSC_OUT*%
X169883900Y-72904300D02*
X169866400Y-72886800D01*
X169883900Y-74472800D02*
X169883900Y-72904300D01*
X171450000Y-71780400D02*
X170343600Y-72886800D01*
X170343600Y-72886800D02*
X169866400Y-72886800D01*
X172359467Y-70124467D02*
X171450000Y-71033934D01*
X171450000Y-71033934D02*
X171450000Y-71780400D01*
%TO.N,OSC32_IN*%
X167950000Y-68148000D02*
X167950000Y-66929000D01*
X168636000Y-68834000D02*
X167950000Y-68148000D01*
X170704351Y-69658261D02*
X171298806Y-69063806D01*
X169460261Y-69658261D02*
X170704351Y-69658261D01*
X168636000Y-68834000D02*
X169460261Y-69658261D01*
%TO.N,OSC32_OUT*%
X166136000Y-68834000D02*
X167410261Y-70108261D01*
X167410261Y-70108261D02*
X170961459Y-70108261D01*
X165695500Y-68393500D02*
X166136000Y-68834000D01*
X170961459Y-70108261D02*
X171652360Y-69417360D01*
X164465000Y-68393500D02*
X165695500Y-68393500D01*
%TO.N,+3.3V*%
X185875117Y-68886883D02*
X186212517Y-68549483D01*
X186212517Y-68508917D02*
X185724800Y-68021200D01*
X179324468Y-72988248D02*
X180560137Y-74223917D01*
X169869528Y-64912166D02*
X170591700Y-65634338D01*
X181096883Y-74223917D02*
X180560137Y-74223917D01*
X179207234Y-57977966D02*
X179207234Y-57937400D01*
X179324468Y-72952894D02*
X179324468Y-72988248D01*
X168666234Y-64912166D02*
X169869528Y-64912166D01*
X179207234Y-57977966D02*
X179207234Y-59741166D01*
X168666234Y-64871600D02*
X168254717Y-64460083D01*
X179207234Y-59741166D02*
X178617362Y-60331038D01*
X162695000Y-76075200D02*
X162707800Y-76088000D01*
X183920662Y-68356700D02*
X184450845Y-68886883D01*
X184698000Y-74742000D02*
X183388000Y-74742000D01*
X168666234Y-64912166D02*
X168666234Y-64871600D01*
X179207234Y-57937400D02*
X178719517Y-57449683D01*
X186212517Y-68549483D02*
X186212517Y-68508917D01*
X181096883Y-74223917D02*
X181157917Y-74223917D01*
X162695000Y-74828400D02*
X162695000Y-74033000D01*
X162695000Y-74033000D02*
X162712400Y-74015600D01*
X181157917Y-74223917D02*
X181559200Y-74625200D01*
X170591700Y-68356700D02*
X170591700Y-65634338D01*
X162695000Y-74828400D02*
X162695000Y-76075200D01*
X184450845Y-68886883D02*
X185875117Y-68886883D01*
%TO.N,+3.3VA*%
X174847460Y-72599340D02*
X176276000Y-71170800D01*
X174834340Y-72599340D02*
X174847460Y-72599340D01*
%TO.N,+12V*%
X158479500Y-80873000D02*
X158981042Y-80873000D01*
X164719000Y-81254600D02*
X164021100Y-81254600D01*
X164021100Y-81254600D02*
X163919500Y-81153000D01*
X158981042Y-80873000D02*
X159198632Y-81090590D01*
%TO.N,+5V*%
X168083000Y-59563000D02*
X166751000Y-59563000D01*
X166751000Y-53721000D02*
X166624000Y-53594000D01*
X166751000Y-59563000D02*
X166624000Y-59436000D01*
X168083000Y-53721000D02*
X166751000Y-53721000D01*
%TO.N,Net-(D1-Pad2)*%
X163982400Y-65481200D02*
X165530600Y-65481200D01*
X165530600Y-65481200D02*
X165581400Y-65532000D01*
D49*
%TO.N,Net-(F1-Pad2)*%
X160741400Y-71016100D02*
X160741400Y-73291500D01*
X160741400Y-73291500D02*
X160805100Y-73355200D01*
D48*
%TO.N,/CAN_BUS/CAN1_H*%
X161795200Y-60833000D02*
X163133000Y-60833000D01*
X154953200Y-67675000D02*
X161795200Y-60833000D01*
%TO.N,/CAN_BUS/CAN2_H*%
X160450000Y-56900000D02*
X162359000Y-54991000D01*
X154953200Y-63646800D02*
X160450000Y-58150000D01*
X162359000Y-54991000D02*
X163133000Y-54991000D01*
X160450000Y-58150000D02*
X160450000Y-56900000D01*
%TO.N,/POWER/PG3V3*%
X158479500Y-79137500D02*
X158479500Y-80373000D01*
X158750000Y-78867000D02*
X158479500Y-79137500D01*
D50*
%TO.N,Net-(C19-Pad2)*%
X157251400Y-83693000D02*
X156921200Y-83362800D01*
X162754500Y-83693000D02*
X157251400Y-83693000D01*
D48*
%TO.N,Net-(IC3-Pad5)*%
X160155500Y-81873000D02*
X162174500Y-81873000D01*
X162174500Y-81873000D02*
X162724500Y-82423000D01*
%TO.N,Net-(IC3-Pad6)*%
X162724500Y-81153000D02*
X162504500Y-81373000D01*
X162504500Y-81373000D02*
X160155500Y-81373000D01*
%TO.N,Net-(C18-Pad2)*%
X160155500Y-80873000D02*
X161777800Y-80873000D01*
X161777800Y-80873000D02*
X162767800Y-79883000D01*
%TO.N,Net-(IC3-Pad8)*%
X160964500Y-80373000D02*
X162724500Y-78613000D01*
X160155500Y-80373000D02*
X160964500Y-80373000D01*
%TO.N,Net-(C23-Pad1)*%
X187894000Y-75692000D02*
X188468000Y-76266000D01*
X187198000Y-75692000D02*
X187894000Y-75692000D01*
%TO.N,Net-(C24-Pad1)*%
X188788000Y-73792000D02*
X190754000Y-75758000D01*
X187198000Y-73792000D02*
X188788000Y-73792000D01*
X190754000Y-75758000D02*
X190754000Y-76200000D01*
%TO.N,GPIO_2*%
X183940055Y-73034055D02*
X180819843Y-73034055D01*
X180819843Y-73034055D02*
X180031575Y-72245787D01*
X184698000Y-73792000D02*
X183940055Y-73034055D01*
%TO.N,GPIO_1*%
X182184200Y-74563505D02*
X182184200Y-74331891D01*
X184698000Y-75692000D02*
X183312695Y-75692000D01*
X181336364Y-73484055D02*
X180562737Y-73484055D01*
X180562737Y-73484055D02*
X179678022Y-72599340D01*
X183312695Y-75692000D02*
X182184200Y-74563505D01*
X182184200Y-74331891D02*
X181336364Y-73484055D01*
%TO.N,SPI_CS*%
X186499499Y-64071501D02*
X185448145Y-64071501D01*
X188722000Y-61849000D02*
X186499499Y-64071501D01*
X185448145Y-64071501D02*
X184280803Y-65238843D01*
%TO.N,SPI2_SCK*%
X188268894Y-60579000D02*
X188722000Y-60579000D01*
X186316211Y-62955947D02*
X186427163Y-63066899D01*
X186851427Y-62642634D02*
X186740474Y-62531681D01*
X187589004Y-61258889D02*
X188268894Y-60579000D01*
X186740474Y-62107417D02*
X186740475Y-62107418D01*
X187664600Y-61758749D02*
X187589003Y-61683152D01*
X186851427Y-62642633D02*
X186851427Y-62642634D01*
X183567109Y-65280785D02*
X185891947Y-62955947D01*
X187164740Y-62107418D02*
X187240336Y-62183014D01*
X186740475Y-62107418D02*
X186740476Y-62107418D01*
X187664600Y-61758748D02*
X187664600Y-61758749D01*
X187589003Y-61258888D02*
X187589004Y-61258889D01*
X186851426Y-63066898D02*
G75*
G02*
X186427164Y-63066898I-212131J212131D01*
G01*
X186740425Y-62107368D02*
G75*
G03*
X186740474Y-62531681I212175J-212132D01*
G01*
X187588983Y-61258868D02*
G75*
G03*
X187589003Y-61683152I212117J-212132D01*
G01*
X186851393Y-62642667D02*
G75*
G02*
X186851427Y-63066899I-212093J-212133D01*
G01*
X187664581Y-61758767D02*
G75*
G02*
X187664600Y-62183014I-212081J-212133D01*
G01*
X187664599Y-62183013D02*
G75*
G02*
X187240337Y-62183013I-212131J212131D01*
G01*
X186316210Y-62955948D02*
G75*
G03*
X185891948Y-62955948I-212131J-212131D01*
G01*
X187164739Y-62107419D02*
G75*
G03*
X186740477Y-62107419I-212131J-212131D01*
G01*
%TO.N,SPI2_MISO*%
X186170137Y-61610584D02*
X186170138Y-61610582D01*
X185672747Y-62461529D02*
X186170137Y-61964136D01*
X184900137Y-62537450D02*
X184976059Y-62461529D01*
X185672746Y-62461530D02*
X185672747Y-62461529D01*
X183213556Y-64920717D02*
X184900137Y-63234136D01*
X188722000Y-59412273D02*
X188722000Y-59309000D01*
X184900139Y-62537449D02*
X184900137Y-62537450D01*
X186170137Y-61257030D02*
X186240849Y-61186319D01*
X184900137Y-62885794D02*
X184900138Y-62885792D01*
X186947956Y-61186320D02*
X186947957Y-61186319D01*
X186947957Y-61186319D02*
X188722000Y-59412273D01*
X186170139Y-61257029D02*
X186170137Y-61257030D01*
X184900102Y-62885829D02*
G75*
G02*
X184900137Y-63234136I-174102J-174171D01*
G01*
X184900118Y-62537428D02*
G75*
G03*
X184900138Y-62885792I174182J-174172D01*
G01*
X186594403Y-61186319D02*
G75*
G03*
X186240849Y-61186319I-176777J-176778D01*
G01*
X185672771Y-62461555D02*
G75*
G02*
X185324403Y-62461529I-174171J174155D01*
G01*
X185324403Y-62461529D02*
G75*
G03*
X184976059Y-62461529I-174172J-174173D01*
G01*
X186170133Y-61257023D02*
G75*
G03*
X186170138Y-61610582I176767J-176777D01*
G01*
X186170097Y-61610624D02*
G75*
G02*
X186170137Y-61964136I-176697J-176776D01*
G01*
X186947976Y-61186340D02*
G75*
G02*
X186594403Y-61186319I-176776J176840D01*
G01*
%TO.N,I2C2_SCL*%
X189028333Y-69415271D02*
X189028333Y-67664435D01*
X188861002Y-69582602D02*
X189028333Y-69415271D01*
X188187204Y-70256400D02*
X188861002Y-69582602D01*
X183699042Y-70256400D02*
X188187204Y-70256400D01*
X182860002Y-69417360D02*
X183699042Y-70256400D01*
%TO.N,I2C2_SDA*%
X183213556Y-69063806D02*
X182619101Y-68469351D01*
X183411726Y-67310000D02*
X185318400Y-67310000D01*
X182619101Y-68469351D02*
X182619101Y-68102625D01*
X182619101Y-68102625D02*
X183411726Y-67310000D01*
%TO.N,GPIO_3*%
X180385129Y-71892233D02*
X179616817Y-71123922D01*
%TO.N,GPIO_4*%
X190440055Y-72584055D02*
X192258000Y-74402000D01*
X181784057Y-72584055D02*
X190440055Y-72584055D01*
X180738682Y-71538680D02*
X181784057Y-72584055D01*
X192258000Y-74402000D02*
X192786000Y-74402000D01*
%TO.N,GPIO_5*%
X194169945Y-72134055D02*
X197358000Y-68946000D01*
X181092235Y-71185127D02*
X182041163Y-72134055D01*
X182041163Y-72134055D02*
X194169945Y-72134055D01*
%TO.N,GPIO_6*%
X182298271Y-71684055D02*
X189173945Y-71684055D01*
X189173945Y-71684055D02*
X191907000Y-68951000D01*
X191907000Y-68951000D02*
X192786000Y-68951000D01*
X181445789Y-70831573D02*
X182298271Y-71684055D01*
%TO.N,NRST*%
X173482000Y-69709040D02*
X172713020Y-70478020D01*
X173482000Y-69469000D02*
X173482000Y-69709040D01*
%TO.N,SWCLK*%
X175524000Y-59960038D02*
X175524000Y-57145000D01*
X175895000Y-60331038D02*
X175524000Y-59960038D01*
%TO.N,SWDIO*%
X176794000Y-60063312D02*
X178363287Y-61632599D01*
X176794000Y-57145000D02*
X176794000Y-60063312D01*
X178730013Y-61632599D02*
X179324468Y-61038144D01*
X178363287Y-61632599D02*
X178730013Y-61632599D01*
%TO.N,Net-(C31-Pad1)*%
X178714400Y-79095600D02*
X178714400Y-80238600D01*
X178857600Y-80432600D02*
X178689000Y-80264000D01*
X178857600Y-82346800D02*
X178857600Y-80432600D01*
X178714400Y-80238600D02*
X178689000Y-80264000D01*
%TO.N,Net-(C30-Pad1)*%
X177419000Y-79121344D02*
X177415368Y-79117712D01*
X177607600Y-82346800D02*
X177607600Y-80452600D01*
X177419000Y-80264000D02*
X177419000Y-79121344D01*
X177607600Y-80452600D02*
X177419000Y-80264000D01*
%TO.N,Net-(C29-Pad1)*%
X176357600Y-80472600D02*
X176149000Y-80264000D01*
X176116340Y-79112184D02*
X176116340Y-80231340D01*
X176357600Y-82346800D02*
X176357600Y-80472600D01*
X176116340Y-80231340D02*
X176149000Y-80264000D01*
%TO.N,Net-(C28-Pad1)*%
X174752000Y-80264000D02*
X174752000Y-79166440D01*
X175107600Y-80619600D02*
X174752000Y-80264000D01*
X174752000Y-79166440D02*
X174817312Y-79101128D01*
X175107600Y-82346800D02*
X175107600Y-80619600D01*
%TO.N,Net-(C32-Pad1)*%
X173857600Y-80639600D02*
X173482000Y-80264000D01*
X173518284Y-80227716D02*
X173482000Y-80264000D01*
X173857600Y-82346800D02*
X173857600Y-80639600D01*
X173518284Y-79106656D02*
X173518284Y-80227716D01*
%TO.N,Net-(C27-Pad1)*%
X172607600Y-80659600D02*
X172212000Y-80264000D01*
X172607600Y-82346800D02*
X172607600Y-80659600D01*
X172212000Y-80264000D02*
X172212000Y-79091800D01*
X172212000Y-79091800D02*
X172219256Y-79084544D01*
%TO.N,Net-(C26-Pad1)*%
X170920228Y-79079016D02*
X170920228Y-80242228D01*
X171357600Y-80679600D02*
X170942000Y-80264000D01*
X170920228Y-80242228D02*
X170942000Y-80264000D01*
X171357600Y-82346800D02*
X171357600Y-80679600D01*
%TO.N,Net-(C25-Pad1)*%
X169621200Y-80213200D02*
X169672000Y-80264000D01*
X170107600Y-80699600D02*
X169672000Y-80264000D01*
X169621200Y-79090072D02*
X169621200Y-80213200D01*
X170107600Y-82346800D02*
X170107600Y-80699600D01*
%TO.N,GPIO_7*%
X195590000Y-63490000D02*
X197358000Y-63490000D01*
X182555377Y-71234055D02*
X188607945Y-71234055D01*
X188607945Y-71234055D02*
X191811000Y-68031000D01*
X191811000Y-68031000D02*
X191811000Y-67269000D01*
X181799342Y-70478020D02*
X182555377Y-71234055D01*
X191811000Y-67269000D02*
X195590000Y-63490000D01*
%TO.N,GPIO_8*%
X191262000Y-67818000D02*
X191262000Y-65004000D01*
X188361079Y-70718921D02*
X191262000Y-67818000D01*
X182747349Y-70718921D02*
X188361079Y-70718921D01*
X182152895Y-70124467D02*
X182747349Y-70718921D01*
X191262000Y-65004000D02*
X192786000Y-63480000D01*
D49*
%TO.N,12V_CONN*%
X159257500Y-69675000D02*
X159791400Y-69141100D01*
X154953200Y-69675000D02*
X159257500Y-69675000D01*
D48*
%TO.N,BOOT0*%
X172005913Y-64220125D02*
X171058500Y-63272712D01*
X171058500Y-63272712D02*
X171058500Y-62992000D01*
%TO.N,/CAN_BUS/CAN1_L*%
X163133000Y-59563000D02*
X161925000Y-59563000D01*
X161925000Y-59563000D02*
X155813000Y-65675000D01*
X155813000Y-65675000D02*
X154953200Y-65675000D01*
%TO.N,LED_STATUS*%
X171539708Y-68115798D02*
X170945253Y-68710253D01*
X167436800Y-65532000D02*
X167640000Y-65735200D01*
X166776400Y-65532000D02*
X167436800Y-65532000D01*
X171539708Y-67196508D02*
X171539708Y-68115798D01*
X171348400Y-67005200D02*
X171539708Y-67196508D01*
%TO.N,/CAN_BUS/CAN2_L*%
X162629000Y-53721000D02*
X159700000Y-56650000D01*
X154953200Y-61675000D02*
X155749000Y-61675000D01*
X159700000Y-56650000D02*
X159700000Y-57702500D01*
X163133000Y-53721000D02*
X162629000Y-53721000D01*
X154953200Y-61675000D02*
X155727500Y-61675000D01*
X159700000Y-57702500D02*
X158900000Y-58502500D01*
X155727500Y-61675000D02*
X158900000Y-58502500D01*
%TO.N,Net-(C19-Pad1)*%
X163889500Y-82453000D02*
X163919500Y-82423000D01*
X163889500Y-83693000D02*
X163889500Y-82453000D01*
%TO.N,Net-(C20-Pad1)*%
X163919500Y-74917900D02*
X163830000Y-74828400D01*
X163919500Y-78613000D02*
X163919500Y-74917900D01*
%TO.N,ADC_A1*%
X169764178Y-76489256D02*
X169764178Y-77752094D01*
X173066573Y-70831573D02*
X173066573Y-70853432D01*
X171704000Y-74549434D02*
X169764178Y-76489256D01*
X169764178Y-77752094D02*
X169621200Y-77895072D01*
X171704000Y-72216005D02*
X171704000Y-74549434D01*
X173066573Y-70853432D02*
X171704000Y-72216005D01*
%TO.N,ADC_A2*%
X170818628Y-77782416D02*
X170920228Y-77884016D01*
X172154000Y-75142828D02*
X170818628Y-76478200D01*
X170818628Y-76478200D02*
X170818628Y-77782416D01*
X173416873Y-71185127D02*
X172154000Y-72448000D01*
X172154000Y-72448000D02*
X172154000Y-75142828D01*
%TO.N,ADC_A3*%
X173773680Y-71538680D02*
X172604000Y-72708360D01*
X172604000Y-77504800D02*
X172219256Y-77889544D01*
X172604000Y-72708360D02*
X172604000Y-77504800D01*
%TO.N,ADC_A4*%
X173054000Y-77447372D02*
X173518284Y-77911656D01*
X174106767Y-71892233D02*
X173054000Y-72945000D01*
X173054000Y-72945000D02*
X173054000Y-77447372D01*
%TO.N,ADC_B1*%
X174117000Y-74023788D02*
X174117000Y-77205816D01*
X175187894Y-72952894D02*
X174117000Y-74023788D01*
X174117000Y-77205816D02*
X174817312Y-77906128D01*
%TO.N,ADC_B2*%
X174567000Y-76367844D02*
X176116340Y-77917184D01*
X174567000Y-74280894D02*
X174567000Y-76367844D01*
X175541447Y-73306447D02*
X174567000Y-74280894D01*
%TO.N,ADC_B3*%
X175017000Y-74538000D02*
X175895000Y-73660000D01*
X177349312Y-77922712D02*
X175017000Y-75590400D01*
X177415368Y-77922712D02*
X177349312Y-77922712D01*
X175017000Y-75590400D02*
X175017000Y-74538000D01*
%TO.N,ADC_B4*%
X178617362Y-73664562D02*
X179324000Y-74371200D01*
X178617362Y-73660000D02*
X178617362Y-73664562D01*
X179324000Y-77291000D02*
X178714400Y-77900600D01*
X179324000Y-74371200D02*
X179324000Y-77291000D01*
%TO.N,Net-(C1-Pad1)*%
X184193739Y-69336883D02*
X187152317Y-69336883D01*
X183567109Y-68710253D02*
X184193739Y-69336883D01*
%TO.N,SPI2_MOSI*%
X182860002Y-64573678D02*
X184277000Y-63156680D01*
X184277000Y-62484000D02*
X188722000Y-58039000D01*
X184277000Y-63156680D02*
X184277000Y-62484000D01*
%TO.N,TIM3_CH1*%
X183827000Y-62934000D02*
X183827000Y-62297604D01*
X183168426Y-63592574D02*
X183827000Y-62934000D01*
X183827000Y-62297604D02*
X187452000Y-58672604D01*
X182506449Y-64220125D02*
X183134000Y-63592574D01*
X187452000Y-57531000D02*
X189815000Y-55168000D01*
X187452000Y-58672604D02*
X187452000Y-57531000D01*
X183134000Y-63592574D02*
X183168426Y-63592574D01*
X189815000Y-55168000D02*
X189815000Y-52890000D01*
%TO.N,TIM3_CH2*%
X186944000Y-58544208D02*
X186944000Y-56896000D01*
X184110505Y-60670599D02*
X184181217Y-60599888D01*
X184888324Y-60599889D02*
X184888325Y-60599888D01*
X188565000Y-55275000D02*
X188565000Y-52890000D01*
X183377000Y-62642466D02*
X183377000Y-62111211D01*
X184888325Y-60599888D02*
X186944000Y-58544208D01*
X182152895Y-63866571D02*
X183377000Y-62642466D01*
X184110507Y-60670598D02*
X184110505Y-60670599D01*
X183377000Y-62111211D02*
X184110505Y-61377705D01*
X186944000Y-56896000D02*
X188565000Y-55275000D01*
X184110505Y-61024153D02*
X184110506Y-61024151D01*
X184110532Y-60670623D02*
G75*
G03*
X184110506Y-61024151I176768J-176777D01*
G01*
X184888276Y-60599841D02*
G75*
G02*
X184534771Y-60599888I-176776J176741D01*
G01*
X184110534Y-61024124D02*
G75*
G02*
X184110505Y-61377705I-176834J-176776D01*
G01*
X184534771Y-60599888D02*
G75*
G03*
X184181217Y-60599888I-176777J-176778D01*
G01*
%TO.N,TIM3_CH3*%
X186309000Y-56261000D02*
X187315000Y-55255000D01*
X185923584Y-58170419D02*
X185923585Y-58170418D01*
X185145764Y-58241130D02*
X185145765Y-58241129D01*
X185145765Y-58241129D02*
X185216477Y-58170418D01*
X181799342Y-63513018D02*
X182927000Y-62385360D01*
X185322539Y-58771458D02*
X185145765Y-58594683D01*
X185428606Y-59372500D02*
X185499316Y-59301789D01*
X185075052Y-59372500D02*
X185075053Y-59372500D01*
X185499316Y-58948235D02*
X185322539Y-58771458D01*
X185923585Y-58170418D02*
X186309000Y-57785000D01*
X187315000Y-55255000D02*
X187315000Y-52890000D01*
X185428606Y-59372499D02*
X185428606Y-59372500D01*
X182927000Y-61167000D02*
X184721500Y-59372500D01*
X182927000Y-62385360D02*
X182927000Y-61167000D01*
X186309000Y-57785000D02*
X186309000Y-56261000D01*
X185428577Y-59372470D02*
G75*
G02*
X185075053Y-59372500I-176777J176770D01*
G01*
X185923575Y-58170410D02*
G75*
G02*
X185570032Y-58170417I-176775J176810D01*
G01*
X185075052Y-59372500D02*
G75*
G03*
X184721500Y-59372500I-176776J-176776D01*
G01*
X185570031Y-58170418D02*
G75*
G03*
X185216477Y-58170418I-176777J-176778D01*
G01*
X185145759Y-58241125D02*
G75*
G03*
X185145766Y-58594682I176741J-176775D01*
G01*
X185499328Y-58948223D02*
G75*
G02*
X185499316Y-59301789I-176828J-176777D01*
G01*
%TO.N,TIM1_CH1*%
X182321200Y-61576946D02*
X182321200Y-60375800D01*
X185420000Y-56261000D02*
X186065000Y-55616000D01*
X185420000Y-57277000D02*
X185420000Y-56261000D01*
X186065000Y-55616000D02*
X186065000Y-52890000D01*
X181092235Y-62805911D02*
X182321200Y-61576946D01*
X182321200Y-60375800D02*
X185420000Y-57277000D01*
%TO.N,TIM1_CH2*%
X183697965Y-57629482D02*
X183945452Y-57381996D01*
X183874739Y-57983036D02*
X183874739Y-57983035D01*
X180738682Y-62452358D02*
X181864000Y-61327040D01*
X183627253Y-58407299D02*
X183627252Y-58407300D01*
X183627252Y-58407300D02*
X183874739Y-58159812D01*
X181864000Y-61327040D02*
X181864000Y-59817000D01*
X184815000Y-56866000D02*
X184815000Y-52890000D01*
X184299007Y-57381996D02*
X184299006Y-57381996D01*
X181864000Y-59817000D02*
X183273700Y-58407300D01*
X184122228Y-57381996D02*
X184122230Y-57381995D01*
X183874739Y-57983035D02*
X183697964Y-57806260D01*
X184299006Y-57381996D02*
X184815000Y-56866000D01*
X183697964Y-57629484D02*
X183697965Y-57629482D01*
X183627289Y-58407335D02*
G75*
G02*
X183450476Y-58407300I-88389J88435D01*
G01*
X184298987Y-57381976D02*
G75*
G02*
X184122231Y-57381994I-88387J88376D01*
G01*
X183450476Y-58407300D02*
G75*
G03*
X183273700Y-58407300I-88388J-88386D01*
G01*
X183874762Y-57983013D02*
G75*
G02*
X183874738Y-58159811I-88362J-88387D01*
G01*
X183697992Y-57629512D02*
G75*
G03*
X183697964Y-57806260I88408J-88388D01*
G01*
X184122228Y-57381996D02*
G75*
G03*
X183945452Y-57381996I-88388J-88386D01*
G01*
%TO.N,TIM1_CH3*%
X182622605Y-58042392D02*
X182462661Y-57882447D01*
X180420483Y-62098805D02*
X181229000Y-61290288D01*
X182021565Y-58323545D02*
X182181512Y-58483492D01*
X182462662Y-57562553D02*
X182567033Y-57458183D01*
X181597300Y-58427916D02*
X181701673Y-58323544D01*
X182021565Y-58323544D02*
X182021565Y-58323545D01*
X182462661Y-57562555D02*
X182462662Y-57562553D01*
X181229000Y-59436000D02*
X181597300Y-59067700D01*
X183565000Y-57100000D02*
X183565000Y-52890000D01*
X182413016Y-58538216D02*
X182694164Y-58257067D01*
X180385129Y-62098805D02*
X180420483Y-62098805D01*
X183553290Y-57111710D02*
X183565000Y-57100000D01*
X182886925Y-57458183D02*
X182886927Y-57458182D01*
X182694164Y-58113951D02*
X182622605Y-58042392D01*
X181229000Y-61290288D02*
X181229000Y-59436000D01*
X182886927Y-57458182D02*
X182886928Y-57458183D01*
X182198342Y-58466658D02*
X182269900Y-58538216D01*
X182181512Y-58483492D02*
X182198342Y-58466658D01*
X183206820Y-57458183D02*
X183553290Y-57111710D01*
X182462660Y-57562554D02*
G75*
G03*
X182462661Y-57882447I159940J-159946D01*
G01*
X181597253Y-58747855D02*
G75*
G02*
X181597299Y-59067699I-159853J-159945D01*
G01*
X183206820Y-57458183D02*
G75*
G02*
X182886928Y-57458183I-159946J159945D01*
G01*
X181597338Y-58427954D02*
G75*
G03*
X181597300Y-58747808I159862J-159946D01*
G01*
X182021565Y-58323544D02*
G75*
G03*
X181701673Y-58323544I-159946J-159945D01*
G01*
X182886925Y-57458183D02*
G75*
G03*
X182567033Y-57458183I-159946J-159945D01*
G01*
X182413016Y-58538216D02*
G75*
G02*
X182269900Y-58538216I-71558J71559D01*
G01*
X182694172Y-58113943D02*
G75*
G02*
X182694163Y-58257066I-71572J-71557D01*
G01*
%TO.N,Net-(C2-Pad1)*%
X180096234Y-59559272D02*
X180096234Y-58866966D01*
X178970915Y-60684591D02*
X180096234Y-59559272D01*
%TO.N,CAN2_RX*%
X173066573Y-63159465D02*
X171673643Y-61766535D01*
X171673643Y-61766535D02*
X171673643Y-55664892D01*
X171673643Y-55664892D02*
X168459751Y-52451000D01*
X168459751Y-52451000D02*
X168083000Y-52451000D01*
%TO.N,CAN2_TX*%
X171223643Y-57912000D02*
X169572643Y-56261000D01*
X169572643Y-56261000D02*
X168083000Y-56261000D01*
X171223643Y-62023641D02*
X171223643Y-57912000D01*
X172713020Y-63513018D02*
X171223643Y-62023641D01*
%TO.N,CAN1_RX*%
X170434000Y-63355318D02*
X171652360Y-64573678D01*
X168083000Y-58293000D02*
X168459751Y-58293000D01*
X168459751Y-58293000D02*
X170434000Y-60267249D01*
X170434000Y-60267249D02*
X170434000Y-63355318D01*
%TO.N,CAN1_TX*%
X168083000Y-62103000D02*
X168474574Y-62103000D01*
X168474574Y-62103000D02*
X171298806Y-64927232D01*
%TD*%
%TA.AperFunction,Conductor*%
%TO.N,GND*%
G36*
X158878247Y-81732004D02*
G01*
X158924929Y-81785495D01*
X158936500Y-81838241D01*
X158936500Y-82296000D01*
X160344964Y-82413372D01*
X160411188Y-82438962D01*
X160453065Y-82496294D01*
X160460500Y-82538937D01*
X160460500Y-83058696D01*
X160440498Y-83126817D01*
X160386842Y-83173310D01*
X160334197Y-83184696D01*
X159395332Y-83182437D01*
X158019309Y-83179126D01*
X157951236Y-83158960D01*
X157904873Y-83105192D01*
X157893621Y-83054627D01*
X157887929Y-82576736D01*
X157907118Y-82508382D01*
X157960216Y-82461253D01*
X158014786Y-82449238D01*
X158074992Y-82449652D01*
X158241969Y-82450800D01*
X158249089Y-81848010D01*
X158269893Y-81780132D01*
X158324094Y-81734276D01*
X158375079Y-81723500D01*
X158736748Y-81723500D01*
X158781098Y-81714678D01*
X158805225Y-81712259D01*
X158810058Y-81712242D01*
X158878247Y-81732004D01*
G37*
%TD.AperFunction*%
%TD*%
%TA.AperFunction,Conductor*%
%TO.N,+3.3V*%
G36*
X156406121Y-75153202D02*
G01*
X156452614Y-75206858D01*
X156464000Y-75259200D01*
X156464000Y-80646000D01*
X156443998Y-80714121D01*
X156390342Y-80760614D01*
X156338000Y-80772000D01*
X153185270Y-80772000D01*
X153117149Y-80751998D01*
X153070656Y-80698342D01*
X153059275Y-80647135D01*
X153010745Y-75260335D01*
X153030133Y-75192037D01*
X153083367Y-75145063D01*
X153136740Y-75133200D01*
X156338000Y-75133200D01*
X156406121Y-75153202D01*
G37*
%TD.AperFunction*%
%TD*%
%TA.AperFunction,Conductor*%
%TO.N,+12V*%
G36*
X153002521Y-54782402D02*
G01*
X153049014Y-54836058D01*
X153060400Y-54888400D01*
X153060400Y-56311929D01*
X153040398Y-56380050D01*
X152993084Y-56423429D01*
X151954117Y-56970254D01*
X151130000Y-57404000D01*
X151130000Y-71882000D01*
X151138465Y-71892714D01*
X151138465Y-71892715D01*
X151727307Y-72638046D01*
X151748008Y-72664249D01*
X151758575Y-72664210D01*
X157207883Y-72644067D01*
X157226000Y-72644000D01*
X157226000Y-72262000D01*
X157246002Y-72193879D01*
X157299658Y-72147386D01*
X157352000Y-72136000D01*
X159386000Y-72136000D01*
X159454121Y-72156002D01*
X159500614Y-72209658D01*
X159512000Y-72262000D01*
X159512000Y-76525747D01*
X159510086Y-76547624D01*
X159508370Y-76557357D01*
X159505990Y-76568092D01*
X159496236Y-76604493D01*
X159497197Y-76615478D01*
X159497197Y-76615480D01*
X159499520Y-76642028D01*
X159500000Y-76653010D01*
X159500000Y-76836000D01*
X159479998Y-76904121D01*
X159426342Y-76950614D01*
X159374000Y-76962000D01*
X159258000Y-76962000D01*
X159258000Y-77325210D01*
X159257833Y-77329816D01*
X159257500Y-77332101D01*
X159257501Y-77709498D01*
X159257833Y-77711757D01*
X159258000Y-77716316D01*
X159258000Y-77826600D01*
X159237998Y-77894721D01*
X159184342Y-77941214D01*
X159132000Y-77952600D01*
X158038800Y-77952600D01*
X158038800Y-80721200D01*
X158198900Y-80721200D01*
X158211250Y-80721807D01*
X158216184Y-80722293D01*
X158222252Y-80723500D01*
X158228439Y-80723500D01*
X158231556Y-80723807D01*
X158297389Y-80750390D01*
X158338398Y-80808344D01*
X158341565Y-80879270D01*
X158305884Y-80940649D01*
X158242683Y-80972993D01*
X158219206Y-80975200D01*
X157352000Y-80975200D01*
X157283879Y-80955198D01*
X157237386Y-80901542D01*
X157226000Y-80849200D01*
X157226000Y-74168000D01*
X151189015Y-74168000D01*
X151120894Y-74147998D01*
X151092219Y-74122663D01*
X149889204Y-72679045D01*
X149860960Y-72613908D01*
X149860000Y-72598382D01*
X149860000Y-55752000D01*
X149880002Y-55683879D01*
X149933658Y-55637386D01*
X149986000Y-55626000D01*
X151892000Y-55626000D01*
X151892000Y-54888400D01*
X151912002Y-54820279D01*
X151965658Y-54773786D01*
X152018000Y-54762400D01*
X152934400Y-54762400D01*
X153002521Y-54782402D01*
G37*
%TD.AperFunction*%
%TD*%
%TA.AperFunction,Conductor*%
%TO.N,+5V*%
G36*
X157120729Y-54651002D02*
G01*
X157167222Y-54704658D01*
X157177326Y-54774932D01*
X157175807Y-54783420D01*
X157175642Y-54784192D01*
X157166328Y-54875097D01*
X157166071Y-54880126D01*
X157170475Y-54895124D01*
X157171865Y-54896329D01*
X157179548Y-54898000D01*
X158277000Y-54898000D01*
X158345121Y-54918002D01*
X158391614Y-54971658D01*
X158403000Y-55024000D01*
X158403000Y-56091885D01*
X158407475Y-56107124D01*
X158408865Y-56108329D01*
X158416548Y-56110000D01*
X158444438Y-56110000D01*
X158450953Y-56109663D01*
X158543057Y-56100106D01*
X158556456Y-56097212D01*
X158705107Y-56047619D01*
X158718286Y-56041445D01*
X158851173Y-55959212D01*
X158862574Y-55950176D01*
X158949827Y-55862771D01*
X159012110Y-55828692D01*
X159082930Y-55833695D01*
X159139802Y-55876192D01*
X159164671Y-55942691D01*
X159165000Y-55951789D01*
X159165000Y-56664000D01*
X159144998Y-56732121D01*
X159091342Y-56778614D01*
X159039000Y-56790000D01*
X156534197Y-56790000D01*
X156466076Y-56769998D01*
X156419583Y-56716342D01*
X156409479Y-56646068D01*
X156438973Y-56581488D01*
X156461386Y-56563405D01*
X156460462Y-56562172D01*
X156569724Y-56480285D01*
X156582285Y-56467724D01*
X156658786Y-56365649D01*
X156667324Y-56350054D01*
X156712478Y-56229606D01*
X156716105Y-56214351D01*
X156721631Y-56163486D01*
X156722000Y-56156672D01*
X156722000Y-56130115D01*
X156717525Y-56114876D01*
X156716135Y-56113671D01*
X156708452Y-56112000D01*
X155765000Y-56112000D01*
X155696879Y-56091998D01*
X155650386Y-56038342D01*
X155639000Y-55986000D01*
X155639000Y-55793885D01*
X155939000Y-55793885D01*
X155943475Y-55809124D01*
X155944865Y-55810329D01*
X155952548Y-55812000D01*
X156703884Y-55812000D01*
X156719123Y-55807525D01*
X156720328Y-55806135D01*
X156721999Y-55798452D01*
X156721999Y-55767331D01*
X156721629Y-55760510D01*
X156716105Y-55709648D01*
X156712479Y-55694396D01*
X156667324Y-55573946D01*
X156654478Y-55550483D01*
X156656928Y-55549141D01*
X156637096Y-55496055D01*
X156652151Y-55426673D01*
X156654873Y-55422438D01*
X157166000Y-55422438D01*
X157166337Y-55428953D01*
X157175894Y-55521057D01*
X157178788Y-55534456D01*
X157228381Y-55683107D01*
X157234555Y-55696286D01*
X157316788Y-55829173D01*
X157325824Y-55840574D01*
X157436429Y-55950986D01*
X157447840Y-55959998D01*
X157580880Y-56042004D01*
X157594061Y-56048151D01*
X157742814Y-56097491D01*
X157756190Y-56100358D01*
X157847097Y-56109672D01*
X157853513Y-56110000D01*
X157876885Y-56110000D01*
X157892124Y-56105525D01*
X157893329Y-56104135D01*
X157895000Y-56096452D01*
X157895000Y-55424115D01*
X157890525Y-55408876D01*
X157889135Y-55407671D01*
X157881452Y-55406000D01*
X157184115Y-55406000D01*
X157168876Y-55410475D01*
X157167671Y-55411865D01*
X157166000Y-55419548D01*
X157166000Y-55422438D01*
X156654873Y-55422438D01*
X156656197Y-55420378D01*
X156667324Y-55400054D01*
X156712478Y-55279606D01*
X156716105Y-55264351D01*
X156721631Y-55213486D01*
X156722000Y-55206672D01*
X156722000Y-55180115D01*
X156717525Y-55164876D01*
X156716135Y-55163671D01*
X156708452Y-55162000D01*
X155957115Y-55162000D01*
X155941876Y-55166475D01*
X155940671Y-55167865D01*
X155939000Y-55175548D01*
X155939000Y-55793885D01*
X155639000Y-55793885D01*
X155639000Y-54988000D01*
X155659002Y-54919879D01*
X155712658Y-54873386D01*
X155765000Y-54862000D01*
X156703884Y-54862000D01*
X156719123Y-54857525D01*
X156720328Y-54856135D01*
X156721999Y-54848452D01*
X156721999Y-54817331D01*
X156721630Y-54810512D01*
X156717295Y-54770606D01*
X156729824Y-54700724D01*
X156778145Y-54648709D01*
X156842558Y-54631000D01*
X157052608Y-54631000D01*
X157120729Y-54651002D01*
G37*
%TD.AperFunction*%
%TD*%
%TA.AperFunction,Conductor*%
%TO.N,Net-(C19-Pad2)*%
G36*
X158571621Y-81243502D02*
G01*
X158618114Y-81297158D01*
X158629500Y-81349500D01*
X158629500Y-81396500D01*
X158609498Y-81464621D01*
X158558743Y-81508600D01*
X157988000Y-81508600D01*
X157970514Y-81523000D01*
X157752116Y-81523000D01*
X157736877Y-81527475D01*
X157735672Y-81528865D01*
X157734001Y-81536548D01*
X157734001Y-81567669D01*
X157734371Y-81574490D01*
X157740748Y-81633207D01*
X157738540Y-81633447D01*
X157735423Y-81693040D01*
X157696645Y-81748539D01*
X157675812Y-81765696D01*
X157556200Y-81864200D01*
X157556200Y-84075000D01*
X157536198Y-84143121D01*
X157482542Y-84189614D01*
X157430200Y-84201000D01*
X156297874Y-84201000D01*
X156229753Y-84180998D01*
X156183260Y-84127342D01*
X156173156Y-84057068D01*
X156179892Y-84030771D01*
X156200478Y-83975859D01*
X156204105Y-83960601D01*
X156209631Y-83909736D01*
X156210000Y-83902922D01*
X156210000Y-83203115D01*
X156205525Y-83187876D01*
X156204135Y-83186671D01*
X156196452Y-83185000D01*
X152926116Y-83185000D01*
X152910877Y-83189475D01*
X152909672Y-83190865D01*
X152908001Y-83198548D01*
X152908001Y-83902919D01*
X152908371Y-83909740D01*
X152913895Y-83960602D01*
X152917522Y-83975856D01*
X152938108Y-84030771D01*
X152943291Y-84101578D01*
X152909370Y-84163947D01*
X152847115Y-84198076D01*
X152820126Y-84201000D01*
X152272000Y-84201000D01*
X152203879Y-84180998D01*
X152157386Y-84127342D01*
X152146000Y-84075000D01*
X152146000Y-82658885D01*
X152908000Y-82658885D01*
X152912475Y-82674124D01*
X152913865Y-82675329D01*
X152921548Y-82677000D01*
X154286885Y-82677000D01*
X154302124Y-82672525D01*
X154303329Y-82671135D01*
X154305000Y-82663452D01*
X154305000Y-82658885D01*
X154813000Y-82658885D01*
X154817475Y-82674124D01*
X154818865Y-82675329D01*
X154826548Y-82677000D01*
X156191884Y-82677000D01*
X156207123Y-82672525D01*
X156208328Y-82671135D01*
X156209999Y-82663452D01*
X156209999Y-81959081D01*
X156209629Y-81952260D01*
X156204105Y-81901398D01*
X156200479Y-81886146D01*
X156155324Y-81765696D01*
X156146786Y-81750101D01*
X156070285Y-81648026D01*
X156057724Y-81635465D01*
X155955649Y-81558964D01*
X155940054Y-81550426D01*
X155819606Y-81505272D01*
X155804351Y-81501645D01*
X155753486Y-81496119D01*
X155746672Y-81495750D01*
X154831115Y-81495750D01*
X154815876Y-81500225D01*
X154814671Y-81501615D01*
X154813000Y-81509298D01*
X154813000Y-82658885D01*
X154305000Y-82658885D01*
X154305000Y-81513866D01*
X154300525Y-81498627D01*
X154299135Y-81497422D01*
X154291452Y-81495751D01*
X153371331Y-81495751D01*
X153364510Y-81496121D01*
X153313648Y-81501645D01*
X153298396Y-81505271D01*
X153177946Y-81550426D01*
X153162351Y-81558964D01*
X153060276Y-81635465D01*
X153047715Y-81648026D01*
X152971214Y-81750101D01*
X152962676Y-81765696D01*
X152917522Y-81886144D01*
X152913895Y-81901399D01*
X152908369Y-81952264D01*
X152908000Y-81959078D01*
X152908000Y-82658885D01*
X152146000Y-82658885D01*
X152146000Y-81355200D01*
X152166002Y-81287079D01*
X152219658Y-81240586D01*
X152272000Y-81229200D01*
X158522913Y-81229200D01*
X158571621Y-81243502D01*
G37*
%TD.AperFunction*%
%TD*%
%TA.AperFunction,Conductor*%
%TO.N,GND*%
G36*
X155017721Y-51933202D02*
G01*
X155064214Y-51986858D01*
X155075600Y-52039200D01*
X155075600Y-53128000D01*
X155055598Y-53196121D01*
X155001942Y-53242614D01*
X154949600Y-53254000D01*
X154611115Y-53254000D01*
X154595876Y-53258475D01*
X154594671Y-53259865D01*
X154593000Y-53267548D01*
X154593000Y-55140000D01*
X154572998Y-55208121D01*
X154519342Y-55254614D01*
X154467000Y-55266000D01*
X154211000Y-55266000D01*
X154142879Y-55245998D01*
X154096386Y-55192342D01*
X154085000Y-55140000D01*
X154085000Y-53272116D01*
X154080525Y-53256877D01*
X154079135Y-53255672D01*
X154071452Y-53254001D01*
X153444331Y-53254001D01*
X153437510Y-53254371D01*
X153386648Y-53259895D01*
X153371396Y-53263521D01*
X153250946Y-53308676D01*
X153235356Y-53317211D01*
X153153142Y-53378827D01*
X153086635Y-53403674D01*
X153077577Y-53404000D01*
X153057115Y-53404000D01*
X153041876Y-53408475D01*
X153040671Y-53409865D01*
X153039000Y-53417548D01*
X153039000Y-54086000D01*
X153018998Y-54154121D01*
X152965342Y-54200614D01*
X152913000Y-54212000D01*
X152865000Y-54212000D01*
X152796879Y-54191998D01*
X152750386Y-54138342D01*
X152739000Y-54086000D01*
X152739000Y-53422116D01*
X152734525Y-53406877D01*
X152733135Y-53405672D01*
X152725452Y-53404001D01*
X152534600Y-53404001D01*
X152466479Y-53383999D01*
X152419986Y-53330343D01*
X152408600Y-53278001D01*
X152408600Y-52039200D01*
X152428602Y-51971079D01*
X152482258Y-51924586D01*
X152534600Y-51913200D01*
X154949600Y-51913200D01*
X155017721Y-51933202D01*
G37*
%TD.AperFunction*%
%TD*%
M02*
