%TF.GenerationSoftware,KiCad,Pcbnew,(6.0.8)*%
%TF.CreationDate,2023-03-18T00:57:18+01:00*%
%TF.ProjectId,WHEEL-07,57484545-4c2d-4303-972e-6b696361645f,rev?*%
%TF.SameCoordinates,Original*%
%TF.FileFunction,Copper,L4,Bot*%
%TF.FilePolarity,Positive*%
%FSLAX46Y46*%
G04 Gerber Fmt 4.6, Leading zero omitted, Abs format (unit mm)*
G04 Created by KiCad (PCBNEW (6.0.8)) date 2023-03-18 00:57:18*
%MOMM*%
%LPD*%
G01*
G04 APERTURE LIST*
G04 Aperture macros list*
%AMRoundRect*
0 Rectangle with rounded corners*
0 $1 Rounding radius*
0 $2 $3 $4 $5 $6 $7 $8 $9 X,Y pos of 4 corners*
0 Add a 4 corners polygon primitive as box body*
4,1,4,$2,$3,$4,$5,$6,$7,$8,$9,$2,$3,0*
0 Add four circle primitives for the rounded corners*
1,1,$1+$1,$2,$3*
1,1,$1+$1,$4,$5*
1,1,$1+$1,$6,$7*
1,1,$1+$1,$8,$9*
0 Add four rect primitives between the rounded corners*
20,1,$1+$1,$2,$3,$4,$5,0*
20,1,$1+$1,$4,$5,$6,$7,0*
20,1,$1+$1,$6,$7,$8,$9,0*
20,1,$1+$1,$8,$9,$2,$3,0*%
%AMFreePoly0*
4,1,22,0.550000,-0.750000,0.000000,-0.750000,0.000000,-0.745033,-0.079941,-0.743568,-0.215256,-0.701293,-0.333266,-0.622738,-0.424486,-0.514219,-0.481581,-0.384460,-0.499164,-0.250000,-0.500000,-0.250000,-0.500000,0.250000,-0.499164,0.250000,-0.499963,0.256109,-0.478152,0.396186,-0.417904,0.524511,-0.324060,0.630769,-0.204165,0.706417,-0.067858,0.745374,0.000000,0.744959,0.000000,0.750000,
0.550000,0.750000,0.550000,-0.750000,0.550000,-0.750000,$1*%
%AMFreePoly1*
4,1,20,0.000000,0.744959,0.073905,0.744508,0.209726,0.703889,0.328688,0.626782,0.421226,0.519385,0.479903,0.390333,0.500000,0.250000,0.500000,-0.250000,0.499851,-0.262216,0.476331,-0.402017,0.414519,-0.529596,0.319384,-0.634700,0.198574,-0.708877,0.061801,-0.746166,0.000000,-0.745033,0.000000,-0.750000,-0.550000,-0.750000,-0.550000,0.750000,0.000000,0.750000,0.000000,0.744959,
0.000000,0.744959,$1*%
G04 Aperture macros list end*
%TA.AperFunction,ComponentPad*%
%ADD10O,1.200000X1.800000*%
%TD*%
%TA.AperFunction,ComponentPad*%
%ADD11RoundRect,0.250000X0.350000X0.650000X-0.350000X0.650000X-0.350000X-0.650000X0.350000X-0.650000X0*%
%TD*%
%TA.AperFunction,ComponentPad*%
%ADD12RoundRect,0.200000X-0.450000X0.200000X-0.450000X-0.200000X0.450000X-0.200000X0.450000X0.200000X0*%
%TD*%
%TA.AperFunction,ComponentPad*%
%ADD13O,1.300000X0.800000*%
%TD*%
%TA.AperFunction,ComponentPad*%
%ADD14RoundRect,0.200000X0.200000X0.450000X-0.200000X0.450000X-0.200000X-0.450000X0.200000X-0.450000X0*%
%TD*%
%TA.AperFunction,ComponentPad*%
%ADD15O,0.800000X1.300000*%
%TD*%
%TA.AperFunction,ComponentPad*%
%ADD16R,1.700000X1.700000*%
%TD*%
%TA.AperFunction,ComponentPad*%
%ADD17O,1.700000X1.700000*%
%TD*%
%TA.AperFunction,ComponentPad*%
%ADD18R,1.000000X1.000000*%
%TD*%
%TA.AperFunction,ComponentPad*%
%ADD19O,1.000000X1.000000*%
%TD*%
%TA.AperFunction,ComponentPad*%
%ADD20RoundRect,0.250000X0.650000X-0.350000X0.650000X0.350000X-0.650000X0.350000X-0.650000X-0.350000X0*%
%TD*%
%TA.AperFunction,ComponentPad*%
%ADD21O,1.800000X1.200000*%
%TD*%
%TA.AperFunction,SMDPad,CuDef*%
%ADD22RoundRect,0.225000X-0.250000X0.225000X-0.250000X-0.225000X0.250000X-0.225000X0.250000X0.225000X0*%
%TD*%
%TA.AperFunction,SMDPad,CuDef*%
%ADD23RoundRect,0.155000X-0.155000X0.212500X-0.155000X-0.212500X0.155000X-0.212500X0.155000X0.212500X0*%
%TD*%
%TA.AperFunction,SMDPad,CuDef*%
%ADD24RoundRect,0.155000X0.155000X-0.212500X0.155000X0.212500X-0.155000X0.212500X-0.155000X-0.212500X0*%
%TD*%
%TA.AperFunction,SMDPad,CuDef*%
%ADD25RoundRect,0.160000X0.197500X0.160000X-0.197500X0.160000X-0.197500X-0.160000X0.197500X-0.160000X0*%
%TD*%
%TA.AperFunction,SMDPad,CuDef*%
%ADD26RoundRect,0.160000X-0.160000X0.197500X-0.160000X-0.197500X0.160000X-0.197500X0.160000X0.197500X0*%
%TD*%
%TA.AperFunction,SMDPad,CuDef*%
%ADD27RoundRect,0.160000X-0.197500X-0.160000X0.197500X-0.160000X0.197500X0.160000X-0.197500X0.160000X0*%
%TD*%
%TA.AperFunction,SMDPad,CuDef*%
%ADD28RoundRect,0.160000X0.160000X-0.197500X0.160000X0.197500X-0.160000X0.197500X-0.160000X-0.197500X0*%
%TD*%
%TA.AperFunction,SMDPad,CuDef*%
%ADD29FreePoly0,90.000000*%
%TD*%
%TA.AperFunction,SMDPad,CuDef*%
%ADD30R,1.500000X1.000000*%
%TD*%
%TA.AperFunction,SMDPad,CuDef*%
%ADD31FreePoly1,90.000000*%
%TD*%
%TA.AperFunction,SMDPad,CuDef*%
%ADD32RoundRect,0.147500X-0.172500X0.147500X-0.172500X-0.147500X0.172500X-0.147500X0.172500X0.147500X0*%
%TD*%
%TA.AperFunction,ViaPad*%
%ADD33C,0.600000*%
%TD*%
%TA.AperFunction,ViaPad*%
%ADD34C,0.800000*%
%TD*%
%TA.AperFunction,Conductor*%
%ADD35C,0.250000*%
%TD*%
G04 APERTURE END LIST*
D10*
%TO.P,J5,4,Pin_4*%
%TO.N,GND*%
X189405000Y-78930000D03*
%TO.P,J5,3,Pin_3*%
%TO.N,PADDLE2_IN*%
X191405000Y-78930000D03*
%TO.P,J5,2,Pin_2*%
%TO.N,GND*%
X193405000Y-78930000D03*
D11*
%TO.P,J5,1,Pin_1*%
%TO.N,PADDLE1_IN*%
X195405000Y-78930000D03*
%TD*%
D12*
%TO.P,J7,1,Pin_1*%
%TO.N,GND*%
X197358000Y-73152000D03*
D13*
%TO.P,J7,2,Pin_2*%
%TO.N,GPIO_3*%
X197358000Y-74402000D03*
%TD*%
D14*
%TO.P,J17,1,Pin_1*%
%TO.N,TIM3_CH1*%
X189815000Y-52890000D03*
D15*
%TO.P,J17,2,Pin_2*%
%TO.N,TIM3_CH2*%
X188565000Y-52890000D03*
%TO.P,J17,3,Pin_3*%
%TO.N,TIM3_CH3*%
X187315000Y-52890000D03*
%TO.P,J17,4,Pin_4*%
%TO.N,TIM1_CH1*%
X186065000Y-52890000D03*
%TO.P,J17,5,Pin_5*%
%TO.N,TIM1_CH2*%
X184815000Y-52890000D03*
%TO.P,J17,6,Pin_6*%
%TO.N,TIM1_CH3*%
X183565000Y-52890000D03*
%TD*%
D16*
%TO.P,J16,1,Pin_1*%
%TO.N,GND*%
X196088000Y-53898800D03*
D17*
%TO.P,J16,2,Pin_2*%
%TO.N,+3.3V*%
X196088000Y-56438800D03*
%TD*%
D12*
%TO.P,J14,1,Pin_1*%
%TO.N,GND*%
X197358000Y-62240000D03*
D13*
%TO.P,J14,2,Pin_2*%
%TO.N,GPIO_7*%
X197358000Y-63490000D03*
%TD*%
D12*
%TO.P,J10,1,Pin_1*%
%TO.N,GND*%
X192786000Y-67701000D03*
D13*
%TO.P,J10,2,Pin_2*%
%TO.N,GPIO_6*%
X192786000Y-68951000D03*
%TD*%
D14*
%TO.P,J12,1,Pin_1*%
%TO.N,+3.3V*%
X181357600Y-82346800D03*
D15*
%TO.P,J12,2,Pin_2*%
%TO.N,GND*%
X180107600Y-82346800D03*
%TO.P,J12,3,Pin_3*%
%TO.N,Net-(C31-Pad1)*%
X178857600Y-82346800D03*
%TO.P,J12,4,Pin_4*%
%TO.N,Net-(C30-Pad1)*%
X177607600Y-82346800D03*
%TO.P,J12,5,Pin_5*%
%TO.N,Net-(C29-Pad1)*%
X176357600Y-82346800D03*
%TO.P,J12,6,Pin_6*%
%TO.N,Net-(C28-Pad1)*%
X175107600Y-82346800D03*
%TO.P,J12,7,Pin_7*%
%TO.N,Net-(C32-Pad1)*%
X173857600Y-82346800D03*
%TO.P,J12,8,Pin_8*%
%TO.N,Net-(C27-Pad1)*%
X172607600Y-82346800D03*
%TO.P,J12,9,Pin_9*%
%TO.N,Net-(C26-Pad1)*%
X171357600Y-82346800D03*
%TO.P,J12,10,Pin_10*%
%TO.N,Net-(C25-Pad1)*%
X170107600Y-82346800D03*
%TD*%
D18*
%TO.P,J11,1,Pin_1*%
%TO.N,+3.3V*%
X175524000Y-54605000D03*
D19*
%TO.P,J11,2,Pin_2*%
%TO.N,GND*%
X176794000Y-54605000D03*
%TO.P,J11,3,Pin_3*%
%TO.N,unconnected-(J11-Pad3)*%
X175524000Y-55875000D03*
%TO.P,J11,4,Pin_4*%
%TO.N,NRST*%
X176794000Y-55875000D03*
%TO.P,J11,5,Pin_5*%
%TO.N,SWCLK*%
X175524000Y-57145000D03*
%TO.P,J11,6,Pin_6*%
%TO.N,SWDIO*%
X176794000Y-57145000D03*
%TD*%
D12*
%TO.P,J8,1,Pin_1*%
%TO.N,GND*%
X192786000Y-73152000D03*
D13*
%TO.P,J8,2,Pin_2*%
%TO.N,GPIO_4*%
X192786000Y-74402000D03*
%TD*%
D12*
%TO.P,J9,1,Pin_1*%
%TO.N,GND*%
X197358000Y-67696000D03*
D13*
%TO.P,J9,2,Pin_2*%
%TO.N,GPIO_5*%
X197358000Y-68946000D03*
%TD*%
D12*
%TO.P,J15,1,Pin_1*%
%TO.N,GND*%
X192786000Y-62230000D03*
D13*
%TO.P,J15,2,Pin_2*%
%TO.N,GPIO_8*%
X192786000Y-63480000D03*
%TD*%
D18*
%TO.P,J2,1,Pin_1*%
%TO.N,I2C2_SCL*%
X188722000Y-64389000D03*
D19*
%TO.P,J2,2,Pin_2*%
%TO.N,I2C2_SDA*%
X188722000Y-63119000D03*
%TO.P,J2,3,Pin_3*%
%TO.N,SPI_CS*%
X188722000Y-61849000D03*
%TO.P,J2,4,Pin_4*%
%TO.N,SPI2_SCK*%
X188722000Y-60579000D03*
%TO.P,J2,5,Pin_5*%
%TO.N,SPI2_MISO*%
X188722000Y-59309000D03*
%TO.P,J2,6,Pin_6*%
%TO.N,SPI2_MOSI*%
X188722000Y-58039000D03*
%TD*%
D20*
%TO.P,J1,1,Pin_1*%
%TO.N,GND*%
X154953200Y-71675000D03*
D21*
%TO.P,J1,2,Pin_2*%
%TO.N,12V_CONN*%
X154953200Y-69675000D03*
%TO.P,J1,3,Pin_3*%
%TO.N,/CAN_BUS/CAN1_H*%
X154953200Y-67675000D03*
%TO.P,J1,4,Pin_4*%
%TO.N,/CAN_BUS/CAN1_L*%
X154953200Y-65675000D03*
%TO.P,J1,5,Pin_5*%
%TO.N,/CAN_BUS/CAN2_H*%
X154953200Y-63675000D03*
%TO.P,J1,6,Pin_6*%
%TO.N,/CAN_BUS/CAN2_L*%
X154953200Y-61675000D03*
%TD*%
D22*
%TO.P,C33,1*%
%TO.N,+3.3V*%
X174650400Y-67842800D03*
%TO.P,C33,2*%
%TO.N,GND*%
X174650400Y-69392800D03*
%TD*%
D23*
%TO.P,C23,1*%
%TO.N,Net-(C23-Pad1)*%
X188722000Y-80966500D03*
%TO.P,C23,2*%
%TO.N,GND*%
X188722000Y-82101500D03*
%TD*%
D24*
%TO.P,C27,1*%
%TO.N,Net-(C27-Pad1)*%
X172219256Y-79307500D03*
%TO.P,C27,2*%
%TO.N,GND*%
X172219256Y-78172500D03*
%TD*%
D25*
%TO.P,R2,1*%
%TO.N,+3.3V*%
X189878300Y-66141600D03*
%TO.P,R2,2*%
%TO.N,I2C2_SCL*%
X188683300Y-66141600D03*
%TD*%
D24*
%TO.P,C32,1*%
%TO.N,Net-(C32-Pad1)*%
X173518284Y-79307500D03*
%TO.P,C32,2*%
%TO.N,GND*%
X173518284Y-78172500D03*
%TD*%
%TO.P,C8,1*%
%TO.N,+3.3VA*%
X178612800Y-69587300D03*
%TO.P,C8,2*%
%TO.N,GND*%
X178612800Y-68452300D03*
%TD*%
D26*
%TO.P,R13,1*%
%TO.N,PADDLE1_IN*%
X195580000Y-80936500D03*
%TO.P,R13,2*%
%TO.N,+3.3V*%
X195580000Y-82131500D03*
%TD*%
D24*
%TO.P,C30,1*%
%TO.N,Net-(C30-Pad1)*%
X177415368Y-79307500D03*
%TO.P,C30,2*%
%TO.N,GND*%
X177415368Y-78172500D03*
%TD*%
D26*
%TO.P,R15,1*%
%TO.N,PADDLE1_IN*%
X194310000Y-80936500D03*
%TO.P,R15,2*%
%TO.N,Net-(C24-Pad1)*%
X194310000Y-82131500D03*
%TD*%
D27*
%TO.P,R3,1*%
%TO.N,+3.3V*%
X185228900Y-66141600D03*
%TO.P,R3,2*%
%TO.N,I2C2_SDA*%
X186423900Y-66141600D03*
%TD*%
D24*
%TO.P,C26,1*%
%TO.N,Net-(C26-Pad1)*%
X170920228Y-79307500D03*
%TO.P,C26,2*%
%TO.N,GND*%
X170920228Y-78172500D03*
%TD*%
%TO.P,C9,1*%
%TO.N,+3.3VA*%
X176174400Y-69587300D03*
%TO.P,C9,2*%
%TO.N,GND*%
X176174400Y-68452300D03*
%TD*%
%TO.P,C28,1*%
%TO.N,Net-(C28-Pad1)*%
X174817312Y-79307500D03*
%TO.P,C28,2*%
%TO.N,GND*%
X174817312Y-78172500D03*
%TD*%
%TO.P,C31,1*%
%TO.N,Net-(C31-Pad1)*%
X178714400Y-79307500D03*
%TO.P,C31,2*%
%TO.N,GND*%
X178714400Y-78172500D03*
%TD*%
D23*
%TO.P,C7,1*%
%TO.N,+3.3V*%
X179832000Y-68461000D03*
%TO.P,C7,2*%
%TO.N,GND*%
X179832000Y-69596000D03*
%TD*%
D26*
%TO.P,R12,1*%
%TO.N,PADDLE2_IN*%
X191262000Y-80936500D03*
%TO.P,R12,2*%
%TO.N,+3.3V*%
X191262000Y-82131500D03*
%TD*%
D28*
%TO.P,R1,1*%
%TO.N,BOOT0*%
X170688000Y-61811500D03*
%TO.P,R1,2*%
%TO.N,Net-(JP1-Pad2)*%
X170688000Y-60616500D03*
%TD*%
D23*
%TO.P,C24,1*%
%TO.N,Net-(C24-Pad1)*%
X193040000Y-80966500D03*
%TO.P,C24,2*%
%TO.N,GND*%
X193040000Y-82101500D03*
%TD*%
D24*
%TO.P,C29,1*%
%TO.N,Net-(C29-Pad1)*%
X176116340Y-79307500D03*
%TO.P,C29,2*%
%TO.N,GND*%
X176116340Y-78172500D03*
%TD*%
D29*
%TO.P,JP1,1,A*%
%TO.N,GND*%
X172466000Y-58958000D03*
D30*
%TO.P,JP1,2,C*%
%TO.N,Net-(JP1-Pad2)*%
X172466000Y-57658000D03*
D31*
%TO.P,JP1,3,B*%
%TO.N,+3.3V*%
X172466000Y-56358000D03*
%TD*%
D24*
%TO.P,C25,1*%
%TO.N,Net-(C25-Pad1)*%
X169621200Y-79307500D03*
%TO.P,C25,2*%
%TO.N,GND*%
X169621200Y-78172500D03*
%TD*%
D32*
%TO.P,L1,1*%
%TO.N,+3.3V*%
X177393600Y-68704600D03*
%TO.P,L1,2*%
%TO.N,+3.3VA*%
X177393600Y-69674600D03*
%TD*%
D26*
%TO.P,R14,1*%
%TO.N,PADDLE2_IN*%
X189992000Y-80936500D03*
%TO.P,R14,2*%
%TO.N,Net-(C23-Pad1)*%
X189992000Y-82131500D03*
%TD*%
D33*
%TO.N,GND*%
X169037000Y-66294000D03*
X168801700Y-77978000D03*
X166624000Y-55118000D03*
D34*
X188722000Y-83058000D03*
D33*
X152713400Y-52218000D03*
X154643800Y-52878400D03*
X159444500Y-82804000D03*
X158149000Y-52675200D03*
X161188400Y-65481200D03*
X152764200Y-52827600D03*
X153373800Y-52218000D03*
X172466000Y-60198000D03*
X164693600Y-79908400D03*
X165201600Y-71475600D03*
X154000332Y-52878399D03*
X164600000Y-56200000D03*
X153356866Y-52861466D03*
X154051132Y-52217999D03*
X160079500Y-82804000D03*
X179590539Y-77907639D03*
X154694600Y-52218000D03*
X158174500Y-82804000D03*
X163830000Y-69850000D03*
X181386517Y-57576683D03*
X179882800Y-70256400D03*
X161925000Y-77343000D03*
X170789600Y-71272400D03*
X166624000Y-60960000D03*
D34*
X193040000Y-83058000D03*
D33*
X164600000Y-62200000D03*
X180497517Y-56687683D03*
X151739600Y-75793600D03*
X188259800Y-67884800D03*
X169016717Y-63647283D03*
X167995600Y-73863200D03*
X187502800Y-67259200D03*
X151688800Y-77063600D03*
X158809500Y-82804000D03*
D34*
X169468800Y-55219600D03*
D33*
X176225200Y-67665600D03*
D34*
X188468000Y-74742000D03*
D33*
X175226422Y-71288273D03*
X160782000Y-78867000D03*
X180594000Y-75590400D03*
X174650400Y-70307200D03*
%TO.N,+3.3V*%
X154542066Y-75488800D03*
X162712400Y-74015600D03*
X155194000Y-77520800D03*
X155905200Y-77520800D03*
D34*
X195580000Y-83058000D03*
D33*
X154516668Y-76166133D03*
X181559200Y-74625200D03*
X154525134Y-76843466D03*
X155913666Y-75488800D03*
X177393600Y-68122800D03*
D34*
X183388000Y-74742000D03*
D33*
X155185534Y-76843466D03*
X179882800Y-67665600D03*
D34*
X191262000Y-83058000D03*
D33*
X189890400Y-66852800D03*
X174650400Y-66954400D03*
X178719517Y-57449683D03*
X155202466Y-75488800D03*
X185724800Y-68021200D03*
X155177068Y-76166133D03*
X168254717Y-64460083D03*
X155896734Y-76843466D03*
X154533600Y-77520800D03*
X184454800Y-66294000D03*
X155888268Y-76166133D03*
%TO.N,+3.3VA*%
X176276000Y-71170800D03*
%TO.N,+12V*%
X164719000Y-81254600D03*
X159198632Y-81090590D03*
%TO.N,+5V*%
X158784000Y-56282000D03*
X156879000Y-55647000D03*
X157514000Y-56282000D03*
X166624000Y-53594000D03*
X158149000Y-56282000D03*
X156879000Y-56282000D03*
X156879000Y-55012000D03*
X166624000Y-59436000D03*
D34*
%TO.N,Net-(C23-Pad1)*%
X188468000Y-76266000D03*
%TO.N,Net-(C24-Pad1)*%
X190754000Y-76200000D03*
D33*
%TO.N,I2C2_SCL*%
X189028333Y-67664435D03*
%TO.N,I2C2_SDA*%
X185318400Y-67310000D03*
%TO.N,GPIO_3*%
X179616817Y-71123922D03*
%TO.N,NRST*%
X173482000Y-69469000D03*
%TO.N,Net-(C31-Pad1)*%
X178689000Y-80264000D03*
%TO.N,Net-(C30-Pad1)*%
X177419000Y-80264000D03*
%TO.N,Net-(C29-Pad1)*%
X176149000Y-80264000D03*
%TO.N,Net-(C28-Pad1)*%
X174752000Y-80264000D03*
%TO.N,Net-(C32-Pad1)*%
X173482000Y-80264000D03*
%TO.N,Net-(C27-Pad1)*%
X172212000Y-80264000D03*
%TO.N,Net-(C26-Pad1)*%
X170942000Y-80264000D03*
%TO.N,Net-(C25-Pad1)*%
X169672000Y-80264000D03*
%TO.N,BOOT0*%
X171058500Y-62992000D03*
%TO.N,LED_STATUS*%
X171348400Y-67005200D03*
X167640000Y-65735200D03*
%TD*%
D35*
%TO.N,GND*%
X176225200Y-67665600D02*
X176225200Y-68401500D01*
X179882800Y-70256400D02*
X179882800Y-69646800D01*
X179882800Y-69646800D02*
X179832000Y-69596000D01*
X168198800Y-73863200D02*
X167995600Y-73863200D01*
X168996200Y-78172500D02*
X168801700Y-77978000D01*
X188722000Y-82101500D02*
X188722000Y-83058000D01*
X179756500Y-69596000D02*
X178612800Y-68452300D01*
X193040000Y-82101500D02*
X193040000Y-83058000D01*
X179832000Y-69596000D02*
X179756500Y-69596000D01*
X172466000Y-58958000D02*
X172466000Y-60198000D01*
X174650400Y-69392800D02*
X174650400Y-70307200D01*
X169621200Y-78172500D02*
X168996200Y-78172500D01*
X176225200Y-68401500D02*
X176174400Y-68452300D01*
X178714400Y-78172500D02*
X179325678Y-78172500D01*
X170789600Y-71272400D02*
X168198800Y-73863200D01*
X179325678Y-78172500D02*
X179590539Y-77907639D01*
X169621200Y-78172500D02*
X178714400Y-78172500D01*
%TO.N,+3.3V*%
X189878300Y-66141600D02*
X189878300Y-66840700D01*
X174219000Y-54605000D02*
X175524000Y-54605000D01*
X174650400Y-67842800D02*
X174650400Y-66954400D01*
X179882800Y-67665600D02*
X179882800Y-68410200D01*
X177393600Y-68704600D02*
X177393600Y-68122800D01*
X172466000Y-56358000D02*
X174219000Y-54605000D01*
X191262000Y-82131500D02*
X191262000Y-83058000D01*
X189878300Y-66840700D02*
X189890400Y-66852800D01*
X184607200Y-66141600D02*
X184454800Y-66294000D01*
X179882800Y-68410200D02*
X179832000Y-68461000D01*
X185228900Y-66141600D02*
X184607200Y-66141600D01*
X195580000Y-82131500D02*
X195580000Y-83058000D01*
%TO.N,+3.3VA*%
X177306300Y-69587300D02*
X177393600Y-69674600D01*
X176174400Y-69587300D02*
X177306300Y-69587300D01*
X177393600Y-69674600D02*
X178525500Y-69674600D01*
X178525500Y-69674600D02*
X178612800Y-69587300D01*
X176276000Y-71170800D02*
X176276000Y-69688900D01*
%TO.N,+12V*%
X164109400Y-81661000D02*
X164312600Y-81661000D01*
X159769042Y-81661000D02*
X164109400Y-81661000D01*
X159198632Y-81090590D02*
X159769042Y-81661000D01*
X164312600Y-81661000D02*
X164719000Y-81254600D01*
%TO.N,Net-(C23-Pad1)*%
X188722000Y-80966500D02*
X188468000Y-80712500D01*
X188468000Y-80712500D02*
X188468000Y-76708000D01*
X189992000Y-82131500D02*
X189887000Y-82131500D01*
X189887000Y-82131500D02*
X188722000Y-80966500D01*
%TO.N,Net-(C24-Pad1)*%
X190754000Y-76200000D02*
X192330000Y-77776000D01*
X193040000Y-80966500D02*
X192330000Y-80256500D01*
X192330000Y-77776000D02*
X192330000Y-80256500D01*
X194205000Y-82131500D02*
X193040000Y-80966500D01*
X194310000Y-82131500D02*
X194205000Y-82131500D01*
%TO.N,I2C2_SCL*%
X188683300Y-64427700D02*
X188722000Y-64389000D01*
X189028333Y-66486633D02*
X188683300Y-66141600D01*
X189028333Y-67664435D02*
X189028333Y-66486633D01*
X188683300Y-66141600D02*
X188683300Y-64427700D01*
%TO.N,I2C2_SDA*%
X186423900Y-66204500D02*
X185318400Y-67310000D01*
X186423900Y-65037100D02*
X186423900Y-66141600D01*
X188342000Y-63119000D02*
X186423900Y-65037100D01*
X188722000Y-63119000D02*
X188342000Y-63119000D01*
%TO.N,PADDLE1_IN*%
X194310000Y-80936500D02*
X195580000Y-80936500D01*
X195405000Y-78930000D02*
X195405000Y-80761500D01*
X195405000Y-80761500D02*
X195580000Y-80936500D01*
%TO.N,PADDLE2_IN*%
X191405000Y-78930000D02*
X191405000Y-80793500D01*
X191405000Y-80793500D02*
X191262000Y-80936500D01*
X189992000Y-80936500D02*
X191262000Y-80936500D01*
%TO.N,GPIO_3*%
X191967000Y-75127000D02*
X189738000Y-72898000D01*
X189738000Y-72898000D02*
X181356000Y-72898000D01*
X197358000Y-74402000D02*
X196633000Y-75127000D01*
X196633000Y-75127000D02*
X191967000Y-75127000D01*
X181356000Y-72898000D02*
X179616817Y-71158817D01*
%TO.N,NRST*%
X177673000Y-56754000D02*
X177673000Y-63047916D01*
X177673000Y-63047916D02*
X173482000Y-67238916D01*
X176794000Y-55875000D02*
X177673000Y-56754000D01*
X173482000Y-67238916D02*
X173482000Y-69469000D01*
%TO.N,Net-(C31-Pad1)*%
X178689000Y-80264000D02*
X178689000Y-79332900D01*
X178689000Y-79332900D02*
X178714400Y-79307500D01*
%TO.N,Net-(C30-Pad1)*%
X177415368Y-80260368D02*
X177419000Y-80264000D01*
X177415368Y-79307500D02*
X177415368Y-80260368D01*
%TO.N,Net-(C29-Pad1)*%
X176149000Y-79340160D02*
X176116340Y-79307500D01*
X176149000Y-80264000D02*
X176149000Y-79340160D01*
%TO.N,Net-(C28-Pad1)*%
X174817312Y-79307500D02*
X174817312Y-80198688D01*
X174817312Y-80198688D02*
X174752000Y-80264000D01*
%TO.N,Net-(C32-Pad1)*%
X173482000Y-80264000D02*
X173482000Y-79343784D01*
X173482000Y-79343784D02*
X173518284Y-79307500D01*
%TO.N,Net-(C27-Pad1)*%
X172219256Y-80256744D02*
X172212000Y-80264000D01*
X172219256Y-79307500D02*
X172219256Y-80256744D01*
%TO.N,Net-(C26-Pad1)*%
X170942000Y-79329272D02*
X170920228Y-79307500D01*
X170942000Y-80264000D02*
X170942000Y-79329272D01*
%TO.N,Net-(C25-Pad1)*%
X169672000Y-80264000D02*
X169672000Y-79358300D01*
X169672000Y-79358300D02*
X169621200Y-79307500D01*
%TO.N,Net-(JP1-Pad2)*%
X170688000Y-60616500D02*
X170688000Y-58436000D01*
X171466000Y-57658000D02*
X172466000Y-57658000D01*
X170688000Y-58436000D02*
X171466000Y-57658000D01*
%TO.N,BOOT0*%
X170688000Y-62621500D02*
X170688000Y-61811500D01*
X171058500Y-62992000D02*
X170688000Y-62621500D01*
%TO.N,LED_STATUS*%
X170012200Y-65669000D02*
X171348400Y-67005200D01*
X167706200Y-65669000D02*
X170012200Y-65669000D01*
X167640000Y-65735200D02*
X167706200Y-65669000D01*
%TD*%
M02*
