%TF.GenerationSoftware,KiCad,Pcbnew,(6.0.8)*%
%TF.CreationDate,2024-11-24T14:11:02+01:00*%
%TF.ProjectId,WHEEL-07,57484545-4c2d-4303-972e-6b696361645f,rev?*%
%TF.SameCoordinates,Original*%
%TF.FileFunction,Paste,Bot*%
%TF.FilePolarity,Positive*%
%FSLAX46Y46*%
G04 Gerber Fmt 4.6, Leading zero omitted, Abs format (unit mm)*
G04 Created by KiCad (PCBNEW (6.0.8)) date 2024-11-24 14:11:02*
%MOMM*%
%LPD*%
G01*
G04 APERTURE LIST*
G04 Aperture macros list*
%AMRoundRect*
0 Rectangle with rounded corners*
0 $1 Rounding radius*
0 $2 $3 $4 $5 $6 $7 $8 $9 X,Y pos of 4 corners*
0 Add a 4 corners polygon primitive as box body*
4,1,4,$2,$3,$4,$5,$6,$7,$8,$9,$2,$3,0*
0 Add four circle primitives for the rounded corners*
1,1,$1+$1,$2,$3*
1,1,$1+$1,$4,$5*
1,1,$1+$1,$6,$7*
1,1,$1+$1,$8,$9*
0 Add four rect primitives between the rounded corners*
20,1,$1+$1,$2,$3,$4,$5,0*
20,1,$1+$1,$4,$5,$6,$7,0*
20,1,$1+$1,$6,$7,$8,$9,0*
20,1,$1+$1,$8,$9,$2,$3,0*%
G04 Aperture macros list end*
%ADD10RoundRect,0.225000X-0.250000X0.225000X-0.250000X-0.225000X0.250000X-0.225000X0.250000X0.225000X0*%
%ADD11RoundRect,0.155000X-0.155000X0.212500X-0.155000X-0.212500X0.155000X-0.212500X0.155000X0.212500X0*%
%ADD12RoundRect,0.155000X0.155000X-0.212500X0.155000X0.212500X-0.155000X0.212500X-0.155000X-0.212500X0*%
%ADD13RoundRect,0.250000X0.325000X0.650000X-0.325000X0.650000X-0.325000X-0.650000X0.325000X-0.650000X0*%
%ADD14RoundRect,0.160000X0.197500X0.160000X-0.197500X0.160000X-0.197500X-0.160000X0.197500X-0.160000X0*%
%ADD15RoundRect,0.160000X-0.160000X0.197500X-0.160000X-0.197500X0.160000X-0.197500X0.160000X0.197500X0*%
%ADD16RoundRect,0.160000X-0.197500X-0.160000X0.197500X-0.160000X0.197500X0.160000X-0.197500X0.160000X0*%
%ADD17RoundRect,0.160000X0.160000X-0.197500X0.160000X0.197500X-0.160000X0.197500X-0.160000X-0.197500X0*%
%ADD18RoundRect,0.147500X-0.172500X0.147500X-0.172500X-0.147500X0.172500X-0.147500X0.172500X0.147500X0*%
G04 APERTURE END LIST*
D10*
%TO.C,C33*%
X174650400Y-67842800D03*
X174650400Y-69392800D03*
%TD*%
D11*
%TO.C,C23*%
X188722000Y-80966500D03*
X188722000Y-82101500D03*
%TD*%
D12*
%TO.C,C27*%
X172219256Y-79307500D03*
X172219256Y-78172500D03*
%TD*%
D13*
%TO.C,C12*%
X154635000Y-73830000D03*
X151685000Y-73830000D03*
%TD*%
%TO.C,C10*%
X154635000Y-83600000D03*
X151685000Y-83600000D03*
%TD*%
D14*
%TO.C,R2*%
X189878300Y-66141600D03*
X188683300Y-66141600D03*
%TD*%
D12*
%TO.C,C32*%
X173518284Y-79307500D03*
X173518284Y-78172500D03*
%TD*%
%TO.C,C8*%
X178612800Y-69587300D03*
X178612800Y-68452300D03*
%TD*%
D15*
%TO.C,R13*%
X195580000Y-80936500D03*
X195580000Y-82131500D03*
%TD*%
D12*
%TO.C,C30*%
X177415368Y-79307500D03*
X177415368Y-78172500D03*
%TD*%
D13*
%TO.C,C15*%
X154615000Y-81030000D03*
X151665000Y-81030000D03*
%TD*%
D15*
%TO.C,R15*%
X194310000Y-80936500D03*
X194310000Y-82131500D03*
%TD*%
D16*
%TO.C,R3*%
X185228900Y-66141600D03*
X186423900Y-66141600D03*
%TD*%
D12*
%TO.C,C26*%
X170920228Y-79307500D03*
X170920228Y-78172500D03*
%TD*%
%TO.C,C9*%
X176174400Y-69587300D03*
X176174400Y-68452300D03*
%TD*%
%TO.C,C28*%
X174817312Y-79307500D03*
X174817312Y-78172500D03*
%TD*%
%TO.C,C31*%
X178714400Y-79307500D03*
X178714400Y-78172500D03*
%TD*%
D11*
%TO.C,C7*%
X179832000Y-68461000D03*
X179832000Y-69596000D03*
%TD*%
D15*
%TO.C,R12*%
X191262000Y-80936500D03*
X191262000Y-82131500D03*
%TD*%
D17*
%TO.C,R1*%
X170688000Y-61811500D03*
X170688000Y-60616500D03*
%TD*%
D13*
%TO.C,C11*%
X154635000Y-76380000D03*
X151685000Y-76380000D03*
%TD*%
D11*
%TO.C,C24*%
X193040000Y-80966500D03*
X193040000Y-82101500D03*
%TD*%
D12*
%TO.C,C29*%
X176116340Y-79307500D03*
X176116340Y-78172500D03*
%TD*%
%TO.C,C25*%
X169621200Y-79307500D03*
X169621200Y-78172500D03*
%TD*%
D18*
%TO.C,L1*%
X177393600Y-68704600D03*
X177393600Y-69674600D03*
%TD*%
D15*
%TO.C,R14*%
X189992000Y-80936500D03*
X189992000Y-82131500D03*
%TD*%
M02*
