%TF.GenerationSoftware,KiCad,Pcbnew,(6.0.8)*%
%TF.CreationDate,2024-11-24T14:11:02+01:00*%
%TF.ProjectId,WHEEL-07,57484545-4c2d-4303-972e-6b696361645f,rev?*%
%TF.SameCoordinates,Original*%
%TF.FileFunction,Soldermask,Bot*%
%TF.FilePolarity,Negative*%
%FSLAX46Y46*%
G04 Gerber Fmt 4.6, Leading zero omitted, Abs format (unit mm)*
G04 Created by KiCad (PCBNEW (6.0.8)) date 2024-11-24 14:11:02*
%MOMM*%
%LPD*%
G01*
G04 APERTURE LIST*
G04 Aperture macros list*
%AMRoundRect*
0 Rectangle with rounded corners*
0 $1 Rounding radius*
0 $2 $3 $4 $5 $6 $7 $8 $9 X,Y pos of 4 corners*
0 Add a 4 corners polygon primitive as box body*
4,1,4,$2,$3,$4,$5,$6,$7,$8,$9,$2,$3,0*
0 Add four circle primitives for the rounded corners*
1,1,$1+$1,$2,$3*
1,1,$1+$1,$4,$5*
1,1,$1+$1,$6,$7*
1,1,$1+$1,$8,$9*
0 Add four rect primitives between the rounded corners*
20,1,$1+$1,$2,$3,$4,$5,0*
20,1,$1+$1,$4,$5,$6,$7,0*
20,1,$1+$1,$6,$7,$8,$9,0*
20,1,$1+$1,$8,$9,$2,$3,0*%
%AMFreePoly0*
4,1,22,0.550000,-0.750000,0.000000,-0.750000,0.000000,-0.745033,-0.079941,-0.743568,-0.215256,-0.701293,-0.333266,-0.622738,-0.424486,-0.514219,-0.481581,-0.384460,-0.499164,-0.250000,-0.500000,-0.250000,-0.500000,0.250000,-0.499164,0.250000,-0.499963,0.256109,-0.478152,0.396186,-0.417904,0.524511,-0.324060,0.630769,-0.204165,0.706417,-0.067858,0.745374,0.000000,0.744959,0.000000,0.750000,
0.550000,0.750000,0.550000,-0.750000,0.550000,-0.750000,$1*%
%AMFreePoly1*
4,1,20,0.000000,0.744959,0.073905,0.744508,0.209726,0.703889,0.328688,0.626782,0.421226,0.519385,0.479903,0.390333,0.500000,0.250000,0.500000,-0.250000,0.499851,-0.262216,0.476331,-0.402017,0.414519,-0.529596,0.319384,-0.634700,0.198574,-0.708877,0.061801,-0.746166,0.000000,-0.745033,0.000000,-0.750000,-0.550000,-0.750000,-0.550000,0.750000,0.000000,0.750000,0.000000,0.744959,
0.000000,0.744959,$1*%
G04 Aperture macros list end*
%ADD10RoundRect,0.250000X0.350000X0.650000X-0.350000X0.650000X-0.350000X-0.650000X0.350000X-0.650000X0*%
%ADD11O,1.200000X1.800000*%
%ADD12RoundRect,0.200000X-0.450000X0.200000X-0.450000X-0.200000X0.450000X-0.200000X0.450000X0.200000X0*%
%ADD13O,1.300000X0.800000*%
%ADD14RoundRect,0.200000X0.200000X0.450000X-0.200000X0.450000X-0.200000X-0.450000X0.200000X-0.450000X0*%
%ADD15O,0.800000X1.300000*%
%ADD16R,1.700000X1.700000*%
%ADD17O,1.700000X1.700000*%
%ADD18R,1.000000X1.000000*%
%ADD19O,1.000000X1.000000*%
%ADD20RoundRect,0.250000X0.650000X-0.350000X0.650000X0.350000X-0.650000X0.350000X-0.650000X-0.350000X0*%
%ADD21O,1.800000X1.200000*%
%ADD22RoundRect,0.225000X-0.250000X0.225000X-0.250000X-0.225000X0.250000X-0.225000X0.250000X0.225000X0*%
%ADD23RoundRect,0.155000X-0.155000X0.212500X-0.155000X-0.212500X0.155000X-0.212500X0.155000X0.212500X0*%
%ADD24RoundRect,0.155000X0.155000X-0.212500X0.155000X0.212500X-0.155000X0.212500X-0.155000X-0.212500X0*%
%ADD25RoundRect,0.250000X0.325000X0.650000X-0.325000X0.650000X-0.325000X-0.650000X0.325000X-0.650000X0*%
%ADD26RoundRect,0.160000X0.197500X0.160000X-0.197500X0.160000X-0.197500X-0.160000X0.197500X-0.160000X0*%
%ADD27RoundRect,0.160000X-0.160000X0.197500X-0.160000X-0.197500X0.160000X-0.197500X0.160000X0.197500X0*%
%ADD28RoundRect,0.160000X-0.197500X-0.160000X0.197500X-0.160000X0.197500X0.160000X-0.197500X0.160000X0*%
%ADD29RoundRect,0.160000X0.160000X-0.197500X0.160000X0.197500X-0.160000X0.197500X-0.160000X-0.197500X0*%
%ADD30FreePoly0,90.000000*%
%ADD31R,1.500000X1.000000*%
%ADD32FreePoly1,90.000000*%
%ADD33RoundRect,0.147500X-0.172500X0.147500X-0.172500X-0.147500X0.172500X-0.147500X0.172500X0.147500X0*%
G04 APERTURE END LIST*
D10*
%TO.C,J5*%
X195405000Y-78930000D03*
D11*
X193405000Y-78930000D03*
X191405000Y-78930000D03*
X189405000Y-78930000D03*
%TD*%
D12*
%TO.C,J7*%
X197358000Y-73152000D03*
D13*
X197358000Y-74402000D03*
%TD*%
D14*
%TO.C,J17*%
X189815000Y-52890000D03*
D15*
X188565000Y-52890000D03*
X187315000Y-52890000D03*
X186065000Y-52890000D03*
X184815000Y-52890000D03*
X183565000Y-52890000D03*
%TD*%
D16*
%TO.C,J16*%
X196088000Y-53898800D03*
D17*
X196088000Y-56438800D03*
%TD*%
D12*
%TO.C,J14*%
X197358000Y-62240000D03*
D13*
X197358000Y-63490000D03*
%TD*%
D12*
%TO.C,J10*%
X192786000Y-67701000D03*
D13*
X192786000Y-68951000D03*
%TD*%
D14*
%TO.C,J12*%
X181357600Y-82346800D03*
D15*
X180107600Y-82346800D03*
X178857600Y-82346800D03*
X177607600Y-82346800D03*
X176357600Y-82346800D03*
X175107600Y-82346800D03*
X173857600Y-82346800D03*
X172607600Y-82346800D03*
X171357600Y-82346800D03*
X170107600Y-82346800D03*
%TD*%
D18*
%TO.C,J11*%
X175524000Y-54605000D03*
D19*
X176794000Y-54605000D03*
X175524000Y-55875000D03*
X176794000Y-55875000D03*
X175524000Y-57145000D03*
X176794000Y-57145000D03*
%TD*%
D12*
%TO.C,J8*%
X192786000Y-73152000D03*
D13*
X192786000Y-74402000D03*
%TD*%
D12*
%TO.C,J9*%
X197358000Y-67696000D03*
D13*
X197358000Y-68946000D03*
%TD*%
D12*
%TO.C,J15*%
X192786000Y-62230000D03*
D13*
X192786000Y-63480000D03*
%TD*%
D18*
%TO.C,J2*%
X188722000Y-64389000D03*
D19*
X188722000Y-63119000D03*
X188722000Y-61849000D03*
X188722000Y-60579000D03*
X188722000Y-59309000D03*
X188722000Y-58039000D03*
%TD*%
D20*
%TO.C,J1*%
X154953200Y-71675000D03*
D21*
X154953200Y-69675000D03*
X154953200Y-67675000D03*
X154953200Y-65675000D03*
X154953200Y-63675000D03*
X154953200Y-61675000D03*
%TD*%
D22*
%TO.C,C33*%
X174650400Y-67842800D03*
X174650400Y-69392800D03*
%TD*%
D23*
%TO.C,C23*%
X188722000Y-80966500D03*
X188722000Y-82101500D03*
%TD*%
D24*
%TO.C,C27*%
X172219256Y-79307500D03*
X172219256Y-78172500D03*
%TD*%
D25*
%TO.C,C12*%
X154635000Y-73830000D03*
X151685000Y-73830000D03*
%TD*%
%TO.C,C10*%
X154635000Y-83600000D03*
X151685000Y-83600000D03*
%TD*%
D26*
%TO.C,R2*%
X189878300Y-66141600D03*
X188683300Y-66141600D03*
%TD*%
D24*
%TO.C,C32*%
X173518284Y-79307500D03*
X173518284Y-78172500D03*
%TD*%
%TO.C,C8*%
X178612800Y-69587300D03*
X178612800Y-68452300D03*
%TD*%
D27*
%TO.C,R13*%
X195580000Y-80936500D03*
X195580000Y-82131500D03*
%TD*%
D24*
%TO.C,C30*%
X177415368Y-79307500D03*
X177415368Y-78172500D03*
%TD*%
D25*
%TO.C,C15*%
X154615000Y-81030000D03*
X151665000Y-81030000D03*
%TD*%
D27*
%TO.C,R15*%
X194310000Y-80936500D03*
X194310000Y-82131500D03*
%TD*%
D28*
%TO.C,R3*%
X185228900Y-66141600D03*
X186423900Y-66141600D03*
%TD*%
D24*
%TO.C,C26*%
X170920228Y-79307500D03*
X170920228Y-78172500D03*
%TD*%
%TO.C,C9*%
X176174400Y-69587300D03*
X176174400Y-68452300D03*
%TD*%
%TO.C,C28*%
X174817312Y-79307500D03*
X174817312Y-78172500D03*
%TD*%
%TO.C,C31*%
X178714400Y-79307500D03*
X178714400Y-78172500D03*
%TD*%
D23*
%TO.C,C7*%
X179832000Y-68461000D03*
X179832000Y-69596000D03*
%TD*%
D27*
%TO.C,R12*%
X191262000Y-80936500D03*
X191262000Y-82131500D03*
%TD*%
D29*
%TO.C,R1*%
X170688000Y-61811500D03*
X170688000Y-60616500D03*
%TD*%
D25*
%TO.C,C11*%
X154635000Y-76380000D03*
X151685000Y-76380000D03*
%TD*%
D23*
%TO.C,C24*%
X193040000Y-80966500D03*
X193040000Y-82101500D03*
%TD*%
D24*
%TO.C,C29*%
X176116340Y-79307500D03*
X176116340Y-78172500D03*
%TD*%
D30*
%TO.C,JP1*%
X172466000Y-58958000D03*
D31*
X172466000Y-57658000D03*
D32*
X172466000Y-56358000D03*
%TD*%
D24*
%TO.C,C25*%
X169621200Y-79307500D03*
X169621200Y-78172500D03*
%TD*%
D33*
%TO.C,L1*%
X177393600Y-68704600D03*
X177393600Y-69674600D03*
%TD*%
D27*
%TO.C,R14*%
X189992000Y-80936500D03*
X189992000Y-82131500D03*
%TD*%
M02*
