M48
; DRILL file {KiCad (6.0.8)} date Sat Mar 18 00:57:21 2023
; FORMAT={-:-/ absolute / inch / decimal}
; #@! TF.CreationDate,2023-03-18T00:57:21+01:00
; #@! TF.GenerationSoftware,Kicad,Pcbnew,(6.0.8)
; #@! TF.FileFunction,Plated,1,4,PTH
FMAT,2
INCH
; #@! TA.AperFunction,Plated,PTH,ViaDrill
T1C0.0118
; #@! TA.AperFunction,Plated,PTH,ViaDrill
T2C0.0157
; #@! TA.AperFunction,Plated,PTH,ComponentDrill
T3C0.0197
; #@! TA.AperFunction,Plated,PTH,ComponentDrill
T4C0.0256
; #@! TA.AperFunction,Plated,PTH,ComponentDrill
T5C0.0315
; #@! TA.AperFunction,Plated,PTH,ComponentDrill
T6C0.0394
%
G90
G05
T1
X5.972Y-3.034
X5.974Y-2.984
X6.0123Y-2.0558
X6.0143Y-2.0798
X6.0377Y-2.0812
X6.0383Y-2.0558
X6.063Y-2.0818
X6.065Y-2.0558
X6.0833Y-2.9987
X6.0837Y-3.0253
X6.084Y-3.052
X6.0843Y-2.972
X6.0883Y-2.0818
X6.0903Y-2.0558
X6.1093Y-2.9987
X6.1097Y-3.0253
X6.11Y-3.052
X6.1103Y-2.972
X6.1373Y-2.9987
X6.1377Y-3.0253
X6.138Y-3.052
X6.1383Y-2.972
X6.1763Y-2.1658
X6.1763Y-2.1908
X6.1763Y-2.2158
X6.2013Y-2.2158
X6.2263Y-2.0738
X6.2263Y-2.2158
X6.2273Y-3.26
X6.2513Y-2.2158
X6.2523Y-3.26
X6.2677Y-3.1925
X6.2773Y-3.26
X6.3023Y-3.26
X6.33Y-3.105
X6.346Y-2.578
X6.375Y-3.045
X6.406Y-2.914
X6.45Y-2.75
X6.4803Y-2.2126
X6.4803Y-2.4488
X6.484Y-3.146
X6.485Y-3.199
X6.504Y-2.814
X6.56Y-2.11
X6.56Y-2.17
X6.56Y-2.34
X6.56Y-2.4
X6.6Y-2.588
X6.614Y-2.908
X6.6242Y-2.5378
X6.6457Y-3.07
X6.6542Y-2.5058
X6.655Y-2.61
X6.68Y-3.16
X6.724Y-2.806
X6.73Y-3.16
X6.7346Y-2.48
X6.746Y-2.638
X6.78Y-3.16
X6.79Y-2.37
X6.83Y-2.735
X6.83Y-3.16
X6.876Y-2.636
X6.876Y-2.768
X6.88Y-3.16
X6.8987Y-2.8066
X6.935Y-3.16
X6.938Y-2.664
X6.94Y-2.802
X6.984Y-2.682
X6.985Y-3.16
X7.035Y-3.16
X7.0362Y-2.2618
X7.0705Y-3.0672
X7.0715Y-2.8002
X7.082Y-2.664
X7.082Y-2.766
X7.1062Y-2.2318
X7.11Y-2.976
X7.1412Y-2.2668
X7.148Y-2.938
X7.262Y-2.61
X7.296Y-2.65
X7.312Y-2.678
X7.382Y-2.648
X7.4118Y-2.6726
X7.4421Y-2.664
X7.476Y-2.632
T2
X6.672Y-2.174
X7.22Y-2.9426
X7.42Y-2.9426
X7.42Y-3.0026
X7.43Y-3.27
X7.51Y-3.0
X7.53Y-3.27
X7.6Y-3.27
X7.7Y-3.27
T3
X6.6971Y-3.242
X6.7464Y-3.242
X6.7956Y-3.242
X6.8448Y-3.242
X6.894Y-3.242
X6.9432Y-3.242
X6.9924Y-3.242
X7.0416Y-3.242
X7.0909Y-3.242
X7.1401Y-3.242
X7.227Y-2.0823
X7.2762Y-2.0823
X7.3254Y-2.0823
X7.3746Y-2.0823
X7.4238Y-2.0823
X7.473Y-2.0823
X7.59Y-2.45
X7.59Y-2.4992
X7.59Y-2.6654
X7.59Y-2.7146
X7.59Y-2.88
X7.59Y-2.9292
X7.77Y-2.4504
X7.77Y-2.4996
X7.77Y-2.6652
X7.77Y-2.7144
X7.77Y-2.88
X7.77Y-2.9292
T4
X6.9104Y-2.1498
X6.9104Y-2.1998
X6.9104Y-2.2498
X6.9604Y-2.1498
X6.9604Y-2.1998
X6.9604Y-2.2498
X7.43Y-2.285
X7.43Y-2.335
X7.43Y-2.385
X7.43Y-2.435
X7.43Y-2.485
X7.43Y-2.535
T5
X6.1005Y-2.4281
X6.1005Y-2.5069
X6.1005Y-2.5856
X6.1005Y-2.6644
X6.1005Y-2.7431
X6.1005Y-2.8219
X7.4569Y-3.1075
X7.5356Y-3.1075
X7.6144Y-3.1075
X7.6931Y-3.1075
T6
X7.72Y-2.122
X7.72Y-2.222
T0
M30
